<?xml version="1.0" encoding="UTF-8"?>
<svg xmlns="http://www.w3.org/2000/svg" xmlns:xlink="http://www.w3.org/1999/xlink" width="1000pt" height="600pt" viewBox="0 0 1000 600" version="1.1">
<g id="surface51">
<rect x="0" y="0" width="1000" height="600" style="fill:rgb(0%,0%,0%);fill-opacity:1;stroke:none;"/>
<path style="fill:none;stroke-width:0.01;stroke-linecap:butt;stroke-linejoin:miter;stroke:rgb(100%,100%,100%);stroke-opacity:0.5;stroke-miterlimit:10;" d="M -5 -3 L -5 3 " transform="matrix(100,0,0,-100,500,300)"/>
<path style="fill:none;stroke-width:0.01;stroke-linecap:butt;stroke-linejoin:miter;stroke:rgb(100%,100%,100%);stroke-opacity:0.5;stroke-miterlimit:10;" d="M -4 -3 L -4 3 " transform="matrix(100,0,0,-100,500,300)"/>
<path style="fill:none;stroke-width:0.01;stroke-linecap:butt;stroke-linejoin:miter;stroke:rgb(100%,100%,100%);stroke-opacity:0.5;stroke-miterlimit:10;" d="M -3 -3 L -3 3 " transform="matrix(100,0,0,-100,500,300)"/>
<path style="fill:none;stroke-width:0.01;stroke-linecap:butt;stroke-linejoin:miter;stroke:rgb(100%,100%,100%);stroke-opacity:0.5;stroke-miterlimit:10;" d="M -2 -3 L -2 3 " transform="matrix(100,0,0,-100,500,300)"/>
<path style="fill:none;stroke-width:0.01;stroke-linecap:butt;stroke-linejoin:miter;stroke:rgb(100%,100%,100%);stroke-opacity:0.5;stroke-miterlimit:10;" d="M -1 -3 L -1 3 " transform="matrix(100,0,0,-100,500,300)"/>
<path style="fill:none;stroke-width:0.01;stroke-linecap:butt;stroke-linejoin:miter;stroke:rgb(100%,100%,100%);stroke-opacity:1;stroke-miterlimit:10;" d="M 0 -3 L 0 3 " transform="matrix(100,0,0,-100,500,300)"/>
<path style="fill:none;stroke-width:0.01;stroke-linecap:butt;stroke-linejoin:miter;stroke:rgb(100%,100%,100%);stroke-opacity:0.5;stroke-miterlimit:10;" d="M 1 -3 L 1 3 " transform="matrix(100,0,0,-100,500,300)"/>
<path style="fill:none;stroke-width:0.01;stroke-linecap:butt;stroke-linejoin:miter;stroke:rgb(100%,100%,100%);stroke-opacity:0.5;stroke-miterlimit:10;" d="M 2 -3 L 2 3 " transform="matrix(100,0,0,-100,500,300)"/>
<path style="fill:none;stroke-width:0.01;stroke-linecap:butt;stroke-linejoin:miter;stroke:rgb(100%,100%,100%);stroke-opacity:0.5;stroke-miterlimit:10;" d="M 3 -3 L 3 3 " transform="matrix(100,0,0,-100,500,300)"/>
<path style="fill:none;stroke-width:0.01;stroke-linecap:butt;stroke-linejoin:miter;stroke:rgb(100%,100%,100%);stroke-opacity:0.5;stroke-miterlimit:10;" d="M 4 -3 L 4 3 " transform="matrix(100,0,0,-100,500,300)"/>
<path style="fill:none;stroke-width:0.01;stroke-linecap:butt;stroke-linejoin:miter;stroke:rgb(100%,100%,100%);stroke-opacity:0.5;stroke-miterlimit:10;" d="M 5 -3 L 5 3 " transform="matrix(100,0,0,-100,500,300)"/>
<path style="fill:none;stroke-width:0.005;stroke-linecap:butt;stroke-linejoin:miter;stroke:rgb(100%,100%,100%);stroke-opacity:0.25;stroke-miterlimit:10;" d="M -4.75 -3 L -4.75 3 " transform="matrix(100,0,0,-100,500,300)"/>
<path style="fill:none;stroke-width:0.005;stroke-linecap:butt;stroke-linejoin:miter;stroke:rgb(100%,100%,100%);stroke-opacity:0.25;stroke-miterlimit:10;" d="M -4.5 -3 L -4.5 3 " transform="matrix(100,0,0,-100,500,300)"/>
<path style="fill:none;stroke-width:0.005;stroke-linecap:butt;stroke-linejoin:miter;stroke:rgb(100%,100%,100%);stroke-opacity:0.25;stroke-miterlimit:10;" d="M -4.25 -3 L -4.25 3 " transform="matrix(100,0,0,-100,500,300)"/>
<path style="fill:none;stroke-width:0.005;stroke-linecap:butt;stroke-linejoin:miter;stroke:rgb(100%,100%,100%);stroke-opacity:0.25;stroke-miterlimit:10;" d="M -3.75 -3 L -3.75 3 " transform="matrix(100,0,0,-100,500,300)"/>
<path style="fill:none;stroke-width:0.005;stroke-linecap:butt;stroke-linejoin:miter;stroke:rgb(100%,100%,100%);stroke-opacity:0.25;stroke-miterlimit:10;" d="M -3.5 -3 L -3.5 3 " transform="matrix(100,0,0,-100,500,300)"/>
<path style="fill:none;stroke-width:0.005;stroke-linecap:butt;stroke-linejoin:miter;stroke:rgb(100%,100%,100%);stroke-opacity:0.25;stroke-miterlimit:10;" d="M -3.25 -3 L -3.25 3 " transform="matrix(100,0,0,-100,500,300)"/>
<path style="fill:none;stroke-width:0.005;stroke-linecap:butt;stroke-linejoin:miter;stroke:rgb(100%,100%,100%);stroke-opacity:0.25;stroke-miterlimit:10;" d="M -2.75 -3 L -2.75 3 " transform="matrix(100,0,0,-100,500,300)"/>
<path style="fill:none;stroke-width:0.005;stroke-linecap:butt;stroke-linejoin:miter;stroke:rgb(100%,100%,100%);stroke-opacity:0.25;stroke-miterlimit:10;" d="M -2.5 -3 L -2.5 3 " transform="matrix(100,0,0,-100,500,300)"/>
<path style="fill:none;stroke-width:0.005;stroke-linecap:butt;stroke-linejoin:miter;stroke:rgb(100%,100%,100%);stroke-opacity:0.25;stroke-miterlimit:10;" d="M -2.25 -3 L -2.25 3 " transform="matrix(100,0,0,-100,500,300)"/>
<path style="fill:none;stroke-width:0.005;stroke-linecap:butt;stroke-linejoin:miter;stroke:rgb(100%,100%,100%);stroke-opacity:0.25;stroke-miterlimit:10;" d="M -1.75 -3 L -1.75 3 " transform="matrix(100,0,0,-100,500,300)"/>
<path style="fill:none;stroke-width:0.005;stroke-linecap:butt;stroke-linejoin:miter;stroke:rgb(100%,100%,100%);stroke-opacity:0.25;stroke-miterlimit:10;" d="M -1.5 -3 L -1.5 3 " transform="matrix(100,0,0,-100,500,300)"/>
<path style="fill:none;stroke-width:0.005;stroke-linecap:butt;stroke-linejoin:miter;stroke:rgb(100%,100%,100%);stroke-opacity:0.25;stroke-miterlimit:10;" d="M -1.25 -3 L -1.25 3 " transform="matrix(100,0,0,-100,500,300)"/>
<path style="fill:none;stroke-width:0.005;stroke-linecap:butt;stroke-linejoin:miter;stroke:rgb(100%,100%,100%);stroke-opacity:0.25;stroke-miterlimit:10;" d="M -0.75 -3 L -0.75 3 " transform="matrix(100,0,0,-100,500,300)"/>
<path style="fill:none;stroke-width:0.005;stroke-linecap:butt;stroke-linejoin:miter;stroke:rgb(100%,100%,100%);stroke-opacity:0.25;stroke-miterlimit:10;" d="M -0.5 -3 L -0.5 3 " transform="matrix(100,0,0,-100,500,300)"/>
<path style="fill:none;stroke-width:0.005;stroke-linecap:butt;stroke-linejoin:miter;stroke:rgb(100%,100%,100%);stroke-opacity:0.25;stroke-miterlimit:10;" d="M -0.25 -3 L -0.25 3 " transform="matrix(100,0,0,-100,500,300)"/>
<path style="fill:none;stroke-width:0.005;stroke-linecap:butt;stroke-linejoin:miter;stroke:rgb(100%,100%,100%);stroke-opacity:0.25;stroke-miterlimit:10;" d="M 0.25 -3 L 0.25 3 " transform="matrix(100,0,0,-100,500,300)"/>
<path style="fill:none;stroke-width:0.005;stroke-linecap:butt;stroke-linejoin:miter;stroke:rgb(100%,100%,100%);stroke-opacity:0.25;stroke-miterlimit:10;" d="M 0.5 -3 L 0.5 3 " transform="matrix(100,0,0,-100,500,300)"/>
<path style="fill:none;stroke-width:0.005;stroke-linecap:butt;stroke-linejoin:miter;stroke:rgb(100%,100%,100%);stroke-opacity:0.25;stroke-miterlimit:10;" d="M 0.75 -3 L 0.75 3 " transform="matrix(100,0,0,-100,500,300)"/>
<path style="fill:none;stroke-width:0.005;stroke-linecap:butt;stroke-linejoin:miter;stroke:rgb(100%,100%,100%);stroke-opacity:0.25;stroke-miterlimit:10;" d="M 1.25 -3 L 1.25 3 " transform="matrix(100,0,0,-100,500,300)"/>
<path style="fill:none;stroke-width:0.005;stroke-linecap:butt;stroke-linejoin:miter;stroke:rgb(100%,100%,100%);stroke-opacity:0.25;stroke-miterlimit:10;" d="M 1.5 -3 L 1.5 3 " transform="matrix(100,0,0,-100,500,300)"/>
<path style="fill:none;stroke-width:0.005;stroke-linecap:butt;stroke-linejoin:miter;stroke:rgb(100%,100%,100%);stroke-opacity:0.25;stroke-miterlimit:10;" d="M 1.75 -3 L 1.75 3 " transform="matrix(100,0,0,-100,500,300)"/>
<path style="fill:none;stroke-width:0.005;stroke-linecap:butt;stroke-linejoin:miter;stroke:rgb(100%,100%,100%);stroke-opacity:0.25;stroke-miterlimit:10;" d="M 2.25 -3 L 2.25 3 " transform="matrix(100,0,0,-100,500,300)"/>
<path style="fill:none;stroke-width:0.005;stroke-linecap:butt;stroke-linejoin:miter;stroke:rgb(100%,100%,100%);stroke-opacity:0.25;stroke-miterlimit:10;" d="M 2.5 -3 L 2.5 3 " transform="matrix(100,0,0,-100,500,300)"/>
<path style="fill:none;stroke-width:0.005;stroke-linecap:butt;stroke-linejoin:miter;stroke:rgb(100%,100%,100%);stroke-opacity:0.25;stroke-miterlimit:10;" d="M 2.75 -3 L 2.75 3 " transform="matrix(100,0,0,-100,500,300)"/>
<path style="fill:none;stroke-width:0.005;stroke-linecap:butt;stroke-linejoin:miter;stroke:rgb(100%,100%,100%);stroke-opacity:0.25;stroke-miterlimit:10;" d="M 3.25 -3 L 3.25 3 " transform="matrix(100,0,0,-100,500,300)"/>
<path style="fill:none;stroke-width:0.005;stroke-linecap:butt;stroke-linejoin:miter;stroke:rgb(100%,100%,100%);stroke-opacity:0.25;stroke-miterlimit:10;" d="M 3.5 -3 L 3.5 3 " transform="matrix(100,0,0,-100,500,300)"/>
<path style="fill:none;stroke-width:0.005;stroke-linecap:butt;stroke-linejoin:miter;stroke:rgb(100%,100%,100%);stroke-opacity:0.25;stroke-miterlimit:10;" d="M 3.75 -3 L 3.75 3 " transform="matrix(100,0,0,-100,500,300)"/>
<path style="fill:none;stroke-width:0.005;stroke-linecap:butt;stroke-linejoin:miter;stroke:rgb(100%,100%,100%);stroke-opacity:0.25;stroke-miterlimit:10;" d="M 4.25 -3 L 4.25 3 " transform="matrix(100,0,0,-100,500,300)"/>
<path style="fill:none;stroke-width:0.005;stroke-linecap:butt;stroke-linejoin:miter;stroke:rgb(100%,100%,100%);stroke-opacity:0.25;stroke-miterlimit:10;" d="M 4.5 -3 L 4.5 3 " transform="matrix(100,0,0,-100,500,300)"/>
<path style="fill:none;stroke-width:0.005;stroke-linecap:butt;stroke-linejoin:miter;stroke:rgb(100%,100%,100%);stroke-opacity:0.25;stroke-miterlimit:10;" d="M 4.75 -3 L 4.75 3 " transform="matrix(100,0,0,-100,500,300)"/>
<path style="fill:none;stroke-width:0.01;stroke-linecap:butt;stroke-linejoin:miter;stroke:rgb(100%,100%,100%);stroke-opacity:0.5;stroke-miterlimit:10;" d="M -5 -3 L 5 -3 " transform="matrix(100,0,0,-100,500,300)"/>
<path style="fill:none;stroke-width:0.01;stroke-linecap:butt;stroke-linejoin:miter;stroke:rgb(100%,100%,100%);stroke-opacity:0.5;stroke-miterlimit:10;" d="M -5 -2 L 5 -2 " transform="matrix(100,0,0,-100,500,300)"/>
<path style="fill:none;stroke-width:0.01;stroke-linecap:butt;stroke-linejoin:miter;stroke:rgb(100%,100%,100%);stroke-opacity:0.5;stroke-miterlimit:10;" d="M -5 -1 L 5 -1 " transform="matrix(100,0,0,-100,500,300)"/>
<path style="fill:none;stroke-width:0.01;stroke-linecap:butt;stroke-linejoin:miter;stroke:rgb(100%,100%,100%);stroke-opacity:1;stroke-miterlimit:10;" d="M -5 0 L 5 0 " transform="matrix(100,0,0,-100,500,300)"/>
<path style="fill:none;stroke-width:0.01;stroke-linecap:butt;stroke-linejoin:miter;stroke:rgb(100%,100%,100%);stroke-opacity:0.5;stroke-miterlimit:10;" d="M -5 1 L 5 1 " transform="matrix(100,0,0,-100,500,300)"/>
<path style="fill:none;stroke-width:0.01;stroke-linecap:butt;stroke-linejoin:miter;stroke:rgb(100%,100%,100%);stroke-opacity:0.5;stroke-miterlimit:10;" d="M -5 2 L 5 2 " transform="matrix(100,0,0,-100,500,300)"/>
<path style="fill:none;stroke-width:0.01;stroke-linecap:butt;stroke-linejoin:miter;stroke:rgb(100%,100%,100%);stroke-opacity:0.5;stroke-miterlimit:10;" d="M -5 3 L 5 3 " transform="matrix(100,0,0,-100,500,300)"/>
<path style="fill:none;stroke-width:0.005;stroke-linecap:butt;stroke-linejoin:miter;stroke:rgb(100%,100%,100%);stroke-opacity:0.25;stroke-miterlimit:10;" d="M -5 -2.75 L 5 -2.75 " transform="matrix(100,0,0,-100,500,300)"/>
<path style="fill:none;stroke-width:0.005;stroke-linecap:butt;stroke-linejoin:miter;stroke:rgb(100%,100%,100%);stroke-opacity:0.25;stroke-miterlimit:10;" d="M -5 -2.5 L 5 -2.5 " transform="matrix(100,0,0,-100,500,300)"/>
<path style="fill:none;stroke-width:0.005;stroke-linecap:butt;stroke-linejoin:miter;stroke:rgb(100%,100%,100%);stroke-opacity:0.25;stroke-miterlimit:10;" d="M -5 -2.25 L 5 -2.25 " transform="matrix(100,0,0,-100,500,300)"/>
<path style="fill:none;stroke-width:0.005;stroke-linecap:butt;stroke-linejoin:miter;stroke:rgb(100%,100%,100%);stroke-opacity:0.25;stroke-miterlimit:10;" d="M -5 -1.75 L 5 -1.75 " transform="matrix(100,0,0,-100,500,300)"/>
<path style="fill:none;stroke-width:0.005;stroke-linecap:butt;stroke-linejoin:miter;stroke:rgb(100%,100%,100%);stroke-opacity:0.25;stroke-miterlimit:10;" d="M -5 -1.5 L 5 -1.5 " transform="matrix(100,0,0,-100,500,300)"/>
<path style="fill:none;stroke-width:0.005;stroke-linecap:butt;stroke-linejoin:miter;stroke:rgb(100%,100%,100%);stroke-opacity:0.25;stroke-miterlimit:10;" d="M -5 -1.25 L 5 -1.25 " transform="matrix(100,0,0,-100,500,300)"/>
<path style="fill:none;stroke-width:0.005;stroke-linecap:butt;stroke-linejoin:miter;stroke:rgb(100%,100%,100%);stroke-opacity:0.25;stroke-miterlimit:10;" d="M -5 -0.75 L 5 -0.75 " transform="matrix(100,0,0,-100,500,300)"/>
<path style="fill:none;stroke-width:0.005;stroke-linecap:butt;stroke-linejoin:miter;stroke:rgb(100%,100%,100%);stroke-opacity:0.25;stroke-miterlimit:10;" d="M -5 -0.5 L 5 -0.5 " transform="matrix(100,0,0,-100,500,300)"/>
<path style="fill:none;stroke-width:0.005;stroke-linecap:butt;stroke-linejoin:miter;stroke:rgb(100%,100%,100%);stroke-opacity:0.25;stroke-miterlimit:10;" d="M -5 -0.25 L 5 -0.25 " transform="matrix(100,0,0,-100,500,300)"/>
<path style="fill:none;stroke-width:0.005;stroke-linecap:butt;stroke-linejoin:miter;stroke:rgb(100%,100%,100%);stroke-opacity:0.25;stroke-miterlimit:10;" d="M -5 0.25 L 5 0.25 " transform="matrix(100,0,0,-100,500,300)"/>
<path style="fill:none;stroke-width:0.005;stroke-linecap:butt;stroke-linejoin:miter;stroke:rgb(100%,100%,100%);stroke-opacity:0.25;stroke-miterlimit:10;" d="M -5 0.5 L 5 0.5 " transform="matrix(100,0,0,-100,500,300)"/>
<path style="fill:none;stroke-width:0.005;stroke-linecap:butt;stroke-linejoin:miter;stroke:rgb(100%,100%,100%);stroke-opacity:0.25;stroke-miterlimit:10;" d="M -5 0.75 L 5 0.75 " transform="matrix(100,0,0,-100,500,300)"/>
<path style="fill:none;stroke-width:0.005;stroke-linecap:butt;stroke-linejoin:miter;stroke:rgb(100%,100%,100%);stroke-opacity:0.25;stroke-miterlimit:10;" d="M -5 1.25 L 5 1.25 " transform="matrix(100,0,0,-100,500,300)"/>
<path style="fill:none;stroke-width:0.005;stroke-linecap:butt;stroke-linejoin:miter;stroke:rgb(100%,100%,100%);stroke-opacity:0.25;stroke-miterlimit:10;" d="M -5 1.5 L 5 1.5 " transform="matrix(100,0,0,-100,500,300)"/>
<path style="fill:none;stroke-width:0.005;stroke-linecap:butt;stroke-linejoin:miter;stroke:rgb(100%,100%,100%);stroke-opacity:0.25;stroke-miterlimit:10;" d="M -5 1.75 L 5 1.75 " transform="matrix(100,0,0,-100,500,300)"/>
<path style="fill:none;stroke-width:0.005;stroke-linecap:butt;stroke-linejoin:miter;stroke:rgb(100%,100%,100%);stroke-opacity:0.25;stroke-miterlimit:10;" d="M -5 2.25 L 5 2.25 " transform="matrix(100,0,0,-100,500,300)"/>
<path style="fill:none;stroke-width:0.005;stroke-linecap:butt;stroke-linejoin:miter;stroke:rgb(100%,100%,100%);stroke-opacity:0.25;stroke-miterlimit:10;" d="M -5 2.5 L 5 2.5 " transform="matrix(100,0,0,-100,500,300)"/>
<path style="fill:none;stroke-width:0.005;stroke-linecap:butt;stroke-linejoin:miter;stroke:rgb(100%,100%,100%);stroke-opacity:0.25;stroke-miterlimit:10;" d="M -5 2.75 L 5 2.75 " transform="matrix(100,0,0,-100,500,300)"/>
<path style="fill:none;stroke-width:0.03;stroke-linecap:butt;stroke-linejoin:miter;stroke:rgb(87.058824%,29.803922%,71.764706%);stroke-opacity:1;stroke-miterlimit:10;" d="M -5 -2.24582 L -4.94 -2.250977 L -4.93 -2.251797 L -4.9 -2.254375 L -4.89 -2.255195 L -4.88 -2.256055 L -4.87 -2.256875 L -4.86 -2.257734 L -4.85 -2.258555 L -4.84 -2.259414 L -4.83 -2.260234 L -4.82 -2.261094 L -4.73 -2.268477 L -4.72 -2.269258 L -4.71 -2.270078 L -4.7 -2.270859 L -4.69 -2.27168 L -4.66 -2.274023 L -4.65 -2.274844 L -4.64 -2.275586 L -4.61 -2.27793 L -4.6 -2.278672 L -4.59 -2.279453 L -4.53 -2.283906 L -4.51 -2.285312 L -4.5 -2.286055 L -4.47 -2.288164 L -4.46 -2.288828 L -4.45 -2.289531 L -4.4 -2.292852 L -4.39 -2.293477 L -4.38 -2.294141 L -4.36 -2.295391 L -4.35 -2.295977 L -4.34 -2.296602 L -4.3 -2.298945 L -4.25 -2.30168 L -4.22 -2.303203 L -4.21 -2.303672 L -4.2 -2.30418 L -4.18 -2.305117 L -4.14 -2.306836 L -4.11 -2.308008 L -4.07 -2.309414 L -4.05 -2.310039 L -4.02 -2.310859 L -3.99 -2.311562 L -3.96 -2.312148 L -3.94 -2.312461 L -3.91 -2.312812 L -3.9 -2.312891 L -3.89 -2.31293 L -3.88 -2.313008 L -3.87 -2.313008 L -3.86 -2.313047 L -3.85 -2.313047 L -3.82 -2.31293 L -3.81 -2.312852 L -3.78 -2.3125 L -3.77 -2.312344 L -3.74 -2.311758 L -3.73 -2.311523 L -3.71 -2.310977 L -3.69 -2.310352 L -3.67 -2.309648 L -3.65 -2.308867 L -3.64 -2.308398 L -3.63 -2.307969 L -3.6 -2.306445 L -3.59 -2.305898 L -3.58 -2.305313 L -3.56 -2.304062 L -3.54 -2.302734 L -3.53 -2.302031 L -3.52 -2.301289 L -3.5 -2.299727 L -3.49 -2.298906 L -3.47 -2.297187 L -3.46 -2.296289 L -3.45 -2.295352 L -3.43 -2.293398 L -3.42 -2.292383 L -3.41 -2.291328 L -3.39 -2.289141 L -3.38 -2.288008 L -3.37 -2.286836 L -3.36 -2.285625 L -3.34 -2.283125 L -3.33 -2.281836 L -3.32 -2.280508 L -3.31 -2.279141 L -3.3 -2.277734 L -3.28 -2.274844 L -3.26 -2.271797 L -3.25 -2.270234 L -3.24 -2.268633 L -3.23 -2.266992 L -3.22 -2.265313 L -3.21 -2.263594 L -3.19 -2.260078 L -3.18 -2.258242 L -3.16 -2.254492 L -3.14 -2.250586 L -3.12 -2.246523 L -3.11 -2.244453 L -3.09 -2.240156 L -3.07 -2.235703 L -3.06 -2.233437 L -3.04 -2.22875 L -3.03 -2.226328 L -3.01 -2.221406 L -3 -2.218867 L -2.99 -2.216289 L -2.98 -2.213672 L -2.97 -2.211016 L -2.96 -2.20832 L -2.95 -2.205586 L -2.94 -2.202813 L -2.93 -2.2 L -2.91 -2.194219 L -2.9 -2.19125 L -2.89 -2.188242 L -2.88 -2.185195 L -2.87 -2.182109 L -2.86 -2.178984 L -2.85 -2.17582 L -2.84 -2.172578 L -2.82 -2.166016 L -2.81 -2.162656 L -2.8 -2.159258 L -2.78 -2.152305 L -2.76 -2.145195 L -2.75 -2.141563 L -2.73 -2.134141 L -2.72 -2.130391 L -2.71 -2.126563 L -2.7 -2.122695 L -2.69 -2.118789 L -2.68 -2.114844 L -2.66 -2.106797 L -2.65 -2.102695 L -2.64 -2.098555 L -2.62 -2.090117 L -2.61 -2.08582 L -2.6 -2.081484 L -2.59 -2.077109 L -2.58 -2.072695 L -2.57 -2.068242 L -2.56 -2.063711 L -2.55 -2.059141 L -2.54 -2.054531 L -2.53 -2.049883 L -2.51 -2.04043 L -2.5 -2.035625 L -2.49 -2.030781 L -2.48 -2.025898 L -2.46 -2.015977 L -2.45 -2.010937 L -2.44 -2.005859 L -2.43 -2.000742 L -2.42 -1.995586 L -2.4 -1.985117 L -2.39 -1.979805 L -2.38 -1.974453 L -2.37 -1.969062 L -2.36 -1.963633 L -2.34 -1.952617 L -2.32 -1.941445 L -2.31 -1.935781 L -2.3 -1.930078 L -2.29 -1.924336 L -2.28 -1.918555 L -2.27 -1.912734 L -2.26 -1.906875 L -2.24 -1.895 L -2.22 -1.882969 L -2.2 -1.870781 L -2.18 -1.858437 L -2.16 -1.845937 L -2.14 -1.833281 L -2.12 -1.820469 L -2.11 -1.814023 L -2.09 -1.800977 L -2.08 -1.794414 L -2.07 -1.787813 L -2.05 -1.774531 L -2.03 -1.761094 L -2.01 -1.7475 L -1.99 -1.733828 L -1.97 -1.72 L -1.95 -1.706094 L -1.93 -1.692031 L -1.91 -1.677891 L -1.9 -1.670742 L -1.89 -1.663633 L -1.87 -1.649258 L -1.85 -1.634805 L -1.83 -1.620273 L -1.82 -1.612969 L -1.79 -1.590937 L -1.78 -1.583555 L -1.75 -1.561289 L -1.72 -1.538906 L -1.71 -1.531406 L -1.7 -1.523867 L -1.69 -1.516367 L -1.68 -1.508828 L -1.67 -1.50125 L -1.66 -1.493711 L -1.63 -1.470977 L -1.58 -1.432891 L -1.57 -1.425234 L -1.56 -1.417617 L -1.45 -1.333398 L -1.44 -1.325781 L -1.42 -1.310469 L -1.41 -1.302852 L -1.4 -1.295195 L -1.35 -1.257109 L -1.31 -1.226797 L -1.27 -1.196641 L -1.25 -1.181641 L -1.21 -1.151797 L -1.2 -1.144414 L -1.19 -1.136992 L -1.17 -1.122227 L -1.15 -1.107539 L -1.13 -1.09293 L -1.11 -1.078398 L -1.09 -1.063945 L -1.07 -1.04957 L -1.06 -1.042422 L -1.03 -1.021094 L -1 -1 L 1 1 L 1.03 1.021094 L 1.06 1.042422 L 1.07 1.04957 L 1.09 1.063945 L 1.11 1.078398 L 1.13 1.09293 L 1.15 1.107539 L 1.17 1.122227 L 1.19 1.136992 L 1.2 1.144414 L 1.21 1.151797 L 1.25 1.181641 L 1.27 1.196641 L 1.31 1.226797 L 1.35 1.257109 L 1.4 1.295195 L 1.41 1.302852 L 1.42 1.310469 L 1.44 1.325781 L 1.45 1.333398 L 1.56 1.417617 L 1.57 1.425234 L 1.58 1.432891 L 1.63 1.470977 L 1.66 1.493711 L 1.67 1.50125 L 1.68 1.508828 L 1.69 1.516367 L 1.7 1.523867 L 1.71 1.531406 L 1.72 1.538906 L 1.75 1.561289 L 1.78 1.583555 L 1.79 1.590937 L 1.82 1.612969 L 1.83 1.620273 L 1.85 1.634805 L 1.87 1.649258 L 1.89 1.663633 L 1.9 1.670742 L 1.91 1.677891 L 1.93 1.692031 L 1.95 1.706094 L 1.97 1.72 L 1.99 1.733828 L 2.01 1.7475 L 2.03 1.761094 L 2.05 1.774531 L 2.07 1.787813 L 2.08 1.794414 L 2.09 1.800977 L 2.11 1.814023 L 2.12 1.820469 L 2.14 1.833281 L 2.16 1.845938 L 2.18 1.858437 L 2.2 1.870781 L 2.22 1.882969 L 2.24 1.895 L 2.26 1.906875 L 2.27 1.912734 L 2.28 1.918555 L 2.29 1.924336 L 2.3 1.930078 L 2.31 1.935781 L 2.32 1.941445 L 2.34 1.952617 L 2.36 1.963633 L 2.37 1.969062 L 2.38 1.974453 L 2.39 1.979805 L 2.4 1.985117 L 2.42 1.995586 L 2.43 2.000742 L 2.44 2.005859 L 2.45 2.010937 L 2.46 2.015977 L 2.48 2.025898 L 2.49 2.030781 L 2.5 2.035625 L 2.51 2.04043 L 2.53 2.049883 L 2.54 2.054531 L 2.55 2.059141 L 2.56 2.063711 L 2.57 2.068242 L 2.58 2.072695 L 2.59 2.077109 L 2.6 2.081484 L 2.61 2.08582 L 2.62 2.090117 L 2.64 2.098555 L 2.65 2.102695 L 2.66 2.106797 L 2.68 2.114844 L 2.69 2.118789 L 2.7 2.122695 L 2.71 2.126562 L 2.72 2.130391 L 2.73 2.134141 L 2.75 2.141563 L 2.76 2.145195 L 2.78 2.152305 L 2.8 2.159258 L 2.81 2.162656 L 2.82 2.166016 L 2.84 2.172578 L 2.85 2.17582 L 2.86 2.178984 L 2.87 2.182109 L 2.88 2.185195 L 2.89 2.188242 L 2.9 2.19125 L 2.91 2.194219 L 2.93 2.2 L 2.94 2.202812 L 2.95 2.205586 L 2.96 2.20832 L 2.97 2.211016 L 2.98 2.213672 L 2.99 2.216289 L 3 2.218867 L 3.01 2.221406 L 3.03 2.226328 L 3.04 2.22875 L 3.06 2.233437 L 3.07 2.235703 L 3.09 2.240156 L 3.11 2.244453 L 3.12 2.246523 L 3.14 2.250586 L 3.16 2.254492 L 3.18 2.258242 L 3.19 2.260078 L 3.21 2.263594 L 3.22 2.265312 L 3.23 2.266992 L 3.24 2.268633 L 3.25 2.270234 L 3.26 2.271797 L 3.28 2.274844 L 3.3 2.277734 L 3.31 2.279141 L 3.32 2.280508 L 3.33 2.281836 L 3.34 2.283125 L 3.36 2.285625 L 3.37 2.286836 L 3.38 2.288008 L 3.39 2.289141 L 3.41 2.291328 L 3.42 2.292383 L 3.43 2.293398 L 3.45 2.295352 L 3.46 2.296289 L 3.47 2.297187 L 3.49 2.298906 L 3.5 2.299727 L 3.52 2.301289 L 3.53 2.302031 L 3.54 2.302734 L 3.56 2.304063 L 3.58 2.305312 L 3.59 2.305898 L 3.6 2.306445 L 3.63 2.307969 L 3.64 2.308398 L 3.65 2.308867 L 3.67 2.309648 L 3.69 2.310352 L 3.71 2.310977 L 3.73 2.311523 L 3.74 2.311758 L 3.77 2.312344 L 3.78 2.3125 L 3.81 2.312852 L 3.82 2.31293 L 3.85 2.313047 L 3.86 2.313047 L 3.87 2.313008 L 3.88 2.313008 L 3.89 2.31293 L 3.9 2.312891 L 3.91 2.312812 L 3.94 2.312461 L 3.96 2.312148 L 3.99 2.311562 L 4.02 2.310859 L 4.05 2.310039 L 4.07 2.309414 L 4.11 2.308008 L 4.14 2.306836 L 4.18 2.305117 L 4.2 2.30418 L 4.21 2.303672 L 4.22 2.303203 L 4.25 2.30168 L 4.3 2.298945 L 4.34 2.296602 L 4.35 2.295977 L 4.36 2.295391 L 4.38 2.294141 L 4.39 2.293477 L 4.4 2.292852 L 4.45 2.289531 L 4.46 2.288828 L 4.47 2.288164 L 4.5 2.286055 L 4.51 2.285312 L 4.53 2.283906 L 4.59 2.279453 L 4.6 2.278672 L 4.61 2.27793 L 4.64 2.275586 L 4.65 2.274844 L 4.66 2.274023 L 4.69 2.27168 L 4.7 2.270859 L 4.71 2.270078 L 4.72 2.269258 L 4.73 2.268477 L 4.82 2.261094 L 4.83 2.260234 L 4.84 2.259414 L 4.85 2.258555 L 4.86 2.257734 L 4.87 2.256875 L 4.88 2.256055 L 4.89 2.255195 L 4.9 2.254375 L 4.93 2.251797 L 4.94 2.250977 L 5 2.24582 " transform="matrix(100,0,0,-100,500,300)"/>
<path style="fill:none;stroke-width:0.03;stroke-linecap:butt;stroke-linejoin:miter;stroke:rgb(87.058824%,29.803922%,71.764706%);stroke-opacity:0.75;stroke-miterlimit:10;" d="M -5 -1.835078 L -4.99 -1.833281 L -4.97 -1.829609 L -4.96 -1.827813 L -4.9 -1.816797 L -4.89 -1.814922 L -4.88 -1.813086 L -4.87 -1.811211 L -4.86 -1.809375 L -4.85 -1.8075 L -4.84 -1.805664 L -4.76 -1.790664 L -4.75 -1.78875 L -4.74 -1.786875 L -4.73 -1.784961 L -4.72 -1.783086 L -4.71 -1.781172 L -4.7 -1.779297 L -4.62 -1.763984 L -4.61 -1.762031 L -4.6 -1.760117 L -4.59 -1.758164 L -4.58 -1.75625 L -4.57 -1.754297 L -4.56 -1.752383 L -4.46 -1.732852 L -4.45 -1.730859 L -4.44 -1.728906 L -4.43 -1.726914 L -4.42 -1.724961 L -4.41 -1.722969 L -4.4 -1.721016 L -4.31 -1.703086 L -4.3 -1.701055 L -4.28 -1.69707 L -4.27 -1.695039 L -4.26 -1.693047 L -4.25 -1.691016 L -4.24 -1.689023 L -4.21 -1.68293 L -4.2 -1.680937 L -4.16 -1.672813 L -4.15 -1.670742 L -4.11 -1.662617 L -4.1 -1.660547 L -4.09 -1.658516 L -4.08 -1.656445 L -4.07 -1.654414 L -4.05 -1.650273 L -4.04 -1.648242 L -4.01 -1.642031 L -4 -1.64 L -3.96 -1.631719 L -3.95 -1.629609 L -3.91 -1.621328 L -3.9 -1.619219 L -3.89 -1.617148 L -3.88 -1.615039 L -3.87 -1.612969 L -3.86 -1.610859 L -3.85 -1.608789 L -3.84 -1.60668 L -3.83 -1.604609 L -3.8 -1.598281 L -3.79 -1.596211 L -3.7 -1.577227 L -3.69 -1.575078 L -3.67 -1.570859 L -3.66 -1.568711 L -3.64 -1.564492 L -3.63 -1.562344 L -3.62 -1.560234 L -3.61 -1.558086 L -3.6 -1.555977 L -3.59 -1.553828 L -3.58 -1.551719 L -3.56 -1.547422 L -3.55 -1.545313 L -3.53 -1.541016 L -3.52 -1.538906 L -3.37 -1.50668 L -3.36 -1.504492 L -3.33 -1.498047 L -3.32 -1.495859 L -3.3 -1.491562 L -3.29 -1.489375 L -3.28 -1.487227 L -3.27 -1.485039 L -3.26 -1.482891 L -3.25 -1.480703 L -3.24 -1.478555 L -3.23 -1.476367 L -3.22 -1.474219 L -3.21 -1.472031 L -3.2 -1.469883 L -3.19 -1.467695 L -3.18 -1.465547 L -3.16 -1.461172 L -3.15 -1.459023 L -3.13 -1.454648 L -3.12 -1.4525 L -3.1 -1.448125 L -3.09 -1.445977 L -3.05 -1.437227 L -3.04 -1.435078 L -2.99 -1.424141 L -2.98 -1.421992 L -2.58 -1.334492 L -2.57 -1.332344 L -2.44 -1.303906 L -2.43 -1.301758 L -2.38 -1.29082 L -2.37 -1.288672 L -2.34 -1.282109 L -2.33 -1.279961 L -2.3 -1.273398 L -2.29 -1.27125 L -2.27 -1.266875 L -2.26 -1.264727 L -2.25 -1.262539 L -2.24 -1.260391 L -2.22 -1.256016 L -2.21 -1.253867 L -2.2 -1.25168 L -2.19 -1.249531 L -2.18 -1.247344 L -2.17 -1.245195 L -2.16 -1.243008 L -2.15 -1.240859 L -2.14 -1.238672 L -2.12 -1.234375 L -2.11 -1.232188 L -2.09 -1.227891 L -2.08 -1.225703 L -2.05 -1.219258 L -2.04 -1.21707 L -1.89 -1.184844 L -1.88 -1.182734 L -1.85 -1.176289 L -1.84 -1.17418 L -1.82 -1.169883 L -1.81 -1.167773 L -1.8 -1.165625 L -1.79 -1.163516 L -1.78 -1.161367 L -1.77 -1.159258 L -1.76 -1.157109 L -1.74 -1.152891 L -1.73 -1.150742 L -1.7 -1.144414 L -1.69 -1.142266 L -1.58 -1.119063 L -1.57 -1.116992 L -1.55 -1.112773 L -1.54 -1.110703 L -1.52 -1.106484 L -1.51 -1.104414 L -1.5 -1.102305 L -1.48 -1.098164 L -1.47 -1.096055 L -1.45 -1.091914 L -1.44 -1.089805 L -1.32 -1.064961 L -1.31 -1.06293 L -1.29 -1.058789 L -1.28 -1.056758 L -1.27 -1.054688 L -1.26 -1.052656 L -1.25 -1.050586 L -1.23 -1.046523 L -1.22 -1.044453 L -1.11 -1.022109 L -1.1 -1.020117 L -1.08 -1.016055 L -1.07 -1.014062 L -1.06 -1.012031 L -1.05 -1.010039 L -1.04 -1.008008 L -1.02 -1.004023 L -1.01 -1.001992 L -1 -1 L 1 1 L 1.01 1.001992 L 1.02 1.004023 L 1.04 1.008008 L 1.05 1.010039 L 1.06 1.012031 L 1.07 1.014062 L 1.08 1.016055 L 1.1 1.020117 L 1.11 1.022109 L 1.22 1.044453 L 1.23 1.046523 L 1.25 1.050586 L 1.26 1.052656 L 1.27 1.054688 L 1.28 1.056758 L 1.29 1.058789 L 1.31 1.06293 L 1.32 1.064961 L 1.44 1.089805 L 1.45 1.091914 L 1.47 1.096055 L 1.48 1.098164 L 1.5 1.102305 L 1.51 1.104414 L 1.52 1.106484 L 1.54 1.110703 L 1.55 1.112773 L 1.57 1.116992 L 1.58 1.119063 L 1.69 1.142266 L 1.7 1.144414 L 1.73 1.150742 L 1.74 1.152891 L 1.76 1.157109 L 1.77 1.159258 L 1.78 1.161367 L 1.79 1.163516 L 1.8 1.165625 L 1.81 1.167773 L 1.82 1.169883 L 1.84 1.17418 L 1.85 1.176289 L 1.88 1.182734 L 1.89 1.184844 L 2.04 1.21707 L 2.05 1.219258 L 2.08 1.225703 L 2.09 1.227891 L 2.11 1.232187 L 2.12 1.234375 L 2.14 1.238672 L 2.15 1.240859 L 2.16 1.243008 L 2.17 1.245195 L 2.18 1.247344 L 2.19 1.249531 L 2.2 1.25168 L 2.21 1.253867 L 2.22 1.256016 L 2.24 1.260391 L 2.25 1.262539 L 2.26 1.264727 L 2.27 1.266875 L 2.29 1.27125 L 2.3 1.273398 L 2.33 1.279961 L 2.34 1.282109 L 2.37 1.288672 L 2.38 1.29082 L 2.43 1.301758 L 2.44 1.303906 L 2.57 1.332344 L 2.58 1.334492 L 2.98 1.421992 L 2.99 1.424141 L 3.04 1.435078 L 3.05 1.437227 L 3.09 1.445977 L 3.1 1.448125 L 3.12 1.4525 L 3.13 1.454648 L 3.15 1.459023 L 3.16 1.461172 L 3.18 1.465547 L 3.19 1.467695 L 3.2 1.469883 L 3.21 1.472031 L 3.22 1.474219 L 3.23 1.476367 L 3.24 1.478555 L 3.25 1.480703 L 3.26 1.482891 L 3.27 1.485039 L 3.28 1.487227 L 3.29 1.489375 L 3.3 1.491562 L 3.32 1.495859 L 3.33 1.498047 L 3.36 1.504492 L 3.37 1.50668 L 3.52 1.538906 L 3.53 1.541016 L 3.55 1.545312 L 3.56 1.547422 L 3.58 1.551719 L 3.59 1.553828 L 3.6 1.555977 L 3.61 1.558086 L 3.62 1.560234 L 3.63 1.562344 L 3.64 1.564492 L 3.66 1.568711 L 3.67 1.570859 L 3.69 1.575078 L 3.7 1.577227 L 3.79 1.596211 L 3.8 1.598281 L 3.83 1.604609 L 3.84 1.60668 L 3.85 1.608789 L 3.86 1.610859 L 3.87 1.612969 L 3.88 1.615039 L 3.89 1.617148 L 3.9 1.619219 L 3.91 1.621328 L 3.95 1.629609 L 3.96 1.631719 L 4 1.64 L 4.01 1.642031 L 4.04 1.648242 L 4.05 1.650273 L 4.07 1.654414 L 4.08 1.656445 L 4.09 1.658516 L 4.1 1.660547 L 4.11 1.662617 L 4.15 1.670742 L 4.16 1.672813 L 4.2 1.680937 L 4.21 1.68293 L 4.24 1.689023 L 4.25 1.691016 L 4.26 1.693047 L 4.27 1.695039 L 4.28 1.69707 L 4.3 1.701055 L 4.31 1.703086 L 4.4 1.721016 L 4.41 1.722969 L 4.42 1.724961 L 4.43 1.726914 L 4.44 1.728906 L 4.45 1.730859 L 4.46 1.732852 L 4.56 1.752383 L 4.57 1.754297 L 4.58 1.75625 L 4.59 1.758164 L 4.6 1.760117 L 4.61 1.762031 L 4.62 1.763984 L 4.7 1.779297 L 4.71 1.781172 L 4.72 1.783086 L 4.73 1.784961 L 4.74 1.786875 L 4.75 1.78875 L 4.76 1.790664 L 4.84 1.805664 L 4.85 1.8075 L 4.86 1.809375 L 4.87 1.811211 L 4.88 1.813086 L 4.89 1.814922 L 4.9 1.816797 L 4.96 1.827813 L 4.97 1.829609 L 4.99 1.833281 L 5 1.835078 " transform="matrix(100,0,0,-100,500,300)"/>
<path style="fill:none;stroke-width:0.03;stroke-linecap:butt;stroke-linejoin:miter;stroke:rgb(87.058824%,29.803922%,71.764706%);stroke-opacity:0.5;stroke-miterlimit:10;" d="M -5 -0.399531 L -4.99 -0.400508 L -4.98 -0.401523 L -4.97 -0.4025 L -4.94 -0.405547 L -4.93 -0.406523 L -4.89 -0.410586 L -4.88 -0.411641 L -4.85 -0.414687 L -4.84 -0.415742 L -4.83 -0.416758 L -4.82 -0.417813 L -4.81 -0.418828 L -4.8 -0.419883 L -4.79 -0.420898 L -4.69 -0.431445 L -4.68 -0.432539 L -4.66 -0.434648 L -4.64 -0.436836 L -4.63 -0.437891 L -4.61 -0.440078 L -4.6 -0.441133 L -4.55 -0.446602 L -4.54 -0.447734 L -4.51 -0.451016 L -4.5 -0.452148 L -4.49 -0.453242 L -4.47 -0.455508 L -4.46 -0.456602 L -4.43 -0.46 L -4.42 -0.461094 L -4.41 -0.462227 L -4.4 -0.463398 L -4.36 -0.46793 L -4.35 -0.469102 L -4.34 -0.470234 L -4.33 -0.471406 L -4.32 -0.472539 L -4.31 -0.473711 L -4.3 -0.474844 L -4.21 -0.485391 L -4.2 -0.486602 L -4.19 -0.487773 L -4.18 -0.488984 L -4.17 -0.490156 L -4.16 -0.491367 L -4.15 -0.492539 L -4.12 -0.496172 L -4.11 -0.497344 L -4.09 -0.499766 L -4.08 -0.501016 L -4.05 -0.504648 L -4.04 -0.505898 L -4.02 -0.50832 L -4 -0.51082 L -3.99 -0.512031 L -3.9 -0.523281 L -3.89 -0.52457 L -3.88 -0.52582 L -3.87 -0.527109 L -3.86 -0.528359 L -3.85 -0.529648 L -3.84 -0.530898 L -3.75 -0.5425 L -3.74 -0.543828 L -3.73 -0.545117 L -3.72 -0.546445 L -3.71 -0.547734 L -3.7 -0.549063 L -3.69 -0.550352 L -3.6 -0.562305 L -3.59 -0.563672 L -3.58 -0.565 L -3.57 -0.566367 L -3.56 -0.567695 L -3.54 -0.57043 L -3.53 -0.571758 L -3.46 -0.581328 L -3.45 -0.582734 L -3.44 -0.584102 L -3.43 -0.585508 L -3.42 -0.586875 L -3.41 -0.588281 L -3.4 -0.589648 L -3.3 -0.603711 L -3.29 -0.605156 L -3.28 -0.606562 L -3.27 -0.608008 L -3.26 -0.609414 L -3.22 -0.615195 L -3.21 -0.616602 L -3.2 -0.618047 L -3.19 -0.619531 L -3.16 -0.623867 L -3.15 -0.625352 L -3.14 -0.626797 L -3.13 -0.628281 L -3.12 -0.629727 L -3.11 -0.631211 L -3.1 -0.632656 L -3.03 -0.643047 L -3.02 -0.64457 L -3 -0.647539 L -2.99 -0.649062 L -2.98 -0.650547 L -2.96 -0.653594 L -2.95 -0.655078 L -2.89 -0.664219 L -2.88 -0.665781 L -2.86 -0.668828 L -2.85 -0.670391 L -2.84 -0.671914 L -2.83 -0.673477 L -2.82 -0.675 L -2.73 -0.689062 L -2.72 -0.690664 L -2.71 -0.692227 L -2.7 -0.693828 L -2.69 -0.695391 L -2.68 -0.696992 L -2.67 -0.698555 L -2.59 -0.711367 L -2.58 -0.713008 L -2.57 -0.714609 L -2.56 -0.71625 L -2.55 -0.717852 L -2.54 -0.719492 L -2.53 -0.721094 L -2.44 -0.735859 L -2.43 -0.737539 L -2.41 -0.74082 L -2.39 -0.74418 L -2.38 -0.74582 L -2.29 -0.760938 L -2.28 -0.762656 L -2.27 -0.764336 L -2.26 -0.766055 L -2.25 -0.767734 L -2.23 -0.771172 L -2.22 -0.772852 L -2.16 -0.783164 L -2.15 -0.784922 L -2.13 -0.788359 L -2.12 -0.790117 L -2.11 -0.791836 L -2.1 -0.793594 L -2.09 -0.795313 L -1.99 -0.812891 L -1.98 -0.814688 L -1.97 -0.816445 L -1.96 -0.818242 L -1.95 -0.82 L -1.94 -0.821797 L -1.93 -0.823555 L -1.85 -0.83793 L -1.84 -0.839766 L -1.82 -0.843359 L -1.81 -0.845195 L -1.8 -0.846992 L -1.79 -0.848828 L -1.78 -0.850625 L -1.68 -0.868984 L -1.67 -0.870859 L -1.66 -0.872695 L -1.65 -0.87457 L -1.64 -0.876406 L -1.63 -0.878281 L -1.62 -0.880117 L -1.52 -0.898867 L -1.51 -0.900781 L -1.49 -0.904531 L -1.48 -0.906445 L -1.47 -0.90832 L -1.45 -0.912148 L -1.44 -0.914023 L -1.36 -0.929336 L -1.35 -0.931289 L -1.33 -0.935117 L -1.32 -0.93707 L -1.31 -0.938984 L -1.29 -0.942891 L -1.28 -0.944805 L -1.25 -0.950664 L -1.24 -0.952578 L -1.21 -0.958438 L -1.2 -0.96043 L -1.16 -0.968242 L -1.15 -0.970234 L -1.14 -0.972187 L -1.13 -0.97418 L -1.12 -0.976133 L -1.1 -0.980117 L -1.09 -0.98207 L -1 -1 L 1 1 L 1.09 0.98207 L 1.1 0.980117 L 1.12 0.976133 L 1.13 0.97418 L 1.14 0.972187 L 1.15 0.970234 L 1.16 0.968242 L 1.2 0.96043 L 1.21 0.958438 L 1.24 0.952578 L 1.25 0.950664 L 1.28 0.944805 L 1.29 0.942891 L 1.31 0.938984 L 1.32 0.93707 L 1.33 0.935117 L 1.35 0.931289 L 1.36 0.929336 L 1.44 0.914023 L 1.45 0.912148 L 1.47 0.90832 L 1.48 0.906445 L 1.49 0.904531 L 1.51 0.900781 L 1.52 0.898867 L 1.62 0.880117 L 1.63 0.878281 L 1.64 0.876406 L 1.65 0.87457 L 1.66 0.872695 L 1.67 0.870859 L 1.68 0.868984 L 1.78 0.850625 L 1.79 0.848828 L 1.8 0.846992 L 1.81 0.845195 L 1.82 0.843359 L 1.84 0.839766 L 1.85 0.83793 L 1.93 0.823555 L 1.94 0.821797 L 1.95 0.82 L 1.96 0.818242 L 1.97 0.816445 L 1.98 0.814687 L 1.99 0.812891 L 2.09 0.795313 L 2.1 0.793594 L 2.11 0.791836 L 2.12 0.790117 L 2.13 0.788359 L 2.15 0.784922 L 2.16 0.783164 L 2.22 0.772852 L 2.23 0.771172 L 2.25 0.767734 L 2.26 0.766055 L 2.27 0.764336 L 2.28 0.762656 L 2.29 0.760937 L 2.38 0.74582 L 2.39 0.74418 L 2.41 0.74082 L 2.43 0.737539 L 2.44 0.735859 L 2.53 0.721094 L 2.54 0.719492 L 2.55 0.717852 L 2.56 0.71625 L 2.57 0.714609 L 2.58 0.713008 L 2.59 0.711367 L 2.67 0.698555 L 2.68 0.696992 L 2.69 0.695391 L 2.7 0.693828 L 2.71 0.692227 L 2.72 0.690664 L 2.73 0.689062 L 2.82 0.675 L 2.83 0.673477 L 2.84 0.671914 L 2.85 0.670391 L 2.86 0.668828 L 2.88 0.665781 L 2.89 0.664219 L 2.95 0.655078 L 2.96 0.653594 L 2.98 0.650547 L 2.99 0.649062 L 3 0.647539 L 3.02 0.64457 L 3.03 0.643047 L 3.1 0.632656 L 3.11 0.631211 L 3.12 0.629727 L 3.13 0.628281 L 3.14 0.626797 L 3.15 0.625352 L 3.16 0.623867 L 3.19 0.619531 L 3.2 0.618047 L 3.21 0.616602 L 3.22 0.615195 L 3.26 0.609414 L 3.27 0.608008 L 3.28 0.606562 L 3.29 0.605156 L 3.3 0.603711 L 3.4 0.589648 L 3.41 0.588281 L 3.42 0.586875 L 3.43 0.585508 L 3.44 0.584102 L 3.45 0.582734 L 3.46 0.581328 L 3.53 0.571758 L 3.54 0.57043 L 3.56 0.567695 L 3.57 0.566367 L 3.58 0.565 L 3.59 0.563672 L 3.6 0.562305 L 3.69 0.550352 L 3.7 0.549062 L 3.71 0.547734 L 3.72 0.546445 L 3.73 0.545117 L 3.74 0.543828 L 3.75 0.5425 L 3.84 0.530898 L 3.85 0.529648 L 3.86 0.528359 L 3.87 0.527109 L 3.88 0.52582 L 3.89 0.52457 L 3.9 0.523281 L 3.99 0.512031 L 4 0.51082 L 4.02 0.50832 L 4.04 0.505898 L 4.05 0.504648 L 4.08 0.501016 L 4.09 0.499766 L 4.11 0.497344 L 4.12 0.496172 L 4.15 0.492539 L 4.16 0.491367 L 4.17 0.490156 L 4.18 0.488984 L 4.19 0.487773 L 4.2 0.486602 L 4.21 0.485391 L 4.3 0.474844 L 4.31 0.473711 L 4.32 0.472539 L 4.33 0.471406 L 4.34 0.470234 L 4.35 0.469102 L 4.36 0.46793 L 4.4 0.463398 L 4.41 0.462227 L 4.42 0.461094 L 4.43 0.46 L 4.46 0.456602 L 4.47 0.455508 L 4.49 0.453242 L 4.5 0.452148 L 4.51 0.451016 L 4.54 0.447734 L 4.55 0.446602 L 4.6 0.441133 L 4.61 0.440078 L 4.63 0.437891 L 4.64 0.436836 L 4.66 0.434648 L 4.68 0.432539 L 4.69 0.431445 L 4.79 0.420898 L 4.8 0.419883 L 4.81 0.418828 L 4.82 0.417813 L 4.83 0.416758 L 4.84 0.415742 L 4.85 0.414687 L 4.88 0.411641 L 4.89 0.410586 L 4.93 0.406523 L 4.94 0.405547 L 4.97 0.4025 L 4.98 0.401523 L 4.99 0.400508 L 5 0.399531 " transform="matrix(100,0,0,-100,500,300)"/>
<path style="fill:none;stroke-width:0.03;stroke-linecap:butt;stroke-linejoin:miter;stroke:rgb(87.058824%,29.803922%,71.764706%);stroke-opacity:0.25;stroke-miterlimit:10;" d="M -5 -0.0314844 L -4.99 -0.0317578 L -4.98 -0.0320703 L -4.95 -0.0328906 L -4.94 -0.0332031 L -4.93 -0.0334766 L -4.92 -0.0337891 L -4.91 -0.0340625 L -4.89 -0.0346875 L -4.88 -0.0349609 L -4.83 -0.0365234 L -4.82 -0.036875 L -4.8 -0.0375 L -4.79 -0.0378516 L -4.78 -0.0381641 L -4.77 -0.0385156 L -4.76 -0.0388281 L -4.69 -0.0412891 L -4.68 -0.0416797 L -4.66 -0.0423828 L -4.64 -0.0431641 L -4.63 -0.0435156 L -4.58 -0.0454687 L -4.57 -0.0458984 L -4.56 -0.0462891 L -4.55 -0.0467188 L -4.54 -0.0471094 L -4.52 -0.0479687 L -4.51 -0.0483594 L -4.49 -0.0492188 L -4.48 -0.0496875 L -4.46 -0.0505469 L -4.45 -0.0510156 L -4.44 -0.0514453 L -4.37 -0.0547266 L -4.36 -0.0552344 L -4.35 -0.0557031 L -4.28 -0.0592578 L -4.27 -0.0598047 L -4.26 -0.0603125 L -4.21 -0.0630469 L -4.2 -0.0636328 L -4.19 -0.0641797 L -4.13 -0.0676953 L -4.12 -0.0683203 L -4.11 -0.0689062 L -4.06 -0.0720313 L -4.04 -0.0733594 L -4.03 -0.0739844 L -4.01 -0.0753125 L -4 -0.0760156 L -3.99 -0.0766797 L -3.98 -0.0773828 L -3.97 -0.0780469 L -3.95 -0.0794531 L -3.94 -0.0801953 L -3.92 -0.0816016 L -3.88 -0.0845703 L -3.87 -0.0853516 L -3.86 -0.0860937 L -3.83 -0.0884375 L -3.82 -0.0892578 L -3.81 -0.0900391 L -3.76 -0.0941406 L -3.72 -0.0975781 L -3.71 -0.0984766 L -3.7 -0.0993359 L -3.68 -0.101133 L -3.67 -0.10207 L -3.66 -0.102969 L -3.62 -0.106719 L -3.58 -0.110625 L -3.53 -0.115703 L -3.5 -0.118867 L -3.49 -0.119961 L -3.48 -0.121016 L -3.46 -0.123203 L -3.41 -0.128867 L -3.38 -0.132383 L -3.35 -0.136016 L -3.34 -0.137266 L -3.33 -0.138477 L -3.32 -0.139727 L -3.31 -0.141016 L -3.3 -0.142266 L -3.28 -0.144844 L -3.24 -0.150156 L -3.21 -0.154258 L -3.18 -0.158477 L -3.15 -0.162813 L -3.12 -0.167266 L -3.1 -0.170313 L -3.09 -0.171875 L -3.08 -0.173398 L -3.07 -0.174961 L -3.04 -0.179766 L -3.01 -0.184687 L -2.98 -0.189727 L -2.96 -0.193164 L -2.93 -0.198438 L -2.92 -0.200234 L -2.91 -0.20207 L -2.9 -0.203867 L -2.89 -0.205703 L -2.86 -0.211328 L -2.84 -0.215156 L -2.82 -0.219063 L -2.79 -0.225039 L -2.77 -0.229102 L -2.75 -0.233242 L -2.73 -0.237461 L -2.71 -0.241758 L -2.69 -0.246133 L -2.66 -0.252813 L -2.65 -0.255117 L -2.64 -0.257383 L -2.63 -0.259688 L -2.61 -0.264375 L -2.59 -0.269141 L -2.57 -0.273984 L -2.55 -0.278906 L -2.54 -0.281406 L -2.51 -0.289023 L -2.5 -0.291641 L -2.49 -0.294219 L -2.48 -0.296836 L -2.47 -0.299492 L -2.44 -0.307578 L -2.43 -0.310313 L -2.42 -0.313086 L -2.39 -0.321523 L -2.38 -0.324375 L -2.36 -0.330156 L -2.35 -0.333086 L -2.33 -0.339023 L -2.32 -0.342031 L -2.3 -0.348125 L -2.28 -0.354297 L -2.27 -0.357422 L -2.26 -0.360586 L -2.24 -0.366992 L -2.22 -0.373477 L -2.21 -0.376758 L -2.19 -0.383398 L -2.18 -0.386797 L -2.17 -0.390156 L -2.15 -0.397031 L -2.14 -0.400508 L -2.12 -0.407539 L -2.11 -0.411094 L -2.1 -0.414687 L -2.08 -0.421953 L -2.07 -0.425625 L -2.05 -0.433047 L -2.04 -0.436836 L -2.03 -0.440586 L -2.02 -0.444414 L -2 -0.452148 L -1.99 -0.456055 L -1.97 -0.463945 L -1.96 -0.46793 L -1.95 -0.471953 L -1.94 -0.476016 L -1.92 -0.484219 L -1.91 -0.488359 L -1.9 -0.492539 L -1.89 -0.496758 L -1.87 -0.505273 L -1.86 -0.50957 L -1.85 -0.513906 L -1.83 -0.522656 L -1.81 -0.531563 L -1.79 -0.540547 L -1.78 -0.545117 L -1.76 -0.554336 L -1.75 -0.558984 L -1.74 -0.563672 L -1.72 -0.573125 L -1.7 -0.582734 L -1.69 -0.587578 L -1.68 -0.592461 L -1.66 -0.602305 L -1.64 -0.612305 L -1.63 -0.617344 L -1.62 -0.622422 L -1.6 -0.632656 L -1.58 -0.643047 L -1.56 -0.653594 L -1.54 -0.664219 L -1.52 -0.675 L -1.5 -0.685938 L -1.49 -0.691445 L -1.47 -0.702539 L -1.45 -0.713789 L -1.43 -0.725195 L -1.41 -0.73668 L -1.39 -0.74832 L -1.37 -0.760117 L -1.35 -0.771992 L -1.33 -0.784023 L -1.31 -0.796211 L -1.29 -0.808477 L -1.27 -0.820898 L -1.26 -0.827148 L -1.25 -0.833438 L -1.23 -0.846094 L -1.22 -0.852461 L -1.21 -0.858867 L -1.19 -0.871758 L -1.17 -0.884805 L -1.15 -0.89793 L -1.14 -0.904531 L -1.13 -0.911172 L -1.12 -0.917852 L -1.1 -0.931289 L -1.08 -0.944805 L -1.07 -0.951602 L -1.06 -0.958438 L -1.04 -0.972187 L -1.03 -0.979102 L -1.01 -0.993008 L -1 -1 L 1 1 L 1.01 0.993008 L 1.03 0.979102 L 1.04 0.972187 L 1.06 0.958438 L 1.07 0.951602 L 1.08 0.944805 L 1.1 0.931289 L 1.12 0.917852 L 1.13 0.911172 L 1.14 0.904531 L 1.15 0.89793 L 1.17 0.884805 L 1.19 0.871758 L 1.21 0.858867 L 1.22 0.852461 L 1.23 0.846094 L 1.25 0.833438 L 1.26 0.827148 L 1.27 0.820898 L 1.29 0.808477 L 1.31 0.796211 L 1.33 0.784023 L 1.35 0.771992 L 1.37 0.760117 L 1.39 0.74832 L 1.41 0.73668 L 1.43 0.725195 L 1.45 0.713789 L 1.47 0.702539 L 1.49 0.691445 L 1.5 0.685938 L 1.52 0.675 L 1.54 0.664219 L 1.56 0.653594 L 1.58 0.643047 L 1.6 0.632656 L 1.62 0.622422 L 1.63 0.617344 L 1.64 0.612305 L 1.66 0.602305 L 1.68 0.592461 L 1.69 0.587578 L 1.7 0.582734 L 1.72 0.573125 L 1.74 0.563672 L 1.75 0.558984 L 1.76 0.554336 L 1.78 0.545117 L 1.79 0.540547 L 1.81 0.531563 L 1.83 0.522656 L 1.85 0.513906 L 1.86 0.50957 L 1.87 0.505273 L 1.89 0.496758 L 1.9 0.492539 L 1.91 0.488359 L 1.92 0.484219 L 1.94 0.476016 L 1.95 0.471953 L 1.96 0.46793 L 1.97 0.463945 L 1.99 0.456055 L 2 0.452148 L 2.02 0.444414 L 2.03 0.440586 L 2.04 0.436836 L 2.05 0.433047 L 2.07 0.425625 L 2.08 0.421953 L 2.1 0.414687 L 2.11 0.411094 L 2.12 0.407539 L 2.14 0.400508 L 2.15 0.397031 L 2.17 0.390156 L 2.18 0.386797 L 2.19 0.383398 L 2.21 0.376758 L 2.22 0.373477 L 2.24 0.366992 L 2.26 0.360586 L 2.27 0.357422 L 2.28 0.354297 L 2.3 0.348125 L 2.32 0.342031 L 2.33 0.339023 L 2.35 0.333086 L 2.36 0.330156 L 2.38 0.324375 L 2.39 0.321523 L 2.42 0.313086 L 2.43 0.310312 L 2.44 0.307578 L 2.47 0.299492 L 2.48 0.296836 L 2.49 0.294219 L 2.5 0.291641 L 2.51 0.289023 L 2.54 0.281406 L 2.55 0.278906 L 2.57 0.273984 L 2.59 0.269141 L 2.61 0.264375 L 2.63 0.259688 L 2.64 0.257383 L 2.65 0.255117 L 2.66 0.252813 L 2.69 0.246133 L 2.71 0.241758 L 2.73 0.237461 L 2.75 0.233242 L 2.77 0.229102 L 2.79 0.225039 L 2.82 0.219063 L 2.84 0.215156 L 2.86 0.211328 L 2.89 0.205703 L 2.9 0.203867 L 2.91 0.20207 L 2.92 0.200234 L 2.93 0.198437 L 2.96 0.193164 L 2.98 0.189727 L 3.01 0.184687 L 3.04 0.179766 L 3.07 0.174961 L 3.08 0.173398 L 3.09 0.171875 L 3.1 0.170313 L 3.12 0.167266 L 3.15 0.162812 L 3.18 0.158477 L 3.21 0.154258 L 3.24 0.150156 L 3.28 0.144844 L 3.3 0.142266 L 3.31 0.141016 L 3.32 0.139727 L 3.33 0.138477 L 3.34 0.137266 L 3.35 0.136016 L 3.38 0.132383 L 3.41 0.128867 L 3.46 0.123203 L 3.48 0.121016 L 3.49 0.119961 L 3.5 0.118867 L 3.53 0.115703 L 3.58 0.110625 L 3.62 0.106719 L 3.66 0.102969 L 3.67 0.10207 L 3.68 0.101133 L 3.7 0.0993359 L 3.71 0.0984766 L 3.72 0.0975781 L 3.76 0.0941406 L 3.81 0.0900391 L 3.82 0.0892578 L 3.83 0.0884375 L 3.86 0.0860937 L 3.87 0.0853516 L 3.88 0.0845703 L 3.92 0.0816016 L 3.94 0.0801953 L 3.95 0.0794531 L 3.97 0.0780469 L 3.98 0.0773828 L 3.99 0.0766797 L 4 0.0760156 L 4.01 0.0753125 L 4.03 0.0739844 L 4.04 0.0733594 L 4.06 0.0720312 L 4.11 0.0689062 L 4.12 0.0683203 L 4.13 0.0676953 L 4.19 0.0641797 L 4.2 0.0636328 L 4.21 0.0630469 L 4.26 0.0603125 L 4.27 0.0598047 L 4.28 0.0592578 L 4.35 0.0557031 L 4.36 0.0552344 L 4.37 0.0547266 L 4.44 0.0514453 L 4.45 0.0510156 L 4.46 0.0505469 L 4.48 0.0496875 L 4.49 0.0492188 L 4.51 0.0483594 L 4.52 0.0479687 L 4.54 0.0471094 L 4.55 0.0467188 L 4.56 0.0462891 L 4.57 0.0458984 L 4.58 0.0454687 L 4.63 0.0435156 L 4.64 0.0431641 L 4.66 0.0423828 L 4.68 0.0416797 L 4.69 0.0412891 L 4.76 0.0388281 L 4.77 0.0385156 L 4.78 0.0381641 L 4.79 0.0378516 L 4.8 0.0375 L 4.82 0.036875 L 4.83 0.0365234 L 4.88 0.0349609 L 4.89 0.0346875 L 4.91 0.0340625 L 4.92 0.0337891 L 4.93 0.0334766 L 4.94 0.0332031 L 4.95 0.0328906 L 4.98 0.0320703 L 4.99 0.0317578 L 5 0.0314844 " transform="matrix(100,0,0,-100,500,300)"/>
</g>
</svg>
