<?xml version="1.0" encoding="UTF-8"?>
<svg xmlns="http://www.w3.org/2000/svg" xmlns:xlink="http://www.w3.org/1999/xlink" width="1000pt" height="400pt" viewBox="0 0 1000 400" version="1.1">
<g id="surface56">
<rect x="0" y="0" width="1000" height="400" style="fill:rgb(0%,0%,0%);fill-opacity:1;stroke:none;"/>
<path style="fill:none;stroke-width:0.01;stroke-linecap:butt;stroke-linejoin:miter;stroke:rgb(100%,100%,100%);stroke-opacity:0.5;stroke-miterlimit:10;" d="M -5 -2 L -5 2 " transform="matrix(100,0,0,-100,500,200)"/>
<path style="fill:none;stroke-width:0.01;stroke-linecap:butt;stroke-linejoin:miter;stroke:rgb(100%,100%,100%);stroke-opacity:0.5;stroke-miterlimit:10;" d="M -4 -2 L -4 2 " transform="matrix(100,0,0,-100,500,200)"/>
<path style="fill:none;stroke-width:0.01;stroke-linecap:butt;stroke-linejoin:miter;stroke:rgb(100%,100%,100%);stroke-opacity:0.5;stroke-miterlimit:10;" d="M -3 -2 L -3 2 " transform="matrix(100,0,0,-100,500,200)"/>
<path style="fill:none;stroke-width:0.01;stroke-linecap:butt;stroke-linejoin:miter;stroke:rgb(100%,100%,100%);stroke-opacity:0.5;stroke-miterlimit:10;" d="M -2 -2 L -2 2 " transform="matrix(100,0,0,-100,500,200)"/>
<path style="fill:none;stroke-width:0.01;stroke-linecap:butt;stroke-linejoin:miter;stroke:rgb(100%,100%,100%);stroke-opacity:0.5;stroke-miterlimit:10;" d="M -1 -2 L -1 2 " transform="matrix(100,0,0,-100,500,200)"/>
<path style="fill:none;stroke-width:0.01;stroke-linecap:butt;stroke-linejoin:miter;stroke:rgb(100%,100%,100%);stroke-opacity:1;stroke-miterlimit:10;" d="M 0 -2 L 0 2 " transform="matrix(100,0,0,-100,500,200)"/>
<path style="fill:none;stroke-width:0.01;stroke-linecap:butt;stroke-linejoin:miter;stroke:rgb(100%,100%,100%);stroke-opacity:0.5;stroke-miterlimit:10;" d="M 1 -2 L 1 2 " transform="matrix(100,0,0,-100,500,200)"/>
<path style="fill:none;stroke-width:0.01;stroke-linecap:butt;stroke-linejoin:miter;stroke:rgb(100%,100%,100%);stroke-opacity:0.5;stroke-miterlimit:10;" d="M 2 -2 L 2 2 " transform="matrix(100,0,0,-100,500,200)"/>
<path style="fill:none;stroke-width:0.01;stroke-linecap:butt;stroke-linejoin:miter;stroke:rgb(100%,100%,100%);stroke-opacity:0.5;stroke-miterlimit:10;" d="M 3 -2 L 3 2 " transform="matrix(100,0,0,-100,500,200)"/>
<path style="fill:none;stroke-width:0.01;stroke-linecap:butt;stroke-linejoin:miter;stroke:rgb(100%,100%,100%);stroke-opacity:0.5;stroke-miterlimit:10;" d="M 4 -2 L 4 2 " transform="matrix(100,0,0,-100,500,200)"/>
<path style="fill:none;stroke-width:0.01;stroke-linecap:butt;stroke-linejoin:miter;stroke:rgb(100%,100%,100%);stroke-opacity:0.5;stroke-miterlimit:10;" d="M 5 -2 L 5 2 " transform="matrix(100,0,0,-100,500,200)"/>
<path style="fill:none;stroke-width:0.005;stroke-linecap:butt;stroke-linejoin:miter;stroke:rgb(100%,100%,100%);stroke-opacity:0.25;stroke-miterlimit:10;" d="M -4.75 -2 L -4.75 2 " transform="matrix(100,0,0,-100,500,200)"/>
<path style="fill:none;stroke-width:0.005;stroke-linecap:butt;stroke-linejoin:miter;stroke:rgb(100%,100%,100%);stroke-opacity:0.25;stroke-miterlimit:10;" d="M -4.5 -2 L -4.5 2 " transform="matrix(100,0,0,-100,500,200)"/>
<path style="fill:none;stroke-width:0.005;stroke-linecap:butt;stroke-linejoin:miter;stroke:rgb(100%,100%,100%);stroke-opacity:0.25;stroke-miterlimit:10;" d="M -4.25 -2 L -4.25 2 " transform="matrix(100,0,0,-100,500,200)"/>
<path style="fill:none;stroke-width:0.005;stroke-linecap:butt;stroke-linejoin:miter;stroke:rgb(100%,100%,100%);stroke-opacity:0.25;stroke-miterlimit:10;" d="M -3.75 -2 L -3.75 2 " transform="matrix(100,0,0,-100,500,200)"/>
<path style="fill:none;stroke-width:0.005;stroke-linecap:butt;stroke-linejoin:miter;stroke:rgb(100%,100%,100%);stroke-opacity:0.25;stroke-miterlimit:10;" d="M -3.5 -2 L -3.5 2 " transform="matrix(100,0,0,-100,500,200)"/>
<path style="fill:none;stroke-width:0.005;stroke-linecap:butt;stroke-linejoin:miter;stroke:rgb(100%,100%,100%);stroke-opacity:0.25;stroke-miterlimit:10;" d="M -3.25 -2 L -3.25 2 " transform="matrix(100,0,0,-100,500,200)"/>
<path style="fill:none;stroke-width:0.005;stroke-linecap:butt;stroke-linejoin:miter;stroke:rgb(100%,100%,100%);stroke-opacity:0.25;stroke-miterlimit:10;" d="M -2.75 -2 L -2.75 2 " transform="matrix(100,0,0,-100,500,200)"/>
<path style="fill:none;stroke-width:0.005;stroke-linecap:butt;stroke-linejoin:miter;stroke:rgb(100%,100%,100%);stroke-opacity:0.25;stroke-miterlimit:10;" d="M -2.5 -2 L -2.5 2 " transform="matrix(100,0,0,-100,500,200)"/>
<path style="fill:none;stroke-width:0.005;stroke-linecap:butt;stroke-linejoin:miter;stroke:rgb(100%,100%,100%);stroke-opacity:0.25;stroke-miterlimit:10;" d="M -2.25 -2 L -2.25 2 " transform="matrix(100,0,0,-100,500,200)"/>
<path style="fill:none;stroke-width:0.005;stroke-linecap:butt;stroke-linejoin:miter;stroke:rgb(100%,100%,100%);stroke-opacity:0.25;stroke-miterlimit:10;" d="M -1.75 -2 L -1.75 2 " transform="matrix(100,0,0,-100,500,200)"/>
<path style="fill:none;stroke-width:0.005;stroke-linecap:butt;stroke-linejoin:miter;stroke:rgb(100%,100%,100%);stroke-opacity:0.25;stroke-miterlimit:10;" d="M -1.5 -2 L -1.5 2 " transform="matrix(100,0,0,-100,500,200)"/>
<path style="fill:none;stroke-width:0.005;stroke-linecap:butt;stroke-linejoin:miter;stroke:rgb(100%,100%,100%);stroke-opacity:0.25;stroke-miterlimit:10;" d="M -1.25 -2 L -1.25 2 " transform="matrix(100,0,0,-100,500,200)"/>
<path style="fill:none;stroke-width:0.005;stroke-linecap:butt;stroke-linejoin:miter;stroke:rgb(100%,100%,100%);stroke-opacity:0.25;stroke-miterlimit:10;" d="M -0.75 -2 L -0.75 2 " transform="matrix(100,0,0,-100,500,200)"/>
<path style="fill:none;stroke-width:0.005;stroke-linecap:butt;stroke-linejoin:miter;stroke:rgb(100%,100%,100%);stroke-opacity:0.25;stroke-miterlimit:10;" d="M -0.5 -2 L -0.5 2 " transform="matrix(100,0,0,-100,500,200)"/>
<path style="fill:none;stroke-width:0.005;stroke-linecap:butt;stroke-linejoin:miter;stroke:rgb(100%,100%,100%);stroke-opacity:0.25;stroke-miterlimit:10;" d="M -0.25 -2 L -0.25 2 " transform="matrix(100,0,0,-100,500,200)"/>
<path style="fill:none;stroke-width:0.005;stroke-linecap:butt;stroke-linejoin:miter;stroke:rgb(100%,100%,100%);stroke-opacity:0.25;stroke-miterlimit:10;" d="M 0.25 -2 L 0.25 2 " transform="matrix(100,0,0,-100,500,200)"/>
<path style="fill:none;stroke-width:0.005;stroke-linecap:butt;stroke-linejoin:miter;stroke:rgb(100%,100%,100%);stroke-opacity:0.25;stroke-miterlimit:10;" d="M 0.5 -2 L 0.5 2 " transform="matrix(100,0,0,-100,500,200)"/>
<path style="fill:none;stroke-width:0.005;stroke-linecap:butt;stroke-linejoin:miter;stroke:rgb(100%,100%,100%);stroke-opacity:0.25;stroke-miterlimit:10;" d="M 0.75 -2 L 0.75 2 " transform="matrix(100,0,0,-100,500,200)"/>
<path style="fill:none;stroke-width:0.005;stroke-linecap:butt;stroke-linejoin:miter;stroke:rgb(100%,100%,100%);stroke-opacity:0.25;stroke-miterlimit:10;" d="M 1.25 -2 L 1.25 2 " transform="matrix(100,0,0,-100,500,200)"/>
<path style="fill:none;stroke-width:0.005;stroke-linecap:butt;stroke-linejoin:miter;stroke:rgb(100%,100%,100%);stroke-opacity:0.25;stroke-miterlimit:10;" d="M 1.5 -2 L 1.5 2 " transform="matrix(100,0,0,-100,500,200)"/>
<path style="fill:none;stroke-width:0.005;stroke-linecap:butt;stroke-linejoin:miter;stroke:rgb(100%,100%,100%);stroke-opacity:0.25;stroke-miterlimit:10;" d="M 1.75 -2 L 1.75 2 " transform="matrix(100,0,0,-100,500,200)"/>
<path style="fill:none;stroke-width:0.005;stroke-linecap:butt;stroke-linejoin:miter;stroke:rgb(100%,100%,100%);stroke-opacity:0.25;stroke-miterlimit:10;" d="M 2.25 -2 L 2.25 2 " transform="matrix(100,0,0,-100,500,200)"/>
<path style="fill:none;stroke-width:0.005;stroke-linecap:butt;stroke-linejoin:miter;stroke:rgb(100%,100%,100%);stroke-opacity:0.25;stroke-miterlimit:10;" d="M 2.5 -2 L 2.5 2 " transform="matrix(100,0,0,-100,500,200)"/>
<path style="fill:none;stroke-width:0.005;stroke-linecap:butt;stroke-linejoin:miter;stroke:rgb(100%,100%,100%);stroke-opacity:0.25;stroke-miterlimit:10;" d="M 2.75 -2 L 2.75 2 " transform="matrix(100,0,0,-100,500,200)"/>
<path style="fill:none;stroke-width:0.005;stroke-linecap:butt;stroke-linejoin:miter;stroke:rgb(100%,100%,100%);stroke-opacity:0.25;stroke-miterlimit:10;" d="M 3.25 -2 L 3.25 2 " transform="matrix(100,0,0,-100,500,200)"/>
<path style="fill:none;stroke-width:0.005;stroke-linecap:butt;stroke-linejoin:miter;stroke:rgb(100%,100%,100%);stroke-opacity:0.25;stroke-miterlimit:10;" d="M 3.5 -2 L 3.5 2 " transform="matrix(100,0,0,-100,500,200)"/>
<path style="fill:none;stroke-width:0.005;stroke-linecap:butt;stroke-linejoin:miter;stroke:rgb(100%,100%,100%);stroke-opacity:0.25;stroke-miterlimit:10;" d="M 3.75 -2 L 3.75 2 " transform="matrix(100,0,0,-100,500,200)"/>
<path style="fill:none;stroke-width:0.005;stroke-linecap:butt;stroke-linejoin:miter;stroke:rgb(100%,100%,100%);stroke-opacity:0.25;stroke-miterlimit:10;" d="M 4.25 -2 L 4.25 2 " transform="matrix(100,0,0,-100,500,200)"/>
<path style="fill:none;stroke-width:0.005;stroke-linecap:butt;stroke-linejoin:miter;stroke:rgb(100%,100%,100%);stroke-opacity:0.25;stroke-miterlimit:10;" d="M 4.5 -2 L 4.5 2 " transform="matrix(100,0,0,-100,500,200)"/>
<path style="fill:none;stroke-width:0.005;stroke-linecap:butt;stroke-linejoin:miter;stroke:rgb(100%,100%,100%);stroke-opacity:0.25;stroke-miterlimit:10;" d="M 4.75 -2 L 4.75 2 " transform="matrix(100,0,0,-100,500,200)"/>
<path style="fill:none;stroke-width:0.01;stroke-linecap:butt;stroke-linejoin:miter;stroke:rgb(100%,100%,100%);stroke-opacity:0.5;stroke-miterlimit:10;" d="M -5 -2 L 5 -2 " transform="matrix(100,0,0,-100,500,200)"/>
<path style="fill:none;stroke-width:0.01;stroke-linecap:butt;stroke-linejoin:miter;stroke:rgb(100%,100%,100%);stroke-opacity:0.5;stroke-miterlimit:10;" d="M -5 -1 L 5 -1 " transform="matrix(100,0,0,-100,500,200)"/>
<path style="fill:none;stroke-width:0.01;stroke-linecap:butt;stroke-linejoin:miter;stroke:rgb(100%,100%,100%);stroke-opacity:1;stroke-miterlimit:10;" d="M -5 0 L 5 0 " transform="matrix(100,0,0,-100,500,200)"/>
<path style="fill:none;stroke-width:0.01;stroke-linecap:butt;stroke-linejoin:miter;stroke:rgb(100%,100%,100%);stroke-opacity:0.5;stroke-miterlimit:10;" d="M -5 1 L 5 1 " transform="matrix(100,0,0,-100,500,200)"/>
<path style="fill:none;stroke-width:0.01;stroke-linecap:butt;stroke-linejoin:miter;stroke:rgb(100%,100%,100%);stroke-opacity:0.5;stroke-miterlimit:10;" d="M -5 2 L 5 2 " transform="matrix(100,0,0,-100,500,200)"/>
<path style="fill:none;stroke-width:0.005;stroke-linecap:butt;stroke-linejoin:miter;stroke:rgb(100%,100%,100%);stroke-opacity:0.25;stroke-miterlimit:10;" d="M -5 -1.75 L 5 -1.75 " transform="matrix(100,0,0,-100,500,200)"/>
<path style="fill:none;stroke-width:0.005;stroke-linecap:butt;stroke-linejoin:miter;stroke:rgb(100%,100%,100%);stroke-opacity:0.25;stroke-miterlimit:10;" d="M -5 -1.5 L 5 -1.5 " transform="matrix(100,0,0,-100,500,200)"/>
<path style="fill:none;stroke-width:0.005;stroke-linecap:butt;stroke-linejoin:miter;stroke:rgb(100%,100%,100%);stroke-opacity:0.25;stroke-miterlimit:10;" d="M -5 -1.25 L 5 -1.25 " transform="matrix(100,0,0,-100,500,200)"/>
<path style="fill:none;stroke-width:0.005;stroke-linecap:butt;stroke-linejoin:miter;stroke:rgb(100%,100%,100%);stroke-opacity:0.25;stroke-miterlimit:10;" d="M -5 -0.75 L 5 -0.75 " transform="matrix(100,0,0,-100,500,200)"/>
<path style="fill:none;stroke-width:0.005;stroke-linecap:butt;stroke-linejoin:miter;stroke:rgb(100%,100%,100%);stroke-opacity:0.25;stroke-miterlimit:10;" d="M -5 -0.5 L 5 -0.5 " transform="matrix(100,0,0,-100,500,200)"/>
<path style="fill:none;stroke-width:0.005;stroke-linecap:butt;stroke-linejoin:miter;stroke:rgb(100%,100%,100%);stroke-opacity:0.25;stroke-miterlimit:10;" d="M -5 -0.25 L 5 -0.25 " transform="matrix(100,0,0,-100,500,200)"/>
<path style="fill:none;stroke-width:0.005;stroke-linecap:butt;stroke-linejoin:miter;stroke:rgb(100%,100%,100%);stroke-opacity:0.25;stroke-miterlimit:10;" d="M -5 0.25 L 5 0.25 " transform="matrix(100,0,0,-100,500,200)"/>
<path style="fill:none;stroke-width:0.005;stroke-linecap:butt;stroke-linejoin:miter;stroke:rgb(100%,100%,100%);stroke-opacity:0.25;stroke-miterlimit:10;" d="M -5 0.5 L 5 0.5 " transform="matrix(100,0,0,-100,500,200)"/>
<path style="fill:none;stroke-width:0.005;stroke-linecap:butt;stroke-linejoin:miter;stroke:rgb(100%,100%,100%);stroke-opacity:0.25;stroke-miterlimit:10;" d="M -5 0.75 L 5 0.75 " transform="matrix(100,0,0,-100,500,200)"/>
<path style="fill:none;stroke-width:0.005;stroke-linecap:butt;stroke-linejoin:miter;stroke:rgb(100%,100%,100%);stroke-opacity:0.25;stroke-miterlimit:10;" d="M -5 1.25 L 5 1.25 " transform="matrix(100,0,0,-100,500,200)"/>
<path style="fill:none;stroke-width:0.005;stroke-linecap:butt;stroke-linejoin:miter;stroke:rgb(100%,100%,100%);stroke-opacity:0.25;stroke-miterlimit:10;" d="M -5 1.5 L 5 1.5 " transform="matrix(100,0,0,-100,500,200)"/>
<path style="fill:none;stroke-width:0.005;stroke-linecap:butt;stroke-linejoin:miter;stroke:rgb(100%,100%,100%);stroke-opacity:0.25;stroke-miterlimit:10;" d="M -5 1.75 L 5 1.75 " transform="matrix(100,0,0,-100,500,200)"/>
<path style="fill:none;stroke-width:0.03;stroke-linecap:butt;stroke-linejoin:miter;stroke:rgb(87.058824%,29.803922%,71.764706%);stroke-opacity:1;stroke-miterlimit:10;" d="M -5 -1.673789 L -4.96 -1.669258 L -4.9 -1.662227 L -4.85 -1.656172 L -4.8 -1.649922 L -4.79 -1.648633 L -4.78 -1.647383 L -4.75 -1.643516 L -4.73 -1.640859 L -4.72 -1.63957 L -4.71 -1.638203 L -4.69 -1.635547 L -4.65 -1.630078 L -4.63 -1.627266 L -4.62 -1.625898 L -4.61 -1.624453 L -4.6 -1.623047 L -4.59 -1.621602 L -4.58 -1.620195 L -4.57 -1.61875 L -4.56 -1.617266 L -4.55 -1.61582 L -4.51 -1.609883 L -4.47 -1.603789 L -4.42 -1.595977 L -4.39 -1.591172 L -4.38 -1.589531 L -4.37 -1.58793 L -4.36 -1.586289 L -4.35 -1.584609 L -4.34 -1.582969 L -4.3 -1.57625 L -4.27 -1.571094 L -4.23 -1.564062 L -4.22 -1.562266 L -4.21 -1.560508 L -4.2 -1.558672 L -4.19 -1.556875 L -4.15 -1.549531 L -4.13 -1.545781 L -4.12 -1.543867 L -4.11 -1.541992 L -4.09 -1.538164 L -4.05 -1.530352 L -4.02 -1.524375 L -4.01 -1.522344 L -4 -1.520352 L -3.99 -1.518281 L -3.98 -1.51625 L -3.95 -1.510039 L -3.93 -1.50582 L -3.92 -1.503672 L -3.91 -1.501562 L -3.89 -1.497266 L -3.86 -1.490703 L -3.83 -1.484023 L -3.82 -1.481758 L -3.81 -1.479531 L -3.8 -1.477227 L -3.79 -1.474961 L -3.77 -1.470352 L -3.74 -1.46332 L -3.71 -1.456172 L -3.7 -1.45375 L -3.69 -1.451367 L -3.68 -1.448906 L -3.67 -1.446484 L -3.66 -1.444023 L -3.62 -1.434023 L -3.6 -1.428945 L -3.59 -1.426367 L -3.58 -1.423828 L -3.57 -1.421211 L -3.56 -1.418633 L -3.55 -1.416016 L -3.54 -1.413359 L -3.53 -1.410742 L -3.52 -1.408086 L -3.48 -1.397305 L -3.47 -1.39457 L -3.46 -1.391797 L -3.45 -1.389063 L -3.44 -1.386289 L -3.4 -1.375039 L -3.39 -1.372187 L -3.38 -1.369297 L -3.37 -1.366445 L -3.36 -1.363516 L -3.35 -1.360625 L -3.33 -1.354766 L -3.3 -1.345859 L -3.28 -1.339844 L -3.25 -1.330703 L -3.23 -1.324531 L -3.2 -1.315156 L -3.18 -1.308828 L -3.15 -1.299219 L -3.12 -1.289492 L -3.1 -1.28293 L -3.08 -1.276289 L -3.07 -1.27293 L -3.06 -1.269609 L -3.05 -1.266211 L -3.04 -1.262852 L -3.03 -1.259453 L -3.02 -1.256016 L -3.01 -1.252617 L -3 -1.249141 L -2.99 -1.245703 L -2.97 -1.23875 L -2.95 -1.231719 L -2.94 -1.228164 L -2.93 -1.224648 L -2.92 -1.221055 L -2.91 -1.2175 L -2.9 -1.213906 L -2.89 -1.210273 L -2.88 -1.20668 L -2.87 -1.203047 L -2.83 -1.188359 L -2.81 -1.180938 L -2.78 -1.169688 L -2.75 -1.15832 L -2.72 -1.146836 L -2.68 -1.131367 L -2.67 -1.127461 L -2.66 -1.123516 L -2.65 -1.119609 L -2.62 -1.107773 L -2.59 -1.09582 L -2.58 -1.091797 L -2.57 -1.087813 L -2.56 -1.083789 L -2.55 -1.079727 L -2.54 -1.075703 L -2.51 -1.063516 L -2.5 -1.059414 L -2.49 -1.055352 L -2.46 -1.043047 L -2.44 -1.034766 L -2.43 -1.030664 L -2.41 -1.022383 L -2.4 -1.018203 L -2.39 -1.014063 L -2.38 -1.009883 L -2.37 -1.005742 L -2.32 -0.984844 L -2.31 -0.980625 L -2.29 -0.972266 L -2.28 -0.968047 L -2.27 -0.963867 L -2.26 -0.959648 L -2.24 -0.951289 L -2.23 -0.94707 L -2.22 -0.942891 L -2.21 -0.938672 L -2.14 -0.909414 L -2.13 -0.905273 L -2.12 -0.901094 L -2.09 -0.888672 L -2.07 -0.880469 L -2.06 -0.876328 L -2.05 -0.872266 L -2.04 -0.868164 L -2.02 -0.860039 L -1.99 -0.847969 L -1.96 -0.836016 L -1.95 -0.83207 L -1.93 -0.824258 L -1.91 -0.816523 L -1.89 -0.808867 L -1.88 -0.805078 L -1.86 -0.797578 L -1.85 -0.793867 L -1.84 -0.790195 L -1.82 -0.78293 L -1.81 -0.779336 L -1.8 -0.775781 L -1.79 -0.772266 L -1.78 -0.768789 L -1.77 -0.765352 L -1.76 -0.761953 L -1.75 -0.758594 L -1.73 -0.752031 L -1.72 -0.748789 L -1.71 -0.745625 L -1.7 -0.7425 L -1.69 -0.739414 L -1.68 -0.736367 L -1.67 -0.733398 L -1.66 -0.730508 L -1.65 -0.727656 L -1.64 -0.724844 L -1.63 -0.722109 L -1.62 -0.719453 L -1.61 -0.716836 L -1.6 -0.714297 L -1.59 -0.711836 L -1.58 -0.709453 L -1.57 -0.707148 L -1.56 -0.704922 L -1.55 -0.702812 L -1.54 -0.700742 L -1.53 -0.698789 L -1.52 -0.696914 L -1.51 -0.695156 L -1.5 -0.693477 L -1.49 -0.691953 L -1.48 -0.690469 L -1.47 -0.689141 L -1.46 -0.68793 L -1.45 -0.686875 L -1.44 -0.685898 L -1.43 -0.685078 L -1.42 -0.684414 L -1.41 -0.683906 L -1.4 -0.683516 L -1.39 -0.68332 L -1.38 -0.683281 L -1.37 -0.683438 L -1.36 -0.68375 L -1.35 -0.684297 L -1.34 -0.685 L -1.33 -0.685977 L -1.32 -0.687148 L -1.31 -0.688594 L -1.3 -0.690273 L -1.29 -0.692188 L -1.28 -0.694414 L -1.27 -0.696953 L -1.26 -0.699805 L -1.25 -0.702969 L -1.24 -0.706523 L -1.23 -0.71043 L -1.22 -0.714727 L -1.21 -0.719492 L -1.2 -0.724648 L -1.19 -0.730352 L -1.18 -0.736523 L -1.17 -0.743242 L -1.16 -0.750586 L -1.15 -0.758555 L -1.14 -0.767187 L -1.13 -0.776563 L -1.12 -0.78668 L -1.11 -0.797695 L -1.1 -0.80957 L -1.09 -0.822461 L -1.08 -0.836445 L -1.07 -0.851562 L -1.06 -0.86793 L -1.05 -0.885664 L -1.04 -0.904922 L -1.03 -0.92582 L -1.02 -0.948516 L -1.01 -0.973164 L -1 -1 L 1 1 L 1.01 0.973164 L 1.02 0.948516 L 1.03 0.92582 L 1.04 0.904922 L 1.05 0.885664 L 1.06 0.86793 L 1.07 0.851562 L 1.08 0.836445 L 1.09 0.822461 L 1.1 0.80957 L 1.11 0.797695 L 1.12 0.78668 L 1.13 0.776563 L 1.14 0.767187 L 1.15 0.758555 L 1.16 0.750586 L 1.17 0.743242 L 1.18 0.736523 L 1.19 0.730352 L 1.2 0.724648 L 1.21 0.719492 L 1.22 0.714727 L 1.23 0.71043 L 1.24 0.706523 L 1.25 0.702969 L 1.26 0.699805 L 1.27 0.696953 L 1.28 0.694414 L 1.29 0.692187 L 1.3 0.690273 L 1.31 0.688594 L 1.32 0.687148 L 1.33 0.685977 L 1.34 0.685 L 1.35 0.684297 L 1.36 0.68375 L 1.37 0.683437 L 1.38 0.683281 L 1.39 0.68332 L 1.4 0.683516 L 1.41 0.683906 L 1.42 0.684414 L 1.43 0.685078 L 1.44 0.685898 L 1.45 0.686875 L 1.46 0.68793 L 1.47 0.689141 L 1.48 0.690469 L 1.49 0.691953 L 1.5 0.693477 L 1.51 0.695156 L 1.52 0.696914 L 1.53 0.698789 L 1.54 0.700742 L 1.55 0.702813 L 1.56 0.704922 L 1.57 0.707148 L 1.58 0.709453 L 1.59 0.711836 L 1.6 0.714297 L 1.61 0.716836 L 1.62 0.719453 L 1.63 0.722109 L 1.64 0.724844 L 1.65 0.727656 L 1.66 0.730508 L 1.67 0.733398 L 1.68 0.736367 L 1.69 0.739414 L 1.7 0.7425 L 1.71 0.745625 L 1.72 0.748789 L 1.73 0.752031 L 1.75 0.758594 L 1.76 0.761953 L 1.77 0.765352 L 1.78 0.768789 L 1.79 0.772266 L 1.8 0.775781 L 1.81 0.779336 L 1.82 0.78293 L 1.84 0.790195 L 1.85 0.793867 L 1.86 0.797578 L 1.88 0.805078 L 1.89 0.808867 L 1.91 0.816523 L 1.93 0.824258 L 1.95 0.83207 L 1.96 0.836016 L 1.99 0.847969 L 2.02 0.860039 L 2.04 0.868164 L 2.05 0.872266 L 2.06 0.876328 L 2.07 0.880469 L 2.09 0.888672 L 2.12 0.901094 L 2.13 0.905273 L 2.14 0.909414 L 2.21 0.938672 L 2.22 0.942891 L 2.23 0.94707 L 2.24 0.951289 L 2.26 0.959648 L 2.27 0.963867 L 2.28 0.968047 L 2.29 0.972266 L 2.31 0.980625 L 2.32 0.984844 L 2.37 1.005742 L 2.38 1.009883 L 2.39 1.014063 L 2.4 1.018203 L 2.41 1.022383 L 2.43 1.030664 L 2.44 1.034766 L 2.46 1.043047 L 2.49 1.055352 L 2.5 1.059414 L 2.51 1.063516 L 2.54 1.075703 L 2.55 1.079727 L 2.56 1.083789 L 2.57 1.087813 L 2.58 1.091797 L 2.59 1.09582 L 2.62 1.107773 L 2.65 1.119609 L 2.66 1.123516 L 2.67 1.127461 L 2.68 1.131367 L 2.72 1.146836 L 2.75 1.15832 L 2.78 1.169687 L 2.81 1.180937 L 2.83 1.188359 L 2.87 1.203047 L 2.88 1.20668 L 2.89 1.210273 L 2.9 1.213906 L 2.91 1.2175 L 2.92 1.221055 L 2.93 1.224648 L 2.94 1.228164 L 2.95 1.231719 L 2.97 1.23875 L 2.99 1.245703 L 3 1.249141 L 3.01 1.252617 L 3.02 1.256016 L 3.03 1.259453 L 3.04 1.262852 L 3.05 1.266211 L 3.06 1.269609 L 3.07 1.27293 L 3.08 1.276289 L 3.1 1.28293 L 3.12 1.289492 L 3.15 1.299219 L 3.18 1.308828 L 3.2 1.315156 L 3.23 1.324531 L 3.25 1.330703 L 3.28 1.339844 L 3.3 1.345859 L 3.33 1.354766 L 3.35 1.360625 L 3.36 1.363516 L 3.37 1.366445 L 3.38 1.369297 L 3.39 1.372187 L 3.4 1.375039 L 3.44 1.386289 L 3.45 1.389063 L 3.46 1.391797 L 3.47 1.39457 L 3.48 1.397305 L 3.52 1.408086 L 3.53 1.410742 L 3.54 1.413359 L 3.55 1.416016 L 3.56 1.418633 L 3.57 1.421211 L 3.58 1.423828 L 3.59 1.426367 L 3.6 1.428945 L 3.62 1.434023 L 3.66 1.444023 L 3.67 1.446484 L 3.68 1.448906 L 3.69 1.451367 L 3.7 1.45375 L 3.71 1.456172 L 3.74 1.46332 L 3.77 1.470352 L 3.79 1.474961 L 3.8 1.477227 L 3.81 1.479531 L 3.82 1.481758 L 3.83 1.484023 L 3.86 1.490703 L 3.89 1.497266 L 3.91 1.501562 L 3.92 1.503672 L 3.93 1.50582 L 3.95 1.510039 L 3.98 1.51625 L 3.99 1.518281 L 4 1.520352 L 4.01 1.522344 L 4.02 1.524375 L 4.05 1.530352 L 4.09 1.538164 L 4.11 1.541992 L 4.12 1.543867 L 4.13 1.545781 L 4.15 1.549531 L 4.19 1.556875 L 4.2 1.558672 L 4.21 1.560508 L 4.22 1.562266 L 4.23 1.564062 L 4.27 1.571094 L 4.3 1.57625 L 4.34 1.582969 L 4.35 1.584609 L 4.36 1.586289 L 4.37 1.58793 L 4.38 1.589531 L 4.39 1.591172 L 4.42 1.595977 L 4.47 1.603789 L 4.51 1.609883 L 4.55 1.61582 L 4.56 1.617266 L 4.57 1.61875 L 4.58 1.620195 L 4.59 1.621602 L 4.6 1.623047 L 4.61 1.624453 L 4.62 1.625898 L 4.63 1.627266 L 4.65 1.630078 L 4.69 1.635547 L 4.71 1.638203 L 4.72 1.63957 L 4.73 1.640859 L 4.75 1.643516 L 4.78 1.647383 L 4.79 1.648633 L 4.8 1.649922 L 4.85 1.656172 L 4.9 1.662227 L 4.96 1.669258 L 5 1.673789 " transform="matrix(100,0,0,-100,500,200)"/>
<path style="fill:none;stroke-width:0.03;stroke-linecap:butt;stroke-linejoin:miter;stroke:rgb(87.058824%,29.803922%,71.764706%);stroke-opacity:0.75;stroke-miterlimit:10;" d="M -5 -0.910625 L -4.99 -0.909414 L -4.98 -0.908242 L -4.97 -0.907031 L -4.96 -0.905859 L -4.95 -0.904648 L -4.93 -0.902305 L -4.92 -0.901094 L -4.9 -0.89875 L -4.89 -0.897539 L -4.87 -0.895195 L -4.86 -0.893984 L -4.83 -0.890469 L -4.82 -0.889258 L -4.75 -0.881055 L -4.74 -0.879844 L -4.71 -0.876328 L -4.7 -0.875195 L -4.63 -0.866992 L -4.62 -0.865859 L -4.6 -0.863516 L -4.59 -0.862383 L -4.57 -0.860039 L -4.56 -0.858906 L -4.55 -0.857734 L -4.54 -0.856602 L -4.53 -0.85543 L -4.52 -0.854297 L -4.51 -0.853125 L -4.5 -0.851992 L -4.49 -0.85082 L -4.47 -0.848555 L -4.46 -0.847383 L -4.43 -0.843984 L -4.42 -0.842812 L -4.35 -0.834883 L -4.34 -0.833789 L -4.31 -0.830391 L -4.3 -0.829297 L -4.28 -0.827031 L -4.27 -0.825938 L -4.26 -0.824805 L -4.25 -0.823711 L -4.24 -0.822578 L -4.22 -0.820391 L -4.21 -0.819258 L -4.1 -0.807227 L -4.09 -0.806172 L -4.07 -0.803984 L -4.06 -0.80293 L -4.05 -0.801836 L -4.03 -0.799727 L -4.02 -0.798633 L -3.92 -0.788086 L -3.91 -0.78707 L -3.9 -0.786016 L -3.89 -0.785 L -3.88 -0.783945 L -3.86 -0.781914 L -3.85 -0.780859 L -3.8 -0.775781 L -3.79 -0.774805 L -3.77 -0.772773 L -3.76 -0.771797 L -3.75 -0.770781 L -3.74 -0.769805 L -3.73 -0.768789 L -3.66 -0.761953 L -3.65 -0.761016 L -3.64 -0.760039 L -3.63 -0.759102 L -3.62 -0.758125 L -3.54 -0.750625 L -3.53 -0.749727 L -3.52 -0.748789 L -3.5 -0.746992 L -3.49 -0.746055 L -3.47 -0.744258 L -3.46 -0.743398 L -3.44 -0.741602 L -3.43 -0.740742 L -3.42 -0.739844 L -3.4 -0.738125 L -3.39 -0.737227 L -3.38 -0.736367 L -3.37 -0.735547 L -3.35 -0.733828 L -3.34 -0.733008 L -3.33 -0.732148 L -3.27 -0.727227 L -3.26 -0.726445 L -3.25 -0.725625 L -3.2 -0.721719 L -3.19 -0.720977 L -3.18 -0.720195 L -3.17 -0.719453 L -3.16 -0.718672 L -3.15 -0.71793 L -3.14 -0.717227 L -3.12 -0.715742 L -3.11 -0.715039 L -3.1 -0.714297 L -3.07 -0.712188 L -3.06 -0.711523 L -3.05 -0.71082 L -3.04 -0.710156 L -3.03 -0.709453 L -3.01 -0.708125 L -3 -0.7075 L -2.99 -0.706836 L -2.97 -0.705586 L -2.96 -0.704922 L -2.95 -0.704336 L -2.93 -0.703086 L -2.89 -0.700742 L -2.88 -0.700195 L -2.87 -0.699609 L -2.84 -0.697969 L -2.83 -0.697461 L -2.82 -0.696914 L -2.79 -0.695391 L -2.78 -0.694922 L -2.77 -0.694414 L -2.75 -0.693477 L -2.74 -0.693047 L -2.73 -0.692578 L -2.7 -0.691289 L -2.69 -0.690898 L -2.68 -0.690469 L -2.67 -0.690078 L -2.66 -0.689727 L -2.65 -0.689336 L -2.61 -0.68793 L -2.58 -0.686992 L -2.54 -0.685898 L -2.51 -0.685195 L -2.5 -0.685 L -2.49 -0.684766 L -2.48 -0.684609 L -2.47 -0.684414 L -2.44 -0.683945 L -2.41 -0.683594 L -2.39 -0.683438 L -2.38 -0.683398 L -2.37 -0.68332 L -2.36 -0.683281 L -2.32 -0.683281 L -2.31 -0.68332 L -2.3 -0.683398 L -2.29 -0.683438 L -2.28 -0.683555 L -2.27 -0.683633 L -2.25 -0.683867 L -2.23 -0.68418 L -2.21 -0.68457 L -2.2 -0.684805 L -2.19 -0.685 L -2.16 -0.68582 L -2.14 -0.686445 L -2.12 -0.687148 L -2.1 -0.68793 L -2.08 -0.688789 L -2.07 -0.689258 L -2.04 -0.690781 L -2.03 -0.691328 L -2.01 -0.6925 L -1.99 -0.69375 L -1.98 -0.694414 L -1.97 -0.695117 L -1.96 -0.695859 L -1.95 -0.696563 L -1.93 -0.698125 L -1.92 -0.698945 L -1.9 -0.700664 L -1.89 -0.701563 L -1.88 -0.7025 L -1.86 -0.704453 L -1.85 -0.705469 L -1.83 -0.707578 L -1.81 -0.709844 L -1.8 -0.711016 L -1.79 -0.712227 L -1.77 -0.714727 L -1.75 -0.717383 L -1.73 -0.720195 L -1.72 -0.721641 L -1.71 -0.723125 L -1.7 -0.724648 L -1.68 -0.727852 L -1.67 -0.729492 L -1.66 -0.731172 L -1.64 -0.734688 L -1.63 -0.736523 L -1.62 -0.738398 L -1.61 -0.740312 L -1.6 -0.742266 L -1.59 -0.744258 L -1.58 -0.746328 L -1.57 -0.748438 L -1.56 -0.750586 L -1.54 -0.755039 L -1.52 -0.759727 L -1.51 -0.762148 L -1.5 -0.764648 L -1.49 -0.767187 L -1.48 -0.769766 L -1.47 -0.772422 L -1.46 -0.775156 L -1.45 -0.77793 L -1.44 -0.780781 L -1.43 -0.783711 L -1.42 -0.78668 L -1.41 -0.789727 L -1.4 -0.792852 L -1.39 -0.796055 L -1.38 -0.799336 L -1.37 -0.802656 L -1.36 -0.806094 L -1.35 -0.80957 L -1.34 -0.813164 L -1.33 -0.816836 L -1.32 -0.820586 L -1.31 -0.824414 L -1.3 -0.82832 L -1.29 -0.832344 L -1.28 -0.836445 L -1.27 -0.840625 L -1.26 -0.844922 L -1.25 -0.849297 L -1.24 -0.853789 L -1.23 -0.858398 L -1.22 -0.863125 L -1.21 -0.86793 L -1.2 -0.872852 L -1.19 -0.877891 L -1.18 -0.883047 L -1.17 -0.88832 L -1.16 -0.89375 L -1.15 -0.899258 L -1.14 -0.904922 L -1.13 -0.910703 L -1.12 -0.916641 L -1.11 -0.922734 L -1.1 -0.928945 L -1.09 -0.935313 L -1.08 -0.941836 L -1.07 -0.948516 L -1.06 -0.955352 L -1.05 -0.962344 L -1.04 -0.969492 L -1.03 -0.976875 L -1.02 -0.984375 L -1.01 -0.992109 L -1 -1 L 1 1 L 1.01 0.992109 L 1.02 0.984375 L 1.03 0.976875 L 1.04 0.969492 L 1.05 0.962344 L 1.06 0.955352 L 1.07 0.948516 L 1.08 0.941836 L 1.09 0.935312 L 1.1 0.928945 L 1.11 0.922734 L 1.12 0.916641 L 1.13 0.910703 L 1.14 0.904922 L 1.15 0.899258 L 1.16 0.89375 L 1.17 0.88832 L 1.18 0.883047 L 1.19 0.877891 L 1.2 0.872852 L 1.21 0.86793 L 1.22 0.863125 L 1.23 0.858398 L 1.24 0.853789 L 1.25 0.849297 L 1.26 0.844922 L 1.27 0.840625 L 1.28 0.836445 L 1.29 0.832344 L 1.3 0.82832 L 1.31 0.824414 L 1.32 0.820586 L 1.33 0.816836 L 1.34 0.813164 L 1.35 0.80957 L 1.36 0.806094 L 1.37 0.802656 L 1.38 0.799336 L 1.39 0.796055 L 1.4 0.792852 L 1.41 0.789727 L 1.42 0.78668 L 1.43 0.783711 L 1.44 0.780781 L 1.45 0.77793 L 1.46 0.775156 L 1.47 0.772422 L 1.48 0.769766 L 1.49 0.767187 L 1.5 0.764648 L 1.51 0.762148 L 1.52 0.759727 L 1.54 0.755039 L 1.56 0.750586 L 1.57 0.748437 L 1.58 0.746328 L 1.59 0.744258 L 1.6 0.742266 L 1.61 0.740312 L 1.62 0.738398 L 1.63 0.736523 L 1.64 0.734687 L 1.66 0.731172 L 1.67 0.729492 L 1.68 0.727852 L 1.7 0.724648 L 1.71 0.723125 L 1.72 0.721641 L 1.73 0.720195 L 1.75 0.717383 L 1.77 0.714727 L 1.79 0.712227 L 1.8 0.711016 L 1.81 0.709844 L 1.83 0.707578 L 1.85 0.705469 L 1.86 0.704453 L 1.88 0.7025 L 1.89 0.701562 L 1.9 0.700664 L 1.92 0.698945 L 1.93 0.698125 L 1.95 0.696562 L 1.96 0.695859 L 1.97 0.695117 L 1.98 0.694414 L 1.99 0.69375 L 2.01 0.6925 L 2.03 0.691328 L 2.04 0.690781 L 2.07 0.689258 L 2.08 0.688789 L 2.1 0.68793 L 2.12 0.687148 L 2.14 0.686445 L 2.16 0.68582 L 2.19 0.685 L 2.2 0.684805 L 2.21 0.68457 L 2.23 0.68418 L 2.25 0.683867 L 2.27 0.683633 L 2.28 0.683555 L 2.29 0.683437 L 2.3 0.683398 L 2.31 0.68332 L 2.32 0.683281 L 2.36 0.683281 L 2.37 0.68332 L 2.38 0.683398 L 2.39 0.683437 L 2.41 0.683594 L 2.44 0.683945 L 2.47 0.684414 L 2.48 0.684609 L 2.49 0.684766 L 2.5 0.685 L 2.51 0.685195 L 2.54 0.685898 L 2.58 0.686992 L 2.61 0.68793 L 2.65 0.689336 L 2.66 0.689727 L 2.67 0.690078 L 2.68 0.690469 L 2.69 0.690898 L 2.7 0.691289 L 2.73 0.692578 L 2.74 0.693047 L 2.75 0.693477 L 2.77 0.694414 L 2.78 0.694922 L 2.79 0.695391 L 2.82 0.696914 L 2.83 0.697461 L 2.84 0.697969 L 2.87 0.699609 L 2.88 0.700195 L 2.89 0.700742 L 2.93 0.703086 L 2.95 0.704336 L 2.96 0.704922 L 2.97 0.705586 L 2.99 0.706836 L 3 0.7075 L 3.01 0.708125 L 3.03 0.709453 L 3.04 0.710156 L 3.05 0.71082 L 3.06 0.711523 L 3.07 0.712187 L 3.1 0.714297 L 3.11 0.715039 L 3.12 0.715742 L 3.14 0.717227 L 3.15 0.71793 L 3.16 0.718672 L 3.17 0.719453 L 3.18 0.720195 L 3.19 0.720977 L 3.2 0.721719 L 3.25 0.725625 L 3.26 0.726445 L 3.27 0.727227 L 3.33 0.732148 L 3.34 0.733008 L 3.35 0.733828 L 3.37 0.735547 L 3.38 0.736367 L 3.39 0.737227 L 3.4 0.738125 L 3.42 0.739844 L 3.43 0.740742 L 3.44 0.741602 L 3.46 0.743398 L 3.47 0.744258 L 3.49 0.746055 L 3.5 0.746992 L 3.52 0.748789 L 3.53 0.749727 L 3.54 0.750625 L 3.62 0.758125 L 3.63 0.759102 L 3.64 0.760039 L 3.65 0.761016 L 3.66 0.761953 L 3.73 0.768789 L 3.74 0.769805 L 3.75 0.770781 L 3.76 0.771797 L 3.77 0.772773 L 3.79 0.774805 L 3.8 0.775781 L 3.85 0.780859 L 3.86 0.781914 L 3.88 0.783945 L 3.89 0.785 L 3.9 0.786016 L 3.91 0.78707 L 3.92 0.788086 L 4.02 0.798633 L 4.03 0.799727 L 4.05 0.801836 L 4.06 0.80293 L 4.07 0.803984 L 4.09 0.806172 L 4.1 0.807227 L 4.21 0.819258 L 4.22 0.820391 L 4.24 0.822578 L 4.25 0.823711 L 4.26 0.824805 L 4.27 0.825937 L 4.28 0.827031 L 4.3 0.829297 L 4.31 0.830391 L 4.34 0.833789 L 4.35 0.834883 L 4.42 0.842812 L 4.43 0.843984 L 4.46 0.847383 L 4.47 0.848555 L 4.49 0.85082 L 4.5 0.851992 L 4.51 0.853125 L 4.52 0.854297 L 4.53 0.85543 L 4.54 0.856602 L 4.55 0.857734 L 4.56 0.858906 L 4.57 0.860039 L 4.59 0.862383 L 4.6 0.863516 L 4.62 0.865859 L 4.63 0.866992 L 4.7 0.875195 L 4.71 0.876328 L 4.74 0.879844 L 4.75 0.881055 L 4.82 0.889258 L 4.83 0.890469 L 4.86 0.893984 L 4.87 0.895195 L 4.89 0.897539 L 4.9 0.89875 L 4.92 0.901094 L 4.93 0.902305 L 4.95 0.904648 L 4.96 0.905859 L 4.97 0.907031 L 4.98 0.908242 L 4.99 0.909414 L 5 0.910625 " transform="matrix(100,0,0,-100,500,200)"/>
<path style="fill:none;stroke-width:0.03;stroke-linecap:butt;stroke-linejoin:miter;stroke:rgb(87.058824%,29.803922%,71.764706%);stroke-opacity:0.5;stroke-miterlimit:10;" d="M -5 -1.089375 L -4.99 -1.090586 L -4.98 -1.091758 L -4.97 -1.092969 L -4.96 -1.094141 L -4.95 -1.095352 L -4.93 -1.097695 L -4.92 -1.098906 L -4.9 -1.10125 L -4.89 -1.102461 L -4.87 -1.104805 L -4.86 -1.106016 L -4.83 -1.109531 L -4.82 -1.110742 L -4.75 -1.118945 L -4.74 -1.120156 L -4.71 -1.123672 L -4.7 -1.124805 L -4.63 -1.133008 L -4.62 -1.134141 L -4.6 -1.136484 L -4.59 -1.137617 L -4.57 -1.139961 L -4.56 -1.141094 L -4.55 -1.142266 L -4.54 -1.143398 L -4.53 -1.14457 L -4.52 -1.145703 L -4.51 -1.146875 L -4.5 -1.148008 L -4.49 -1.14918 L -4.47 -1.151445 L -4.46 -1.152617 L -4.43 -1.156016 L -4.42 -1.157188 L -4.35 -1.165117 L -4.34 -1.166211 L -4.31 -1.169609 L -4.3 -1.170703 L -4.28 -1.172969 L -4.27 -1.174063 L -4.26 -1.175195 L -4.25 -1.176289 L -4.24 -1.177422 L -4.22 -1.179609 L -4.21 -1.180742 L -4.1 -1.192773 L -4.09 -1.193828 L -4.07 -1.196016 L -4.06 -1.19707 L -4.05 -1.198164 L -4.03 -1.200273 L -4.02 -1.201367 L -3.92 -1.211914 L -3.91 -1.21293 L -3.9 -1.213984 L -3.89 -1.215 L -3.88 -1.216055 L -3.86 -1.218086 L -3.85 -1.219141 L -3.8 -1.224219 L -3.79 -1.225195 L -3.77 -1.227227 L -3.76 -1.228203 L -3.75 -1.229219 L -3.74 -1.230195 L -3.73 -1.231211 L -3.66 -1.238047 L -3.65 -1.238984 L -3.64 -1.239961 L -3.63 -1.240898 L -3.62 -1.241875 L -3.54 -1.249375 L -3.53 -1.250273 L -3.52 -1.251211 L -3.5 -1.253008 L -3.49 -1.253945 L -3.47 -1.255742 L -3.46 -1.256602 L -3.44 -1.258398 L -3.43 -1.259258 L -3.42 -1.260156 L -3.4 -1.261875 L -3.39 -1.262773 L -3.38 -1.263633 L -3.37 -1.264453 L -3.35 -1.266172 L -3.34 -1.266992 L -3.33 -1.267852 L -3.27 -1.272773 L -3.26 -1.273555 L -3.25 -1.274375 L -3.2 -1.278281 L -3.19 -1.279023 L -3.18 -1.279805 L -3.17 -1.280547 L -3.16 -1.281328 L -3.15 -1.28207 L -3.14 -1.282773 L -3.12 -1.284258 L -3.11 -1.284961 L -3.1 -1.285703 L -3.07 -1.287813 L -3.06 -1.288477 L -3.05 -1.28918 L -3.04 -1.289844 L -3.03 -1.290547 L -3.01 -1.291875 L -3 -1.2925 L -2.99 -1.293164 L -2.97 -1.294414 L -2.96 -1.295078 L -2.95 -1.295664 L -2.93 -1.296914 L -2.89 -1.299258 L -2.88 -1.299805 L -2.87 -1.300391 L -2.84 -1.302031 L -2.83 -1.302539 L -2.82 -1.303086 L -2.79 -1.304609 L -2.78 -1.305078 L -2.77 -1.305586 L -2.75 -1.306523 L -2.74 -1.306953 L -2.73 -1.307422 L -2.7 -1.308711 L -2.69 -1.309102 L -2.68 -1.309531 L -2.67 -1.309922 L -2.66 -1.310273 L -2.65 -1.310664 L -2.61 -1.31207 L -2.58 -1.313008 L -2.54 -1.314102 L -2.51 -1.314805 L -2.5 -1.315 L -2.49 -1.315234 L -2.48 -1.315391 L -2.47 -1.315586 L -2.44 -1.316055 L -2.41 -1.316406 L -2.39 -1.316562 L -2.38 -1.316602 L -2.37 -1.31668 L -2.36 -1.316719 L -2.32 -1.316719 L -2.31 -1.31668 L -2.3 -1.316602 L -2.29 -1.316562 L -2.28 -1.316445 L -2.27 -1.316367 L -2.25 -1.316133 L -2.23 -1.31582 L -2.21 -1.31543 L -2.2 -1.315195 L -2.19 -1.315 L -2.16 -1.31418 L -2.14 -1.313555 L -2.12 -1.312852 L -2.1 -1.31207 L -2.08 -1.311211 L -2.07 -1.310742 L -2.04 -1.309219 L -2.03 -1.308672 L -2.01 -1.3075 L -1.99 -1.30625 L -1.98 -1.305586 L -1.97 -1.304883 L -1.96 -1.304141 L -1.95 -1.303438 L -1.93 -1.301875 L -1.92 -1.301055 L -1.9 -1.299336 L -1.89 -1.298437 L -1.88 -1.2975 L -1.86 -1.295547 L -1.85 -1.294531 L -1.83 -1.292422 L -1.81 -1.290156 L -1.8 -1.288984 L -1.79 -1.287773 L -1.77 -1.285273 L -1.75 -1.282617 L -1.73 -1.279805 L -1.72 -1.278359 L -1.71 -1.276875 L -1.7 -1.275352 L -1.68 -1.272148 L -1.67 -1.270508 L -1.66 -1.268828 L -1.64 -1.265313 L -1.63 -1.263477 L -1.62 -1.261602 L -1.61 -1.259688 L -1.6 -1.257734 L -1.59 -1.255742 L -1.58 -1.253672 L -1.57 -1.251562 L -1.56 -1.249414 L -1.54 -1.244961 L -1.52 -1.240273 L -1.51 -1.237852 L -1.5 -1.235352 L -1.49 -1.232813 L -1.48 -1.230234 L -1.47 -1.227578 L -1.46 -1.224844 L -1.45 -1.22207 L -1.44 -1.219219 L -1.43 -1.216289 L -1.42 -1.21332 L -1.41 -1.210273 L -1.4 -1.207148 L -1.39 -1.203945 L -1.38 -1.200664 L -1.37 -1.197344 L -1.36 -1.193906 L -1.35 -1.19043 L -1.34 -1.186836 L -1.33 -1.183164 L -1.32 -1.179414 L -1.31 -1.175586 L -1.3 -1.17168 L -1.29 -1.167656 L -1.28 -1.163555 L -1.27 -1.159375 L -1.26 -1.155078 L -1.25 -1.150703 L -1.24 -1.146211 L -1.23 -1.141602 L -1.22 -1.136875 L -1.21 -1.13207 L -1.2 -1.127148 L -1.19 -1.122109 L -1.18 -1.116953 L -1.17 -1.11168 L -1.16 -1.10625 L -1.15 -1.100742 L -1.14 -1.095078 L -1.13 -1.089297 L -1.12 -1.083359 L -1.11 -1.077266 L -1.1 -1.071055 L -1.09 -1.064688 L -1.08 -1.058164 L -1.07 -1.051484 L -1.06 -1.044648 L -1.05 -1.037656 L -1.04 -1.030508 L -1.03 -1.023125 L -1.02 -1.015625 L -1.01 -1.007891 L -1 -1 L 1 1 L 1.01 1.007891 L 1.02 1.015625 L 1.03 1.023125 L 1.04 1.030508 L 1.05 1.037656 L 1.06 1.044648 L 1.07 1.051484 L 1.08 1.058164 L 1.09 1.064688 L 1.1 1.071055 L 1.11 1.077266 L 1.12 1.083359 L 1.13 1.089297 L 1.14 1.095078 L 1.15 1.100742 L 1.16 1.10625 L 1.17 1.11168 L 1.18 1.116953 L 1.19 1.122109 L 1.2 1.127148 L 1.21 1.13207 L 1.22 1.136875 L 1.23 1.141602 L 1.24 1.146211 L 1.25 1.150703 L 1.26 1.155078 L 1.27 1.159375 L 1.28 1.163555 L 1.29 1.167656 L 1.3 1.17168 L 1.31 1.175586 L 1.32 1.179414 L 1.33 1.183164 L 1.34 1.186836 L 1.35 1.19043 L 1.36 1.193906 L 1.37 1.197344 L 1.38 1.200664 L 1.39 1.203945 L 1.4 1.207148 L 1.41 1.210273 L 1.42 1.21332 L 1.43 1.216289 L 1.44 1.219219 L 1.45 1.22207 L 1.46 1.224844 L 1.47 1.227578 L 1.48 1.230234 L 1.49 1.232813 L 1.5 1.235352 L 1.51 1.237852 L 1.52 1.240273 L 1.54 1.244961 L 1.56 1.249414 L 1.57 1.251562 L 1.58 1.253672 L 1.59 1.255742 L 1.6 1.257734 L 1.61 1.259688 L 1.62 1.261602 L 1.63 1.263477 L 1.64 1.265312 L 1.66 1.268828 L 1.67 1.270508 L 1.68 1.272148 L 1.7 1.275352 L 1.71 1.276875 L 1.72 1.278359 L 1.73 1.279805 L 1.75 1.282617 L 1.77 1.285273 L 1.79 1.287773 L 1.8 1.288984 L 1.81 1.290156 L 1.83 1.292422 L 1.85 1.294531 L 1.86 1.295547 L 1.88 1.2975 L 1.89 1.298437 L 1.9 1.299336 L 1.92 1.301055 L 1.93 1.301875 L 1.95 1.303438 L 1.96 1.304141 L 1.97 1.304883 L 1.98 1.305586 L 1.99 1.30625 L 2.01 1.3075 L 2.03 1.308672 L 2.04 1.309219 L 2.07 1.310742 L 2.08 1.311211 L 2.1 1.31207 L 2.12 1.312852 L 2.14 1.313555 L 2.16 1.31418 L 2.19 1.315 L 2.2 1.315195 L 2.21 1.31543 L 2.23 1.31582 L 2.25 1.316133 L 2.27 1.316367 L 2.28 1.316445 L 2.29 1.316562 L 2.3 1.316602 L 2.31 1.31668 L 2.32 1.316719 L 2.36 1.316719 L 2.37 1.31668 L 2.38 1.316602 L 2.39 1.316562 L 2.41 1.316406 L 2.44 1.316055 L 2.47 1.315586 L 2.48 1.315391 L 2.49 1.315234 L 2.5 1.315 L 2.51 1.314805 L 2.54 1.314102 L 2.58 1.313008 L 2.61 1.31207 L 2.65 1.310664 L 2.66 1.310273 L 2.67 1.309922 L 2.68 1.309531 L 2.69 1.309102 L 2.7 1.308711 L 2.73 1.307422 L 2.74 1.306953 L 2.75 1.306523 L 2.77 1.305586 L 2.78 1.305078 L 2.79 1.304609 L 2.82 1.303086 L 2.83 1.302539 L 2.84 1.302031 L 2.87 1.300391 L 2.88 1.299805 L 2.89 1.299258 L 2.93 1.296914 L 2.95 1.295664 L 2.96 1.295078 L 2.97 1.294414 L 2.99 1.293164 L 3 1.2925 L 3.01 1.291875 L 3.03 1.290547 L 3.04 1.289844 L 3.05 1.28918 L 3.06 1.288477 L 3.07 1.287813 L 3.1 1.285703 L 3.11 1.284961 L 3.12 1.284258 L 3.14 1.282773 L 3.15 1.28207 L 3.16 1.281328 L 3.17 1.280547 L 3.18 1.279805 L 3.19 1.279023 L 3.2 1.278281 L 3.25 1.274375 L 3.26 1.273555 L 3.27 1.272773 L 3.33 1.267852 L 3.34 1.266992 L 3.35 1.266172 L 3.37 1.264453 L 3.38 1.263633 L 3.39 1.262773 L 3.4 1.261875 L 3.42 1.260156 L 3.43 1.259258 L 3.44 1.258398 L 3.46 1.256602 L 3.47 1.255742 L 3.49 1.253945 L 3.5 1.253008 L 3.52 1.251211 L 3.53 1.250273 L 3.54 1.249375 L 3.62 1.241875 L 3.63 1.240898 L 3.64 1.239961 L 3.65 1.238984 L 3.66 1.238047 L 3.73 1.231211 L 3.74 1.230195 L 3.75 1.229219 L 3.76 1.228203 L 3.77 1.227227 L 3.79 1.225195 L 3.8 1.224219 L 3.85 1.219141 L 3.86 1.218086 L 3.88 1.216055 L 3.89 1.215 L 3.9 1.213984 L 3.91 1.21293 L 3.92 1.211914 L 4.02 1.201367 L 4.03 1.200273 L 4.05 1.198164 L 4.06 1.19707 L 4.07 1.196016 L 4.09 1.193828 L 4.1 1.192773 L 4.21 1.180742 L 4.22 1.179609 L 4.24 1.177422 L 4.25 1.176289 L 4.26 1.175195 L 4.27 1.174063 L 4.28 1.172969 L 4.3 1.170703 L 4.31 1.169609 L 4.34 1.166211 L 4.35 1.165117 L 4.42 1.157188 L 4.43 1.156016 L 4.46 1.152617 L 4.47 1.151445 L 4.49 1.14918 L 4.5 1.148008 L 4.51 1.146875 L 4.52 1.145703 L 4.53 1.14457 L 4.54 1.143398 L 4.55 1.142266 L 4.56 1.141094 L 4.57 1.139961 L 4.59 1.137617 L 4.6 1.136484 L 4.62 1.134141 L 4.63 1.133008 L 4.7 1.124805 L 4.71 1.123672 L 4.74 1.120156 L 4.75 1.118945 L 4.82 1.110742 L 4.83 1.109531 L 4.86 1.106016 L 4.87 1.104805 L 4.89 1.102461 L 4.9 1.10125 L 4.92 1.098906 L 4.93 1.097695 L 4.95 1.095352 L 4.96 1.094141 L 4.97 1.092969 L 4.98 1.091758 L 4.99 1.090586 L 5 1.089375 " transform="matrix(100,0,0,-100,500,200)"/>
<path style="fill:none;stroke-width:0.03;stroke-linecap:butt;stroke-linejoin:miter;stroke:rgb(87.058824%,29.803922%,71.764706%);stroke-opacity:0.25;stroke-miterlimit:10;" d="M -5 -0.326211 L -4.96 -0.330742 L -4.9 -0.337773 L -4.85 -0.343828 L -4.8 -0.350078 L -4.79 -0.351367 L -4.78 -0.352617 L -4.75 -0.356484 L -4.73 -0.359141 L -4.72 -0.36043 L -4.71 -0.361797 L -4.69 -0.364453 L -4.65 -0.369922 L -4.63 -0.372734 L -4.62 -0.374102 L -4.61 -0.375547 L -4.6 -0.376953 L -4.59 -0.378398 L -4.58 -0.379805 L -4.57 -0.38125 L -4.56 -0.382734 L -4.55 -0.38418 L -4.51 -0.390117 L -4.47 -0.396211 L -4.42 -0.404023 L -4.39 -0.408828 L -4.38 -0.410469 L -4.37 -0.41207 L -4.36 -0.413711 L -4.35 -0.415391 L -4.34 -0.417031 L -4.3 -0.42375 L -4.27 -0.428906 L -4.23 -0.435938 L -4.22 -0.437734 L -4.21 -0.439492 L -4.2 -0.441328 L -4.19 -0.443125 L -4.15 -0.450469 L -4.13 -0.454219 L -4.12 -0.456133 L -4.11 -0.458008 L -4.09 -0.461836 L -4.05 -0.469648 L -4.02 -0.475625 L -4.01 -0.477656 L -4 -0.479648 L -3.99 -0.481719 L -3.98 -0.48375 L -3.95 -0.489961 L -3.93 -0.49418 L -3.92 -0.496328 L -3.91 -0.498438 L -3.89 -0.502734 L -3.86 -0.509297 L -3.83 -0.515977 L -3.82 -0.518242 L -3.81 -0.520469 L -3.8 -0.522773 L -3.79 -0.525039 L -3.77 -0.529648 L -3.74 -0.53668 L -3.71 -0.543828 L -3.7 -0.54625 L -3.69 -0.548633 L -3.68 -0.551094 L -3.67 -0.553516 L -3.66 -0.555977 L -3.62 -0.565977 L -3.6 -0.571055 L -3.59 -0.573633 L -3.58 -0.576172 L -3.57 -0.578789 L -3.56 -0.581367 L -3.55 -0.583984 L -3.54 -0.586641 L -3.53 -0.589258 L -3.52 -0.591914 L -3.48 -0.602695 L -3.47 -0.60543 L -3.46 -0.608203 L -3.45 -0.610937 L -3.44 -0.613711 L -3.4 -0.624961 L -3.39 -0.627813 L -3.38 -0.630703 L -3.37 -0.633555 L -3.36 -0.636484 L -3.35 -0.639375 L -3.33 -0.645234 L -3.3 -0.654141 L -3.28 -0.660156 L -3.25 -0.669297 L -3.23 -0.675469 L -3.2 -0.684844 L -3.18 -0.691172 L -3.15 -0.700781 L -3.12 -0.710508 L -3.1 -0.71707 L -3.08 -0.723711 L -3.07 -0.72707 L -3.06 -0.730391 L -3.05 -0.733789 L -3.04 -0.737148 L -3.03 -0.740547 L -3.02 -0.743984 L -3.01 -0.747383 L -3 -0.750859 L -2.99 -0.754297 L -2.97 -0.76125 L -2.95 -0.768281 L -2.94 -0.771836 L -2.93 -0.775352 L -2.92 -0.778945 L -2.91 -0.7825 L -2.9 -0.786094 L -2.89 -0.789727 L -2.88 -0.79332 L -2.87 -0.796953 L -2.83 -0.811641 L -2.81 -0.819063 L -2.78 -0.830313 L -2.75 -0.84168 L -2.72 -0.853164 L -2.68 -0.868633 L -2.67 -0.872539 L -2.66 -0.876484 L -2.65 -0.880391 L -2.62 -0.892227 L -2.59 -0.90418 L -2.58 -0.908203 L -2.57 -0.912187 L -2.56 -0.916211 L -2.55 -0.920273 L -2.54 -0.924297 L -2.51 -0.936484 L -2.5 -0.940586 L -2.49 -0.944648 L -2.46 -0.956953 L -2.44 -0.965234 L -2.43 -0.969336 L -2.41 -0.977617 L -2.4 -0.981797 L -2.39 -0.985937 L -2.38 -0.990117 L -2.37 -0.994258 L -2.32 -1.015156 L -2.31 -1.019375 L -2.29 -1.027734 L -2.28 -1.031953 L -2.27 -1.036133 L -2.26 -1.040352 L -2.24 -1.048711 L -2.23 -1.05293 L -2.22 -1.057109 L -2.21 -1.061328 L -2.14 -1.090586 L -2.13 -1.094727 L -2.12 -1.098906 L -2.09 -1.111328 L -2.07 -1.119531 L -2.06 -1.123672 L -2.05 -1.127734 L -2.04 -1.131836 L -2.02 -1.139961 L -1.99 -1.152031 L -1.96 -1.163984 L -1.95 -1.16793 L -1.93 -1.175742 L -1.91 -1.183477 L -1.89 -1.191133 L -1.88 -1.194922 L -1.86 -1.202422 L -1.85 -1.206133 L -1.84 -1.209805 L -1.82 -1.21707 L -1.81 -1.220664 L -1.8 -1.224219 L -1.79 -1.227734 L -1.78 -1.231211 L -1.77 -1.234648 L -1.76 -1.238047 L -1.75 -1.241406 L -1.73 -1.247969 L -1.72 -1.251211 L -1.71 -1.254375 L -1.7 -1.2575 L -1.69 -1.260586 L -1.68 -1.263633 L -1.67 -1.266602 L -1.66 -1.269492 L -1.65 -1.272344 L -1.64 -1.275156 L -1.63 -1.277891 L -1.62 -1.280547 L -1.61 -1.283164 L -1.6 -1.285703 L -1.59 -1.288164 L -1.58 -1.290547 L -1.57 -1.292852 L -1.56 -1.295078 L -1.55 -1.297188 L -1.54 -1.299258 L -1.53 -1.301211 L -1.52 -1.303086 L -1.51 -1.304844 L -1.5 -1.306523 L -1.49 -1.308047 L -1.48 -1.309531 L -1.47 -1.310859 L -1.46 -1.31207 L -1.45 -1.313125 L -1.44 -1.314102 L -1.43 -1.314922 L -1.42 -1.315586 L -1.41 -1.316094 L -1.4 -1.316484 L -1.39 -1.31668 L -1.38 -1.316719 L -1.37 -1.316562 L -1.36 -1.31625 L -1.35 -1.315703 L -1.34 -1.315 L -1.33 -1.314023 L -1.32 -1.312852 L -1.31 -1.311406 L -1.3 -1.309727 L -1.29 -1.307813 L -1.28 -1.305586 L -1.27 -1.303047 L -1.26 -1.300195 L -1.25 -1.297031 L -1.24 -1.293477 L -1.23 -1.28957 L -1.22 -1.285273 L -1.21 -1.280508 L -1.2 -1.275352 L -1.19 -1.269648 L -1.18 -1.263477 L -1.17 -1.256758 L -1.16 -1.249414 L -1.15 -1.241445 L -1.14 -1.232813 L -1.13 -1.223438 L -1.12 -1.21332 L -1.11 -1.202305 L -1.1 -1.19043 L -1.09 -1.177539 L -1.08 -1.163555 L -1.07 -1.148438 L -1.06 -1.13207 L -1.05 -1.114336 L -1.04 -1.095078 L -1.03 -1.07418 L -1.02 -1.051484 L -1.01 -1.026836 L -1 -1 L 1 1 L 1.01 1.026836 L 1.02 1.051484 L 1.03 1.07418 L 1.04 1.095078 L 1.05 1.114336 L 1.06 1.13207 L 1.07 1.148438 L 1.08 1.163555 L 1.09 1.177539 L 1.1 1.19043 L 1.11 1.202305 L 1.12 1.21332 L 1.13 1.223437 L 1.14 1.232813 L 1.15 1.241445 L 1.16 1.249414 L 1.17 1.256758 L 1.18 1.263477 L 1.19 1.269648 L 1.2 1.275352 L 1.21 1.280508 L 1.22 1.285273 L 1.23 1.28957 L 1.24 1.293477 L 1.25 1.297031 L 1.26 1.300195 L 1.27 1.303047 L 1.28 1.305586 L 1.29 1.307812 L 1.3 1.309727 L 1.31 1.311406 L 1.32 1.312852 L 1.33 1.314023 L 1.34 1.315 L 1.35 1.315703 L 1.36 1.31625 L 1.37 1.316562 L 1.38 1.316719 L 1.39 1.31668 L 1.4 1.316484 L 1.41 1.316094 L 1.42 1.315586 L 1.43 1.314922 L 1.44 1.314102 L 1.45 1.313125 L 1.46 1.31207 L 1.47 1.310859 L 1.48 1.309531 L 1.49 1.308047 L 1.5 1.306523 L 1.51 1.304844 L 1.52 1.303086 L 1.53 1.301211 L 1.54 1.299258 L 1.55 1.297187 L 1.56 1.295078 L 1.57 1.292852 L 1.58 1.290547 L 1.59 1.288164 L 1.6 1.285703 L 1.61 1.283164 L 1.62 1.280547 L 1.63 1.277891 L 1.64 1.275156 L 1.65 1.272344 L 1.66 1.269492 L 1.67 1.266602 L 1.68 1.263633 L 1.69 1.260586 L 1.7 1.2575 L 1.71 1.254375 L 1.72 1.251211 L 1.73 1.247969 L 1.75 1.241406 L 1.76 1.238047 L 1.77 1.234648 L 1.78 1.231211 L 1.79 1.227734 L 1.8 1.224219 L 1.81 1.220664 L 1.82 1.21707 L 1.84 1.209805 L 1.85 1.206133 L 1.86 1.202422 L 1.88 1.194922 L 1.89 1.191133 L 1.91 1.183477 L 1.93 1.175742 L 1.95 1.16793 L 1.96 1.163984 L 1.99 1.152031 L 2.02 1.139961 L 2.04 1.131836 L 2.05 1.127734 L 2.06 1.123672 L 2.07 1.119531 L 2.09 1.111328 L 2.12 1.098906 L 2.13 1.094727 L 2.14 1.090586 L 2.21 1.061328 L 2.22 1.057109 L 2.23 1.05293 L 2.24 1.048711 L 2.26 1.040352 L 2.27 1.036133 L 2.28 1.031953 L 2.29 1.027734 L 2.31 1.019375 L 2.32 1.015156 L 2.37 0.994258 L 2.38 0.990117 L 2.39 0.985937 L 2.4 0.981797 L 2.41 0.977617 L 2.43 0.969336 L 2.44 0.965234 L 2.46 0.956953 L 2.49 0.944648 L 2.5 0.940586 L 2.51 0.936484 L 2.54 0.924297 L 2.55 0.920273 L 2.56 0.916211 L 2.57 0.912187 L 2.58 0.908203 L 2.59 0.90418 L 2.62 0.892227 L 2.65 0.880391 L 2.66 0.876484 L 2.67 0.872539 L 2.68 0.868633 L 2.72 0.853164 L 2.75 0.84168 L 2.78 0.830313 L 2.81 0.819063 L 2.83 0.811641 L 2.87 0.796953 L 2.88 0.79332 L 2.89 0.789727 L 2.9 0.786094 L 2.91 0.7825 L 2.92 0.778945 L 2.93 0.775352 L 2.94 0.771836 L 2.95 0.768281 L 2.97 0.76125 L 2.99 0.754297 L 3 0.750859 L 3.01 0.747383 L 3.02 0.743984 L 3.03 0.740547 L 3.04 0.737148 L 3.05 0.733789 L 3.06 0.730391 L 3.07 0.72707 L 3.08 0.723711 L 3.1 0.71707 L 3.12 0.710508 L 3.15 0.700781 L 3.18 0.691172 L 3.2 0.684844 L 3.23 0.675469 L 3.25 0.669297 L 3.28 0.660156 L 3.3 0.654141 L 3.33 0.645234 L 3.35 0.639375 L 3.36 0.636484 L 3.37 0.633555 L 3.38 0.630703 L 3.39 0.627812 L 3.4 0.624961 L 3.44 0.613711 L 3.45 0.610937 L 3.46 0.608203 L 3.47 0.60543 L 3.48 0.602695 L 3.52 0.591914 L 3.53 0.589258 L 3.54 0.586641 L 3.55 0.583984 L 3.56 0.581367 L 3.57 0.578789 L 3.58 0.576172 L 3.59 0.573633 L 3.6 0.571055 L 3.62 0.565977 L 3.66 0.555977 L 3.67 0.553516 L 3.68 0.551094 L 3.69 0.548633 L 3.7 0.54625 L 3.71 0.543828 L 3.74 0.53668 L 3.77 0.529648 L 3.79 0.525039 L 3.8 0.522773 L 3.81 0.520469 L 3.82 0.518242 L 3.83 0.515977 L 3.86 0.509297 L 3.89 0.502734 L 3.91 0.498437 L 3.92 0.496328 L 3.93 0.49418 L 3.95 0.489961 L 3.98 0.48375 L 3.99 0.481719 L 4 0.479648 L 4.01 0.477656 L 4.02 0.475625 L 4.05 0.469648 L 4.09 0.461836 L 4.11 0.458008 L 4.12 0.456133 L 4.13 0.454219 L 4.15 0.450469 L 4.19 0.443125 L 4.2 0.441328 L 4.21 0.439492 L 4.22 0.437734 L 4.23 0.435937 L 4.27 0.428906 L 4.3 0.42375 L 4.34 0.417031 L 4.35 0.415391 L 4.36 0.413711 L 4.37 0.41207 L 4.38 0.410469 L 4.39 0.408828 L 4.42 0.404023 L 4.47 0.396211 L 4.51 0.390117 L 4.55 0.38418 L 4.56 0.382734 L 4.57 0.38125 L 4.58 0.379805 L 4.59 0.378398 L 4.6 0.376953 L 4.61 0.375547 L 4.62 0.374102 L 4.63 0.372734 L 4.65 0.369922 L 4.69 0.364453 L 4.71 0.361797 L 4.72 0.36043 L 4.73 0.359141 L 4.75 0.356484 L 4.78 0.352617 L 4.79 0.351367 L 4.8 0.350078 L 4.85 0.343828 L 4.9 0.337773 L 4.96 0.330742 L 5 0.326211 " transform="matrix(100,0,0,-100,500,200)"/>
</g>
</svg>
