<?xml version="1.0" encoding="UTF-8"?>
<svg xmlns="http://www.w3.org/2000/svg" xmlns:xlink="http://www.w3.org/1999/xlink" width="1000pt" height="400pt" viewBox="0 0 1000 400" version="1.1">
<g id="surface16">
<rect x="0" y="0" width="1000" height="400" style="fill:rgb(0%,0%,0%);fill-opacity:1;stroke:none;"/>
<path style="fill:none;stroke-width:0.01;stroke-linecap:butt;stroke-linejoin:miter;stroke:rgb(100%,100%,100%);stroke-opacity:0.5;stroke-miterlimit:10;" d="M -5 -2 L -5 2 " transform="matrix(100,0,0,-100,500,200)"/>
<path style="fill:none;stroke-width:0.01;stroke-linecap:butt;stroke-linejoin:miter;stroke:rgb(100%,100%,100%);stroke-opacity:0.5;stroke-miterlimit:10;" d="M -4 -2 L -4 2 " transform="matrix(100,0,0,-100,500,200)"/>
<path style="fill:none;stroke-width:0.01;stroke-linecap:butt;stroke-linejoin:miter;stroke:rgb(100%,100%,100%);stroke-opacity:0.5;stroke-miterlimit:10;" d="M -3 -2 L -3 2 " transform="matrix(100,0,0,-100,500,200)"/>
<path style="fill:none;stroke-width:0.01;stroke-linecap:butt;stroke-linejoin:miter;stroke:rgb(100%,100%,100%);stroke-opacity:0.5;stroke-miterlimit:10;" d="M -2 -2 L -2 2 " transform="matrix(100,0,0,-100,500,200)"/>
<path style="fill:none;stroke-width:0.01;stroke-linecap:butt;stroke-linejoin:miter;stroke:rgb(100%,100%,100%);stroke-opacity:0.5;stroke-miterlimit:10;" d="M -1 -2 L -1 2 " transform="matrix(100,0,0,-100,500,200)"/>
<path style="fill:none;stroke-width:0.01;stroke-linecap:butt;stroke-linejoin:miter;stroke:rgb(100%,100%,100%);stroke-opacity:1;stroke-miterlimit:10;" d="M 0 -2 L 0 2 " transform="matrix(100,0,0,-100,500,200)"/>
<path style="fill:none;stroke-width:0.01;stroke-linecap:butt;stroke-linejoin:miter;stroke:rgb(100%,100%,100%);stroke-opacity:0.5;stroke-miterlimit:10;" d="M 1 -2 L 1 2 " transform="matrix(100,0,0,-100,500,200)"/>
<path style="fill:none;stroke-width:0.01;stroke-linecap:butt;stroke-linejoin:miter;stroke:rgb(100%,100%,100%);stroke-opacity:0.5;stroke-miterlimit:10;" d="M 2 -2 L 2 2 " transform="matrix(100,0,0,-100,500,200)"/>
<path style="fill:none;stroke-width:0.01;stroke-linecap:butt;stroke-linejoin:miter;stroke:rgb(100%,100%,100%);stroke-opacity:0.5;stroke-miterlimit:10;" d="M 3 -2 L 3 2 " transform="matrix(100,0,0,-100,500,200)"/>
<path style="fill:none;stroke-width:0.01;stroke-linecap:butt;stroke-linejoin:miter;stroke:rgb(100%,100%,100%);stroke-opacity:0.5;stroke-miterlimit:10;" d="M 4 -2 L 4 2 " transform="matrix(100,0,0,-100,500,200)"/>
<path style="fill:none;stroke-width:0.01;stroke-linecap:butt;stroke-linejoin:miter;stroke:rgb(100%,100%,100%);stroke-opacity:0.5;stroke-miterlimit:10;" d="M 5 -2 L 5 2 " transform="matrix(100,0,0,-100,500,200)"/>
<path style="fill:none;stroke-width:0.005;stroke-linecap:butt;stroke-linejoin:miter;stroke:rgb(100%,100%,100%);stroke-opacity:0.25;stroke-miterlimit:10;" d="M -4.75 -2 L -4.75 2 " transform="matrix(100,0,0,-100,500,200)"/>
<path style="fill:none;stroke-width:0.005;stroke-linecap:butt;stroke-linejoin:miter;stroke:rgb(100%,100%,100%);stroke-opacity:0.25;stroke-miterlimit:10;" d="M -4.5 -2 L -4.5 2 " transform="matrix(100,0,0,-100,500,200)"/>
<path style="fill:none;stroke-width:0.005;stroke-linecap:butt;stroke-linejoin:miter;stroke:rgb(100%,100%,100%);stroke-opacity:0.25;stroke-miterlimit:10;" d="M -4.25 -2 L -4.25 2 " transform="matrix(100,0,0,-100,500,200)"/>
<path style="fill:none;stroke-width:0.005;stroke-linecap:butt;stroke-linejoin:miter;stroke:rgb(100%,100%,100%);stroke-opacity:0.25;stroke-miterlimit:10;" d="M -3.75 -2 L -3.75 2 " transform="matrix(100,0,0,-100,500,200)"/>
<path style="fill:none;stroke-width:0.005;stroke-linecap:butt;stroke-linejoin:miter;stroke:rgb(100%,100%,100%);stroke-opacity:0.25;stroke-miterlimit:10;" d="M -3.5 -2 L -3.5 2 " transform="matrix(100,0,0,-100,500,200)"/>
<path style="fill:none;stroke-width:0.005;stroke-linecap:butt;stroke-linejoin:miter;stroke:rgb(100%,100%,100%);stroke-opacity:0.25;stroke-miterlimit:10;" d="M -3.25 -2 L -3.25 2 " transform="matrix(100,0,0,-100,500,200)"/>
<path style="fill:none;stroke-width:0.005;stroke-linecap:butt;stroke-linejoin:miter;stroke:rgb(100%,100%,100%);stroke-opacity:0.25;stroke-miterlimit:10;" d="M -2.75 -2 L -2.75 2 " transform="matrix(100,0,0,-100,500,200)"/>
<path style="fill:none;stroke-width:0.005;stroke-linecap:butt;stroke-linejoin:miter;stroke:rgb(100%,100%,100%);stroke-opacity:0.25;stroke-miterlimit:10;" d="M -2.5 -2 L -2.5 2 " transform="matrix(100,0,0,-100,500,200)"/>
<path style="fill:none;stroke-width:0.005;stroke-linecap:butt;stroke-linejoin:miter;stroke:rgb(100%,100%,100%);stroke-opacity:0.25;stroke-miterlimit:10;" d="M -2.25 -2 L -2.25 2 " transform="matrix(100,0,0,-100,500,200)"/>
<path style="fill:none;stroke-width:0.005;stroke-linecap:butt;stroke-linejoin:miter;stroke:rgb(100%,100%,100%);stroke-opacity:0.25;stroke-miterlimit:10;" d="M -1.75 -2 L -1.75 2 " transform="matrix(100,0,0,-100,500,200)"/>
<path style="fill:none;stroke-width:0.005;stroke-linecap:butt;stroke-linejoin:miter;stroke:rgb(100%,100%,100%);stroke-opacity:0.25;stroke-miterlimit:10;" d="M -1.5 -2 L -1.5 2 " transform="matrix(100,0,0,-100,500,200)"/>
<path style="fill:none;stroke-width:0.005;stroke-linecap:butt;stroke-linejoin:miter;stroke:rgb(100%,100%,100%);stroke-opacity:0.25;stroke-miterlimit:10;" d="M -1.25 -2 L -1.25 2 " transform="matrix(100,0,0,-100,500,200)"/>
<path style="fill:none;stroke-width:0.005;stroke-linecap:butt;stroke-linejoin:miter;stroke:rgb(100%,100%,100%);stroke-opacity:0.25;stroke-miterlimit:10;" d="M -0.75 -2 L -0.75 2 " transform="matrix(100,0,0,-100,500,200)"/>
<path style="fill:none;stroke-width:0.005;stroke-linecap:butt;stroke-linejoin:miter;stroke:rgb(100%,100%,100%);stroke-opacity:0.25;stroke-miterlimit:10;" d="M -0.5 -2 L -0.5 2 " transform="matrix(100,0,0,-100,500,200)"/>
<path style="fill:none;stroke-width:0.005;stroke-linecap:butt;stroke-linejoin:miter;stroke:rgb(100%,100%,100%);stroke-opacity:0.25;stroke-miterlimit:10;" d="M -0.25 -2 L -0.25 2 " transform="matrix(100,0,0,-100,500,200)"/>
<path style="fill:none;stroke-width:0.005;stroke-linecap:butt;stroke-linejoin:miter;stroke:rgb(100%,100%,100%);stroke-opacity:0.25;stroke-miterlimit:10;" d="M 0.25 -2 L 0.25 2 " transform="matrix(100,0,0,-100,500,200)"/>
<path style="fill:none;stroke-width:0.005;stroke-linecap:butt;stroke-linejoin:miter;stroke:rgb(100%,100%,100%);stroke-opacity:0.25;stroke-miterlimit:10;" d="M 0.5 -2 L 0.5 2 " transform="matrix(100,0,0,-100,500,200)"/>
<path style="fill:none;stroke-width:0.005;stroke-linecap:butt;stroke-linejoin:miter;stroke:rgb(100%,100%,100%);stroke-opacity:0.25;stroke-miterlimit:10;" d="M 0.75 -2 L 0.75 2 " transform="matrix(100,0,0,-100,500,200)"/>
<path style="fill:none;stroke-width:0.005;stroke-linecap:butt;stroke-linejoin:miter;stroke:rgb(100%,100%,100%);stroke-opacity:0.25;stroke-miterlimit:10;" d="M 1.25 -2 L 1.25 2 " transform="matrix(100,0,0,-100,500,200)"/>
<path style="fill:none;stroke-width:0.005;stroke-linecap:butt;stroke-linejoin:miter;stroke:rgb(100%,100%,100%);stroke-opacity:0.25;stroke-miterlimit:10;" d="M 1.5 -2 L 1.5 2 " transform="matrix(100,0,0,-100,500,200)"/>
<path style="fill:none;stroke-width:0.005;stroke-linecap:butt;stroke-linejoin:miter;stroke:rgb(100%,100%,100%);stroke-opacity:0.25;stroke-miterlimit:10;" d="M 1.75 -2 L 1.75 2 " transform="matrix(100,0,0,-100,500,200)"/>
<path style="fill:none;stroke-width:0.005;stroke-linecap:butt;stroke-linejoin:miter;stroke:rgb(100%,100%,100%);stroke-opacity:0.25;stroke-miterlimit:10;" d="M 2.25 -2 L 2.25 2 " transform="matrix(100,0,0,-100,500,200)"/>
<path style="fill:none;stroke-width:0.005;stroke-linecap:butt;stroke-linejoin:miter;stroke:rgb(100%,100%,100%);stroke-opacity:0.25;stroke-miterlimit:10;" d="M 2.5 -2 L 2.5 2 " transform="matrix(100,0,0,-100,500,200)"/>
<path style="fill:none;stroke-width:0.005;stroke-linecap:butt;stroke-linejoin:miter;stroke:rgb(100%,100%,100%);stroke-opacity:0.25;stroke-miterlimit:10;" d="M 2.75 -2 L 2.75 2 " transform="matrix(100,0,0,-100,500,200)"/>
<path style="fill:none;stroke-width:0.005;stroke-linecap:butt;stroke-linejoin:miter;stroke:rgb(100%,100%,100%);stroke-opacity:0.25;stroke-miterlimit:10;" d="M 3.25 -2 L 3.25 2 " transform="matrix(100,0,0,-100,500,200)"/>
<path style="fill:none;stroke-width:0.005;stroke-linecap:butt;stroke-linejoin:miter;stroke:rgb(100%,100%,100%);stroke-opacity:0.25;stroke-miterlimit:10;" d="M 3.5 -2 L 3.5 2 " transform="matrix(100,0,0,-100,500,200)"/>
<path style="fill:none;stroke-width:0.005;stroke-linecap:butt;stroke-linejoin:miter;stroke:rgb(100%,100%,100%);stroke-opacity:0.25;stroke-miterlimit:10;" d="M 3.75 -2 L 3.75 2 " transform="matrix(100,0,0,-100,500,200)"/>
<path style="fill:none;stroke-width:0.005;stroke-linecap:butt;stroke-linejoin:miter;stroke:rgb(100%,100%,100%);stroke-opacity:0.25;stroke-miterlimit:10;" d="M 4.25 -2 L 4.25 2 " transform="matrix(100,0,0,-100,500,200)"/>
<path style="fill:none;stroke-width:0.005;stroke-linecap:butt;stroke-linejoin:miter;stroke:rgb(100%,100%,100%);stroke-opacity:0.25;stroke-miterlimit:10;" d="M 4.5 -2 L 4.5 2 " transform="matrix(100,0,0,-100,500,200)"/>
<path style="fill:none;stroke-width:0.005;stroke-linecap:butt;stroke-linejoin:miter;stroke:rgb(100%,100%,100%);stroke-opacity:0.25;stroke-miterlimit:10;" d="M 4.75 -2 L 4.75 2 " transform="matrix(100,0,0,-100,500,200)"/>
<path style="fill:none;stroke-width:0.01;stroke-linecap:butt;stroke-linejoin:miter;stroke:rgb(100%,100%,100%);stroke-opacity:0.5;stroke-miterlimit:10;" d="M -5 -2 L 5 -2 " transform="matrix(100,0,0,-100,500,200)"/>
<path style="fill:none;stroke-width:0.01;stroke-linecap:butt;stroke-linejoin:miter;stroke:rgb(100%,100%,100%);stroke-opacity:0.5;stroke-miterlimit:10;" d="M -5 -1 L 5 -1 " transform="matrix(100,0,0,-100,500,200)"/>
<path style="fill:none;stroke-width:0.01;stroke-linecap:butt;stroke-linejoin:miter;stroke:rgb(100%,100%,100%);stroke-opacity:1;stroke-miterlimit:10;" d="M -5 0 L 5 0 " transform="matrix(100,0,0,-100,500,200)"/>
<path style="fill:none;stroke-width:0.01;stroke-linecap:butt;stroke-linejoin:miter;stroke:rgb(100%,100%,100%);stroke-opacity:0.5;stroke-miterlimit:10;" d="M -5 1 L 5 1 " transform="matrix(100,0,0,-100,500,200)"/>
<path style="fill:none;stroke-width:0.01;stroke-linecap:butt;stroke-linejoin:miter;stroke:rgb(100%,100%,100%);stroke-opacity:0.5;stroke-miterlimit:10;" d="M -5 2 L 5 2 " transform="matrix(100,0,0,-100,500,200)"/>
<path style="fill:none;stroke-width:0.005;stroke-linecap:butt;stroke-linejoin:miter;stroke:rgb(100%,100%,100%);stroke-opacity:0.25;stroke-miterlimit:10;" d="M -5 -1.75 L 5 -1.75 " transform="matrix(100,0,0,-100,500,200)"/>
<path style="fill:none;stroke-width:0.005;stroke-linecap:butt;stroke-linejoin:miter;stroke:rgb(100%,100%,100%);stroke-opacity:0.25;stroke-miterlimit:10;" d="M -5 -1.5 L 5 -1.5 " transform="matrix(100,0,0,-100,500,200)"/>
<path style="fill:none;stroke-width:0.005;stroke-linecap:butt;stroke-linejoin:miter;stroke:rgb(100%,100%,100%);stroke-opacity:0.25;stroke-miterlimit:10;" d="M -5 -1.25 L 5 -1.25 " transform="matrix(100,0,0,-100,500,200)"/>
<path style="fill:none;stroke-width:0.005;stroke-linecap:butt;stroke-linejoin:miter;stroke:rgb(100%,100%,100%);stroke-opacity:0.25;stroke-miterlimit:10;" d="M -5 -0.75 L 5 -0.75 " transform="matrix(100,0,0,-100,500,200)"/>
<path style="fill:none;stroke-width:0.005;stroke-linecap:butt;stroke-linejoin:miter;stroke:rgb(100%,100%,100%);stroke-opacity:0.25;stroke-miterlimit:10;" d="M -5 -0.5 L 5 -0.5 " transform="matrix(100,0,0,-100,500,200)"/>
<path style="fill:none;stroke-width:0.005;stroke-linecap:butt;stroke-linejoin:miter;stroke:rgb(100%,100%,100%);stroke-opacity:0.25;stroke-miterlimit:10;" d="M -5 -0.25 L 5 -0.25 " transform="matrix(100,0,0,-100,500,200)"/>
<path style="fill:none;stroke-width:0.005;stroke-linecap:butt;stroke-linejoin:miter;stroke:rgb(100%,100%,100%);stroke-opacity:0.25;stroke-miterlimit:10;" d="M -5 0.25 L 5 0.25 " transform="matrix(100,0,0,-100,500,200)"/>
<path style="fill:none;stroke-width:0.005;stroke-linecap:butt;stroke-linejoin:miter;stroke:rgb(100%,100%,100%);stroke-opacity:0.25;stroke-miterlimit:10;" d="M -5 0.5 L 5 0.5 " transform="matrix(100,0,0,-100,500,200)"/>
<path style="fill:none;stroke-width:0.005;stroke-linecap:butt;stroke-linejoin:miter;stroke:rgb(100%,100%,100%);stroke-opacity:0.25;stroke-miterlimit:10;" d="M -5 0.75 L 5 0.75 " transform="matrix(100,0,0,-100,500,200)"/>
<path style="fill:none;stroke-width:0.005;stroke-linecap:butt;stroke-linejoin:miter;stroke:rgb(100%,100%,100%);stroke-opacity:0.25;stroke-miterlimit:10;" d="M -5 1.25 L 5 1.25 " transform="matrix(100,0,0,-100,500,200)"/>
<path style="fill:none;stroke-width:0.005;stroke-linecap:butt;stroke-linejoin:miter;stroke:rgb(100%,100%,100%);stroke-opacity:0.25;stroke-miterlimit:10;" d="M -5 1.5 L 5 1.5 " transform="matrix(100,0,0,-100,500,200)"/>
<path style="fill:none;stroke-width:0.005;stroke-linecap:butt;stroke-linejoin:miter;stroke:rgb(100%,100%,100%);stroke-opacity:0.25;stroke-miterlimit:10;" d="M -5 1.75 L 5 1.75 " transform="matrix(100,0,0,-100,500,200)"/>
<path style="fill:none;stroke-width:0.03;stroke-linecap:butt;stroke-linejoin:miter;stroke:rgb(87.058824%,29.803922%,71.764706%);stroke-opacity:1;stroke-miterlimit:10;" d="M -5 -0.998086 L -4.98 -0.998164 L -4.97 -0.998242 L -4.95 -0.99832 L -4.94 -0.998398 L -4.92 -0.998477 L -4.91 -0.998555 L -4.9 -0.998594 L -4.88 -0.99875 L -4.87 -0.998789 L -4.85 -0.998945 L -4.84 -0.998984 L -4.79 -0.999375 L -4.78 -0.999414 L -4.77 -0.999492 L -4.76 -0.999609 L -4.72 -0.999922 L -4.71 -1.000039 L -4.69 -1.000195 L -4.68 -1.000313 L -4.67 -1.000391 L -4.66 -1.000508 L -4.65 -1.000586 L -4.63 -1.00082 L -4.62 -1.000898 L -4.52 -1.00207 L -4.51 -1.002227 L -4.49 -1.002461 L -4.48 -1.002617 L -4.47 -1.002734 L -4.45 -1.003047 L -4.44 -1.003164 L -4.34 -1.004727 L -4.33 -1.004922 L -4.32 -1.005078 L -4.31 -1.005273 L -4.3 -1.00543 L -4.29 -1.005625 L -4.28 -1.005781 L -4.19 -1.007539 L -4.18 -1.007773 L -4.17 -1.007969 L -4.16 -1.008203 L -4.15 -1.008398 L -4.14 -1.008633 L -4.13 -1.008828 L -4.05 -1.010703 L -4.04 -1.010977 L -4.02 -1.011445 L -4.01 -1.011719 L -4 -1.011953 L -3.96 -1.013047 L -3.95 -1.013281 L -3.94 -1.013555 L -3.93 -1.013867 L -3.9 -1.014687 L -3.89 -1.015 L -3.87 -1.015547 L -3.85 -1.016172 L -3.84 -1.016445 L -3.77 -1.018633 L -3.76 -1.018984 L -3.74 -1.019609 L -3.73 -1.019961 L -3.72 -1.020273 L -3.69 -1.021328 L -3.68 -1.021641 L -3.63 -1.023398 L -3.62 -1.023789 L -3.6 -1.024492 L -3.59 -1.024883 L -3.58 -1.025234 L -3.57 -1.025625 L -3.56 -1.025977 L -3.54 -1.026758 L -3.53 -1.027109 L -3.45 -1.030234 L -3.44 -1.030664 L -3.42 -1.031445 L -3.41 -1.031875 L -3.39 -1.032656 L -3.37 -1.033516 L -3.36 -1.033906 L -3.35 -1.034336 L -3.34 -1.034727 L -3.31 -1.036016 L -3.3 -1.036406 L -2.99 -1.049727 L -2.98 -1.050117 L -2.96 -1.050977 L -2.95 -1.051367 L -2.94 -1.051797 L -2.93 -1.052188 L -2.92 -1.052617 L -2.91 -1.053008 L -2.9 -1.053438 L -2.82 -1.056563 L -2.81 -1.056914 L -2.8 -1.057305 L -2.78 -1.058008 L -2.77 -1.058398 L -2.75 -1.059102 L -2.74 -1.059414 L -2.72 -1.060117 L -2.7 -1.060742 L -2.69 -1.061094 L -2.68 -1.061406 L -2.67 -1.06168 L -2.66 -1.061992 L -2.65 -1.062266 L -2.64 -1.062578 L -2.61 -1.063398 L -2.6 -1.063633 L -2.59 -1.063906 L -2.56 -1.064609 L -2.55 -1.064805 L -2.54 -1.065039 L -2.53 -1.065234 L -2.52 -1.065391 L -2.5 -1.065781 L -2.48 -1.066094 L -2.46 -1.066328 L -2.45 -1.066484 L -2.44 -1.066562 L -2.43 -1.06668 L -2.4 -1.066914 L -2.38 -1.066992 L -2.37 -1.066992 L -2.36 -1.067031 L -2.35 -1.067031 L -2.34 -1.066992 L -2.33 -1.066992 L -2.32 -1.066914 L -2.31 -1.066875 L -2.29 -1.066719 L -2.26 -1.066367 L -2.24 -1.066055 L -2.22 -1.065664 L -2.19 -1.064961 L -2.18 -1.064688 L -2.17 -1.064375 L -2.16 -1.064102 L -2.13 -1.063047 L -2.11 -1.062266 L -2.1 -1.061836 L -2.08 -1.060898 L -2.05 -1.059375 L -2.02 -1.057617 L -2.01 -1.056992 L -2 -1.056328 L -1.97 -1.054219 L -1.94 -1.051875 L -1.92 -1.050156 L -1.9 -1.048359 L -1.89 -1.047422 L -1.88 -1.046445 L -1.86 -1.044414 L -1.83 -1.041133 L -1.81 -1.038789 L -1.78 -1.035039 L -1.77 -1.033711 L -1.75 -1.030977 L -1.74 -1.02957 L -1.72 -1.026602 L -1.7 -1.023555 L -1.69 -1.021953 L -1.68 -1.020313 L -1.66 -1.016953 L -1.65 -1.015195 L -1.63 -1.011602 L -1.61 -1.007852 L -1.6 -1.005898 L -1.58 -1.001914 L -1.57 -0.999844 L -1.56 -0.997734 L -1.55 -0.995586 L -1.54 -0.993398 L -1.53 -0.991172 L -1.52 -0.988906 L -1.5 -0.984219 L -1.48 -0.979375 L -1.47 -0.976875 L -1.46 -0.974336 L -1.44 -0.969102 L -1.43 -0.966406 L -1.42 -0.963672 L -1.41 -0.960898 L -1.4 -0.958086 L -1.38 -0.952305 L -1.37 -0.949336 L -1.35 -0.943242 L -1.34 -0.940117 L -1.32 -0.933711 L -1.31 -0.93043 L -1.3 -0.927109 L -1.29 -0.923711 L -1.28 -0.920273 L -1.27 -0.916797 L -1.26 -0.913242 L -1.25 -0.909648 L -1.24 -0.906016 L -1.23 -0.902305 L -1.22 -0.898555 L -1.21 -0.894727 L -1.2 -0.890859 L -1.18 -0.882969 L -1.17 -0.878906 L -1.16 -0.874805 L -1.15 -0.870664 L -1.14 -0.866445 L -1.13 -0.862188 L -1.12 -0.857852 L -1.11 -0.853477 L -1.1 -0.849023 L -1.09 -0.844492 L -1.08 -0.839922 L -1.07 -0.835313 L -1.06 -0.830625 L -1.05 -0.825898 L -1.03 -0.816211 L -1.02 -0.811289 L -1.01 -0.806289 L -1 -0.80125 L -0.99 -0.796133 L -0.98 -0.790938 L -0.97 -0.785703 L -0.96 -0.780391 L -0.95 -0.775039 L -0.94 -0.769609 L -0.93 -0.764141 L -0.91 -0.752969 L -0.9 -0.747266 L -0.89 -0.741523 L -0.88 -0.735703 L -0.87 -0.729844 L -0.86 -0.723906 L -0.85 -0.71793 L -0.84 -0.711836 L -0.83 -0.705703 L -0.82 -0.699531 L -0.81 -0.693281 L -0.8 -0.686953 L -0.79 -0.680547 L -0.78 -0.674102 L -0.77 -0.667617 L -0.76 -0.661016 L -0.75 -0.654375 L -0.74 -0.647656 L -0.73 -0.640898 L -0.72 -0.634063 L -0.71 -0.627148 L -0.7 -0.620195 L -0.69 -0.613164 L -0.68 -0.606055 L -0.67 -0.598906 L -0.66 -0.59168 L -0.65 -0.584414 L -0.64 -0.57707 L -0.63 -0.569648 L -0.62 -0.562187 L -0.61 -0.554648 L -0.6 -0.547031 L -0.59 -0.539375 L -0.58 -0.53168 L -0.56 -0.516055 L -0.55 -0.508125 L -0.54 -0.500156 L -0.53 -0.492148 L -0.52 -0.484062 L -0.51 -0.475938 L -0.5 -0.467734 L -0.49 -0.459453 L -0.48 -0.451133 L -0.47 -0.442773 L -0.46 -0.434336 L -0.45 -0.425859 L -0.44 -0.417305 L -0.43 -0.408711 L -0.41 -0.391367 L -0.39 -0.373789 L -0.38 -0.364922 L -0.37 -0.356016 L -0.35 -0.338047 L -0.34 -0.328984 L -0.33 -0.319883 L -0.31 -0.301523 L -0.3 -0.292266 L -0.29 -0.282969 L -0.28 -0.273633 L -0.26 -0.254883 L -0.25 -0.24543 L -0.24 -0.235937 L -0.23 -0.226406 L -0.22 -0.216836 L -0.21 -0.207227 L -0.19 -0.18793 L -0.18 -0.178242 L -0.17 -0.168516 L -0.16 -0.15875 L -0.14 -0.139141 L -0.12 -0.119453 L -0.1 -0.0996875 L -0.08 -0.0798438 L -0.05 -0.0499609 L -0.04 -0.0399609 L -0.03 -0.03 L 0.03 0.03 L 0.04 0.0399609 L 0.05 0.0499609 L 0.08 0.0798437 L 0.1 0.0996875 L 0.12 0.119453 L 0.14 0.139141 L 0.16 0.15875 L 0.17 0.168516 L 0.18 0.178242 L 0.19 0.18793 L 0.21 0.207227 L 0.22 0.216836 L 0.23 0.226406 L 0.24 0.235937 L 0.25 0.24543 L 0.26 0.254883 L 0.28 0.273633 L 0.29 0.282969 L 0.3 0.292266 L 0.31 0.301523 L 0.33 0.319883 L 0.34 0.328984 L 0.35 0.338047 L 0.37 0.356016 L 0.38 0.364922 L 0.39 0.373789 L 0.41 0.391367 L 0.43 0.408711 L 0.44 0.417305 L 0.45 0.425859 L 0.46 0.434336 L 0.47 0.442773 L 0.48 0.451133 L 0.49 0.459453 L 0.5 0.467734 L 0.51 0.475937 L 0.52 0.484063 L 0.53 0.492148 L 0.54 0.500156 L 0.55 0.508125 L 0.56 0.516055 L 0.58 0.53168 L 0.59 0.539375 L 0.6 0.547031 L 0.61 0.554648 L 0.62 0.562188 L 0.63 0.569648 L 0.64 0.57707 L 0.65 0.584414 L 0.66 0.59168 L 0.67 0.598906 L 0.68 0.606055 L 0.69 0.613164 L 0.7 0.620195 L 0.71 0.627148 L 0.72 0.634062 L 0.73 0.640898 L 0.74 0.647656 L 0.75 0.654375 L 0.76 0.661016 L 0.77 0.667617 L 0.78 0.674102 L 0.79 0.680547 L 0.8 0.686953 L 0.81 0.693281 L 0.82 0.699531 L 0.83 0.705703 L 0.84 0.711836 L 0.85 0.71793 L 0.86 0.723906 L 0.87 0.729844 L 0.88 0.735703 L 0.89 0.741523 L 0.9 0.747266 L 0.91 0.752969 L 0.93 0.764141 L 0.94 0.769609 L 0.95 0.775039 L 0.96 0.780391 L 0.97 0.785703 L 0.98 0.790938 L 0.99 0.796133 L 1 0.80125 L 1.01 0.806289 L 1.02 0.811289 L 1.03 0.816211 L 1.05 0.825898 L 1.06 0.830625 L 1.07 0.835312 L 1.08 0.839922 L 1.09 0.844492 L 1.1 0.849023 L 1.11 0.853477 L 1.12 0.857852 L 1.13 0.862187 L 1.14 0.866445 L 1.15 0.870664 L 1.16 0.874805 L 1.17 0.878906 L 1.18 0.882969 L 1.2 0.890859 L 1.21 0.894727 L 1.22 0.898555 L 1.23 0.902305 L 1.24 0.906016 L 1.25 0.909648 L 1.26 0.913242 L 1.27 0.916797 L 1.28 0.920273 L 1.29 0.923711 L 1.3 0.927109 L 1.31 0.93043 L 1.32 0.933711 L 1.34 0.940117 L 1.35 0.943242 L 1.37 0.949336 L 1.38 0.952305 L 1.4 0.958086 L 1.41 0.960898 L 1.42 0.963672 L 1.43 0.966406 L 1.44 0.969102 L 1.46 0.974336 L 1.47 0.976875 L 1.48 0.979375 L 1.5 0.984219 L 1.52 0.988906 L 1.53 0.991172 L 1.54 0.993398 L 1.55 0.995586 L 1.56 0.997734 L 1.57 0.999844 L 1.58 1.001914 L 1.6 1.005898 L 1.61 1.007852 L 1.63 1.011602 L 1.65 1.015195 L 1.66 1.016953 L 1.68 1.020312 L 1.69 1.021953 L 1.7 1.023555 L 1.72 1.026602 L 1.74 1.02957 L 1.75 1.030977 L 1.77 1.033711 L 1.78 1.035039 L 1.81 1.038789 L 1.83 1.041133 L 1.86 1.044414 L 1.88 1.046445 L 1.89 1.047422 L 1.9 1.048359 L 1.92 1.050156 L 1.94 1.051875 L 1.97 1.054219 L 2 1.056328 L 2.01 1.056992 L 2.02 1.057617 L 2.05 1.059375 L 2.08 1.060898 L 2.1 1.061836 L 2.11 1.062266 L 2.13 1.063047 L 2.16 1.064102 L 2.17 1.064375 L 2.18 1.064688 L 2.19 1.064961 L 2.22 1.065664 L 2.24 1.066055 L 2.26 1.066367 L 2.29 1.066719 L 2.31 1.066875 L 2.32 1.066914 L 2.33 1.066992 L 2.34 1.066992 L 2.35 1.067031 L 2.36 1.067031 L 2.37 1.066992 L 2.38 1.066992 L 2.4 1.066914 L 2.43 1.06668 L 2.44 1.066562 L 2.45 1.066484 L 2.46 1.066328 L 2.48 1.066094 L 2.5 1.065781 L 2.52 1.065391 L 2.53 1.065234 L 2.54 1.065039 L 2.55 1.064805 L 2.56 1.064609 L 2.59 1.063906 L 2.6 1.063633 L 2.61 1.063398 L 2.64 1.062578 L 2.65 1.062266 L 2.66 1.061992 L 2.67 1.06168 L 2.68 1.061406 L 2.69 1.061094 L 2.7 1.060742 L 2.72 1.060117 L 2.74 1.059414 L 2.75 1.059102 L 2.77 1.058398 L 2.78 1.058008 L 2.8 1.057305 L 2.81 1.056914 L 2.82 1.056563 L 2.9 1.053438 L 2.91 1.053008 L 2.92 1.052617 L 2.93 1.052188 L 2.94 1.051797 L 2.95 1.051367 L 2.96 1.050977 L 2.98 1.050117 L 2.99 1.049727 L 3.3 1.036406 L 3.31 1.036016 L 3.34 1.034727 L 3.35 1.034336 L 3.36 1.033906 L 3.37 1.033516 L 3.39 1.032656 L 3.41 1.031875 L 3.42 1.031445 L 3.44 1.030664 L 3.45 1.030234 L 3.53 1.027109 L 3.54 1.026758 L 3.56 1.025977 L 3.57 1.025625 L 3.58 1.025234 L 3.59 1.024883 L 3.6 1.024492 L 3.62 1.023789 L 3.63 1.023398 L 3.68 1.021641 L 3.69 1.021328 L 3.72 1.020273 L 3.73 1.019961 L 3.74 1.019609 L 3.76 1.018984 L 3.77 1.018633 L 3.84 1.016445 L 3.85 1.016172 L 3.87 1.015547 L 3.89 1.015 L 3.9 1.014687 L 3.93 1.013867 L 3.94 1.013555 L 3.95 1.013281 L 3.96 1.013047 L 4 1.011953 L 4.01 1.011719 L 4.02 1.011445 L 4.04 1.010977 L 4.05 1.010703 L 4.13 1.008828 L 4.14 1.008633 L 4.15 1.008398 L 4.16 1.008203 L 4.17 1.007969 L 4.18 1.007773 L 4.19 1.007539 L 4.28 1.005781 L 4.29 1.005625 L 4.3 1.00543 L 4.31 1.005273 L 4.32 1.005078 L 4.33 1.004922 L 4.34 1.004727 L 4.44 1.003164 L 4.45 1.003047 L 4.47 1.002734 L 4.48 1.002617 L 4.49 1.002461 L 4.51 1.002227 L 4.52 1.00207 L 4.62 1.000898 L 4.63 1.00082 L 4.65 1.000586 L 4.66 1.000508 L 4.67 1.000391 L 4.68 1.000312 L 4.69 1.000195 L 4.71 1.000039 L 4.72 0.999922 L 4.76 0.999609 L 4.77 0.999492 L 4.78 0.999414 L 4.79 0.999375 L 4.84 0.998984 L 4.85 0.998945 L 4.87 0.998789 L 4.88 0.99875 L 4.9 0.998594 L 4.91 0.998555 L 4.92 0.998477 L 4.94 0.998398 L 4.95 0.99832 L 4.97 0.998242 L 4.98 0.998164 L 5 0.998086 " transform="matrix(100,0,0,-100,500,200)"/>
<path style="fill:none;stroke-width:0.03;stroke-linecap:butt;stroke-linejoin:miter;stroke:rgb(87.058824%,29.803922%,71.764706%);stroke-opacity:0.75;stroke-miterlimit:10;" d="M -5 -0.5 L -4.99 -0.500039 L -4.46 -0.500039 L -4.45 -0.500078 L -4.21 -0.500078 L -4.2 -0.500039 L -3.99 -0.500039 L -3.98 -0.5 L -3.89 -0.5 L -3.88 -0.499961 L -3.81 -0.499961 L -3.8 -0.499922 L -3.75 -0.499922 L -3.74 -0.499883 L -3.7 -0.499883 L -3.69 -0.499844 L -3.66 -0.499844 L -3.65 -0.499805 L -3.62 -0.499805 L -3.61 -0.499766 L -3.58 -0.499766 L -3.57 -0.499727 L -3.55 -0.499727 L -3.54 -0.499687 L -3.51 -0.499687 L -3.5 -0.499648 L -3.48 -0.499648 L -3.47 -0.499609 L -3.46 -0.499609 L -3.45 -0.49957 L -3.43 -0.49957 L -3.42 -0.499531 L -3.4 -0.499531 L -3.39 -0.499492 L -3.38 -0.499492 L -3.37 -0.499453 L -3.35 -0.499453 L -3.34 -0.499414 L -3.33 -0.499414 L -3.32 -0.499375 L -3.31 -0.499375 L -3.3 -0.499336 L -3.28 -0.499336 L -3.27 -0.499297 L -3.26 -0.499297 L -3.25 -0.499258 L -3.24 -0.499258 L -3.23 -0.499219 L -3.22 -0.499219 L -3.21 -0.49918 L -3.2 -0.49918 L -3.19 -0.499141 L -3.18 -0.499141 L -3.17 -0.499102 L -3.16 -0.499102 L -3.15 -0.499062 L -3.13 -0.499062 L -3.12 -0.499023 L -3.11 -0.499023 L -3.1 -0.498984 L -3.09 -0.498984 L -3.08 -0.498945 L -3.07 -0.498945 L -3.06 -0.498906 L -3.05 -0.498906 L -3.04 -0.498867 L -3.03 -0.498867 L -3.02 -0.498828 L -3 -0.498828 L -2.99 -0.498789 L -2.98 -0.498789 L -2.97 -0.49875 L -2.96 -0.49875 L -2.95 -0.498711 L -2.93 -0.498711 L -2.92 -0.498672 L -2.9 -0.498672 L -2.89 -0.498633 L -2.86 -0.498633 L -2.85 -0.498594 L -2.82 -0.498594 L -2.81 -0.498555 L -2.69 -0.498555 L -2.68 -0.498594 L -2.66 -0.498594 L -2.65 -0.498633 L -2.63 -0.498633 L -2.62 -0.498672 L -2.61 -0.498672 L -2.59 -0.49875 L -2.58 -0.49875 L -2.55 -0.498867 L -2.54 -0.498867 L -2.51 -0.498984 L -2.5 -0.499062 L -2.47 -0.49918 L -2.46 -0.499258 L -2.45 -0.499297 L -2.44 -0.499375 L -2.43 -0.499414 L -2.35 -0.500039 L -2.34 -0.500156 L -2.33 -0.500234 L -2.31 -0.500469 L -2.3 -0.500547 L -2.27 -0.500898 L -2.26 -0.501055 L -2.24 -0.501289 L -2.22 -0.501602 L -2.21 -0.501719 L -2.18 -0.502188 L -2.17 -0.502383 L -2.16 -0.502539 L -2.15 -0.502734 L -2.14 -0.502891 L -2.09 -0.503867 L -2.08 -0.504102 L -2.07 -0.504297 L -2.02 -0.505469 L -2.01 -0.505742 L -2 -0.505977 L -1.94 -0.507617 L -1.91 -0.508555 L -1.9 -0.508828 L -1.89 -0.50918 L -1.87 -0.509805 L -1.86 -0.510156 L -1.85 -0.510469 L -1.81 -0.511875 L -1.8 -0.512266 L -1.79 -0.512617 L -1.78 -0.513008 L -1.77 -0.513359 L -1.72 -0.515312 L -1.71 -0.515742 L -1.69 -0.516523 L -1.67 -0.517383 L -1.66 -0.517773 L -1.49 -0.525078 L -1.48 -0.525469 L -1.47 -0.525898 L -1.46 -0.526289 L -1.45 -0.526719 L -1.41 -0.528281 L -1.4 -0.528633 L -1.39 -0.529023 L -1.37 -0.529727 L -1.36 -0.530039 L -1.35 -0.530391 L -1.33 -0.531016 L -1.3 -0.531836 L -1.28 -0.532305 L -1.25 -0.532891 L -1.24 -0.533047 L -1.21 -0.533398 L -1.18 -0.533516 L -1.17 -0.533516 L -1.16 -0.533477 L -1.14 -0.53332 L -1.12 -0.533008 L -1.1 -0.532617 L -1.09 -0.532344 L -1.07 -0.531719 L -1.06 -0.531328 L -1.04 -0.530469 L -1.03 -0.529961 L -1.02 -0.529414 L -1 -0.528164 L -0.99 -0.527461 L -0.98 -0.526719 L -0.97 -0.525937 L -0.96 -0.525078 L -0.95 -0.52418 L -0.94 -0.523203 L -0.93 -0.522188 L -0.92 -0.521133 L -0.9 -0.518789 L -0.89 -0.5175 L -0.88 -0.516172 L -0.87 -0.514766 L -0.86 -0.51332 L -0.85 -0.511758 L -0.84 -0.510156 L -0.83 -0.508477 L -0.82 -0.506719 L -0.81 -0.504883 L -0.8 -0.50293 L -0.79 -0.500938 L -0.78 -0.498867 L -0.77 -0.496719 L -0.76 -0.494453 L -0.75 -0.492109 L -0.74 -0.489688 L -0.73 -0.487148 L -0.72 -0.484531 L -0.71 -0.481836 L -0.7 -0.479062 L -0.69 -0.476133 L -0.68 -0.473164 L -0.67 -0.470039 L -0.66 -0.466836 L -0.65 -0.463555 L -0.64 -0.460156 L -0.63 -0.456641 L -0.62 -0.453008 L -0.61 -0.449258 L -0.6 -0.44543 L -0.59 -0.441484 L -0.58 -0.437422 L -0.57 -0.433242 L -0.56 -0.428906 L -0.55 -0.424492 L -0.54 -0.419961 L -0.53 -0.415313 L -0.52 -0.410547 L -0.51 -0.405625 L -0.5 -0.400625 L -0.49 -0.395469 L -0.48 -0.390195 L -0.47 -0.384805 L -0.46 -0.379297 L -0.45 -0.373633 L -0.44 -0.367852 L -0.43 -0.361953 L -0.42 -0.355938 L -0.41 -0.349766 L -0.4 -0.343477 L -0.39 -0.33707 L -0.38 -0.330508 L -0.37 -0.323828 L -0.36 -0.317031 L -0.35 -0.310078 L -0.34 -0.303047 L -0.33 -0.295859 L -0.32 -0.288516 L -0.31 -0.281094 L -0.3 -0.273516 L -0.29 -0.26582 L -0.28 -0.258008 L -0.27 -0.250078 L -0.26 -0.242031 L -0.25 -0.233867 L -0.24 -0.225586 L -0.23 -0.217188 L -0.22 -0.208672 L -0.21 -0.200039 L -0.2 -0.191289 L -0.19 -0.182461 L -0.18 -0.173516 L -0.17 -0.164492 L -0.16 -0.155352 L -0.15 -0.146133 L -0.14 -0.136836 L -0.13 -0.127422 L -0.12 -0.117969 L -0.11 -0.108398 L -0.1 -0.0987891 L -0.09 -0.0891016 L -0.08 -0.079375 L -0.07 -0.0695703 L -0.06 -0.0597266 L -0.05 -0.0498437 L -0.04 -0.0399219 L -0.02 -0.02 L 0.03 0.03 L 0.04 0.0399609 L 0.05 0.0499609 L 0.08 0.0798437 L 0.1 0.0996875 L 0.12 0.119453 L 0.14 0.139141 L 0.16 0.15875 L 0.17 0.168516 L 0.18 0.178242 L 0.19 0.18793 L 0.21 0.207227 L 0.22 0.216836 L 0.23 0.226406 L 0.24 0.235937 L 0.25 0.24543 L 0.26 0.254883 L 0.28 0.273633 L 0.29 0.282969 L 0.3 0.292266 L 0.31 0.301523 L 0.33 0.319883 L 0.34 0.328984 L 0.35 0.338047 L 0.37 0.356016 L 0.38 0.364922 L 0.39 0.373789 L 0.41 0.391367 L 0.43 0.408711 L 0.44 0.417305 L 0.45 0.425859 L 0.46 0.434336 L 0.47 0.442773 L 0.48 0.451133 L 0.49 0.459453 L 0.5 0.467734 L 0.51 0.475937 L 0.52 0.484063 L 0.53 0.492148 L 0.54 0.500156 L 0.55 0.508125 L 0.56 0.516055 L 0.58 0.53168 L 0.59 0.539375 L 0.6 0.547031 L 0.61 0.554648 L 0.62 0.562188 L 0.63 0.569648 L 0.64 0.57707 L 0.65 0.584414 L 0.66 0.59168 L 0.67 0.598906 L 0.68 0.606055 L 0.69 0.613164 L 0.7 0.620195 L 0.71 0.627148 L 0.72 0.634062 L 0.73 0.640898 L 0.74 0.647656 L 0.75 0.654375 L 0.76 0.661016 L 0.77 0.667617 L 0.78 0.674102 L 0.79 0.680547 L 0.8 0.686953 L 0.81 0.693281 L 0.82 0.699531 L 0.83 0.705703 L 0.84 0.711836 L 0.85 0.71793 L 0.86 0.723906 L 0.87 0.729844 L 0.88 0.735703 L 0.89 0.741523 L 0.9 0.747266 L 0.91 0.752969 L 0.93 0.764141 L 0.94 0.769609 L 0.95 0.775039 L 0.96 0.780391 L 0.97 0.785703 L 0.98 0.790938 L 0.99 0.796133 L 1 0.80125 L 1.01 0.806289 L 1.02 0.811289 L 1.03 0.816211 L 1.05 0.825898 L 1.06 0.830625 L 1.07 0.835312 L 1.08 0.839922 L 1.09 0.844492 L 1.1 0.849023 L 1.11 0.853477 L 1.12 0.857852 L 1.13 0.862187 L 1.14 0.866445 L 1.15 0.870664 L 1.16 0.874805 L 1.17 0.878906 L 1.18 0.882969 L 1.2 0.890859 L 1.21 0.894727 L 1.22 0.898555 L 1.23 0.902305 L 1.24 0.906016 L 1.25 0.909648 L 1.26 0.913242 L 1.27 0.916797 L 1.28 0.920273 L 1.29 0.923711 L 1.3 0.927109 L 1.31 0.93043 L 1.32 0.933711 L 1.34 0.940117 L 1.35 0.943242 L 1.37 0.949336 L 1.38 0.952305 L 1.4 0.958086 L 1.41 0.960898 L 1.42 0.963672 L 1.43 0.966406 L 1.44 0.969102 L 1.46 0.974336 L 1.47 0.976875 L 1.48 0.979375 L 1.5 0.984219 L 1.52 0.988906 L 1.53 0.991172 L 1.54 0.993398 L 1.55 0.995586 L 1.56 0.997734 L 1.57 0.999844 L 1.58 1.001914 L 1.6 1.005898 L 1.61 1.007852 L 1.63 1.011602 L 1.65 1.015195 L 1.66 1.016953 L 1.68 1.020312 L 1.69 1.021953 L 1.7 1.023555 L 1.72 1.026602 L 1.74 1.02957 L 1.75 1.030977 L 1.77 1.033711 L 1.78 1.035039 L 1.81 1.038789 L 1.83 1.041133 L 1.86 1.044414 L 1.88 1.046445 L 1.89 1.047422 L 1.9 1.048359 L 1.92 1.050156 L 1.94 1.051875 L 1.97 1.054219 L 2 1.056328 L 2.01 1.056992 L 2.02 1.057617 L 2.05 1.059375 L 2.08 1.060898 L 2.1 1.061836 L 2.11 1.062266 L 2.13 1.063047 L 2.16 1.064102 L 2.17 1.064375 L 2.18 1.064688 L 2.19 1.064961 L 2.22 1.065664 L 2.24 1.066055 L 2.26 1.066367 L 2.29 1.066719 L 2.31 1.066875 L 2.32 1.066914 L 2.33 1.066992 L 2.34 1.066992 L 2.35 1.067031 L 2.36 1.067031 L 2.37 1.066992 L 2.38 1.066992 L 2.4 1.066914 L 2.43 1.06668 L 2.44 1.066562 L 2.45 1.066484 L 2.46 1.066328 L 2.48 1.066094 L 2.5 1.065781 L 2.52 1.065391 L 2.53 1.065234 L 2.54 1.065039 L 2.55 1.064805 L 2.56 1.064609 L 2.59 1.063906 L 2.6 1.063633 L 2.61 1.063398 L 2.64 1.062578 L 2.65 1.062266 L 2.66 1.061992 L 2.67 1.06168 L 2.68 1.061406 L 2.69 1.061094 L 2.7 1.060742 L 2.72 1.060117 L 2.74 1.059414 L 2.75 1.059102 L 2.77 1.058398 L 2.78 1.058008 L 2.8 1.057305 L 2.81 1.056914 L 2.82 1.056563 L 2.9 1.053438 L 2.91 1.053008 L 2.92 1.052617 L 2.93 1.052188 L 2.94 1.051797 L 2.95 1.051367 L 2.96 1.050977 L 2.98 1.050117 L 2.99 1.049727 L 3.3 1.036406 L 3.31 1.036016 L 3.34 1.034727 L 3.35 1.034336 L 3.36 1.033906 L 3.37 1.033516 L 3.39 1.032656 L 3.41 1.031875 L 3.42 1.031445 L 3.44 1.030664 L 3.45 1.030234 L 3.53 1.027109 L 3.54 1.026758 L 3.56 1.025977 L 3.57 1.025625 L 3.58 1.025234 L 3.59 1.024883 L 3.6 1.024492 L 3.62 1.023789 L 3.63 1.023398 L 3.68 1.021641 L 3.69 1.021328 L 3.72 1.020273 L 3.73 1.019961 L 3.74 1.019609 L 3.76 1.018984 L 3.77 1.018633 L 3.84 1.016445 L 3.85 1.016172 L 3.87 1.015547 L 3.89 1.015 L 3.9 1.014687 L 3.93 1.013867 L 3.94 1.013555 L 3.95 1.013281 L 3.96 1.013047 L 4 1.011953 L 4.01 1.011719 L 4.02 1.011445 L 4.04 1.010977 L 4.05 1.010703 L 4.13 1.008828 L 4.14 1.008633 L 4.15 1.008398 L 4.16 1.008203 L 4.17 1.007969 L 4.18 1.007773 L 4.19 1.007539 L 4.28 1.005781 L 4.29 1.005625 L 4.3 1.00543 L 4.31 1.005273 L 4.32 1.005078 L 4.33 1.004922 L 4.34 1.004727 L 4.44 1.003164 L 4.45 1.003047 L 4.47 1.002734 L 4.48 1.002617 L 4.49 1.002461 L 4.51 1.002227 L 4.52 1.00207 L 4.62 1.000898 L 4.63 1.00082 L 4.65 1.000586 L 4.66 1.000508 L 4.67 1.000391 L 4.68 1.000312 L 4.69 1.000195 L 4.71 1.000039 L 4.72 0.999922 L 4.76 0.999609 L 4.77 0.999492 L 4.78 0.999414 L 4.79 0.999375 L 4.84 0.998984 L 4.85 0.998945 L 4.87 0.998789 L 4.88 0.99875 L 4.9 0.998594 L 4.91 0.998555 L 4.92 0.998477 L 4.94 0.998398 L 4.95 0.99832 L 4.97 0.998242 L 4.98 0.998164 L 5 0.998086 " transform="matrix(100,0,0,-100,500,200)"/>
<path style="fill:none;stroke-width:0.03;stroke-linecap:butt;stroke-linejoin:miter;stroke:rgb(87.058824%,29.803922%,71.764706%);stroke-opacity:0.5;stroke-miterlimit:10;" d="M -5 -0.25 L -2.37 -0.25 L -2.36 -0.250039 L -2.03 -0.250039 L -2.02 -0.25 L -1.93 -0.25 L -1.92 -0.249961 L -1.87 -0.249961 L -1.86 -0.249922 L -1.82 -0.249922 L -1.81 -0.249883 L -1.78 -0.249883 L -1.77 -0.249844 L -1.75 -0.249844 L -1.74 -0.249805 L -1.72 -0.249805 L -1.71 -0.249766 L -1.7 -0.249766 L -1.69 -0.249727 L -1.67 -0.249727 L -1.66 -0.249687 L -1.65 -0.249687 L -1.64 -0.249648 L -1.63 -0.249648 L -1.62 -0.249609 L -1.61 -0.249609 L -1.6 -0.24957 L -1.59 -0.24957 L -1.58 -0.249531 L -1.56 -0.249531 L -1.55 -0.249492 L -1.54 -0.249492 L -1.53 -0.249453 L -1.52 -0.249453 L -1.51 -0.249414 L -1.5 -0.249414 L -1.49 -0.249375 L -1.47 -0.249375 L -1.46 -0.249336 L -1.44 -0.249336 L -1.43 -0.249297 L -1.39 -0.249297 L -1.38 -0.249258 L -1.37 -0.249258 L -1.36 -0.249297 L -1.32 -0.249297 L -1.31 -0.249336 L -1.3 -0.249336 L -1.23 -0.249609 L -1.21 -0.249766 L -1.2 -0.249805 L -1.19 -0.249883 L -1.18 -0.25 L -1.16 -0.250156 L -1.13 -0.250508 L -1.12 -0.250664 L -1.11 -0.250781 L -1.09 -0.251094 L -1.08 -0.251289 L -1.07 -0.251445 L -1.04 -0.252031 L -1.01 -0.252734 L -1 -0.253008 L -0.99 -0.253242 L -0.98 -0.253516 L -0.97 -0.253828 L -0.96 -0.254102 L -0.94 -0.254727 L -0.89 -0.256484 L -0.85 -0.258047 L -0.82 -0.259336 L -0.81 -0.259727 L -0.79 -0.260586 L -0.78 -0.261055 L -0.76 -0.261914 L -0.75 -0.262305 L -0.73 -0.263164 L -0.7 -0.264336 L -0.68 -0.265039 L -0.67 -0.265352 L -0.65 -0.265898 L -0.63 -0.266367 L -0.62 -0.266523 L -0.61 -0.266641 L -0.6 -0.266719 L -0.59 -0.266758 L -0.58 -0.266719 L -0.57 -0.266641 L -0.56 -0.266523 L -0.55 -0.266289 L -0.54 -0.266016 L -0.53 -0.265664 L -0.52 -0.265234 L -0.51 -0.264687 L -0.5 -0.264063 L -0.49 -0.263359 L -0.48 -0.262539 L -0.47 -0.261602 L -0.46 -0.260547 L -0.45 -0.259375 L -0.44 -0.258086 L -0.43 -0.256641 L -0.42 -0.255078 L -0.41 -0.253359 L -0.4 -0.251484 L -0.39 -0.249414 L -0.38 -0.247227 L -0.37 -0.244844 L -0.36 -0.242266 L -0.35 -0.239531 L -0.34 -0.236563 L -0.33 -0.233437 L -0.32 -0.230078 L -0.31 -0.226484 L -0.3 -0.222734 L -0.29 -0.218711 L -0.28 -0.214453 L -0.27 -0.21 L -0.26 -0.205273 L -0.25 -0.200312 L -0.24 -0.195117 L -0.23 -0.189648 L -0.22 -0.183945 L -0.21 -0.177969 L -0.2 -0.171719 L -0.19 -0.165273 L -0.18 -0.158516 L -0.17 -0.151523 L -0.16 -0.144258 L -0.15 -0.136758 L -0.14 -0.129023 L -0.13 -0.121016 L -0.12 -0.112773 L -0.11 -0.104336 L -0.1 -0.0956641 L -0.09 -0.0867578 L -0.08 -0.0776953 L -0.07 -0.0683984 L -0.06 -0.0589844 L -0.05 -0.0494141 L -0.04 -0.0396875 L -0.03 -0.0298828 L -0.02 -0.0199609 L -0.01 -0.01 L 0.03 0.03 L 0.04 0.0399609 L 0.05 0.0499609 L 0.08 0.0798437 L 0.1 0.0996875 L 0.12 0.119453 L 0.14 0.139141 L 0.16 0.15875 L 0.17 0.168516 L 0.18 0.178242 L 0.19 0.18793 L 0.21 0.207227 L 0.22 0.216836 L 0.23 0.226406 L 0.24 0.235937 L 0.25 0.24543 L 0.26 0.254883 L 0.28 0.273633 L 0.29 0.282969 L 0.3 0.292266 L 0.31 0.301523 L 0.33 0.319883 L 0.34 0.328984 L 0.35 0.338047 L 0.37 0.356016 L 0.38 0.364922 L 0.39 0.373789 L 0.41 0.391367 L 0.43 0.408711 L 0.44 0.417305 L 0.45 0.425859 L 0.46 0.434336 L 0.47 0.442773 L 0.48 0.451133 L 0.49 0.459453 L 0.5 0.467734 L 0.51 0.475937 L 0.52 0.484063 L 0.53 0.492148 L 0.54 0.500156 L 0.55 0.508125 L 0.56 0.516055 L 0.58 0.53168 L 0.59 0.539375 L 0.6 0.547031 L 0.61 0.554648 L 0.62 0.562188 L 0.63 0.569648 L 0.64 0.57707 L 0.65 0.584414 L 0.66 0.59168 L 0.67 0.598906 L 0.68 0.606055 L 0.69 0.613164 L 0.7 0.620195 L 0.71 0.627148 L 0.72 0.634062 L 0.73 0.640898 L 0.74 0.647656 L 0.75 0.654375 L 0.76 0.661016 L 0.77 0.667617 L 0.78 0.674102 L 0.79 0.680547 L 0.8 0.686953 L 0.81 0.693281 L 0.82 0.699531 L 0.83 0.705703 L 0.84 0.711836 L 0.85 0.71793 L 0.86 0.723906 L 0.87 0.729844 L 0.88 0.735703 L 0.89 0.741523 L 0.9 0.747266 L 0.91 0.752969 L 0.93 0.764141 L 0.94 0.769609 L 0.95 0.775039 L 0.96 0.780391 L 0.97 0.785703 L 0.98 0.790938 L 0.99 0.796133 L 1 0.80125 L 1.01 0.806289 L 1.02 0.811289 L 1.03 0.816211 L 1.05 0.825898 L 1.06 0.830625 L 1.07 0.835312 L 1.08 0.839922 L 1.09 0.844492 L 1.1 0.849023 L 1.11 0.853477 L 1.12 0.857852 L 1.13 0.862187 L 1.14 0.866445 L 1.15 0.870664 L 1.16 0.874805 L 1.17 0.878906 L 1.18 0.882969 L 1.2 0.890859 L 1.21 0.894727 L 1.22 0.898555 L 1.23 0.902305 L 1.24 0.906016 L 1.25 0.909648 L 1.26 0.913242 L 1.27 0.916797 L 1.28 0.920273 L 1.29 0.923711 L 1.3 0.927109 L 1.31 0.93043 L 1.32 0.933711 L 1.34 0.940117 L 1.35 0.943242 L 1.37 0.949336 L 1.38 0.952305 L 1.4 0.958086 L 1.41 0.960898 L 1.42 0.963672 L 1.43 0.966406 L 1.44 0.969102 L 1.46 0.974336 L 1.47 0.976875 L 1.48 0.979375 L 1.5 0.984219 L 1.52 0.988906 L 1.53 0.991172 L 1.54 0.993398 L 1.55 0.995586 L 1.56 0.997734 L 1.57 0.999844 L 1.58 1.001914 L 1.6 1.005898 L 1.61 1.007852 L 1.63 1.011602 L 1.65 1.015195 L 1.66 1.016953 L 1.68 1.020312 L 1.69 1.021953 L 1.7 1.023555 L 1.72 1.026602 L 1.74 1.02957 L 1.75 1.030977 L 1.77 1.033711 L 1.78 1.035039 L 1.81 1.038789 L 1.83 1.041133 L 1.86 1.044414 L 1.88 1.046445 L 1.89 1.047422 L 1.9 1.048359 L 1.92 1.050156 L 1.94 1.051875 L 1.97 1.054219 L 2 1.056328 L 2.01 1.056992 L 2.02 1.057617 L 2.05 1.059375 L 2.08 1.060898 L 2.1 1.061836 L 2.11 1.062266 L 2.13 1.063047 L 2.16 1.064102 L 2.17 1.064375 L 2.18 1.064688 L 2.19 1.064961 L 2.22 1.065664 L 2.24 1.066055 L 2.26 1.066367 L 2.29 1.066719 L 2.31 1.066875 L 2.32 1.066914 L 2.33 1.066992 L 2.34 1.066992 L 2.35 1.067031 L 2.36 1.067031 L 2.37 1.066992 L 2.38 1.066992 L 2.4 1.066914 L 2.43 1.06668 L 2.44 1.066562 L 2.45 1.066484 L 2.46 1.066328 L 2.48 1.066094 L 2.5 1.065781 L 2.52 1.065391 L 2.53 1.065234 L 2.54 1.065039 L 2.55 1.064805 L 2.56 1.064609 L 2.59 1.063906 L 2.6 1.063633 L 2.61 1.063398 L 2.64 1.062578 L 2.65 1.062266 L 2.66 1.061992 L 2.67 1.06168 L 2.68 1.061406 L 2.69 1.061094 L 2.7 1.060742 L 2.72 1.060117 L 2.74 1.059414 L 2.75 1.059102 L 2.77 1.058398 L 2.78 1.058008 L 2.8 1.057305 L 2.81 1.056914 L 2.82 1.056563 L 2.9 1.053438 L 2.91 1.053008 L 2.92 1.052617 L 2.93 1.052188 L 2.94 1.051797 L 2.95 1.051367 L 2.96 1.050977 L 2.98 1.050117 L 2.99 1.049727 L 3.3 1.036406 L 3.31 1.036016 L 3.34 1.034727 L 3.35 1.034336 L 3.36 1.033906 L 3.37 1.033516 L 3.39 1.032656 L 3.41 1.031875 L 3.42 1.031445 L 3.44 1.030664 L 3.45 1.030234 L 3.53 1.027109 L 3.54 1.026758 L 3.56 1.025977 L 3.57 1.025625 L 3.58 1.025234 L 3.59 1.024883 L 3.6 1.024492 L 3.62 1.023789 L 3.63 1.023398 L 3.68 1.021641 L 3.69 1.021328 L 3.72 1.020273 L 3.73 1.019961 L 3.74 1.019609 L 3.76 1.018984 L 3.77 1.018633 L 3.84 1.016445 L 3.85 1.016172 L 3.87 1.015547 L 3.89 1.015 L 3.9 1.014687 L 3.93 1.013867 L 3.94 1.013555 L 3.95 1.013281 L 3.96 1.013047 L 4 1.011953 L 4.01 1.011719 L 4.02 1.011445 L 4.04 1.010977 L 4.05 1.010703 L 4.13 1.008828 L 4.14 1.008633 L 4.15 1.008398 L 4.16 1.008203 L 4.17 1.007969 L 4.18 1.007773 L 4.19 1.007539 L 4.28 1.005781 L 4.29 1.005625 L 4.3 1.00543 L 4.31 1.005273 L 4.32 1.005078 L 4.33 1.004922 L 4.34 1.004727 L 4.44 1.003164 L 4.45 1.003047 L 4.47 1.002734 L 4.48 1.002617 L 4.49 1.002461 L 4.51 1.002227 L 4.52 1.00207 L 4.62 1.000898 L 4.63 1.00082 L 4.65 1.000586 L 4.66 1.000508 L 4.67 1.000391 L 4.68 1.000312 L 4.69 1.000195 L 4.71 1.000039 L 4.72 0.999922 L 4.76 0.999609 L 4.77 0.999492 L 4.78 0.999414 L 4.79 0.999375 L 4.84 0.998984 L 4.85 0.998945 L 4.87 0.998789 L 4.88 0.99875 L 4.9 0.998594 L 4.91 0.998555 L 4.92 0.998477 L 4.94 0.998398 L 4.95 0.99832 L 4.97 0.998242 L 4.98 0.998164 L 5 0.998086 " transform="matrix(100,0,0,-100,500,200)"/>
<path style="fill:none;stroke-width:0.03;stroke-linecap:butt;stroke-linejoin:miter;stroke:rgb(87.058824%,29.803922%,71.764706%);stroke-opacity:0.25;stroke-miterlimit:10;" d="M -5 -0.125 L -0.95 -0.125 L -0.94 -0.124961 L -0.9 -0.124961 L -0.89 -0.124922 L -0.87 -0.124922 L -0.86 -0.124883 L -0.84 -0.124883 L -0.83 -0.124844 L -0.82 -0.124844 L -0.81 -0.124805 L -0.8 -0.124805 L -0.79 -0.124766 L -0.78 -0.124766 L -0.77 -0.124727 L -0.76 -0.124727 L -0.75 -0.124687 L -0.73 -0.124687 L -0.72 -0.124648 L -0.66 -0.124648 L -0.65 -0.124687 L -0.64 -0.124687 L -0.62 -0.124766 L -0.58 -0.125078 L -0.56 -0.125313 L -0.54 -0.125625 L -0.52 -0.126016 L -0.5 -0.126484 L -0.49 -0.126758 L -0.46 -0.127695 L -0.45 -0.128047 L -0.43 -0.128828 L -0.42 -0.129258 L -0.41 -0.129648 L -0.36 -0.131797 L -0.34 -0.1325 L -0.33 -0.132812 L -0.32 -0.133086 L -0.31 -0.133242 L -0.3 -0.133359 L -0.29 -0.133359 L -0.28 -0.133242 L -0.27 -0.133008 L -0.26 -0.132617 L -0.25 -0.132031 L -0.24 -0.131289 L -0.23 -0.130273 L -0.22 -0.129062 L -0.21 -0.127539 L -0.2 -0.125742 L -0.19 -0.123594 L -0.18 -0.121133 L -0.17 -0.118281 L -0.16 -0.115039 L -0.15 -0.111367 L -0.14 -0.107227 L -0.13 -0.102617 L -0.12 -0.0975391 L -0.11 -0.0919531 L -0.1 -0.0858594 L -0.09 -0.0792578 L -0.08 -0.0721484 L -0.07 -0.0644922 L -0.06 -0.0564063 L -0.05 -0.0478125 L -0.04 -0.0388281 L -0.03 -0.0294922 L -0.02 -0.0198438 L -0.01 -0.00996094 L 0 0 L 0.03 0.03 L 0.04 0.0399609 L 0.05 0.0499609 L 0.08 0.0798437 L 0.1 0.0996875 L 0.12 0.119453 L 0.14 0.139141 L 0.16 0.15875 L 0.17 0.168516 L 0.18 0.178242 L 0.19 0.18793 L 0.21 0.207227 L 0.22 0.216836 L 0.23 0.226406 L 0.24 0.235937 L 0.25 0.24543 L 0.26 0.254883 L 0.28 0.273633 L 0.29 0.282969 L 0.3 0.292266 L 0.31 0.301523 L 0.33 0.319883 L 0.34 0.328984 L 0.35 0.338047 L 0.37 0.356016 L 0.38 0.364922 L 0.39 0.373789 L 0.41 0.391367 L 0.43 0.408711 L 0.44 0.417305 L 0.45 0.425859 L 0.46 0.434336 L 0.47 0.442773 L 0.48 0.451133 L 0.49 0.459453 L 0.5 0.467734 L 0.51 0.475937 L 0.52 0.484063 L 0.53 0.492148 L 0.54 0.500156 L 0.55 0.508125 L 0.56 0.516055 L 0.58 0.53168 L 0.59 0.539375 L 0.6 0.547031 L 0.61 0.554648 L 0.62 0.562188 L 0.63 0.569648 L 0.64 0.57707 L 0.65 0.584414 L 0.66 0.59168 L 0.67 0.598906 L 0.68 0.606055 L 0.69 0.613164 L 0.7 0.620195 L 0.71 0.627148 L 0.72 0.634062 L 0.73 0.640898 L 0.74 0.647656 L 0.75 0.654375 L 0.76 0.661016 L 0.77 0.667617 L 0.78 0.674102 L 0.79 0.680547 L 0.8 0.686953 L 0.81 0.693281 L 0.82 0.699531 L 0.83 0.705703 L 0.84 0.711836 L 0.85 0.71793 L 0.86 0.723906 L 0.87 0.729844 L 0.88 0.735703 L 0.89 0.741523 L 0.9 0.747266 L 0.91 0.752969 L 0.93 0.764141 L 0.94 0.769609 L 0.95 0.775039 L 0.96 0.780391 L 0.97 0.785703 L 0.98 0.790938 L 0.99 0.796133 L 1 0.80125 L 1.01 0.806289 L 1.02 0.811289 L 1.03 0.816211 L 1.05 0.825898 L 1.06 0.830625 L 1.07 0.835312 L 1.08 0.839922 L 1.09 0.844492 L 1.1 0.849023 L 1.11 0.853477 L 1.12 0.857852 L 1.13 0.862187 L 1.14 0.866445 L 1.15 0.870664 L 1.16 0.874805 L 1.17 0.878906 L 1.18 0.882969 L 1.2 0.890859 L 1.21 0.894727 L 1.22 0.898555 L 1.23 0.902305 L 1.24 0.906016 L 1.25 0.909648 L 1.26 0.913242 L 1.27 0.916797 L 1.28 0.920273 L 1.29 0.923711 L 1.3 0.927109 L 1.31 0.93043 L 1.32 0.933711 L 1.34 0.940117 L 1.35 0.943242 L 1.37 0.949336 L 1.38 0.952305 L 1.4 0.958086 L 1.41 0.960898 L 1.42 0.963672 L 1.43 0.966406 L 1.44 0.969102 L 1.46 0.974336 L 1.47 0.976875 L 1.48 0.979375 L 1.5 0.984219 L 1.52 0.988906 L 1.53 0.991172 L 1.54 0.993398 L 1.55 0.995586 L 1.56 0.997734 L 1.57 0.999844 L 1.58 1.001914 L 1.6 1.005898 L 1.61 1.007852 L 1.63 1.011602 L 1.65 1.015195 L 1.66 1.016953 L 1.68 1.020312 L 1.69 1.021953 L 1.7 1.023555 L 1.72 1.026602 L 1.74 1.02957 L 1.75 1.030977 L 1.77 1.033711 L 1.78 1.035039 L 1.81 1.038789 L 1.83 1.041133 L 1.86 1.044414 L 1.88 1.046445 L 1.89 1.047422 L 1.9 1.048359 L 1.92 1.050156 L 1.94 1.051875 L 1.97 1.054219 L 2 1.056328 L 2.01 1.056992 L 2.02 1.057617 L 2.05 1.059375 L 2.08 1.060898 L 2.1 1.061836 L 2.11 1.062266 L 2.13 1.063047 L 2.16 1.064102 L 2.17 1.064375 L 2.18 1.064688 L 2.19 1.064961 L 2.22 1.065664 L 2.24 1.066055 L 2.26 1.066367 L 2.29 1.066719 L 2.31 1.066875 L 2.32 1.066914 L 2.33 1.066992 L 2.34 1.066992 L 2.35 1.067031 L 2.36 1.067031 L 2.37 1.066992 L 2.38 1.066992 L 2.4 1.066914 L 2.43 1.06668 L 2.44 1.066562 L 2.45 1.066484 L 2.46 1.066328 L 2.48 1.066094 L 2.5 1.065781 L 2.52 1.065391 L 2.53 1.065234 L 2.54 1.065039 L 2.55 1.064805 L 2.56 1.064609 L 2.59 1.063906 L 2.6 1.063633 L 2.61 1.063398 L 2.64 1.062578 L 2.65 1.062266 L 2.66 1.061992 L 2.67 1.06168 L 2.68 1.061406 L 2.69 1.061094 L 2.7 1.060742 L 2.72 1.060117 L 2.74 1.059414 L 2.75 1.059102 L 2.77 1.058398 L 2.78 1.058008 L 2.8 1.057305 L 2.81 1.056914 L 2.82 1.056563 L 2.9 1.053438 L 2.91 1.053008 L 2.92 1.052617 L 2.93 1.052188 L 2.94 1.051797 L 2.95 1.051367 L 2.96 1.050977 L 2.98 1.050117 L 2.99 1.049727 L 3.3 1.036406 L 3.31 1.036016 L 3.34 1.034727 L 3.35 1.034336 L 3.36 1.033906 L 3.37 1.033516 L 3.39 1.032656 L 3.41 1.031875 L 3.42 1.031445 L 3.44 1.030664 L 3.45 1.030234 L 3.53 1.027109 L 3.54 1.026758 L 3.56 1.025977 L 3.57 1.025625 L 3.58 1.025234 L 3.59 1.024883 L 3.6 1.024492 L 3.62 1.023789 L 3.63 1.023398 L 3.68 1.021641 L 3.69 1.021328 L 3.72 1.020273 L 3.73 1.019961 L 3.74 1.019609 L 3.76 1.018984 L 3.77 1.018633 L 3.84 1.016445 L 3.85 1.016172 L 3.87 1.015547 L 3.89 1.015 L 3.9 1.014687 L 3.93 1.013867 L 3.94 1.013555 L 3.95 1.013281 L 3.96 1.013047 L 4 1.011953 L 4.01 1.011719 L 4.02 1.011445 L 4.04 1.010977 L 4.05 1.010703 L 4.13 1.008828 L 4.14 1.008633 L 4.15 1.008398 L 4.16 1.008203 L 4.17 1.007969 L 4.18 1.007773 L 4.19 1.007539 L 4.28 1.005781 L 4.29 1.005625 L 4.3 1.00543 L 4.31 1.005273 L 4.32 1.005078 L 4.33 1.004922 L 4.34 1.004727 L 4.44 1.003164 L 4.45 1.003047 L 4.47 1.002734 L 4.48 1.002617 L 4.49 1.002461 L 4.51 1.002227 L 4.52 1.00207 L 4.62 1.000898 L 4.63 1.00082 L 4.65 1.000586 L 4.66 1.000508 L 4.67 1.000391 L 4.68 1.000312 L 4.69 1.000195 L 4.71 1.000039 L 4.72 0.999922 L 4.76 0.999609 L 4.77 0.999492 L 4.78 0.999414 L 4.79 0.999375 L 4.84 0.998984 L 4.85 0.998945 L 4.87 0.998789 L 4.88 0.99875 L 4.9 0.998594 L 4.91 0.998555 L 4.92 0.998477 L 4.94 0.998398 L 4.95 0.99832 L 4.97 0.998242 L 4.98 0.998164 L 5 0.998086 " transform="matrix(100,0,0,-100,500,200)"/>
</g>
</svg>
