<?xml version="1.0" encoding="UTF-8"?>
<svg xmlns="http://www.w3.org/2000/svg" xmlns:xlink="http://www.w3.org/1999/xlink" width="1000pt" height="400pt" viewBox="0 0 1000 400" version="1.1">
<g id="surface61">
<rect x="0" y="0" width="1000" height="400" style="fill:rgb(0%,0%,0%);fill-opacity:1;stroke:none;"/>
<path style="fill:none;stroke-width:0.01;stroke-linecap:butt;stroke-linejoin:miter;stroke:rgb(100%,100%,100%);stroke-opacity:0.5;stroke-miterlimit:10;" d="M -5 -2 L -5 2 " transform="matrix(100,0,0,-100,500,200)"/>
<path style="fill:none;stroke-width:0.01;stroke-linecap:butt;stroke-linejoin:miter;stroke:rgb(100%,100%,100%);stroke-opacity:0.5;stroke-miterlimit:10;" d="M -4 -2 L -4 2 " transform="matrix(100,0,0,-100,500,200)"/>
<path style="fill:none;stroke-width:0.01;stroke-linecap:butt;stroke-linejoin:miter;stroke:rgb(100%,100%,100%);stroke-opacity:0.5;stroke-miterlimit:10;" d="M -3 -2 L -3 2 " transform="matrix(100,0,0,-100,500,200)"/>
<path style="fill:none;stroke-width:0.01;stroke-linecap:butt;stroke-linejoin:miter;stroke:rgb(100%,100%,100%);stroke-opacity:0.5;stroke-miterlimit:10;" d="M -2 -2 L -2 2 " transform="matrix(100,0,0,-100,500,200)"/>
<path style="fill:none;stroke-width:0.01;stroke-linecap:butt;stroke-linejoin:miter;stroke:rgb(100%,100%,100%);stroke-opacity:0.5;stroke-miterlimit:10;" d="M -1 -2 L -1 2 " transform="matrix(100,0,0,-100,500,200)"/>
<path style="fill:none;stroke-width:0.01;stroke-linecap:butt;stroke-linejoin:miter;stroke:rgb(100%,100%,100%);stroke-opacity:1;stroke-miterlimit:10;" d="M 0 -2 L 0 2 " transform="matrix(100,0,0,-100,500,200)"/>
<path style="fill:none;stroke-width:0.01;stroke-linecap:butt;stroke-linejoin:miter;stroke:rgb(100%,100%,100%);stroke-opacity:0.5;stroke-miterlimit:10;" d="M 1 -2 L 1 2 " transform="matrix(100,0,0,-100,500,200)"/>
<path style="fill:none;stroke-width:0.01;stroke-linecap:butt;stroke-linejoin:miter;stroke:rgb(100%,100%,100%);stroke-opacity:0.5;stroke-miterlimit:10;" d="M 2 -2 L 2 2 " transform="matrix(100,0,0,-100,500,200)"/>
<path style="fill:none;stroke-width:0.01;stroke-linecap:butt;stroke-linejoin:miter;stroke:rgb(100%,100%,100%);stroke-opacity:0.5;stroke-miterlimit:10;" d="M 3 -2 L 3 2 " transform="matrix(100,0,0,-100,500,200)"/>
<path style="fill:none;stroke-width:0.01;stroke-linecap:butt;stroke-linejoin:miter;stroke:rgb(100%,100%,100%);stroke-opacity:0.5;stroke-miterlimit:10;" d="M 4 -2 L 4 2 " transform="matrix(100,0,0,-100,500,200)"/>
<path style="fill:none;stroke-width:0.01;stroke-linecap:butt;stroke-linejoin:miter;stroke:rgb(100%,100%,100%);stroke-opacity:0.5;stroke-miterlimit:10;" d="M 5 -2 L 5 2 " transform="matrix(100,0,0,-100,500,200)"/>
<path style="fill:none;stroke-width:0.005;stroke-linecap:butt;stroke-linejoin:miter;stroke:rgb(100%,100%,100%);stroke-opacity:0.25;stroke-miterlimit:10;" d="M -4.75 -2 L -4.75 2 " transform="matrix(100,0,0,-100,500,200)"/>
<path style="fill:none;stroke-width:0.005;stroke-linecap:butt;stroke-linejoin:miter;stroke:rgb(100%,100%,100%);stroke-opacity:0.25;stroke-miterlimit:10;" d="M -4.5 -2 L -4.5 2 " transform="matrix(100,0,0,-100,500,200)"/>
<path style="fill:none;stroke-width:0.005;stroke-linecap:butt;stroke-linejoin:miter;stroke:rgb(100%,100%,100%);stroke-opacity:0.25;stroke-miterlimit:10;" d="M -4.25 -2 L -4.25 2 " transform="matrix(100,0,0,-100,500,200)"/>
<path style="fill:none;stroke-width:0.005;stroke-linecap:butt;stroke-linejoin:miter;stroke:rgb(100%,100%,100%);stroke-opacity:0.25;stroke-miterlimit:10;" d="M -3.75 -2 L -3.75 2 " transform="matrix(100,0,0,-100,500,200)"/>
<path style="fill:none;stroke-width:0.005;stroke-linecap:butt;stroke-linejoin:miter;stroke:rgb(100%,100%,100%);stroke-opacity:0.25;stroke-miterlimit:10;" d="M -3.5 -2 L -3.5 2 " transform="matrix(100,0,0,-100,500,200)"/>
<path style="fill:none;stroke-width:0.005;stroke-linecap:butt;stroke-linejoin:miter;stroke:rgb(100%,100%,100%);stroke-opacity:0.25;stroke-miterlimit:10;" d="M -3.25 -2 L -3.25 2 " transform="matrix(100,0,0,-100,500,200)"/>
<path style="fill:none;stroke-width:0.005;stroke-linecap:butt;stroke-linejoin:miter;stroke:rgb(100%,100%,100%);stroke-opacity:0.25;stroke-miterlimit:10;" d="M -2.75 -2 L -2.75 2 " transform="matrix(100,0,0,-100,500,200)"/>
<path style="fill:none;stroke-width:0.005;stroke-linecap:butt;stroke-linejoin:miter;stroke:rgb(100%,100%,100%);stroke-opacity:0.25;stroke-miterlimit:10;" d="M -2.5 -2 L -2.5 2 " transform="matrix(100,0,0,-100,500,200)"/>
<path style="fill:none;stroke-width:0.005;stroke-linecap:butt;stroke-linejoin:miter;stroke:rgb(100%,100%,100%);stroke-opacity:0.25;stroke-miterlimit:10;" d="M -2.25 -2 L -2.25 2 " transform="matrix(100,0,0,-100,500,200)"/>
<path style="fill:none;stroke-width:0.005;stroke-linecap:butt;stroke-linejoin:miter;stroke:rgb(100%,100%,100%);stroke-opacity:0.25;stroke-miterlimit:10;" d="M -1.75 -2 L -1.75 2 " transform="matrix(100,0,0,-100,500,200)"/>
<path style="fill:none;stroke-width:0.005;stroke-linecap:butt;stroke-linejoin:miter;stroke:rgb(100%,100%,100%);stroke-opacity:0.25;stroke-miterlimit:10;" d="M -1.5 -2 L -1.5 2 " transform="matrix(100,0,0,-100,500,200)"/>
<path style="fill:none;stroke-width:0.005;stroke-linecap:butt;stroke-linejoin:miter;stroke:rgb(100%,100%,100%);stroke-opacity:0.25;stroke-miterlimit:10;" d="M -1.25 -2 L -1.25 2 " transform="matrix(100,0,0,-100,500,200)"/>
<path style="fill:none;stroke-width:0.005;stroke-linecap:butt;stroke-linejoin:miter;stroke:rgb(100%,100%,100%);stroke-opacity:0.25;stroke-miterlimit:10;" d="M -0.75 -2 L -0.75 2 " transform="matrix(100,0,0,-100,500,200)"/>
<path style="fill:none;stroke-width:0.005;stroke-linecap:butt;stroke-linejoin:miter;stroke:rgb(100%,100%,100%);stroke-opacity:0.25;stroke-miterlimit:10;" d="M -0.5 -2 L -0.5 2 " transform="matrix(100,0,0,-100,500,200)"/>
<path style="fill:none;stroke-width:0.005;stroke-linecap:butt;stroke-linejoin:miter;stroke:rgb(100%,100%,100%);stroke-opacity:0.25;stroke-miterlimit:10;" d="M -0.25 -2 L -0.25 2 " transform="matrix(100,0,0,-100,500,200)"/>
<path style="fill:none;stroke-width:0.005;stroke-linecap:butt;stroke-linejoin:miter;stroke:rgb(100%,100%,100%);stroke-opacity:0.25;stroke-miterlimit:10;" d="M 0.25 -2 L 0.25 2 " transform="matrix(100,0,0,-100,500,200)"/>
<path style="fill:none;stroke-width:0.005;stroke-linecap:butt;stroke-linejoin:miter;stroke:rgb(100%,100%,100%);stroke-opacity:0.25;stroke-miterlimit:10;" d="M 0.5 -2 L 0.5 2 " transform="matrix(100,0,0,-100,500,200)"/>
<path style="fill:none;stroke-width:0.005;stroke-linecap:butt;stroke-linejoin:miter;stroke:rgb(100%,100%,100%);stroke-opacity:0.25;stroke-miterlimit:10;" d="M 0.75 -2 L 0.75 2 " transform="matrix(100,0,0,-100,500,200)"/>
<path style="fill:none;stroke-width:0.005;stroke-linecap:butt;stroke-linejoin:miter;stroke:rgb(100%,100%,100%);stroke-opacity:0.25;stroke-miterlimit:10;" d="M 1.25 -2 L 1.25 2 " transform="matrix(100,0,0,-100,500,200)"/>
<path style="fill:none;stroke-width:0.005;stroke-linecap:butt;stroke-linejoin:miter;stroke:rgb(100%,100%,100%);stroke-opacity:0.25;stroke-miterlimit:10;" d="M 1.5 -2 L 1.5 2 " transform="matrix(100,0,0,-100,500,200)"/>
<path style="fill:none;stroke-width:0.005;stroke-linecap:butt;stroke-linejoin:miter;stroke:rgb(100%,100%,100%);stroke-opacity:0.25;stroke-miterlimit:10;" d="M 1.75 -2 L 1.75 2 " transform="matrix(100,0,0,-100,500,200)"/>
<path style="fill:none;stroke-width:0.005;stroke-linecap:butt;stroke-linejoin:miter;stroke:rgb(100%,100%,100%);stroke-opacity:0.25;stroke-miterlimit:10;" d="M 2.25 -2 L 2.25 2 " transform="matrix(100,0,0,-100,500,200)"/>
<path style="fill:none;stroke-width:0.005;stroke-linecap:butt;stroke-linejoin:miter;stroke:rgb(100%,100%,100%);stroke-opacity:0.25;stroke-miterlimit:10;" d="M 2.5 -2 L 2.5 2 " transform="matrix(100,0,0,-100,500,200)"/>
<path style="fill:none;stroke-width:0.005;stroke-linecap:butt;stroke-linejoin:miter;stroke:rgb(100%,100%,100%);stroke-opacity:0.25;stroke-miterlimit:10;" d="M 2.75 -2 L 2.75 2 " transform="matrix(100,0,0,-100,500,200)"/>
<path style="fill:none;stroke-width:0.005;stroke-linecap:butt;stroke-linejoin:miter;stroke:rgb(100%,100%,100%);stroke-opacity:0.25;stroke-miterlimit:10;" d="M 3.25 -2 L 3.25 2 " transform="matrix(100,0,0,-100,500,200)"/>
<path style="fill:none;stroke-width:0.005;stroke-linecap:butt;stroke-linejoin:miter;stroke:rgb(100%,100%,100%);stroke-opacity:0.25;stroke-miterlimit:10;" d="M 3.5 -2 L 3.5 2 " transform="matrix(100,0,0,-100,500,200)"/>
<path style="fill:none;stroke-width:0.005;stroke-linecap:butt;stroke-linejoin:miter;stroke:rgb(100%,100%,100%);stroke-opacity:0.25;stroke-miterlimit:10;" d="M 3.75 -2 L 3.75 2 " transform="matrix(100,0,0,-100,500,200)"/>
<path style="fill:none;stroke-width:0.005;stroke-linecap:butt;stroke-linejoin:miter;stroke:rgb(100%,100%,100%);stroke-opacity:0.25;stroke-miterlimit:10;" d="M 4.25 -2 L 4.25 2 " transform="matrix(100,0,0,-100,500,200)"/>
<path style="fill:none;stroke-width:0.005;stroke-linecap:butt;stroke-linejoin:miter;stroke:rgb(100%,100%,100%);stroke-opacity:0.25;stroke-miterlimit:10;" d="M 4.5 -2 L 4.5 2 " transform="matrix(100,0,0,-100,500,200)"/>
<path style="fill:none;stroke-width:0.005;stroke-linecap:butt;stroke-linejoin:miter;stroke:rgb(100%,100%,100%);stroke-opacity:0.25;stroke-miterlimit:10;" d="M 4.75 -2 L 4.75 2 " transform="matrix(100,0,0,-100,500,200)"/>
<path style="fill:none;stroke-width:0.01;stroke-linecap:butt;stroke-linejoin:miter;stroke:rgb(100%,100%,100%);stroke-opacity:0.5;stroke-miterlimit:10;" d="M -5 -2 L 5 -2 " transform="matrix(100,0,0,-100,500,200)"/>
<path style="fill:none;stroke-width:0.01;stroke-linecap:butt;stroke-linejoin:miter;stroke:rgb(100%,100%,100%);stroke-opacity:0.5;stroke-miterlimit:10;" d="M -5 -1 L 5 -1 " transform="matrix(100,0,0,-100,500,200)"/>
<path style="fill:none;stroke-width:0.01;stroke-linecap:butt;stroke-linejoin:miter;stroke:rgb(100%,100%,100%);stroke-opacity:1;stroke-miterlimit:10;" d="M -5 0 L 5 0 " transform="matrix(100,0,0,-100,500,200)"/>
<path style="fill:none;stroke-width:0.01;stroke-linecap:butt;stroke-linejoin:miter;stroke:rgb(100%,100%,100%);stroke-opacity:0.5;stroke-miterlimit:10;" d="M -5 1 L 5 1 " transform="matrix(100,0,0,-100,500,200)"/>
<path style="fill:none;stroke-width:0.01;stroke-linecap:butt;stroke-linejoin:miter;stroke:rgb(100%,100%,100%);stroke-opacity:0.5;stroke-miterlimit:10;" d="M -5 2 L 5 2 " transform="matrix(100,0,0,-100,500,200)"/>
<path style="fill:none;stroke-width:0.005;stroke-linecap:butt;stroke-linejoin:miter;stroke:rgb(100%,100%,100%);stroke-opacity:0.25;stroke-miterlimit:10;" d="M -5 -1.75 L 5 -1.75 " transform="matrix(100,0,0,-100,500,200)"/>
<path style="fill:none;stroke-width:0.005;stroke-linecap:butt;stroke-linejoin:miter;stroke:rgb(100%,100%,100%);stroke-opacity:0.25;stroke-miterlimit:10;" d="M -5 -1.5 L 5 -1.5 " transform="matrix(100,0,0,-100,500,200)"/>
<path style="fill:none;stroke-width:0.005;stroke-linecap:butt;stroke-linejoin:miter;stroke:rgb(100%,100%,100%);stroke-opacity:0.25;stroke-miterlimit:10;" d="M -5 -1.25 L 5 -1.25 " transform="matrix(100,0,0,-100,500,200)"/>
<path style="fill:none;stroke-width:0.005;stroke-linecap:butt;stroke-linejoin:miter;stroke:rgb(100%,100%,100%);stroke-opacity:0.25;stroke-miterlimit:10;" d="M -5 -0.75 L 5 -0.75 " transform="matrix(100,0,0,-100,500,200)"/>
<path style="fill:none;stroke-width:0.005;stroke-linecap:butt;stroke-linejoin:miter;stroke:rgb(100%,100%,100%);stroke-opacity:0.25;stroke-miterlimit:10;" d="M -5 -0.5 L 5 -0.5 " transform="matrix(100,0,0,-100,500,200)"/>
<path style="fill:none;stroke-width:0.005;stroke-linecap:butt;stroke-linejoin:miter;stroke:rgb(100%,100%,100%);stroke-opacity:0.25;stroke-miterlimit:10;" d="M -5 -0.25 L 5 -0.25 " transform="matrix(100,0,0,-100,500,200)"/>
<path style="fill:none;stroke-width:0.005;stroke-linecap:butt;stroke-linejoin:miter;stroke:rgb(100%,100%,100%);stroke-opacity:0.25;stroke-miterlimit:10;" d="M -5 0.25 L 5 0.25 " transform="matrix(100,0,0,-100,500,200)"/>
<path style="fill:none;stroke-width:0.005;stroke-linecap:butt;stroke-linejoin:miter;stroke:rgb(100%,100%,100%);stroke-opacity:0.25;stroke-miterlimit:10;" d="M -5 0.5 L 5 0.5 " transform="matrix(100,0,0,-100,500,200)"/>
<path style="fill:none;stroke-width:0.005;stroke-linecap:butt;stroke-linejoin:miter;stroke:rgb(100%,100%,100%);stroke-opacity:0.25;stroke-miterlimit:10;" d="M -5 0.75 L 5 0.75 " transform="matrix(100,0,0,-100,500,200)"/>
<path style="fill:none;stroke-width:0.005;stroke-linecap:butt;stroke-linejoin:miter;stroke:rgb(100%,100%,100%);stroke-opacity:0.25;stroke-miterlimit:10;" d="M -5 1.25 L 5 1.25 " transform="matrix(100,0,0,-100,500,200)"/>
<path style="fill:none;stroke-width:0.005;stroke-linecap:butt;stroke-linejoin:miter;stroke:rgb(100%,100%,100%);stroke-opacity:0.25;stroke-miterlimit:10;" d="M -5 1.5 L 5 1.5 " transform="matrix(100,0,0,-100,500,200)"/>
<path style="fill:none;stroke-width:0.005;stroke-linecap:butt;stroke-linejoin:miter;stroke:rgb(100%,100%,100%);stroke-opacity:0.25;stroke-miterlimit:10;" d="M -5 1.75 L 5 1.75 " transform="matrix(100,0,0,-100,500,200)"/>
<path style="fill:none;stroke-width:0.03;stroke-linecap:butt;stroke-linejoin:miter;stroke:rgb(87.058824%,29.803922%,71.764706%);stroke-opacity:1;stroke-miterlimit:10;" d="M -5 -0.997773 L -4.98 -0.997695 L -4.97 -0.997695 L -4.94 -0.997578 L -4.93 -0.997578 L -4.9 -0.997461 L -4.89 -0.997461 L -4.86 -0.997344 L -4.85 -0.997344 L -4.8 -0.997148 L -4.79 -0.997148 L -4.68 -0.996719 L -4.67 -0.996719 L -4.66 -0.99668 L -4.65 -0.996602 L -4.54 -0.996172 L -4.53 -0.996094 L -4.49 -0.995938 L -4.48 -0.995859 L -4.45 -0.995742 L -4.44 -0.995664 L -4.42 -0.995586 L -4.41 -0.995508 L -4.4 -0.995469 L -4.39 -0.995391 L -4.37 -0.995313 L -4.36 -0.995234 L -4.35 -0.995195 L -4.34 -0.995117 L -4.33 -0.995078 L -4.32 -0.995 L -4.31 -0.994961 L -4.3 -0.994883 L -4.29 -0.994844 L -4.28 -0.994766 L -4.27 -0.994727 L -4.25 -0.99457 L -4.24 -0.994531 L -4.22 -0.994375 L -4.21 -0.994336 L -4.17 -0.994023 L -4.16 -0.993984 L -4.02 -0.992891 L -4.01 -0.992773 L -3.98 -0.992539 L -3.97 -0.992422 L -3.95 -0.992266 L -3.94 -0.992148 L -3.93 -0.99207 L -3.92 -0.991953 L -3.91 -0.991875 L -3.9 -0.991758 L -3.89 -0.99168 L -3.88 -0.991563 L -3.87 -0.991484 L -3.85 -0.99125 L -3.84 -0.991172 L -3.8 -0.990703 L -3.79 -0.990625 L -3.73 -0.989922 L -3.72 -0.989766 L -3.68 -0.989297 L -3.67 -0.989141 L -3.66 -0.989023 L -3.65 -0.988867 L -3.64 -0.98875 L -3.63 -0.988594 L -3.62 -0.988477 L -3.61 -0.98832 L -3.6 -0.988203 L -3.57 -0.987734 L -3.56 -0.987617 L -3.49 -0.986523 L -3.48 -0.986328 L -3.46 -0.986016 L -3.45 -0.98582 L -3.44 -0.985664 L -3.43 -0.985469 L -3.42 -0.985313 L -3.41 -0.985117 L -3.4 -0.984961 L -3.3 -0.983008 L -3.29 -0.982773 L -3.28 -0.982578 L -3.27 -0.982344 L -3.26 -0.982148 L -3.24 -0.98168 L -3.23 -0.981484 L -3.18 -0.980313 L -3.17 -0.980039 L -3.15 -0.97957 L -3.14 -0.979297 L -3.13 -0.979062 L -3.11 -0.978516 L -3.1 -0.978281 L -3.07 -0.977461 L -3.06 -0.977148 L -3.04 -0.976602 L -3.03 -0.976289 L -3.02 -0.976016 L -3.01 -0.975703 L -3 -0.97543 L -2.96 -0.97418 L -2.95 -0.973828 L -2.93 -0.973203 L -2.91 -0.9725 L -2.9 -0.972187 L -2.87 -0.971133 L -2.86 -0.970742 L -2.84 -0.970039 L -2.82 -0.969258 L -2.81 -0.968906 L -2.8 -0.968516 L -2.79 -0.968086 L -2.77 -0.967305 L -2.76 -0.966875 L -2.75 -0.966484 L -2.7 -0.964336 L -2.69 -0.963867 L -2.68 -0.963437 L -2.64 -0.961562 L -2.63 -0.961055 L -2.62 -0.960586 L -2.58 -0.958555 L -2.57 -0.958008 L -2.56 -0.9575 L -2.52 -0.955313 L -2.51 -0.954727 L -2.5 -0.95418 L -2.47 -0.952422 L -2.46 -0.951797 L -2.45 -0.951211 L -2.42 -0.949336 L -2.4 -0.948008 L -2.39 -0.947383 L -2.38 -0.94668 L -2.36 -0.945352 L -2.33 -0.943242 L -2.28 -0.939531 L -2.25 -0.937187 L -2.21 -0.933906 L -2.2 -0.933047 L -2.19 -0.932227 L -2.18 -0.931328 L -2.17 -0.930469 L -2.14 -0.927773 L -2.11 -0.924961 L -2.07 -0.921055 L -2.06 -0.920039 L -2.05 -0.918984 L -2.04 -0.917969 L -2.02 -0.915859 L -1.99 -0.912578 L -1.97 -0.910312 L -1.94 -0.906797 L -1.91 -0.903164 L -1.89 -0.900664 L -1.87 -0.898086 L -1.85 -0.89543 L -1.82 -0.891328 L -1.8 -0.888516 L -1.78 -0.885625 L -1.76 -0.882656 L -1.74 -0.879609 L -1.72 -0.876484 L -1.71 -0.874883 L -1.68 -0.869961 L -1.67 -0.868281 L -1.65 -0.864844 L -1.63 -0.861328 L -1.61 -0.857734 L -1.6 -0.855898 L -1.58 -0.852148 L -1.57 -0.850234 L -1.55 -0.846328 L -1.54 -0.844336 L -1.52 -0.840273 L -1.5 -0.836133 L -1.47 -0.829687 L -1.45 -0.825234 L -1.43 -0.820703 L -1.41 -0.816016 L -1.39 -0.81125 L -1.37 -0.806328 L -1.36 -0.803828 L -1.35 -0.801289 L -1.33 -0.796133 L -1.31 -0.79082 L -1.3 -0.788125 L -1.29 -0.785391 L -1.28 -0.782617 L -1.27 -0.779805 L -1.25 -0.774102 L -1.23 -0.768242 L -1.21 -0.762227 L -1.19 -0.756055 L -1.18 -0.75293 L -1.16 -0.746523 L -1.15 -0.743281 L -1.13 -0.736641 L -1.12 -0.733242 L -1.1 -0.726367 L -1.09 -0.722852 L -1.08 -0.719297 L -1.07 -0.715703 L -1.06 -0.71207 L -1.04 -0.704648 L -1.02 -0.69707 L -1.01 -0.693203 L -0.99 -0.685313 L -0.97 -0.677266 L -0.96 -0.673164 L -0.94 -0.664805 L -0.93 -0.660547 L -0.91 -0.651875 L -0.9 -0.647461 L -0.89 -0.643008 L -0.88 -0.638516 L -0.87 -0.633945 L -0.86 -0.629336 L -0.85 -0.624648 L -0.84 -0.619922 L -0.83 -0.615156 L -0.82 -0.610313 L -0.81 -0.60543 L -0.8 -0.600469 L -0.79 -0.595469 L -0.78 -0.59043 L -0.77 -0.585313 L -0.76 -0.580117 L -0.75 -0.574883 L -0.74 -0.569609 L -0.73 -0.564258 L -0.72 -0.558867 L -0.71 -0.553398 L -0.7 -0.547852 L -0.69 -0.542266 L -0.68 -0.536602 L -0.67 -0.530898 L -0.66 -0.525156 L -0.65 -0.519297 L -0.64 -0.513398 L -0.63 -0.507461 L -0.62 -0.501445 L -0.61 -0.495352 L -0.6 -0.48918 L -0.59 -0.482969 L -0.58 -0.476719 L -0.57 -0.470352 L -0.56 -0.463945 L -0.55 -0.4575 L -0.54 -0.450938 L -0.53 -0.444336 L -0.52 -0.437695 L -0.51 -0.430938 L -0.5 -0.424141 L -0.49 -0.417266 L -0.48 -0.410352 L -0.46 -0.396289 L -0.45 -0.389141 L -0.44 -0.381953 L -0.42 -0.367344 L -0.41 -0.359922 L -0.4 -0.352461 L -0.39 -0.344922 L -0.38 -0.337305 L -0.37 -0.329609 L -0.36 -0.321875 L -0.35 -0.314062 L -0.34 -0.306172 L -0.33 -0.298242 L -0.32 -0.290234 L -0.31 -0.282148 L -0.3 -0.273984 L -0.29 -0.265781 L -0.28 -0.2575 L -0.27 -0.249141 L -0.26 -0.240742 L -0.25 -0.232266 L -0.24 -0.223711 L -0.23 -0.215078 L -0.22 -0.206406 L -0.21 -0.197656 L -0.2 -0.188867 L -0.19 -0.18 L -0.18 -0.171055 L -0.17 -0.16207 L -0.16 -0.153008 L -0.15 -0.143867 L -0.14 -0.134688 L -0.13 -0.12543 L -0.12 -0.116133 L -0.11 -0.106758 L -0.1 -0.0973437 L -0.09 -0.0878516 L -0.08 -0.0783203 L -0.07 -0.0687109 L -0.06 -0.0590625 L -0.05 -0.0493359 L -0.04 -0.0395703 L -0.03 -0.0297656 L -0.02 -0.0198828 L -0.01 -0.00996094 L 0 0 L 0.01 0.0100391 L 0.02 0.0201172 L 0.03 0.0302344 L 0.04 0.0403906 L 0.05 0.0505859 L 0.06 0.0608594 L 0.07 0.0711719 L 0.08 0.0815234 L 0.1 0.102305 L 0.11 0.112773 L 0.12 0.123281 L 0.13 0.133828 L 0.15 0.155 L 0.16 0.165625 L 0.17 0.176289 L 0.18 0.186992 L 0.2 0.208477 L 0.22 0.230039 L 0.24 0.25168 L 0.26 0.273398 L 0.29 0.306094 L 0.31 0.327969 L 0.32 0.338867 L 0.39 0.41543 L 0.43 0.459023 L 0.44 0.469883 L 0.45 0.480703 L 0.46 0.491562 L 0.48 0.513125 L 0.5 0.534609 L 0.51 0.545312 L 0.52 0.555977 L 0.54 0.577227 L 0.55 0.587773 L 0.57 0.608789 L 0.58 0.619219 L 0.6 0.64 L 0.62 0.660547 L 0.64 0.680937 L 0.65 0.691016 L 0.66 0.701055 L 0.67 0.711055 L 0.68 0.721016 L 0.69 0.730859 L 0.7 0.740664 L 0.71 0.75043 L 0.72 0.760117 L 0.73 0.769727 L 0.74 0.779297 L 0.75 0.78875 L 0.76 0.798164 L 0.77 0.8075 L 0.78 0.816797 L 0.79 0.825977 L 0.8 0.835078 L 0.81 0.844141 L 0.82 0.853086 L 0.83 0.861992 L 0.84 0.870781 L 0.85 0.879492 L 0.86 0.888125 L 0.87 0.89668 L 0.88 0.905156 L 0.89 0.913555 L 0.9 0.921875 L 0.91 0.930078 L 0.92 0.938203 L 0.93 0.94625 L 0.94 0.95418 L 0.95 0.96207 L 0.96 0.969844 L 0.97 0.9775 L 0.98 0.985117 L 0.99 0.992578 L 1 1 L 1.01 1.007305 L 1.02 1.014531 L 1.03 1.021641 L 1.04 1.028672 L 1.05 1.035625 L 1.06 1.042461 L 1.07 1.049219 L 1.08 1.055859 L 1.09 1.062422 L 1.1 1.068867 L 1.11 1.075234 L 1.12 1.081484 L 1.13 1.087656 L 1.14 1.09375 L 1.15 1.099727 L 1.16 1.105625 L 1.17 1.111406 L 1.18 1.117109 L 1.19 1.122695 L 1.2 1.128203 L 1.21 1.133594 L 1.22 1.138906 L 1.23 1.144141 L 1.24 1.149258 L 1.25 1.154297 L 1.26 1.159258 L 1.27 1.164102 L 1.28 1.168828 L 1.29 1.173516 L 1.3 1.178086 L 1.31 1.182539 L 1.32 1.186953 L 1.33 1.19125 L 1.34 1.195469 L 1.35 1.19957 L 1.36 1.203594 L 1.37 1.207539 L 1.38 1.211406 L 1.39 1.215195 L 1.4 1.218867 L 1.41 1.222461 L 1.42 1.225977 L 1.43 1.229414 L 1.44 1.232773 L 1.45 1.236016 L 1.46 1.239219 L 1.47 1.242305 L 1.48 1.245352 L 1.49 1.248281 L 1.5 1.251133 L 1.51 1.253945 L 1.52 1.256641 L 1.53 1.259297 L 1.54 1.261836 L 1.55 1.264336 L 1.56 1.266758 L 1.58 1.271367 L 1.59 1.273555 L 1.6 1.275664 L 1.61 1.277734 L 1.62 1.279727 L 1.63 1.281641 L 1.64 1.283477 L 1.65 1.285273 L 1.66 1.286992 L 1.67 1.288672 L 1.69 1.291797 L 1.71 1.294687 L 1.72 1.296016 L 1.73 1.297305 L 1.74 1.298555 L 1.75 1.299727 L 1.76 1.300859 L 1.77 1.301914 L 1.78 1.30293 L 1.79 1.303867 L 1.8 1.304766 L 1.81 1.305625 L 1.82 1.306445 L 1.83 1.307187 L 1.84 1.307891 L 1.85 1.308555 L 1.86 1.309141 L 1.87 1.309687 L 1.88 1.310195 L 1.89 1.310664 L 1.9 1.311094 L 1.91 1.311484 L 1.93 1.312109 L 1.95 1.312578 L 1.96 1.312734 L 1.98 1.312969 L 2 1.313047 L 2.02 1.312969 L 2.03 1.312891 L 2.06 1.312422 L 2.08 1.311953 L 2.11 1.311016 L 2.13 1.310234 L 2.14 1.309805 L 2.16 1.308867 L 2.18 1.307852 L 2.19 1.307305 L 2.2 1.306719 L 2.23 1.304844 L 2.24 1.30418 L 2.26 1.302773 L 2.28 1.301289 L 2.31 1.298945 L 2.32 1.298125 L 2.35 1.295547 L 2.38 1.292852 L 2.4 1.290977 L 2.44 1.28707 L 2.46 1.285039 L 2.48 1.28293 L 2.49 1.281914 L 2.5 1.28082 L 2.51 1.279766 L 2.55 1.275391 L 2.57 1.273125 L 2.58 1.272031 L 2.59 1.270859 L 2.61 1.268594 L 2.67 1.261563 L 2.68 1.260352 L 2.69 1.25918 L 2.72 1.255547 L 2.73 1.254375 L 2.74 1.253164 L 2.75 1.251914 L 2.78 1.248281 L 2.79 1.247031 L 2.81 1.244609 L 2.82 1.243359 L 2.83 1.242148 L 2.84 1.240898 L 2.85 1.239688 L 2.87 1.237188 L 2.88 1.235977 L 2.89 1.234727 L 2.9 1.233516 L 2.92 1.231016 L 2.93 1.229805 L 2.94 1.228555 L 2.95 1.227344 L 2.97 1.224844 L 2.98 1.223633 L 2.99 1.222383 L 3.01 1.219961 L 3.02 1.218711 L 3.04 1.216289 L 3.05 1.215039 L 3.13 1.205352 L 3.14 1.20418 L 3.16 1.201758 L 3.17 1.200586 L 3.18 1.199375 L 3.21 1.195859 L 3.22 1.194648 L 3.23 1.193477 L 3.24 1.192344 L 3.27 1.188828 L 3.28 1.187695 L 3.29 1.186523 L 3.32 1.183125 L 3.33 1.181953 L 3.34 1.180859 L 3.37 1.177461 L 3.38 1.176367 L 3.39 1.175234 L 3.46 1.167578 L 3.47 1.166523 L 3.48 1.16543 L 3.54 1.159102 L 3.55 1.158086 L 3.56 1.157031 L 3.58 1.155 L 3.59 1.153945 L 3.6 1.15293 L 3.61 1.151953 L 3.63 1.149922 L 3.64 1.148945 L 3.65 1.14793 L 3.7 1.143047 L 3.71 1.142109 L 3.72 1.141133 L 3.73 1.140195 L 3.74 1.139219 L 3.77 1.136406 L 3.78 1.135508 L 3.8 1.133633 L 3.87 1.127344 L 3.88 1.126484 L 3.89 1.125586 L 3.95 1.12043 L 3.96 1.119609 L 3.97 1.11875 L 4.03 1.113828 L 4.04 1.113047 L 4.05 1.112227 L 4.11 1.107539 L 4.12 1.106797 L 4.13 1.106016 L 4.14 1.105273 L 4.15 1.104492 L 4.19 1.101523 L 4.2 1.10082 L 4.21 1.100078 L 4.22 1.099375 L 4.23 1.098633 L 4.28 1.095117 L 4.29 1.094453 L 4.3 1.09375 L 4.31 1.093086 L 4.32 1.092383 L 4.38 1.088398 L 4.39 1.087773 L 4.4 1.087109 L 4.43 1.085234 L 4.44 1.08457 L 4.45 1.083984 L 4.48 1.082109 L 4.49 1.081523 L 4.5 1.080898 L 4.53 1.079141 L 4.54 1.078516 L 4.55 1.077969 L 4.58 1.076211 L 4.59 1.075664 L 4.6 1.075078 L 4.63 1.073437 L 4.64 1.072852 L 4.65 1.072305 L 4.66 1.071797 L 4.68 1.070703 L 4.69 1.070195 L 4.7 1.069648 L 4.71 1.069141 L 4.72 1.068594 L 4.79 1.065039 L 4.8 1.06457 L 4.81 1.064062 L 4.83 1.063125 L 4.84 1.062617 L 4.9 1.059805 L 4.91 1.059375 L 4.92 1.058906 L 4.93 1.058477 L 4.94 1.058008 L 4.96 1.057148 L 4.97 1.05668 L 5 1.055391 " transform="matrix(100,0,0,-100,500,200)"/>
<path style="fill:none;stroke-width:0.03;stroke-linecap:butt;stroke-linejoin:miter;stroke:rgb(87.058824%,29.803922%,71.764706%);stroke-opacity:0.75;stroke-miterlimit:10;" d="M -5 -0.5 L -4.3 -0.5 L -4.29 -0.499961 L -3.8 -0.499961 L -3.79 -0.499922 L -3.57 -0.499922 L -3.56 -0.499883 L -3.42 -0.499883 L -3.41 -0.499844 L -3.31 -0.499844 L -3.3 -0.499805 L -3.22 -0.499805 L -3.21 -0.499766 L -3.15 -0.499766 L -3.14 -0.499727 L -3.09 -0.499727 L -3.08 -0.499687 L -3.03 -0.499687 L -3.02 -0.499648 L -2.98 -0.499648 L -2.97 -0.499609 L -2.94 -0.499609 L -2.93 -0.49957 L -2.9 -0.49957 L -2.89 -0.499531 L -2.86 -0.499531 L -2.85 -0.499492 L -2.83 -0.499492 L -2.82 -0.499453 L -2.8 -0.499453 L -2.79 -0.499414 L -2.77 -0.499414 L -2.76 -0.499375 L -2.74 -0.499375 L -2.73 -0.499336 L -2.72 -0.499336 L -2.71 -0.499297 L -2.69 -0.499297 L -2.68 -0.499258 L -2.67 -0.499258 L -2.66 -0.499219 L -2.65 -0.499219 L -2.64 -0.49918 L -2.63 -0.49918 L -2.62 -0.499141 L -2.61 -0.499141 L -2.6 -0.499102 L -2.59 -0.499102 L -2.58 -0.499062 L -2.57 -0.499062 L -2.55 -0.498984 L -2.54 -0.498984 L -2.53 -0.498945 L -2.52 -0.498945 L -2.5 -0.498867 L -2.49 -0.498867 L -2.46 -0.49875 L -2.45 -0.49875 L -2.42 -0.498633 L -2.41 -0.498633 L -2.26 -0.498047 L -2.25 -0.497969 L -2.22 -0.497852 L -2.21 -0.497773 L -2.19 -0.497695 L -2.18 -0.497617 L -2.17 -0.497578 L -2.16 -0.4975 L -2.15 -0.497461 L -2.13 -0.497305 L -2.12 -0.497266 L -2.1 -0.497109 L -2.09 -0.49707 L -2 -0.496367 L -1.99 -0.49625 L -1.97 -0.496094 L -1.96 -0.495977 L -1.95 -0.495898 L -1.94 -0.495781 L -1.93 -0.495703 L -1.84 -0.494648 L -1.83 -0.494492 L -1.82 -0.494375 L -1.81 -0.494219 L -1.8 -0.494102 L -1.73 -0.493008 L -1.72 -0.492812 L -1.71 -0.492656 L -1.7 -0.492461 L -1.69 -0.492305 L -1.66 -0.491719 L -1.65 -0.491484 L -1.64 -0.491289 L -1.63 -0.491055 L -1.62 -0.490859 L -1.58 -0.489922 L -1.57 -0.489648 L -1.56 -0.489414 L -1.53 -0.488594 L -1.52 -0.488281 L -1.51 -0.488008 L -1.46 -0.486445 L -1.43 -0.485391 L -1.42 -0.485 L -1.41 -0.484648 L -1.39 -0.483867 L -1.38 -0.483437 L -1.37 -0.483047 L -1.36 -0.482617 L -1.35 -0.482148 L -1.34 -0.481719 L -1.32 -0.480781 L -1.31 -0.480273 L -1.3 -0.479805 L -1.29 -0.479258 L -1.28 -0.47875 L -1.26 -0.477656 L -1.23 -0.475898 L -1.2 -0.474023 L -1.19 -0.473359 L -1.16 -0.47125 L -1.14 -0.469766 L -1.12 -0.468203 L -1.11 -0.467383 L -1.08 -0.464805 L -1.07 -0.463867 L -1.06 -0.462969 L -1.04 -0.461016 L -1.02 -0.458984 L -1.01 -0.45793 L -1 -0.456836 L -0.98 -0.45457 L -0.97 -0.453398 L -0.96 -0.452187 L -0.94 -0.449688 L -0.92 -0.447031 L -0.91 -0.445664 L -0.9 -0.444258 L -0.89 -0.442813 L -0.88 -0.441328 L -0.87 -0.439805 L -0.86 -0.438242 L -0.85 -0.436641 L -0.83 -0.433281 L -0.82 -0.431563 L -0.81 -0.429766 L -0.8 -0.42793 L -0.79 -0.426055 L -0.78 -0.424141 L -0.76 -0.420156 L -0.74 -0.415938 L -0.73 -0.41375 L -0.72 -0.411484 L -0.71 -0.40918 L -0.7 -0.406836 L -0.69 -0.404414 L -0.68 -0.401914 L -0.67 -0.399375 L -0.66 -0.396758 L -0.65 -0.394062 L -0.64 -0.391289 L -0.63 -0.388477 L -0.62 -0.385586 L -0.61 -0.382617 L -0.6 -0.37957 L -0.59 -0.376445 L -0.58 -0.373242 L -0.57 -0.37 L -0.56 -0.366641 L -0.55 -0.363164 L -0.54 -0.359648 L -0.53 -0.356016 L -0.52 -0.352344 L -0.51 -0.348516 L -0.5 -0.344648 L -0.49 -0.340664 L -0.48 -0.336562 L -0.47 -0.332383 L -0.46 -0.328125 L -0.45 -0.32375 L -0.44 -0.319258 L -0.43 -0.314648 L -0.42 -0.309961 L -0.41 -0.305156 L -0.4 -0.300234 L -0.39 -0.295195 L -0.38 -0.290078 L -0.37 -0.284805 L -0.36 -0.279414 L -0.35 -0.273945 L -0.34 -0.26832 L -0.33 -0.262578 L -0.32 -0.256719 L -0.31 -0.250703 L -0.3 -0.244609 L -0.29 -0.238359 L -0.28 -0.231992 L -0.27 -0.225469 L -0.26 -0.218828 L -0.25 -0.21207 L -0.24 -0.205156 L -0.23 -0.198125 L -0.22 -0.190977 L -0.21 -0.183672 L -0.2 -0.176211 L -0.19 -0.168633 L -0.18 -0.160938 L -0.17 -0.153086 L -0.16 -0.145117 L -0.15 -0.136992 L -0.14 -0.12875 L -0.13 -0.120352 L -0.12 -0.111836 L -0.11 -0.103203 L -0.1 -0.0944141 L -0.09 -0.0855469 L -0.08 -0.0764844 L -0.07 -0.0673438 L -0.06 -0.0580859 L -0.05 -0.0486719 L -0.04 -0.0391406 L -0.03 -0.0295313 L -0.02 -0.0198047 L -0.01 -0.00996094 L 0 0 L 0.01 0.0100391 L 0.02 0.0201172 L 0.03 0.0302344 L 0.04 0.0403906 L 0.05 0.0505859 L 0.06 0.0608594 L 0.07 0.0711719 L 0.08 0.0815234 L 0.1 0.102305 L 0.11 0.112773 L 0.12 0.123281 L 0.13 0.133828 L 0.15 0.155 L 0.16 0.165625 L 0.17 0.176289 L 0.18 0.186992 L 0.2 0.208477 L 0.22 0.230039 L 0.24 0.25168 L 0.26 0.273398 L 0.29 0.306094 L 0.31 0.327969 L 0.32 0.338867 L 0.39 0.41543 L 0.43 0.459023 L 0.44 0.469883 L 0.45 0.480703 L 0.46 0.491562 L 0.48 0.513125 L 0.5 0.534609 L 0.51 0.545312 L 0.52 0.555977 L 0.54 0.577227 L 0.55 0.587773 L 0.57 0.608789 L 0.58 0.619219 L 0.6 0.64 L 0.62 0.660547 L 0.64 0.680937 L 0.65 0.691016 L 0.66 0.701055 L 0.67 0.711055 L 0.68 0.721016 L 0.69 0.730859 L 0.7 0.740664 L 0.71 0.75043 L 0.72 0.760117 L 0.73 0.769727 L 0.74 0.779297 L 0.75 0.78875 L 0.76 0.798164 L 0.77 0.8075 L 0.78 0.816797 L 0.79 0.825977 L 0.8 0.835078 L 0.81 0.844141 L 0.82 0.853086 L 0.83 0.861992 L 0.84 0.870781 L 0.85 0.879492 L 0.86 0.888125 L 0.87 0.89668 L 0.88 0.905156 L 0.89 0.913555 L 0.9 0.921875 L 0.91 0.930078 L 0.92 0.938203 L 0.93 0.94625 L 0.94 0.95418 L 0.95 0.96207 L 0.96 0.969844 L 0.97 0.9775 L 0.98 0.985117 L 0.99 0.992578 L 1 1 L 1.01 1.007305 L 1.02 1.014531 L 1.03 1.021641 L 1.04 1.028672 L 1.05 1.035625 L 1.06 1.042461 L 1.07 1.049219 L 1.08 1.055859 L 1.09 1.062422 L 1.1 1.068867 L 1.11 1.075234 L 1.12 1.081484 L 1.13 1.087656 L 1.14 1.09375 L 1.15 1.099727 L 1.16 1.105625 L 1.17 1.111406 L 1.18 1.117109 L 1.19 1.122695 L 1.2 1.128203 L 1.21 1.133594 L 1.22 1.138906 L 1.23 1.144141 L 1.24 1.149258 L 1.25 1.154297 L 1.26 1.159258 L 1.27 1.164102 L 1.28 1.168828 L 1.29 1.173516 L 1.3 1.178086 L 1.31 1.182539 L 1.32 1.186953 L 1.33 1.19125 L 1.34 1.195469 L 1.35 1.19957 L 1.36 1.203594 L 1.37 1.207539 L 1.38 1.211406 L 1.39 1.215195 L 1.4 1.218867 L 1.41 1.222461 L 1.42 1.225977 L 1.43 1.229414 L 1.44 1.232773 L 1.45 1.236016 L 1.46 1.239219 L 1.47 1.242305 L 1.48 1.245352 L 1.49 1.248281 L 1.5 1.251133 L 1.51 1.253945 L 1.52 1.256641 L 1.53 1.259297 L 1.54 1.261836 L 1.55 1.264336 L 1.56 1.266758 L 1.58 1.271367 L 1.59 1.273555 L 1.6 1.275664 L 1.61 1.277734 L 1.62 1.279727 L 1.63 1.281641 L 1.64 1.283477 L 1.65 1.285273 L 1.66 1.286992 L 1.67 1.288672 L 1.69 1.291797 L 1.71 1.294687 L 1.72 1.296016 L 1.73 1.297305 L 1.74 1.298555 L 1.75 1.299727 L 1.76 1.300859 L 1.77 1.301914 L 1.78 1.30293 L 1.79 1.303867 L 1.8 1.304766 L 1.81 1.305625 L 1.82 1.306445 L 1.83 1.307187 L 1.84 1.307891 L 1.85 1.308555 L 1.86 1.309141 L 1.87 1.309687 L 1.88 1.310195 L 1.89 1.310664 L 1.9 1.311094 L 1.91 1.311484 L 1.93 1.312109 L 1.95 1.312578 L 1.96 1.312734 L 1.98 1.312969 L 2 1.313047 L 2.02 1.312969 L 2.03 1.312891 L 2.06 1.312422 L 2.08 1.311953 L 2.11 1.311016 L 2.13 1.310234 L 2.14 1.309805 L 2.16 1.308867 L 2.18 1.307852 L 2.19 1.307305 L 2.2 1.306719 L 2.23 1.304844 L 2.24 1.30418 L 2.26 1.302773 L 2.28 1.301289 L 2.31 1.298945 L 2.32 1.298125 L 2.35 1.295547 L 2.38 1.292852 L 2.4 1.290977 L 2.44 1.28707 L 2.46 1.285039 L 2.48 1.28293 L 2.49 1.281914 L 2.5 1.28082 L 2.51 1.279766 L 2.55 1.275391 L 2.57 1.273125 L 2.58 1.272031 L 2.59 1.270859 L 2.61 1.268594 L 2.67 1.261563 L 2.68 1.260352 L 2.69 1.25918 L 2.72 1.255547 L 2.73 1.254375 L 2.74 1.253164 L 2.75 1.251914 L 2.78 1.248281 L 2.79 1.247031 L 2.81 1.244609 L 2.82 1.243359 L 2.83 1.242148 L 2.84 1.240898 L 2.85 1.239688 L 2.87 1.237188 L 2.88 1.235977 L 2.89 1.234727 L 2.9 1.233516 L 2.92 1.231016 L 2.93 1.229805 L 2.94 1.228555 L 2.95 1.227344 L 2.97 1.224844 L 2.98 1.223633 L 2.99 1.222383 L 3.01 1.219961 L 3.02 1.218711 L 3.04 1.216289 L 3.05 1.215039 L 3.13 1.205352 L 3.14 1.20418 L 3.16 1.201758 L 3.17 1.200586 L 3.18 1.199375 L 3.21 1.195859 L 3.22 1.194648 L 3.23 1.193477 L 3.24 1.192344 L 3.27 1.188828 L 3.28 1.187695 L 3.29 1.186523 L 3.32 1.183125 L 3.33 1.181953 L 3.34 1.180859 L 3.37 1.177461 L 3.38 1.176367 L 3.39 1.175234 L 3.46 1.167578 L 3.47 1.166523 L 3.48 1.16543 L 3.54 1.159102 L 3.55 1.158086 L 3.56 1.157031 L 3.58 1.155 L 3.59 1.153945 L 3.6 1.15293 L 3.61 1.151953 L 3.63 1.149922 L 3.64 1.148945 L 3.65 1.14793 L 3.7 1.143047 L 3.71 1.142109 L 3.72 1.141133 L 3.73 1.140195 L 3.74 1.139219 L 3.77 1.136406 L 3.78 1.135508 L 3.8 1.133633 L 3.87 1.127344 L 3.88 1.126484 L 3.89 1.125586 L 3.95 1.12043 L 3.96 1.119609 L 3.97 1.11875 L 4.03 1.113828 L 4.04 1.113047 L 4.05 1.112227 L 4.11 1.107539 L 4.12 1.106797 L 4.13 1.106016 L 4.14 1.105273 L 4.15 1.104492 L 4.19 1.101523 L 4.2 1.10082 L 4.21 1.100078 L 4.22 1.099375 L 4.23 1.098633 L 4.28 1.095117 L 4.29 1.094453 L 4.3 1.09375 L 4.31 1.093086 L 4.32 1.092383 L 4.38 1.088398 L 4.39 1.087773 L 4.4 1.087109 L 4.43 1.085234 L 4.44 1.08457 L 4.45 1.083984 L 4.48 1.082109 L 4.49 1.081523 L 4.5 1.080898 L 4.53 1.079141 L 4.54 1.078516 L 4.55 1.077969 L 4.58 1.076211 L 4.59 1.075664 L 4.6 1.075078 L 4.63 1.073437 L 4.64 1.072852 L 4.65 1.072305 L 4.66 1.071797 L 4.68 1.070703 L 4.69 1.070195 L 4.7 1.069648 L 4.71 1.069141 L 4.72 1.068594 L 4.79 1.065039 L 4.8 1.06457 L 4.81 1.064062 L 4.83 1.063125 L 4.84 1.062617 L 4.9 1.059805 L 4.91 1.059375 L 4.92 1.058906 L 4.93 1.058477 L 4.94 1.058008 L 4.96 1.057148 L 4.97 1.05668 L 5 1.055391 " transform="matrix(100,0,0,-100,500,200)"/>
<path style="fill:none;stroke-width:0.03;stroke-linecap:butt;stroke-linejoin:miter;stroke:rgb(87.058824%,29.803922%,71.764706%);stroke-opacity:0.5;stroke-miterlimit:10;" d="M -5 -0.25 L -1.99 -0.25 L -1.98 -0.249961 L -1.75 -0.249961 L -1.74 -0.249922 L -1.64 -0.249922 L -1.63 -0.249883 L -1.56 -0.249883 L -1.55 -0.249844 L -1.51 -0.249844 L -1.5 -0.249805 L -1.46 -0.249805 L -1.45 -0.249766 L -1.43 -0.249766 L -1.42 -0.249727 L -1.4 -0.249727 L -1.39 -0.249687 L -1.37 -0.249687 L -1.36 -0.249648 L -1.34 -0.249648 L -1.33 -0.249609 L -1.32 -0.249609 L -1.31 -0.24957 L -1.3 -0.24957 L -1.29 -0.249531 L -1.28 -0.249531 L -1.26 -0.249453 L -1.25 -0.249453 L -1.22 -0.249336 L -1.21 -0.249336 L -1.12 -0.248984 L -1.11 -0.248906 L -1.09 -0.248828 L -1.08 -0.24875 L -1.07 -0.248711 L -1.04 -0.248477 L -1.03 -0.248438 L -1.02 -0.248359 L -1.01 -0.248242 L -0.98 -0.248008 L -0.96 -0.247773 L -0.95 -0.247695 L -0.93 -0.247461 L -0.92 -0.247305 L -0.91 -0.247187 L -0.9 -0.247031 L -0.89 -0.246914 L -0.87 -0.246602 L -0.86 -0.246406 L -0.85 -0.24625 L -0.83 -0.245859 L -0.82 -0.245625 L -0.81 -0.24543 L -0.79 -0.244961 L -0.75 -0.243867 L -0.74 -0.243555 L -0.71 -0.2425 L -0.69 -0.241719 L -0.67 -0.240859 L -0.66 -0.240391 L -0.64 -0.239375 L -0.63 -0.238828 L -0.61 -0.237656 L -0.59 -0.236328 L -0.58 -0.235625 L -0.57 -0.234883 L -0.56 -0.234102 L -0.55 -0.233281 L -0.53 -0.231484 L -0.52 -0.230508 L -0.51 -0.229492 L -0.49 -0.227305 L -0.48 -0.226094 L -0.47 -0.224844 L -0.46 -0.223516 L -0.45 -0.222109 L -0.44 -0.220664 L -0.43 -0.219102 L -0.42 -0.2175 L -0.41 -0.215781 L -0.4 -0.213984 L -0.39 -0.21207 L -0.38 -0.210078 L -0.37 -0.207969 L -0.36 -0.205742 L -0.35 -0.203398 L -0.34 -0.200938 L -0.33 -0.198359 L -0.32 -0.195664 L -0.31 -0.192813 L -0.3 -0.189805 L -0.29 -0.186641 L -0.28 -0.18332 L -0.27 -0.179805 L -0.26 -0.176172 L -0.25 -0.172305 L -0.24 -0.168281 L -0.23 -0.164062 L -0.22 -0.159609 L -0.21 -0.155 L -0.2 -0.150117 L -0.19 -0.145039 L -0.18 -0.139727 L -0.17 -0.134141 L -0.16 -0.128359 L -0.15 -0.122305 L -0.14 -0.115977 L -0.13 -0.109414 L -0.12 -0.102578 L -0.11 -0.0954688 L -0.1 -0.088125 L -0.09 -0.0804688 L -0.08 -0.0725391 L -0.07 -0.064375 L -0.06 -0.0559375 L -0.05 -0.0472266 L -0.04 -0.0382422 L -0.03 -0.0290234 L -0.02 -0.0195703 L -0.01 -0.00988281 L 0 0 L 0.01 0.0100391 L 0.02 0.0201172 L 0.03 0.0302344 L 0.04 0.0403906 L 0.05 0.0505859 L 0.06 0.0608594 L 0.07 0.0711719 L 0.08 0.0815234 L 0.1 0.102305 L 0.11 0.112773 L 0.12 0.123281 L 0.13 0.133828 L 0.15 0.155 L 0.16 0.165625 L 0.17 0.176289 L 0.18 0.186992 L 0.2 0.208477 L 0.22 0.230039 L 0.24 0.25168 L 0.26 0.273398 L 0.29 0.306094 L 0.31 0.327969 L 0.32 0.338867 L 0.39 0.41543 L 0.43 0.459023 L 0.44 0.469883 L 0.45 0.480703 L 0.46 0.491562 L 0.48 0.513125 L 0.5 0.534609 L 0.51 0.545312 L 0.52 0.555977 L 0.54 0.577227 L 0.55 0.587773 L 0.57 0.608789 L 0.58 0.619219 L 0.6 0.64 L 0.62 0.660547 L 0.64 0.680937 L 0.65 0.691016 L 0.66 0.701055 L 0.67 0.711055 L 0.68 0.721016 L 0.69 0.730859 L 0.7 0.740664 L 0.71 0.75043 L 0.72 0.760117 L 0.73 0.769727 L 0.74 0.779297 L 0.75 0.78875 L 0.76 0.798164 L 0.77 0.8075 L 0.78 0.816797 L 0.79 0.825977 L 0.8 0.835078 L 0.81 0.844141 L 0.82 0.853086 L 0.83 0.861992 L 0.84 0.870781 L 0.85 0.879492 L 0.86 0.888125 L 0.87 0.89668 L 0.88 0.905156 L 0.89 0.913555 L 0.9 0.921875 L 0.91 0.930078 L 0.92 0.938203 L 0.93 0.94625 L 0.94 0.95418 L 0.95 0.96207 L 0.96 0.969844 L 0.97 0.9775 L 0.98 0.985117 L 0.99 0.992578 L 1 1 L 1.01 1.007305 L 1.02 1.014531 L 1.03 1.021641 L 1.04 1.028672 L 1.05 1.035625 L 1.06 1.042461 L 1.07 1.049219 L 1.08 1.055859 L 1.09 1.062422 L 1.1 1.068867 L 1.11 1.075234 L 1.12 1.081484 L 1.13 1.087656 L 1.14 1.09375 L 1.15 1.099727 L 1.16 1.105625 L 1.17 1.111406 L 1.18 1.117109 L 1.19 1.122695 L 1.2 1.128203 L 1.21 1.133594 L 1.22 1.138906 L 1.23 1.144141 L 1.24 1.149258 L 1.25 1.154297 L 1.26 1.159258 L 1.27 1.164102 L 1.28 1.168828 L 1.29 1.173516 L 1.3 1.178086 L 1.31 1.182539 L 1.32 1.186953 L 1.33 1.19125 L 1.34 1.195469 L 1.35 1.19957 L 1.36 1.203594 L 1.37 1.207539 L 1.38 1.211406 L 1.39 1.215195 L 1.4 1.218867 L 1.41 1.222461 L 1.42 1.225977 L 1.43 1.229414 L 1.44 1.232773 L 1.45 1.236016 L 1.46 1.239219 L 1.47 1.242305 L 1.48 1.245352 L 1.49 1.248281 L 1.5 1.251133 L 1.51 1.253945 L 1.52 1.256641 L 1.53 1.259297 L 1.54 1.261836 L 1.55 1.264336 L 1.56 1.266758 L 1.58 1.271367 L 1.59 1.273555 L 1.6 1.275664 L 1.61 1.277734 L 1.62 1.279727 L 1.63 1.281641 L 1.64 1.283477 L 1.65 1.285273 L 1.66 1.286992 L 1.67 1.288672 L 1.69 1.291797 L 1.71 1.294687 L 1.72 1.296016 L 1.73 1.297305 L 1.74 1.298555 L 1.75 1.299727 L 1.76 1.300859 L 1.77 1.301914 L 1.78 1.30293 L 1.79 1.303867 L 1.8 1.304766 L 1.81 1.305625 L 1.82 1.306445 L 1.83 1.307187 L 1.84 1.307891 L 1.85 1.308555 L 1.86 1.309141 L 1.87 1.309687 L 1.88 1.310195 L 1.89 1.310664 L 1.9 1.311094 L 1.91 1.311484 L 1.93 1.312109 L 1.95 1.312578 L 1.96 1.312734 L 1.98 1.312969 L 2 1.313047 L 2.02 1.312969 L 2.03 1.312891 L 2.06 1.312422 L 2.08 1.311953 L 2.11 1.311016 L 2.13 1.310234 L 2.14 1.309805 L 2.16 1.308867 L 2.18 1.307852 L 2.19 1.307305 L 2.2 1.306719 L 2.23 1.304844 L 2.24 1.30418 L 2.26 1.302773 L 2.28 1.301289 L 2.31 1.298945 L 2.32 1.298125 L 2.35 1.295547 L 2.38 1.292852 L 2.4 1.290977 L 2.44 1.28707 L 2.46 1.285039 L 2.48 1.28293 L 2.49 1.281914 L 2.5 1.28082 L 2.51 1.279766 L 2.55 1.275391 L 2.57 1.273125 L 2.58 1.272031 L 2.59 1.270859 L 2.61 1.268594 L 2.67 1.261563 L 2.68 1.260352 L 2.69 1.25918 L 2.72 1.255547 L 2.73 1.254375 L 2.74 1.253164 L 2.75 1.251914 L 2.78 1.248281 L 2.79 1.247031 L 2.81 1.244609 L 2.82 1.243359 L 2.83 1.242148 L 2.84 1.240898 L 2.85 1.239688 L 2.87 1.237188 L 2.88 1.235977 L 2.89 1.234727 L 2.9 1.233516 L 2.92 1.231016 L 2.93 1.229805 L 2.94 1.228555 L 2.95 1.227344 L 2.97 1.224844 L 2.98 1.223633 L 2.99 1.222383 L 3.01 1.219961 L 3.02 1.218711 L 3.04 1.216289 L 3.05 1.215039 L 3.13 1.205352 L 3.14 1.20418 L 3.16 1.201758 L 3.17 1.200586 L 3.18 1.199375 L 3.21 1.195859 L 3.22 1.194648 L 3.23 1.193477 L 3.24 1.192344 L 3.27 1.188828 L 3.28 1.187695 L 3.29 1.186523 L 3.32 1.183125 L 3.33 1.181953 L 3.34 1.180859 L 3.37 1.177461 L 3.38 1.176367 L 3.39 1.175234 L 3.46 1.167578 L 3.47 1.166523 L 3.48 1.16543 L 3.54 1.159102 L 3.55 1.158086 L 3.56 1.157031 L 3.58 1.155 L 3.59 1.153945 L 3.6 1.15293 L 3.61 1.151953 L 3.63 1.149922 L 3.64 1.148945 L 3.65 1.14793 L 3.7 1.143047 L 3.71 1.142109 L 3.72 1.141133 L 3.73 1.140195 L 3.74 1.139219 L 3.77 1.136406 L 3.78 1.135508 L 3.8 1.133633 L 3.87 1.127344 L 3.88 1.126484 L 3.89 1.125586 L 3.95 1.12043 L 3.96 1.119609 L 3.97 1.11875 L 4.03 1.113828 L 4.04 1.113047 L 4.05 1.112227 L 4.11 1.107539 L 4.12 1.106797 L 4.13 1.106016 L 4.14 1.105273 L 4.15 1.104492 L 4.19 1.101523 L 4.2 1.10082 L 4.21 1.100078 L 4.22 1.099375 L 4.23 1.098633 L 4.28 1.095117 L 4.29 1.094453 L 4.3 1.09375 L 4.31 1.093086 L 4.32 1.092383 L 4.38 1.088398 L 4.39 1.087773 L 4.4 1.087109 L 4.43 1.085234 L 4.44 1.08457 L 4.45 1.083984 L 4.48 1.082109 L 4.49 1.081523 L 4.5 1.080898 L 4.53 1.079141 L 4.54 1.078516 L 4.55 1.077969 L 4.58 1.076211 L 4.59 1.075664 L 4.6 1.075078 L 4.63 1.073437 L 4.64 1.072852 L 4.65 1.072305 L 4.66 1.071797 L 4.68 1.070703 L 4.69 1.070195 L 4.7 1.069648 L 4.71 1.069141 L 4.72 1.068594 L 4.79 1.065039 L 4.8 1.06457 L 4.81 1.064062 L 4.83 1.063125 L 4.84 1.062617 L 4.9 1.059805 L 4.91 1.059375 L 4.92 1.058906 L 4.93 1.058477 L 4.94 1.058008 L 4.96 1.057148 L 4.97 1.05668 L 5 1.055391 " transform="matrix(100,0,0,-100,500,200)"/>
<path style="fill:none;stroke-width:0.03;stroke-linecap:butt;stroke-linejoin:miter;stroke:rgb(87.058824%,29.803922%,71.764706%);stroke-opacity:0.25;stroke-miterlimit:10;" d="M -5 -0.125 L -0.92 -0.125 L -0.91 -0.124961 L -0.8 -0.124961 L -0.79 -0.124922 L -0.74 -0.124922 L -0.73 -0.124883 L -0.71 -0.124883 L -0.7 -0.124844 L -0.68 -0.124844 L -0.67 -0.124805 L -0.66 -0.124805 L -0.65 -0.124766 L -0.64 -0.124766 L -0.62 -0.124687 L -0.61 -0.124687 L -0.56 -0.124492 L -0.55 -0.124414 L -0.54 -0.124375 L -0.53 -0.124297 L -0.52 -0.124258 L -0.5 -0.124102 L -0.49 -0.123984 L -0.48 -0.123906 L -0.46 -0.123672 L -0.43 -0.123203 L -0.41 -0.122813 L -0.39 -0.122344 L -0.38 -0.12207 L -0.36 -0.121445 L -0.34 -0.120664 L -0.33 -0.120195 L -0.32 -0.119687 L -0.31 -0.119141 L -0.3 -0.118516 L -0.29 -0.117812 L -0.28 -0.117031 L -0.27 -0.116211 L -0.26 -0.115273 L -0.25 -0.114219 L -0.24 -0.113047 L -0.23 -0.111758 L -0.22 -0.110313 L -0.21 -0.10875 L -0.2 -0.106992 L -0.19 -0.105039 L -0.18 -0.102891 L -0.17 -0.100469 L -0.16 -0.0978125 L -0.15 -0.0948828 L -0.14 -0.0916406 L -0.13 -0.0880859 L -0.12 -0.0841406 L -0.11 -0.0798047 L -0.1 -0.0750781 L -0.09 -0.0698437 L -0.08 -0.0641797 L -0.07 -0.0580078 L -0.06 -0.0512891 L -0.05 -0.0440625 L -0.04 -0.0362891 L -0.03 -0.0279687 L -0.02 -0.0191406 L -0.01 -0.00980469 L 0 0 L 0.01 0.0100391 L 0.02 0.0201172 L 0.03 0.0302344 L 0.04 0.0403906 L 0.05 0.0505859 L 0.06 0.0608594 L 0.07 0.0711719 L 0.08 0.0815234 L 0.1 0.102305 L 0.11 0.112773 L 0.12 0.123281 L 0.13 0.133828 L 0.15 0.155 L 0.16 0.165625 L 0.17 0.176289 L 0.18 0.186992 L 0.2 0.208477 L 0.22 0.230039 L 0.24 0.25168 L 0.26 0.273398 L 0.29 0.306094 L 0.31 0.327969 L 0.32 0.338867 L 0.39 0.41543 L 0.43 0.459023 L 0.44 0.469883 L 0.45 0.480703 L 0.46 0.491562 L 0.48 0.513125 L 0.5 0.534609 L 0.51 0.545312 L 0.52 0.555977 L 0.54 0.577227 L 0.55 0.587773 L 0.57 0.608789 L 0.58 0.619219 L 0.6 0.64 L 0.62 0.660547 L 0.64 0.680937 L 0.65 0.691016 L 0.66 0.701055 L 0.67 0.711055 L 0.68 0.721016 L 0.69 0.730859 L 0.7 0.740664 L 0.71 0.75043 L 0.72 0.760117 L 0.73 0.769727 L 0.74 0.779297 L 0.75 0.78875 L 0.76 0.798164 L 0.77 0.8075 L 0.78 0.816797 L 0.79 0.825977 L 0.8 0.835078 L 0.81 0.844141 L 0.82 0.853086 L 0.83 0.861992 L 0.84 0.870781 L 0.85 0.879492 L 0.86 0.888125 L 0.87 0.89668 L 0.88 0.905156 L 0.89 0.913555 L 0.9 0.921875 L 0.91 0.930078 L 0.92 0.938203 L 0.93 0.94625 L 0.94 0.95418 L 0.95 0.96207 L 0.96 0.969844 L 0.97 0.9775 L 0.98 0.985117 L 0.99 0.992578 L 1 1 L 1.01 1.007305 L 1.02 1.014531 L 1.03 1.021641 L 1.04 1.028672 L 1.05 1.035625 L 1.06 1.042461 L 1.07 1.049219 L 1.08 1.055859 L 1.09 1.062422 L 1.1 1.068867 L 1.11 1.075234 L 1.12 1.081484 L 1.13 1.087656 L 1.14 1.09375 L 1.15 1.099727 L 1.16 1.105625 L 1.17 1.111406 L 1.18 1.117109 L 1.19 1.122695 L 1.2 1.128203 L 1.21 1.133594 L 1.22 1.138906 L 1.23 1.144141 L 1.24 1.149258 L 1.25 1.154297 L 1.26 1.159258 L 1.27 1.164102 L 1.28 1.168828 L 1.29 1.173516 L 1.3 1.178086 L 1.31 1.182539 L 1.32 1.186953 L 1.33 1.19125 L 1.34 1.195469 L 1.35 1.19957 L 1.36 1.203594 L 1.37 1.207539 L 1.38 1.211406 L 1.39 1.215195 L 1.4 1.218867 L 1.41 1.222461 L 1.42 1.225977 L 1.43 1.229414 L 1.44 1.232773 L 1.45 1.236016 L 1.46 1.239219 L 1.47 1.242305 L 1.48 1.245352 L 1.49 1.248281 L 1.5 1.251133 L 1.51 1.253945 L 1.52 1.256641 L 1.53 1.259297 L 1.54 1.261836 L 1.55 1.264336 L 1.56 1.266758 L 1.58 1.271367 L 1.59 1.273555 L 1.6 1.275664 L 1.61 1.277734 L 1.62 1.279727 L 1.63 1.281641 L 1.64 1.283477 L 1.65 1.285273 L 1.66 1.286992 L 1.67 1.288672 L 1.69 1.291797 L 1.71 1.294687 L 1.72 1.296016 L 1.73 1.297305 L 1.74 1.298555 L 1.75 1.299727 L 1.76 1.300859 L 1.77 1.301914 L 1.78 1.30293 L 1.79 1.303867 L 1.8 1.304766 L 1.81 1.305625 L 1.82 1.306445 L 1.83 1.307187 L 1.84 1.307891 L 1.85 1.308555 L 1.86 1.309141 L 1.87 1.309687 L 1.88 1.310195 L 1.89 1.310664 L 1.9 1.311094 L 1.91 1.311484 L 1.93 1.312109 L 1.95 1.312578 L 1.96 1.312734 L 1.98 1.312969 L 2 1.313047 L 2.02 1.312969 L 2.03 1.312891 L 2.06 1.312422 L 2.08 1.311953 L 2.11 1.311016 L 2.13 1.310234 L 2.14 1.309805 L 2.16 1.308867 L 2.18 1.307852 L 2.19 1.307305 L 2.2 1.306719 L 2.23 1.304844 L 2.24 1.30418 L 2.26 1.302773 L 2.28 1.301289 L 2.31 1.298945 L 2.32 1.298125 L 2.35 1.295547 L 2.38 1.292852 L 2.4 1.290977 L 2.44 1.28707 L 2.46 1.285039 L 2.48 1.28293 L 2.49 1.281914 L 2.5 1.28082 L 2.51 1.279766 L 2.55 1.275391 L 2.57 1.273125 L 2.58 1.272031 L 2.59 1.270859 L 2.61 1.268594 L 2.67 1.261563 L 2.68 1.260352 L 2.69 1.25918 L 2.72 1.255547 L 2.73 1.254375 L 2.74 1.253164 L 2.75 1.251914 L 2.78 1.248281 L 2.79 1.247031 L 2.81 1.244609 L 2.82 1.243359 L 2.83 1.242148 L 2.84 1.240898 L 2.85 1.239688 L 2.87 1.237188 L 2.88 1.235977 L 2.89 1.234727 L 2.9 1.233516 L 2.92 1.231016 L 2.93 1.229805 L 2.94 1.228555 L 2.95 1.227344 L 2.97 1.224844 L 2.98 1.223633 L 2.99 1.222383 L 3.01 1.219961 L 3.02 1.218711 L 3.04 1.216289 L 3.05 1.215039 L 3.13 1.205352 L 3.14 1.20418 L 3.16 1.201758 L 3.17 1.200586 L 3.18 1.199375 L 3.21 1.195859 L 3.22 1.194648 L 3.23 1.193477 L 3.24 1.192344 L 3.27 1.188828 L 3.28 1.187695 L 3.29 1.186523 L 3.32 1.183125 L 3.33 1.181953 L 3.34 1.180859 L 3.37 1.177461 L 3.38 1.176367 L 3.39 1.175234 L 3.46 1.167578 L 3.47 1.166523 L 3.48 1.16543 L 3.54 1.159102 L 3.55 1.158086 L 3.56 1.157031 L 3.58 1.155 L 3.59 1.153945 L 3.6 1.15293 L 3.61 1.151953 L 3.63 1.149922 L 3.64 1.148945 L 3.65 1.14793 L 3.7 1.143047 L 3.71 1.142109 L 3.72 1.141133 L 3.73 1.140195 L 3.74 1.139219 L 3.77 1.136406 L 3.78 1.135508 L 3.8 1.133633 L 3.87 1.127344 L 3.88 1.126484 L 3.89 1.125586 L 3.95 1.12043 L 3.96 1.119609 L 3.97 1.11875 L 4.03 1.113828 L 4.04 1.113047 L 4.05 1.112227 L 4.11 1.107539 L 4.12 1.106797 L 4.13 1.106016 L 4.14 1.105273 L 4.15 1.104492 L 4.19 1.101523 L 4.2 1.10082 L 4.21 1.100078 L 4.22 1.099375 L 4.23 1.098633 L 4.28 1.095117 L 4.29 1.094453 L 4.3 1.09375 L 4.31 1.093086 L 4.32 1.092383 L 4.38 1.088398 L 4.39 1.087773 L 4.4 1.087109 L 4.43 1.085234 L 4.44 1.08457 L 4.45 1.083984 L 4.48 1.082109 L 4.49 1.081523 L 4.5 1.080898 L 4.53 1.079141 L 4.54 1.078516 L 4.55 1.077969 L 4.58 1.076211 L 4.59 1.075664 L 4.6 1.075078 L 4.63 1.073437 L 4.64 1.072852 L 4.65 1.072305 L 4.66 1.071797 L 4.68 1.070703 L 4.69 1.070195 L 4.7 1.069648 L 4.71 1.069141 L 4.72 1.068594 L 4.79 1.065039 L 4.8 1.06457 L 4.81 1.064062 L 4.83 1.063125 L 4.84 1.062617 L 4.9 1.059805 L 4.91 1.059375 L 4.92 1.058906 L 4.93 1.058477 L 4.94 1.058008 L 4.96 1.057148 L 4.97 1.05668 L 5 1.055391 " transform="matrix(100,0,0,-100,500,200)"/>
</g>
</svg>
