<?xml version="1.0" encoding="UTF-8"?>
<svg xmlns="http://www.w3.org/2000/svg" xmlns:xlink="http://www.w3.org/1999/xlink" width="1000pt" height="400pt" viewBox="0 0 1000 400" version="1.1">
<g id="surface66">
<rect x="0" y="0" width="1000" height="400" style="fill:rgb(0%,0%,0%);fill-opacity:1;stroke:none;"/>
<path style="fill:none;stroke-width:0.01;stroke-linecap:butt;stroke-linejoin:miter;stroke:rgb(100%,100%,100%);stroke-opacity:0.5;stroke-miterlimit:10;" d="M -5 -2 L -5 2 " transform="matrix(100,0,0,-100,500,200)"/>
<path style="fill:none;stroke-width:0.01;stroke-linecap:butt;stroke-linejoin:miter;stroke:rgb(100%,100%,100%);stroke-opacity:0.5;stroke-miterlimit:10;" d="M -4 -2 L -4 2 " transform="matrix(100,0,0,-100,500,200)"/>
<path style="fill:none;stroke-width:0.01;stroke-linecap:butt;stroke-linejoin:miter;stroke:rgb(100%,100%,100%);stroke-opacity:0.5;stroke-miterlimit:10;" d="M -3 -2 L -3 2 " transform="matrix(100,0,0,-100,500,200)"/>
<path style="fill:none;stroke-width:0.01;stroke-linecap:butt;stroke-linejoin:miter;stroke:rgb(100%,100%,100%);stroke-opacity:0.5;stroke-miterlimit:10;" d="M -2 -2 L -2 2 " transform="matrix(100,0,0,-100,500,200)"/>
<path style="fill:none;stroke-width:0.01;stroke-linecap:butt;stroke-linejoin:miter;stroke:rgb(100%,100%,100%);stroke-opacity:0.5;stroke-miterlimit:10;" d="M -1 -2 L -1 2 " transform="matrix(100,0,0,-100,500,200)"/>
<path style="fill:none;stroke-width:0.01;stroke-linecap:butt;stroke-linejoin:miter;stroke:rgb(100%,100%,100%);stroke-opacity:1;stroke-miterlimit:10;" d="M 0 -2 L 0 2 " transform="matrix(100,0,0,-100,500,200)"/>
<path style="fill:none;stroke-width:0.01;stroke-linecap:butt;stroke-linejoin:miter;stroke:rgb(100%,100%,100%);stroke-opacity:0.5;stroke-miterlimit:10;" d="M 1 -2 L 1 2 " transform="matrix(100,0,0,-100,500,200)"/>
<path style="fill:none;stroke-width:0.01;stroke-linecap:butt;stroke-linejoin:miter;stroke:rgb(100%,100%,100%);stroke-opacity:0.5;stroke-miterlimit:10;" d="M 2 -2 L 2 2 " transform="matrix(100,0,0,-100,500,200)"/>
<path style="fill:none;stroke-width:0.01;stroke-linecap:butt;stroke-linejoin:miter;stroke:rgb(100%,100%,100%);stroke-opacity:0.5;stroke-miterlimit:10;" d="M 3 -2 L 3 2 " transform="matrix(100,0,0,-100,500,200)"/>
<path style="fill:none;stroke-width:0.01;stroke-linecap:butt;stroke-linejoin:miter;stroke:rgb(100%,100%,100%);stroke-opacity:0.5;stroke-miterlimit:10;" d="M 4 -2 L 4 2 " transform="matrix(100,0,0,-100,500,200)"/>
<path style="fill:none;stroke-width:0.01;stroke-linecap:butt;stroke-linejoin:miter;stroke:rgb(100%,100%,100%);stroke-opacity:0.5;stroke-miterlimit:10;" d="M 5 -2 L 5 2 " transform="matrix(100,0,0,-100,500,200)"/>
<path style="fill:none;stroke-width:0.005;stroke-linecap:butt;stroke-linejoin:miter;stroke:rgb(100%,100%,100%);stroke-opacity:0.25;stroke-miterlimit:10;" d="M -4.75 -2 L -4.75 2 " transform="matrix(100,0,0,-100,500,200)"/>
<path style="fill:none;stroke-width:0.005;stroke-linecap:butt;stroke-linejoin:miter;stroke:rgb(100%,100%,100%);stroke-opacity:0.25;stroke-miterlimit:10;" d="M -4.5 -2 L -4.5 2 " transform="matrix(100,0,0,-100,500,200)"/>
<path style="fill:none;stroke-width:0.005;stroke-linecap:butt;stroke-linejoin:miter;stroke:rgb(100%,100%,100%);stroke-opacity:0.25;stroke-miterlimit:10;" d="M -4.25 -2 L -4.25 2 " transform="matrix(100,0,0,-100,500,200)"/>
<path style="fill:none;stroke-width:0.005;stroke-linecap:butt;stroke-linejoin:miter;stroke:rgb(100%,100%,100%);stroke-opacity:0.25;stroke-miterlimit:10;" d="M -3.75 -2 L -3.75 2 " transform="matrix(100,0,0,-100,500,200)"/>
<path style="fill:none;stroke-width:0.005;stroke-linecap:butt;stroke-linejoin:miter;stroke:rgb(100%,100%,100%);stroke-opacity:0.25;stroke-miterlimit:10;" d="M -3.5 -2 L -3.5 2 " transform="matrix(100,0,0,-100,500,200)"/>
<path style="fill:none;stroke-width:0.005;stroke-linecap:butt;stroke-linejoin:miter;stroke:rgb(100%,100%,100%);stroke-opacity:0.25;stroke-miterlimit:10;" d="M -3.25 -2 L -3.25 2 " transform="matrix(100,0,0,-100,500,200)"/>
<path style="fill:none;stroke-width:0.005;stroke-linecap:butt;stroke-linejoin:miter;stroke:rgb(100%,100%,100%);stroke-opacity:0.25;stroke-miterlimit:10;" d="M -2.75 -2 L -2.75 2 " transform="matrix(100,0,0,-100,500,200)"/>
<path style="fill:none;stroke-width:0.005;stroke-linecap:butt;stroke-linejoin:miter;stroke:rgb(100%,100%,100%);stroke-opacity:0.25;stroke-miterlimit:10;" d="M -2.5 -2 L -2.5 2 " transform="matrix(100,0,0,-100,500,200)"/>
<path style="fill:none;stroke-width:0.005;stroke-linecap:butt;stroke-linejoin:miter;stroke:rgb(100%,100%,100%);stroke-opacity:0.25;stroke-miterlimit:10;" d="M -2.25 -2 L -2.25 2 " transform="matrix(100,0,0,-100,500,200)"/>
<path style="fill:none;stroke-width:0.005;stroke-linecap:butt;stroke-linejoin:miter;stroke:rgb(100%,100%,100%);stroke-opacity:0.25;stroke-miterlimit:10;" d="M -1.75 -2 L -1.75 2 " transform="matrix(100,0,0,-100,500,200)"/>
<path style="fill:none;stroke-width:0.005;stroke-linecap:butt;stroke-linejoin:miter;stroke:rgb(100%,100%,100%);stroke-opacity:0.25;stroke-miterlimit:10;" d="M -1.5 -2 L -1.5 2 " transform="matrix(100,0,0,-100,500,200)"/>
<path style="fill:none;stroke-width:0.005;stroke-linecap:butt;stroke-linejoin:miter;stroke:rgb(100%,100%,100%);stroke-opacity:0.25;stroke-miterlimit:10;" d="M -1.25 -2 L -1.25 2 " transform="matrix(100,0,0,-100,500,200)"/>
<path style="fill:none;stroke-width:0.005;stroke-linecap:butt;stroke-linejoin:miter;stroke:rgb(100%,100%,100%);stroke-opacity:0.25;stroke-miterlimit:10;" d="M -0.75 -2 L -0.75 2 " transform="matrix(100,0,0,-100,500,200)"/>
<path style="fill:none;stroke-width:0.005;stroke-linecap:butt;stroke-linejoin:miter;stroke:rgb(100%,100%,100%);stroke-opacity:0.25;stroke-miterlimit:10;" d="M -0.5 -2 L -0.5 2 " transform="matrix(100,0,0,-100,500,200)"/>
<path style="fill:none;stroke-width:0.005;stroke-linecap:butt;stroke-linejoin:miter;stroke:rgb(100%,100%,100%);stroke-opacity:0.25;stroke-miterlimit:10;" d="M -0.25 -2 L -0.25 2 " transform="matrix(100,0,0,-100,500,200)"/>
<path style="fill:none;stroke-width:0.005;stroke-linecap:butt;stroke-linejoin:miter;stroke:rgb(100%,100%,100%);stroke-opacity:0.25;stroke-miterlimit:10;" d="M 0.25 -2 L 0.25 2 " transform="matrix(100,0,0,-100,500,200)"/>
<path style="fill:none;stroke-width:0.005;stroke-linecap:butt;stroke-linejoin:miter;stroke:rgb(100%,100%,100%);stroke-opacity:0.25;stroke-miterlimit:10;" d="M 0.5 -2 L 0.5 2 " transform="matrix(100,0,0,-100,500,200)"/>
<path style="fill:none;stroke-width:0.005;stroke-linecap:butt;stroke-linejoin:miter;stroke:rgb(100%,100%,100%);stroke-opacity:0.25;stroke-miterlimit:10;" d="M 0.75 -2 L 0.75 2 " transform="matrix(100,0,0,-100,500,200)"/>
<path style="fill:none;stroke-width:0.005;stroke-linecap:butt;stroke-linejoin:miter;stroke:rgb(100%,100%,100%);stroke-opacity:0.25;stroke-miterlimit:10;" d="M 1.25 -2 L 1.25 2 " transform="matrix(100,0,0,-100,500,200)"/>
<path style="fill:none;stroke-width:0.005;stroke-linecap:butt;stroke-linejoin:miter;stroke:rgb(100%,100%,100%);stroke-opacity:0.25;stroke-miterlimit:10;" d="M 1.5 -2 L 1.5 2 " transform="matrix(100,0,0,-100,500,200)"/>
<path style="fill:none;stroke-width:0.005;stroke-linecap:butt;stroke-linejoin:miter;stroke:rgb(100%,100%,100%);stroke-opacity:0.25;stroke-miterlimit:10;" d="M 1.75 -2 L 1.75 2 " transform="matrix(100,0,0,-100,500,200)"/>
<path style="fill:none;stroke-width:0.005;stroke-linecap:butt;stroke-linejoin:miter;stroke:rgb(100%,100%,100%);stroke-opacity:0.25;stroke-miterlimit:10;" d="M 2.25 -2 L 2.25 2 " transform="matrix(100,0,0,-100,500,200)"/>
<path style="fill:none;stroke-width:0.005;stroke-linecap:butt;stroke-linejoin:miter;stroke:rgb(100%,100%,100%);stroke-opacity:0.25;stroke-miterlimit:10;" d="M 2.5 -2 L 2.5 2 " transform="matrix(100,0,0,-100,500,200)"/>
<path style="fill:none;stroke-width:0.005;stroke-linecap:butt;stroke-linejoin:miter;stroke:rgb(100%,100%,100%);stroke-opacity:0.25;stroke-miterlimit:10;" d="M 2.75 -2 L 2.75 2 " transform="matrix(100,0,0,-100,500,200)"/>
<path style="fill:none;stroke-width:0.005;stroke-linecap:butt;stroke-linejoin:miter;stroke:rgb(100%,100%,100%);stroke-opacity:0.25;stroke-miterlimit:10;" d="M 3.25 -2 L 3.25 2 " transform="matrix(100,0,0,-100,500,200)"/>
<path style="fill:none;stroke-width:0.005;stroke-linecap:butt;stroke-linejoin:miter;stroke:rgb(100%,100%,100%);stroke-opacity:0.25;stroke-miterlimit:10;" d="M 3.5 -2 L 3.5 2 " transform="matrix(100,0,0,-100,500,200)"/>
<path style="fill:none;stroke-width:0.005;stroke-linecap:butt;stroke-linejoin:miter;stroke:rgb(100%,100%,100%);stroke-opacity:0.25;stroke-miterlimit:10;" d="M 3.75 -2 L 3.75 2 " transform="matrix(100,0,0,-100,500,200)"/>
<path style="fill:none;stroke-width:0.005;stroke-linecap:butt;stroke-linejoin:miter;stroke:rgb(100%,100%,100%);stroke-opacity:0.25;stroke-miterlimit:10;" d="M 4.25 -2 L 4.25 2 " transform="matrix(100,0,0,-100,500,200)"/>
<path style="fill:none;stroke-width:0.005;stroke-linecap:butt;stroke-linejoin:miter;stroke:rgb(100%,100%,100%);stroke-opacity:0.25;stroke-miterlimit:10;" d="M 4.5 -2 L 4.5 2 " transform="matrix(100,0,0,-100,500,200)"/>
<path style="fill:none;stroke-width:0.005;stroke-linecap:butt;stroke-linejoin:miter;stroke:rgb(100%,100%,100%);stroke-opacity:0.25;stroke-miterlimit:10;" d="M 4.75 -2 L 4.75 2 " transform="matrix(100,0,0,-100,500,200)"/>
<path style="fill:none;stroke-width:0.01;stroke-linecap:butt;stroke-linejoin:miter;stroke:rgb(100%,100%,100%);stroke-opacity:0.5;stroke-miterlimit:10;" d="M -5 -2 L 5 -2 " transform="matrix(100,0,0,-100,500,200)"/>
<path style="fill:none;stroke-width:0.01;stroke-linecap:butt;stroke-linejoin:miter;stroke:rgb(100%,100%,100%);stroke-opacity:0.5;stroke-miterlimit:10;" d="M -5 -1 L 5 -1 " transform="matrix(100,0,0,-100,500,200)"/>
<path style="fill:none;stroke-width:0.01;stroke-linecap:butt;stroke-linejoin:miter;stroke:rgb(100%,100%,100%);stroke-opacity:1;stroke-miterlimit:10;" d="M -5 0 L 5 0 " transform="matrix(100,0,0,-100,500,200)"/>
<path style="fill:none;stroke-width:0.01;stroke-linecap:butt;stroke-linejoin:miter;stroke:rgb(100%,100%,100%);stroke-opacity:0.5;stroke-miterlimit:10;" d="M -5 1 L 5 1 " transform="matrix(100,0,0,-100,500,200)"/>
<path style="fill:none;stroke-width:0.01;stroke-linecap:butt;stroke-linejoin:miter;stroke:rgb(100%,100%,100%);stroke-opacity:0.5;stroke-miterlimit:10;" d="M -5 2 L 5 2 " transform="matrix(100,0,0,-100,500,200)"/>
<path style="fill:none;stroke-width:0.005;stroke-linecap:butt;stroke-linejoin:miter;stroke:rgb(100%,100%,100%);stroke-opacity:0.25;stroke-miterlimit:10;" d="M -5 -1.75 L 5 -1.75 " transform="matrix(100,0,0,-100,500,200)"/>
<path style="fill:none;stroke-width:0.005;stroke-linecap:butt;stroke-linejoin:miter;stroke:rgb(100%,100%,100%);stroke-opacity:0.25;stroke-miterlimit:10;" d="M -5 -1.5 L 5 -1.5 " transform="matrix(100,0,0,-100,500,200)"/>
<path style="fill:none;stroke-width:0.005;stroke-linecap:butt;stroke-linejoin:miter;stroke:rgb(100%,100%,100%);stroke-opacity:0.25;stroke-miterlimit:10;" d="M -5 -1.25 L 5 -1.25 " transform="matrix(100,0,0,-100,500,200)"/>
<path style="fill:none;stroke-width:0.005;stroke-linecap:butt;stroke-linejoin:miter;stroke:rgb(100%,100%,100%);stroke-opacity:0.25;stroke-miterlimit:10;" d="M -5 -0.75 L 5 -0.75 " transform="matrix(100,0,0,-100,500,200)"/>
<path style="fill:none;stroke-width:0.005;stroke-linecap:butt;stroke-linejoin:miter;stroke:rgb(100%,100%,100%);stroke-opacity:0.25;stroke-miterlimit:10;" d="M -5 -0.5 L 5 -0.5 " transform="matrix(100,0,0,-100,500,200)"/>
<path style="fill:none;stroke-width:0.005;stroke-linecap:butt;stroke-linejoin:miter;stroke:rgb(100%,100%,100%);stroke-opacity:0.25;stroke-miterlimit:10;" d="M -5 -0.25 L 5 -0.25 " transform="matrix(100,0,0,-100,500,200)"/>
<path style="fill:none;stroke-width:0.005;stroke-linecap:butt;stroke-linejoin:miter;stroke:rgb(100%,100%,100%);stroke-opacity:0.25;stroke-miterlimit:10;" d="M -5 0.25 L 5 0.25 " transform="matrix(100,0,0,-100,500,200)"/>
<path style="fill:none;stroke-width:0.005;stroke-linecap:butt;stroke-linejoin:miter;stroke:rgb(100%,100%,100%);stroke-opacity:0.25;stroke-miterlimit:10;" d="M -5 0.5 L 5 0.5 " transform="matrix(100,0,0,-100,500,200)"/>
<path style="fill:none;stroke-width:0.005;stroke-linecap:butt;stroke-linejoin:miter;stroke:rgb(100%,100%,100%);stroke-opacity:0.25;stroke-miterlimit:10;" d="M -5 0.75 L 5 0.75 " transform="matrix(100,0,0,-100,500,200)"/>
<path style="fill:none;stroke-width:0.005;stroke-linecap:butt;stroke-linejoin:miter;stroke:rgb(100%,100%,100%);stroke-opacity:0.25;stroke-miterlimit:10;" d="M -5 1.25 L 5 1.25 " transform="matrix(100,0,0,-100,500,200)"/>
<path style="fill:none;stroke-width:0.005;stroke-linecap:butt;stroke-linejoin:miter;stroke:rgb(100%,100%,100%);stroke-opacity:0.25;stroke-miterlimit:10;" d="M -5 1.5 L 5 1.5 " transform="matrix(100,0,0,-100,500,200)"/>
<path style="fill:none;stroke-width:0.005;stroke-linecap:butt;stroke-linejoin:miter;stroke:rgb(100%,100%,100%);stroke-opacity:0.25;stroke-miterlimit:10;" d="M -5 1.75 L 5 1.75 " transform="matrix(100,0,0,-100,500,200)"/>
<path style="fill:none;stroke-width:0.03;stroke-linecap:butt;stroke-linejoin:miter;stroke:rgb(87.058824%,29.803922%,71.764706%);stroke-opacity:1;stroke-miterlimit:10;" d="M -5 -0.996758 L -4.99 -0.996719 L -4.98 -0.996719 L -4.97 -0.99668 L -4.96 -0.99668 L -4.95 -0.996641 L -4.94 -0.996641 L -4.93 -0.996602 L -4.92 -0.996602 L -4.91 -0.996563 L -4.9 -0.996563 L -4.89 -0.996523 L -4.88 -0.996523 L -4.87 -0.996484 L -4.86 -0.996484 L -4.84 -0.996406 L -4.83 -0.996406 L -4.82 -0.996367 L -4.81 -0.996367 L -4.8 -0.996328 L -4.79 -0.996328 L -4.77 -0.99625 L -4.76 -0.99625 L -4.75 -0.996211 L -4.74 -0.996211 L -4.72 -0.996133 L -4.71 -0.996133 L -4.69 -0.996055 L -4.68 -0.996055 L -4.66 -0.995977 L -4.65 -0.995977 L -4.63 -0.995898 L -4.62 -0.995898 L -4.6 -0.99582 L -4.59 -0.99582 L -4.57 -0.995742 L -4.56 -0.995742 L -4.53 -0.995625 L -4.52 -0.995625 L -4.49 -0.995508 L -4.48 -0.995508 L -4.44 -0.995352 L -4.43 -0.995352 L -4.39 -0.995195 L -4.38 -0.995195 L -4.31 -0.994922 L -4.3 -0.994922 L -4.11 -0.99418 L -4.1 -0.994102 L -4.04 -0.993867 L -4.03 -0.993789 L -3.99 -0.993633 L -3.98 -0.993555 L -3.95 -0.993438 L -3.94 -0.993359 L -3.92 -0.993281 L -3.91 -0.993203 L -3.89 -0.993125 L -3.88 -0.993047 L -3.86 -0.992969 L -3.85 -0.992891 L -3.84 -0.992852 L -3.83 -0.992773 L -3.82 -0.992734 L -3.81 -0.992656 L -3.8 -0.992617 L -3.79 -0.992539 L -3.78 -0.9925 L -3.77 -0.992422 L -3.76 -0.992383 L -3.75 -0.992305 L -3.74 -0.992266 L -3.72 -0.992109 L -3.71 -0.99207 L -3.7 -0.991992 L -3.69 -0.991953 L -3.66 -0.991719 L -3.65 -0.99168 L -3.61 -0.991367 L -3.6 -0.991328 L -3.46 -0.990234 L -3.45 -0.990117 L -3.42 -0.989883 L -3.41 -0.989766 L -3.39 -0.989609 L -3.38 -0.989492 L -3.36 -0.989336 L -3.35 -0.989219 L -3.34 -0.989141 L -3.33 -0.989023 L -3.32 -0.988945 L -3.3 -0.988711 L -3.29 -0.988633 L -3.27 -0.988398 L -3.26 -0.98832 L -3.13 -0.986797 L -3.12 -0.986641 L -3.1 -0.986406 L -3.09 -0.98625 L -3.08 -0.986133 L -3.07 -0.985977 L -3.06 -0.985859 L -3.05 -0.985703 L -3.04 -0.985586 L -3.02 -0.985273 L -3.01 -0.985156 L -2.93 -0.983906 L -2.92 -0.983711 L -2.9 -0.983398 L -2.89 -0.983203 L -2.88 -0.983047 L -2.87 -0.982852 L -2.86 -0.982695 L -2.82 -0.981914 L -2.81 -0.981758 L -2.8 -0.981523 L -2.76 -0.980742 L -2.75 -0.980508 L -2.74 -0.980313 L -2.73 -0.980078 L -2.72 -0.979883 L -2.65 -0.978242 L -2.64 -0.977969 L -2.63 -0.977734 L -2.62 -0.977461 L -2.61 -0.977227 L -2.55 -0.975586 L -2.54 -0.975273 L -2.53 -0.975 L -2.47 -0.973125 L -2.46 -0.972773 L -2.45 -0.972461 L -2.39 -0.970352 L -2.34 -0.968398 L -2.33 -0.967969 L -2.32 -0.967578 L -2.29 -0.966289 L -2.28 -0.96582 L -2.27 -0.965391 L -2.24 -0.963984 L -2.23 -0.963477 L -2.22 -0.963008 L -2.2 -0.961992 L -2.19 -0.961445 L -2.18 -0.960938 L -2.16 -0.959844 L -2.15 -0.959258 L -2.14 -0.958711 L -2.12 -0.957539 L -2.08 -0.955039 L -2.05 -0.953047 L -2.02 -0.950938 L -2 -0.949453 L -1.97 -0.947109 L -1.94 -0.944648 L -1.93 -0.943789 L -1.9 -0.941094 L -1.89 -0.940156 L -1.86 -0.937227 L -1.85 -0.936211 L -1.83 -0.934102 L -1.81 -0.931914 L -1.8 -0.930781 L -1.78 -0.928438 L -1.77 -0.927227 L -1.75 -0.924727 L -1.74 -0.923437 L -1.72 -0.920781 L -1.7 -0.917969 L -1.69 -0.916523 L -1.68 -0.915039 L -1.67 -0.913516 L -1.65 -0.910391 L -1.64 -0.90875 L -1.62 -0.905391 L -1.61 -0.903633 L -1.6 -0.901836 L -1.59 -0.9 L -1.58 -0.898125 L -1.57 -0.896211 L -1.55 -0.892227 L -1.53 -0.888008 L -1.52 -0.88582 L -1.51 -0.883594 L -1.5 -0.881328 L -1.48 -0.876562 L -1.46 -0.871563 L -1.45 -0.868945 L -1.44 -0.866289 L -1.43 -0.863516 L -1.42 -0.860703 L -1.41 -0.857852 L -1.4 -0.854883 L -1.39 -0.851836 L -1.38 -0.848711 L -1.37 -0.845508 L -1.36 -0.842188 L -1.35 -0.838828 L -1.34 -0.835352 L -1.33 -0.831758 L -1.32 -0.828086 L -1.31 -0.824336 L -1.3 -0.82043 L -1.29 -0.816445 L -1.28 -0.812383 L -1.27 -0.808164 L -1.26 -0.803867 L -1.25 -0.799414 L -1.24 -0.794844 L -1.23 -0.790156 L -1.22 -0.785312 L -1.21 -0.780391 L -1.2 -0.775273 L -1.19 -0.770039 L -1.18 -0.764687 L -1.17 -0.759141 L -1.16 -0.753477 L -1.15 -0.747617 L -1.14 -0.741641 L -1.13 -0.735469 L -1.12 -0.729141 L -1.11 -0.722656 L -1.1 -0.715977 L -1.09 -0.709141 L -1.08 -0.702109 L -1.07 -0.694883 L -1.06 -0.6875 L -1.05 -0.679922 L -1.04 -0.672148 L -1.03 -0.66418 L -1.02 -0.656016 L -1.01 -0.647656 L -1 -0.639102 L -0.99 -0.630352 L -0.98 -0.621406 L -0.97 -0.612266 L -0.96 -0.60293 L -0.95 -0.593398 L -0.94 -0.583672 L -0.93 -0.573789 L -0.92 -0.563672 L -0.91 -0.553438 L -0.9 -0.543008 L -0.89 -0.532422 L -0.88 -0.521641 L -0.87 -0.510742 L -0.86 -0.499727 L -0.85 -0.488555 L -0.84 -0.477266 L -0.83 -0.465859 L -0.82 -0.454375 L -0.81 -0.442813 L -0.8 -0.431211 L -0.79 -0.419531 L -0.78 -0.407812 L -0.76 -0.384297 L -0.74 -0.360859 L -0.73 -0.34918 L -0.72 -0.337578 L -0.71 -0.326055 L -0.7 -0.314609 L -0.69 -0.303281 L -0.68 -0.29207 L -0.67 -0.280977 L -0.66 -0.270039 L -0.65 -0.259258 L -0.64 -0.248672 L -0.63 -0.238281 L -0.62 -0.228047 L -0.61 -0.218047 L -0.6 -0.208242 L -0.59 -0.198672 L -0.58 -0.189336 L -0.57 -0.180234 L -0.56 -0.171367 L -0.55 -0.162734 L -0.54 -0.154375 L -0.53 -0.14625 L -0.52 -0.138398 L -0.51 -0.130781 L -0.5 -0.123438 L -0.49 -0.116328 L -0.48 -0.109492 L -0.47 -0.10293 L -0.46 -0.0966016 L -0.45 -0.0905078 L -0.44 -0.0846875 L -0.43 -0.0791016 L -0.42 -0.07375 L -0.41 -0.0686719 L -0.4 -0.0637891 L -0.39 -0.0591406 L -0.38 -0.0547266 L -0.37 -0.0505469 L -0.36 -0.0465625 L -0.35 -0.0428125 L -0.34 -0.0392578 L -0.33 -0.0358984 L -0.32 -0.0327344 L -0.31 -0.0297656 L -0.3 -0.0269922 L -0.29 -0.024375 L -0.28 -0.0219531 L -0.27 -0.0196875 L -0.26 -0.0175781 L -0.25 -0.015625 L -0.24 -0.0138281 L -0.23 -0.0121484 L -0.22 -0.0106641 L -0.21 -0.00925781 L -0.2 -0.00800781 L -0.19 -0.006875 L -0.18 -0.00582031 L -0.17 -0.00492187 L -0.16 -0.00410156 L -0.15 -0.00335938 L -0.14 -0.00273438 L -0.13 -0.0021875 L -0.12 -0.00171875 L -0.11 -0.00132813 L -0.1 -0.00101562 L -0.09 -0.000742188 L -0.08 -0.000507812 L -0.07 -0.000351563 L -0.05 -0.000117187 L -0.02 0 L 0.02 0 L 0.05 0.000117187 L 0.07 0.000351562 L 0.08 0.000507812 L 0.09 0.000742187 L 0.1 0.00101562 L 0.11 0.00132812 L 0.12 0.00171875 L 0.13 0.0021875 L 0.14 0.00273437 L 0.15 0.00335938 L 0.16 0.00410156 L 0.17 0.00492187 L 0.18 0.00582031 L 0.19 0.006875 L 0.2 0.00800781 L 0.21 0.00925781 L 0.22 0.0106641 L 0.23 0.0121484 L 0.24 0.0138281 L 0.25 0.015625 L 0.26 0.0175781 L 0.27 0.0196875 L 0.28 0.0219531 L 0.29 0.024375 L 0.3 0.0269922 L 0.31 0.0297656 L 0.32 0.0327344 L 0.33 0.0358984 L 0.34 0.0392578 L 0.35 0.0428125 L 0.36 0.0465625 L 0.37 0.0505469 L 0.38 0.0547266 L 0.39 0.0591406 L 0.4 0.0637891 L 0.41 0.0686719 L 0.42 0.07375 L 0.43 0.0791016 L 0.44 0.0846875 L 0.45 0.0905078 L 0.46 0.0966016 L 0.47 0.10293 L 0.48 0.109492 L 0.49 0.116328 L 0.5 0.123437 L 0.51 0.130781 L 0.52 0.138398 L 0.53 0.14625 L 0.54 0.154375 L 0.55 0.162734 L 0.56 0.171367 L 0.57 0.180234 L 0.58 0.189336 L 0.59 0.198672 L 0.6 0.208242 L 0.61 0.218047 L 0.62 0.228047 L 0.63 0.238281 L 0.64 0.248672 L 0.65 0.259258 L 0.66 0.270039 L 0.67 0.280977 L 0.68 0.29207 L 0.69 0.303281 L 0.7 0.314609 L 0.71 0.326055 L 0.72 0.337578 L 0.73 0.34918 L 0.74 0.360859 L 0.76 0.384297 L 0.78 0.407812 L 0.79 0.419531 L 0.8 0.431211 L 0.81 0.442813 L 0.82 0.454375 L 0.83 0.465859 L 0.84 0.477266 L 0.85 0.488555 L 0.86 0.499727 L 0.87 0.510742 L 0.88 0.521641 L 0.89 0.532422 L 0.9 0.543008 L 0.91 0.553438 L 0.92 0.563672 L 0.93 0.573789 L 0.94 0.583672 L 0.95 0.593398 L 0.96 0.60293 L 0.97 0.612266 L 0.98 0.621406 L 0.99 0.630352 L 1 0.639102 L 1.01 0.647656 L 1.02 0.656016 L 1.03 0.66418 L 1.04 0.672148 L 1.05 0.679922 L 1.06 0.6875 L 1.07 0.694883 L 1.08 0.702109 L 1.09 0.709141 L 1.1 0.715977 L 1.11 0.722656 L 1.12 0.729141 L 1.13 0.735469 L 1.14 0.741641 L 1.15 0.747617 L 1.16 0.753477 L 1.17 0.759141 L 1.18 0.764687 L 1.19 0.770039 L 1.2 0.775273 L 1.21 0.780391 L 1.22 0.785313 L 1.23 0.790156 L 1.24 0.794844 L 1.25 0.799414 L 1.26 0.803867 L 1.27 0.808164 L 1.28 0.812383 L 1.29 0.816445 L 1.3 0.82043 L 1.31 0.824336 L 1.32 0.828086 L 1.33 0.831758 L 1.34 0.835352 L 1.35 0.838828 L 1.36 0.842187 L 1.37 0.845508 L 1.38 0.848711 L 1.39 0.851836 L 1.4 0.854883 L 1.41 0.857852 L 1.42 0.860703 L 1.43 0.863516 L 1.44 0.866289 L 1.45 0.868945 L 1.46 0.871563 L 1.48 0.876562 L 1.5 0.881328 L 1.51 0.883594 L 1.52 0.88582 L 1.53 0.888008 L 1.55 0.892227 L 1.57 0.896211 L 1.58 0.898125 L 1.59 0.9 L 1.6 0.901836 L 1.61 0.903633 L 1.62 0.905391 L 1.64 0.90875 L 1.65 0.910391 L 1.67 0.913516 L 1.68 0.915039 L 1.69 0.916523 L 1.7 0.917969 L 1.72 0.920781 L 1.74 0.923437 L 1.75 0.924727 L 1.77 0.927227 L 1.78 0.928438 L 1.8 0.930781 L 1.81 0.931914 L 1.83 0.934102 L 1.85 0.936211 L 1.86 0.937227 L 1.89 0.940156 L 1.9 0.941094 L 1.93 0.943789 L 1.94 0.944648 L 1.97 0.947109 L 2 0.949453 L 2.02 0.950937 L 2.05 0.953047 L 2.08 0.955039 L 2.12 0.957539 L 2.14 0.958711 L 2.15 0.959258 L 2.16 0.959844 L 2.18 0.960938 L 2.19 0.961445 L 2.2 0.961992 L 2.22 0.963008 L 2.23 0.963477 L 2.24 0.963984 L 2.27 0.965391 L 2.28 0.96582 L 2.29 0.966289 L 2.32 0.967578 L 2.33 0.967969 L 2.34 0.968398 L 2.39 0.970352 L 2.45 0.972461 L 2.46 0.972773 L 2.47 0.973125 L 2.53 0.975 L 2.54 0.975273 L 2.55 0.975586 L 2.61 0.977227 L 2.62 0.977461 L 2.63 0.977734 L 2.64 0.977969 L 2.65 0.978242 L 2.72 0.979883 L 2.73 0.980078 L 2.74 0.980312 L 2.75 0.980508 L 2.76 0.980742 L 2.8 0.981523 L 2.81 0.981758 L 2.82 0.981914 L 2.86 0.982695 L 2.87 0.982852 L 2.88 0.983047 L 2.89 0.983203 L 2.9 0.983398 L 2.92 0.983711 L 2.93 0.983906 L 3.01 0.985156 L 3.02 0.985273 L 3.04 0.985586 L 3.05 0.985703 L 3.06 0.985859 L 3.07 0.985977 L 3.08 0.986133 L 3.09 0.98625 L 3.1 0.986406 L 3.12 0.986641 L 3.13 0.986797 L 3.26 0.98832 L 3.27 0.988398 L 3.29 0.988633 L 3.3 0.988711 L 3.32 0.988945 L 3.33 0.989023 L 3.34 0.989141 L 3.35 0.989219 L 3.36 0.989336 L 3.38 0.989492 L 3.39 0.989609 L 3.41 0.989766 L 3.42 0.989883 L 3.45 0.990117 L 3.46 0.990234 L 3.6 0.991328 L 3.61 0.991367 L 3.65 0.99168 L 3.66 0.991719 L 3.69 0.991953 L 3.7 0.991992 L 3.71 0.99207 L 3.72 0.992109 L 3.74 0.992266 L 3.75 0.992305 L 3.76 0.992383 L 3.77 0.992422 L 3.78 0.9925 L 3.79 0.992539 L 3.8 0.992617 L 3.81 0.992656 L 3.82 0.992734 L 3.83 0.992773 L 3.84 0.992852 L 3.85 0.992891 L 3.86 0.992969 L 3.88 0.993047 L 3.89 0.993125 L 3.91 0.993203 L 3.92 0.993281 L 3.94 0.993359 L 3.95 0.993437 L 3.98 0.993555 L 3.99 0.993633 L 4.03 0.993789 L 4.04 0.993867 L 4.1 0.994102 L 4.11 0.99418 L 4.3 0.994922 L 4.31 0.994922 L 4.38 0.995195 L 4.39 0.995195 L 4.43 0.995352 L 4.44 0.995352 L 4.48 0.995508 L 4.49 0.995508 L 4.52 0.995625 L 4.53 0.995625 L 4.56 0.995742 L 4.57 0.995742 L 4.59 0.99582 L 4.6 0.99582 L 4.62 0.995898 L 4.63 0.995898 L 4.65 0.995977 L 4.66 0.995977 L 4.68 0.996055 L 4.69 0.996055 L 4.71 0.996133 L 4.72 0.996133 L 4.74 0.996211 L 4.75 0.996211 L 4.76 0.99625 L 4.77 0.99625 L 4.79 0.996328 L 4.8 0.996328 L 4.81 0.996367 L 4.82 0.996367 L 4.83 0.996406 L 4.84 0.996406 L 4.86 0.996484 L 4.87 0.996484 L 4.88 0.996523 L 4.89 0.996523 L 4.9 0.996563 L 4.91 0.996563 L 4.92 0.996602 L 4.93 0.996602 L 4.94 0.996641 L 4.95 0.996641 L 4.96 0.99668 L 4.97 0.99668 L 4.98 0.996719 L 4.99 0.996719 L 5 0.996758 " transform="matrix(100,0,0,-100,500,200)"/>
</g>
</svg>
