<?xml version="1.0" encoding="UTF-8"?>
<svg xmlns="http://www.w3.org/2000/svg" xmlns:xlink="http://www.w3.org/1999/xlink" width="1000pt" height="500pt" viewBox="0 0 1000 500" version="1.1">
<g id="surface21">
<rect x="0" y="0" width="1000" height="500" style="fill:rgb(0%,0%,0%);fill-opacity:1;stroke:none;"/>
<path style="fill:none;stroke-width:0.01;stroke-linecap:butt;stroke-linejoin:miter;stroke:rgb(100%,100%,100%);stroke-opacity:0.5;stroke-miterlimit:10;" d="M -5 -3 L -5 2 " transform="matrix(100,0,0,-100,500,200)"/>
<path style="fill:none;stroke-width:0.01;stroke-linecap:butt;stroke-linejoin:miter;stroke:rgb(100%,100%,100%);stroke-opacity:0.5;stroke-miterlimit:10;" d="M -4 -3 L -4 2 " transform="matrix(100,0,0,-100,500,200)"/>
<path style="fill:none;stroke-width:0.01;stroke-linecap:butt;stroke-linejoin:miter;stroke:rgb(100%,100%,100%);stroke-opacity:0.5;stroke-miterlimit:10;" d="M -3 -3 L -3 2 " transform="matrix(100,0,0,-100,500,200)"/>
<path style="fill:none;stroke-width:0.01;stroke-linecap:butt;stroke-linejoin:miter;stroke:rgb(100%,100%,100%);stroke-opacity:0.5;stroke-miterlimit:10;" d="M -2 -3 L -2 2 " transform="matrix(100,0,0,-100,500,200)"/>
<path style="fill:none;stroke-width:0.01;stroke-linecap:butt;stroke-linejoin:miter;stroke:rgb(100%,100%,100%);stroke-opacity:0.5;stroke-miterlimit:10;" d="M -1 -3 L -1 2 " transform="matrix(100,0,0,-100,500,200)"/>
<path style="fill:none;stroke-width:0.01;stroke-linecap:butt;stroke-linejoin:miter;stroke:rgb(100%,100%,100%);stroke-opacity:1;stroke-miterlimit:10;" d="M 0 -3 L 0 2 " transform="matrix(100,0,0,-100,500,200)"/>
<path style="fill:none;stroke-width:0.01;stroke-linecap:butt;stroke-linejoin:miter;stroke:rgb(100%,100%,100%);stroke-opacity:0.5;stroke-miterlimit:10;" d="M 1 -3 L 1 2 " transform="matrix(100,0,0,-100,500,200)"/>
<path style="fill:none;stroke-width:0.01;stroke-linecap:butt;stroke-linejoin:miter;stroke:rgb(100%,100%,100%);stroke-opacity:0.5;stroke-miterlimit:10;" d="M 2 -3 L 2 2 " transform="matrix(100,0,0,-100,500,200)"/>
<path style="fill:none;stroke-width:0.01;stroke-linecap:butt;stroke-linejoin:miter;stroke:rgb(100%,100%,100%);stroke-opacity:0.5;stroke-miterlimit:10;" d="M 3 -3 L 3 2 " transform="matrix(100,0,0,-100,500,200)"/>
<path style="fill:none;stroke-width:0.01;stroke-linecap:butt;stroke-linejoin:miter;stroke:rgb(100%,100%,100%);stroke-opacity:0.5;stroke-miterlimit:10;" d="M 4 -3 L 4 2 " transform="matrix(100,0,0,-100,500,200)"/>
<path style="fill:none;stroke-width:0.01;stroke-linecap:butt;stroke-linejoin:miter;stroke:rgb(100%,100%,100%);stroke-opacity:0.5;stroke-miterlimit:10;" d="M 5 -3 L 5 2 " transform="matrix(100,0,0,-100,500,200)"/>
<path style="fill:none;stroke-width:0.005;stroke-linecap:butt;stroke-linejoin:miter;stroke:rgb(100%,100%,100%);stroke-opacity:0.25;stroke-miterlimit:10;" d="M -4.75 -3 L -4.75 2 " transform="matrix(100,0,0,-100,500,200)"/>
<path style="fill:none;stroke-width:0.005;stroke-linecap:butt;stroke-linejoin:miter;stroke:rgb(100%,100%,100%);stroke-opacity:0.25;stroke-miterlimit:10;" d="M -4.5 -3 L -4.5 2 " transform="matrix(100,0,0,-100,500,200)"/>
<path style="fill:none;stroke-width:0.005;stroke-linecap:butt;stroke-linejoin:miter;stroke:rgb(100%,100%,100%);stroke-opacity:0.25;stroke-miterlimit:10;" d="M -4.25 -3 L -4.25 2 " transform="matrix(100,0,0,-100,500,200)"/>
<path style="fill:none;stroke-width:0.005;stroke-linecap:butt;stroke-linejoin:miter;stroke:rgb(100%,100%,100%);stroke-opacity:0.25;stroke-miterlimit:10;" d="M -3.75 -3 L -3.75 2 " transform="matrix(100,0,0,-100,500,200)"/>
<path style="fill:none;stroke-width:0.005;stroke-linecap:butt;stroke-linejoin:miter;stroke:rgb(100%,100%,100%);stroke-opacity:0.25;stroke-miterlimit:10;" d="M -3.5 -3 L -3.5 2 " transform="matrix(100,0,0,-100,500,200)"/>
<path style="fill:none;stroke-width:0.005;stroke-linecap:butt;stroke-linejoin:miter;stroke:rgb(100%,100%,100%);stroke-opacity:0.25;stroke-miterlimit:10;" d="M -3.25 -3 L -3.25 2 " transform="matrix(100,0,0,-100,500,200)"/>
<path style="fill:none;stroke-width:0.005;stroke-linecap:butt;stroke-linejoin:miter;stroke:rgb(100%,100%,100%);stroke-opacity:0.25;stroke-miterlimit:10;" d="M -2.75 -3 L -2.75 2 " transform="matrix(100,0,0,-100,500,200)"/>
<path style="fill:none;stroke-width:0.005;stroke-linecap:butt;stroke-linejoin:miter;stroke:rgb(100%,100%,100%);stroke-opacity:0.25;stroke-miterlimit:10;" d="M -2.5 -3 L -2.5 2 " transform="matrix(100,0,0,-100,500,200)"/>
<path style="fill:none;stroke-width:0.005;stroke-linecap:butt;stroke-linejoin:miter;stroke:rgb(100%,100%,100%);stroke-opacity:0.25;stroke-miterlimit:10;" d="M -2.25 -3 L -2.25 2 " transform="matrix(100,0,0,-100,500,200)"/>
<path style="fill:none;stroke-width:0.005;stroke-linecap:butt;stroke-linejoin:miter;stroke:rgb(100%,100%,100%);stroke-opacity:0.25;stroke-miterlimit:10;" d="M -1.75 -3 L -1.75 2 " transform="matrix(100,0,0,-100,500,200)"/>
<path style="fill:none;stroke-width:0.005;stroke-linecap:butt;stroke-linejoin:miter;stroke:rgb(100%,100%,100%);stroke-opacity:0.25;stroke-miterlimit:10;" d="M -1.5 -3 L -1.5 2 " transform="matrix(100,0,0,-100,500,200)"/>
<path style="fill:none;stroke-width:0.005;stroke-linecap:butt;stroke-linejoin:miter;stroke:rgb(100%,100%,100%);stroke-opacity:0.25;stroke-miterlimit:10;" d="M -1.25 -3 L -1.25 2 " transform="matrix(100,0,0,-100,500,200)"/>
<path style="fill:none;stroke-width:0.005;stroke-linecap:butt;stroke-linejoin:miter;stroke:rgb(100%,100%,100%);stroke-opacity:0.25;stroke-miterlimit:10;" d="M -0.75 -3 L -0.75 2 " transform="matrix(100,0,0,-100,500,200)"/>
<path style="fill:none;stroke-width:0.005;stroke-linecap:butt;stroke-linejoin:miter;stroke:rgb(100%,100%,100%);stroke-opacity:0.25;stroke-miterlimit:10;" d="M -0.5 -3 L -0.5 2 " transform="matrix(100,0,0,-100,500,200)"/>
<path style="fill:none;stroke-width:0.005;stroke-linecap:butt;stroke-linejoin:miter;stroke:rgb(100%,100%,100%);stroke-opacity:0.25;stroke-miterlimit:10;" d="M -0.25 -3 L -0.25 2 " transform="matrix(100,0,0,-100,500,200)"/>
<path style="fill:none;stroke-width:0.005;stroke-linecap:butt;stroke-linejoin:miter;stroke:rgb(100%,100%,100%);stroke-opacity:0.25;stroke-miterlimit:10;" d="M 0.25 -3 L 0.25 2 " transform="matrix(100,0,0,-100,500,200)"/>
<path style="fill:none;stroke-width:0.005;stroke-linecap:butt;stroke-linejoin:miter;stroke:rgb(100%,100%,100%);stroke-opacity:0.25;stroke-miterlimit:10;" d="M 0.5 -3 L 0.5 2 " transform="matrix(100,0,0,-100,500,200)"/>
<path style="fill:none;stroke-width:0.005;stroke-linecap:butt;stroke-linejoin:miter;stroke:rgb(100%,100%,100%);stroke-opacity:0.25;stroke-miterlimit:10;" d="M 0.75 -3 L 0.75 2 " transform="matrix(100,0,0,-100,500,200)"/>
<path style="fill:none;stroke-width:0.005;stroke-linecap:butt;stroke-linejoin:miter;stroke:rgb(100%,100%,100%);stroke-opacity:0.25;stroke-miterlimit:10;" d="M 1.25 -3 L 1.25 2 " transform="matrix(100,0,0,-100,500,200)"/>
<path style="fill:none;stroke-width:0.005;stroke-linecap:butt;stroke-linejoin:miter;stroke:rgb(100%,100%,100%);stroke-opacity:0.25;stroke-miterlimit:10;" d="M 1.5 -3 L 1.5 2 " transform="matrix(100,0,0,-100,500,200)"/>
<path style="fill:none;stroke-width:0.005;stroke-linecap:butt;stroke-linejoin:miter;stroke:rgb(100%,100%,100%);stroke-opacity:0.25;stroke-miterlimit:10;" d="M 1.75 -3 L 1.75 2 " transform="matrix(100,0,0,-100,500,200)"/>
<path style="fill:none;stroke-width:0.005;stroke-linecap:butt;stroke-linejoin:miter;stroke:rgb(100%,100%,100%);stroke-opacity:0.25;stroke-miterlimit:10;" d="M 2.25 -3 L 2.25 2 " transform="matrix(100,0,0,-100,500,200)"/>
<path style="fill:none;stroke-width:0.005;stroke-linecap:butt;stroke-linejoin:miter;stroke:rgb(100%,100%,100%);stroke-opacity:0.25;stroke-miterlimit:10;" d="M 2.5 -3 L 2.5 2 " transform="matrix(100,0,0,-100,500,200)"/>
<path style="fill:none;stroke-width:0.005;stroke-linecap:butt;stroke-linejoin:miter;stroke:rgb(100%,100%,100%);stroke-opacity:0.25;stroke-miterlimit:10;" d="M 2.75 -3 L 2.75 2 " transform="matrix(100,0,0,-100,500,200)"/>
<path style="fill:none;stroke-width:0.005;stroke-linecap:butt;stroke-linejoin:miter;stroke:rgb(100%,100%,100%);stroke-opacity:0.25;stroke-miterlimit:10;" d="M 3.25 -3 L 3.25 2 " transform="matrix(100,0,0,-100,500,200)"/>
<path style="fill:none;stroke-width:0.005;stroke-linecap:butt;stroke-linejoin:miter;stroke:rgb(100%,100%,100%);stroke-opacity:0.25;stroke-miterlimit:10;" d="M 3.5 -3 L 3.5 2 " transform="matrix(100,0,0,-100,500,200)"/>
<path style="fill:none;stroke-width:0.005;stroke-linecap:butt;stroke-linejoin:miter;stroke:rgb(100%,100%,100%);stroke-opacity:0.25;stroke-miterlimit:10;" d="M 3.75 -3 L 3.75 2 " transform="matrix(100,0,0,-100,500,200)"/>
<path style="fill:none;stroke-width:0.005;stroke-linecap:butt;stroke-linejoin:miter;stroke:rgb(100%,100%,100%);stroke-opacity:0.25;stroke-miterlimit:10;" d="M 4.25 -3 L 4.25 2 " transform="matrix(100,0,0,-100,500,200)"/>
<path style="fill:none;stroke-width:0.005;stroke-linecap:butt;stroke-linejoin:miter;stroke:rgb(100%,100%,100%);stroke-opacity:0.25;stroke-miterlimit:10;" d="M 4.5 -3 L 4.5 2 " transform="matrix(100,0,0,-100,500,200)"/>
<path style="fill:none;stroke-width:0.005;stroke-linecap:butt;stroke-linejoin:miter;stroke:rgb(100%,100%,100%);stroke-opacity:0.25;stroke-miterlimit:10;" d="M 4.75 -3 L 4.75 2 " transform="matrix(100,0,0,-100,500,200)"/>
<path style="fill:none;stroke-width:0.01;stroke-linecap:butt;stroke-linejoin:miter;stroke:rgb(100%,100%,100%);stroke-opacity:0.5;stroke-miterlimit:10;" d="M -5 -3 L 5 -3 " transform="matrix(100,0,0,-100,500,200)"/>
<path style="fill:none;stroke-width:0.01;stroke-linecap:butt;stroke-linejoin:miter;stroke:rgb(100%,100%,100%);stroke-opacity:0.5;stroke-miterlimit:10;" d="M -5 -2 L 5 -2 " transform="matrix(100,0,0,-100,500,200)"/>
<path style="fill:none;stroke-width:0.01;stroke-linecap:butt;stroke-linejoin:miter;stroke:rgb(100%,100%,100%);stroke-opacity:0.5;stroke-miterlimit:10;" d="M -5 -1 L 5 -1 " transform="matrix(100,0,0,-100,500,200)"/>
<path style="fill:none;stroke-width:0.01;stroke-linecap:butt;stroke-linejoin:miter;stroke:rgb(100%,100%,100%);stroke-opacity:1;stroke-miterlimit:10;" d="M -5 0 L 5 0 " transform="matrix(100,0,0,-100,500,200)"/>
<path style="fill:none;stroke-width:0.01;stroke-linecap:butt;stroke-linejoin:miter;stroke:rgb(100%,100%,100%);stroke-opacity:0.5;stroke-miterlimit:10;" d="M -5 1 L 5 1 " transform="matrix(100,0,0,-100,500,200)"/>
<path style="fill:none;stroke-width:0.01;stroke-linecap:butt;stroke-linejoin:miter;stroke:rgb(100%,100%,100%);stroke-opacity:0.5;stroke-miterlimit:10;" d="M -5 2 L 5 2 " transform="matrix(100,0,0,-100,500,200)"/>
<path style="fill:none;stroke-width:0.005;stroke-linecap:butt;stroke-linejoin:miter;stroke:rgb(100%,100%,100%);stroke-opacity:0.25;stroke-miterlimit:10;" d="M -5 -2.75 L 5 -2.75 " transform="matrix(100,0,0,-100,500,200)"/>
<path style="fill:none;stroke-width:0.005;stroke-linecap:butt;stroke-linejoin:miter;stroke:rgb(100%,100%,100%);stroke-opacity:0.25;stroke-miterlimit:10;" d="M -5 -2.5 L 5 -2.5 " transform="matrix(100,0,0,-100,500,200)"/>
<path style="fill:none;stroke-width:0.005;stroke-linecap:butt;stroke-linejoin:miter;stroke:rgb(100%,100%,100%);stroke-opacity:0.25;stroke-miterlimit:10;" d="M -5 -2.25 L 5 -2.25 " transform="matrix(100,0,0,-100,500,200)"/>
<path style="fill:none;stroke-width:0.005;stroke-linecap:butt;stroke-linejoin:miter;stroke:rgb(100%,100%,100%);stroke-opacity:0.25;stroke-miterlimit:10;" d="M -5 -1.75 L 5 -1.75 " transform="matrix(100,0,0,-100,500,200)"/>
<path style="fill:none;stroke-width:0.005;stroke-linecap:butt;stroke-linejoin:miter;stroke:rgb(100%,100%,100%);stroke-opacity:0.25;stroke-miterlimit:10;" d="M -5 -1.5 L 5 -1.5 " transform="matrix(100,0,0,-100,500,200)"/>
<path style="fill:none;stroke-width:0.005;stroke-linecap:butt;stroke-linejoin:miter;stroke:rgb(100%,100%,100%);stroke-opacity:0.25;stroke-miterlimit:10;" d="M -5 -1.25 L 5 -1.25 " transform="matrix(100,0,0,-100,500,200)"/>
<path style="fill:none;stroke-width:0.005;stroke-linecap:butt;stroke-linejoin:miter;stroke:rgb(100%,100%,100%);stroke-opacity:0.25;stroke-miterlimit:10;" d="M -5 -0.75 L 5 -0.75 " transform="matrix(100,0,0,-100,500,200)"/>
<path style="fill:none;stroke-width:0.005;stroke-linecap:butt;stroke-linejoin:miter;stroke:rgb(100%,100%,100%);stroke-opacity:0.25;stroke-miterlimit:10;" d="M -5 -0.5 L 5 -0.5 " transform="matrix(100,0,0,-100,500,200)"/>
<path style="fill:none;stroke-width:0.005;stroke-linecap:butt;stroke-linejoin:miter;stroke:rgb(100%,100%,100%);stroke-opacity:0.25;stroke-miterlimit:10;" d="M -5 -0.25 L 5 -0.25 " transform="matrix(100,0,0,-100,500,200)"/>
<path style="fill:none;stroke-width:0.005;stroke-linecap:butt;stroke-linejoin:miter;stroke:rgb(100%,100%,100%);stroke-opacity:0.25;stroke-miterlimit:10;" d="M -5 0.25 L 5 0.25 " transform="matrix(100,0,0,-100,500,200)"/>
<path style="fill:none;stroke-width:0.005;stroke-linecap:butt;stroke-linejoin:miter;stroke:rgb(100%,100%,100%);stroke-opacity:0.25;stroke-miterlimit:10;" d="M -5 0.5 L 5 0.5 " transform="matrix(100,0,0,-100,500,200)"/>
<path style="fill:none;stroke-width:0.005;stroke-linecap:butt;stroke-linejoin:miter;stroke:rgb(100%,100%,100%);stroke-opacity:0.25;stroke-miterlimit:10;" d="M -5 0.75 L 5 0.75 " transform="matrix(100,0,0,-100,500,200)"/>
<path style="fill:none;stroke-width:0.005;stroke-linecap:butt;stroke-linejoin:miter;stroke:rgb(100%,100%,100%);stroke-opacity:0.25;stroke-miterlimit:10;" d="M -5 1.25 L 5 1.25 " transform="matrix(100,0,0,-100,500,200)"/>
<path style="fill:none;stroke-width:0.005;stroke-linecap:butt;stroke-linejoin:miter;stroke:rgb(100%,100%,100%);stroke-opacity:0.25;stroke-miterlimit:10;" d="M -5 1.5 L 5 1.5 " transform="matrix(100,0,0,-100,500,200)"/>
<path style="fill:none;stroke-width:0.005;stroke-linecap:butt;stroke-linejoin:miter;stroke:rgb(100%,100%,100%);stroke-opacity:0.25;stroke-miterlimit:10;" d="M -5 1.75 L 5 1.75 " transform="matrix(100,0,0,-100,500,200)"/>
<path style="fill:none;stroke-width:0.03;stroke-linecap:butt;stroke-linejoin:miter;stroke:rgb(87.058824%,29.803922%,71.764706%);stroke-opacity:1;stroke-miterlimit:10;" d="M -5 -2.546094 L -4.96 -2.542969 L -4.95 -2.542148 L -4.94 -2.541367 L -4.93 -2.540547 L -4.92 -2.539766 L -4.89 -2.537305 L -4.88 -2.536445 L -4.87 -2.535625 L -4.86 -2.534766 L -4.85 -2.533945 L -4.82 -2.531367 L -4.81 -2.530469 L -4.8 -2.529609 L -4.79 -2.528711 L -4.78 -2.527852 L -4.74 -2.524258 L -4.73 -2.52332 L -4.72 -2.522422 L -4.66 -2.516797 L -4.59 -2.509961 L -4.53 -2.503867 L -4.52 -2.502813 L -4.51 -2.501797 L -4.48 -2.498633 L -4.47 -2.497539 L -4.46 -2.496484 L -4.45 -2.495391 L -4.44 -2.494336 L -4.42 -2.492148 L -4.41 -2.491016 L -4.4 -2.489922 L -4.39 -2.488789 L -4.38 -2.487695 L -4.35 -2.484297 L -4.34 -2.483125 L -4.33 -2.481992 L -4.29 -2.477305 L -4.28 -2.476094 L -4.27 -2.474922 L -4.22 -2.468867 L -4.16 -2.461367 L -4.11 -2.454922 L -4.1 -2.453594 L -4.09 -2.452305 L -4.07 -2.449648 L -4.06 -2.448281 L -4.05 -2.446953 L -4.04 -2.445586 L -4.03 -2.444258 L -4.02 -2.442891 L -4.01 -2.441484 L -3.99 -2.43875 L -3.95 -2.433125 L -3.89 -2.424453 L -3.85 -2.418516 L -3.84 -2.416992 L -3.83 -2.415508 L -3.8 -2.410938 L -3.79 -2.409375 L -3.78 -2.407852 L -3.76 -2.404727 L -3.75 -2.403125 L -3.74 -2.401562 L -3.7 -2.395156 L -3.65 -2.386953 L -3.61 -2.380234 L -3.6 -2.378516 L -3.59 -2.376836 L -3.58 -2.375117 L -3.57 -2.373359 L -3.56 -2.371641 L -3.52 -2.364609 L -3.51 -2.362813 L -3.5 -2.361055 L -3.49 -2.359258 L -3.48 -2.357422 L -3.47 -2.355625 L -3.44 -2.350117 L -3.43 -2.348242 L -3.42 -2.346406 L -3.41 -2.344531 L -3.4 -2.342617 L -3.39 -2.340742 L -3.35 -2.333086 L -3.32 -2.327227 L -3.27 -2.317266 L -3.25 -2.313203 L -3.24 -2.311133 L -3.23 -2.309102 L -3.21 -2.304961 L -3.2 -2.302852 L -3.19 -2.300781 L -3.18 -2.298672 L -3.17 -2.296523 L -3.16 -2.294414 L -3.14 -2.290117 L -3.13 -2.28793 L -3.12 -2.285781 L -3.11 -2.283594 L -3.1 -2.281367 L -3.09 -2.27918 L -3.07 -2.274727 L -3.06 -2.272461 L -3.05 -2.270234 L -3.04 -2.26793 L -3.03 -2.265664 L -3 -2.25875 L -2.96 -2.249375 L -2.95 -2.246992 L -2.94 -2.24457 L -2.93 -2.242188 L -2.91 -2.237344 L -2.87 -2.2275 L -2.86 -2.225 L -2.85 -2.222461 L -2.84 -2.219961 L -2.83 -2.217422 L -2.82 -2.214844 L -2.81 -2.212305 L -2.8 -2.209727 L -2.79 -2.207109 L -2.78 -2.204531 L -2.77 -2.201875 L -2.76 -2.199258 L -2.74 -2.193945 L -2.71 -2.185859 L -2.69 -2.180391 L -2.66 -2.17207 L -2.64 -2.166445 L -2.62 -2.160742 L -2.61 -2.157852 L -2.6 -2.155 L -2.56 -2.143281 L -2.55 -2.140313 L -2.52 -2.131289 L -2.51 -2.128242 L -2.5 -2.125156 L -2.49 -2.122109 L -2.48 -2.118984 L -2.47 -2.115898 L -2.46 -2.112734 L -2.45 -2.109609 L -2.44 -2.106406 L -2.43 -2.103242 L -2.42 -2.1 L -2.41 -2.096797 L -2.4 -2.093555 L -2.38 -2.086992 L -2.37 -2.083672 L -2.36 -2.080312 L -2.35 -2.076992 L -2.32 -2.066797 L -2.31 -2.063359 L -2.29 -2.056406 L -2.27 -2.049375 L -2.25 -2.042266 L -2.24 -2.038672 L -2.22 -2.031406 L -2.21 -2.027734 L -2.19 -2.020313 L -2.17 -2.012812 L -2.16 -2.009023 L -2.14 -2.001367 L -2.13 -1.9975 L -2.11 -1.989688 L -2.1 -1.985742 L -2.09 -1.981758 L -2.07 -1.973711 L -2.06 -1.969648 L -2.04 -1.961445 L -2.03 -1.957305 L -2.02 -1.953125 L -2 -1.944688 L -1.99 -1.94043 L -1.98 -1.936133 L -1.97 -1.931797 L -1.95 -1.923047 L -1.94 -1.918633 L -1.93 -1.91418 L -1.92 -1.909687 L -1.91 -1.905156 L -1.89 -1.896016 L -1.87 -1.886719 L -1.86 -1.882031 L -1.85 -1.877305 L -1.84 -1.872539 L -1.83 -1.867734 L -1.82 -1.862891 L -1.81 -1.858008 L -1.79 -1.848164 L -1.78 -1.843164 L -1.77 -1.838125 L -1.75 -1.827969 L -1.74 -1.822812 L -1.73 -1.817617 L -1.72 -1.812383 L -1.71 -1.807109 L -1.7 -1.801797 L -1.69 -1.796445 L -1.68 -1.791055 L -1.67 -1.785625 L -1.66 -1.780117 L -1.64 -1.769023 L -1.63 -1.763398 L -1.62 -1.757734 L -1.6 -1.74625 L -1.59 -1.74043 L -1.58 -1.73457 L -1.57 -1.728672 L -1.55 -1.716719 L -1.54 -1.710664 L -1.52 -1.698398 L -1.51 -1.692188 L -1.5 -1.685938 L -1.49 -1.679609 L -1.48 -1.673242 L -1.46 -1.660352 L -1.44 -1.647227 L -1.43 -1.640586 L -1.42 -1.633867 L -1.41 -1.627109 L -1.4 -1.620313 L -1.39 -1.613437 L -1.38 -1.606484 L -1.37 -1.599492 L -1.36 -1.592422 L -1.35 -1.585313 L -1.34 -1.578125 L -1.33 -1.570898 L -1.32 -1.563594 L -1.31 -1.556211 L -1.3 -1.548789 L -1.29 -1.541289 L -1.28 -1.53375 L -1.27 -1.526133 L -1.26 -1.518438 L -1.25 -1.510664 L -1.24 -1.502852 L -1.23 -1.494961 L -1.22 -1.486992 L -1.21 -1.478945 L -1.2 -1.470859 L -1.19 -1.462695 L -1.18 -1.454453 L -1.17 -1.446133 L -1.16 -1.437734 L -1.15 -1.429258 L -1.14 -1.420742 L -1.13 -1.412148 L -1.12 -1.403477 L -1.11 -1.394727 L -1.1 -1.385898 L -1.09 -1.376992 L -1.08 -1.368008 L -1.07 -1.358945 L -1.06 -1.349805 L -1.05 -1.340625 L -1.04 -1.331328 L -1.03 -1.321953 L -1.02 -1.312539 L -1.01 -1.303008 L -1 -1.293398 L -0.99 -1.283711 L -0.98 -1.273984 L -0.97 -1.264141 L -0.96 -1.254219 L -0.95 -1.244219 L -0.94 -1.234141 L -0.93 -1.223984 L -0.92 -1.21375 L -0.91 -1.203438 L -0.9 -1.193008 L -0.89 -1.182539 L -0.88 -1.171953 L -0.87 -1.161328 L -0.86 -1.150586 L -0.85 -1.139766 L -0.84 -1.128906 L -0.83 -1.11793 L -0.82 -1.106875 L -0.81 -1.095742 L -0.8 -1.084492 L -0.79 -1.073203 L -0.78 -1.061836 L -0.77 -1.050352 L -0.76 -1.038828 L -0.75 -1.027188 L -0.74 -1.015508 L -0.73 -1.003711 L -0.72 -0.991836 L -0.71 -0.979922 L -0.7 -0.967891 L -0.69 -0.955781 L -0.68 -0.943633 L -0.67 -0.931367 L -0.66 -0.919062 L -0.65 -0.906641 L -0.64 -0.89418 L -0.63 -0.881641 L -0.62 -0.869023 L -0.61 -0.856328 L -0.6 -0.843555 L -0.59 -0.830703 L -0.58 -0.817813 L -0.57 -0.804844 L -0.56 -0.791797 L -0.55 -0.778672 L -0.54 -0.765508 L -0.53 -0.752266 L -0.52 -0.738984 L -0.5 -0.712188 L -0.49 -0.698711 L -0.48 -0.685156 L -0.47 -0.671562 L -0.46 -0.65793 L -0.45 -0.644219 L -0.44 -0.630469 L -0.42 -0.602813 L -0.41 -0.588906 L -0.4 -0.574961 L -0.39 -0.560977 L -0.38 -0.546953 L -0.37 -0.532891 L -0.35 -0.504609 L -0.33 -0.47625 L -0.31 -0.447734 L -0.3 -0.433438 L -0.28 -0.404766 L -0.26 -0.376016 L -0.23 -0.332773 L -0.18 -0.260508 L -0.17 -0.246016 L -0.16 -0.231562 L -0.15 -0.21707 L -0.09 -0.130352 L -0.08 -0.115938 L -0.07 -0.101484 L -0.06 -0.0870703 L -0.05 -0.0726172 L -0.04 -0.0582031 L -0.03 -0.04375 L -0.02 -0.0292578 L -0.01 -0.0146875 L 0 0 L 0.01 0.0145703 L 0.02 0.02875 L 0.03 0.0426172 L 0.04 0.0562109 L 0.05 0.0696094 L 0.06 0.0828125 L 0.07 0.0958203 L 0.08 0.108672 L 0.09 0.121328 L 0.1 0.133828 L 0.11 0.146172 L 0.12 0.158359 L 0.13 0.170391 L 0.14 0.182305 L 0.15 0.194063 L 0.16 0.205664 L 0.17 0.217148 L 0.18 0.228516 L 0.19 0.239766 L 0.2 0.250859 L 0.21 0.261836 L 0.22 0.272695 L 0.23 0.283398 L 0.24 0.294023 L 0.25 0.304531 L 0.26 0.314883 L 0.27 0.325156 L 0.28 0.335312 L 0.29 0.345312 L 0.3 0.355234 L 0.31 0.365039 L 0.32 0.374727 L 0.33 0.384297 L 0.34 0.39375 L 0.35 0.403125 L 0.36 0.412383 L 0.37 0.421484 L 0.38 0.430547 L 0.39 0.439453 L 0.4 0.448281 L 0.41 0.456992 L 0.42 0.465586 L 0.43 0.474063 L 0.44 0.482461 L 0.45 0.490742 L 0.46 0.498945 L 0.47 0.507031 L 0.48 0.515 L 0.49 0.522891 L 0.5 0.530664 L 0.51 0.538359 L 0.52 0.545937 L 0.53 0.553398 L 0.54 0.560781 L 0.55 0.568086 L 0.56 0.575273 L 0.57 0.582344 L 0.58 0.589336 L 0.59 0.59625 L 0.6 0.603047 L 0.61 0.609766 L 0.62 0.616367 L 0.63 0.622891 L 0.64 0.629336 L 0.65 0.635664 L 0.66 0.641914 L 0.67 0.648086 L 0.68 0.65418 L 0.69 0.660156 L 0.7 0.666055 L 0.71 0.671875 L 0.72 0.677617 L 0.73 0.683242 L 0.74 0.688789 L 0.75 0.694258 L 0.76 0.699648 L 0.77 0.704961 L 0.78 0.710195 L 0.79 0.715352 L 0.8 0.72043 L 0.81 0.72543 L 0.82 0.730352 L 0.83 0.735156 L 0.84 0.739922 L 0.85 0.744609 L 0.86 0.749219 L 0.87 0.753789 L 0.88 0.758242 L 0.89 0.762617 L 0.9 0.766953 L 0.91 0.771211 L 0.92 0.775391 L 0.93 0.779492 L 0.94 0.783555 L 0.95 0.787539 L 0.96 0.791445 L 0.97 0.795312 L 0.98 0.799102 L 0.99 0.802812 L 1 0.806484 L 1.01 0.810078 L 1.02 0.813594 L 1.03 0.81707 L 1.04 0.820508 L 1.05 0.823867 L 1.06 0.827148 L 1.07 0.830391 L 1.08 0.833594 L 1.09 0.836719 L 1.1 0.839805 L 1.11 0.842812 L 1.12 0.845781 L 1.13 0.848711 L 1.14 0.851602 L 1.15 0.854414 L 1.16 0.857187 L 1.18 0.862578 L 1.19 0.865195 L 1.2 0.867773 L 1.22 0.872773 L 1.24 0.877617 L 1.25 0.879961 L 1.26 0.882266 L 1.27 0.884531 L 1.28 0.886758 L 1.29 0.888945 L 1.3 0.891094 L 1.31 0.893203 L 1.32 0.895273 L 1.34 0.899258 L 1.36 0.903164 L 1.37 0.905039 L 1.38 0.906875 L 1.4 0.910469 L 1.41 0.912227 L 1.44 0.917266 L 1.46 0.920469 L 1.47 0.922031 L 1.48 0.923555 L 1.5 0.926523 L 1.51 0.927969 L 1.52 0.929375 L 1.54 0.932109 L 1.56 0.934766 L 1.57 0.936055 L 1.59 0.938555 L 1.6 0.939766 L 1.62 0.942109 L 1.64 0.944375 L 1.66 0.946562 L 1.67 0.947617 L 1.7 0.950664 L 1.72 0.952617 L 1.73 0.953555 L 1.76 0.95625 L 1.79 0.958828 L 1.8 0.959648 L 1.83 0.961992 L 1.86 0.964219 L 1.89 0.966328 L 1.91 0.967656 L 1.95 0.970156 L 1.98 0.971914 L 2.02 0.974102 L 2.05 0.975625 L 2.1 0.977969 L 2.13 0.979258 L 2.14 0.979648 L 2.15 0.980078 L 2.18 0.98125 L 2.19 0.981602 L 2.2 0.981992 L 2.24 0.983398 L 2.25 0.983711 L 2.26 0.984063 L 2.29 0.985 L 2.3 0.985273 L 2.31 0.985586 L 2.32 0.985859 L 2.33 0.986172 L 2.35 0.986719 L 2.36 0.986953 L 2.38 0.9875 L 2.4 0.987969 L 2.41 0.988242 L 2.43 0.988711 L 2.44 0.988906 L 2.46 0.989375 L 2.48 0.989766 L 2.49 0.99 L 2.53 0.990781 L 2.54 0.990938 L 2.56 0.991328 L 2.58 0.991641 L 2.59 0.991836 L 2.65 0.992773 L 2.66 0.992891 L 2.68 0.993203 L 2.69 0.99332 L 2.7 0.993477 L 2.73 0.993828 L 2.74 0.993984 L 2.78 0.994453 L 2.79 0.994531 L 2.82 0.994883 L 2.83 0.994961 L 2.84 0.995078 L 2.85 0.995156 L 2.86 0.995273 L 2.87 0.995352 L 2.88 0.995469 L 2.9 0.995625 L 2.91 0.995742 L 3.01 0.996523 L 3.02 0.996563 L 3.05 0.996797 L 3.06 0.996836 L 3.07 0.996914 L 3.08 0.996953 L 3.09 0.997031 L 3.1 0.99707 L 3.11 0.997148 L 3.12 0.997187 L 3.13 0.997266 L 3.14 0.997305 L 3.15 0.997383 L 3.17 0.997461 L 3.18 0.997539 L 3.21 0.997656 L 3.22 0.997734 L 3.39 0.998398 L 3.4 0.998398 L 3.44 0.998555 L 3.45 0.998555 L 3.47 0.998633 L 3.48 0.998633 L 3.5 0.998711 L 3.51 0.998711 L 3.53 0.998789 L 3.54 0.998789 L 3.56 0.998867 L 3.57 0.998867 L 3.58 0.998906 L 3.59 0.998906 L 3.6 0.998945 L 3.61 0.998945 L 3.62 0.998984 L 3.63 0.998984 L 3.64 0.999023 L 3.65 0.999023 L 3.66 0.999062 L 3.67 0.999062 L 3.68 0.999102 L 3.69 0.999102 L 3.7 0.999141 L 3.71 0.999141 L 3.72 0.99918 L 3.73 0.99918 L 3.74 0.999219 L 3.76 0.999219 L 3.77 0.999258 L 3.78 0.999258 L 3.79 0.999297 L 3.81 0.999297 L 3.82 0.999336 L 3.84 0.999336 L 3.85 0.999375 L 3.87 0.999375 L 3.88 0.999414 L 3.91 0.999414 L 3.92 0.999453 L 3.94 0.999453 L 3.95 0.999492 L 3.98 0.999492 L 3.99 0.999531 L 4.02 0.999531 L 4.03 0.99957 L 4.07 0.99957 L 4.08 0.999609 L 4.12 0.999609 L 4.13 0.999648 L 4.17 0.999648 L 4.18 0.999688 L 4.23 0.999688 L 4.24 0.999727 L 4.3 0.999727 L 4.31 0.999766 L 4.39 0.999766 L 4.4 0.999805 L 4.49 0.999805 L 4.5 0.999844 L 4.61 0.999844 L 4.62 0.999883 L 4.78 0.999883 L 4.79 0.999922 L 5 0.999922 " transform="matrix(100,0,0,-100,500,200)"/>
<path style="fill:none;stroke-width:0.03;stroke-linecap:butt;stroke-linejoin:miter;stroke:rgb(87.058824%,29.803922%,71.764706%);stroke-opacity:0.75;stroke-miterlimit:10;" d="M -5 -1.271328 L -4.99 -1.271758 L -4.98 -1.272227 L -4.89 -1.276094 L -4.88 -1.276484 L -4.85 -1.277773 L -4.84 -1.278164 L -4.83 -1.278594 L -4.82 -1.278984 L -4.81 -1.279414 L -4.79 -1.280195 L -4.78 -1.280625 L -4.75 -1.281797 L -4.74 -1.282227 L -4.71 -1.283398 L -4.7 -1.28375 L -4.67 -1.284922 L -4.66 -1.285273 L -4.64 -1.286055 L -4.63 -1.286406 L -4.62 -1.286797 L -4.6 -1.2875 L -4.59 -1.287891 L -4.5 -1.291055 L -4.49 -1.291367 L -4.48 -1.291719 L -4.47 -1.292031 L -4.46 -1.292383 L -4.45 -1.292695 L -4.44 -1.293047 L -4.35 -1.295859 L -4.34 -1.296133 L -4.32 -1.296758 L -4.3 -1.297305 L -4.29 -1.297617 L -4.22 -1.299531 L -4.21 -1.299766 L -4.19 -1.300312 L -4.17 -1.300781 L -4.16 -1.301055 L -4.1 -1.302461 L -4.09 -1.302656 L -4.07 -1.303125 L -4.05 -1.303516 L -4.04 -1.30375 L -3.99 -1.304727 L -3.98 -1.304883 L -3.96 -1.305273 L -3.94 -1.305586 L -3.93 -1.305781 L -3.9 -1.30625 L -3.89 -1.306367 L -3.87 -1.30668 L -3.86 -1.306797 L -3.85 -1.306953 L -3.83 -1.307187 L -3.82 -1.307344 L -3.8 -1.307578 L -3.79 -1.307656 L -3.77 -1.307891 L -3.75 -1.308047 L -3.74 -1.308164 L -3.7 -1.308477 L -3.69 -1.308516 L -3.68 -1.308594 L -3.67 -1.308633 L -3.66 -1.308711 L -3.61 -1.308906 L -3.6 -1.308906 L -3.59 -1.308945 L -3.52 -1.308945 L -3.5 -1.308867 L -3.49 -1.308867 L -3.46 -1.30875 L -3.45 -1.308672 L -3.44 -1.308633 L -3.37 -1.308086 L -3.31 -1.307383 L -3.3 -1.307227 L -3.29 -1.307109 L -3.26 -1.306641 L -3.25 -1.306445 L -3.24 -1.306289 L -3.23 -1.306094 L -3.22 -1.305938 L -3.2 -1.305547 L -3.19 -1.305312 L -3.18 -1.305117 L -3.17 -1.304883 L -3.16 -1.304688 L -3.13 -1.303984 L -3.12 -1.303711 L -3.11 -1.303477 L -3.07 -1.302383 L -3.05 -1.301758 L -3.04 -1.301484 L -3.03 -1.301172 L -3.02 -1.30082 L -3 -1.300195 L -2.97 -1.299141 L -2.96 -1.29875 L -2.95 -1.298398 L -2.91 -1.296836 L -2.9 -1.296406 L -2.89 -1.296016 L -2.86 -1.294727 L -2.81 -1.292383 L -2.8 -1.291875 L -2.79 -1.291406 L -2.77 -1.290391 L -2.76 -1.289844 L -2.75 -1.289336 L -2.73 -1.288242 L -2.72 -1.287656 L -2.71 -1.287109 L -2.68 -1.285352 L -2.67 -1.284727 L -2.66 -1.284141 L -2.64 -1.282891 L -2.63 -1.282227 L -2.62 -1.281602 L -2.6 -1.280273 L -2.59 -1.27957 L -2.58 -1.278906 L -2.56 -1.2775 L -2.55 -1.276758 L -2.54 -1.276055 L -2.51 -1.273828 L -2.48 -1.271484 L -2.47 -1.270664 L -2.46 -1.269883 L -2.44 -1.268242 L -2.4 -1.264805 L -2.39 -1.263906 L -2.38 -1.263047 L -2.37 -1.262109 L -2.36 -1.261211 L -2.33 -1.258398 L -2.29 -1.254492 L -2.27 -1.252461 L -2.23 -1.248242 L -2.2 -1.244961 L -2.17 -1.241563 L -2.16 -1.240391 L -2.15 -1.239258 L -2.14 -1.238047 L -2.13 -1.236875 L -2.12 -1.235664 L -2.11 -1.234414 L -2.1 -1.233203 L -2.09 -1.231953 L -2.08 -1.230664 L -2.07 -1.229414 L -2.06 -1.228125 L -2.02 -1.222812 L -2 -1.220078 L -1.97 -1.215859 L -1.95 -1.212969 L -1.92 -1.208516 L -1.9 -1.205469 L -1.87 -1.200781 L -1.85 -1.197578 L -1.82 -1.192656 L -1.81 -1.190977 L -1.78 -1.18582 L -1.76 -1.182305 L -1.73 -1.176914 L -1.72 -1.175039 L -1.71 -1.173203 L -1.7 -1.171328 L -1.68 -1.1675 L -1.65 -1.161641 L -1.64 -1.159648 L -1.62 -1.155586 L -1.6 -1.151445 L -1.59 -1.149336 L -1.56 -1.142891 L -1.55 -1.140703 L -1.53 -1.13625 L -1.52 -1.133984 L -1.5 -1.129375 L -1.48 -1.124688 L -1.47 -1.122305 L -1.45 -1.117461 L -1.44 -1.115 L -1.43 -1.1125 L -1.41 -1.107422 L -1.39 -1.102266 L -1.36 -1.094297 L -1.35 -1.091563 L -1.33 -1.086016 L -1.32 -1.083203 L -1.3 -1.0775 L -1.28 -1.071641 L -1.27 -1.068672 L -1.25 -1.062578 L -1.24 -1.059492 L -1.23 -1.056367 L -1.22 -1.053203 L -1.21 -1.05 L -1.2 -1.046758 L -1.19 -1.043477 L -1.18 -1.040156 L -1.17 -1.036797 L -1.16 -1.033398 L -1.15 -1.029961 L -1.13 -1.02293 L -1.12 -1.019336 L -1.11 -1.015703 L -1.1 -1.012031 L -1.09 -1.008281 L -1.08 -1.004492 L -1.07 -1.000664 L -1.06 -0.996797 L -1.05 -0.992852 L -1.04 -0.988867 L -1.03 -0.984844 L -1.01 -0.976562 L -1 -0.972344 L -0.99 -0.968047 L -0.98 -0.963711 L -0.97 -0.959297 L -0.96 -0.954844 L -0.95 -0.950312 L -0.94 -0.945703 L -0.93 -0.941016 L -0.92 -0.93625 L -0.91 -0.931445 L -0.9 -0.926563 L -0.89 -0.921562 L -0.88 -0.916523 L -0.87 -0.911406 L -0.86 -0.906211 L -0.85 -0.900898 L -0.84 -0.895508 L -0.83 -0.890078 L -0.82 -0.884492 L -0.81 -0.878867 L -0.8 -0.873125 L -0.79 -0.867305 L -0.78 -0.861367 L -0.77 -0.855313 L -0.76 -0.84918 L -0.75 -0.842969 L -0.74 -0.836602 L -0.73 -0.830156 L -0.72 -0.823594 L -0.71 -0.816953 L -0.7 -0.810156 L -0.69 -0.803242 L -0.68 -0.796211 L -0.67 -0.789062 L -0.66 -0.781797 L -0.65 -0.774414 L -0.64 -0.766875 L -0.63 -0.759219 L -0.62 -0.751406 L -0.61 -0.743477 L -0.6 -0.73543 L -0.59 -0.727227 L -0.58 -0.718867 L -0.57 -0.710391 L -0.56 -0.701719 L -0.55 -0.69293 L -0.54 -0.683984 L -0.53 -0.674922 L -0.52 -0.665664 L -0.51 -0.65625 L -0.5 -0.646719 L -0.49 -0.636992 L -0.48 -0.627109 L -0.47 -0.61707 L -0.46 -0.606875 L -0.45 -0.596523 L -0.44 -0.585977 L -0.43 -0.575312 L -0.42 -0.564453 L -0.41 -0.553438 L -0.4 -0.542266 L -0.39 -0.530898 L -0.38 -0.519414 L -0.37 -0.507734 L -0.36 -0.495938 L -0.35 -0.483945 L -0.34 -0.471797 L -0.33 -0.459531 L -0.32 -0.44707 L -0.31 -0.434492 L -0.3 -0.421758 L -0.29 -0.408906 L -0.28 -0.395898 L -0.27 -0.382734 L -0.26 -0.369492 L -0.25 -0.356094 L -0.24 -0.342578 L -0.23 -0.328945 L -0.22 -0.315234 L -0.21 -0.301406 L -0.2 -0.2875 L -0.19 -0.273477 L -0.18 -0.259375 L -0.17 -0.245234 L -0.15 -0.216719 L -0.14 -0.202383 L -0.13 -0.188008 L -0.11 -0.15918 L -0.1 -0.144727 L -0.09 -0.130234 L -0.07 -0.101328 L -0.06 -0.0868359 L -0.05 -0.0723828 L -0.04 -0.0579688 L -0.03 -0.0435156 L -0.02 -0.0291016 L -0.01 -0.0146094 L 0 0 L 0.01 0.0145703 L 0.02 0.02875 L 0.03 0.0426172 L 0.04 0.0562109 L 0.05 0.0696094 L 0.06 0.0828125 L 0.07 0.0958203 L 0.08 0.108672 L 0.09 0.121328 L 0.1 0.133828 L 0.11 0.146172 L 0.12 0.158359 L 0.13 0.170391 L 0.14 0.182305 L 0.15 0.194063 L 0.16 0.205664 L 0.17 0.217148 L 0.18 0.228516 L 0.19 0.239766 L 0.2 0.250859 L 0.21 0.261836 L 0.22 0.272695 L 0.23 0.283398 L 0.24 0.294023 L 0.25 0.304531 L 0.26 0.314883 L 0.27 0.325156 L 0.28 0.335312 L 0.29 0.345312 L 0.3 0.355234 L 0.31 0.365039 L 0.32 0.374727 L 0.33 0.384297 L 0.34 0.39375 L 0.35 0.403125 L 0.36 0.412383 L 0.37 0.421484 L 0.38 0.430547 L 0.39 0.439453 L 0.4 0.448281 L 0.41 0.456992 L 0.42 0.465586 L 0.43 0.474063 L 0.44 0.482461 L 0.45 0.490742 L 0.46 0.498945 L 0.47 0.507031 L 0.48 0.515 L 0.49 0.522891 L 0.5 0.530664 L 0.51 0.538359 L 0.52 0.545937 L 0.53 0.553398 L 0.54 0.560781 L 0.55 0.568086 L 0.56 0.575273 L 0.57 0.582344 L 0.58 0.589336 L 0.59 0.59625 L 0.6 0.603047 L 0.61 0.609766 L 0.62 0.616367 L 0.63 0.622891 L 0.64 0.629336 L 0.65 0.635664 L 0.66 0.641914 L 0.67 0.648086 L 0.68 0.65418 L 0.69 0.660156 L 0.7 0.666055 L 0.71 0.671875 L 0.72 0.677617 L 0.73 0.683242 L 0.74 0.688789 L 0.75 0.694258 L 0.76 0.699648 L 0.77 0.704961 L 0.78 0.710195 L 0.79 0.715352 L 0.8 0.72043 L 0.81 0.72543 L 0.82 0.730352 L 0.83 0.735156 L 0.84 0.739922 L 0.85 0.744609 L 0.86 0.749219 L 0.87 0.753789 L 0.88 0.758242 L 0.89 0.762617 L 0.9 0.766953 L 0.91 0.771211 L 0.92 0.775391 L 0.93 0.779492 L 0.94 0.783555 L 0.95 0.787539 L 0.96 0.791445 L 0.97 0.795312 L 0.98 0.799102 L 0.99 0.802812 L 1 0.806484 L 1.01 0.810078 L 1.02 0.813594 L 1.03 0.81707 L 1.04 0.820508 L 1.05 0.823867 L 1.06 0.827148 L 1.07 0.830391 L 1.08 0.833594 L 1.09 0.836719 L 1.1 0.839805 L 1.11 0.842812 L 1.12 0.845781 L 1.13 0.848711 L 1.14 0.851602 L 1.15 0.854414 L 1.16 0.857187 L 1.18 0.862578 L 1.19 0.865195 L 1.2 0.867773 L 1.22 0.872773 L 1.24 0.877617 L 1.25 0.879961 L 1.26 0.882266 L 1.27 0.884531 L 1.28 0.886758 L 1.29 0.888945 L 1.3 0.891094 L 1.31 0.893203 L 1.32 0.895273 L 1.34 0.899258 L 1.36 0.903164 L 1.37 0.905039 L 1.38 0.906875 L 1.4 0.910469 L 1.41 0.912227 L 1.44 0.917266 L 1.46 0.920469 L 1.47 0.922031 L 1.48 0.923555 L 1.5 0.926523 L 1.51 0.927969 L 1.52 0.929375 L 1.54 0.932109 L 1.56 0.934766 L 1.57 0.936055 L 1.59 0.938555 L 1.6 0.939766 L 1.62 0.942109 L 1.64 0.944375 L 1.66 0.946562 L 1.67 0.947617 L 1.7 0.950664 L 1.72 0.952617 L 1.73 0.953555 L 1.76 0.95625 L 1.79 0.958828 L 1.8 0.959648 L 1.83 0.961992 L 1.86 0.964219 L 1.89 0.966328 L 1.91 0.967656 L 1.95 0.970156 L 1.98 0.971914 L 2.02 0.974102 L 2.05 0.975625 L 2.1 0.977969 L 2.13 0.979258 L 2.14 0.979648 L 2.15 0.980078 L 2.18 0.98125 L 2.19 0.981602 L 2.2 0.981992 L 2.24 0.983398 L 2.25 0.983711 L 2.26 0.984063 L 2.29 0.985 L 2.3 0.985273 L 2.31 0.985586 L 2.32 0.985859 L 2.33 0.986172 L 2.35 0.986719 L 2.36 0.986953 L 2.38 0.9875 L 2.4 0.987969 L 2.41 0.988242 L 2.43 0.988711 L 2.44 0.988906 L 2.46 0.989375 L 2.48 0.989766 L 2.49 0.99 L 2.53 0.990781 L 2.54 0.990938 L 2.56 0.991328 L 2.58 0.991641 L 2.59 0.991836 L 2.65 0.992773 L 2.66 0.992891 L 2.68 0.993203 L 2.69 0.99332 L 2.7 0.993477 L 2.73 0.993828 L 2.74 0.993984 L 2.78 0.994453 L 2.79 0.994531 L 2.82 0.994883 L 2.83 0.994961 L 2.84 0.995078 L 2.85 0.995156 L 2.86 0.995273 L 2.87 0.995352 L 2.88 0.995469 L 2.9 0.995625 L 2.91 0.995742 L 3.01 0.996523 L 3.02 0.996563 L 3.05 0.996797 L 3.06 0.996836 L 3.07 0.996914 L 3.08 0.996953 L 3.09 0.997031 L 3.1 0.99707 L 3.11 0.997148 L 3.12 0.997187 L 3.13 0.997266 L 3.14 0.997305 L 3.15 0.997383 L 3.17 0.997461 L 3.18 0.997539 L 3.21 0.997656 L 3.22 0.997734 L 3.39 0.998398 L 3.4 0.998398 L 3.44 0.998555 L 3.45 0.998555 L 3.47 0.998633 L 3.48 0.998633 L 3.5 0.998711 L 3.51 0.998711 L 3.53 0.998789 L 3.54 0.998789 L 3.56 0.998867 L 3.57 0.998867 L 3.58 0.998906 L 3.59 0.998906 L 3.6 0.998945 L 3.61 0.998945 L 3.62 0.998984 L 3.63 0.998984 L 3.64 0.999023 L 3.65 0.999023 L 3.66 0.999062 L 3.67 0.999062 L 3.68 0.999102 L 3.69 0.999102 L 3.7 0.999141 L 3.71 0.999141 L 3.72 0.99918 L 3.73 0.99918 L 3.74 0.999219 L 3.76 0.999219 L 3.77 0.999258 L 3.78 0.999258 L 3.79 0.999297 L 3.81 0.999297 L 3.82 0.999336 L 3.84 0.999336 L 3.85 0.999375 L 3.87 0.999375 L 3.88 0.999414 L 3.91 0.999414 L 3.92 0.999453 L 3.94 0.999453 L 3.95 0.999492 L 3.98 0.999492 L 3.99 0.999531 L 4.02 0.999531 L 4.03 0.99957 L 4.07 0.99957 L 4.08 0.999609 L 4.12 0.999609 L 4.13 0.999648 L 4.17 0.999648 L 4.18 0.999688 L 4.23 0.999688 L 4.24 0.999727 L 4.3 0.999727 L 4.31 0.999766 L 4.39 0.999766 L 4.4 0.999805 L 4.49 0.999805 L 4.5 0.999844 L 4.61 0.999844 L 4.62 0.999883 L 4.78 0.999883 L 4.79 0.999922 L 5 0.999922 " transform="matrix(100,0,0,-100,500,200)"/>
<path style="fill:none;stroke-width:0.03;stroke-linecap:butt;stroke-linejoin:miter;stroke:rgb(87.058824%,29.803922%,71.764706%);stroke-opacity:0.5;stroke-miterlimit:10;" d="M -5 -0.502852 L -4.97 -0.504258 L -4.96 -0.504766 L -4.94 -0.505703 L -4.93 -0.506211 L -4.91 -0.507148 L -4.9 -0.507656 L -4.89 -0.508125 L -4.88 -0.508633 L -4.86 -0.50957 L -4.85 -0.510078 L -4.84 -0.510547 L -4.82 -0.511563 L -4.81 -0.512031 L -4.8 -0.512539 L -4.79 -0.513008 L -4.77 -0.514023 L -4.76 -0.514492 L -4.73 -0.516016 L -4.72 -0.516484 L -4.65 -0.520039 L -4.64 -0.520508 L -4.61 -0.522031 L -4.6 -0.522578 L -4.53 -0.526133 L -4.52 -0.52668 L -4.49 -0.528203 L -4.48 -0.52875 L -4.46 -0.529766 L -4.45 -0.530312 L -4.43 -0.531328 L -4.42 -0.531875 L -4.41 -0.532383 L -4.4 -0.53293 L -4.39 -0.533438 L -4.38 -0.533984 L -4.37 -0.534492 L -4.36 -0.535039 L -4.35 -0.535547 L -4.34 -0.536094 L -4.33 -0.536602 L -4.32 -0.537148 L -4.31 -0.537656 L -4.29 -0.53875 L -4.28 -0.539258 L -4.26 -0.540352 L -4.25 -0.540859 L -4.21 -0.543047 L -4.2 -0.543555 L -4.13 -0.547383 L -4.12 -0.547891 L -4.06 -0.551172 L -4.05 -0.551758 L -3.97 -0.556133 L -3.96 -0.556719 L -3.93 -0.558359 L -3.92 -0.558945 L -3.89 -0.560586 L -3.88 -0.561172 L -3.86 -0.562266 L -3.85 -0.562852 L -3.83 -0.563945 L -3.82 -0.564531 L -3.8 -0.565625 L -3.79 -0.566211 L -3.77 -0.567305 L -3.76 -0.567891 L -3.75 -0.568437 L -3.74 -0.569023 L -3.73 -0.56957 L -3.72 -0.570156 L -3.7 -0.57125 L -3.69 -0.571836 L -3.68 -0.572383 L -3.67 -0.572969 L -3.66 -0.573516 L -3.65 -0.574102 L -3.64 -0.574648 L -3.63 -0.575234 L -3.62 -0.575781 L -3.61 -0.576367 L -3.6 -0.576914 L -3.59 -0.5775 L -3.58 -0.578047 L -3.57 -0.578633 L -3.56 -0.57918 L -3.55 -0.579766 L -3.54 -0.580313 L -3.52 -0.581484 L -3.51 -0.582031 L -3.5 -0.582617 L -3.49 -0.583164 L -3.48 -0.58375 L -3.47 -0.584297 L -3.46 -0.584883 L -3.45 -0.58543 L -3.44 -0.586016 L -3.43 -0.586562 L -3.42 -0.587148 L -3.41 -0.587695 L -3.4 -0.588281 L -3.39 -0.588828 L -3.38 -0.589414 L -3.37 -0.589961 L -3.36 -0.590547 L -3.35 -0.591094 L -3.34 -0.59168 L -3.33 -0.592227 L -3.32 -0.592812 L -3.31 -0.593359 L -3.3 -0.593945 L -3.29 -0.594492 L -3.28 -0.595078 L -3.26 -0.596172 L -3.25 -0.596758 L -3.24 -0.597305 L -3.23 -0.597891 L -3.21 -0.598984 L -3.2 -0.59957 L -3.18 -0.600664 L -3.17 -0.60125 L -3.14 -0.602891 L -3.13 -0.603477 L -3.08 -0.606211 L -3.07 -0.606797 L -2.99 -0.611172 L -2.98 -0.61168 L -2.94 -0.613867 L -2.93 -0.614375 L -2.91 -0.615469 L -2.9 -0.615977 L -2.89 -0.616523 L -2.88 -0.617031 L -2.87 -0.617578 L -2.86 -0.618086 L -2.85 -0.618633 L -2.83 -0.619648 L -2.82 -0.620195 L -2.78 -0.622227 L -2.77 -0.622773 L -2.75 -0.623789 L -2.74 -0.624258 L -2.7 -0.626289 L -2.69 -0.626758 L -2.68 -0.627266 L -2.67 -0.627734 L -2.66 -0.628242 L -2.65 -0.628711 L -2.64 -0.629219 L -2.55 -0.633437 L -2.54 -0.633867 L -2.53 -0.634336 L -2.52 -0.634766 L -2.51 -0.635234 L -2.48 -0.636523 L -2.47 -0.636992 L -2.46 -0.637422 L -2.45 -0.637812 L -2.42 -0.639102 L -2.41 -0.639492 L -2.4 -0.639922 L -2.33 -0.642656 L -2.32 -0.643008 L -2.31 -0.643398 L -2.29 -0.644102 L -2.28 -0.644492 L -2.26 -0.645195 L -2.25 -0.645508 L -2.24 -0.645859 L -2.23 -0.646172 L -2.22 -0.646523 L -2.17 -0.648086 L -2.16 -0.648359 L -2.15 -0.648672 L -2.1 -0.650039 L -2.08 -0.650508 L -2.07 -0.650781 L -2.06 -0.651016 L -2.05 -0.651211 L -2.03 -0.65168 L -1.99 -0.652461 L -1.98 -0.652617 L -1.97 -0.652813 L -1.94 -0.653281 L -1.93 -0.653398 L -1.92 -0.653555 L -1.89 -0.653906 L -1.84 -0.654297 L -1.83 -0.654336 L -1.82 -0.654414 L -1.81 -0.654414 L -1.79 -0.654492 L -1.77 -0.654492 L -1.76 -0.654453 L -1.75 -0.654453 L -1.73 -0.654375 L -1.72 -0.654297 L -1.71 -0.654258 L -1.7 -0.65418 L -1.69 -0.654063 L -1.68 -0.653984 L -1.65 -0.653633 L -1.63 -0.65332 L -1.62 -0.653125 L -1.61 -0.652969 L -1.59 -0.652578 L -1.56 -0.651875 L -1.53 -0.651055 L -1.51 -0.65043 L -1.47 -0.649023 L -1.46 -0.648633 L -1.42 -0.646914 L -1.41 -0.646445 L -1.38 -0.644922 L -1.35 -0.643281 L -1.34 -0.642656 L -1.33 -0.64207 L -1.32 -0.641445 L -1.29 -0.639453 L -1.28 -0.63875 L -1.25 -0.636523 L -1.24 -0.635742 L -1.21 -0.633281 L -1.2 -0.632422 L -1.19 -0.631523 L -1.18 -0.630586 L -1.17 -0.629688 L -1.15 -0.627734 L -1.13 -0.625703 L -1.11 -0.623594 L -1.1 -0.622461 L -1.09 -0.621367 L -1.07 -0.619023 L -1.05 -0.616602 L -1.04 -0.615352 L -1.03 -0.614063 L -1.01 -0.611406 L -1 -0.610039 L -0.99 -0.608633 L -0.97 -0.605742 L -0.96 -0.604258 L -0.95 -0.602734 L -0.93 -0.599609 L -0.91 -0.596328 L -0.9 -0.594648 L -0.89 -0.59293 L -0.88 -0.591172 L -0.87 -0.589375 L -0.86 -0.587539 L -0.85 -0.585664 L -0.84 -0.58375 L -0.83 -0.581797 L -0.82 -0.579805 L -0.81 -0.577773 L -0.8 -0.575703 L -0.79 -0.573594 L -0.78 -0.571445 L -0.76 -0.566992 L -0.75 -0.564688 L -0.74 -0.562344 L -0.73 -0.559961 L -0.72 -0.5575 L -0.71 -0.555 L -0.7 -0.552422 L -0.69 -0.549805 L -0.68 -0.547148 L -0.67 -0.544414 L -0.66 -0.541602 L -0.65 -0.53875 L -0.64 -0.53582 L -0.63 -0.532812 L -0.62 -0.529766 L -0.61 -0.526602 L -0.6 -0.523398 L -0.59 -0.520078 L -0.58 -0.51668 L -0.57 -0.513242 L -0.56 -0.509648 L -0.55 -0.506016 L -0.54 -0.502266 L -0.53 -0.498398 L -0.52 -0.494453 L -0.51 -0.490352 L -0.5 -0.486172 L -0.49 -0.481875 L -0.48 -0.477422 L -0.47 -0.472852 L -0.46 -0.468125 L -0.45 -0.463281 L -0.44 -0.458281 L -0.43 -0.453086 L -0.42 -0.447773 L -0.41 -0.442266 L -0.4 -0.436562 L -0.39 -0.430664 L -0.38 -0.424609 L -0.37 -0.41832 L -0.36 -0.411797 L -0.35 -0.405078 L -0.34 -0.398125 L -0.33 -0.390898 L -0.32 -0.383437 L -0.31 -0.375703 L -0.3 -0.367695 L -0.29 -0.359453 L -0.28 -0.350859 L -0.27 -0.341992 L -0.26 -0.332852 L -0.25 -0.323359 L -0.24 -0.313555 L -0.23 -0.303438 L -0.22 -0.293008 L -0.21 -0.282227 L -0.2 -0.271133 L -0.19 -0.259688 L -0.18 -0.247969 L -0.17 -0.235898 L -0.16 -0.223555 L -0.15 -0.210898 L -0.14 -0.19793 L -0.13 -0.184727 L -0.12 -0.171289 L -0.11 -0.157617 L -0.1 -0.14375 L -0.09 -0.129688 L -0.08 -0.115508 L -0.07 -0.101172 L -0.06 -0.0867969 L -0.01 -0.0145313 L 0 0 L 0.01 0.0145703 L 0.02 0.02875 L 0.03 0.0426172 L 0.04 0.0562109 L 0.05 0.0696094 L 0.06 0.0828125 L 0.07 0.0958203 L 0.08 0.108672 L 0.09 0.121328 L 0.1 0.133828 L 0.11 0.146172 L 0.12 0.158359 L 0.13 0.170391 L 0.14 0.182305 L 0.15 0.194063 L 0.16 0.205664 L 0.17 0.217148 L 0.18 0.228516 L 0.19 0.239766 L 0.2 0.250859 L 0.21 0.261836 L 0.22 0.272695 L 0.23 0.283398 L 0.24 0.294023 L 0.25 0.304531 L 0.26 0.314883 L 0.27 0.325156 L 0.28 0.335312 L 0.29 0.345312 L 0.3 0.355234 L 0.31 0.365039 L 0.32 0.374727 L 0.33 0.384297 L 0.34 0.39375 L 0.35 0.403125 L 0.36 0.412383 L 0.37 0.421484 L 0.38 0.430547 L 0.39 0.439453 L 0.4 0.448281 L 0.41 0.456992 L 0.42 0.465586 L 0.43 0.474063 L 0.44 0.482461 L 0.45 0.490742 L 0.46 0.498945 L 0.47 0.507031 L 0.48 0.515 L 0.49 0.522891 L 0.5 0.530664 L 0.51 0.538359 L 0.52 0.545937 L 0.53 0.553398 L 0.54 0.560781 L 0.55 0.568086 L 0.56 0.575273 L 0.57 0.582344 L 0.58 0.589336 L 0.59 0.59625 L 0.6 0.603047 L 0.61 0.609766 L 0.62 0.616367 L 0.63 0.622891 L 0.64 0.629336 L 0.65 0.635664 L 0.66 0.641914 L 0.67 0.648086 L 0.68 0.65418 L 0.69 0.660156 L 0.7 0.666055 L 0.71 0.671875 L 0.72 0.677617 L 0.73 0.683242 L 0.74 0.688789 L 0.75 0.694258 L 0.76 0.699648 L 0.77 0.704961 L 0.78 0.710195 L 0.79 0.715352 L 0.8 0.72043 L 0.81 0.72543 L 0.82 0.730352 L 0.83 0.735156 L 0.84 0.739922 L 0.85 0.744609 L 0.86 0.749219 L 0.87 0.753789 L 0.88 0.758242 L 0.89 0.762617 L 0.9 0.766953 L 0.91 0.771211 L 0.92 0.775391 L 0.93 0.779492 L 0.94 0.783555 L 0.95 0.787539 L 0.96 0.791445 L 0.97 0.795312 L 0.98 0.799102 L 0.99 0.802812 L 1 0.806484 L 1.01 0.810078 L 1.02 0.813594 L 1.03 0.81707 L 1.04 0.820508 L 1.05 0.823867 L 1.06 0.827148 L 1.07 0.830391 L 1.08 0.833594 L 1.09 0.836719 L 1.1 0.839805 L 1.11 0.842812 L 1.12 0.845781 L 1.13 0.848711 L 1.14 0.851602 L 1.15 0.854414 L 1.16 0.857187 L 1.18 0.862578 L 1.19 0.865195 L 1.2 0.867773 L 1.22 0.872773 L 1.24 0.877617 L 1.25 0.879961 L 1.26 0.882266 L 1.27 0.884531 L 1.28 0.886758 L 1.29 0.888945 L 1.3 0.891094 L 1.31 0.893203 L 1.32 0.895273 L 1.34 0.899258 L 1.36 0.903164 L 1.37 0.905039 L 1.38 0.906875 L 1.4 0.910469 L 1.41 0.912227 L 1.44 0.917266 L 1.46 0.920469 L 1.47 0.922031 L 1.48 0.923555 L 1.5 0.926523 L 1.51 0.927969 L 1.52 0.929375 L 1.54 0.932109 L 1.56 0.934766 L 1.57 0.936055 L 1.59 0.938555 L 1.6 0.939766 L 1.62 0.942109 L 1.64 0.944375 L 1.66 0.946562 L 1.67 0.947617 L 1.7 0.950664 L 1.72 0.952617 L 1.73 0.953555 L 1.76 0.95625 L 1.79 0.958828 L 1.8 0.959648 L 1.83 0.961992 L 1.86 0.964219 L 1.89 0.966328 L 1.91 0.967656 L 1.95 0.970156 L 1.98 0.971914 L 2.02 0.974102 L 2.05 0.975625 L 2.1 0.977969 L 2.13 0.979258 L 2.14 0.979648 L 2.15 0.980078 L 2.18 0.98125 L 2.19 0.981602 L 2.2 0.981992 L 2.24 0.983398 L 2.25 0.983711 L 2.26 0.984063 L 2.29 0.985 L 2.3 0.985273 L 2.31 0.985586 L 2.32 0.985859 L 2.33 0.986172 L 2.35 0.986719 L 2.36 0.986953 L 2.38 0.9875 L 2.4 0.987969 L 2.41 0.988242 L 2.43 0.988711 L 2.44 0.988906 L 2.46 0.989375 L 2.48 0.989766 L 2.49 0.99 L 2.53 0.990781 L 2.54 0.990938 L 2.56 0.991328 L 2.58 0.991641 L 2.59 0.991836 L 2.65 0.992773 L 2.66 0.992891 L 2.68 0.993203 L 2.69 0.99332 L 2.7 0.993477 L 2.73 0.993828 L 2.74 0.993984 L 2.78 0.994453 L 2.79 0.994531 L 2.82 0.994883 L 2.83 0.994961 L 2.84 0.995078 L 2.85 0.995156 L 2.86 0.995273 L 2.87 0.995352 L 2.88 0.995469 L 2.9 0.995625 L 2.91 0.995742 L 3.01 0.996523 L 3.02 0.996563 L 3.05 0.996797 L 3.06 0.996836 L 3.07 0.996914 L 3.08 0.996953 L 3.09 0.997031 L 3.1 0.99707 L 3.11 0.997148 L 3.12 0.997187 L 3.13 0.997266 L 3.14 0.997305 L 3.15 0.997383 L 3.17 0.997461 L 3.18 0.997539 L 3.21 0.997656 L 3.22 0.997734 L 3.39 0.998398 L 3.4 0.998398 L 3.44 0.998555 L 3.45 0.998555 L 3.47 0.998633 L 3.48 0.998633 L 3.5 0.998711 L 3.51 0.998711 L 3.53 0.998789 L 3.54 0.998789 L 3.56 0.998867 L 3.57 0.998867 L 3.58 0.998906 L 3.59 0.998906 L 3.6 0.998945 L 3.61 0.998945 L 3.62 0.998984 L 3.63 0.998984 L 3.64 0.999023 L 3.65 0.999023 L 3.66 0.999062 L 3.67 0.999062 L 3.68 0.999102 L 3.69 0.999102 L 3.7 0.999141 L 3.71 0.999141 L 3.72 0.99918 L 3.73 0.99918 L 3.74 0.999219 L 3.76 0.999219 L 3.77 0.999258 L 3.78 0.999258 L 3.79 0.999297 L 3.81 0.999297 L 3.82 0.999336 L 3.84 0.999336 L 3.85 0.999375 L 3.87 0.999375 L 3.88 0.999414 L 3.91 0.999414 L 3.92 0.999453 L 3.94 0.999453 L 3.95 0.999492 L 3.98 0.999492 L 3.99 0.999531 L 4.02 0.999531 L 4.03 0.99957 L 4.07 0.99957 L 4.08 0.999609 L 4.12 0.999609 L 4.13 0.999648 L 4.17 0.999648 L 4.18 0.999688 L 4.23 0.999688 L 4.24 0.999727 L 4.3 0.999727 L 4.31 0.999766 L 4.39 0.999766 L 4.4 0.999805 L 4.49 0.999805 L 4.5 0.999844 L 4.61 0.999844 L 4.62 0.999883 L 4.78 0.999883 L 4.79 0.999922 L 5 0.999922 " transform="matrix(100,0,0,-100,500,200)"/>
<path style="fill:none;stroke-width:0.03;stroke-linecap:butt;stroke-linejoin:miter;stroke:rgb(87.058824%,29.803922%,71.764706%);stroke-opacity:0.25;stroke-miterlimit:10;" d="M -5 -0.177109 L -4.98 -0.177422 L -4.97 -0.177617 L -4.95 -0.17793 L -4.94 -0.178125 L -4.93 -0.178281 L -4.92 -0.178477 L -4.91 -0.178633 L -4.9 -0.178828 L -4.89 -0.178984 L -4.88 -0.17918 L -4.87 -0.179336 L -4.85 -0.179727 L -4.84 -0.179883 L -4.83 -0.180078 L -4.82 -0.180234 L -4.8 -0.180625 L -4.79 -0.180781 L -4.76 -0.181367 L -4.75 -0.181523 L -4.69 -0.182695 L -4.68 -0.182852 L -4.61 -0.184219 L -4.6 -0.184453 L -4.54 -0.185625 L -4.53 -0.185859 L -4.5 -0.186445 L -4.49 -0.18668 L -4.47 -0.18707 L -4.46 -0.187305 L -4.45 -0.1875 L -4.44 -0.187734 L -4.43 -0.18793 L -4.42 -0.188164 L -4.41 -0.188359 L -4.4 -0.188594 L -4.39 -0.188789 L -4.38 -0.189023 L -4.37 -0.189219 L -4.35 -0.189688 L -4.34 -0.189883 L -4.32 -0.190352 L -4.31 -0.190547 L -4.28 -0.19125 L -4.27 -0.191445 L -4.14 -0.194492 L -4.13 -0.194766 L -4.09 -0.195703 L -4.08 -0.195977 L -4.06 -0.196445 L -4.05 -0.196719 L -4.04 -0.196953 L -4.03 -0.197227 L -4.02 -0.197461 L -4.01 -0.197734 L -4 -0.197969 L -3.99 -0.198242 L -3.98 -0.198477 L -3.96 -0.199023 L -3.95 -0.199258 L -3.93 -0.199805 L -3.92 -0.200039 L -3.88 -0.201133 L -3.87 -0.201367 L -3.81 -0.203008 L -3.8 -0.20332 L -3.75 -0.204687 L -3.74 -0.205 L -3.72 -0.205547 L -3.71 -0.205859 L -3.7 -0.206133 L -3.69 -0.206445 L -3.68 -0.206719 L -3.67 -0.207031 L -3.66 -0.207305 L -3.65 -0.207617 L -3.64 -0.207891 L -3.62 -0.208516 L -3.61 -0.208789 L -3.58 -0.209727 L -3.57 -0.21 L -3.48 -0.212813 L -3.47 -0.213164 L -3.44 -0.214102 L -3.43 -0.214453 L -3.41 -0.215078 L -3.4 -0.21543 L -3.39 -0.215742 L -3.38 -0.216094 L -3.37 -0.216406 L -3.36 -0.216758 L -3.35 -0.21707 L -3.33 -0.217773 L -3.32 -0.218086 L -3.27 -0.219844 L -3.26 -0.220156 L -3.24 -0.220859 L -3.23 -0.22125 L -3.18 -0.223008 L -3.17 -0.223398 L -3.15 -0.224102 L -3.14 -0.224492 L -3.13 -0.224844 L -3.12 -0.225234 L -3.11 -0.225586 L -3.1 -0.225977 L -3.09 -0.226328 L -3.07 -0.227109 L -3.06 -0.227461 L -2.94 -0.232148 L -2.93 -0.232578 L -2.91 -0.233359 L -2.9 -0.233789 L -2.89 -0.23418 L -2.88 -0.234609 L -2.87 -0.235 L -2.86 -0.23543 L -2.85 -0.23582 L -2.83 -0.23668 L -2.82 -0.23707 L -2.71 -0.241797 L -2.7 -0.242266 L -2.68 -0.243125 L -2.67 -0.243594 L -2.66 -0.244023 L -2.65 -0.244492 L -2.64 -0.244922 L -2.63 -0.245391 L -2.62 -0.24582 L -2.59 -0.247227 L -2.58 -0.247656 L -2.5 -0.251406 L -2.49 -0.251914 L -2.46 -0.25332 L -2.45 -0.253828 L -2.44 -0.254297 L -2.43 -0.254805 L -2.42 -0.255273 L -2.41 -0.255781 L -2.4 -0.25625 L -2.38 -0.257266 L -2.37 -0.257734 L -2.26 -0.26332 L -2.25 -0.263867 L -2.22 -0.265391 L -2.21 -0.265938 L -2.2 -0.266445 L -2.19 -0.266992 L -2.18 -0.2675 L -2.17 -0.268047 L -2.16 -0.268555 L -2.14 -0.269648 L -2.13 -0.270156 L -2.09 -0.272344 L -2.08 -0.272852 L -2.01 -0.27668 L -2 -0.277266 L -1.96 -0.279453 L -1.95 -0.280039 L -1.92 -0.28168 L -1.91 -0.282266 L -1.9 -0.282812 L -1.89 -0.283398 L -1.87 -0.284492 L -1.86 -0.285078 L -1.85 -0.285625 L -1.84 -0.286211 L -1.83 -0.286758 L -1.82 -0.287344 L -1.81 -0.287891 L -1.8 -0.288477 L -1.79 -0.289023 L -1.78 -0.289609 L -1.77 -0.290156 L -1.76 -0.290742 L -1.75 -0.291289 L -1.74 -0.291875 L -1.73 -0.292422 L -1.72 -0.293008 L -1.71 -0.293555 L -1.7 -0.294141 L -1.69 -0.294688 L -1.68 -0.295273 L -1.67 -0.29582 L -1.66 -0.296406 L -1.65 -0.296953 L -1.64 -0.297539 L -1.63 -0.298086 L -1.62 -0.298672 L -1.6 -0.299766 L -1.59 -0.300352 L -1.56 -0.301992 L -1.55 -0.302578 L -1.48 -0.306406 L -1.47 -0.306914 L -1.45 -0.308008 L -1.44 -0.308516 L -1.43 -0.309063 L -1.41 -0.310078 L -1.4 -0.310625 L -1.36 -0.312656 L -1.35 -0.313125 L -1.34 -0.313633 L -1.33 -0.314102 L -1.32 -0.314609 L -1.27 -0.316953 L -1.26 -0.317383 L -1.25 -0.317852 L -1.22 -0.319141 L -1.21 -0.319531 L -1.2 -0.319961 L -1.16 -0.321523 L -1.12 -0.32293 L -1.11 -0.323242 L -1.1 -0.323594 L -1.09 -0.323906 L -1.07 -0.324453 L -1.06 -0.324766 L -1.05 -0.325 L -1.04 -0.325273 L -1.02 -0.325742 L -0.99 -0.326328 L -0.97 -0.326641 L -0.94 -0.326992 L -0.92 -0.327148 L -0.9 -0.327227 L -0.88 -0.327227 L -0.86 -0.327148 L -0.84 -0.326992 L -0.83 -0.326875 L -0.81 -0.326563 L -0.79 -0.326172 L -0.78 -0.325938 L -0.77 -0.325664 L -0.75 -0.325039 L -0.74 -0.324688 L -0.72 -0.323906 L -0.7 -0.322969 L -0.69 -0.322461 L -0.68 -0.321914 L -0.67 -0.321328 L -0.65 -0.320078 L -0.64 -0.319375 L -0.63 -0.318633 L -0.61 -0.31707 L -0.6 -0.316211 L -0.59 -0.315313 L -0.58 -0.314375 L -0.56 -0.312344 L -0.55 -0.31125 L -0.54 -0.310117 L -0.53 -0.308906 L -0.52 -0.307656 L -0.51 -0.306367 L -0.5 -0.305 L -0.49 -0.303594 L -0.48 -0.302109 L -0.47 -0.300586 L -0.46 -0.298984 L -0.45 -0.297305 L -0.44 -0.295586 L -0.43 -0.29375 L -0.42 -0.291875 L -0.41 -0.289922 L -0.4 -0.287852 L -0.39 -0.285703 L -0.38 -0.283477 L -0.37 -0.281172 L -0.36 -0.27875 L -0.35 -0.276211 L -0.34 -0.273555 L -0.33 -0.27082 L -0.32 -0.267891 L -0.31 -0.264883 L -0.3 -0.26168 L -0.29 -0.258359 L -0.28 -0.254844 L -0.27 -0.251133 L -0.26 -0.247227 L -0.25 -0.243086 L -0.24 -0.238711 L -0.23 -0.234062 L -0.22 -0.229141 L -0.21 -0.223867 L -0.2 -0.218281 L -0.19 -0.212305 L -0.18 -0.205898 L -0.17 -0.199063 L -0.16 -0.191719 L -0.15 -0.183867 L -0.14 -0.17543 L -0.13 -0.166406 L -0.12 -0.156758 L -0.11 -0.146484 L -0.1 -0.135547 L -0.09 -0.123984 L -0.08 -0.111758 L -0.07 -0.0989844 L -0.06 -0.0856641 L -0.05 -0.071875 L -0.04 -0.0577344 L -0.03 -0.0433984 L -0.01 -0.0144922 L 0 0 L 0.01 0.0145703 L 0.02 0.02875 L 0.03 0.0426172 L 0.04 0.0562109 L 0.05 0.0696094 L 0.06 0.0828125 L 0.07 0.0958203 L 0.08 0.108672 L 0.09 0.121328 L 0.1 0.133828 L 0.11 0.146172 L 0.12 0.158359 L 0.13 0.170391 L 0.14 0.182305 L 0.15 0.194063 L 0.16 0.205664 L 0.17 0.217148 L 0.18 0.228516 L 0.19 0.239766 L 0.2 0.250859 L 0.21 0.261836 L 0.22 0.272695 L 0.23 0.283398 L 0.24 0.294023 L 0.25 0.304531 L 0.26 0.314883 L 0.27 0.325156 L 0.28 0.335312 L 0.29 0.345312 L 0.3 0.355234 L 0.31 0.365039 L 0.32 0.374727 L 0.33 0.384297 L 0.34 0.39375 L 0.35 0.403125 L 0.36 0.412383 L 0.37 0.421484 L 0.38 0.430547 L 0.39 0.439453 L 0.4 0.448281 L 0.41 0.456992 L 0.42 0.465586 L 0.43 0.474063 L 0.44 0.482461 L 0.45 0.490742 L 0.46 0.498945 L 0.47 0.507031 L 0.48 0.515 L 0.49 0.522891 L 0.5 0.530664 L 0.51 0.538359 L 0.52 0.545937 L 0.53 0.553398 L 0.54 0.560781 L 0.55 0.568086 L 0.56 0.575273 L 0.57 0.582344 L 0.58 0.589336 L 0.59 0.59625 L 0.6 0.603047 L 0.61 0.609766 L 0.62 0.616367 L 0.63 0.622891 L 0.64 0.629336 L 0.65 0.635664 L 0.66 0.641914 L 0.67 0.648086 L 0.68 0.65418 L 0.69 0.660156 L 0.7 0.666055 L 0.71 0.671875 L 0.72 0.677617 L 0.73 0.683242 L 0.74 0.688789 L 0.75 0.694258 L 0.76 0.699648 L 0.77 0.704961 L 0.78 0.710195 L 0.79 0.715352 L 0.8 0.72043 L 0.81 0.72543 L 0.82 0.730352 L 0.83 0.735156 L 0.84 0.739922 L 0.85 0.744609 L 0.86 0.749219 L 0.87 0.753789 L 0.88 0.758242 L 0.89 0.762617 L 0.9 0.766953 L 0.91 0.771211 L 0.92 0.775391 L 0.93 0.779492 L 0.94 0.783555 L 0.95 0.787539 L 0.96 0.791445 L 0.97 0.795312 L 0.98 0.799102 L 0.99 0.802812 L 1 0.806484 L 1.01 0.810078 L 1.02 0.813594 L 1.03 0.81707 L 1.04 0.820508 L 1.05 0.823867 L 1.06 0.827148 L 1.07 0.830391 L 1.08 0.833594 L 1.09 0.836719 L 1.1 0.839805 L 1.11 0.842812 L 1.12 0.845781 L 1.13 0.848711 L 1.14 0.851602 L 1.15 0.854414 L 1.16 0.857187 L 1.18 0.862578 L 1.19 0.865195 L 1.2 0.867773 L 1.22 0.872773 L 1.24 0.877617 L 1.25 0.879961 L 1.26 0.882266 L 1.27 0.884531 L 1.28 0.886758 L 1.29 0.888945 L 1.3 0.891094 L 1.31 0.893203 L 1.32 0.895273 L 1.34 0.899258 L 1.36 0.903164 L 1.37 0.905039 L 1.38 0.906875 L 1.4 0.910469 L 1.41 0.912227 L 1.44 0.917266 L 1.46 0.920469 L 1.47 0.922031 L 1.48 0.923555 L 1.5 0.926523 L 1.51 0.927969 L 1.52 0.929375 L 1.54 0.932109 L 1.56 0.934766 L 1.57 0.936055 L 1.59 0.938555 L 1.6 0.939766 L 1.62 0.942109 L 1.64 0.944375 L 1.66 0.946562 L 1.67 0.947617 L 1.7 0.950664 L 1.72 0.952617 L 1.73 0.953555 L 1.76 0.95625 L 1.79 0.958828 L 1.8 0.959648 L 1.83 0.961992 L 1.86 0.964219 L 1.89 0.966328 L 1.91 0.967656 L 1.95 0.970156 L 1.98 0.971914 L 2.02 0.974102 L 2.05 0.975625 L 2.1 0.977969 L 2.13 0.979258 L 2.14 0.979648 L 2.15 0.980078 L 2.18 0.98125 L 2.19 0.981602 L 2.2 0.981992 L 2.24 0.983398 L 2.25 0.983711 L 2.26 0.984063 L 2.29 0.985 L 2.3 0.985273 L 2.31 0.985586 L 2.32 0.985859 L 2.33 0.986172 L 2.35 0.986719 L 2.36 0.986953 L 2.38 0.9875 L 2.4 0.987969 L 2.41 0.988242 L 2.43 0.988711 L 2.44 0.988906 L 2.46 0.989375 L 2.48 0.989766 L 2.49 0.99 L 2.53 0.990781 L 2.54 0.990938 L 2.56 0.991328 L 2.58 0.991641 L 2.59 0.991836 L 2.65 0.992773 L 2.66 0.992891 L 2.68 0.993203 L 2.69 0.99332 L 2.7 0.993477 L 2.73 0.993828 L 2.74 0.993984 L 2.78 0.994453 L 2.79 0.994531 L 2.82 0.994883 L 2.83 0.994961 L 2.84 0.995078 L 2.85 0.995156 L 2.86 0.995273 L 2.87 0.995352 L 2.88 0.995469 L 2.9 0.995625 L 2.91 0.995742 L 3.01 0.996523 L 3.02 0.996563 L 3.05 0.996797 L 3.06 0.996836 L 3.07 0.996914 L 3.08 0.996953 L 3.09 0.997031 L 3.1 0.99707 L 3.11 0.997148 L 3.12 0.997187 L 3.13 0.997266 L 3.14 0.997305 L 3.15 0.997383 L 3.17 0.997461 L 3.18 0.997539 L 3.21 0.997656 L 3.22 0.997734 L 3.39 0.998398 L 3.4 0.998398 L 3.44 0.998555 L 3.45 0.998555 L 3.47 0.998633 L 3.48 0.998633 L 3.5 0.998711 L 3.51 0.998711 L 3.53 0.998789 L 3.54 0.998789 L 3.56 0.998867 L 3.57 0.998867 L 3.58 0.998906 L 3.59 0.998906 L 3.6 0.998945 L 3.61 0.998945 L 3.62 0.998984 L 3.63 0.998984 L 3.64 0.999023 L 3.65 0.999023 L 3.66 0.999062 L 3.67 0.999062 L 3.68 0.999102 L 3.69 0.999102 L 3.7 0.999141 L 3.71 0.999141 L 3.72 0.99918 L 3.73 0.99918 L 3.74 0.999219 L 3.76 0.999219 L 3.77 0.999258 L 3.78 0.999258 L 3.79 0.999297 L 3.81 0.999297 L 3.82 0.999336 L 3.84 0.999336 L 3.85 0.999375 L 3.87 0.999375 L 3.88 0.999414 L 3.91 0.999414 L 3.92 0.999453 L 3.94 0.999453 L 3.95 0.999492 L 3.98 0.999492 L 3.99 0.999531 L 4.02 0.999531 L 4.03 0.99957 L 4.07 0.99957 L 4.08 0.999609 L 4.12 0.999609 L 4.13 0.999648 L 4.17 0.999648 L 4.18 0.999688 L 4.23 0.999688 L 4.24 0.999727 L 4.3 0.999727 L 4.31 0.999766 L 4.39 0.999766 L 4.4 0.999805 L 4.49 0.999805 L 4.5 0.999844 L 4.61 0.999844 L 4.62 0.999883 L 4.78 0.999883 L 4.79 0.999922 L 5 0.999922 " transform="matrix(100,0,0,-100,500,200)"/>
</g>
</svg>
