<?xml version="1.0" encoding="UTF-8"?>
<svg xmlns="http://www.w3.org/2000/svg" xmlns:xlink="http://www.w3.org/1999/xlink" width="1000pt" height="400pt" viewBox="0 0 1000 400" version="1.1">
<g id="surface26">
<rect x="0" y="0" width="1000" height="400" style="fill:rgb(0%,0%,0%);fill-opacity:1;stroke:none;"/>
<path style="fill:none;stroke-width:0.01;stroke-linecap:butt;stroke-linejoin:miter;stroke:rgb(100%,100%,100%);stroke-opacity:0.5;stroke-miterlimit:10;" d="M -5 -2 L -5 2 " transform="matrix(100,0,0,-100,500,200)"/>
<path style="fill:none;stroke-width:0.01;stroke-linecap:butt;stroke-linejoin:miter;stroke:rgb(100%,100%,100%);stroke-opacity:0.5;stroke-miterlimit:10;" d="M -4 -2 L -4 2 " transform="matrix(100,0,0,-100,500,200)"/>
<path style="fill:none;stroke-width:0.01;stroke-linecap:butt;stroke-linejoin:miter;stroke:rgb(100%,100%,100%);stroke-opacity:0.5;stroke-miterlimit:10;" d="M -3 -2 L -3 2 " transform="matrix(100,0,0,-100,500,200)"/>
<path style="fill:none;stroke-width:0.01;stroke-linecap:butt;stroke-linejoin:miter;stroke:rgb(100%,100%,100%);stroke-opacity:0.5;stroke-miterlimit:10;" d="M -2 -2 L -2 2 " transform="matrix(100,0,0,-100,500,200)"/>
<path style="fill:none;stroke-width:0.01;stroke-linecap:butt;stroke-linejoin:miter;stroke:rgb(100%,100%,100%);stroke-opacity:0.5;stroke-miterlimit:10;" d="M -1 -2 L -1 2 " transform="matrix(100,0,0,-100,500,200)"/>
<path style="fill:none;stroke-width:0.01;stroke-linecap:butt;stroke-linejoin:miter;stroke:rgb(100%,100%,100%);stroke-opacity:1;stroke-miterlimit:10;" d="M 0 -2 L 0 2 " transform="matrix(100,0,0,-100,500,200)"/>
<path style="fill:none;stroke-width:0.01;stroke-linecap:butt;stroke-linejoin:miter;stroke:rgb(100%,100%,100%);stroke-opacity:0.5;stroke-miterlimit:10;" d="M 1 -2 L 1 2 " transform="matrix(100,0,0,-100,500,200)"/>
<path style="fill:none;stroke-width:0.01;stroke-linecap:butt;stroke-linejoin:miter;stroke:rgb(100%,100%,100%);stroke-opacity:0.5;stroke-miterlimit:10;" d="M 2 -2 L 2 2 " transform="matrix(100,0,0,-100,500,200)"/>
<path style="fill:none;stroke-width:0.01;stroke-linecap:butt;stroke-linejoin:miter;stroke:rgb(100%,100%,100%);stroke-opacity:0.5;stroke-miterlimit:10;" d="M 3 -2 L 3 2 " transform="matrix(100,0,0,-100,500,200)"/>
<path style="fill:none;stroke-width:0.01;stroke-linecap:butt;stroke-linejoin:miter;stroke:rgb(100%,100%,100%);stroke-opacity:0.5;stroke-miterlimit:10;" d="M 4 -2 L 4 2 " transform="matrix(100,0,0,-100,500,200)"/>
<path style="fill:none;stroke-width:0.01;stroke-linecap:butt;stroke-linejoin:miter;stroke:rgb(100%,100%,100%);stroke-opacity:0.5;stroke-miterlimit:10;" d="M 5 -2 L 5 2 " transform="matrix(100,0,0,-100,500,200)"/>
<path style="fill:none;stroke-width:0.005;stroke-linecap:butt;stroke-linejoin:miter;stroke:rgb(100%,100%,100%);stroke-opacity:0.25;stroke-miterlimit:10;" d="M -4.75 -2 L -4.75 2 " transform="matrix(100,0,0,-100,500,200)"/>
<path style="fill:none;stroke-width:0.005;stroke-linecap:butt;stroke-linejoin:miter;stroke:rgb(100%,100%,100%);stroke-opacity:0.25;stroke-miterlimit:10;" d="M -4.5 -2 L -4.5 2 " transform="matrix(100,0,0,-100,500,200)"/>
<path style="fill:none;stroke-width:0.005;stroke-linecap:butt;stroke-linejoin:miter;stroke:rgb(100%,100%,100%);stroke-opacity:0.25;stroke-miterlimit:10;" d="M -4.25 -2 L -4.25 2 " transform="matrix(100,0,0,-100,500,200)"/>
<path style="fill:none;stroke-width:0.005;stroke-linecap:butt;stroke-linejoin:miter;stroke:rgb(100%,100%,100%);stroke-opacity:0.25;stroke-miterlimit:10;" d="M -3.75 -2 L -3.75 2 " transform="matrix(100,0,0,-100,500,200)"/>
<path style="fill:none;stroke-width:0.005;stroke-linecap:butt;stroke-linejoin:miter;stroke:rgb(100%,100%,100%);stroke-opacity:0.25;stroke-miterlimit:10;" d="M -3.5 -2 L -3.5 2 " transform="matrix(100,0,0,-100,500,200)"/>
<path style="fill:none;stroke-width:0.005;stroke-linecap:butt;stroke-linejoin:miter;stroke:rgb(100%,100%,100%);stroke-opacity:0.25;stroke-miterlimit:10;" d="M -3.25 -2 L -3.25 2 " transform="matrix(100,0,0,-100,500,200)"/>
<path style="fill:none;stroke-width:0.005;stroke-linecap:butt;stroke-linejoin:miter;stroke:rgb(100%,100%,100%);stroke-opacity:0.25;stroke-miterlimit:10;" d="M -2.75 -2 L -2.75 2 " transform="matrix(100,0,0,-100,500,200)"/>
<path style="fill:none;stroke-width:0.005;stroke-linecap:butt;stroke-linejoin:miter;stroke:rgb(100%,100%,100%);stroke-opacity:0.25;stroke-miterlimit:10;" d="M -2.5 -2 L -2.5 2 " transform="matrix(100,0,0,-100,500,200)"/>
<path style="fill:none;stroke-width:0.005;stroke-linecap:butt;stroke-linejoin:miter;stroke:rgb(100%,100%,100%);stroke-opacity:0.25;stroke-miterlimit:10;" d="M -2.25 -2 L -2.25 2 " transform="matrix(100,0,0,-100,500,200)"/>
<path style="fill:none;stroke-width:0.005;stroke-linecap:butt;stroke-linejoin:miter;stroke:rgb(100%,100%,100%);stroke-opacity:0.25;stroke-miterlimit:10;" d="M -1.75 -2 L -1.75 2 " transform="matrix(100,0,0,-100,500,200)"/>
<path style="fill:none;stroke-width:0.005;stroke-linecap:butt;stroke-linejoin:miter;stroke:rgb(100%,100%,100%);stroke-opacity:0.25;stroke-miterlimit:10;" d="M -1.5 -2 L -1.5 2 " transform="matrix(100,0,0,-100,500,200)"/>
<path style="fill:none;stroke-width:0.005;stroke-linecap:butt;stroke-linejoin:miter;stroke:rgb(100%,100%,100%);stroke-opacity:0.25;stroke-miterlimit:10;" d="M -1.25 -2 L -1.25 2 " transform="matrix(100,0,0,-100,500,200)"/>
<path style="fill:none;stroke-width:0.005;stroke-linecap:butt;stroke-linejoin:miter;stroke:rgb(100%,100%,100%);stroke-opacity:0.25;stroke-miterlimit:10;" d="M -0.75 -2 L -0.75 2 " transform="matrix(100,0,0,-100,500,200)"/>
<path style="fill:none;stroke-width:0.005;stroke-linecap:butt;stroke-linejoin:miter;stroke:rgb(100%,100%,100%);stroke-opacity:0.25;stroke-miterlimit:10;" d="M -0.5 -2 L -0.5 2 " transform="matrix(100,0,0,-100,500,200)"/>
<path style="fill:none;stroke-width:0.005;stroke-linecap:butt;stroke-linejoin:miter;stroke:rgb(100%,100%,100%);stroke-opacity:0.25;stroke-miterlimit:10;" d="M -0.25 -2 L -0.25 2 " transform="matrix(100,0,0,-100,500,200)"/>
<path style="fill:none;stroke-width:0.005;stroke-linecap:butt;stroke-linejoin:miter;stroke:rgb(100%,100%,100%);stroke-opacity:0.25;stroke-miterlimit:10;" d="M 0.25 -2 L 0.25 2 " transform="matrix(100,0,0,-100,500,200)"/>
<path style="fill:none;stroke-width:0.005;stroke-linecap:butt;stroke-linejoin:miter;stroke:rgb(100%,100%,100%);stroke-opacity:0.25;stroke-miterlimit:10;" d="M 0.5 -2 L 0.5 2 " transform="matrix(100,0,0,-100,500,200)"/>
<path style="fill:none;stroke-width:0.005;stroke-linecap:butt;stroke-linejoin:miter;stroke:rgb(100%,100%,100%);stroke-opacity:0.25;stroke-miterlimit:10;" d="M 0.75 -2 L 0.75 2 " transform="matrix(100,0,0,-100,500,200)"/>
<path style="fill:none;stroke-width:0.005;stroke-linecap:butt;stroke-linejoin:miter;stroke:rgb(100%,100%,100%);stroke-opacity:0.25;stroke-miterlimit:10;" d="M 1.25 -2 L 1.25 2 " transform="matrix(100,0,0,-100,500,200)"/>
<path style="fill:none;stroke-width:0.005;stroke-linecap:butt;stroke-linejoin:miter;stroke:rgb(100%,100%,100%);stroke-opacity:0.25;stroke-miterlimit:10;" d="M 1.5 -2 L 1.5 2 " transform="matrix(100,0,0,-100,500,200)"/>
<path style="fill:none;stroke-width:0.005;stroke-linecap:butt;stroke-linejoin:miter;stroke:rgb(100%,100%,100%);stroke-opacity:0.25;stroke-miterlimit:10;" d="M 1.75 -2 L 1.75 2 " transform="matrix(100,0,0,-100,500,200)"/>
<path style="fill:none;stroke-width:0.005;stroke-linecap:butt;stroke-linejoin:miter;stroke:rgb(100%,100%,100%);stroke-opacity:0.25;stroke-miterlimit:10;" d="M 2.25 -2 L 2.25 2 " transform="matrix(100,0,0,-100,500,200)"/>
<path style="fill:none;stroke-width:0.005;stroke-linecap:butt;stroke-linejoin:miter;stroke:rgb(100%,100%,100%);stroke-opacity:0.25;stroke-miterlimit:10;" d="M 2.5 -2 L 2.5 2 " transform="matrix(100,0,0,-100,500,200)"/>
<path style="fill:none;stroke-width:0.005;stroke-linecap:butt;stroke-linejoin:miter;stroke:rgb(100%,100%,100%);stroke-opacity:0.25;stroke-miterlimit:10;" d="M 2.75 -2 L 2.75 2 " transform="matrix(100,0,0,-100,500,200)"/>
<path style="fill:none;stroke-width:0.005;stroke-linecap:butt;stroke-linejoin:miter;stroke:rgb(100%,100%,100%);stroke-opacity:0.25;stroke-miterlimit:10;" d="M 3.25 -2 L 3.25 2 " transform="matrix(100,0,0,-100,500,200)"/>
<path style="fill:none;stroke-width:0.005;stroke-linecap:butt;stroke-linejoin:miter;stroke:rgb(100%,100%,100%);stroke-opacity:0.25;stroke-miterlimit:10;" d="M 3.5 -2 L 3.5 2 " transform="matrix(100,0,0,-100,500,200)"/>
<path style="fill:none;stroke-width:0.005;stroke-linecap:butt;stroke-linejoin:miter;stroke:rgb(100%,100%,100%);stroke-opacity:0.25;stroke-miterlimit:10;" d="M 3.75 -2 L 3.75 2 " transform="matrix(100,0,0,-100,500,200)"/>
<path style="fill:none;stroke-width:0.005;stroke-linecap:butt;stroke-linejoin:miter;stroke:rgb(100%,100%,100%);stroke-opacity:0.25;stroke-miterlimit:10;" d="M 4.25 -2 L 4.25 2 " transform="matrix(100,0,0,-100,500,200)"/>
<path style="fill:none;stroke-width:0.005;stroke-linecap:butt;stroke-linejoin:miter;stroke:rgb(100%,100%,100%);stroke-opacity:0.25;stroke-miterlimit:10;" d="M 4.5 -2 L 4.5 2 " transform="matrix(100,0,0,-100,500,200)"/>
<path style="fill:none;stroke-width:0.005;stroke-linecap:butt;stroke-linejoin:miter;stroke:rgb(100%,100%,100%);stroke-opacity:0.25;stroke-miterlimit:10;" d="M 4.75 -2 L 4.75 2 " transform="matrix(100,0,0,-100,500,200)"/>
<path style="fill:none;stroke-width:0.01;stroke-linecap:butt;stroke-linejoin:miter;stroke:rgb(100%,100%,100%);stroke-opacity:0.5;stroke-miterlimit:10;" d="M -5 -2 L 5 -2 " transform="matrix(100,0,0,-100,500,200)"/>
<path style="fill:none;stroke-width:0.01;stroke-linecap:butt;stroke-linejoin:miter;stroke:rgb(100%,100%,100%);stroke-opacity:0.5;stroke-miterlimit:10;" d="M -5 -1 L 5 -1 " transform="matrix(100,0,0,-100,500,200)"/>
<path style="fill:none;stroke-width:0.01;stroke-linecap:butt;stroke-linejoin:miter;stroke:rgb(100%,100%,100%);stroke-opacity:1;stroke-miterlimit:10;" d="M -5 0 L 5 0 " transform="matrix(100,0,0,-100,500,200)"/>
<path style="fill:none;stroke-width:0.01;stroke-linecap:butt;stroke-linejoin:miter;stroke:rgb(100%,100%,100%);stroke-opacity:0.5;stroke-miterlimit:10;" d="M -5 1 L 5 1 " transform="matrix(100,0,0,-100,500,200)"/>
<path style="fill:none;stroke-width:0.01;stroke-linecap:butt;stroke-linejoin:miter;stroke:rgb(100%,100%,100%);stroke-opacity:0.5;stroke-miterlimit:10;" d="M -5 2 L 5 2 " transform="matrix(100,0,0,-100,500,200)"/>
<path style="fill:none;stroke-width:0.005;stroke-linecap:butt;stroke-linejoin:miter;stroke:rgb(100%,100%,100%);stroke-opacity:0.25;stroke-miterlimit:10;" d="M -5 -1.75 L 5 -1.75 " transform="matrix(100,0,0,-100,500,200)"/>
<path style="fill:none;stroke-width:0.005;stroke-linecap:butt;stroke-linejoin:miter;stroke:rgb(100%,100%,100%);stroke-opacity:0.25;stroke-miterlimit:10;" d="M -5 -1.5 L 5 -1.5 " transform="matrix(100,0,0,-100,500,200)"/>
<path style="fill:none;stroke-width:0.005;stroke-linecap:butt;stroke-linejoin:miter;stroke:rgb(100%,100%,100%);stroke-opacity:0.25;stroke-miterlimit:10;" d="M -5 -1.25 L 5 -1.25 " transform="matrix(100,0,0,-100,500,200)"/>
<path style="fill:none;stroke-width:0.005;stroke-linecap:butt;stroke-linejoin:miter;stroke:rgb(100%,100%,100%);stroke-opacity:0.25;stroke-miterlimit:10;" d="M -5 -0.75 L 5 -0.75 " transform="matrix(100,0,0,-100,500,200)"/>
<path style="fill:none;stroke-width:0.005;stroke-linecap:butt;stroke-linejoin:miter;stroke:rgb(100%,100%,100%);stroke-opacity:0.25;stroke-miterlimit:10;" d="M -5 -0.5 L 5 -0.5 " transform="matrix(100,0,0,-100,500,200)"/>
<path style="fill:none;stroke-width:0.005;stroke-linecap:butt;stroke-linejoin:miter;stroke:rgb(100%,100%,100%);stroke-opacity:0.25;stroke-miterlimit:10;" d="M -5 -0.25 L 5 -0.25 " transform="matrix(100,0,0,-100,500,200)"/>
<path style="fill:none;stroke-width:0.005;stroke-linecap:butt;stroke-linejoin:miter;stroke:rgb(100%,100%,100%);stroke-opacity:0.25;stroke-miterlimit:10;" d="M -5 0.25 L 5 0.25 " transform="matrix(100,0,0,-100,500,200)"/>
<path style="fill:none;stroke-width:0.005;stroke-linecap:butt;stroke-linejoin:miter;stroke:rgb(100%,100%,100%);stroke-opacity:0.25;stroke-miterlimit:10;" d="M -5 0.5 L 5 0.5 " transform="matrix(100,0,0,-100,500,200)"/>
<path style="fill:none;stroke-width:0.005;stroke-linecap:butt;stroke-linejoin:miter;stroke:rgb(100%,100%,100%);stroke-opacity:0.25;stroke-miterlimit:10;" d="M -5 0.75 L 5 0.75 " transform="matrix(100,0,0,-100,500,200)"/>
<path style="fill:none;stroke-width:0.005;stroke-linecap:butt;stroke-linejoin:miter;stroke:rgb(100%,100%,100%);stroke-opacity:0.25;stroke-miterlimit:10;" d="M -5 1.25 L 5 1.25 " transform="matrix(100,0,0,-100,500,200)"/>
<path style="fill:none;stroke-width:0.005;stroke-linecap:butt;stroke-linejoin:miter;stroke:rgb(100%,100%,100%);stroke-opacity:0.25;stroke-miterlimit:10;" d="M -5 1.5 L 5 1.5 " transform="matrix(100,0,0,-100,500,200)"/>
<path style="fill:none;stroke-width:0.005;stroke-linecap:butt;stroke-linejoin:miter;stroke:rgb(100%,100%,100%);stroke-opacity:0.25;stroke-miterlimit:10;" d="M -5 1.75 L 5 1.75 " transform="matrix(100,0,0,-100,500,200)"/>
<path style="fill:none;stroke-width:0.03;stroke-linecap:butt;stroke-linejoin:miter;stroke:rgb(87.058824%,29.803922%,71.764706%);stroke-opacity:1;stroke-miterlimit:10;" d="M -5 -0.995703 L -4.96 -0.995547 L -4.95 -0.995469 L -4.91 -0.995313 L -4.9 -0.995234 L -4.87 -0.995117 L -4.86 -0.995039 L -4.83 -0.994922 L -4.82 -0.994844 L -4.8 -0.994766 L -4.79 -0.994687 L -4.78 -0.994648 L -4.77 -0.99457 L -4.75 -0.994492 L -4.74 -0.994414 L -4.73 -0.994375 L -4.72 -0.994297 L -4.71 -0.994258 L -4.7 -0.99418 L -4.69 -0.994141 L -4.68 -0.994063 L -4.67 -0.994023 L -4.66 -0.993945 L -4.65 -0.993906 L -4.63 -0.99375 L -4.62 -0.993711 L -4.6 -0.993555 L -4.59 -0.993516 L -4.57 -0.993359 L -4.56 -0.99332 L -4.53 -0.993086 L -4.52 -0.993047 L -4.45 -0.9925 L -4.44 -0.992461 L -4.41 -0.992227 L -4.4 -0.992109 L -4.33 -0.991563 L -4.32 -0.991445 L -4.29 -0.991211 L -4.28 -0.991094 L -4.26 -0.990938 L -4.25 -0.99082 L -4.23 -0.990664 L -4.22 -0.990547 L -4.21 -0.990469 L -4.2 -0.990352 L -4.19 -0.990273 L -4.17 -0.990039 L -4.16 -0.989961 L -4.15 -0.989844 L -4.14 -0.989766 L -4.11 -0.989414 L -4.1 -0.989336 L -3.96 -0.987695 L -3.95 -0.987539 L -3.92 -0.987188 L -3.91 -0.987031 L -3.9 -0.986914 L -3.89 -0.986758 L -3.88 -0.986641 L -3.87 -0.986484 L -3.86 -0.986367 L -3.85 -0.986211 L -3.84 -0.986094 L -3.81 -0.985625 L -3.8 -0.985508 L -3.71 -0.984102 L -3.7 -0.983906 L -3.67 -0.983437 L -3.66 -0.983242 L -3.65 -0.983086 L -3.64 -0.982891 L -3.63 -0.982734 L -3.62 -0.982539 L -3.61 -0.982383 L -3.58 -0.981797 L -3.57 -0.981641 L -3.51 -0.980469 L -3.5 -0.980234 L -3.48 -0.979844 L -3.47 -0.979609 L -3.46 -0.979414 L -3.45 -0.97918 L -3.44 -0.978984 L -3.43 -0.97875 L -3.42 -0.978555 L -3.32 -0.976211 L -3.31 -0.975938 L -3.3 -0.975703 L -3.29 -0.97543 L -3.28 -0.975195 L -3.26 -0.974648 L -3.25 -0.974414 L -3.2 -0.973047 L -3.19 -0.972734 L -3.17 -0.972187 L -3.15 -0.971563 L -3.14 -0.971289 L -3.07 -0.969102 L -3.06 -0.96875 L -3.04 -0.968125 L -2.96 -0.965313 L -2.95 -0.964922 L -2.94 -0.96457 L -2.92 -0.963789 L -2.91 -0.963437 L -2.89 -0.962656 L -2.88 -0.962227 L -2.86 -0.961445 L -2.85 -0.961016 L -2.84 -0.960625 L -2.8 -0.958906 L -2.79 -0.958438 L -2.77 -0.957578 L -2.71 -0.954766 L -2.7 -0.954258 L -2.69 -0.953789 L -2.64 -0.95125 L -2.63 -0.950703 L -2.62 -0.950195 L -2.59 -0.948555 L -2.58 -0.947969 L -2.57 -0.947422 L -2.56 -0.946836 L -2.55 -0.946289 L -2.53 -0.945117 L -2.52 -0.944492 L -2.51 -0.943906 L -2.5 -0.943281 L -2.49 -0.942695 L -2.48 -0.94207 L -2.47 -0.941406 L -2.45 -0.940156 L -2.42 -0.938164 L -2.41 -0.937461 L -2.4 -0.936797 L -2.36 -0.933984 L -2.31 -0.930273 L -2.28 -0.92793 L -2.27 -0.927109 L -2.26 -0.926328 L -2.24 -0.924688 L -2.23 -0.923828 L -2.22 -0.923008 L -2.2 -0.921289 L -2.19 -0.920391 L -2.18 -0.919531 L -2.16 -0.917734 L -2.12 -0.913984 L -2.08 -0.910078 L -2.06 -0.908047 L -2.02 -0.903828 L -1.99 -0.900547 L -1.97 -0.898281 L -1.94 -0.894766 L -1.93 -0.893555 L -1.92 -0.892383 L -1.88 -0.887383 L -1.86 -0.884805 L -1.84 -0.882148 L -1.81 -0.878047 L -1.79 -0.875234 L -1.77 -0.872344 L -1.74 -0.867891 L -1.73 -0.866367 L -1.7 -0.86168 L -1.69 -0.860078 L -1.67 -0.856797 L -1.64 -0.851758 L -1.63 -0.850039 L -1.61 -0.846523 L -1.6 -0.844727 L -1.57 -0.839219 L -1.56 -0.837305 L -1.55 -0.83543 L -1.52 -0.82957 L -1.49 -0.823477 L -1.48 -0.821367 L -1.47 -0.819297 L -1.45 -0.815 L -1.44 -0.812813 L -1.42 -0.808359 L -1.39 -0.801445 L -1.38 -0.799102 L -1.35 -0.791836 L -1.33 -0.786836 L -1.32 -0.784297 L -1.31 -0.781719 L -1.29 -0.776484 L -1.27 -0.771094 L -1.26 -0.768359 L -1.25 -0.765586 L -1.24 -0.762773 L -1.23 -0.759922 L -1.21 -0.754141 L -1.2 -0.751172 L -1.18 -0.745156 L -1.16 -0.738984 L -1.14 -0.732656 L -1.13 -0.729414 L -1.11 -0.722852 L -1.1 -0.719492 L -1.09 -0.716094 L -1.08 -0.712656 L -1.07 -0.70918 L -1.06 -0.705664 L -1.05 -0.702109 L -1.04 -0.698516 L -1.02 -0.691172 L -1.01 -0.687422 L -1 -0.683633 L -0.99 -0.679805 L -0.97 -0.671992 L -0.96 -0.668008 L -0.95 -0.663984 L -0.93 -0.655781 L -0.92 -0.651602 L -0.91 -0.647383 L -0.9 -0.643086 L -0.89 -0.63875 L -0.88 -0.634375 L -0.87 -0.629922 L -0.86 -0.62543 L -0.85 -0.620898 L -0.84 -0.616289 L -0.83 -0.611641 L -0.82 -0.606914 L -0.81 -0.602148 L -0.8 -0.597344 L -0.79 -0.592461 L -0.78 -0.5875 L -0.77 -0.5825 L -0.76 -0.577461 L -0.75 -0.572344 L -0.74 -0.567148 L -0.73 -0.561914 L -0.72 -0.556641 L -0.71 -0.551289 L -0.7 -0.545859 L -0.69 -0.540391 L -0.68 -0.534844 L -0.67 -0.529219 L -0.66 -0.523555 L -0.65 -0.517813 L -0.64 -0.512031 L -0.63 -0.506172 L -0.62 -0.500234 L -0.61 -0.494258 L -0.6 -0.488203 L -0.59 -0.48207 L -0.58 -0.475859 L -0.57 -0.469609 L -0.56 -0.463281 L -0.55 -0.456875 L -0.54 -0.45043 L -0.53 -0.443906 L -0.52 -0.437305 L -0.51 -0.430625 L -0.5 -0.423906 L -0.49 -0.41707 L -0.48 -0.410195 L -0.47 -0.403281 L -0.46 -0.39625 L -0.45 -0.38918 L -0.44 -0.381992 L -0.43 -0.374766 L -0.42 -0.3675 L -0.41 -0.360117 L -0.4 -0.352695 L -0.39 -0.345156 L -0.38 -0.337578 L -0.37 -0.329922 L -0.36 -0.322227 L -0.35 -0.314414 L -0.34 -0.306563 L -0.33 -0.298633 L -0.32 -0.290625 L -0.31 -0.282539 L -0.3 -0.274414 L -0.29 -0.266211 L -0.28 -0.25793 L -0.27 -0.24957 L -0.26 -0.241133 L -0.25 -0.232656 L -0.24 -0.224102 L -0.23 -0.215469 L -0.22 -0.206797 L -0.21 -0.198047 L -0.2 -0.189219 L -0.19 -0.180312 L -0.18 -0.171367 L -0.17 -0.162344 L -0.16 -0.153281 L -0.14 -0.134922 L -0.12 -0.116328 L -0.11 -0.106914 L -0.1 -0.0974609 L -0.09 -0.0879687 L -0.08 -0.0783984 L -0.07 -0.0687891 L -0.06 -0.0591406 L -0.05 -0.0494141 L -0.03 -0.0298047 L -0.02 -0.0199219 L 0 0 L 0.02 0.0200781 L 0.03 0.0301953 L 0.04 0.0403516 L 0.05 0.0505469 L 0.06 0.0607813 L 0.07 0.0710547 L 0.09 0.0916797 L 0.11 0.112461 L 0.12 0.122891 L 0.14 0.143828 L 0.15 0.154336 L 0.17 0.17543 L 0.21 0.217773 L 0.23 0.239023 L 0.24 0.249688 L 0.27 0.281562 L 0.28 0.292227 L 0.31 0.324102 L 0.34 0.355859 L 0.36 0.376953 L 0.37 0.387461 L 0.39 0.408398 L 0.4 0.418828 L 0.42 0.439609 L 0.44 0.460234 L 0.46 0.480703 L 0.47 0.490859 L 0.48 0.500977 L 0.49 0.511055 L 0.5 0.521094 L 0.51 0.531055 L 0.52 0.540977 L 0.53 0.550859 L 0.54 0.560664 L 0.55 0.570391 L 0.56 0.580078 L 0.57 0.589727 L 0.58 0.599258 L 0.59 0.60875 L 0.6 0.618164 L 0.61 0.6275 L 0.62 0.636797 L 0.63 0.645977 L 0.64 0.655117 L 0.65 0.66418 L 0.66 0.673125 L 0.67 0.682031 L 0.68 0.690859 L 0.69 0.69957 L 0.7 0.708203 L 0.71 0.716797 L 0.72 0.725234 L 0.73 0.733633 L 0.74 0.741953 L 0.75 0.750156 L 0.76 0.758242 L 0.77 0.766289 L 0.78 0.774219 L 0.79 0.78207 L 0.8 0.789805 L 0.81 0.797461 L 0.82 0.805 L 0.83 0.812461 L 0.84 0.819844 L 0.85 0.827109 L 0.86 0.834258 L 0.87 0.841328 L 0.88 0.84832 L 0.89 0.855195 L 0.9 0.861953 L 0.91 0.868633 L 0.92 0.875234 L 0.93 0.88168 L 0.94 0.888086 L 0.95 0.894336 L 0.96 0.900508 L 0.97 0.906602 L 0.98 0.912578 L 0.99 0.918438 L 1 0.924219 L 1.01 0.929922 L 1.02 0.935508 L 1.03 0.940977 L 1.04 0.946367 L 1.05 0.951641 L 1.06 0.956836 L 1.07 0.961914 L 1.08 0.966914 L 1.09 0.971836 L 1.1 0.976602 L 1.11 0.981328 L 1.12 0.985937 L 1.13 0.990469 L 1.14 0.994883 L 1.15 0.999219 L 1.16 1.003477 L 1.17 1.007617 L 1.18 1.01168 L 1.19 1.015664 L 1.2 1.019531 L 1.21 1.02332 L 1.22 1.027031 L 1.23 1.030664 L 1.24 1.03418 L 1.25 1.037656 L 1.26 1.041016 L 1.27 1.044297 L 1.28 1.0475 L 1.29 1.050625 L 1.3 1.053672 L 1.31 1.056641 L 1.32 1.059492 L 1.33 1.062305 L 1.34 1.065039 L 1.35 1.067695 L 1.36 1.070312 L 1.37 1.072812 L 1.38 1.075234 L 1.39 1.077617 L 1.4 1.079922 L 1.41 1.082148 L 1.42 1.084297 L 1.43 1.086406 L 1.44 1.088437 L 1.45 1.090391 L 1.46 1.092305 L 1.47 1.094141 L 1.48 1.095938 L 1.5 1.099297 L 1.51 1.100898 L 1.52 1.102422 L 1.53 1.103906 L 1.54 1.105352 L 1.55 1.106719 L 1.56 1.108047 L 1.57 1.109297 L 1.58 1.110508 L 1.59 1.11168 L 1.6 1.112812 L 1.61 1.113867 L 1.62 1.114883 L 1.63 1.115859 L 1.64 1.116797 L 1.65 1.117695 L 1.66 1.118516 L 1.68 1.120078 L 1.69 1.120781 L 1.7 1.121445 L 1.71 1.12207 L 1.73 1.123242 L 1.74 1.12375 L 1.76 1.124687 L 1.78 1.125469 L 1.79 1.12582 L 1.8 1.126133 L 1.81 1.126406 L 1.83 1.126875 L 1.84 1.12707 L 1.85 1.127227 L 1.87 1.127461 L 1.88 1.127539 L 1.9 1.127617 L 1.92 1.127617 L 1.93 1.127578 L 1.95 1.127422 L 1.97 1.127188 L 1.98 1.127031 L 1.99 1.126836 L 2 1.12668 L 2.01 1.126445 L 2.02 1.12625 L 2.03 1.125977 L 2.04 1.125742 L 2.05 1.125469 L 2.08 1.124531 L 2.11 1.123477 L 2.14 1.122305 L 2.18 1.120586 L 2.21 1.11918 L 2.22 1.118672 L 2.23 1.118203 L 2.25 1.117188 L 2.26 1.116641 L 2.27 1.116133 L 2.32 1.113398 L 2.34 1.112227 L 2.35 1.11168 L 2.37 1.110508 L 2.38 1.109883 L 2.4 1.108711 L 2.41 1.108086 L 2.42 1.1075 L 2.43 1.106875 L 2.44 1.106289 L 2.52 1.101289 L 2.53 1.100625 L 2.56 1.09875 L 2.57 1.098086 L 2.59 1.096836 L 2.6 1.096172 L 2.62 1.094922 L 2.63 1.094258 L 2.65 1.093008 L 2.66 1.092344 L 2.69 1.090469 L 2.7 1.089805 L 2.83 1.08168 L 2.84 1.081094 L 2.86 1.079844 L 2.87 1.079258 L 2.88 1.078633 L 2.9 1.077461 L 2.91 1.076836 L 2.99 1.072148 L 3 1.071602 L 3.01 1.071016 L 3.02 1.070469 L 3.03 1.069883 L 3.04 1.069336 L 3.05 1.06875 L 3.13 1.064375 L 3.14 1.063867 L 3.15 1.06332 L 3.16 1.062812 L 3.17 1.062266 L 3.25 1.058203 L 3.26 1.057734 L 3.27 1.057227 L 3.28 1.056758 L 3.29 1.05625 L 3.31 1.055312 L 3.32 1.054805 L 3.35 1.053398 L 3.36 1.052969 L 3.38 1.052031 L 3.39 1.051602 L 3.4 1.051133 L 3.41 1.050703 L 3.42 1.050234 L 3.5 1.046797 L 3.51 1.046406 L 3.52 1.045977 L 3.53 1.045586 L 3.54 1.045156 L 3.62 1.042031 L 3.63 1.04168 L 3.65 1.040898 L 3.67 1.040195 L 3.68 1.039805 L 3.76 1.036992 L 3.77 1.03668 L 3.78 1.036328 L 3.79 1.036016 L 3.8 1.035664 L 3.81 1.035352 L 3.82 1.035 L 3.9 1.0325 L 3.91 1.032227 L 3.92 1.031914 L 3.93 1.031641 L 3.94 1.031328 L 3.95 1.031055 L 3.96 1.030742 L 3.98 1.030195 L 3.99 1.029883 L 4.04 1.028516 L 4.05 1.028281 L 4.08 1.027461 L 4.09 1.027227 L 4.1 1.026953 L 4.11 1.026719 L 4.12 1.026445 L 4.14 1.025977 L 4.15 1.025703 L 4.23 1.023828 L 4.24 1.023633 L 4.26 1.023164 L 4.27 1.022969 L 4.29 1.0225 L 4.31 1.022109 L 4.32 1.021875 L 4.34 1.021484 L 4.35 1.02125 L 4.44 1.019492 L 4.45 1.019336 L 4.48 1.01875 L 4.49 1.018594 L 4.5 1.018398 L 4.51 1.018242 L 4.52 1.018047 L 4.54 1.017734 L 4.55 1.017539 L 4.57 1.017227 L 4.58 1.017031 L 4.7 1.015156 L 4.71 1.015039 L 4.73 1.014727 L 4.74 1.014609 L 4.76 1.014297 L 4.77 1.01418 L 4.78 1.014023 L 4.8 1.013789 L 4.81 1.013633 L 4.82 1.013516 L 4.83 1.013359 L 4.86 1.013008 L 4.87 1.012852 L 5 1.011328 " transform="matrix(100,0,0,-100,500,200)"/>
<path style="fill:none;stroke-width:0.03;stroke-linecap:butt;stroke-linejoin:miter;stroke:rgb(87.058824%,29.803922%,71.764706%);stroke-opacity:0.75;stroke-miterlimit:10;" d="M -5 -0.5 L -4.85 -0.5 L -4.84 -0.499961 L -4.3 -0.499961 L -4.29 -0.499922 L -4.05 -0.499922 L -4.04 -0.499883 L -3.88 -0.499883 L -3.87 -0.499844 L -3.75 -0.499844 L -3.74 -0.499805 L -3.65 -0.499805 L -3.64 -0.499766 L -3.57 -0.499766 L -3.56 -0.499727 L -3.5 -0.499727 L -3.49 -0.499687 L -3.43 -0.499687 L -3.42 -0.499648 L -3.38 -0.499648 L -3.37 -0.499609 L -3.33 -0.499609 L -3.32 -0.49957 L -3.28 -0.49957 L -3.27 -0.499531 L -3.24 -0.499531 L -3.23 -0.499492 L -3.2 -0.499492 L -3.19 -0.499453 L -3.17 -0.499453 L -3.16 -0.499414 L -3.13 -0.499414 L -3.12 -0.499375 L -3.1 -0.499375 L -3.09 -0.499336 L -3.07 -0.499336 L -3.06 -0.499297 L -3.05 -0.499297 L -3.04 -0.499258 L -3.02 -0.499258 L -3.01 -0.499219 L -3 -0.499219 L -2.99 -0.49918 L -2.97 -0.49918 L -2.96 -0.499141 L -2.95 -0.499141 L -2.94 -0.499102 L -2.93 -0.499102 L -2.92 -0.499062 L -2.91 -0.499062 L -2.9 -0.499023 L -2.89 -0.499023 L -2.88 -0.498984 L -2.87 -0.498984 L -2.86 -0.498945 L -2.85 -0.498945 L -2.84 -0.498906 L -2.83 -0.498906 L -2.82 -0.498867 L -2.81 -0.498867 L -2.79 -0.498789 L -2.78 -0.498789 L -2.76 -0.498711 L -2.75 -0.498711 L -2.73 -0.498633 L -2.72 -0.498633 L -2.7 -0.498555 L -2.69 -0.498555 L -2.65 -0.498398 L -2.64 -0.498398 L -2.47 -0.497734 L -2.46 -0.497656 L -2.43 -0.497539 L -2.42 -0.497461 L -2.4 -0.497383 L -2.39 -0.497305 L -2.37 -0.497227 L -2.36 -0.497148 L -2.35 -0.497109 L -2.34 -0.497031 L -2.33 -0.496992 L -2.31 -0.496836 L -2.3 -0.496797 L -2.28 -0.496641 L -2.27 -0.496602 L -2.16 -0.495742 L -2.15 -0.495625 L -2.13 -0.495469 L -2.12 -0.495352 L -2.1 -0.495195 L -2.08 -0.494961 L -2.07 -0.494883 L -2.05 -0.494648 L -2.04 -0.49457 L -1.99 -0.493984 L -1.98 -0.493828 L -1.96 -0.493594 L -1.95 -0.493438 L -1.94 -0.49332 L -1.93 -0.493164 L -1.92 -0.493047 L -1.89 -0.492578 L -1.88 -0.492461 L -1.87 -0.492305 L -1.86 -0.492109 L -1.83 -0.491641 L -1.82 -0.491445 L -1.81 -0.491289 L -1.74 -0.489922 L -1.73 -0.489688 L -1.72 -0.489492 L -1.71 -0.489258 L -1.7 -0.489063 L -1.67 -0.488359 L -1.66 -0.488086 L -1.65 -0.487852 L -1.64 -0.487578 L -1.63 -0.487344 L -1.6 -0.486523 L -1.59 -0.486211 L -1.58 -0.485937 L -1.57 -0.485625 L -1.56 -0.485352 L -1.54 -0.484727 L -1.53 -0.484375 L -1.52 -0.484062 L -1.48 -0.482656 L -1.47 -0.482266 L -1.46 -0.481914 L -1.44 -0.481133 L -1.43 -0.480703 L -1.42 -0.480313 L -1.39 -0.479023 L -1.35 -0.477148 L -1.32 -0.475625 L -1.28 -0.473438 L -1.26 -0.472266 L -1.23 -0.470391 L -1.2 -0.468398 L -1.18 -0.466992 L -1.16 -0.465508 L -1.13 -0.463164 L -1.12 -0.462344 L -1.09 -0.459766 L -1.08 -0.458867 L -1.06 -0.456992 L -1.04 -0.455039 L -1.03 -0.454023 L -1.01 -0.451914 L -1 -0.45082 L -0.98 -0.448555 L -0.97 -0.447383 L -0.95 -0.444961 L -0.93 -0.442383 L -0.91 -0.439727 L -0.89 -0.436914 L -0.87 -0.433945 L -0.86 -0.432422 L -0.84 -0.429219 L -0.83 -0.427578 L -0.81 -0.424141 L -0.79 -0.420547 L -0.78 -0.418672 L -0.77 -0.416758 L -0.75 -0.412773 L -0.74 -0.410703 L -0.72 -0.406406 L -0.71 -0.40418 L -0.7 -0.401875 L -0.69 -0.399531 L -0.68 -0.397148 L -0.67 -0.394687 L -0.66 -0.392148 L -0.65 -0.38957 L -0.64 -0.386914 L -0.63 -0.38418 L -0.62 -0.381367 L -0.61 -0.378516 L -0.6 -0.375586 L -0.59 -0.372578 L -0.58 -0.369492 L -0.57 -0.366328 L -0.56 -0.363086 L -0.55 -0.359766 L -0.54 -0.356328 L -0.53 -0.352852 L -0.52 -0.349258 L -0.51 -0.345586 L -0.5 -0.341797 L -0.49 -0.337969 L -0.48 -0.333984 L -0.47 -0.329961 L -0.46 -0.325781 L -0.45 -0.321523 L -0.44 -0.317188 L -0.43 -0.312734 L -0.42 -0.308125 L -0.41 -0.303477 L -0.4 -0.298672 L -0.39 -0.29375 L -0.38 -0.288711 L -0.37 -0.283594 L -0.36 -0.27832 L -0.35 -0.27293 L -0.34 -0.267422 L -0.33 -0.261797 L -0.32 -0.256016 L -0.31 -0.250117 L -0.3 -0.244102 L -0.29 -0.23793 L -0.28 -0.231641 L -0.27 -0.225234 L -0.26 -0.218633 L -0.25 -0.211953 L -0.24 -0.205117 L -0.23 -0.198125 L -0.22 -0.191016 L -0.21 -0.18375 L -0.2 -0.176328 L -0.19 -0.168789 L -0.18 -0.161094 L -0.17 -0.153281 L -0.16 -0.145313 L -0.15 -0.137188 L -0.14 -0.128945 L -0.13 -0.120586 L -0.12 -0.11207 L -0.11 -0.103398 L -0.1 -0.0946094 L -0.09 -0.0856641 L -0.08 -0.0766406 L -0.07 -0.0674609 L -0.06 -0.0581641 L -0.05 -0.04875 L -0.04 -0.0392187 L -0.03 -0.0295703 L -0.02 -0.0198047 L -0.01 -0.00996094 L 0 0 L 0.02 0.0200781 L 0.03 0.0301953 L 0.04 0.0403516 L 0.05 0.0505469 L 0.06 0.0607813 L 0.07 0.0710547 L 0.09 0.0916797 L 0.11 0.112461 L 0.12 0.122891 L 0.14 0.143828 L 0.15 0.154336 L 0.17 0.17543 L 0.21 0.217773 L 0.23 0.239023 L 0.24 0.249688 L 0.27 0.281562 L 0.28 0.292227 L 0.31 0.324102 L 0.34 0.355859 L 0.36 0.376953 L 0.37 0.387461 L 0.39 0.408398 L 0.4 0.418828 L 0.42 0.439609 L 0.44 0.460234 L 0.46 0.480703 L 0.47 0.490859 L 0.48 0.500977 L 0.49 0.511055 L 0.5 0.521094 L 0.51 0.531055 L 0.52 0.540977 L 0.53 0.550859 L 0.54 0.560664 L 0.55 0.570391 L 0.56 0.580078 L 0.57 0.589727 L 0.58 0.599258 L 0.59 0.60875 L 0.6 0.618164 L 0.61 0.6275 L 0.62 0.636797 L 0.63 0.645977 L 0.64 0.655117 L 0.65 0.66418 L 0.66 0.673125 L 0.67 0.682031 L 0.68 0.690859 L 0.69 0.69957 L 0.7 0.708203 L 0.71 0.716797 L 0.72 0.725234 L 0.73 0.733633 L 0.74 0.741953 L 0.75 0.750156 L 0.76 0.758242 L 0.77 0.766289 L 0.78 0.774219 L 0.79 0.78207 L 0.8 0.789805 L 0.81 0.797461 L 0.82 0.805 L 0.83 0.812461 L 0.84 0.819844 L 0.85 0.827109 L 0.86 0.834258 L 0.87 0.841328 L 0.88 0.84832 L 0.89 0.855195 L 0.9 0.861953 L 0.91 0.868633 L 0.92 0.875234 L 0.93 0.88168 L 0.94 0.888086 L 0.95 0.894336 L 0.96 0.900508 L 0.97 0.906602 L 0.98 0.912578 L 0.99 0.918438 L 1 0.924219 L 1.01 0.929922 L 1.02 0.935508 L 1.03 0.940977 L 1.04 0.946367 L 1.05 0.951641 L 1.06 0.956836 L 1.07 0.961914 L 1.08 0.966914 L 1.09 0.971836 L 1.1 0.976602 L 1.11 0.981328 L 1.12 0.985937 L 1.13 0.990469 L 1.14 0.994883 L 1.15 0.999219 L 1.16 1.003477 L 1.17 1.007617 L 1.18 1.01168 L 1.19 1.015664 L 1.2 1.019531 L 1.21 1.02332 L 1.22 1.027031 L 1.23 1.030664 L 1.24 1.03418 L 1.25 1.037656 L 1.26 1.041016 L 1.27 1.044297 L 1.28 1.0475 L 1.29 1.050625 L 1.3 1.053672 L 1.31 1.056641 L 1.32 1.059492 L 1.33 1.062305 L 1.34 1.065039 L 1.35 1.067695 L 1.36 1.070312 L 1.37 1.072812 L 1.38 1.075234 L 1.39 1.077617 L 1.4 1.079922 L 1.41 1.082148 L 1.42 1.084297 L 1.43 1.086406 L 1.44 1.088437 L 1.45 1.090391 L 1.46 1.092305 L 1.47 1.094141 L 1.48 1.095938 L 1.5 1.099297 L 1.51 1.100898 L 1.52 1.102422 L 1.53 1.103906 L 1.54 1.105352 L 1.55 1.106719 L 1.56 1.108047 L 1.57 1.109297 L 1.58 1.110508 L 1.59 1.11168 L 1.6 1.112812 L 1.61 1.113867 L 1.62 1.114883 L 1.63 1.115859 L 1.64 1.116797 L 1.65 1.117695 L 1.66 1.118516 L 1.68 1.120078 L 1.69 1.120781 L 1.7 1.121445 L 1.71 1.12207 L 1.73 1.123242 L 1.74 1.12375 L 1.76 1.124687 L 1.78 1.125469 L 1.79 1.12582 L 1.8 1.126133 L 1.81 1.126406 L 1.83 1.126875 L 1.84 1.12707 L 1.85 1.127227 L 1.87 1.127461 L 1.88 1.127539 L 1.9 1.127617 L 1.92 1.127617 L 1.93 1.127578 L 1.95 1.127422 L 1.97 1.127188 L 1.98 1.127031 L 1.99 1.126836 L 2 1.12668 L 2.01 1.126445 L 2.02 1.12625 L 2.03 1.125977 L 2.04 1.125742 L 2.05 1.125469 L 2.08 1.124531 L 2.11 1.123477 L 2.14 1.122305 L 2.18 1.120586 L 2.21 1.11918 L 2.22 1.118672 L 2.23 1.118203 L 2.25 1.117188 L 2.26 1.116641 L 2.27 1.116133 L 2.32 1.113398 L 2.34 1.112227 L 2.35 1.11168 L 2.37 1.110508 L 2.38 1.109883 L 2.4 1.108711 L 2.41 1.108086 L 2.42 1.1075 L 2.43 1.106875 L 2.44 1.106289 L 2.52 1.101289 L 2.53 1.100625 L 2.56 1.09875 L 2.57 1.098086 L 2.59 1.096836 L 2.6 1.096172 L 2.62 1.094922 L 2.63 1.094258 L 2.65 1.093008 L 2.66 1.092344 L 2.69 1.090469 L 2.7 1.089805 L 2.83 1.08168 L 2.84 1.081094 L 2.86 1.079844 L 2.87 1.079258 L 2.88 1.078633 L 2.9 1.077461 L 2.91 1.076836 L 2.99 1.072148 L 3 1.071602 L 3.01 1.071016 L 3.02 1.070469 L 3.03 1.069883 L 3.04 1.069336 L 3.05 1.06875 L 3.13 1.064375 L 3.14 1.063867 L 3.15 1.06332 L 3.16 1.062812 L 3.17 1.062266 L 3.25 1.058203 L 3.26 1.057734 L 3.27 1.057227 L 3.28 1.056758 L 3.29 1.05625 L 3.31 1.055312 L 3.32 1.054805 L 3.35 1.053398 L 3.36 1.052969 L 3.38 1.052031 L 3.39 1.051602 L 3.4 1.051133 L 3.41 1.050703 L 3.42 1.050234 L 3.5 1.046797 L 3.51 1.046406 L 3.52 1.045977 L 3.53 1.045586 L 3.54 1.045156 L 3.62 1.042031 L 3.63 1.04168 L 3.65 1.040898 L 3.67 1.040195 L 3.68 1.039805 L 3.76 1.036992 L 3.77 1.03668 L 3.78 1.036328 L 3.79 1.036016 L 3.8 1.035664 L 3.81 1.035352 L 3.82 1.035 L 3.9 1.0325 L 3.91 1.032227 L 3.92 1.031914 L 3.93 1.031641 L 3.94 1.031328 L 3.95 1.031055 L 3.96 1.030742 L 3.98 1.030195 L 3.99 1.029883 L 4.04 1.028516 L 4.05 1.028281 L 4.08 1.027461 L 4.09 1.027227 L 4.1 1.026953 L 4.11 1.026719 L 4.12 1.026445 L 4.14 1.025977 L 4.15 1.025703 L 4.23 1.023828 L 4.24 1.023633 L 4.26 1.023164 L 4.27 1.022969 L 4.29 1.0225 L 4.31 1.022109 L 4.32 1.021875 L 4.34 1.021484 L 4.35 1.02125 L 4.44 1.019492 L 4.45 1.019336 L 4.48 1.01875 L 4.49 1.018594 L 4.5 1.018398 L 4.51 1.018242 L 4.52 1.018047 L 4.54 1.017734 L 4.55 1.017539 L 4.57 1.017227 L 4.58 1.017031 L 4.7 1.015156 L 4.71 1.015039 L 4.73 1.014727 L 4.74 1.014609 L 4.76 1.014297 L 4.77 1.01418 L 4.78 1.014023 L 4.8 1.013789 L 4.81 1.013633 L 4.82 1.013516 L 4.83 1.013359 L 4.86 1.013008 L 4.87 1.012852 L 5 1.011328 " transform="matrix(100,0,0,-100,500,200)"/>
<path style="fill:none;stroke-width:0.03;stroke-linecap:butt;stroke-linejoin:miter;stroke:rgb(87.058824%,29.803922%,71.764706%);stroke-opacity:0.5;stroke-miterlimit:10;" d="M -5 -0.25 L -2.25 -0.25 L -2.24 -0.249961 L -1.98 -0.249961 L -1.97 -0.249922 L -1.85 -0.249922 L -1.84 -0.249883 L -1.77 -0.249883 L -1.76 -0.249844 L -1.71 -0.249844 L -1.7 -0.249805 L -1.66 -0.249805 L -1.65 -0.249766 L -1.61 -0.249766 L -1.6 -0.249727 L -1.58 -0.249727 L -1.57 -0.249687 L -1.55 -0.249687 L -1.54 -0.249648 L -1.52 -0.249648 L -1.51 -0.249609 L -1.49 -0.249609 L -1.48 -0.24957 L -1.47 -0.24957 L -1.46 -0.249531 L -1.45 -0.249531 L -1.44 -0.249492 L -1.43 -0.249492 L -1.42 -0.249453 L -1.41 -0.249453 L -1.39 -0.249375 L -1.38 -0.249375 L -1.36 -0.249297 L -1.35 -0.249297 L -1.31 -0.249141 L -1.3 -0.249141 L -1.25 -0.248945 L -1.24 -0.248867 L -1.21 -0.24875 L -1.2 -0.248672 L -1.18 -0.248594 L -1.16 -0.248438 L -1.15 -0.248398 L -1.13 -0.248242 L -1.12 -0.248203 L -1.09 -0.247969 L -1.08 -0.247852 L -1.06 -0.247695 L -1.05 -0.247578 L -1.04 -0.2475 L -0.98 -0.246797 L -0.97 -0.246641 L -0.96 -0.246523 L -0.91 -0.245742 L -0.87 -0.244961 L -0.86 -0.244727 L -0.85 -0.244531 L -0.83 -0.244063 L -0.79 -0.242969 L -0.76 -0.242031 L -0.74 -0.241328 L -0.71 -0.240156 L -0.7 -0.239727 L -0.69 -0.239258 L -0.68 -0.238828 L -0.66 -0.237812 L -0.64 -0.236719 L -0.63 -0.236133 L -0.61 -0.234883 L -0.58 -0.232773 L -0.57 -0.231992 L -0.56 -0.231172 L -0.55 -0.230313 L -0.54 -0.229414 L -0.53 -0.228477 L -0.52 -0.2275 L -0.51 -0.226484 L -0.49 -0.224297 L -0.48 -0.223086 L -0.47 -0.221836 L -0.46 -0.220547 L -0.45 -0.21918 L -0.44 -0.217734 L -0.43 -0.216211 L -0.42 -0.214609 L -0.41 -0.21293 L -0.4 -0.211172 L -0.39 -0.209336 L -0.38 -0.207383 L -0.37 -0.205352 L -0.36 -0.203203 L -0.35 -0.200938 L -0.34 -0.198555 L -0.33 -0.196055 L -0.32 -0.193437 L -0.31 -0.190703 L -0.3 -0.187773 L -0.29 -0.184727 L -0.28 -0.181523 L -0.27 -0.178164 L -0.26 -0.174609 L -0.25 -0.170898 L -0.24 -0.166992 L -0.23 -0.162891 L -0.22 -0.158594 L -0.21 -0.154063 L -0.2 -0.149336 L -0.19 -0.144375 L -0.18 -0.139141 L -0.17 -0.133711 L -0.16 -0.128008 L -0.15 -0.122031 L -0.14 -0.11582 L -0.13 -0.109336 L -0.12 -0.102539 L -0.11 -0.0955078 L -0.1 -0.0881641 L -0.09 -0.0805469 L -0.08 -0.0726563 L -0.07 -0.0644922 L -0.06 -0.0560156 L -0.05 -0.0473047 L -0.04 -0.0383203 L -0.03 -0.0290625 L -0.02 -0.0196094 L -0.01 -0.00992187 L 0 0 L 0.02 0.0200781 L 0.03 0.0301953 L 0.04 0.0403516 L 0.05 0.0505469 L 0.06 0.0607813 L 0.07 0.0710547 L 0.09 0.0916797 L 0.11 0.112461 L 0.12 0.122891 L 0.14 0.143828 L 0.15 0.154336 L 0.17 0.17543 L 0.21 0.217773 L 0.23 0.239023 L 0.24 0.249688 L 0.27 0.281562 L 0.28 0.292227 L 0.31 0.324102 L 0.34 0.355859 L 0.36 0.376953 L 0.37 0.387461 L 0.39 0.408398 L 0.4 0.418828 L 0.42 0.439609 L 0.44 0.460234 L 0.46 0.480703 L 0.47 0.490859 L 0.48 0.500977 L 0.49 0.511055 L 0.5 0.521094 L 0.51 0.531055 L 0.52 0.540977 L 0.53 0.550859 L 0.54 0.560664 L 0.55 0.570391 L 0.56 0.580078 L 0.57 0.589727 L 0.58 0.599258 L 0.59 0.60875 L 0.6 0.618164 L 0.61 0.6275 L 0.62 0.636797 L 0.63 0.645977 L 0.64 0.655117 L 0.65 0.66418 L 0.66 0.673125 L 0.67 0.682031 L 0.68 0.690859 L 0.69 0.69957 L 0.7 0.708203 L 0.71 0.716797 L 0.72 0.725234 L 0.73 0.733633 L 0.74 0.741953 L 0.75 0.750156 L 0.76 0.758242 L 0.77 0.766289 L 0.78 0.774219 L 0.79 0.78207 L 0.8 0.789805 L 0.81 0.797461 L 0.82 0.805 L 0.83 0.812461 L 0.84 0.819844 L 0.85 0.827109 L 0.86 0.834258 L 0.87 0.841328 L 0.88 0.84832 L 0.89 0.855195 L 0.9 0.861953 L 0.91 0.868633 L 0.92 0.875234 L 0.93 0.88168 L 0.94 0.888086 L 0.95 0.894336 L 0.96 0.900508 L 0.97 0.906602 L 0.98 0.912578 L 0.99 0.918438 L 1 0.924219 L 1.01 0.929922 L 1.02 0.935508 L 1.03 0.940977 L 1.04 0.946367 L 1.05 0.951641 L 1.06 0.956836 L 1.07 0.961914 L 1.08 0.966914 L 1.09 0.971836 L 1.1 0.976602 L 1.11 0.981328 L 1.12 0.985937 L 1.13 0.990469 L 1.14 0.994883 L 1.15 0.999219 L 1.16 1.003477 L 1.17 1.007617 L 1.18 1.01168 L 1.19 1.015664 L 1.2 1.019531 L 1.21 1.02332 L 1.22 1.027031 L 1.23 1.030664 L 1.24 1.03418 L 1.25 1.037656 L 1.26 1.041016 L 1.27 1.044297 L 1.28 1.0475 L 1.29 1.050625 L 1.3 1.053672 L 1.31 1.056641 L 1.32 1.059492 L 1.33 1.062305 L 1.34 1.065039 L 1.35 1.067695 L 1.36 1.070312 L 1.37 1.072812 L 1.38 1.075234 L 1.39 1.077617 L 1.4 1.079922 L 1.41 1.082148 L 1.42 1.084297 L 1.43 1.086406 L 1.44 1.088437 L 1.45 1.090391 L 1.46 1.092305 L 1.47 1.094141 L 1.48 1.095938 L 1.5 1.099297 L 1.51 1.100898 L 1.52 1.102422 L 1.53 1.103906 L 1.54 1.105352 L 1.55 1.106719 L 1.56 1.108047 L 1.57 1.109297 L 1.58 1.110508 L 1.59 1.11168 L 1.6 1.112812 L 1.61 1.113867 L 1.62 1.114883 L 1.63 1.115859 L 1.64 1.116797 L 1.65 1.117695 L 1.66 1.118516 L 1.68 1.120078 L 1.69 1.120781 L 1.7 1.121445 L 1.71 1.12207 L 1.73 1.123242 L 1.74 1.12375 L 1.76 1.124687 L 1.78 1.125469 L 1.79 1.12582 L 1.8 1.126133 L 1.81 1.126406 L 1.83 1.126875 L 1.84 1.12707 L 1.85 1.127227 L 1.87 1.127461 L 1.88 1.127539 L 1.9 1.127617 L 1.92 1.127617 L 1.93 1.127578 L 1.95 1.127422 L 1.97 1.127188 L 1.98 1.127031 L 1.99 1.126836 L 2 1.12668 L 2.01 1.126445 L 2.02 1.12625 L 2.03 1.125977 L 2.04 1.125742 L 2.05 1.125469 L 2.08 1.124531 L 2.11 1.123477 L 2.14 1.122305 L 2.18 1.120586 L 2.21 1.11918 L 2.22 1.118672 L 2.23 1.118203 L 2.25 1.117188 L 2.26 1.116641 L 2.27 1.116133 L 2.32 1.113398 L 2.34 1.112227 L 2.35 1.11168 L 2.37 1.110508 L 2.38 1.109883 L 2.4 1.108711 L 2.41 1.108086 L 2.42 1.1075 L 2.43 1.106875 L 2.44 1.106289 L 2.52 1.101289 L 2.53 1.100625 L 2.56 1.09875 L 2.57 1.098086 L 2.59 1.096836 L 2.6 1.096172 L 2.62 1.094922 L 2.63 1.094258 L 2.65 1.093008 L 2.66 1.092344 L 2.69 1.090469 L 2.7 1.089805 L 2.83 1.08168 L 2.84 1.081094 L 2.86 1.079844 L 2.87 1.079258 L 2.88 1.078633 L 2.9 1.077461 L 2.91 1.076836 L 2.99 1.072148 L 3 1.071602 L 3.01 1.071016 L 3.02 1.070469 L 3.03 1.069883 L 3.04 1.069336 L 3.05 1.06875 L 3.13 1.064375 L 3.14 1.063867 L 3.15 1.06332 L 3.16 1.062812 L 3.17 1.062266 L 3.25 1.058203 L 3.26 1.057734 L 3.27 1.057227 L 3.28 1.056758 L 3.29 1.05625 L 3.31 1.055312 L 3.32 1.054805 L 3.35 1.053398 L 3.36 1.052969 L 3.38 1.052031 L 3.39 1.051602 L 3.4 1.051133 L 3.41 1.050703 L 3.42 1.050234 L 3.5 1.046797 L 3.51 1.046406 L 3.52 1.045977 L 3.53 1.045586 L 3.54 1.045156 L 3.62 1.042031 L 3.63 1.04168 L 3.65 1.040898 L 3.67 1.040195 L 3.68 1.039805 L 3.76 1.036992 L 3.77 1.03668 L 3.78 1.036328 L 3.79 1.036016 L 3.8 1.035664 L 3.81 1.035352 L 3.82 1.035 L 3.9 1.0325 L 3.91 1.032227 L 3.92 1.031914 L 3.93 1.031641 L 3.94 1.031328 L 3.95 1.031055 L 3.96 1.030742 L 3.98 1.030195 L 3.99 1.029883 L 4.04 1.028516 L 4.05 1.028281 L 4.08 1.027461 L 4.09 1.027227 L 4.1 1.026953 L 4.11 1.026719 L 4.12 1.026445 L 4.14 1.025977 L 4.15 1.025703 L 4.23 1.023828 L 4.24 1.023633 L 4.26 1.023164 L 4.27 1.022969 L 4.29 1.0225 L 4.31 1.022109 L 4.32 1.021875 L 4.34 1.021484 L 4.35 1.02125 L 4.44 1.019492 L 4.45 1.019336 L 4.48 1.01875 L 4.49 1.018594 L 4.5 1.018398 L 4.51 1.018242 L 4.52 1.018047 L 4.54 1.017734 L 4.55 1.017539 L 4.57 1.017227 L 4.58 1.017031 L 4.7 1.015156 L 4.71 1.015039 L 4.73 1.014727 L 4.74 1.014609 L 4.76 1.014297 L 4.77 1.01418 L 4.78 1.014023 L 4.8 1.013789 L 4.81 1.013633 L 4.82 1.013516 L 4.83 1.013359 L 4.86 1.013008 L 4.87 1.012852 L 5 1.011328 " transform="matrix(100,0,0,-100,500,200)"/>
<path style="fill:none;stroke-width:0.03;stroke-linecap:butt;stroke-linejoin:miter;stroke:rgb(87.058824%,29.803922%,71.764706%);stroke-opacity:0.25;stroke-miterlimit:10;" d="M -5 -0.125 L -1.04 -0.125 L -1.03 -0.124961 L -0.91 -0.124961 L -0.9 -0.124922 L -0.84 -0.124922 L -0.83 -0.124883 L -0.8 -0.124883 L -0.79 -0.124844 L -0.77 -0.124844 L -0.76 -0.124805 L -0.74 -0.124805 L -0.73 -0.124766 L -0.72 -0.124766 L -0.7 -0.124687 L -0.69 -0.124687 L -0.67 -0.124609 L -0.66 -0.124609 L -0.62 -0.124453 L -0.61 -0.124375 L -0.59 -0.124297 L -0.58 -0.124219 L -0.57 -0.12418 L -0.54 -0.123945 L -0.53 -0.123828 L -0.52 -0.12375 L -0.49 -0.123398 L -0.48 -0.123242 L -0.47 -0.123125 L -0.46 -0.12293 L -0.45 -0.122773 L -0.43 -0.122383 L -0.41 -0.121914 L -0.4 -0.121641 L -0.38 -0.121016 L -0.37 -0.120664 L -0.36 -0.120273 L -0.34 -0.119414 L -0.33 -0.118906 L -0.32 -0.118359 L -0.31 -0.117773 L -0.3 -0.117109 L -0.29 -0.116367 L -0.28 -0.115586 L -0.27 -0.114727 L -0.26 -0.11375 L -0.25 -0.112695 L -0.24 -0.111563 L -0.23 -0.110273 L -0.22 -0.108867 L -0.21 -0.107305 L -0.2 -0.105586 L -0.19 -0.103711 L -0.18 -0.101602 L -0.17 -0.0992969 L -0.16 -0.0967187 L -0.15 -0.0939062 L -0.14 -0.0907813 L -0.13 -0.0873047 L -0.12 -0.0835156 L -0.11 -0.0792969 L -0.1 -0.0746484 L -0.09 -0.0695703 L -0.08 -0.0639844 L -0.07 -0.0579297 L -0.06 -0.0512891 L -0.05 -0.0441016 L -0.04 -0.0363281 L -0.03 -0.0280078 L -0.02 -0.0191406 L -0.01 -0.00980469 L 0 0 L 0.02 0.0200781 L 0.03 0.0301953 L 0.04 0.0403516 L 0.05 0.0505469 L 0.06 0.0607813 L 0.07 0.0710547 L 0.09 0.0916797 L 0.11 0.112461 L 0.12 0.122891 L 0.14 0.143828 L 0.15 0.154336 L 0.17 0.17543 L 0.21 0.217773 L 0.23 0.239023 L 0.24 0.249688 L 0.27 0.281562 L 0.28 0.292227 L 0.31 0.324102 L 0.34 0.355859 L 0.36 0.376953 L 0.37 0.387461 L 0.39 0.408398 L 0.4 0.418828 L 0.42 0.439609 L 0.44 0.460234 L 0.46 0.480703 L 0.47 0.490859 L 0.48 0.500977 L 0.49 0.511055 L 0.5 0.521094 L 0.51 0.531055 L 0.52 0.540977 L 0.53 0.550859 L 0.54 0.560664 L 0.55 0.570391 L 0.56 0.580078 L 0.57 0.589727 L 0.58 0.599258 L 0.59 0.60875 L 0.6 0.618164 L 0.61 0.6275 L 0.62 0.636797 L 0.63 0.645977 L 0.64 0.655117 L 0.65 0.66418 L 0.66 0.673125 L 0.67 0.682031 L 0.68 0.690859 L 0.69 0.69957 L 0.7 0.708203 L 0.71 0.716797 L 0.72 0.725234 L 0.73 0.733633 L 0.74 0.741953 L 0.75 0.750156 L 0.76 0.758242 L 0.77 0.766289 L 0.78 0.774219 L 0.79 0.78207 L 0.8 0.789805 L 0.81 0.797461 L 0.82 0.805 L 0.83 0.812461 L 0.84 0.819844 L 0.85 0.827109 L 0.86 0.834258 L 0.87 0.841328 L 0.88 0.84832 L 0.89 0.855195 L 0.9 0.861953 L 0.91 0.868633 L 0.92 0.875234 L 0.93 0.88168 L 0.94 0.888086 L 0.95 0.894336 L 0.96 0.900508 L 0.97 0.906602 L 0.98 0.912578 L 0.99 0.918438 L 1 0.924219 L 1.01 0.929922 L 1.02 0.935508 L 1.03 0.940977 L 1.04 0.946367 L 1.05 0.951641 L 1.06 0.956836 L 1.07 0.961914 L 1.08 0.966914 L 1.09 0.971836 L 1.1 0.976602 L 1.11 0.981328 L 1.12 0.985937 L 1.13 0.990469 L 1.14 0.994883 L 1.15 0.999219 L 1.16 1.003477 L 1.17 1.007617 L 1.18 1.01168 L 1.19 1.015664 L 1.2 1.019531 L 1.21 1.02332 L 1.22 1.027031 L 1.23 1.030664 L 1.24 1.03418 L 1.25 1.037656 L 1.26 1.041016 L 1.27 1.044297 L 1.28 1.0475 L 1.29 1.050625 L 1.3 1.053672 L 1.31 1.056641 L 1.32 1.059492 L 1.33 1.062305 L 1.34 1.065039 L 1.35 1.067695 L 1.36 1.070312 L 1.37 1.072812 L 1.38 1.075234 L 1.39 1.077617 L 1.4 1.079922 L 1.41 1.082148 L 1.42 1.084297 L 1.43 1.086406 L 1.44 1.088437 L 1.45 1.090391 L 1.46 1.092305 L 1.47 1.094141 L 1.48 1.095938 L 1.5 1.099297 L 1.51 1.100898 L 1.52 1.102422 L 1.53 1.103906 L 1.54 1.105352 L 1.55 1.106719 L 1.56 1.108047 L 1.57 1.109297 L 1.58 1.110508 L 1.59 1.11168 L 1.6 1.112812 L 1.61 1.113867 L 1.62 1.114883 L 1.63 1.115859 L 1.64 1.116797 L 1.65 1.117695 L 1.66 1.118516 L 1.68 1.120078 L 1.69 1.120781 L 1.7 1.121445 L 1.71 1.12207 L 1.73 1.123242 L 1.74 1.12375 L 1.76 1.124687 L 1.78 1.125469 L 1.79 1.12582 L 1.8 1.126133 L 1.81 1.126406 L 1.83 1.126875 L 1.84 1.12707 L 1.85 1.127227 L 1.87 1.127461 L 1.88 1.127539 L 1.9 1.127617 L 1.92 1.127617 L 1.93 1.127578 L 1.95 1.127422 L 1.97 1.127188 L 1.98 1.127031 L 1.99 1.126836 L 2 1.12668 L 2.01 1.126445 L 2.02 1.12625 L 2.03 1.125977 L 2.04 1.125742 L 2.05 1.125469 L 2.08 1.124531 L 2.11 1.123477 L 2.14 1.122305 L 2.18 1.120586 L 2.21 1.11918 L 2.22 1.118672 L 2.23 1.118203 L 2.25 1.117188 L 2.26 1.116641 L 2.27 1.116133 L 2.32 1.113398 L 2.34 1.112227 L 2.35 1.11168 L 2.37 1.110508 L 2.38 1.109883 L 2.4 1.108711 L 2.41 1.108086 L 2.42 1.1075 L 2.43 1.106875 L 2.44 1.106289 L 2.52 1.101289 L 2.53 1.100625 L 2.56 1.09875 L 2.57 1.098086 L 2.59 1.096836 L 2.6 1.096172 L 2.62 1.094922 L 2.63 1.094258 L 2.65 1.093008 L 2.66 1.092344 L 2.69 1.090469 L 2.7 1.089805 L 2.83 1.08168 L 2.84 1.081094 L 2.86 1.079844 L 2.87 1.079258 L 2.88 1.078633 L 2.9 1.077461 L 2.91 1.076836 L 2.99 1.072148 L 3 1.071602 L 3.01 1.071016 L 3.02 1.070469 L 3.03 1.069883 L 3.04 1.069336 L 3.05 1.06875 L 3.13 1.064375 L 3.14 1.063867 L 3.15 1.06332 L 3.16 1.062812 L 3.17 1.062266 L 3.25 1.058203 L 3.26 1.057734 L 3.27 1.057227 L 3.28 1.056758 L 3.29 1.05625 L 3.31 1.055312 L 3.32 1.054805 L 3.35 1.053398 L 3.36 1.052969 L 3.38 1.052031 L 3.39 1.051602 L 3.4 1.051133 L 3.41 1.050703 L 3.42 1.050234 L 3.5 1.046797 L 3.51 1.046406 L 3.52 1.045977 L 3.53 1.045586 L 3.54 1.045156 L 3.62 1.042031 L 3.63 1.04168 L 3.65 1.040898 L 3.67 1.040195 L 3.68 1.039805 L 3.76 1.036992 L 3.77 1.03668 L 3.78 1.036328 L 3.79 1.036016 L 3.8 1.035664 L 3.81 1.035352 L 3.82 1.035 L 3.9 1.0325 L 3.91 1.032227 L 3.92 1.031914 L 3.93 1.031641 L 3.94 1.031328 L 3.95 1.031055 L 3.96 1.030742 L 3.98 1.030195 L 3.99 1.029883 L 4.04 1.028516 L 4.05 1.028281 L 4.08 1.027461 L 4.09 1.027227 L 4.1 1.026953 L 4.11 1.026719 L 4.12 1.026445 L 4.14 1.025977 L 4.15 1.025703 L 4.23 1.023828 L 4.24 1.023633 L 4.26 1.023164 L 4.27 1.022969 L 4.29 1.0225 L 4.31 1.022109 L 4.32 1.021875 L 4.34 1.021484 L 4.35 1.02125 L 4.44 1.019492 L 4.45 1.019336 L 4.48 1.01875 L 4.49 1.018594 L 4.5 1.018398 L 4.51 1.018242 L 4.52 1.018047 L 4.54 1.017734 L 4.55 1.017539 L 4.57 1.017227 L 4.58 1.017031 L 4.7 1.015156 L 4.71 1.015039 L 4.73 1.014727 L 4.74 1.014609 L 4.76 1.014297 L 4.77 1.01418 L 4.78 1.014023 L 4.8 1.013789 L 4.81 1.013633 L 4.82 1.013516 L 4.83 1.013359 L 4.86 1.013008 L 4.87 1.012852 L 5 1.011328 " transform="matrix(100,0,0,-100,500,200)"/>
</g>
</svg>
