<?xml version="1.0" encoding="UTF-8"?>
<svg xmlns="http://www.w3.org/2000/svg" xmlns:xlink="http://www.w3.org/1999/xlink" width="1000pt" height="400pt" viewBox="0 0 1000 400" version="1.1">
<g id="surface6">
<rect x="0" y="0" width="1000" height="400" style="fill:rgb(0%,0%,0%);fill-opacity:1;stroke:none;"/>
<path style="fill:none;stroke-width:0.01;stroke-linecap:butt;stroke-linejoin:miter;stroke:rgb(100%,100%,100%);stroke-opacity:0.5;stroke-miterlimit:10;" d="M -5 -2 L -5 2 " transform="matrix(100,0,0,-100,500,200)"/>
<path style="fill:none;stroke-width:0.01;stroke-linecap:butt;stroke-linejoin:miter;stroke:rgb(100%,100%,100%);stroke-opacity:0.5;stroke-miterlimit:10;" d="M -4 -2 L -4 2 " transform="matrix(100,0,0,-100,500,200)"/>
<path style="fill:none;stroke-width:0.01;stroke-linecap:butt;stroke-linejoin:miter;stroke:rgb(100%,100%,100%);stroke-opacity:0.5;stroke-miterlimit:10;" d="M -3 -2 L -3 2 " transform="matrix(100,0,0,-100,500,200)"/>
<path style="fill:none;stroke-width:0.01;stroke-linecap:butt;stroke-linejoin:miter;stroke:rgb(100%,100%,100%);stroke-opacity:0.5;stroke-miterlimit:10;" d="M -2 -2 L -2 2 " transform="matrix(100,0,0,-100,500,200)"/>
<path style="fill:none;stroke-width:0.01;stroke-linecap:butt;stroke-linejoin:miter;stroke:rgb(100%,100%,100%);stroke-opacity:0.5;stroke-miterlimit:10;" d="M -1 -2 L -1 2 " transform="matrix(100,0,0,-100,500,200)"/>
<path style="fill:none;stroke-width:0.01;stroke-linecap:butt;stroke-linejoin:miter;stroke:rgb(100%,100%,100%);stroke-opacity:1;stroke-miterlimit:10;" d="M 0 -2 L 0 2 " transform="matrix(100,0,0,-100,500,200)"/>
<path style="fill:none;stroke-width:0.01;stroke-linecap:butt;stroke-linejoin:miter;stroke:rgb(100%,100%,100%);stroke-opacity:0.5;stroke-miterlimit:10;" d="M 1 -2 L 1 2 " transform="matrix(100,0,0,-100,500,200)"/>
<path style="fill:none;stroke-width:0.01;stroke-linecap:butt;stroke-linejoin:miter;stroke:rgb(100%,100%,100%);stroke-opacity:0.5;stroke-miterlimit:10;" d="M 2 -2 L 2 2 " transform="matrix(100,0,0,-100,500,200)"/>
<path style="fill:none;stroke-width:0.01;stroke-linecap:butt;stroke-linejoin:miter;stroke:rgb(100%,100%,100%);stroke-opacity:0.5;stroke-miterlimit:10;" d="M 3 -2 L 3 2 " transform="matrix(100,0,0,-100,500,200)"/>
<path style="fill:none;stroke-width:0.01;stroke-linecap:butt;stroke-linejoin:miter;stroke:rgb(100%,100%,100%);stroke-opacity:0.5;stroke-miterlimit:10;" d="M 4 -2 L 4 2 " transform="matrix(100,0,0,-100,500,200)"/>
<path style="fill:none;stroke-width:0.01;stroke-linecap:butt;stroke-linejoin:miter;stroke:rgb(100%,100%,100%);stroke-opacity:0.5;stroke-miterlimit:10;" d="M 5 -2 L 5 2 " transform="matrix(100,0,0,-100,500,200)"/>
<path style="fill:none;stroke-width:0.005;stroke-linecap:butt;stroke-linejoin:miter;stroke:rgb(100%,100%,100%);stroke-opacity:0.25;stroke-miterlimit:10;" d="M -4.75 -2 L -4.75 2 " transform="matrix(100,0,0,-100,500,200)"/>
<path style="fill:none;stroke-width:0.005;stroke-linecap:butt;stroke-linejoin:miter;stroke:rgb(100%,100%,100%);stroke-opacity:0.25;stroke-miterlimit:10;" d="M -4.5 -2 L -4.5 2 " transform="matrix(100,0,0,-100,500,200)"/>
<path style="fill:none;stroke-width:0.005;stroke-linecap:butt;stroke-linejoin:miter;stroke:rgb(100%,100%,100%);stroke-opacity:0.25;stroke-miterlimit:10;" d="M -4.25 -2 L -4.25 2 " transform="matrix(100,0,0,-100,500,200)"/>
<path style="fill:none;stroke-width:0.005;stroke-linecap:butt;stroke-linejoin:miter;stroke:rgb(100%,100%,100%);stroke-opacity:0.25;stroke-miterlimit:10;" d="M -3.75 -2 L -3.75 2 " transform="matrix(100,0,0,-100,500,200)"/>
<path style="fill:none;stroke-width:0.005;stroke-linecap:butt;stroke-linejoin:miter;stroke:rgb(100%,100%,100%);stroke-opacity:0.25;stroke-miterlimit:10;" d="M -3.5 -2 L -3.5 2 " transform="matrix(100,0,0,-100,500,200)"/>
<path style="fill:none;stroke-width:0.005;stroke-linecap:butt;stroke-linejoin:miter;stroke:rgb(100%,100%,100%);stroke-opacity:0.25;stroke-miterlimit:10;" d="M -3.25 -2 L -3.25 2 " transform="matrix(100,0,0,-100,500,200)"/>
<path style="fill:none;stroke-width:0.005;stroke-linecap:butt;stroke-linejoin:miter;stroke:rgb(100%,100%,100%);stroke-opacity:0.25;stroke-miterlimit:10;" d="M -2.75 -2 L -2.75 2 " transform="matrix(100,0,0,-100,500,200)"/>
<path style="fill:none;stroke-width:0.005;stroke-linecap:butt;stroke-linejoin:miter;stroke:rgb(100%,100%,100%);stroke-opacity:0.25;stroke-miterlimit:10;" d="M -2.5 -2 L -2.5 2 " transform="matrix(100,0,0,-100,500,200)"/>
<path style="fill:none;stroke-width:0.005;stroke-linecap:butt;stroke-linejoin:miter;stroke:rgb(100%,100%,100%);stroke-opacity:0.25;stroke-miterlimit:10;" d="M -2.25 -2 L -2.25 2 " transform="matrix(100,0,0,-100,500,200)"/>
<path style="fill:none;stroke-width:0.005;stroke-linecap:butt;stroke-linejoin:miter;stroke:rgb(100%,100%,100%);stroke-opacity:0.25;stroke-miterlimit:10;" d="M -1.75 -2 L -1.75 2 " transform="matrix(100,0,0,-100,500,200)"/>
<path style="fill:none;stroke-width:0.005;stroke-linecap:butt;stroke-linejoin:miter;stroke:rgb(100%,100%,100%);stroke-opacity:0.25;stroke-miterlimit:10;" d="M -1.5 -2 L -1.5 2 " transform="matrix(100,0,0,-100,500,200)"/>
<path style="fill:none;stroke-width:0.005;stroke-linecap:butt;stroke-linejoin:miter;stroke:rgb(100%,100%,100%);stroke-opacity:0.25;stroke-miterlimit:10;" d="M -1.25 -2 L -1.25 2 " transform="matrix(100,0,0,-100,500,200)"/>
<path style="fill:none;stroke-width:0.005;stroke-linecap:butt;stroke-linejoin:miter;stroke:rgb(100%,100%,100%);stroke-opacity:0.25;stroke-miterlimit:10;" d="M -0.75 -2 L -0.75 2 " transform="matrix(100,0,0,-100,500,200)"/>
<path style="fill:none;stroke-width:0.005;stroke-linecap:butt;stroke-linejoin:miter;stroke:rgb(100%,100%,100%);stroke-opacity:0.25;stroke-miterlimit:10;" d="M -0.5 -2 L -0.5 2 " transform="matrix(100,0,0,-100,500,200)"/>
<path style="fill:none;stroke-width:0.005;stroke-linecap:butt;stroke-linejoin:miter;stroke:rgb(100%,100%,100%);stroke-opacity:0.25;stroke-miterlimit:10;" d="M -0.25 -2 L -0.25 2 " transform="matrix(100,0,0,-100,500,200)"/>
<path style="fill:none;stroke-width:0.005;stroke-linecap:butt;stroke-linejoin:miter;stroke:rgb(100%,100%,100%);stroke-opacity:0.25;stroke-miterlimit:10;" d="M 0.25 -2 L 0.25 2 " transform="matrix(100,0,0,-100,500,200)"/>
<path style="fill:none;stroke-width:0.005;stroke-linecap:butt;stroke-linejoin:miter;stroke:rgb(100%,100%,100%);stroke-opacity:0.25;stroke-miterlimit:10;" d="M 0.5 -2 L 0.5 2 " transform="matrix(100,0,0,-100,500,200)"/>
<path style="fill:none;stroke-width:0.005;stroke-linecap:butt;stroke-linejoin:miter;stroke:rgb(100%,100%,100%);stroke-opacity:0.25;stroke-miterlimit:10;" d="M 0.75 -2 L 0.75 2 " transform="matrix(100,0,0,-100,500,200)"/>
<path style="fill:none;stroke-width:0.005;stroke-linecap:butt;stroke-linejoin:miter;stroke:rgb(100%,100%,100%);stroke-opacity:0.25;stroke-miterlimit:10;" d="M 1.25 -2 L 1.25 2 " transform="matrix(100,0,0,-100,500,200)"/>
<path style="fill:none;stroke-width:0.005;stroke-linecap:butt;stroke-linejoin:miter;stroke:rgb(100%,100%,100%);stroke-opacity:0.25;stroke-miterlimit:10;" d="M 1.5 -2 L 1.5 2 " transform="matrix(100,0,0,-100,500,200)"/>
<path style="fill:none;stroke-width:0.005;stroke-linecap:butt;stroke-linejoin:miter;stroke:rgb(100%,100%,100%);stroke-opacity:0.25;stroke-miterlimit:10;" d="M 1.75 -2 L 1.75 2 " transform="matrix(100,0,0,-100,500,200)"/>
<path style="fill:none;stroke-width:0.005;stroke-linecap:butt;stroke-linejoin:miter;stroke:rgb(100%,100%,100%);stroke-opacity:0.25;stroke-miterlimit:10;" d="M 2.25 -2 L 2.25 2 " transform="matrix(100,0,0,-100,500,200)"/>
<path style="fill:none;stroke-width:0.005;stroke-linecap:butt;stroke-linejoin:miter;stroke:rgb(100%,100%,100%);stroke-opacity:0.25;stroke-miterlimit:10;" d="M 2.5 -2 L 2.5 2 " transform="matrix(100,0,0,-100,500,200)"/>
<path style="fill:none;stroke-width:0.005;stroke-linecap:butt;stroke-linejoin:miter;stroke:rgb(100%,100%,100%);stroke-opacity:0.25;stroke-miterlimit:10;" d="M 2.75 -2 L 2.75 2 " transform="matrix(100,0,0,-100,500,200)"/>
<path style="fill:none;stroke-width:0.005;stroke-linecap:butt;stroke-linejoin:miter;stroke:rgb(100%,100%,100%);stroke-opacity:0.25;stroke-miterlimit:10;" d="M 3.25 -2 L 3.25 2 " transform="matrix(100,0,0,-100,500,200)"/>
<path style="fill:none;stroke-width:0.005;stroke-linecap:butt;stroke-linejoin:miter;stroke:rgb(100%,100%,100%);stroke-opacity:0.25;stroke-miterlimit:10;" d="M 3.5 -2 L 3.5 2 " transform="matrix(100,0,0,-100,500,200)"/>
<path style="fill:none;stroke-width:0.005;stroke-linecap:butt;stroke-linejoin:miter;stroke:rgb(100%,100%,100%);stroke-opacity:0.25;stroke-miterlimit:10;" d="M 3.75 -2 L 3.75 2 " transform="matrix(100,0,0,-100,500,200)"/>
<path style="fill:none;stroke-width:0.005;stroke-linecap:butt;stroke-linejoin:miter;stroke:rgb(100%,100%,100%);stroke-opacity:0.25;stroke-miterlimit:10;" d="M 4.25 -2 L 4.25 2 " transform="matrix(100,0,0,-100,500,200)"/>
<path style="fill:none;stroke-width:0.005;stroke-linecap:butt;stroke-linejoin:miter;stroke:rgb(100%,100%,100%);stroke-opacity:0.25;stroke-miterlimit:10;" d="M 4.5 -2 L 4.5 2 " transform="matrix(100,0,0,-100,500,200)"/>
<path style="fill:none;stroke-width:0.005;stroke-linecap:butt;stroke-linejoin:miter;stroke:rgb(100%,100%,100%);stroke-opacity:0.25;stroke-miterlimit:10;" d="M 4.75 -2 L 4.75 2 " transform="matrix(100,0,0,-100,500,200)"/>
<path style="fill:none;stroke-width:0.01;stroke-linecap:butt;stroke-linejoin:miter;stroke:rgb(100%,100%,100%);stroke-opacity:0.5;stroke-miterlimit:10;" d="M -5 -2 L 5 -2 " transform="matrix(100,0,0,-100,500,200)"/>
<path style="fill:none;stroke-width:0.01;stroke-linecap:butt;stroke-linejoin:miter;stroke:rgb(100%,100%,100%);stroke-opacity:0.5;stroke-miterlimit:10;" d="M -5 -1 L 5 -1 " transform="matrix(100,0,0,-100,500,200)"/>
<path style="fill:none;stroke-width:0.01;stroke-linecap:butt;stroke-linejoin:miter;stroke:rgb(100%,100%,100%);stroke-opacity:1;stroke-miterlimit:10;" d="M -5 0 L 5 0 " transform="matrix(100,0,0,-100,500,200)"/>
<path style="fill:none;stroke-width:0.01;stroke-linecap:butt;stroke-linejoin:miter;stroke:rgb(100%,100%,100%);stroke-opacity:0.5;stroke-miterlimit:10;" d="M -5 1 L 5 1 " transform="matrix(100,0,0,-100,500,200)"/>
<path style="fill:none;stroke-width:0.01;stroke-linecap:butt;stroke-linejoin:miter;stroke:rgb(100%,100%,100%);stroke-opacity:0.5;stroke-miterlimit:10;" d="M -5 2 L 5 2 " transform="matrix(100,0,0,-100,500,200)"/>
<path style="fill:none;stroke-width:0.005;stroke-linecap:butt;stroke-linejoin:miter;stroke:rgb(100%,100%,100%);stroke-opacity:0.25;stroke-miterlimit:10;" d="M -5 -1.75 L 5 -1.75 " transform="matrix(100,0,0,-100,500,200)"/>
<path style="fill:none;stroke-width:0.005;stroke-linecap:butt;stroke-linejoin:miter;stroke:rgb(100%,100%,100%);stroke-opacity:0.25;stroke-miterlimit:10;" d="M -5 -1.5 L 5 -1.5 " transform="matrix(100,0,0,-100,500,200)"/>
<path style="fill:none;stroke-width:0.005;stroke-linecap:butt;stroke-linejoin:miter;stroke:rgb(100%,100%,100%);stroke-opacity:0.25;stroke-miterlimit:10;" d="M -5 -1.25 L 5 -1.25 " transform="matrix(100,0,0,-100,500,200)"/>
<path style="fill:none;stroke-width:0.005;stroke-linecap:butt;stroke-linejoin:miter;stroke:rgb(100%,100%,100%);stroke-opacity:0.25;stroke-miterlimit:10;" d="M -5 -0.75 L 5 -0.75 " transform="matrix(100,0,0,-100,500,200)"/>
<path style="fill:none;stroke-width:0.005;stroke-linecap:butt;stroke-linejoin:miter;stroke:rgb(100%,100%,100%);stroke-opacity:0.25;stroke-miterlimit:10;" d="M -5 -0.5 L 5 -0.5 " transform="matrix(100,0,0,-100,500,200)"/>
<path style="fill:none;stroke-width:0.005;stroke-linecap:butt;stroke-linejoin:miter;stroke:rgb(100%,100%,100%);stroke-opacity:0.25;stroke-miterlimit:10;" d="M -5 -0.25 L 5 -0.25 " transform="matrix(100,0,0,-100,500,200)"/>
<path style="fill:none;stroke-width:0.005;stroke-linecap:butt;stroke-linejoin:miter;stroke:rgb(100%,100%,100%);stroke-opacity:0.25;stroke-miterlimit:10;" d="M -5 0.25 L 5 0.25 " transform="matrix(100,0,0,-100,500,200)"/>
<path style="fill:none;stroke-width:0.005;stroke-linecap:butt;stroke-linejoin:miter;stroke:rgb(100%,100%,100%);stroke-opacity:0.25;stroke-miterlimit:10;" d="M -5 0.5 L 5 0.5 " transform="matrix(100,0,0,-100,500,200)"/>
<path style="fill:none;stroke-width:0.005;stroke-linecap:butt;stroke-linejoin:miter;stroke:rgb(100%,100%,100%);stroke-opacity:0.25;stroke-miterlimit:10;" d="M -5 0.75 L 5 0.75 " transform="matrix(100,0,0,-100,500,200)"/>
<path style="fill:none;stroke-width:0.005;stroke-linecap:butt;stroke-linejoin:miter;stroke:rgb(100%,100%,100%);stroke-opacity:0.25;stroke-miterlimit:10;" d="M -5 1.25 L 5 1.25 " transform="matrix(100,0,0,-100,500,200)"/>
<path style="fill:none;stroke-width:0.005;stroke-linecap:butt;stroke-linejoin:miter;stroke:rgb(100%,100%,100%);stroke-opacity:0.25;stroke-miterlimit:10;" d="M -5 1.5 L 5 1.5 " transform="matrix(100,0,0,-100,500,200)"/>
<path style="fill:none;stroke-width:0.005;stroke-linecap:butt;stroke-linejoin:miter;stroke:rgb(100%,100%,100%);stroke-opacity:0.25;stroke-miterlimit:10;" d="M -5 1.75 L 5 1.75 " transform="matrix(100,0,0,-100,500,200)"/>
<path style="fill:none;stroke-width:0.03;stroke-linecap:butt;stroke-linejoin:miter;stroke:rgb(87.058824%,29.803922%,71.764706%);stroke-opacity:1;stroke-miterlimit:10;" d="M -5 -0.83332 L -4.96 -0.832227 L -4.95 -0.831914 L -4.92 -0.831094 L -4.91 -0.830781 L -4.89 -0.830234 L -4.88 -0.829922 L -4.87 -0.829648 L -4.86 -0.829336 L -4.85 -0.829063 L -4.84 -0.82875 L -4.83 -0.828477 L -4.82 -0.828164 L -4.81 -0.827891 L -4.8 -0.827578 L -4.79 -0.827305 L -4.77 -0.82668 L -4.76 -0.826406 L -4.72 -0.825156 L -4.71 -0.824883 L -4.6 -0.821445 L -4.59 -0.821094 L -4.56 -0.820156 L -4.55 -0.819805 L -4.53 -0.81918 L -4.52 -0.818828 L -4.51 -0.818516 L -4.5 -0.818164 L -4.49 -0.817852 L -4.48 -0.8175 L -4.47 -0.817188 L -4.46 -0.816836 L -4.45 -0.816523 L -4.43 -0.81582 L -4.42 -0.815508 L -4.39 -0.814453 L -4.38 -0.814141 L -4.28 -0.810625 L -4.27 -0.810234 L -4.24 -0.80918 L -4.23 -0.808789 L -4.22 -0.808438 L -4.21 -0.808047 L -4.2 -0.807695 L -4.19 -0.807305 L -4.18 -0.806953 L -4.17 -0.806563 L -4.16 -0.806211 L -4.14 -0.80543 L -4.13 -0.805078 L -4.1 -0.803906 L -4.09 -0.803555 L -4.03 -0.801211 L -4.02 -0.800781 L -3.99 -0.799609 L -3.98 -0.79918 L -3.96 -0.798398 L -3.95 -0.797969 L -3.94 -0.797578 L -3.93 -0.797148 L -3.92 -0.796758 L -3.91 -0.796328 L -3.9 -0.795937 L -3.87 -0.794648 L -3.86 -0.794258 L -3.79 -0.79125 L -3.78 -0.790781 L -3.75 -0.789492 L -3.74 -0.789023 L -3.73 -0.788594 L -3.72 -0.788125 L -3.71 -0.787695 L -3.7 -0.787227 L -3.69 -0.786797 L -3.66 -0.785391 L -3.65 -0.784961 L -3.59 -0.782148 L -3.58 -0.781641 L -3.55 -0.780234 L -3.54 -0.779727 L -3.53 -0.779258 L -3.52 -0.77875 L -3.51 -0.778281 L -3.49 -0.777266 L -3.48 -0.776797 L -3.39 -0.772227 L -3.38 -0.77168 L -3.37 -0.771172 L -3.36 -0.770625 L -3.35 -0.770117 L -3.34 -0.76957 L -3.33 -0.769062 L -3.31 -0.767969 L -3.3 -0.767461 L -3.26 -0.765273 L -3.25 -0.764687 L -3.22 -0.763047 L -3.21 -0.762461 L -3.2 -0.761914 L -3.19 -0.761328 L -3.18 -0.760781 L -3.09 -0.755508 L -3.08 -0.754883 L -3.06 -0.753711 L -3.04 -0.752461 L -3.03 -0.751875 L -2.97 -0.748125 L -2.96 -0.747461 L -2.94 -0.746211 L -2.92 -0.744883 L -2.91 -0.744258 L -2.85 -0.740273 L -2.84 -0.73957 L -2.83 -0.738906 L -2.82 -0.738203 L -2.81 -0.737539 L -2.79 -0.736133 L -2.78 -0.735469 L -2.77 -0.734766 L -2.76 -0.734023 L -2.73 -0.731914 L -2.72 -0.731172 L -2.71 -0.730469 L -2.68 -0.728242 L -2.67 -0.727539 L -2.66 -0.726758 L -2.63 -0.724531 L -2.62 -0.72375 L -2.61 -0.723008 L -2.55 -0.71832 L -2.54 -0.7175 L -2.53 -0.716719 L -2.52 -0.715898 L -2.51 -0.715117 L -2.48 -0.712656 L -2.47 -0.711797 L -2.45 -0.710156 L -2.43 -0.708438 L -2.42 -0.707617 L -2.4 -0.705898 L -2.39 -0.705 L -2.37 -0.703281 L -2.31 -0.697891 L -2.3 -0.696953 L -2.29 -0.696055 L -2.24 -0.691367 L -2.23 -0.690391 L -2.22 -0.689453 L -2.18 -0.685547 L -2.17 -0.684531 L -2.16 -0.683555 L -2.12 -0.679492 L -2.11 -0.678438 L -2.1 -0.677422 L -2.05 -0.672148 L -2 -0.66668 L -1.94 -0.659883 L -1.91 -0.656367 L -1.9 -0.655156 L -1.89 -0.653984 L -1.85 -0.649141 L -1.81 -0.644141 L -1.76 -0.637695 L -1.73 -0.633711 L -1.72 -0.632344 L -1.71 -0.631016 L -1.7 -0.629648 L -1.69 -0.628242 L -1.68 -0.626875 L -1.65 -0.622656 L -1.61 -0.616875 L -1.58 -0.612422 L -1.55 -0.607852 L -1.51 -0.601602 L -1.49 -0.598398 L -1.48 -0.596758 L -1.47 -0.595156 L -1.46 -0.593477 L -1.45 -0.591836 L -1.43 -0.588477 L -1.42 -0.586758 L -1.41 -0.585078 L -1.4 -0.58332 L -1.39 -0.581602 L -1.38 -0.579844 L -1.37 -0.578047 L -1.36 -0.576289 L -1.35 -0.574453 L -1.34 -0.572656 L -1.32 -0.568984 L -1.3 -0.565234 L -1.28 -0.561406 L -1.27 -0.559453 L -1.26 -0.557539 L -1.23 -0.551563 L -1.2 -0.545469 L -1.19 -0.543398 L -1.17 -0.53918 L -1.15 -0.534883 L -1.12 -0.52832 L -1.11 -0.526055 L -1.1 -0.523828 L -1.07 -0.516914 L -1.06 -0.51457 L -1.04 -0.509805 L -1.02 -0.504961 L -1.01 -0.5025 L -0.99 -0.4975 L -0.98 -0.494961 L -0.96 -0.489805 L -0.95 -0.487188 L -0.93 -0.481875 L -0.92 -0.47918 L -0.91 -0.476445 L -0.89 -0.470898 L -0.88 -0.468086 L -0.86 -0.462383 L -0.84 -0.456523 L -0.83 -0.453555 L -0.82 -0.450547 L -0.8 -0.444453 L -0.78 -0.438203 L -0.77 -0.435039 L -0.76 -0.431836 L -0.74 -0.425273 L -0.73 -0.421953 L -0.72 -0.418594 L -0.71 -0.415195 L -0.7 -0.411758 L -0.69 -0.408281 L -0.68 -0.404766 L -0.67 -0.401211 L -0.65 -0.393945 L -0.64 -0.390234 L -0.62 -0.382734 L -0.6 -0.375 L -0.59 -0.371055 L -0.58 -0.36707 L -0.57 -0.363047 L -0.56 -0.358984 L -0.55 -0.354844 L -0.54 -0.350664 L -0.53 -0.346406 L -0.52 -0.342109 L -0.51 -0.337734 L -0.5 -0.33332 L -0.49 -0.328867 L -0.48 -0.324336 L -0.47 -0.319727 L -0.46 -0.315078 L -0.45 -0.310352 L -0.44 -0.305547 L -0.43 -0.300703 L -0.42 -0.295781 L -0.41 -0.290781 L -0.4 -0.285703 L -0.39 -0.280586 L -0.38 -0.275352 L -0.37 -0.270078 L -0.36 -0.264687 L -0.35 -0.259258 L -0.34 -0.25375 L -0.33 -0.248125 L -0.32 -0.242422 L -0.31 -0.236641 L -0.3 -0.230781 L -0.29 -0.224805 L -0.28 -0.21875 L -0.27 -0.212617 L -0.26 -0.206367 L -0.25 -0.2 L -0.24 -0.193555 L -0.23 -0.186992 L -0.22 -0.180312 L -0.21 -0.173555 L -0.2 -0.16668 L -0.19 -0.159648 L -0.18 -0.152539 L -0.17 -0.145313 L -0.16 -0.13793 L -0.15 -0.13043 L -0.14 -0.122813 L -0.13 -0.115039 L -0.12 -0.107148 L -0.11 -0.0991016 L -0.1 -0.0908984 L -0.09 -0.0825781 L -0.08 -0.0740625 L -0.07 -0.0654297 L -0.06 -0.0566016 L -0.05 -0.0476172 L -0.04 -0.0384766 L -0.03 -0.0291406 L -0.02 -0.0196094 L -0.01 -0.00988281 L 0.01 0.00988281 L 0.02 0.0196094 L 0.03 0.0291406 L 0.04 0.0384766 L 0.05 0.0476172 L 0.06 0.0566016 L 0.07 0.0654297 L 0.08 0.0740625 L 0.09 0.0825781 L 0.1 0.0908984 L 0.11 0.0991016 L 0.12 0.107148 L 0.13 0.115039 L 0.14 0.122812 L 0.15 0.13043 L 0.16 0.13793 L 0.17 0.145312 L 0.18 0.152539 L 0.19 0.159648 L 0.2 0.16668 L 0.21 0.173555 L 0.22 0.180312 L 0.23 0.186992 L 0.24 0.193555 L 0.25 0.2 L 0.26 0.206367 L 0.27 0.212617 L 0.28 0.21875 L 0.29 0.224805 L 0.3 0.230781 L 0.31 0.236641 L 0.32 0.242422 L 0.33 0.248125 L 0.34 0.25375 L 0.35 0.259258 L 0.36 0.264687 L 0.37 0.270078 L 0.38 0.275352 L 0.39 0.280586 L 0.4 0.285703 L 0.41 0.290781 L 0.42 0.295781 L 0.43 0.300703 L 0.44 0.305547 L 0.45 0.310352 L 0.46 0.315078 L 0.47 0.319727 L 0.48 0.324336 L 0.49 0.328867 L 0.5 0.33332 L 0.51 0.337734 L 0.52 0.342109 L 0.53 0.346406 L 0.54 0.350664 L 0.55 0.354844 L 0.56 0.358984 L 0.57 0.363047 L 0.58 0.36707 L 0.59 0.371055 L 0.6 0.375 L 0.62 0.382734 L 0.64 0.390234 L 0.65 0.393945 L 0.67 0.401211 L 0.68 0.404766 L 0.69 0.408281 L 0.7 0.411758 L 0.71 0.415195 L 0.72 0.418594 L 0.73 0.421953 L 0.74 0.425273 L 0.76 0.431836 L 0.77 0.435039 L 0.78 0.438203 L 0.8 0.444453 L 0.82 0.450547 L 0.83 0.453555 L 0.84 0.456523 L 0.86 0.462383 L 0.88 0.468086 L 0.89 0.470898 L 0.91 0.476445 L 0.92 0.47918 L 0.93 0.481875 L 0.95 0.487187 L 0.96 0.489805 L 0.98 0.494961 L 0.99 0.4975 L 1.01 0.5025 L 1.02 0.504961 L 1.04 0.509805 L 1.06 0.51457 L 1.07 0.516914 L 1.1 0.523828 L 1.11 0.526055 L 1.12 0.52832 L 1.15 0.534883 L 1.17 0.53918 L 1.19 0.543398 L 1.2 0.545469 L 1.23 0.551562 L 1.26 0.557539 L 1.27 0.559453 L 1.28 0.561406 L 1.3 0.565234 L 1.32 0.568984 L 1.34 0.572656 L 1.35 0.574453 L 1.36 0.576289 L 1.37 0.578047 L 1.38 0.579844 L 1.39 0.581602 L 1.4 0.58332 L 1.41 0.585078 L 1.42 0.586758 L 1.43 0.588477 L 1.45 0.591836 L 1.46 0.593477 L 1.47 0.595156 L 1.48 0.596758 L 1.49 0.598398 L 1.51 0.601602 L 1.55 0.607852 L 1.58 0.612422 L 1.61 0.616875 L 1.65 0.622656 L 1.68 0.626875 L 1.69 0.628242 L 1.7 0.629648 L 1.71 0.631016 L 1.72 0.632344 L 1.73 0.633711 L 1.76 0.637695 L 1.81 0.644141 L 1.85 0.649141 L 1.89 0.653984 L 1.9 0.655156 L 1.91 0.656367 L 1.94 0.659883 L 2 0.66668 L 2.05 0.672148 L 2.1 0.677422 L 2.11 0.678438 L 2.12 0.679492 L 2.16 0.683555 L 2.17 0.684531 L 2.18 0.685547 L 2.22 0.689453 L 2.23 0.690391 L 2.24 0.691367 L 2.29 0.696055 L 2.3 0.696953 L 2.31 0.697891 L 2.37 0.703281 L 2.39 0.705 L 2.4 0.705898 L 2.42 0.707617 L 2.43 0.708438 L 2.45 0.710156 L 2.47 0.711797 L 2.48 0.712656 L 2.51 0.715117 L 2.52 0.715898 L 2.53 0.716719 L 2.54 0.7175 L 2.55 0.71832 L 2.61 0.723008 L 2.62 0.72375 L 2.63 0.724531 L 2.66 0.726758 L 2.67 0.727539 L 2.68 0.728242 L 2.71 0.730469 L 2.72 0.731172 L 2.73 0.731914 L 2.76 0.734023 L 2.77 0.734766 L 2.78 0.735469 L 2.79 0.736133 L 2.81 0.737539 L 2.82 0.738203 L 2.83 0.738906 L 2.84 0.73957 L 2.85 0.740273 L 2.91 0.744258 L 2.92 0.744883 L 2.94 0.746211 L 2.96 0.747461 L 2.97 0.748125 L 3.03 0.751875 L 3.04 0.752461 L 3.06 0.753711 L 3.08 0.754883 L 3.09 0.755508 L 3.18 0.760781 L 3.19 0.761328 L 3.2 0.761914 L 3.21 0.762461 L 3.22 0.763047 L 3.25 0.764687 L 3.26 0.765273 L 3.3 0.767461 L 3.31 0.767969 L 3.33 0.769062 L 3.34 0.76957 L 3.35 0.770117 L 3.36 0.770625 L 3.37 0.771172 L 3.38 0.77168 L 3.39 0.772227 L 3.48 0.776797 L 3.49 0.777266 L 3.51 0.778281 L 3.52 0.77875 L 3.53 0.779258 L 3.54 0.779727 L 3.55 0.780234 L 3.58 0.781641 L 3.59 0.782148 L 3.65 0.784961 L 3.66 0.785391 L 3.69 0.786797 L 3.7 0.787227 L 3.71 0.787695 L 3.72 0.788125 L 3.73 0.788594 L 3.74 0.789023 L 3.75 0.789492 L 3.78 0.790781 L 3.79 0.79125 L 3.86 0.794258 L 3.87 0.794648 L 3.9 0.795937 L 3.91 0.796328 L 3.92 0.796758 L 3.93 0.797148 L 3.94 0.797578 L 3.95 0.797969 L 3.96 0.798398 L 3.98 0.79918 L 3.99 0.799609 L 4.02 0.800781 L 4.03 0.801211 L 4.09 0.803555 L 4.1 0.803906 L 4.13 0.805078 L 4.14 0.80543 L 4.16 0.806211 L 4.17 0.806563 L 4.18 0.806953 L 4.19 0.807305 L 4.2 0.807695 L 4.21 0.808047 L 4.22 0.808437 L 4.23 0.808789 L 4.24 0.80918 L 4.27 0.810234 L 4.28 0.810625 L 4.38 0.814141 L 4.39 0.814453 L 4.42 0.815508 L 4.43 0.81582 L 4.45 0.816523 L 4.46 0.816836 L 4.47 0.817187 L 4.48 0.8175 L 4.49 0.817852 L 4.5 0.818164 L 4.51 0.818516 L 4.52 0.818828 L 4.53 0.81918 L 4.55 0.819805 L 4.56 0.820156 L 4.59 0.821094 L 4.6 0.821445 L 4.71 0.824883 L 4.72 0.825156 L 4.76 0.826406 L 4.77 0.82668 L 4.79 0.827305 L 4.8 0.827578 L 4.81 0.827891 L 4.82 0.828164 L 4.83 0.828477 L 4.84 0.82875 L 4.85 0.829063 L 4.86 0.829336 L 4.87 0.829648 L 4.88 0.829922 L 4.89 0.830234 L 4.91 0.830781 L 4.92 0.831094 L 4.95 0.831914 L 4.96 0.832227 L 5 0.83332 " transform="matrix(100,0,0,-100,500,200)"/>
<path style="fill:none;stroke-width:0.03;stroke-linecap:butt;stroke-linejoin:miter;stroke:rgb(87.058824%,29.803922%,71.764706%);stroke-opacity:0.75;stroke-miterlimit:10;" d="M -5 -0.454531 L -4.94 -0.454063 L -4.93 -0.453945 L -4.89 -0.453633 L -4.88 -0.453516 L -4.85 -0.453281 L -4.84 -0.453164 L -4.81 -0.45293 L -4.8 -0.452812 L -4.77 -0.452578 L -4.76 -0.452461 L -4.74 -0.452305 L -4.73 -0.452187 L -4.71 -0.452031 L -4.7 -0.451914 L -4.69 -0.451836 L -4.68 -0.451719 L -4.66 -0.451563 L -4.65 -0.451445 L -4.64 -0.451367 L -4.63 -0.45125 L -4.61 -0.451094 L -4.6 -0.450977 L -4.59 -0.450898 L -4.58 -0.450781 L -4.57 -0.450703 L -4.56 -0.450586 L -4.55 -0.450508 L -4.54 -0.450391 L -4.53 -0.450312 L -4.52 -0.450195 L -4.51 -0.450117 L -4.49 -0.449883 L -4.48 -0.449805 L -4.47 -0.449688 L -4.46 -0.449609 L -4.44 -0.449375 L -4.43 -0.449297 L -4.42 -0.44918 L -4.41 -0.449102 L -4.39 -0.448867 L -4.38 -0.448789 L -4.35 -0.448438 L -4.34 -0.448359 L -4.31 -0.448008 L -4.3 -0.44793 L -4.26 -0.447461 L -4.25 -0.447383 L -4.18 -0.446563 L -4.17 -0.446484 L -4.07 -0.445312 L -4.06 -0.445156 L -3.99 -0.444336 L -3.98 -0.44418 L -3.94 -0.443711 L -3.93 -0.443555 L -3.91 -0.44332 L -3.9 -0.443164 L -3.88 -0.44293 L -3.87 -0.442773 L -3.85 -0.442539 L -3.84 -0.442383 L -3.82 -0.442148 L -3.81 -0.441992 L -3.8 -0.441875 L -3.79 -0.441719 L -3.78 -0.441602 L -3.77 -0.441445 L -3.76 -0.441328 L -3.75 -0.441172 L -3.74 -0.441055 L -3.72 -0.440742 L -3.71 -0.440625 L -3.7 -0.440469 L -3.69 -0.440352 L -3.67 -0.440039 L -3.66 -0.439922 L -3.63 -0.439453 L -3.62 -0.439336 L -3.58 -0.438711 L -3.57 -0.438594 L -3.43 -0.436406 L -3.42 -0.436211 L -3.38 -0.435586 L -3.37 -0.435391 L -3.35 -0.435078 L -3.34 -0.434883 L -3.32 -0.43457 L -3.31 -0.434375 L -3.3 -0.434219 L -3.29 -0.434023 L -3.28 -0.433867 L -3.27 -0.433672 L -3.26 -0.433516 L -3.25 -0.43332 L -3.24 -0.433164 L -3.23 -0.432969 L -3.22 -0.432813 L -3.2 -0.432422 L -3.19 -0.432266 L -3.16 -0.43168 L -3.15 -0.431523 L -3.01 -0.428789 L -3 -0.428555 L -2.97 -0.427969 L -2.96 -0.427734 L -2.94 -0.427344 L -2.93 -0.427109 L -2.92 -0.426914 L -2.91 -0.42668 L -2.9 -0.426484 L -2.89 -0.42625 L -2.88 -0.426055 L -2.86 -0.425586 L -2.85 -0.425391 L -2.81 -0.424453 L -2.8 -0.424258 L -2.73 -0.422617 L -2.72 -0.422344 L -2.69 -0.421641 L -2.68 -0.421367 L -2.66 -0.420898 L -2.65 -0.420625 L -2.64 -0.420391 L -2.63 -0.420117 L -2.62 -0.419883 L -2.6 -0.419336 L -2.59 -0.419102 L -2.56 -0.418281 L -2.55 -0.418047 L -2.49 -0.416406 L -2.48 -0.416094 L -2.45 -0.415273 L -2.44 -0.414961 L -2.43 -0.414687 L -2.42 -0.414375 L -2.41 -0.414102 L -2.39 -0.413477 L -2.38 -0.413203 L -2.34 -0.411953 L -2.33 -0.41168 L -2.32 -0.411328 L -2.27 -0.409766 L -2.26 -0.409414 L -2.25 -0.409102 L -2.24 -0.40875 L -2.23 -0.408438 L -2.21 -0.407734 L -2.2 -0.407422 L -2.13 -0.404961 L -2.12 -0.40457 L -2.11 -0.404219 L -2.1 -0.403828 L -2.09 -0.403477 L -2.08 -0.403086 L -2.07 -0.402734 L -1.99 -0.399609 L -1.98 -0.39918 L -1.97 -0.398789 L -1.96 -0.398359 L -1.95 -0.397969 L -1.87 -0.394531 L -1.86 -0.394062 L -1.85 -0.393633 L -1.77 -0.389883 L -1.76 -0.389375 L -1.75 -0.388906 L -1.69 -0.385859 L -1.68 -0.385312 L -1.67 -0.384805 L -1.61 -0.381523 L -1.6 -0.380937 L -1.59 -0.380391 L -1.54 -0.377461 L -1.53 -0.376836 L -1.52 -0.37625 L -1.48 -0.37375 L -1.47 -0.373086 L -1.46 -0.372461 L -1.42 -0.369805 L -1.41 -0.369102 L -1.4 -0.368438 L -1.37 -0.366328 L -1.36 -0.365586 L -1.35 -0.364883 L -1.32 -0.362656 L -1.3 -0.361094 L -1.29 -0.360352 L -1.28 -0.359531 L -1.26 -0.357969 L -1.23 -0.355508 L -1.19 -0.35207 L -1.18 -0.351172 L -1.17 -0.350313 L -1.16 -0.349414 L -1.15 -0.348477 L -1.14 -0.347578 L -1.13 -0.346641 L -1.12 -0.345664 L -1.11 -0.344727 L -1.09 -0.342773 L -1.08 -0.341758 L -1.07 -0.340781 L -1.06 -0.339727 L -1.05 -0.338711 L -1.03 -0.336602 L -1.02 -0.335508 L -1.01 -0.334453 L -1 -0.33332 L -0.99 -0.332227 L -0.98 -0.331094 L -0.94 -0.326406 L -0.93 -0.325156 L -0.92 -0.323945 L -0.9 -0.321445 L -0.89 -0.320156 L -0.86 -0.316172 L -0.84 -0.313438 L -0.82 -0.310625 L -0.81 -0.30918 L -0.79 -0.306211 L -0.77 -0.303164 L -0.76 -0.301602 L -0.74 -0.298398 L -0.73 -0.296758 L -0.71 -0.293398 L -0.7 -0.29168 L -0.69 -0.289922 L -0.67 -0.286328 L -0.66 -0.284492 L -0.65 -0.282617 L -0.64 -0.280703 L -0.62 -0.276797 L -0.6 -0.272734 L -0.58 -0.268516 L -0.57 -0.266367 L -0.55 -0.261914 L -0.54 -0.259609 L -0.53 -0.257266 L -0.52 -0.254883 L -0.51 -0.252461 L -0.5 -0.25 L -0.49 -0.247461 L -0.48 -0.244883 L -0.47 -0.242266 L -0.46 -0.23957 L -0.45 -0.236836 L -0.44 -0.234023 L -0.43 -0.231172 L -0.42 -0.228242 L -0.41 -0.225273 L -0.4 -0.222227 L -0.39 -0.219102 L -0.38 -0.215898 L -0.37 -0.212656 L -0.36 -0.209297 L -0.35 -0.205898 L -0.34 -0.202383 L -0.33 -0.198789 L -0.32 -0.195117 L -0.31 -0.191367 L -0.3 -0.1875 L -0.29 -0.183555 L -0.28 -0.179492 L -0.27 -0.175312 L -0.26 -0.171055 L -0.25 -0.16668 L -0.24 -0.162148 L -0.23 -0.157539 L -0.22 -0.152773 L -0.21 -0.147891 L -0.2 -0.142852 L -0.19 -0.137695 L -0.18 -0.132344 L -0.17 -0.126875 L -0.16 -0.121211 L -0.15 -0.115391 L -0.14 -0.109375 L -0.13 -0.103164 L -0.12 -0.0967578 L -0.11 -0.0901563 L -0.1 -0.0833203 L -0.09 -0.0762891 L -0.08 -0.0689844 L -0.07 -0.0614063 L -0.06 -0.0535547 L -0.05 -0.0454687 L -0.04 -0.0370313 L -0.03 -0.0283203 L -0.02 -0.0192187 L -0.01 -0.00980469 L 0 0 L 0.01 0.00988281 L 0.02 0.0196094 L 0.03 0.0291406 L 0.04 0.0384766 L 0.05 0.0476172 L 0.06 0.0566016 L 0.07 0.0654297 L 0.08 0.0740625 L 0.09 0.0825781 L 0.1 0.0908984 L 0.11 0.0991016 L 0.12 0.107148 L 0.13 0.115039 L 0.14 0.122812 L 0.15 0.13043 L 0.16 0.13793 L 0.17 0.145312 L 0.18 0.152539 L 0.19 0.159648 L 0.2 0.16668 L 0.21 0.173555 L 0.22 0.180312 L 0.23 0.186992 L 0.24 0.193555 L 0.25 0.2 L 0.26 0.206367 L 0.27 0.212617 L 0.28 0.21875 L 0.29 0.224805 L 0.3 0.230781 L 0.31 0.236641 L 0.32 0.242422 L 0.33 0.248125 L 0.34 0.25375 L 0.35 0.259258 L 0.36 0.264687 L 0.37 0.270078 L 0.38 0.275352 L 0.39 0.280586 L 0.4 0.285703 L 0.41 0.290781 L 0.42 0.295781 L 0.43 0.300703 L 0.44 0.305547 L 0.45 0.310352 L 0.46 0.315078 L 0.47 0.319727 L 0.48 0.324336 L 0.49 0.328867 L 0.5 0.33332 L 0.51 0.337734 L 0.52 0.342109 L 0.53 0.346406 L 0.54 0.350664 L 0.55 0.354844 L 0.56 0.358984 L 0.57 0.363047 L 0.58 0.36707 L 0.59 0.371055 L 0.6 0.375 L 0.62 0.382734 L 0.64 0.390234 L 0.65 0.393945 L 0.67 0.401211 L 0.68 0.404766 L 0.69 0.408281 L 0.7 0.411758 L 0.71 0.415195 L 0.72 0.418594 L 0.73 0.421953 L 0.74 0.425273 L 0.76 0.431836 L 0.77 0.435039 L 0.78 0.438203 L 0.8 0.444453 L 0.82 0.450547 L 0.83 0.453555 L 0.84 0.456523 L 0.86 0.462383 L 0.88 0.468086 L 0.89 0.470898 L 0.91 0.476445 L 0.92 0.47918 L 0.93 0.481875 L 0.95 0.487187 L 0.96 0.489805 L 0.98 0.494961 L 0.99 0.4975 L 1.01 0.5025 L 1.02 0.504961 L 1.04 0.509805 L 1.06 0.51457 L 1.07 0.516914 L 1.1 0.523828 L 1.11 0.526055 L 1.12 0.52832 L 1.15 0.534883 L 1.17 0.53918 L 1.19 0.543398 L 1.2 0.545469 L 1.23 0.551562 L 1.26 0.557539 L 1.27 0.559453 L 1.28 0.561406 L 1.3 0.565234 L 1.32 0.568984 L 1.34 0.572656 L 1.35 0.574453 L 1.36 0.576289 L 1.37 0.578047 L 1.38 0.579844 L 1.39 0.581602 L 1.4 0.58332 L 1.41 0.585078 L 1.42 0.586758 L 1.43 0.588477 L 1.45 0.591836 L 1.46 0.593477 L 1.47 0.595156 L 1.48 0.596758 L 1.49 0.598398 L 1.51 0.601602 L 1.55 0.607852 L 1.58 0.612422 L 1.61 0.616875 L 1.65 0.622656 L 1.68 0.626875 L 1.69 0.628242 L 1.7 0.629648 L 1.71 0.631016 L 1.72 0.632344 L 1.73 0.633711 L 1.76 0.637695 L 1.81 0.644141 L 1.85 0.649141 L 1.89 0.653984 L 1.9 0.655156 L 1.91 0.656367 L 1.94 0.659883 L 2 0.66668 L 2.05 0.672148 L 2.1 0.677422 L 2.11 0.678438 L 2.12 0.679492 L 2.16 0.683555 L 2.17 0.684531 L 2.18 0.685547 L 2.22 0.689453 L 2.23 0.690391 L 2.24 0.691367 L 2.29 0.696055 L 2.3 0.696953 L 2.31 0.697891 L 2.37 0.703281 L 2.39 0.705 L 2.4 0.705898 L 2.42 0.707617 L 2.43 0.708438 L 2.45 0.710156 L 2.47 0.711797 L 2.48 0.712656 L 2.51 0.715117 L 2.52 0.715898 L 2.53 0.716719 L 2.54 0.7175 L 2.55 0.71832 L 2.61 0.723008 L 2.62 0.72375 L 2.63 0.724531 L 2.66 0.726758 L 2.67 0.727539 L 2.68 0.728242 L 2.71 0.730469 L 2.72 0.731172 L 2.73 0.731914 L 2.76 0.734023 L 2.77 0.734766 L 2.78 0.735469 L 2.79 0.736133 L 2.81 0.737539 L 2.82 0.738203 L 2.83 0.738906 L 2.84 0.73957 L 2.85 0.740273 L 2.91 0.744258 L 2.92 0.744883 L 2.94 0.746211 L 2.96 0.747461 L 2.97 0.748125 L 3.03 0.751875 L 3.04 0.752461 L 3.06 0.753711 L 3.08 0.754883 L 3.09 0.755508 L 3.18 0.760781 L 3.19 0.761328 L 3.2 0.761914 L 3.21 0.762461 L 3.22 0.763047 L 3.25 0.764687 L 3.26 0.765273 L 3.3 0.767461 L 3.31 0.767969 L 3.33 0.769062 L 3.34 0.76957 L 3.35 0.770117 L 3.36 0.770625 L 3.37 0.771172 L 3.38 0.77168 L 3.39 0.772227 L 3.48 0.776797 L 3.49 0.777266 L 3.51 0.778281 L 3.52 0.77875 L 3.53 0.779258 L 3.54 0.779727 L 3.55 0.780234 L 3.58 0.781641 L 3.59 0.782148 L 3.65 0.784961 L 3.66 0.785391 L 3.69 0.786797 L 3.7 0.787227 L 3.71 0.787695 L 3.72 0.788125 L 3.73 0.788594 L 3.74 0.789023 L 3.75 0.789492 L 3.78 0.790781 L 3.79 0.79125 L 3.86 0.794258 L 3.87 0.794648 L 3.9 0.795937 L 3.91 0.796328 L 3.92 0.796758 L 3.93 0.797148 L 3.94 0.797578 L 3.95 0.797969 L 3.96 0.798398 L 3.98 0.79918 L 3.99 0.799609 L 4.02 0.800781 L 4.03 0.801211 L 4.09 0.803555 L 4.1 0.803906 L 4.13 0.805078 L 4.14 0.80543 L 4.16 0.806211 L 4.17 0.806563 L 4.18 0.806953 L 4.19 0.807305 L 4.2 0.807695 L 4.21 0.808047 L 4.22 0.808437 L 4.23 0.808789 L 4.24 0.80918 L 4.27 0.810234 L 4.28 0.810625 L 4.38 0.814141 L 4.39 0.814453 L 4.42 0.815508 L 4.43 0.81582 L 4.45 0.816523 L 4.46 0.816836 L 4.47 0.817187 L 4.48 0.8175 L 4.49 0.817852 L 4.5 0.818164 L 4.51 0.818516 L 4.52 0.818828 L 4.53 0.81918 L 4.55 0.819805 L 4.56 0.820156 L 4.59 0.821094 L 4.6 0.821445 L 4.71 0.824883 L 4.72 0.825156 L 4.76 0.826406 L 4.77 0.82668 L 4.79 0.827305 L 4.8 0.827578 L 4.81 0.827891 L 4.82 0.828164 L 4.83 0.828477 L 4.84 0.82875 L 4.85 0.829063 L 4.86 0.829336 L 4.87 0.829648 L 4.88 0.829922 L 4.89 0.830234 L 4.91 0.830781 L 4.92 0.831094 L 4.95 0.831914 L 4.96 0.832227 L 5 0.83332 " transform="matrix(100,0,0,-100,500,200)"/>
<path style="fill:none;stroke-width:0.03;stroke-linecap:butt;stroke-linejoin:miter;stroke:rgb(87.058824%,29.803922%,71.764706%);stroke-opacity:0.5;stroke-miterlimit:10;" d="M -5 -0.238086 L -4.99 -0.238086 L -4.97 -0.238008 L -4.96 -0.238008 L -4.95 -0.237969 L -4.94 -0.237969 L -4.93 -0.23793 L -4.92 -0.23793 L -4.9 -0.237852 L -4.89 -0.237852 L -4.88 -0.237812 L -4.87 -0.237812 L -4.85 -0.237734 L -4.84 -0.237734 L -4.82 -0.237656 L -4.81 -0.237656 L -4.8 -0.237617 L -4.79 -0.237617 L -4.77 -0.237539 L -4.76 -0.237539 L -4.74 -0.237461 L -4.73 -0.237461 L -4.71 -0.237383 L -4.7 -0.237383 L -4.68 -0.237305 L -4.67 -0.237305 L -4.65 -0.237227 L -4.64 -0.237227 L -4.62 -0.237148 L -4.61 -0.237148 L -4.59 -0.23707 L -4.58 -0.23707 L -4.56 -0.236992 L -4.55 -0.236992 L -4.53 -0.236914 L -4.52 -0.236914 L -4.49 -0.236797 L -4.48 -0.236797 L -4.46 -0.236719 L -4.45 -0.236719 L -4.42 -0.236602 L -4.41 -0.236602 L -4.38 -0.236484 L -4.37 -0.236484 L -4.34 -0.236367 L -4.33 -0.236367 L -4.3 -0.23625 L -4.29 -0.23625 L -4.25 -0.236094 L -4.24 -0.236094 L -4.2 -0.235937 L -4.19 -0.235937 L -4.15 -0.235781 L -4.14 -0.235781 L -4.08 -0.235547 L -4.07 -0.235547 L -4.01 -0.235313 L -4 -0.235313 L -3.9 -0.234922 L -3.89 -0.234922 L -3.62 -0.233867 L -3.61 -0.233789 L -3.52 -0.233437 L -3.51 -0.233359 L -3.45 -0.233125 L -3.44 -0.233047 L -3.4 -0.232891 L -3.39 -0.232813 L -3.35 -0.232656 L -3.34 -0.232578 L -3.31 -0.232461 L -3.3 -0.232383 L -3.28 -0.232305 L -3.27 -0.232227 L -3.24 -0.232109 L -3.23 -0.232031 L -3.21 -0.231953 L -3.2 -0.231875 L -3.18 -0.231797 L -3.17 -0.231719 L -3.16 -0.23168 L -3.15 -0.231602 L -3.13 -0.231523 L -3.12 -0.231445 L -3.11 -0.231406 L -3.1 -0.231328 L -3.08 -0.23125 L -3.07 -0.231172 L -3.06 -0.231133 L -3.05 -0.231055 L -3.04 -0.231016 L -3.03 -0.230938 L -3.02 -0.230898 L -3.01 -0.23082 L -3 -0.230781 L -2.99 -0.230703 L -2.98 -0.230664 L -2.97 -0.230586 L -2.96 -0.230547 L -2.94 -0.230391 L -2.93 -0.230352 L -2.92 -0.230273 L -2.91 -0.230234 L -2.89 -0.230078 L -2.88 -0.230039 L -2.87 -0.229961 L -2.86 -0.229922 L -2.84 -0.229766 L -2.83 -0.229727 L -2.8 -0.229492 L -2.79 -0.229453 L -2.76 -0.229219 L -2.75 -0.22918 L -2.71 -0.228867 L -2.7 -0.228828 L -2.63 -0.228281 L -2.62 -0.228242 L -2.54 -0.227617 L -2.53 -0.2275 L -2.46 -0.226953 L -2.45 -0.226836 L -2.42 -0.226602 L -2.41 -0.226484 L -2.38 -0.22625 L -2.37 -0.226133 L -2.35 -0.225977 L -2.34 -0.225859 L -2.33 -0.225781 L -2.32 -0.225664 L -2.3 -0.225508 L -2.29 -0.225391 L -2.28 -0.225313 L -2.27 -0.225195 L -2.26 -0.225117 L -2.24 -0.224883 L -2.23 -0.224805 L -2.22 -0.224687 L -2.21 -0.224609 L -2.19 -0.224375 L -2.18 -0.224297 L -2.15 -0.223945 L -2.14 -0.223867 L -1.98 -0.221992 L -1.97 -0.221836 L -1.95 -0.221602 L -1.94 -0.221445 L -1.92 -0.221211 L -1.91 -0.221055 L -1.9 -0.220938 L -1.89 -0.220781 L -1.88 -0.220664 L -1.87 -0.220508 L -1.86 -0.220391 L -1.84 -0.220078 L -1.83 -0.219961 L -1.81 -0.219648 L -1.8 -0.219531 L -1.71 -0.218125 L -1.7 -0.21793 L -1.67 -0.217461 L -1.66 -0.217266 L -1.65 -0.217109 L -1.64 -0.216914 L -1.63 -0.216758 L -1.62 -0.216563 L -1.61 -0.216406 L -1.59 -0.216016 L -1.58 -0.215859 L -1.5 -0.214297 L -1.49 -0.214063 L -1.47 -0.213672 L -1.46 -0.213437 L -1.45 -0.213242 L -1.44 -0.213008 L -1.43 -0.212813 L -1.34 -0.210703 L -1.33 -0.21043 L -1.32 -0.210195 L -1.31 -0.209922 L -1.3 -0.209688 L -1.22 -0.2075 L -1.21 -0.207187 L -1.2 -0.206914 L -1.13 -0.204727 L -1.12 -0.204375 L -1.11 -0.204063 L -1.06 -0.202305 L -1.05 -0.201914 L -1.04 -0.201563 L -0.99 -0.199609 L -0.98 -0.19918 L -0.97 -0.198789 L -0.95 -0.19793 L -0.94 -0.197461 L -0.93 -0.197031 L -0.92 -0.196563 L -0.91 -0.196133 L -0.9 -0.195664 L -0.89 -0.195156 L -0.88 -0.194688 L -0.87 -0.19418 L -0.86 -0.193711 L -0.85 -0.193164 L -0.83 -0.192148 L -0.81 -0.191055 L -0.8 -0.190469 L -0.79 -0.189922 L -0.78 -0.189336 L -0.77 -0.188711 L -0.76 -0.188125 L -0.74 -0.186875 L -0.73 -0.186211 L -0.72 -0.185586 L -0.71 -0.184883 L -0.7 -0.184219 L -0.68 -0.182813 L -0.66 -0.181328 L -0.63 -0.178984 L -0.61 -0.177344 L -0.6 -0.176484 L -0.57 -0.173789 L -0.56 -0.172852 L -0.54 -0.170898 L -0.53 -0.169883 L -0.51 -0.167773 L -0.5 -0.16668 L -0.49 -0.165547 L -0.47 -0.163203 L -0.45 -0.160703 L -0.44 -0.159414 L -0.43 -0.158086 L -0.42 -0.156719 L -0.41 -0.155312 L -0.39 -0.152344 L -0.38 -0.150781 L -0.37 -0.14918 L -0.36 -0.147539 L -0.35 -0.14582 L -0.34 -0.144062 L -0.33 -0.142227 L -0.32 -0.140352 L -0.31 -0.138398 L -0.3 -0.136367 L -0.29 -0.134258 L -0.28 -0.13207 L -0.27 -0.129805 L -0.26 -0.127461 L -0.25 -0.125 L -0.24 -0.122461 L -0.23 -0.119805 L -0.22 -0.117031 L -0.21 -0.114141 L -0.2 -0.111094 L -0.19 -0.107969 L -0.18 -0.104648 L -0.17 -0.101172 L -0.16 -0.0975781 L -0.15 -0.09375 L -0.14 -0.0897266 L -0.13 -0.0855078 L -0.12 -0.0810937 L -0.11 -0.0764063 L -0.1 -0.0714453 L -0.09 -0.0661719 L -0.08 -0.060625 L -0.07 -0.0546875 L -0.06 -0.0483984 L -0.05 -0.0416797 L -0.04 -0.0344922 L -0.03 -0.0267969 L -0.02 -0.0185156 L -0.01 -0.00960938 L 0 0 L 0.01 0.00988281 L 0.02 0.0196094 L 0.03 0.0291406 L 0.04 0.0384766 L 0.05 0.0476172 L 0.06 0.0566016 L 0.07 0.0654297 L 0.08 0.0740625 L 0.09 0.0825781 L 0.1 0.0908984 L 0.11 0.0991016 L 0.12 0.107148 L 0.13 0.115039 L 0.14 0.122812 L 0.15 0.13043 L 0.16 0.13793 L 0.17 0.145312 L 0.18 0.152539 L 0.19 0.159648 L 0.2 0.16668 L 0.21 0.173555 L 0.22 0.180312 L 0.23 0.186992 L 0.24 0.193555 L 0.25 0.2 L 0.26 0.206367 L 0.27 0.212617 L 0.28 0.21875 L 0.29 0.224805 L 0.3 0.230781 L 0.31 0.236641 L 0.32 0.242422 L 0.33 0.248125 L 0.34 0.25375 L 0.35 0.259258 L 0.36 0.264687 L 0.37 0.270078 L 0.38 0.275352 L 0.39 0.280586 L 0.4 0.285703 L 0.41 0.290781 L 0.42 0.295781 L 0.43 0.300703 L 0.44 0.305547 L 0.45 0.310352 L 0.46 0.315078 L 0.47 0.319727 L 0.48 0.324336 L 0.49 0.328867 L 0.5 0.33332 L 0.51 0.337734 L 0.52 0.342109 L 0.53 0.346406 L 0.54 0.350664 L 0.55 0.354844 L 0.56 0.358984 L 0.57 0.363047 L 0.58 0.36707 L 0.59 0.371055 L 0.6 0.375 L 0.62 0.382734 L 0.64 0.390234 L 0.65 0.393945 L 0.67 0.401211 L 0.68 0.404766 L 0.69 0.408281 L 0.7 0.411758 L 0.71 0.415195 L 0.72 0.418594 L 0.73 0.421953 L 0.74 0.425273 L 0.76 0.431836 L 0.77 0.435039 L 0.78 0.438203 L 0.8 0.444453 L 0.82 0.450547 L 0.83 0.453555 L 0.84 0.456523 L 0.86 0.462383 L 0.88 0.468086 L 0.89 0.470898 L 0.91 0.476445 L 0.92 0.47918 L 0.93 0.481875 L 0.95 0.487187 L 0.96 0.489805 L 0.98 0.494961 L 0.99 0.4975 L 1.01 0.5025 L 1.02 0.504961 L 1.04 0.509805 L 1.06 0.51457 L 1.07 0.516914 L 1.1 0.523828 L 1.11 0.526055 L 1.12 0.52832 L 1.15 0.534883 L 1.17 0.53918 L 1.19 0.543398 L 1.2 0.545469 L 1.23 0.551562 L 1.26 0.557539 L 1.27 0.559453 L 1.28 0.561406 L 1.3 0.565234 L 1.32 0.568984 L 1.34 0.572656 L 1.35 0.574453 L 1.36 0.576289 L 1.37 0.578047 L 1.38 0.579844 L 1.39 0.581602 L 1.4 0.58332 L 1.41 0.585078 L 1.42 0.586758 L 1.43 0.588477 L 1.45 0.591836 L 1.46 0.593477 L 1.47 0.595156 L 1.48 0.596758 L 1.49 0.598398 L 1.51 0.601602 L 1.55 0.607852 L 1.58 0.612422 L 1.61 0.616875 L 1.65 0.622656 L 1.68 0.626875 L 1.69 0.628242 L 1.7 0.629648 L 1.71 0.631016 L 1.72 0.632344 L 1.73 0.633711 L 1.76 0.637695 L 1.81 0.644141 L 1.85 0.649141 L 1.89 0.653984 L 1.9 0.655156 L 1.91 0.656367 L 1.94 0.659883 L 2 0.66668 L 2.05 0.672148 L 2.1 0.677422 L 2.11 0.678438 L 2.12 0.679492 L 2.16 0.683555 L 2.17 0.684531 L 2.18 0.685547 L 2.22 0.689453 L 2.23 0.690391 L 2.24 0.691367 L 2.29 0.696055 L 2.3 0.696953 L 2.31 0.697891 L 2.37 0.703281 L 2.39 0.705 L 2.4 0.705898 L 2.42 0.707617 L 2.43 0.708438 L 2.45 0.710156 L 2.47 0.711797 L 2.48 0.712656 L 2.51 0.715117 L 2.52 0.715898 L 2.53 0.716719 L 2.54 0.7175 L 2.55 0.71832 L 2.61 0.723008 L 2.62 0.72375 L 2.63 0.724531 L 2.66 0.726758 L 2.67 0.727539 L 2.68 0.728242 L 2.71 0.730469 L 2.72 0.731172 L 2.73 0.731914 L 2.76 0.734023 L 2.77 0.734766 L 2.78 0.735469 L 2.79 0.736133 L 2.81 0.737539 L 2.82 0.738203 L 2.83 0.738906 L 2.84 0.73957 L 2.85 0.740273 L 2.91 0.744258 L 2.92 0.744883 L 2.94 0.746211 L 2.96 0.747461 L 2.97 0.748125 L 3.03 0.751875 L 3.04 0.752461 L 3.06 0.753711 L 3.08 0.754883 L 3.09 0.755508 L 3.18 0.760781 L 3.19 0.761328 L 3.2 0.761914 L 3.21 0.762461 L 3.22 0.763047 L 3.25 0.764687 L 3.26 0.765273 L 3.3 0.767461 L 3.31 0.767969 L 3.33 0.769062 L 3.34 0.76957 L 3.35 0.770117 L 3.36 0.770625 L 3.37 0.771172 L 3.38 0.77168 L 3.39 0.772227 L 3.48 0.776797 L 3.49 0.777266 L 3.51 0.778281 L 3.52 0.77875 L 3.53 0.779258 L 3.54 0.779727 L 3.55 0.780234 L 3.58 0.781641 L 3.59 0.782148 L 3.65 0.784961 L 3.66 0.785391 L 3.69 0.786797 L 3.7 0.787227 L 3.71 0.787695 L 3.72 0.788125 L 3.73 0.788594 L 3.74 0.789023 L 3.75 0.789492 L 3.78 0.790781 L 3.79 0.79125 L 3.86 0.794258 L 3.87 0.794648 L 3.9 0.795937 L 3.91 0.796328 L 3.92 0.796758 L 3.93 0.797148 L 3.94 0.797578 L 3.95 0.797969 L 3.96 0.798398 L 3.98 0.79918 L 3.99 0.799609 L 4.02 0.800781 L 4.03 0.801211 L 4.09 0.803555 L 4.1 0.803906 L 4.13 0.805078 L 4.14 0.80543 L 4.16 0.806211 L 4.17 0.806563 L 4.18 0.806953 L 4.19 0.807305 L 4.2 0.807695 L 4.21 0.808047 L 4.22 0.808437 L 4.23 0.808789 L 4.24 0.80918 L 4.27 0.810234 L 4.28 0.810625 L 4.38 0.814141 L 4.39 0.814453 L 4.42 0.815508 L 4.43 0.81582 L 4.45 0.816523 L 4.46 0.816836 L 4.47 0.817187 L 4.48 0.8175 L 4.49 0.817852 L 4.5 0.818164 L 4.51 0.818516 L 4.52 0.818828 L 4.53 0.81918 L 4.55 0.819805 L 4.56 0.820156 L 4.59 0.821094 L 4.6 0.821445 L 4.71 0.824883 L 4.72 0.825156 L 4.76 0.826406 L 4.77 0.82668 L 4.79 0.827305 L 4.8 0.827578 L 4.81 0.827891 L 4.82 0.828164 L 4.83 0.828477 L 4.84 0.82875 L 4.85 0.829063 L 4.86 0.829336 L 4.87 0.829648 L 4.88 0.829922 L 4.89 0.830234 L 4.91 0.830781 L 4.92 0.831094 L 4.95 0.831914 L 4.96 0.832227 L 5 0.83332 " transform="matrix(100,0,0,-100,500,200)"/>
<path style="fill:none;stroke-width:0.03;stroke-linecap:butt;stroke-linejoin:miter;stroke:rgb(87.058824%,29.803922%,71.764706%);stroke-opacity:0.25;stroke-miterlimit:10;" d="M -5 -0.121953 L -4.98 -0.121953 L -4.97 -0.121914 L -4.91 -0.121914 L -4.9 -0.121875 L -4.85 -0.121875 L -4.84 -0.121836 L -4.79 -0.121836 L -4.78 -0.121797 L -4.73 -0.121797 L -4.72 -0.121758 L -4.67 -0.121758 L -4.66 -0.121719 L -4.61 -0.121719 L -4.6 -0.12168 L -4.56 -0.12168 L -4.55 -0.121641 L -4.5 -0.121641 L -4.49 -0.121602 L -4.45 -0.121602 L -4.44 -0.121563 L -4.4 -0.121563 L -4.39 -0.121523 L -4.35 -0.121523 L -4.34 -0.121484 L -4.3 -0.121484 L -4.29 -0.121445 L -4.25 -0.121445 L -4.24 -0.121406 L -4.2 -0.121406 L -4.19 -0.121367 L -4.16 -0.121367 L -4.15 -0.121328 L -4.11 -0.121328 L -4.1 -0.121289 L -4.07 -0.121289 L -4.06 -0.12125 L -4.03 -0.12125 L -4.02 -0.121211 L -3.98 -0.121211 L -3.97 -0.121172 L -3.94 -0.121172 L -3.93 -0.121133 L -3.9 -0.121133 L -3.89 -0.121094 L -3.86 -0.121094 L -3.85 -0.121055 L -3.82 -0.121055 L -3.81 -0.121016 L -3.78 -0.121016 L -3.77 -0.120977 L -3.74 -0.120977 L -3.73 -0.120938 L -3.71 -0.120938 L -3.7 -0.120898 L -3.67 -0.120898 L -3.66 -0.120859 L -3.64 -0.120859 L -3.63 -0.12082 L -3.6 -0.12082 L -3.59 -0.120781 L -3.57 -0.120781 L -3.56 -0.120742 L -3.53 -0.120742 L -3.52 -0.120703 L -3.5 -0.120703 L -3.49 -0.120664 L -3.47 -0.120664 L -3.46 -0.120625 L -3.44 -0.120625 L -3.43 -0.120586 L -3.4 -0.120586 L -3.39 -0.120547 L -3.37 -0.120547 L -3.36 -0.120508 L -3.34 -0.120508 L -3.33 -0.120469 L -3.31 -0.120469 L -3.3 -0.12043 L -3.28 -0.12043 L -3.27 -0.120391 L -3.26 -0.120391 L -3.25 -0.120352 L -3.23 -0.120352 L -3.22 -0.120312 L -3.2 -0.120312 L -3.19 -0.120273 L -3.17 -0.120273 L -3.16 -0.120234 L -3.15 -0.120234 L -3.14 -0.120195 L -3.12 -0.120195 L -3.11 -0.120156 L -3.09 -0.120156 L -3.08 -0.120117 L -3.07 -0.120117 L -3.06 -0.120078 L -3.04 -0.120078 L -3.03 -0.120039 L -3.02 -0.120039 L -3.01 -0.12 L -2.99 -0.12 L -2.98 -0.119961 L -2.97 -0.119961 L -2.96 -0.119922 L -2.95 -0.119922 L -2.94 -0.119883 L -2.92 -0.119883 L -2.91 -0.119844 L -2.9 -0.119844 L -2.89 -0.119805 L -2.88 -0.119805 L -2.87 -0.119766 L -2.85 -0.119766 L -2.84 -0.119727 L -2.83 -0.119727 L -2.82 -0.119687 L -2.81 -0.119687 L -2.8 -0.119648 L -2.79 -0.119648 L -2.78 -0.119609 L -2.77 -0.119609 L -2.76 -0.11957 L -2.75 -0.11957 L -2.74 -0.119531 L -2.73 -0.119531 L -2.72 -0.119492 L -2.71 -0.119492 L -2.7 -0.119453 L -2.69 -0.119453 L -2.68 -0.119414 L -2.67 -0.119414 L -2.66 -0.119375 L -2.65 -0.119375 L -2.64 -0.119336 L -2.63 -0.119336 L -2.62 -0.119297 L -2.61 -0.119297 L -2.6 -0.119258 L -2.59 -0.119258 L -2.58 -0.119219 L -2.57 -0.119219 L -2.55 -0.119141 L -2.54 -0.119141 L -2.53 -0.119102 L -2.52 -0.119102 L -2.51 -0.119063 L -2.5 -0.119063 L -2.48 -0.118984 L -2.47 -0.118984 L -2.46 -0.118945 L -2.45 -0.118945 L -2.43 -0.118867 L -2.42 -0.118867 L -2.41 -0.118828 L -2.4 -0.118828 L -2.38 -0.11875 L -2.37 -0.11875 L -2.35 -0.118672 L -2.34 -0.118672 L -2.32 -0.118594 L -2.31 -0.118594 L -2.29 -0.118516 L -2.28 -0.118516 L -2.26 -0.118438 L -2.25 -0.118438 L -2.22 -0.11832 L -2.21 -0.11832 L -2.18 -0.118203 L -2.17 -0.118203 L -2.14 -0.118086 L -2.13 -0.118086 L -2.09 -0.11793 L -2.08 -0.11793 L -2.03 -0.117734 L -2.02 -0.117734 L -1.74 -0.116641 L -1.73 -0.116563 L -1.69 -0.116406 L -1.68 -0.116328 L -1.65 -0.116211 L -1.64 -0.116133 L -1.62 -0.116055 L -1.61 -0.115977 L -1.59 -0.115898 L -1.58 -0.11582 L -1.56 -0.115742 L -1.55 -0.115664 L -1.54 -0.115625 L -1.53 -0.115547 L -1.52 -0.115508 L -1.51 -0.11543 L -1.5 -0.115391 L -1.49 -0.115312 L -1.48 -0.115273 L -1.47 -0.115195 L -1.46 -0.115156 L -1.44 -0.115 L -1.43 -0.114961 L -1.41 -0.114805 L -1.4 -0.114766 L -1.37 -0.114531 L -1.36 -0.114492 L -1.22 -0.113398 L -1.21 -0.113281 L -1.19 -0.113125 L -1.18 -0.113008 L -1.16 -0.112852 L -1.15 -0.112734 L -1.14 -0.112656 L -1.13 -0.112539 L -1.12 -0.112461 L -1.1 -0.112227 L -1.09 -0.112148 L -1.06 -0.111797 L -1.05 -0.111719 L -1.01 -0.11125 L -1 -0.111094 L -0.97 -0.110742 L -0.96 -0.110586 L -0.95 -0.110469 L -0.94 -0.110313 L -0.93 -0.110195 L -0.92 -0.110039 L -0.91 -0.109922 L -0.85 -0.108984 L -0.84 -0.108789 L -0.82 -0.108477 L -0.81 -0.108281 L -0.8 -0.108125 L -0.74 -0.106953 L -0.73 -0.106719 L -0.72 -0.106523 L -0.67 -0.105352 L -0.66 -0.105078 L -0.65 -0.104844 L -0.61 -0.10375 L -0.6 -0.103438 L -0.59 -0.103164 L -0.58 -0.102852 L -0.57 -0.1025 L -0.56 -0.102187 L -0.52 -0.100781 L -0.49 -0.0996094 L -0.47 -0.09875 L -0.44 -0.0973437 L -0.42 -0.0963281 L -0.4 -0.0952344 L -0.38 -0.0940625 L -0.37 -0.0934375 L -0.35 -0.0921094 L -0.34 -0.0914062 L -0.33 -0.0906641 L -0.32 -0.0898828 L -0.3 -0.0882422 L -0.29 -0.0873438 L -0.28 -0.0864063 L -0.27 -0.0854297 L -0.26 -0.0844141 L -0.25 -0.0833203 L -0.24 -0.0821875 L -0.23 -0.0809766 L -0.22 -0.0797266 L -0.21 -0.0783594 L -0.2 -0.0769141 L -0.19 -0.0753906 L -0.18 -0.0737891 L -0.17 -0.0720313 L -0.16 -0.0701563 L -0.15 -0.0681641 L -0.14 -0.0660547 L -0.13 -0.0637109 L -0.12 -0.0612109 L -0.11 -0.0585156 L -0.1 -0.0555469 L -0.09 -0.0523437 L -0.08 -0.0487891 L -0.07 -0.0448828 L -0.06 -0.0405469 L -0.05 -0.0357031 L -0.04 -0.0303125 L -0.03 -0.0241797 L -0.02 -0.0172266 L -0.01 -0.00925781 L 0 0 L 0.01 0.00988281 L 0.02 0.0196094 L 0.03 0.0291406 L 0.04 0.0384766 L 0.05 0.0476172 L 0.06 0.0566016 L 0.07 0.0654297 L 0.08 0.0740625 L 0.09 0.0825781 L 0.1 0.0908984 L 0.11 0.0991016 L 0.12 0.107148 L 0.13 0.115039 L 0.14 0.122812 L 0.15 0.13043 L 0.16 0.13793 L 0.17 0.145312 L 0.18 0.152539 L 0.19 0.159648 L 0.2 0.16668 L 0.21 0.173555 L 0.22 0.180312 L 0.23 0.186992 L 0.24 0.193555 L 0.25 0.2 L 0.26 0.206367 L 0.27 0.212617 L 0.28 0.21875 L 0.29 0.224805 L 0.3 0.230781 L 0.31 0.236641 L 0.32 0.242422 L 0.33 0.248125 L 0.34 0.25375 L 0.35 0.259258 L 0.36 0.264687 L 0.37 0.270078 L 0.38 0.275352 L 0.39 0.280586 L 0.4 0.285703 L 0.41 0.290781 L 0.42 0.295781 L 0.43 0.300703 L 0.44 0.305547 L 0.45 0.310352 L 0.46 0.315078 L 0.47 0.319727 L 0.48 0.324336 L 0.49 0.328867 L 0.5 0.33332 L 0.51 0.337734 L 0.52 0.342109 L 0.53 0.346406 L 0.54 0.350664 L 0.55 0.354844 L 0.56 0.358984 L 0.57 0.363047 L 0.58 0.36707 L 0.59 0.371055 L 0.6 0.375 L 0.62 0.382734 L 0.64 0.390234 L 0.65 0.393945 L 0.67 0.401211 L 0.68 0.404766 L 0.69 0.408281 L 0.7 0.411758 L 0.71 0.415195 L 0.72 0.418594 L 0.73 0.421953 L 0.74 0.425273 L 0.76 0.431836 L 0.77 0.435039 L 0.78 0.438203 L 0.8 0.444453 L 0.82 0.450547 L 0.83 0.453555 L 0.84 0.456523 L 0.86 0.462383 L 0.88 0.468086 L 0.89 0.470898 L 0.91 0.476445 L 0.92 0.47918 L 0.93 0.481875 L 0.95 0.487187 L 0.96 0.489805 L 0.98 0.494961 L 0.99 0.4975 L 1.01 0.5025 L 1.02 0.504961 L 1.04 0.509805 L 1.06 0.51457 L 1.07 0.516914 L 1.1 0.523828 L 1.11 0.526055 L 1.12 0.52832 L 1.15 0.534883 L 1.17 0.53918 L 1.19 0.543398 L 1.2 0.545469 L 1.23 0.551562 L 1.26 0.557539 L 1.27 0.559453 L 1.28 0.561406 L 1.3 0.565234 L 1.32 0.568984 L 1.34 0.572656 L 1.35 0.574453 L 1.36 0.576289 L 1.37 0.578047 L 1.38 0.579844 L 1.39 0.581602 L 1.4 0.58332 L 1.41 0.585078 L 1.42 0.586758 L 1.43 0.588477 L 1.45 0.591836 L 1.46 0.593477 L 1.47 0.595156 L 1.48 0.596758 L 1.49 0.598398 L 1.51 0.601602 L 1.55 0.607852 L 1.58 0.612422 L 1.61 0.616875 L 1.65 0.622656 L 1.68 0.626875 L 1.69 0.628242 L 1.7 0.629648 L 1.71 0.631016 L 1.72 0.632344 L 1.73 0.633711 L 1.76 0.637695 L 1.81 0.644141 L 1.85 0.649141 L 1.89 0.653984 L 1.9 0.655156 L 1.91 0.656367 L 1.94 0.659883 L 2 0.66668 L 2.05 0.672148 L 2.1 0.677422 L 2.11 0.678438 L 2.12 0.679492 L 2.16 0.683555 L 2.17 0.684531 L 2.18 0.685547 L 2.22 0.689453 L 2.23 0.690391 L 2.24 0.691367 L 2.29 0.696055 L 2.3 0.696953 L 2.31 0.697891 L 2.37 0.703281 L 2.39 0.705 L 2.4 0.705898 L 2.42 0.707617 L 2.43 0.708438 L 2.45 0.710156 L 2.47 0.711797 L 2.48 0.712656 L 2.51 0.715117 L 2.52 0.715898 L 2.53 0.716719 L 2.54 0.7175 L 2.55 0.71832 L 2.61 0.723008 L 2.62 0.72375 L 2.63 0.724531 L 2.66 0.726758 L 2.67 0.727539 L 2.68 0.728242 L 2.71 0.730469 L 2.72 0.731172 L 2.73 0.731914 L 2.76 0.734023 L 2.77 0.734766 L 2.78 0.735469 L 2.79 0.736133 L 2.81 0.737539 L 2.82 0.738203 L 2.83 0.738906 L 2.84 0.73957 L 2.85 0.740273 L 2.91 0.744258 L 2.92 0.744883 L 2.94 0.746211 L 2.96 0.747461 L 2.97 0.748125 L 3.03 0.751875 L 3.04 0.752461 L 3.06 0.753711 L 3.08 0.754883 L 3.09 0.755508 L 3.18 0.760781 L 3.19 0.761328 L 3.2 0.761914 L 3.21 0.762461 L 3.22 0.763047 L 3.25 0.764687 L 3.26 0.765273 L 3.3 0.767461 L 3.31 0.767969 L 3.33 0.769062 L 3.34 0.76957 L 3.35 0.770117 L 3.36 0.770625 L 3.37 0.771172 L 3.38 0.77168 L 3.39 0.772227 L 3.48 0.776797 L 3.49 0.777266 L 3.51 0.778281 L 3.52 0.77875 L 3.53 0.779258 L 3.54 0.779727 L 3.55 0.780234 L 3.58 0.781641 L 3.59 0.782148 L 3.65 0.784961 L 3.66 0.785391 L 3.69 0.786797 L 3.7 0.787227 L 3.71 0.787695 L 3.72 0.788125 L 3.73 0.788594 L 3.74 0.789023 L 3.75 0.789492 L 3.78 0.790781 L 3.79 0.79125 L 3.86 0.794258 L 3.87 0.794648 L 3.9 0.795937 L 3.91 0.796328 L 3.92 0.796758 L 3.93 0.797148 L 3.94 0.797578 L 3.95 0.797969 L 3.96 0.798398 L 3.98 0.79918 L 3.99 0.799609 L 4.02 0.800781 L 4.03 0.801211 L 4.09 0.803555 L 4.1 0.803906 L 4.13 0.805078 L 4.14 0.80543 L 4.16 0.806211 L 4.17 0.806563 L 4.18 0.806953 L 4.19 0.807305 L 4.2 0.807695 L 4.21 0.808047 L 4.22 0.808437 L 4.23 0.808789 L 4.24 0.80918 L 4.27 0.810234 L 4.28 0.810625 L 4.38 0.814141 L 4.39 0.814453 L 4.42 0.815508 L 4.43 0.81582 L 4.45 0.816523 L 4.46 0.816836 L 4.47 0.817187 L 4.48 0.8175 L 4.49 0.817852 L 4.5 0.818164 L 4.51 0.818516 L 4.52 0.818828 L 4.53 0.81918 L 4.55 0.819805 L 4.56 0.820156 L 4.59 0.821094 L 4.6 0.821445 L 4.71 0.824883 L 4.72 0.825156 L 4.76 0.826406 L 4.77 0.82668 L 4.79 0.827305 L 4.8 0.827578 L 4.81 0.827891 L 4.82 0.828164 L 4.83 0.828477 L 4.84 0.82875 L 4.85 0.829063 L 4.86 0.829336 L 4.87 0.829648 L 4.88 0.829922 L 4.89 0.830234 L 4.91 0.830781 L 4.92 0.831094 L 4.95 0.831914 L 4.96 0.832227 L 5 0.83332 " transform="matrix(100,0,0,-100,500,200)"/>
</g>
</svg>
