<?xml version="1.0" encoding="UTF-8"?>
<svg xmlns="http://www.w3.org/2000/svg" xmlns:xlink="http://www.w3.org/1999/xlink" width="1000pt" height="400pt" viewBox="0 0 1000 400" version="1.1">
<g id="surface1">
<rect x="0" y="0" width="1000" height="400" style="fill:rgb(0%,0%,0%);fill-opacity:1;stroke:none;"/>
<path style="fill:none;stroke-width:0.01;stroke-linecap:butt;stroke-linejoin:miter;stroke:rgb(100%,100%,100%);stroke-opacity:0.5;stroke-miterlimit:10;" d="M -5 -2 L -5 2 " transform="matrix(100,0,0,-100,500,200)"/>
<path style="fill:none;stroke-width:0.01;stroke-linecap:butt;stroke-linejoin:miter;stroke:rgb(100%,100%,100%);stroke-opacity:0.5;stroke-miterlimit:10;" d="M -4 -2 L -4 2 " transform="matrix(100,0,0,-100,500,200)"/>
<path style="fill:none;stroke-width:0.01;stroke-linecap:butt;stroke-linejoin:miter;stroke:rgb(100%,100%,100%);stroke-opacity:0.5;stroke-miterlimit:10;" d="M -3 -2 L -3 2 " transform="matrix(100,0,0,-100,500,200)"/>
<path style="fill:none;stroke-width:0.01;stroke-linecap:butt;stroke-linejoin:miter;stroke:rgb(100%,100%,100%);stroke-opacity:0.5;stroke-miterlimit:10;" d="M -2 -2 L -2 2 " transform="matrix(100,0,0,-100,500,200)"/>
<path style="fill:none;stroke-width:0.01;stroke-linecap:butt;stroke-linejoin:miter;stroke:rgb(100%,100%,100%);stroke-opacity:0.5;stroke-miterlimit:10;" d="M -1 -2 L -1 2 " transform="matrix(100,0,0,-100,500,200)"/>
<path style="fill:none;stroke-width:0.01;stroke-linecap:butt;stroke-linejoin:miter;stroke:rgb(100%,100%,100%);stroke-opacity:1;stroke-miterlimit:10;" d="M 0 -2 L 0 2 " transform="matrix(100,0,0,-100,500,200)"/>
<path style="fill:none;stroke-width:0.01;stroke-linecap:butt;stroke-linejoin:miter;stroke:rgb(100%,100%,100%);stroke-opacity:0.5;stroke-miterlimit:10;" d="M 1 -2 L 1 2 " transform="matrix(100,0,0,-100,500,200)"/>
<path style="fill:none;stroke-width:0.01;stroke-linecap:butt;stroke-linejoin:miter;stroke:rgb(100%,100%,100%);stroke-opacity:0.5;stroke-miterlimit:10;" d="M 2 -2 L 2 2 " transform="matrix(100,0,0,-100,500,200)"/>
<path style="fill:none;stroke-width:0.01;stroke-linecap:butt;stroke-linejoin:miter;stroke:rgb(100%,100%,100%);stroke-opacity:0.5;stroke-miterlimit:10;" d="M 3 -2 L 3 2 " transform="matrix(100,0,0,-100,500,200)"/>
<path style="fill:none;stroke-width:0.01;stroke-linecap:butt;stroke-linejoin:miter;stroke:rgb(100%,100%,100%);stroke-opacity:0.5;stroke-miterlimit:10;" d="M 4 -2 L 4 2 " transform="matrix(100,0,0,-100,500,200)"/>
<path style="fill:none;stroke-width:0.01;stroke-linecap:butt;stroke-linejoin:miter;stroke:rgb(100%,100%,100%);stroke-opacity:0.5;stroke-miterlimit:10;" d="M 5 -2 L 5 2 " transform="matrix(100,0,0,-100,500,200)"/>
<path style="fill:none;stroke-width:0.005;stroke-linecap:butt;stroke-linejoin:miter;stroke:rgb(100%,100%,100%);stroke-opacity:0.25;stroke-miterlimit:10;" d="M -4.75 -2 L -4.75 2 " transform="matrix(100,0,0,-100,500,200)"/>
<path style="fill:none;stroke-width:0.005;stroke-linecap:butt;stroke-linejoin:miter;stroke:rgb(100%,100%,100%);stroke-opacity:0.25;stroke-miterlimit:10;" d="M -4.5 -2 L -4.5 2 " transform="matrix(100,0,0,-100,500,200)"/>
<path style="fill:none;stroke-width:0.005;stroke-linecap:butt;stroke-linejoin:miter;stroke:rgb(100%,100%,100%);stroke-opacity:0.25;stroke-miterlimit:10;" d="M -4.25 -2 L -4.25 2 " transform="matrix(100,0,0,-100,500,200)"/>
<path style="fill:none;stroke-width:0.005;stroke-linecap:butt;stroke-linejoin:miter;stroke:rgb(100%,100%,100%);stroke-opacity:0.25;stroke-miterlimit:10;" d="M -3.75 -2 L -3.75 2 " transform="matrix(100,0,0,-100,500,200)"/>
<path style="fill:none;stroke-width:0.005;stroke-linecap:butt;stroke-linejoin:miter;stroke:rgb(100%,100%,100%);stroke-opacity:0.25;stroke-miterlimit:10;" d="M -3.5 -2 L -3.5 2 " transform="matrix(100,0,0,-100,500,200)"/>
<path style="fill:none;stroke-width:0.005;stroke-linecap:butt;stroke-linejoin:miter;stroke:rgb(100%,100%,100%);stroke-opacity:0.25;stroke-miterlimit:10;" d="M -3.25 -2 L -3.25 2 " transform="matrix(100,0,0,-100,500,200)"/>
<path style="fill:none;stroke-width:0.005;stroke-linecap:butt;stroke-linejoin:miter;stroke:rgb(100%,100%,100%);stroke-opacity:0.25;stroke-miterlimit:10;" d="M -2.75 -2 L -2.75 2 " transform="matrix(100,0,0,-100,500,200)"/>
<path style="fill:none;stroke-width:0.005;stroke-linecap:butt;stroke-linejoin:miter;stroke:rgb(100%,100%,100%);stroke-opacity:0.25;stroke-miterlimit:10;" d="M -2.5 -2 L -2.5 2 " transform="matrix(100,0,0,-100,500,200)"/>
<path style="fill:none;stroke-width:0.005;stroke-linecap:butt;stroke-linejoin:miter;stroke:rgb(100%,100%,100%);stroke-opacity:0.25;stroke-miterlimit:10;" d="M -2.25 -2 L -2.25 2 " transform="matrix(100,0,0,-100,500,200)"/>
<path style="fill:none;stroke-width:0.005;stroke-linecap:butt;stroke-linejoin:miter;stroke:rgb(100%,100%,100%);stroke-opacity:0.25;stroke-miterlimit:10;" d="M -1.75 -2 L -1.75 2 " transform="matrix(100,0,0,-100,500,200)"/>
<path style="fill:none;stroke-width:0.005;stroke-linecap:butt;stroke-linejoin:miter;stroke:rgb(100%,100%,100%);stroke-opacity:0.25;stroke-miterlimit:10;" d="M -1.5 -2 L -1.5 2 " transform="matrix(100,0,0,-100,500,200)"/>
<path style="fill:none;stroke-width:0.005;stroke-linecap:butt;stroke-linejoin:miter;stroke:rgb(100%,100%,100%);stroke-opacity:0.25;stroke-miterlimit:10;" d="M -1.25 -2 L -1.25 2 " transform="matrix(100,0,0,-100,500,200)"/>
<path style="fill:none;stroke-width:0.005;stroke-linecap:butt;stroke-linejoin:miter;stroke:rgb(100%,100%,100%);stroke-opacity:0.25;stroke-miterlimit:10;" d="M -0.75 -2 L -0.75 2 " transform="matrix(100,0,0,-100,500,200)"/>
<path style="fill:none;stroke-width:0.005;stroke-linecap:butt;stroke-linejoin:miter;stroke:rgb(100%,100%,100%);stroke-opacity:0.25;stroke-miterlimit:10;" d="M -0.5 -2 L -0.5 2 " transform="matrix(100,0,0,-100,500,200)"/>
<path style="fill:none;stroke-width:0.005;stroke-linecap:butt;stroke-linejoin:miter;stroke:rgb(100%,100%,100%);stroke-opacity:0.25;stroke-miterlimit:10;" d="M -0.25 -2 L -0.25 2 " transform="matrix(100,0,0,-100,500,200)"/>
<path style="fill:none;stroke-width:0.005;stroke-linecap:butt;stroke-linejoin:miter;stroke:rgb(100%,100%,100%);stroke-opacity:0.25;stroke-miterlimit:10;" d="M 0.25 -2 L 0.25 2 " transform="matrix(100,0,0,-100,500,200)"/>
<path style="fill:none;stroke-width:0.005;stroke-linecap:butt;stroke-linejoin:miter;stroke:rgb(100%,100%,100%);stroke-opacity:0.25;stroke-miterlimit:10;" d="M 0.5 -2 L 0.5 2 " transform="matrix(100,0,0,-100,500,200)"/>
<path style="fill:none;stroke-width:0.005;stroke-linecap:butt;stroke-linejoin:miter;stroke:rgb(100%,100%,100%);stroke-opacity:0.25;stroke-miterlimit:10;" d="M 0.75 -2 L 0.75 2 " transform="matrix(100,0,0,-100,500,200)"/>
<path style="fill:none;stroke-width:0.005;stroke-linecap:butt;stroke-linejoin:miter;stroke:rgb(100%,100%,100%);stroke-opacity:0.25;stroke-miterlimit:10;" d="M 1.25 -2 L 1.25 2 " transform="matrix(100,0,0,-100,500,200)"/>
<path style="fill:none;stroke-width:0.005;stroke-linecap:butt;stroke-linejoin:miter;stroke:rgb(100%,100%,100%);stroke-opacity:0.25;stroke-miterlimit:10;" d="M 1.5 -2 L 1.5 2 " transform="matrix(100,0,0,-100,500,200)"/>
<path style="fill:none;stroke-width:0.005;stroke-linecap:butt;stroke-linejoin:miter;stroke:rgb(100%,100%,100%);stroke-opacity:0.25;stroke-miterlimit:10;" d="M 1.75 -2 L 1.75 2 " transform="matrix(100,0,0,-100,500,200)"/>
<path style="fill:none;stroke-width:0.005;stroke-linecap:butt;stroke-linejoin:miter;stroke:rgb(100%,100%,100%);stroke-opacity:0.25;stroke-miterlimit:10;" d="M 2.25 -2 L 2.25 2 " transform="matrix(100,0,0,-100,500,200)"/>
<path style="fill:none;stroke-width:0.005;stroke-linecap:butt;stroke-linejoin:miter;stroke:rgb(100%,100%,100%);stroke-opacity:0.25;stroke-miterlimit:10;" d="M 2.5 -2 L 2.5 2 " transform="matrix(100,0,0,-100,500,200)"/>
<path style="fill:none;stroke-width:0.005;stroke-linecap:butt;stroke-linejoin:miter;stroke:rgb(100%,100%,100%);stroke-opacity:0.25;stroke-miterlimit:10;" d="M 2.75 -2 L 2.75 2 " transform="matrix(100,0,0,-100,500,200)"/>
<path style="fill:none;stroke-width:0.005;stroke-linecap:butt;stroke-linejoin:miter;stroke:rgb(100%,100%,100%);stroke-opacity:0.25;stroke-miterlimit:10;" d="M 3.25 -2 L 3.25 2 " transform="matrix(100,0,0,-100,500,200)"/>
<path style="fill:none;stroke-width:0.005;stroke-linecap:butt;stroke-linejoin:miter;stroke:rgb(100%,100%,100%);stroke-opacity:0.25;stroke-miterlimit:10;" d="M 3.5 -2 L 3.5 2 " transform="matrix(100,0,0,-100,500,200)"/>
<path style="fill:none;stroke-width:0.005;stroke-linecap:butt;stroke-linejoin:miter;stroke:rgb(100%,100%,100%);stroke-opacity:0.25;stroke-miterlimit:10;" d="M 3.75 -2 L 3.75 2 " transform="matrix(100,0,0,-100,500,200)"/>
<path style="fill:none;stroke-width:0.005;stroke-linecap:butt;stroke-linejoin:miter;stroke:rgb(100%,100%,100%);stroke-opacity:0.25;stroke-miterlimit:10;" d="M 4.25 -2 L 4.25 2 " transform="matrix(100,0,0,-100,500,200)"/>
<path style="fill:none;stroke-width:0.005;stroke-linecap:butt;stroke-linejoin:miter;stroke:rgb(100%,100%,100%);stroke-opacity:0.25;stroke-miterlimit:10;" d="M 4.5 -2 L 4.5 2 " transform="matrix(100,0,0,-100,500,200)"/>
<path style="fill:none;stroke-width:0.005;stroke-linecap:butt;stroke-linejoin:miter;stroke:rgb(100%,100%,100%);stroke-opacity:0.25;stroke-miterlimit:10;" d="M 4.75 -2 L 4.75 2 " transform="matrix(100,0,0,-100,500,200)"/>
<path style="fill:none;stroke-width:0.01;stroke-linecap:butt;stroke-linejoin:miter;stroke:rgb(100%,100%,100%);stroke-opacity:0.5;stroke-miterlimit:10;" d="M -5 -2 L 5 -2 " transform="matrix(100,0,0,-100,500,200)"/>
<path style="fill:none;stroke-width:0.01;stroke-linecap:butt;stroke-linejoin:miter;stroke:rgb(100%,100%,100%);stroke-opacity:0.5;stroke-miterlimit:10;" d="M -5 -1 L 5 -1 " transform="matrix(100,0,0,-100,500,200)"/>
<path style="fill:none;stroke-width:0.01;stroke-linecap:butt;stroke-linejoin:miter;stroke:rgb(100%,100%,100%);stroke-opacity:1;stroke-miterlimit:10;" d="M -5 0 L 5 0 " transform="matrix(100,0,0,-100,500,200)"/>
<path style="fill:none;stroke-width:0.01;stroke-linecap:butt;stroke-linejoin:miter;stroke:rgb(100%,100%,100%);stroke-opacity:0.5;stroke-miterlimit:10;" d="M -5 1 L 5 1 " transform="matrix(100,0,0,-100,500,200)"/>
<path style="fill:none;stroke-width:0.01;stroke-linecap:butt;stroke-linejoin:miter;stroke:rgb(100%,100%,100%);stroke-opacity:0.5;stroke-miterlimit:10;" d="M -5 2 L 5 2 " transform="matrix(100,0,0,-100,500,200)"/>
<path style="fill:none;stroke-width:0.005;stroke-linecap:butt;stroke-linejoin:miter;stroke:rgb(100%,100%,100%);stroke-opacity:0.25;stroke-miterlimit:10;" d="M -5 -1.75 L 5 -1.75 " transform="matrix(100,0,0,-100,500,200)"/>
<path style="fill:none;stroke-width:0.005;stroke-linecap:butt;stroke-linejoin:miter;stroke:rgb(100%,100%,100%);stroke-opacity:0.25;stroke-miterlimit:10;" d="M -5 -1.5 L 5 -1.5 " transform="matrix(100,0,0,-100,500,200)"/>
<path style="fill:none;stroke-width:0.005;stroke-linecap:butt;stroke-linejoin:miter;stroke:rgb(100%,100%,100%);stroke-opacity:0.25;stroke-miterlimit:10;" d="M -5 -1.25 L 5 -1.25 " transform="matrix(100,0,0,-100,500,200)"/>
<path style="fill:none;stroke-width:0.005;stroke-linecap:butt;stroke-linejoin:miter;stroke:rgb(100%,100%,100%);stroke-opacity:0.25;stroke-miterlimit:10;" d="M -5 -0.75 L 5 -0.75 " transform="matrix(100,0,0,-100,500,200)"/>
<path style="fill:none;stroke-width:0.005;stroke-linecap:butt;stroke-linejoin:miter;stroke:rgb(100%,100%,100%);stroke-opacity:0.25;stroke-miterlimit:10;" d="M -5 -0.5 L 5 -0.5 " transform="matrix(100,0,0,-100,500,200)"/>
<path style="fill:none;stroke-width:0.005;stroke-linecap:butt;stroke-linejoin:miter;stroke:rgb(100%,100%,100%);stroke-opacity:0.25;stroke-miterlimit:10;" d="M -5 -0.25 L 5 -0.25 " transform="matrix(100,0,0,-100,500,200)"/>
<path style="fill:none;stroke-width:0.005;stroke-linecap:butt;stroke-linejoin:miter;stroke:rgb(100%,100%,100%);stroke-opacity:0.25;stroke-miterlimit:10;" d="M -5 0.25 L 5 0.25 " transform="matrix(100,0,0,-100,500,200)"/>
<path style="fill:none;stroke-width:0.005;stroke-linecap:butt;stroke-linejoin:miter;stroke:rgb(100%,100%,100%);stroke-opacity:0.25;stroke-miterlimit:10;" d="M -5 0.5 L 5 0.5 " transform="matrix(100,0,0,-100,500,200)"/>
<path style="fill:none;stroke-width:0.005;stroke-linecap:butt;stroke-linejoin:miter;stroke:rgb(100%,100%,100%);stroke-opacity:0.25;stroke-miterlimit:10;" d="M -5 0.75 L 5 0.75 " transform="matrix(100,0,0,-100,500,200)"/>
<path style="fill:none;stroke-width:0.005;stroke-linecap:butt;stroke-linejoin:miter;stroke:rgb(100%,100%,100%);stroke-opacity:0.25;stroke-miterlimit:10;" d="M -5 1.25 L 5 1.25 " transform="matrix(100,0,0,-100,500,200)"/>
<path style="fill:none;stroke-width:0.005;stroke-linecap:butt;stroke-linejoin:miter;stroke:rgb(100%,100%,100%);stroke-opacity:0.25;stroke-miterlimit:10;" d="M -5 1.5 L 5 1.5 " transform="matrix(100,0,0,-100,500,200)"/>
<path style="fill:none;stroke-width:0.005;stroke-linecap:butt;stroke-linejoin:miter;stroke:rgb(100%,100%,100%);stroke-opacity:0.25;stroke-miterlimit:10;" d="M -5 1.75 L 5 1.75 " transform="matrix(100,0,0,-100,500,200)"/>
<path style="fill:none;stroke-width:0.03;stroke-linecap:butt;stroke-linejoin:miter;stroke:rgb(87.058824%,29.803922%,71.764706%);stroke-opacity:1;stroke-miterlimit:10;" d="M -5 -1.791758 L -4.99 -1.790078 L -4.98 -1.788438 L -4.93 -1.780039 L -4.92 -1.77832 L -4.9 -1.774961 L -4.89 -1.773242 L -4.88 -1.771562 L -4.87 -1.769844 L -4.86 -1.768164 L -4.78 -1.754414 L -4.77 -1.752656 L -4.75 -1.749219 L -4.73 -1.745703 L -4.72 -1.743984 L -4.66 -1.733437 L -4.65 -1.731641 L -4.63 -1.728125 L -4.61 -1.724531 L -4.6 -1.722773 L -4.53 -1.710195 L -4.52 -1.708359 L -4.5 -1.704766 L -4.48 -1.701094 L -4.47 -1.699297 L -4.43 -1.691953 L -4.42 -1.690078 L -4.4 -1.686406 L -4.39 -1.684531 L -4.38 -1.682695 L -4.36 -1.678945 L -4.35 -1.677109 L -4.31 -1.669609 L -4.3 -1.667695 L -4.28 -1.663945 L -4.26 -1.660117 L -4.25 -1.658242 L -4.2 -1.648672 L -4.19 -1.646719 L -4.17 -1.642891 L -4.15 -1.638984 L -4.14 -1.63707 L -4.1 -1.629258 L -4.09 -1.627266 L -4.07 -1.623359 L -4.05 -1.619375 L -4.04 -1.617422 L -4 -1.609453 L -3.99 -1.607422 L -3.97 -1.603438 L -3.95 -1.599375 L -3.94 -1.597383 L -3.91 -1.591289 L -3.9 -1.589219 L -3.88 -1.585156 L -3.87 -1.583086 L -3.86 -1.581055 L -3.8 -1.568633 L -3.79 -1.566523 L -3.78 -1.564453 L -3.76 -1.560234 L -3.75 -1.558164 L -3.74 -1.556055 L -3.73 -1.553906 L -3.7 -1.547578 L -3.68 -1.543281 L -3.67 -1.541172 L -3.64 -1.534727 L -3.63 -1.532539 L -3.61 -1.528242 L -3.58 -1.52168 L -3.57 -1.519531 L -3.56 -1.517305 L -3.54 -1.51293 L -3.53 -1.510703 L -3.52 -1.508516 L -3.46 -1.495156 L -3.45 -1.492891 L -3.44 -1.490664 L -3.39 -1.479336 L -3.38 -1.477031 L -3.37 -1.474766 L -3.36 -1.472461 L -3.35 -1.470195 L -3.33 -1.465586 L -3.32 -1.463242 L -3.3 -1.458633 L -3.24 -1.44457 L -3.23 -1.442188 L -3.22 -1.439844 L -3.17 -1.42793 L -3.16 -1.425508 L -3.15 -1.423125 L -3.11 -1.413438 L -3.1 -1.410977 L -3.09 -1.408555 L -3.04 -1.39625 L -3.03 -1.39375 L -3.02 -1.391289 L -2.98 -1.381289 L -2.97 -1.37875 L -2.96 -1.37625 L -2.91 -1.363555 L -2.85 -1.348086 L -2.79 -1.332383 L -2.74 -1.319102 L -2.68 -1.30293 L -2.64 -1.291992 L -2.63 -1.289219 L -2.62 -1.286484 L -2.59 -1.278164 L -2.58 -1.275352 L -2.57 -1.272578 L -2.54 -1.264141 L -2.53 -1.261289 L -2.52 -1.258477 L -2.5 -1.252773 L -2.49 -1.249883 L -2.48 -1.247031 L -2.43 -1.232578 L -2.4 -1.223789 L -2.39 -1.22082 L -2.38 -1.217891 L -2.36 -1.211953 L -2.35 -1.208945 L -2.34 -1.205977 L -2.31 -1.196953 L -2.3 -1.193906 L -2.29 -1.190898 L -2.27 -1.184805 L -2.26 -1.181719 L -2.25 -1.178672 L -2.23 -1.1725 L -2.22 -1.169375 L -2.21 -1.166289 L -2.19 -1.160039 L -2.18 -1.156875 L -2.17 -1.15375 L -2.15 -1.147422 L -2.13 -1.141016 L -2.12 -1.137852 L -2.11 -1.134609 L -2.1 -1.131406 L -2.07 -1.12168 L -2.06 -1.118398 L -2.05 -1.115156 L -2.04 -1.111875 L -2.03 -1.108555 L -2.02 -1.105273 L -2.01 -1.101953 L -2 -1.098594 L -1.99 -1.095273 L -1.96 -1.085195 L -1.92 -1.071602 L -1.9 -1.064727 L -1.86 -1.05082 L -1.83 -1.040273 L -1.82 -1.036719 L -1.81 -1.033203 L -1.8 -1.029609 L -1.79 -1.026055 L -1.78 -1.022461 L -1.77 -1.018828 L -1.76 -1.015234 L -1.74 -1.007969 L -1.71 -0.996953 L -1.68 -0.98582 L -1.65 -0.97457 L -1.63 -0.966992 L -1.6 -0.955508 L -1.57 -0.943906 L -1.55 -0.936094 L -1.52 -0.924258 L -1.5 -0.916289 L -1.47 -0.904219 L -1.45 -0.896094 L -1.43 -0.887891 L -1.4 -0.875469 L -1.38 -0.867109 L -1.36 -0.858672 L -1.34 -0.850156 L -1.31 -0.837266 L -1.3 -0.832891 L -1.29 -0.828555 L -1.28 -0.82418 L -1.25 -0.810938 L -1.24 -0.806484 L -1.21 -0.793008 L -1.2 -0.788477 L -1.18 -0.779336 L -1.16 -0.770117 L -1.14 -0.76082 L -1.13 -0.756133 L -1.1 -0.741953 L -1.09 -0.737148 L -1.08 -0.732383 L -1.05 -0.717852 L -1.04 -0.712969 L -1.03 -0.708047 L -1 -0.693164 L -0.97 -0.678047 L -0.94 -0.662695 L -0.93 -0.657539 L -0.92 -0.652344 L -0.91 -0.647109 L -0.88 -0.631289 L -0.86 -0.620586 L -0.85 -0.615195 L -0.84 -0.609766 L -0.82 -0.598828 L -0.81 -0.59332 L -0.79 -0.582227 L -0.77 -0.570977 L -0.76 -0.565313 L -0.75 -0.559609 L -0.73 -0.548125 L -0.72 -0.542344 L -0.7 -0.530625 L -0.69 -0.524727 L -0.68 -0.518789 L -0.66 -0.506836 L -0.65 -0.500781 L -0.63 -0.488594 L -0.61 -0.47625 L -0.59 -0.46375 L -0.57 -0.451094 L -0.56 -0.444688 L -0.54 -0.431797 L -0.53 -0.425273 L -0.52 -0.418711 L -0.51 -0.412109 L -0.5 -0.405469 L -0.49 -0.398789 L -0.47 -0.385273 L -0.46 -0.378437 L -0.45 -0.371563 L -0.44 -0.364648 L -0.42 -0.350664 L -0.41 -0.343594 L -0.4 -0.336484 L -0.39 -0.329297 L -0.38 -0.32207 L -0.37 -0.314805 L -0.36 -0.3075 L -0.35 -0.300117 L -0.33 -0.285195 L -0.31 -0.270039 L -0.3 -0.262383 L -0.29 -0.254648 L -0.28 -0.246875 L -0.27 -0.239023 L -0.26 -0.231094 L -0.25 -0.223125 L -0.24 -0.215117 L -0.23 -0.207031 L -0.22 -0.198867 L -0.21 -0.190625 L -0.2 -0.182305 L -0.19 -0.173945 L -0.18 -0.165508 L -0.17 -0.156992 L -0.16 -0.148438 L -0.15 -0.139766 L -0.14 -0.131016 L -0.13 -0.122227 L -0.12 -0.11332 L -0.11 -0.104375 L -0.1 -0.0953125 L -0.09 -0.0861719 L -0.08 -0.0769531 L -0.07 -0.0676563 L -0.06 -0.0582812 L -0.05 -0.0487891 L -0.04 -0.0392187 L -0.03 -0.0295703 L -0.02 -0.0198047 L -0.01 -0.00996094 L 0.01 0.00996094 L 0.02 0.0198047 L 0.03 0.0295703 L 0.04 0.0392187 L 0.05 0.0487891 L 0.06 0.0582813 L 0.07 0.0676562 L 0.08 0.0769531 L 0.09 0.0861719 L 0.1 0.0953125 L 0.11 0.104375 L 0.12 0.11332 L 0.13 0.122227 L 0.14 0.131016 L 0.15 0.139766 L 0.16 0.148438 L 0.17 0.156992 L 0.18 0.165508 L 0.19 0.173945 L 0.2 0.182305 L 0.21 0.190625 L 0.22 0.198867 L 0.23 0.207031 L 0.24 0.215117 L 0.25 0.223125 L 0.26 0.231094 L 0.27 0.239023 L 0.28 0.246875 L 0.29 0.254648 L 0.3 0.262383 L 0.31 0.270039 L 0.33 0.285195 L 0.35 0.300117 L 0.36 0.3075 L 0.37 0.314805 L 0.38 0.32207 L 0.39 0.329297 L 0.4 0.336484 L 0.41 0.343594 L 0.42 0.350664 L 0.44 0.364648 L 0.45 0.371563 L 0.46 0.378437 L 0.47 0.385273 L 0.49 0.398789 L 0.5 0.405469 L 0.51 0.412109 L 0.52 0.418711 L 0.53 0.425273 L 0.54 0.431797 L 0.56 0.444687 L 0.57 0.451094 L 0.59 0.46375 L 0.61 0.47625 L 0.63 0.488594 L 0.65 0.500781 L 0.66 0.506836 L 0.68 0.518789 L 0.69 0.524727 L 0.7 0.530625 L 0.72 0.542344 L 0.73 0.548125 L 0.75 0.559609 L 0.76 0.565312 L 0.77 0.570977 L 0.79 0.582227 L 0.81 0.59332 L 0.82 0.598828 L 0.84 0.609766 L 0.85 0.615195 L 0.86 0.620586 L 0.88 0.631289 L 0.91 0.647109 L 0.92 0.652344 L 0.93 0.657539 L 0.94 0.662695 L 0.97 0.678047 L 1 0.693164 L 1.03 0.708047 L 1.04 0.712969 L 1.05 0.717852 L 1.08 0.732383 L 1.09 0.737148 L 1.1 0.741953 L 1.13 0.756133 L 1.14 0.76082 L 1.16 0.770117 L 1.18 0.779336 L 1.2 0.788477 L 1.21 0.793008 L 1.24 0.806484 L 1.25 0.810937 L 1.28 0.82418 L 1.29 0.828555 L 1.3 0.832891 L 1.31 0.837266 L 1.34 0.850156 L 1.36 0.858672 L 1.38 0.867109 L 1.4 0.875469 L 1.43 0.887891 L 1.45 0.896094 L 1.47 0.904219 L 1.5 0.916289 L 1.52 0.924258 L 1.55 0.936094 L 1.57 0.943906 L 1.6 0.955508 L 1.63 0.966992 L 1.65 0.97457 L 1.68 0.98582 L 1.71 0.996953 L 1.74 1.007969 L 1.76 1.015234 L 1.77 1.018828 L 1.78 1.022461 L 1.79 1.026055 L 1.8 1.029609 L 1.81 1.033203 L 1.82 1.036719 L 1.83 1.040273 L 1.86 1.05082 L 1.9 1.064727 L 1.92 1.071602 L 1.96 1.085195 L 1.99 1.095273 L 2 1.098594 L 2.01 1.101953 L 2.02 1.105273 L 2.03 1.108555 L 2.04 1.111875 L 2.05 1.115156 L 2.06 1.118398 L 2.07 1.12168 L 2.1 1.131406 L 2.11 1.134609 L 2.12 1.137852 L 2.13 1.141016 L 2.15 1.147422 L 2.17 1.15375 L 2.18 1.156875 L 2.19 1.160039 L 2.21 1.166289 L 2.22 1.169375 L 2.23 1.1725 L 2.25 1.178672 L 2.26 1.181719 L 2.27 1.184805 L 2.29 1.190898 L 2.3 1.193906 L 2.31 1.196953 L 2.34 1.205977 L 2.35 1.208945 L 2.36 1.211953 L 2.38 1.217891 L 2.39 1.22082 L 2.4 1.223789 L 2.43 1.232578 L 2.48 1.247031 L 2.49 1.249883 L 2.5 1.252773 L 2.52 1.258477 L 2.53 1.261289 L 2.54 1.264141 L 2.57 1.272578 L 2.58 1.275352 L 2.59 1.278164 L 2.62 1.286484 L 2.63 1.289219 L 2.64 1.291992 L 2.68 1.30293 L 2.74 1.319102 L 2.79 1.332383 L 2.85 1.348086 L 2.91 1.363555 L 2.96 1.37625 L 2.97 1.37875 L 2.98 1.381289 L 3.02 1.391289 L 3.03 1.39375 L 3.04 1.39625 L 3.09 1.408555 L 3.1 1.410977 L 3.11 1.413438 L 3.15 1.423125 L 3.16 1.425508 L 3.17 1.42793 L 3.22 1.439844 L 3.23 1.442187 L 3.24 1.44457 L 3.3 1.458633 L 3.32 1.463242 L 3.33 1.465586 L 3.35 1.470195 L 3.36 1.472461 L 3.37 1.474766 L 3.38 1.477031 L 3.39 1.479336 L 3.44 1.490664 L 3.45 1.492891 L 3.46 1.495156 L 3.52 1.508516 L 3.53 1.510703 L 3.54 1.51293 L 3.56 1.517305 L 3.57 1.519531 L 3.58 1.52168 L 3.61 1.528242 L 3.63 1.532539 L 3.64 1.534727 L 3.67 1.541172 L 3.68 1.543281 L 3.7 1.547578 L 3.73 1.553906 L 3.74 1.556055 L 3.75 1.558164 L 3.76 1.560234 L 3.78 1.564453 L 3.79 1.566523 L 3.8 1.568633 L 3.86 1.581055 L 3.87 1.583086 L 3.88 1.585156 L 3.9 1.589219 L 3.91 1.591289 L 3.94 1.597383 L 3.95 1.599375 L 3.97 1.603438 L 3.99 1.607422 L 4 1.609453 L 4.04 1.617422 L 4.05 1.619375 L 4.07 1.623359 L 4.09 1.627266 L 4.1 1.629258 L 4.14 1.63707 L 4.15 1.638984 L 4.17 1.642891 L 4.19 1.646719 L 4.2 1.648672 L 4.25 1.658242 L 4.26 1.660117 L 4.28 1.663945 L 4.3 1.667695 L 4.31 1.669609 L 4.35 1.677109 L 4.36 1.678945 L 4.38 1.682695 L 4.39 1.684531 L 4.4 1.686406 L 4.42 1.690078 L 4.43 1.691953 L 4.47 1.699297 L 4.48 1.701094 L 4.5 1.704766 L 4.52 1.708359 L 4.53 1.710195 L 4.6 1.722773 L 4.61 1.724531 L 4.63 1.728125 L 4.65 1.731641 L 4.66 1.733437 L 4.72 1.743984 L 4.73 1.745703 L 4.75 1.749219 L 4.77 1.752656 L 4.78 1.754414 L 4.86 1.768164 L 4.87 1.769844 L 4.88 1.771562 L 4.89 1.773242 L 4.9 1.774961 L 4.92 1.77832 L 4.93 1.780039 L 4.98 1.788437 L 4.99 1.790078 L 5 1.791758 " transform="matrix(100,0,0,-100,500,200)"/>
<path style="fill:none;stroke-width:0.03;stroke-linecap:butt;stroke-linejoin:miter;stroke:rgb(87.058824%,29.803922%,71.764706%);stroke-opacity:0.75;stroke-miterlimit:10;" d="M -5 -1.198945 L -4.99 -1.198047 L -4.98 -1.197109 L -4.96 -1.195312 L -4.95 -1.194375 L -4.94 -1.193477 L -4.93 -1.192539 L -4.92 -1.191641 L -4.89 -1.188828 L -4.88 -1.18793 L -4.78 -1.178555 L -4.77 -1.177578 L -4.75 -1.175703 L -4.74 -1.174727 L -4.73 -1.173789 L -4.72 -1.172813 L -4.71 -1.171875 L -4.69 -1.169922 L -4.68 -1.168984 L -4.65 -1.166055 L -4.64 -1.165117 L -4.6 -1.161211 L -4.59 -1.160195 L -4.56 -1.157266 L -4.55 -1.15625 L -4.53 -1.154297 L -4.52 -1.153281 L -4.51 -1.152305 L -4.49 -1.150273 L -4.48 -1.149297 L -4.45 -1.14625 L -4.44 -1.145273 L -4.41 -1.142227 L -4.4 -1.141172 L -4.36 -1.137109 L -4.35 -1.136055 L -4.34 -1.135039 L -4.33 -1.133984 L -4.32 -1.132969 L -4.31 -1.131914 L -4.3 -1.130898 L -4.26 -1.12668 L -4.25 -1.125664 L -4.23 -1.123555 L -4.22 -1.122461 L -4.19 -1.119297 L -4.18 -1.118203 L -4.16 -1.116094 L -4.15 -1.115 L -4.14 -1.113945 L -4.12 -1.111758 L -4.11 -1.110703 L -4.03 -1.101953 L -4.02 -1.10082 L -4.01 -1.099727 L -4 -1.098594 L -3.99 -1.0975 L -3.98 -1.096367 L -3.97 -1.095273 L -3.95 -1.093008 L -3.94 -1.091914 L -3.88 -1.085117 L -3.87 -1.083945 L -3.85 -1.08168 L -3.84 -1.080508 L -3.83 -1.079375 L -3.81 -1.077031 L -3.8 -1.075898 L -3.74 -1.068867 L -3.73 -1.067656 L -3.71 -1.065313 L -3.7 -1.064102 L -3.69 -1.06293 L -3.68 -1.061719 L -3.67 -1.060547 L -3.59 -1.050859 L -3.58 -1.049609 L -3.57 -1.048398 L -3.56 -1.047148 L -3.55 -1.045937 L -3.53 -1.043438 L -3.52 -1.042227 L -3.48 -1.037227 L -3.47 -1.035938 L -3.45 -1.033438 L -3.44 -1.032148 L -3.43 -1.030898 L -3.42 -1.029609 L -3.41 -1.028359 L -3.35 -1.020625 L -3.34 -1.019297 L -3.33 -1.018008 L -3.32 -1.01668 L -3.31 -1.015391 L -3.3 -1.014063 L -3.29 -1.012773 L -3.24 -1.006133 L -3.23 -1.004766 L -3.22 -1.003437 L -3.21 -1.00207 L -3.2 -1.000742 L -3.19 -0.999375 L -3.18 -0.998047 L -3.14 -0.992578 L -3.13 -0.991172 L -3.11 -0.988437 L -3.1 -0.987031 L -3.09 -0.985664 L -3.02 -0.97582 L -3.01 -0.974375 L -3 -0.972969 L -2.97 -0.968633 L -2.96 -0.967227 L -2.95 -0.965742 L -2.92 -0.961406 L -2.91 -0.959922 L -2.9 -0.958477 L -2.84 -0.94957 L -2.83 -0.948047 L -2.82 -0.946563 L -2.8 -0.943516 L -2.79 -0.942031 L -2.77 -0.938984 L -2.76 -0.937422 L -2.74 -0.934375 L -2.72 -0.93125 L -2.71 -0.929727 L -2.69 -0.926602 L -2.68 -0.925 L -2.66 -0.921875 L -2.64 -0.918672 L -2.63 -0.917109 L -2.62 -0.915508 L -2.61 -0.913867 L -2.59 -0.910664 L -2.58 -0.909023 L -2.57 -0.907422 L -2.52 -0.899219 L -2.51 -0.897539 L -2.5 -0.895898 L -2.46 -0.88918 L -2.45 -0.887461 L -2.44 -0.885781 L -2.43 -0.884063 L -2.42 -0.882383 L -2.4 -0.878945 L -2.39 -0.877188 L -2.38 -0.875469 L -2.37 -0.873711 L -2.36 -0.871992 L -2.32 -0.864961 L -2.3 -0.861367 L -2.29 -0.859609 L -2.27 -0.856016 L -2.26 -0.85418 L -2.25 -0.852383 L -2.2 -0.843203 L -2.19 -0.841328 L -2.18 -0.839492 L -2.15 -0.833867 L -2.14 -0.831953 L -2.13 -0.830078 L -2.09 -0.822422 L -2.04 -0.812656 L -2.03 -0.810664 L -2.02 -0.808711 L -1.99 -0.802734 L -1.94 -0.792578 L -1.93 -0.790508 L -1.92 -0.788477 L -1.91 -0.786406 L -1.9 -0.784297 L -1.89 -0.782227 L -1.85 -0.773789 L -1.8 -0.763047 L -1.78 -0.758672 L -1.77 -0.756445 L -1.76 -0.754258 L -1.73 -0.747578 L -1.72 -0.745313 L -1.71 -0.743086 L -1.7 -0.74082 L -1.69 -0.738516 L -1.68 -0.73625 L -1.66 -0.731641 L -1.65 -0.729297 L -1.64 -0.726992 L -1.63 -0.724648 L -1.62 -0.722266 L -1.61 -0.719922 L -1.58 -0.712773 L -1.55 -0.705508 L -1.52 -0.698125 L -1.51 -0.695625 L -1.5 -0.693164 L -1.49 -0.690625 L -1.48 -0.688125 L -1.46 -0.683047 L -1.45 -0.680469 L -1.44 -0.67793 L -1.43 -0.675352 L -1.4 -0.6675 L -1.39 -0.664844 L -1.38 -0.662227 L -1.37 -0.659531 L -1.36 -0.656875 L -1.35 -0.65418 L -1.34 -0.651445 L -1.33 -0.64875 L -1.32 -0.645977 L -1.31 -0.643242 L -1.29 -0.637695 L -1.27 -0.63207 L -1.24 -0.623516 L -1.22 -0.617734 L -1.19 -0.608945 L -1.18 -0.605977 L -1.17 -0.602969 L -1.16 -0.6 L -1.13 -0.590859 L -1.11 -0.584688 L -1.09 -0.578438 L -1.07 -0.572109 L -1.05 -0.565703 L -1.03 -0.559219 L -1.02 -0.555938 L -0.99 -0.545977 L -0.98 -0.542578 L -0.97 -0.539219 L -0.94 -0.528906 L -0.93 -0.52543 L -0.92 -0.521914 L -0.9 -0.514805 L -0.88 -0.507617 L -0.87 -0.503984 L -0.85 -0.496641 L -0.84 -0.492891 L -0.83 -0.48918 L -0.81 -0.481602 L -0.8 -0.477773 L -0.79 -0.473906 L -0.77 -0.466094 L -0.76 -0.462148 L -0.75 -0.458164 L -0.74 -0.454141 L -0.72 -0.446016 L -0.7 -0.437734 L -0.69 -0.433555 L -0.68 -0.429336 L -0.67 -0.425078 L -0.66 -0.420781 L -0.65 -0.416445 L -0.63 -0.407695 L -0.62 -0.403242 L -0.61 -0.39875 L -0.6 -0.394219 L -0.59 -0.389648 L -0.58 -0.385039 L -0.57 -0.380391 L -0.56 -0.375703 L -0.55 -0.370977 L -0.53 -0.361367 L -0.52 -0.356484 L -0.51 -0.351562 L -0.49 -0.341563 L -0.48 -0.336484 L -0.46 -0.326172 L -0.45 -0.320937 L -0.44 -0.315625 L -0.43 -0.310273 L -0.42 -0.304883 L -0.41 -0.299414 L -0.4 -0.293906 L -0.39 -0.28832 L -0.38 -0.282656 L -0.37 -0.276953 L -0.36 -0.271172 L -0.35 -0.265312 L -0.34 -0.259414 L -0.33 -0.253398 L -0.32 -0.247344 L -0.31 -0.241211 L -0.3 -0.235 L -0.29 -0.228711 L -0.28 -0.222344 L -0.27 -0.215898 L -0.26 -0.209336 L -0.25 -0.202734 L -0.24 -0.196016 L -0.23 -0.189219 L -0.22 -0.182305 L -0.21 -0.175312 L -0.2 -0.168242 L -0.19 -0.161055 L -0.18 -0.15375 L -0.17 -0.146328 L -0.16 -0.138828 L -0.15 -0.131172 L -0.14 -0.123438 L -0.13 -0.115547 L -0.12 -0.107539 L -0.11 -0.0994141 L -0.1 -0.0911719 L -0.09 -0.0827734 L -0.08 -0.0742188 L -0.07 -0.0655078 L -0.06 -0.0566797 L -0.05 -0.0476563 L -0.04 -0.0384766 L -0.03 -0.0291406 L -0.02 -0.0196094 L -0.01 -0.00988281 L 0 0 L 0.01 0.00996094 L 0.02 0.0198047 L 0.03 0.0295703 L 0.04 0.0392187 L 0.05 0.0487891 L 0.06 0.0582813 L 0.07 0.0676562 L 0.08 0.0769531 L 0.09 0.0861719 L 0.1 0.0953125 L 0.11 0.104375 L 0.12 0.11332 L 0.13 0.122227 L 0.14 0.131016 L 0.15 0.139766 L 0.16 0.148438 L 0.17 0.156992 L 0.18 0.165508 L 0.19 0.173945 L 0.2 0.182305 L 0.21 0.190625 L 0.22 0.198867 L 0.23 0.207031 L 0.24 0.215117 L 0.25 0.223125 L 0.26 0.231094 L 0.27 0.239023 L 0.28 0.246875 L 0.29 0.254648 L 0.3 0.262383 L 0.31 0.270039 L 0.33 0.285195 L 0.35 0.300117 L 0.36 0.3075 L 0.37 0.314805 L 0.38 0.32207 L 0.39 0.329297 L 0.4 0.336484 L 0.41 0.343594 L 0.42 0.350664 L 0.44 0.364648 L 0.45 0.371563 L 0.46 0.378437 L 0.47 0.385273 L 0.49 0.398789 L 0.5 0.405469 L 0.51 0.412109 L 0.52 0.418711 L 0.53 0.425273 L 0.54 0.431797 L 0.56 0.444687 L 0.57 0.451094 L 0.59 0.46375 L 0.61 0.47625 L 0.63 0.488594 L 0.65 0.500781 L 0.66 0.506836 L 0.68 0.518789 L 0.69 0.524727 L 0.7 0.530625 L 0.72 0.542344 L 0.73 0.548125 L 0.75 0.559609 L 0.76 0.565312 L 0.77 0.570977 L 0.79 0.582227 L 0.81 0.59332 L 0.82 0.598828 L 0.84 0.609766 L 0.85 0.615195 L 0.86 0.620586 L 0.88 0.631289 L 0.91 0.647109 L 0.92 0.652344 L 0.93 0.657539 L 0.94 0.662695 L 0.97 0.678047 L 1 0.693164 L 1.03 0.708047 L 1.04 0.712969 L 1.05 0.717852 L 1.08 0.732383 L 1.09 0.737148 L 1.1 0.741953 L 1.13 0.756133 L 1.14 0.76082 L 1.16 0.770117 L 1.18 0.779336 L 1.2 0.788477 L 1.21 0.793008 L 1.24 0.806484 L 1.25 0.810937 L 1.28 0.82418 L 1.29 0.828555 L 1.3 0.832891 L 1.31 0.837266 L 1.34 0.850156 L 1.36 0.858672 L 1.38 0.867109 L 1.4 0.875469 L 1.43 0.887891 L 1.45 0.896094 L 1.47 0.904219 L 1.5 0.916289 L 1.52 0.924258 L 1.55 0.936094 L 1.57 0.943906 L 1.6 0.955508 L 1.63 0.966992 L 1.65 0.97457 L 1.68 0.98582 L 1.71 0.996953 L 1.74 1.007969 L 1.76 1.015234 L 1.77 1.018828 L 1.78 1.022461 L 1.79 1.026055 L 1.8 1.029609 L 1.81 1.033203 L 1.82 1.036719 L 1.83 1.040273 L 1.86 1.05082 L 1.9 1.064727 L 1.92 1.071602 L 1.96 1.085195 L 1.99 1.095273 L 2 1.098594 L 2.01 1.101953 L 2.02 1.105273 L 2.03 1.108555 L 2.04 1.111875 L 2.05 1.115156 L 2.06 1.118398 L 2.07 1.12168 L 2.1 1.131406 L 2.11 1.134609 L 2.12 1.137852 L 2.13 1.141016 L 2.15 1.147422 L 2.17 1.15375 L 2.18 1.156875 L 2.19 1.160039 L 2.21 1.166289 L 2.22 1.169375 L 2.23 1.1725 L 2.25 1.178672 L 2.26 1.181719 L 2.27 1.184805 L 2.29 1.190898 L 2.3 1.193906 L 2.31 1.196953 L 2.34 1.205977 L 2.35 1.208945 L 2.36 1.211953 L 2.38 1.217891 L 2.39 1.22082 L 2.4 1.223789 L 2.43 1.232578 L 2.48 1.247031 L 2.49 1.249883 L 2.5 1.252773 L 2.52 1.258477 L 2.53 1.261289 L 2.54 1.264141 L 2.57 1.272578 L 2.58 1.275352 L 2.59 1.278164 L 2.62 1.286484 L 2.63 1.289219 L 2.64 1.291992 L 2.68 1.30293 L 2.74 1.319102 L 2.79 1.332383 L 2.85 1.348086 L 2.91 1.363555 L 2.96 1.37625 L 2.97 1.37875 L 2.98 1.381289 L 3.02 1.391289 L 3.03 1.39375 L 3.04 1.39625 L 3.09 1.408555 L 3.1 1.410977 L 3.11 1.413438 L 3.15 1.423125 L 3.16 1.425508 L 3.17 1.42793 L 3.22 1.439844 L 3.23 1.442187 L 3.24 1.44457 L 3.3 1.458633 L 3.32 1.463242 L 3.33 1.465586 L 3.35 1.470195 L 3.36 1.472461 L 3.37 1.474766 L 3.38 1.477031 L 3.39 1.479336 L 3.44 1.490664 L 3.45 1.492891 L 3.46 1.495156 L 3.52 1.508516 L 3.53 1.510703 L 3.54 1.51293 L 3.56 1.517305 L 3.57 1.519531 L 3.58 1.52168 L 3.61 1.528242 L 3.63 1.532539 L 3.64 1.534727 L 3.67 1.541172 L 3.68 1.543281 L 3.7 1.547578 L 3.73 1.553906 L 3.74 1.556055 L 3.75 1.558164 L 3.76 1.560234 L 3.78 1.564453 L 3.79 1.566523 L 3.8 1.568633 L 3.86 1.581055 L 3.87 1.583086 L 3.88 1.585156 L 3.9 1.589219 L 3.91 1.591289 L 3.94 1.597383 L 3.95 1.599375 L 3.97 1.603438 L 3.99 1.607422 L 4 1.609453 L 4.04 1.617422 L 4.05 1.619375 L 4.07 1.623359 L 4.09 1.627266 L 4.1 1.629258 L 4.14 1.63707 L 4.15 1.638984 L 4.17 1.642891 L 4.19 1.646719 L 4.2 1.648672 L 4.25 1.658242 L 4.26 1.660117 L 4.28 1.663945 L 4.3 1.667695 L 4.31 1.669609 L 4.35 1.677109 L 4.36 1.678945 L 4.38 1.682695 L 4.39 1.684531 L 4.4 1.686406 L 4.42 1.690078 L 4.43 1.691953 L 4.47 1.699297 L 4.48 1.701094 L 4.5 1.704766 L 4.52 1.708359 L 4.53 1.710195 L 4.6 1.722773 L 4.61 1.724531 L 4.63 1.728125 L 4.65 1.731641 L 4.66 1.733437 L 4.72 1.743984 L 4.73 1.745703 L 4.75 1.749219 L 4.77 1.752656 L 4.78 1.754414 L 4.86 1.768164 L 4.87 1.769844 L 4.88 1.771562 L 4.89 1.773242 L 4.9 1.774961 L 4.92 1.77832 L 4.93 1.780039 L 4.98 1.788437 L 4.99 1.790078 L 5 1.791758 " transform="matrix(100,0,0,-100,500,200)"/>
<path style="fill:none;stroke-width:0.03;stroke-linecap:butt;stroke-linejoin:miter;stroke:rgb(87.058824%,29.803922%,71.764706%);stroke-opacity:0.5;stroke-miterlimit:10;" d="M -5 -0.761133 L -4.98 -0.760195 L -4.97 -0.759688 L -4.95 -0.75875 L -4.94 -0.758242 L -4.92 -0.757305 L -4.91 -0.756797 L -4.9 -0.756328 L -4.89 -0.75582 L -4.88 -0.755352 L -4.87 -0.754844 L -4.86 -0.754375 L -4.85 -0.753867 L -4.84 -0.753398 L -4.83 -0.752891 L -4.82 -0.752422 L -4.8 -0.751406 L -4.79 -0.750938 L -4.76 -0.749414 L -4.75 -0.748945 L -4.59 -0.74082 L -4.58 -0.740273 L -4.56 -0.739258 L -4.55 -0.738711 L -4.53 -0.737695 L -4.52 -0.737148 L -4.51 -0.736641 L -4.5 -0.736094 L -4.49 -0.735586 L -4.48 -0.735039 L -4.47 -0.734531 L -4.46 -0.733984 L -4.45 -0.733477 L -4.43 -0.732383 L -4.42 -0.731875 L -4.39 -0.730234 L -4.38 -0.729727 L -4.26 -0.723164 L -4.25 -0.722578 L -4.22 -0.720938 L -4.21 -0.720352 L -4.2 -0.719805 L -4.19 -0.719219 L -4.17 -0.718125 L -4.16 -0.717539 L -4.15 -0.716992 L -4.13 -0.71582 L -4.12 -0.715273 L -4.1 -0.714102 L -4.09 -0.713555 L -4.05 -0.711211 L -4.04 -0.710664 L -4 -0.70832 L -3.99 -0.707695 L -3.94 -0.704766 L -3.93 -0.704141 L -3.91 -0.702969 L -3.9 -0.702344 L -3.89 -0.701758 L -3.88 -0.701133 L -3.87 -0.700547 L -3.86 -0.699922 L -3.85 -0.699336 L -3.83 -0.698086 L -3.82 -0.6975 L -3.77 -0.694375 L -3.76 -0.693789 L -3.74 -0.692539 L -3.73 -0.691875 L -3.68 -0.68875 L -3.67 -0.688086 L -3.65 -0.686836 L -3.64 -0.686172 L -3.63 -0.685547 L -3.62 -0.684883 L -3.61 -0.684258 L -3.59 -0.68293 L -3.58 -0.682305 L -3.54 -0.679648 L -3.53 -0.679023 L -3.5 -0.677031 L -3.49 -0.676328 L -3.45 -0.673672 L -3.44 -0.672969 L -3.42 -0.671641 L -3.41 -0.670937 L -3.4 -0.670273 L -3.38 -0.668867 L -3.37 -0.668203 L -3.34 -0.666094 L -3.33 -0.66543 L -3.28 -0.661914 L -3.27 -0.661172 L -3.24 -0.659063 L -3.23 -0.65832 L -3.22 -0.657617 L -3.21 -0.656875 L -3.2 -0.656172 L -3.19 -0.65543 L -3.18 -0.654727 L -3.15 -0.6525 L -3.14 -0.651797 L -3.1 -0.648828 L -3.09 -0.648047 L -3.06 -0.64582 L -3.05 -0.645039 L -3.04 -0.644297 L -3.03 -0.643516 L -3.02 -0.642773 L -3.01 -0.641992 L -3 -0.64125 L -2.9 -0.633437 L -2.89 -0.632617 L -2.88 -0.631836 L -2.87 -0.631016 L -2.86 -0.630234 L -2.85 -0.629414 L -2.84 -0.628633 L -2.76 -0.62207 L -2.75 -0.621211 L -2.73 -0.61957 L -2.71 -0.617852 L -2.7 -0.617031 L -2.61 -0.609297 L -2.6 -0.608398 L -2.59 -0.607539 L -2.57 -0.605742 L -2.56 -0.604883 L -2.5 -0.599492 L -2.49 -0.598555 L -2.48 -0.597656 L -2.47 -0.596719 L -2.46 -0.59582 L -2.44 -0.593945 L -2.43 -0.593047 L -2.41 -0.591172 L -2.4 -0.590195 L -2.37 -0.587383 L -2.36 -0.586406 L -2.35 -0.585469 L -2.27 -0.577656 L -2.26 -0.576641 L -2.25 -0.575664 L -2.18 -0.568555 L -2.17 -0.5675 L -2.16 -0.566484 L -2.15 -0.56543 L -2.14 -0.564414 L -2.1 -0.560195 L -2.09 -0.559102 L -2.08 -0.558047 L -2.07 -0.556953 L -2.06 -0.555898 L -2.01 -0.55043 L -2 -0.549297 L -1.99 -0.548203 L -1.92 -0.540273 L -1.85 -0.53207 L -1.83 -0.529648 L -1.82 -0.528477 L -1.81 -0.527266 L -1.8 -0.526016 L -1.78 -0.523594 L -1.72 -0.516094 L -1.66 -0.508359 L -1.61 -0.501719 L -1.6 -0.500352 L -1.59 -0.499023 L -1.56 -0.494922 L -1.54 -0.492109 L -1.53 -0.490742 L -1.52 -0.489336 L -1.51 -0.487891 L -1.5 -0.486484 L -1.46 -0.480703 L -1.45 -0.479219 L -1.44 -0.477773 L -1.43 -0.476289 L -1.42 -0.474766 L -1.41 -0.473281 L -1.37 -0.467188 L -1.33 -0.460938 L -1.29 -0.454531 L -1.26 -0.449609 L -1.22 -0.442891 L -1.19 -0.437734 L -1.15 -0.430703 L -1.13 -0.427109 L -1.1 -0.421602 L -1.07 -0.415977 L -1.04 -0.410234 L -1.02 -0.406328 L -0.99 -0.400352 L -0.97 -0.396289 L -0.94 -0.390078 L -0.93 -0.387969 L -0.9 -0.381523 L -0.89 -0.379336 L -0.88 -0.377109 L -0.87 -0.374922 L -0.84 -0.368125 L -0.83 -0.36582 L -0.8 -0.358789 L -0.77 -0.351523 L -0.76 -0.349063 L -0.74 -0.344063 L -0.73 -0.341523 L -0.71 -0.336367 L -0.7 -0.33375 L -0.68 -0.328438 L -0.67 -0.325742 L -0.66 -0.323008 L -0.65 -0.320234 L -0.63 -0.314609 L -0.62 -0.311758 L -0.61 -0.308867 L -0.6 -0.305938 L -0.58 -0.3 L -0.56 -0.293906 L -0.54 -0.287656 L -0.52 -0.28125 L -0.51 -0.277969 L -0.5 -0.274648 L -0.49 -0.271289 L -0.48 -0.267891 L -0.47 -0.264453 L -0.45 -0.257422 L -0.43 -0.250156 L -0.42 -0.246445 L -0.41 -0.242695 L -0.4 -0.238867 L -0.39 -0.235 L -0.38 -0.231055 L -0.37 -0.22707 L -0.36 -0.223008 L -0.35 -0.218867 L -0.34 -0.214648 L -0.33 -0.210391 L -0.32 -0.206055 L -0.31 -0.201602 L -0.3 -0.197109 L -0.29 -0.192539 L -0.28 -0.187852 L -0.27 -0.183086 L -0.26 -0.178242 L -0.25 -0.173281 L -0.24 -0.168242 L -0.23 -0.163086 L -0.22 -0.157812 L -0.21 -0.152422 L -0.2 -0.146953 L -0.19 -0.141328 L -0.18 -0.135586 L -0.17 -0.129688 L -0.16 -0.123672 L -0.15 -0.1175 L -0.14 -0.111172 L -0.13 -0.104687 L -0.12 -0.0980078 L -0.11 -0.0911719 L -0.1 -0.0841016 L -0.09 -0.076875 L -0.08 -0.0694141 L -0.07 -0.0617187 L -0.06 -0.0537891 L -0.05 -0.0455859 L -0.04 -0.0371094 L -0.03 -0.0283203 L -0.02 -0.0192578 L -0.01 -0.00980469 L 0 0 L 0.01 0.00996094 L 0.02 0.0198047 L 0.03 0.0295703 L 0.04 0.0392187 L 0.05 0.0487891 L 0.06 0.0582813 L 0.07 0.0676562 L 0.08 0.0769531 L 0.09 0.0861719 L 0.1 0.0953125 L 0.11 0.104375 L 0.12 0.11332 L 0.13 0.122227 L 0.14 0.131016 L 0.15 0.139766 L 0.16 0.148438 L 0.17 0.156992 L 0.18 0.165508 L 0.19 0.173945 L 0.2 0.182305 L 0.21 0.190625 L 0.22 0.198867 L 0.23 0.207031 L 0.24 0.215117 L 0.25 0.223125 L 0.26 0.231094 L 0.27 0.239023 L 0.28 0.246875 L 0.29 0.254648 L 0.3 0.262383 L 0.31 0.270039 L 0.33 0.285195 L 0.35 0.300117 L 0.36 0.3075 L 0.37 0.314805 L 0.38 0.32207 L 0.39 0.329297 L 0.4 0.336484 L 0.41 0.343594 L 0.42 0.350664 L 0.44 0.364648 L 0.45 0.371563 L 0.46 0.378437 L 0.47 0.385273 L 0.49 0.398789 L 0.5 0.405469 L 0.51 0.412109 L 0.52 0.418711 L 0.53 0.425273 L 0.54 0.431797 L 0.56 0.444687 L 0.57 0.451094 L 0.59 0.46375 L 0.61 0.47625 L 0.63 0.488594 L 0.65 0.500781 L 0.66 0.506836 L 0.68 0.518789 L 0.69 0.524727 L 0.7 0.530625 L 0.72 0.542344 L 0.73 0.548125 L 0.75 0.559609 L 0.76 0.565312 L 0.77 0.570977 L 0.79 0.582227 L 0.81 0.59332 L 0.82 0.598828 L 0.84 0.609766 L 0.85 0.615195 L 0.86 0.620586 L 0.88 0.631289 L 0.91 0.647109 L 0.92 0.652344 L 0.93 0.657539 L 0.94 0.662695 L 0.97 0.678047 L 1 0.693164 L 1.03 0.708047 L 1.04 0.712969 L 1.05 0.717852 L 1.08 0.732383 L 1.09 0.737148 L 1.1 0.741953 L 1.13 0.756133 L 1.14 0.76082 L 1.16 0.770117 L 1.18 0.779336 L 1.2 0.788477 L 1.21 0.793008 L 1.24 0.806484 L 1.25 0.810937 L 1.28 0.82418 L 1.29 0.828555 L 1.3 0.832891 L 1.31 0.837266 L 1.34 0.850156 L 1.36 0.858672 L 1.38 0.867109 L 1.4 0.875469 L 1.43 0.887891 L 1.45 0.896094 L 1.47 0.904219 L 1.5 0.916289 L 1.52 0.924258 L 1.55 0.936094 L 1.57 0.943906 L 1.6 0.955508 L 1.63 0.966992 L 1.65 0.97457 L 1.68 0.98582 L 1.71 0.996953 L 1.74 1.007969 L 1.76 1.015234 L 1.77 1.018828 L 1.78 1.022461 L 1.79 1.026055 L 1.8 1.029609 L 1.81 1.033203 L 1.82 1.036719 L 1.83 1.040273 L 1.86 1.05082 L 1.9 1.064727 L 1.92 1.071602 L 1.96 1.085195 L 1.99 1.095273 L 2 1.098594 L 2.01 1.101953 L 2.02 1.105273 L 2.03 1.108555 L 2.04 1.111875 L 2.05 1.115156 L 2.06 1.118398 L 2.07 1.12168 L 2.1 1.131406 L 2.11 1.134609 L 2.12 1.137852 L 2.13 1.141016 L 2.15 1.147422 L 2.17 1.15375 L 2.18 1.156875 L 2.19 1.160039 L 2.21 1.166289 L 2.22 1.169375 L 2.23 1.1725 L 2.25 1.178672 L 2.26 1.181719 L 2.27 1.184805 L 2.29 1.190898 L 2.3 1.193906 L 2.31 1.196953 L 2.34 1.205977 L 2.35 1.208945 L 2.36 1.211953 L 2.38 1.217891 L 2.39 1.22082 L 2.4 1.223789 L 2.43 1.232578 L 2.48 1.247031 L 2.49 1.249883 L 2.5 1.252773 L 2.52 1.258477 L 2.53 1.261289 L 2.54 1.264141 L 2.57 1.272578 L 2.58 1.275352 L 2.59 1.278164 L 2.62 1.286484 L 2.63 1.289219 L 2.64 1.291992 L 2.68 1.30293 L 2.74 1.319102 L 2.79 1.332383 L 2.85 1.348086 L 2.91 1.363555 L 2.96 1.37625 L 2.97 1.37875 L 2.98 1.381289 L 3.02 1.391289 L 3.03 1.39375 L 3.04 1.39625 L 3.09 1.408555 L 3.1 1.410977 L 3.11 1.413438 L 3.15 1.423125 L 3.16 1.425508 L 3.17 1.42793 L 3.22 1.439844 L 3.23 1.442187 L 3.24 1.44457 L 3.3 1.458633 L 3.32 1.463242 L 3.33 1.465586 L 3.35 1.470195 L 3.36 1.472461 L 3.37 1.474766 L 3.38 1.477031 L 3.39 1.479336 L 3.44 1.490664 L 3.45 1.492891 L 3.46 1.495156 L 3.52 1.508516 L 3.53 1.510703 L 3.54 1.51293 L 3.56 1.517305 L 3.57 1.519531 L 3.58 1.52168 L 3.61 1.528242 L 3.63 1.532539 L 3.64 1.534727 L 3.67 1.541172 L 3.68 1.543281 L 3.7 1.547578 L 3.73 1.553906 L 3.74 1.556055 L 3.75 1.558164 L 3.76 1.560234 L 3.78 1.564453 L 3.79 1.566523 L 3.8 1.568633 L 3.86 1.581055 L 3.87 1.583086 L 3.88 1.585156 L 3.9 1.589219 L 3.91 1.591289 L 3.94 1.597383 L 3.95 1.599375 L 3.97 1.603438 L 3.99 1.607422 L 4 1.609453 L 4.04 1.617422 L 4.05 1.619375 L 4.07 1.623359 L 4.09 1.627266 L 4.1 1.629258 L 4.14 1.63707 L 4.15 1.638984 L 4.17 1.642891 L 4.19 1.646719 L 4.2 1.648672 L 4.25 1.658242 L 4.26 1.660117 L 4.28 1.663945 L 4.3 1.667695 L 4.31 1.669609 L 4.35 1.677109 L 4.36 1.678945 L 4.38 1.682695 L 4.39 1.684531 L 4.4 1.686406 L 4.42 1.690078 L 4.43 1.691953 L 4.47 1.699297 L 4.48 1.701094 L 4.5 1.704766 L 4.52 1.708359 L 4.53 1.710195 L 4.6 1.722773 L 4.61 1.724531 L 4.63 1.728125 L 4.65 1.731641 L 4.66 1.733437 L 4.72 1.743984 L 4.73 1.745703 L 4.75 1.749219 L 4.77 1.752656 L 4.78 1.754414 L 4.86 1.768164 L 4.87 1.769844 L 4.88 1.771562 L 4.89 1.773242 L 4.9 1.774961 L 4.92 1.77832 L 4.93 1.780039 L 4.98 1.788437 L 4.99 1.790078 L 5 1.791758 " transform="matrix(100,0,0,-100,500,200)"/>
<path style="fill:none;stroke-width:0.03;stroke-linecap:butt;stroke-linejoin:miter;stroke:rgb(87.058824%,29.803922%,71.764706%);stroke-opacity:0.25;stroke-miterlimit:10;" d="M -5 -0.46418 L -4.97 -0.463477 L -4.96 -0.463203 L -4.94 -0.462734 L -4.93 -0.462461 L -4.91 -0.461992 L -4.9 -0.461719 L -4.88 -0.46125 L -4.87 -0.460977 L -4.86 -0.460742 L -4.85 -0.460469 L -4.84 -0.460234 L -4.83 -0.459961 L -4.81 -0.459492 L -4.8 -0.459219 L -4.79 -0.458984 L -4.77 -0.458438 L -4.76 -0.458203 L -4.75 -0.45793 L -4.74 -0.457695 L -4.73 -0.457422 L -4.72 -0.457187 L -4.7 -0.456641 L -4.69 -0.456406 L -4.67 -0.455859 L -4.66 -0.455625 L -4.64 -0.455078 L -4.63 -0.454844 L -4.6 -0.454023 L -4.59 -0.453789 L -4.54 -0.452422 L -4.53 -0.452187 L -4.36 -0.447539 L -4.35 -0.447227 L -4.31 -0.446133 L -4.3 -0.44582 L -4.27 -0.445 L -4.26 -0.444688 L -4.24 -0.444141 L -4.23 -0.443828 L -4.21 -0.443281 L -4.2 -0.442969 L -4.19 -0.442695 L -4.18 -0.442383 L -4.16 -0.441836 L -4.15 -0.441523 L -4.14 -0.44125 L -4.13 -0.440937 L -4.12 -0.440664 L -4.1 -0.440039 L -4.09 -0.439766 L -4.08 -0.439453 L -4.07 -0.43918 L -4.05 -0.438555 L -4.04 -0.438281 L -4.02 -0.437656 L -4.01 -0.437383 L -3.97 -0.436133 L -3.96 -0.435859 L -3.79 -0.430547 L -3.78 -0.430195 L -3.75 -0.429258 L -3.74 -0.428906 L -3.71 -0.427969 L -3.7 -0.427617 L -3.69 -0.427305 L -3.68 -0.426953 L -3.66 -0.426328 L -3.65 -0.425977 L -3.64 -0.425664 L -3.63 -0.425312 L -3.62 -0.425 L -3.6 -0.424297 L -3.59 -0.423984 L -3.58 -0.423633 L -3.57 -0.42332 L -3.54 -0.422266 L -3.53 -0.421953 L -3.5 -0.420898 L -3.49 -0.420586 L -3.38 -0.416719 L -3.37 -0.416328 L -3.33 -0.414922 L -3.32 -0.414531 L -3.3 -0.413828 L -3.29 -0.413438 L -3.27 -0.412734 L -3.26 -0.412344 L -3.25 -0.411992 L -3.24 -0.411602 L -3.23 -0.41125 L -3.22 -0.410859 L -3.21 -0.410508 L -3.19 -0.409727 L -3.18 -0.409375 L -3.15 -0.408203 L -3.14 -0.407852 L -3.01 -0.402773 L -3 -0.402344 L -2.97 -0.401172 L -2.96 -0.400742 L -2.95 -0.400352 L -2.94 -0.399922 L -2.93 -0.399531 L -2.92 -0.399102 L -2.91 -0.398711 L -2.9 -0.398281 L -2.89 -0.397891 L -2.87 -0.397031 L -2.86 -0.396641 L -2.83 -0.395352 L -2.82 -0.394961 L -2.75 -0.391953 L -2.74 -0.391484 L -2.71 -0.390195 L -2.7 -0.389727 L -2.68 -0.388867 L -2.67 -0.388398 L -2.66 -0.387969 L -2.65 -0.3875 L -2.64 -0.38707 L -2.63 -0.386602 L -2.62 -0.386172 L -2.59 -0.384766 L -2.58 -0.384336 L -2.51 -0.381055 L -2.5 -0.380547 L -2.47 -0.379141 L -2.46 -0.378633 L -2.45 -0.378164 L -2.44 -0.377656 L -2.43 -0.377188 L -2.42 -0.37668 L -2.41 -0.376211 L -2.39 -0.375195 L -2.38 -0.374727 L -2.29 -0.370156 L -2.28 -0.369609 L -2.26 -0.368594 L -2.25 -0.368047 L -2.24 -0.367539 L -2.23 -0.366992 L -2.22 -0.366484 L -2.18 -0.364297 L -2.17 -0.363789 L -2.15 -0.362695 L -2.14 -0.362109 L -2.11 -0.360469 L -2.1 -0.359883 L -2.08 -0.358789 L -2.06 -0.357617 L -2.05 -0.35707 L -1.97 -0.352383 L -1.96 -0.351758 L -1.94 -0.350586 L -1.92 -0.349336 L -1.91 -0.34875 L -1.84 -0.344375 L -1.83 -0.343711 L -1.81 -0.342461 L -1.79 -0.341133 L -1.78 -0.340508 L -1.74 -0.337852 L -1.73 -0.337148 L -1.71 -0.33582 L -1.7 -0.335117 L -1.69 -0.334453 L -1.62 -0.329531 L -1.61 -0.328789 L -1.6 -0.328086 L -1.59 -0.327344 L -1.58 -0.326641 L -1.54 -0.323672 L -1.53 -0.322891 L -1.52 -0.322148 L -1.51 -0.321367 L -1.5 -0.320625 L -1.45 -0.316719 L -1.44 -0.315898 L -1.43 -0.315117 L -1.42 -0.314297 L -1.41 -0.313516 L -1.39 -0.311875 L -1.38 -0.311016 L -1.36 -0.309375 L -1.3 -0.304219 L -1.24 -0.298828 L -1.23 -0.297891 L -1.22 -0.296992 L -1.2 -0.295117 L -1.19 -0.294141 L -1.18 -0.293203 L -1.17 -0.292227 L -1.16 -0.291289 L -1.15 -0.290313 L -1.14 -0.289297 L -1.13 -0.28832 L -1.12 -0.287305 L -1.11 -0.286328 L -1.1 -0.285312 L -1.09 -0.284258 L -1.08 -0.283242 L -1.04 -0.279023 L -1.03 -0.27793 L -1.02 -0.276875 L -1.01 -0.275742 L -0.99 -0.273555 L -0.97 -0.271289 L -0.96 -0.270117 L -0.95 -0.268984 L -0.93 -0.266641 L -0.89 -0.261797 L -0.86 -0.258047 L -0.83 -0.25418 L -0.8 -0.250195 L -0.78 -0.247461 L -0.75 -0.243242 L -0.73 -0.240352 L -0.7 -0.235898 L -0.69 -0.234375 L -0.66 -0.229688 L -0.65 -0.228086 L -0.63 -0.224805 L -0.61 -0.221445 L -0.59 -0.218008 L -0.58 -0.21625 L -0.56 -0.212656 L -0.55 -0.210781 L -0.54 -0.208945 L -0.52 -0.205117 L -0.51 -0.203164 L -0.49 -0.19918 L -0.47 -0.195039 L -0.46 -0.19293 L -0.44 -0.188555 L -0.43 -0.186328 L -0.42 -0.184063 L -0.41 -0.181758 L -0.39 -0.176992 L -0.38 -0.174531 L -0.37 -0.172031 L -0.36 -0.169492 L -0.35 -0.166875 L -0.34 -0.164219 L -0.33 -0.161484 L -0.32 -0.158711 L -0.31 -0.155898 L -0.3 -0.152969 L -0.29 -0.15 L -0.28 -0.146953 L -0.27 -0.143828 L -0.26 -0.140625 L -0.25 -0.137344 L -0.24 -0.133945 L -0.23 -0.130469 L -0.22 -0.126914 L -0.21 -0.123242 L -0.2 -0.119453 L -0.19 -0.115547 L -0.18 -0.111484 L -0.17 -0.107344 L -0.16 -0.103008 L -0.15 -0.0985547 L -0.14 -0.0939453 L -0.13 -0.0891016 L -0.12 -0.0841016 L -0.11 -0.0789063 L -0.1 -0.0734766 L -0.09 -0.0677734 L -0.08 -0.0618359 L -0.07 -0.0555859 L -0.06 -0.0490234 L -0.05 -0.0420703 L -0.04 -0.0346875 L -0.03 -0.026875 L -0.02 -0.0185547 L -0.01 -0.00960938 L 0 0 L 0.01 0.00996094 L 0.02 0.0198047 L 0.03 0.0295703 L 0.04 0.0392187 L 0.05 0.0487891 L 0.06 0.0582813 L 0.07 0.0676562 L 0.08 0.0769531 L 0.09 0.0861719 L 0.1 0.0953125 L 0.11 0.104375 L 0.12 0.11332 L 0.13 0.122227 L 0.14 0.131016 L 0.15 0.139766 L 0.16 0.148438 L 0.17 0.156992 L 0.18 0.165508 L 0.19 0.173945 L 0.2 0.182305 L 0.21 0.190625 L 0.22 0.198867 L 0.23 0.207031 L 0.24 0.215117 L 0.25 0.223125 L 0.26 0.231094 L 0.27 0.239023 L 0.28 0.246875 L 0.29 0.254648 L 0.3 0.262383 L 0.31 0.270039 L 0.33 0.285195 L 0.35 0.300117 L 0.36 0.3075 L 0.37 0.314805 L 0.38 0.32207 L 0.39 0.329297 L 0.4 0.336484 L 0.41 0.343594 L 0.42 0.350664 L 0.44 0.364648 L 0.45 0.371563 L 0.46 0.378437 L 0.47 0.385273 L 0.49 0.398789 L 0.5 0.405469 L 0.51 0.412109 L 0.52 0.418711 L 0.53 0.425273 L 0.54 0.431797 L 0.56 0.444687 L 0.57 0.451094 L 0.59 0.46375 L 0.61 0.47625 L 0.63 0.488594 L 0.65 0.500781 L 0.66 0.506836 L 0.68 0.518789 L 0.69 0.524727 L 0.7 0.530625 L 0.72 0.542344 L 0.73 0.548125 L 0.75 0.559609 L 0.76 0.565312 L 0.77 0.570977 L 0.79 0.582227 L 0.81 0.59332 L 0.82 0.598828 L 0.84 0.609766 L 0.85 0.615195 L 0.86 0.620586 L 0.88 0.631289 L 0.91 0.647109 L 0.92 0.652344 L 0.93 0.657539 L 0.94 0.662695 L 0.97 0.678047 L 1 0.693164 L 1.03 0.708047 L 1.04 0.712969 L 1.05 0.717852 L 1.08 0.732383 L 1.09 0.737148 L 1.1 0.741953 L 1.13 0.756133 L 1.14 0.76082 L 1.16 0.770117 L 1.18 0.779336 L 1.2 0.788477 L 1.21 0.793008 L 1.24 0.806484 L 1.25 0.810937 L 1.28 0.82418 L 1.29 0.828555 L 1.3 0.832891 L 1.31 0.837266 L 1.34 0.850156 L 1.36 0.858672 L 1.38 0.867109 L 1.4 0.875469 L 1.43 0.887891 L 1.45 0.896094 L 1.47 0.904219 L 1.5 0.916289 L 1.52 0.924258 L 1.55 0.936094 L 1.57 0.943906 L 1.6 0.955508 L 1.63 0.966992 L 1.65 0.97457 L 1.68 0.98582 L 1.71 0.996953 L 1.74 1.007969 L 1.76 1.015234 L 1.77 1.018828 L 1.78 1.022461 L 1.79 1.026055 L 1.8 1.029609 L 1.81 1.033203 L 1.82 1.036719 L 1.83 1.040273 L 1.86 1.05082 L 1.9 1.064727 L 1.92 1.071602 L 1.96 1.085195 L 1.99 1.095273 L 2 1.098594 L 2.01 1.101953 L 2.02 1.105273 L 2.03 1.108555 L 2.04 1.111875 L 2.05 1.115156 L 2.06 1.118398 L 2.07 1.12168 L 2.1 1.131406 L 2.11 1.134609 L 2.12 1.137852 L 2.13 1.141016 L 2.15 1.147422 L 2.17 1.15375 L 2.18 1.156875 L 2.19 1.160039 L 2.21 1.166289 L 2.22 1.169375 L 2.23 1.1725 L 2.25 1.178672 L 2.26 1.181719 L 2.27 1.184805 L 2.29 1.190898 L 2.3 1.193906 L 2.31 1.196953 L 2.34 1.205977 L 2.35 1.208945 L 2.36 1.211953 L 2.38 1.217891 L 2.39 1.22082 L 2.4 1.223789 L 2.43 1.232578 L 2.48 1.247031 L 2.49 1.249883 L 2.5 1.252773 L 2.52 1.258477 L 2.53 1.261289 L 2.54 1.264141 L 2.57 1.272578 L 2.58 1.275352 L 2.59 1.278164 L 2.62 1.286484 L 2.63 1.289219 L 2.64 1.291992 L 2.68 1.30293 L 2.74 1.319102 L 2.79 1.332383 L 2.85 1.348086 L 2.91 1.363555 L 2.96 1.37625 L 2.97 1.37875 L 2.98 1.381289 L 3.02 1.391289 L 3.03 1.39375 L 3.04 1.39625 L 3.09 1.408555 L 3.1 1.410977 L 3.11 1.413438 L 3.15 1.423125 L 3.16 1.425508 L 3.17 1.42793 L 3.22 1.439844 L 3.23 1.442187 L 3.24 1.44457 L 3.3 1.458633 L 3.32 1.463242 L 3.33 1.465586 L 3.35 1.470195 L 3.36 1.472461 L 3.37 1.474766 L 3.38 1.477031 L 3.39 1.479336 L 3.44 1.490664 L 3.45 1.492891 L 3.46 1.495156 L 3.52 1.508516 L 3.53 1.510703 L 3.54 1.51293 L 3.56 1.517305 L 3.57 1.519531 L 3.58 1.52168 L 3.61 1.528242 L 3.63 1.532539 L 3.64 1.534727 L 3.67 1.541172 L 3.68 1.543281 L 3.7 1.547578 L 3.73 1.553906 L 3.74 1.556055 L 3.75 1.558164 L 3.76 1.560234 L 3.78 1.564453 L 3.79 1.566523 L 3.8 1.568633 L 3.86 1.581055 L 3.87 1.583086 L 3.88 1.585156 L 3.9 1.589219 L 3.91 1.591289 L 3.94 1.597383 L 3.95 1.599375 L 3.97 1.603438 L 3.99 1.607422 L 4 1.609453 L 4.04 1.617422 L 4.05 1.619375 L 4.07 1.623359 L 4.09 1.627266 L 4.1 1.629258 L 4.14 1.63707 L 4.15 1.638984 L 4.17 1.642891 L 4.19 1.646719 L 4.2 1.648672 L 4.25 1.658242 L 4.26 1.660117 L 4.28 1.663945 L 4.3 1.667695 L 4.31 1.669609 L 4.35 1.677109 L 4.36 1.678945 L 4.38 1.682695 L 4.39 1.684531 L 4.4 1.686406 L 4.42 1.690078 L 4.43 1.691953 L 4.47 1.699297 L 4.48 1.701094 L 4.5 1.704766 L 4.52 1.708359 L 4.53 1.710195 L 4.6 1.722773 L 4.61 1.724531 L 4.63 1.728125 L 4.65 1.731641 L 4.66 1.733437 L 4.72 1.743984 L 4.73 1.745703 L 4.75 1.749219 L 4.77 1.752656 L 4.78 1.754414 L 4.86 1.768164 L 4.87 1.769844 L 4.88 1.771562 L 4.89 1.773242 L 4.9 1.774961 L 4.92 1.77832 L 4.93 1.780039 L 4.98 1.788437 L 4.99 1.790078 L 5 1.791758 " transform="matrix(100,0,0,-100,500,200)"/>
</g>
</svg>
