<?xml version="1.0" encoding="UTF-8"?>
<svg xmlns="http://www.w3.org/2000/svg" xmlns:xlink="http://www.w3.org/1999/xlink" width="1000pt" height="600pt" viewBox="0 0 1000 600" version="1.1">
<g id="surface31">
<rect x="0" y="0" width="1000" height="600" style="fill:rgb(0%,0%,0%);fill-opacity:1;stroke:none;"/>
<path style="fill:none;stroke-width:0.01;stroke-linecap:butt;stroke-linejoin:miter;stroke:rgb(100%,100%,100%);stroke-opacity:0.5;stroke-miterlimit:10;" d="M -5 -3 L -5 3 " transform="matrix(100,0,0,-100,500,300)"/>
<path style="fill:none;stroke-width:0.01;stroke-linecap:butt;stroke-linejoin:miter;stroke:rgb(100%,100%,100%);stroke-opacity:0.5;stroke-miterlimit:10;" d="M -4 -3 L -4 3 " transform="matrix(100,0,0,-100,500,300)"/>
<path style="fill:none;stroke-width:0.01;stroke-linecap:butt;stroke-linejoin:miter;stroke:rgb(100%,100%,100%);stroke-opacity:0.5;stroke-miterlimit:10;" d="M -3 -3 L -3 3 " transform="matrix(100,0,0,-100,500,300)"/>
<path style="fill:none;stroke-width:0.01;stroke-linecap:butt;stroke-linejoin:miter;stroke:rgb(100%,100%,100%);stroke-opacity:0.5;stroke-miterlimit:10;" d="M -2 -3 L -2 3 " transform="matrix(100,0,0,-100,500,300)"/>
<path style="fill:none;stroke-width:0.01;stroke-linecap:butt;stroke-linejoin:miter;stroke:rgb(100%,100%,100%);stroke-opacity:0.5;stroke-miterlimit:10;" d="M -1 -3 L -1 3 " transform="matrix(100,0,0,-100,500,300)"/>
<path style="fill:none;stroke-width:0.01;stroke-linecap:butt;stroke-linejoin:miter;stroke:rgb(100%,100%,100%);stroke-opacity:1;stroke-miterlimit:10;" d="M 0 -3 L 0 3 " transform="matrix(100,0,0,-100,500,300)"/>
<path style="fill:none;stroke-width:0.01;stroke-linecap:butt;stroke-linejoin:miter;stroke:rgb(100%,100%,100%);stroke-opacity:0.5;stroke-miterlimit:10;" d="M 1 -3 L 1 3 " transform="matrix(100,0,0,-100,500,300)"/>
<path style="fill:none;stroke-width:0.01;stroke-linecap:butt;stroke-linejoin:miter;stroke:rgb(100%,100%,100%);stroke-opacity:0.5;stroke-miterlimit:10;" d="M 2 -3 L 2 3 " transform="matrix(100,0,0,-100,500,300)"/>
<path style="fill:none;stroke-width:0.01;stroke-linecap:butt;stroke-linejoin:miter;stroke:rgb(100%,100%,100%);stroke-opacity:0.5;stroke-miterlimit:10;" d="M 3 -3 L 3 3 " transform="matrix(100,0,0,-100,500,300)"/>
<path style="fill:none;stroke-width:0.01;stroke-linecap:butt;stroke-linejoin:miter;stroke:rgb(100%,100%,100%);stroke-opacity:0.5;stroke-miterlimit:10;" d="M 4 -3 L 4 3 " transform="matrix(100,0,0,-100,500,300)"/>
<path style="fill:none;stroke-width:0.01;stroke-linecap:butt;stroke-linejoin:miter;stroke:rgb(100%,100%,100%);stroke-opacity:0.5;stroke-miterlimit:10;" d="M 5 -3 L 5 3 " transform="matrix(100,0,0,-100,500,300)"/>
<path style="fill:none;stroke-width:0.005;stroke-linecap:butt;stroke-linejoin:miter;stroke:rgb(100%,100%,100%);stroke-opacity:0.25;stroke-miterlimit:10;" d="M -4.75 -3 L -4.75 3 " transform="matrix(100,0,0,-100,500,300)"/>
<path style="fill:none;stroke-width:0.005;stroke-linecap:butt;stroke-linejoin:miter;stroke:rgb(100%,100%,100%);stroke-opacity:0.25;stroke-miterlimit:10;" d="M -4.5 -3 L -4.5 3 " transform="matrix(100,0,0,-100,500,300)"/>
<path style="fill:none;stroke-width:0.005;stroke-linecap:butt;stroke-linejoin:miter;stroke:rgb(100%,100%,100%);stroke-opacity:0.25;stroke-miterlimit:10;" d="M -4.25 -3 L -4.25 3 " transform="matrix(100,0,0,-100,500,300)"/>
<path style="fill:none;stroke-width:0.005;stroke-linecap:butt;stroke-linejoin:miter;stroke:rgb(100%,100%,100%);stroke-opacity:0.25;stroke-miterlimit:10;" d="M -3.75 -3 L -3.75 3 " transform="matrix(100,0,0,-100,500,300)"/>
<path style="fill:none;stroke-width:0.005;stroke-linecap:butt;stroke-linejoin:miter;stroke:rgb(100%,100%,100%);stroke-opacity:0.25;stroke-miterlimit:10;" d="M -3.5 -3 L -3.5 3 " transform="matrix(100,0,0,-100,500,300)"/>
<path style="fill:none;stroke-width:0.005;stroke-linecap:butt;stroke-linejoin:miter;stroke:rgb(100%,100%,100%);stroke-opacity:0.25;stroke-miterlimit:10;" d="M -3.25 -3 L -3.25 3 " transform="matrix(100,0,0,-100,500,300)"/>
<path style="fill:none;stroke-width:0.005;stroke-linecap:butt;stroke-linejoin:miter;stroke:rgb(100%,100%,100%);stroke-opacity:0.25;stroke-miterlimit:10;" d="M -2.75 -3 L -2.75 3 " transform="matrix(100,0,0,-100,500,300)"/>
<path style="fill:none;stroke-width:0.005;stroke-linecap:butt;stroke-linejoin:miter;stroke:rgb(100%,100%,100%);stroke-opacity:0.25;stroke-miterlimit:10;" d="M -2.5 -3 L -2.5 3 " transform="matrix(100,0,0,-100,500,300)"/>
<path style="fill:none;stroke-width:0.005;stroke-linecap:butt;stroke-linejoin:miter;stroke:rgb(100%,100%,100%);stroke-opacity:0.25;stroke-miterlimit:10;" d="M -2.25 -3 L -2.25 3 " transform="matrix(100,0,0,-100,500,300)"/>
<path style="fill:none;stroke-width:0.005;stroke-linecap:butt;stroke-linejoin:miter;stroke:rgb(100%,100%,100%);stroke-opacity:0.25;stroke-miterlimit:10;" d="M -1.75 -3 L -1.75 3 " transform="matrix(100,0,0,-100,500,300)"/>
<path style="fill:none;stroke-width:0.005;stroke-linecap:butt;stroke-linejoin:miter;stroke:rgb(100%,100%,100%);stroke-opacity:0.25;stroke-miterlimit:10;" d="M -1.5 -3 L -1.5 3 " transform="matrix(100,0,0,-100,500,300)"/>
<path style="fill:none;stroke-width:0.005;stroke-linecap:butt;stroke-linejoin:miter;stroke:rgb(100%,100%,100%);stroke-opacity:0.25;stroke-miterlimit:10;" d="M -1.25 -3 L -1.25 3 " transform="matrix(100,0,0,-100,500,300)"/>
<path style="fill:none;stroke-width:0.005;stroke-linecap:butt;stroke-linejoin:miter;stroke:rgb(100%,100%,100%);stroke-opacity:0.25;stroke-miterlimit:10;" d="M -0.75 -3 L -0.75 3 " transform="matrix(100,0,0,-100,500,300)"/>
<path style="fill:none;stroke-width:0.005;stroke-linecap:butt;stroke-linejoin:miter;stroke:rgb(100%,100%,100%);stroke-opacity:0.25;stroke-miterlimit:10;" d="M -0.5 -3 L -0.5 3 " transform="matrix(100,0,0,-100,500,300)"/>
<path style="fill:none;stroke-width:0.005;stroke-linecap:butt;stroke-linejoin:miter;stroke:rgb(100%,100%,100%);stroke-opacity:0.25;stroke-miterlimit:10;" d="M -0.25 -3 L -0.25 3 " transform="matrix(100,0,0,-100,500,300)"/>
<path style="fill:none;stroke-width:0.005;stroke-linecap:butt;stroke-linejoin:miter;stroke:rgb(100%,100%,100%);stroke-opacity:0.25;stroke-miterlimit:10;" d="M 0.25 -3 L 0.25 3 " transform="matrix(100,0,0,-100,500,300)"/>
<path style="fill:none;stroke-width:0.005;stroke-linecap:butt;stroke-linejoin:miter;stroke:rgb(100%,100%,100%);stroke-opacity:0.25;stroke-miterlimit:10;" d="M 0.5 -3 L 0.5 3 " transform="matrix(100,0,0,-100,500,300)"/>
<path style="fill:none;stroke-width:0.005;stroke-linecap:butt;stroke-linejoin:miter;stroke:rgb(100%,100%,100%);stroke-opacity:0.25;stroke-miterlimit:10;" d="M 0.75 -3 L 0.75 3 " transform="matrix(100,0,0,-100,500,300)"/>
<path style="fill:none;stroke-width:0.005;stroke-linecap:butt;stroke-linejoin:miter;stroke:rgb(100%,100%,100%);stroke-opacity:0.25;stroke-miterlimit:10;" d="M 1.25 -3 L 1.25 3 " transform="matrix(100,0,0,-100,500,300)"/>
<path style="fill:none;stroke-width:0.005;stroke-linecap:butt;stroke-linejoin:miter;stroke:rgb(100%,100%,100%);stroke-opacity:0.25;stroke-miterlimit:10;" d="M 1.5 -3 L 1.5 3 " transform="matrix(100,0,0,-100,500,300)"/>
<path style="fill:none;stroke-width:0.005;stroke-linecap:butt;stroke-linejoin:miter;stroke:rgb(100%,100%,100%);stroke-opacity:0.25;stroke-miterlimit:10;" d="M 1.75 -3 L 1.75 3 " transform="matrix(100,0,0,-100,500,300)"/>
<path style="fill:none;stroke-width:0.005;stroke-linecap:butt;stroke-linejoin:miter;stroke:rgb(100%,100%,100%);stroke-opacity:0.25;stroke-miterlimit:10;" d="M 2.25 -3 L 2.25 3 " transform="matrix(100,0,0,-100,500,300)"/>
<path style="fill:none;stroke-width:0.005;stroke-linecap:butt;stroke-linejoin:miter;stroke:rgb(100%,100%,100%);stroke-opacity:0.25;stroke-miterlimit:10;" d="M 2.5 -3 L 2.5 3 " transform="matrix(100,0,0,-100,500,300)"/>
<path style="fill:none;stroke-width:0.005;stroke-linecap:butt;stroke-linejoin:miter;stroke:rgb(100%,100%,100%);stroke-opacity:0.25;stroke-miterlimit:10;" d="M 2.75 -3 L 2.75 3 " transform="matrix(100,0,0,-100,500,300)"/>
<path style="fill:none;stroke-width:0.005;stroke-linecap:butt;stroke-linejoin:miter;stroke:rgb(100%,100%,100%);stroke-opacity:0.25;stroke-miterlimit:10;" d="M 3.25 -3 L 3.25 3 " transform="matrix(100,0,0,-100,500,300)"/>
<path style="fill:none;stroke-width:0.005;stroke-linecap:butt;stroke-linejoin:miter;stroke:rgb(100%,100%,100%);stroke-opacity:0.25;stroke-miterlimit:10;" d="M 3.5 -3 L 3.5 3 " transform="matrix(100,0,0,-100,500,300)"/>
<path style="fill:none;stroke-width:0.005;stroke-linecap:butt;stroke-linejoin:miter;stroke:rgb(100%,100%,100%);stroke-opacity:0.25;stroke-miterlimit:10;" d="M 3.75 -3 L 3.75 3 " transform="matrix(100,0,0,-100,500,300)"/>
<path style="fill:none;stroke-width:0.005;stroke-linecap:butt;stroke-linejoin:miter;stroke:rgb(100%,100%,100%);stroke-opacity:0.25;stroke-miterlimit:10;" d="M 4.25 -3 L 4.25 3 " transform="matrix(100,0,0,-100,500,300)"/>
<path style="fill:none;stroke-width:0.005;stroke-linecap:butt;stroke-linejoin:miter;stroke:rgb(100%,100%,100%);stroke-opacity:0.25;stroke-miterlimit:10;" d="M 4.5 -3 L 4.5 3 " transform="matrix(100,0,0,-100,500,300)"/>
<path style="fill:none;stroke-width:0.005;stroke-linecap:butt;stroke-linejoin:miter;stroke:rgb(100%,100%,100%);stroke-opacity:0.25;stroke-miterlimit:10;" d="M 4.75 -3 L 4.75 3 " transform="matrix(100,0,0,-100,500,300)"/>
<path style="fill:none;stroke-width:0.01;stroke-linecap:butt;stroke-linejoin:miter;stroke:rgb(100%,100%,100%);stroke-opacity:0.5;stroke-miterlimit:10;" d="M -5 -3 L 5 -3 " transform="matrix(100,0,0,-100,500,300)"/>
<path style="fill:none;stroke-width:0.01;stroke-linecap:butt;stroke-linejoin:miter;stroke:rgb(100%,100%,100%);stroke-opacity:0.5;stroke-miterlimit:10;" d="M -5 -2 L 5 -2 " transform="matrix(100,0,0,-100,500,300)"/>
<path style="fill:none;stroke-width:0.01;stroke-linecap:butt;stroke-linejoin:miter;stroke:rgb(100%,100%,100%);stroke-opacity:0.5;stroke-miterlimit:10;" d="M -5 -1 L 5 -1 " transform="matrix(100,0,0,-100,500,300)"/>
<path style="fill:none;stroke-width:0.01;stroke-linecap:butt;stroke-linejoin:miter;stroke:rgb(100%,100%,100%);stroke-opacity:1;stroke-miterlimit:10;" d="M -5 0 L 5 0 " transform="matrix(100,0,0,-100,500,300)"/>
<path style="fill:none;stroke-width:0.01;stroke-linecap:butt;stroke-linejoin:miter;stroke:rgb(100%,100%,100%);stroke-opacity:0.5;stroke-miterlimit:10;" d="M -5 1 L 5 1 " transform="matrix(100,0,0,-100,500,300)"/>
<path style="fill:none;stroke-width:0.01;stroke-linecap:butt;stroke-linejoin:miter;stroke:rgb(100%,100%,100%);stroke-opacity:0.5;stroke-miterlimit:10;" d="M -5 2 L 5 2 " transform="matrix(100,0,0,-100,500,300)"/>
<path style="fill:none;stroke-width:0.01;stroke-linecap:butt;stroke-linejoin:miter;stroke:rgb(100%,100%,100%);stroke-opacity:0.5;stroke-miterlimit:10;" d="M -5 3 L 5 3 " transform="matrix(100,0,0,-100,500,300)"/>
<path style="fill:none;stroke-width:0.005;stroke-linecap:butt;stroke-linejoin:miter;stroke:rgb(100%,100%,100%);stroke-opacity:0.25;stroke-miterlimit:10;" d="M -5 -2.75 L 5 -2.75 " transform="matrix(100,0,0,-100,500,300)"/>
<path style="fill:none;stroke-width:0.005;stroke-linecap:butt;stroke-linejoin:miter;stroke:rgb(100%,100%,100%);stroke-opacity:0.25;stroke-miterlimit:10;" d="M -5 -2.5 L 5 -2.5 " transform="matrix(100,0,0,-100,500,300)"/>
<path style="fill:none;stroke-width:0.005;stroke-linecap:butt;stroke-linejoin:miter;stroke:rgb(100%,100%,100%);stroke-opacity:0.25;stroke-miterlimit:10;" d="M -5 -2.25 L 5 -2.25 " transform="matrix(100,0,0,-100,500,300)"/>
<path style="fill:none;stroke-width:0.005;stroke-linecap:butt;stroke-linejoin:miter;stroke:rgb(100%,100%,100%);stroke-opacity:0.25;stroke-miterlimit:10;" d="M -5 -1.75 L 5 -1.75 " transform="matrix(100,0,0,-100,500,300)"/>
<path style="fill:none;stroke-width:0.005;stroke-linecap:butt;stroke-linejoin:miter;stroke:rgb(100%,100%,100%);stroke-opacity:0.25;stroke-miterlimit:10;" d="M -5 -1.5 L 5 -1.5 " transform="matrix(100,0,0,-100,500,300)"/>
<path style="fill:none;stroke-width:0.005;stroke-linecap:butt;stroke-linejoin:miter;stroke:rgb(100%,100%,100%);stroke-opacity:0.25;stroke-miterlimit:10;" d="M -5 -1.25 L 5 -1.25 " transform="matrix(100,0,0,-100,500,300)"/>
<path style="fill:none;stroke-width:0.005;stroke-linecap:butt;stroke-linejoin:miter;stroke:rgb(100%,100%,100%);stroke-opacity:0.25;stroke-miterlimit:10;" d="M -5 -0.75 L 5 -0.75 " transform="matrix(100,0,0,-100,500,300)"/>
<path style="fill:none;stroke-width:0.005;stroke-linecap:butt;stroke-linejoin:miter;stroke:rgb(100%,100%,100%);stroke-opacity:0.25;stroke-miterlimit:10;" d="M -5 -0.5 L 5 -0.5 " transform="matrix(100,0,0,-100,500,300)"/>
<path style="fill:none;stroke-width:0.005;stroke-linecap:butt;stroke-linejoin:miter;stroke:rgb(100%,100%,100%);stroke-opacity:0.25;stroke-miterlimit:10;" d="M -5 -0.25 L 5 -0.25 " transform="matrix(100,0,0,-100,500,300)"/>
<path style="fill:none;stroke-width:0.005;stroke-linecap:butt;stroke-linejoin:miter;stroke:rgb(100%,100%,100%);stroke-opacity:0.25;stroke-miterlimit:10;" d="M -5 0.25 L 5 0.25 " transform="matrix(100,0,0,-100,500,300)"/>
<path style="fill:none;stroke-width:0.005;stroke-linecap:butt;stroke-linejoin:miter;stroke:rgb(100%,100%,100%);stroke-opacity:0.25;stroke-miterlimit:10;" d="M -5 0.5 L 5 0.5 " transform="matrix(100,0,0,-100,500,300)"/>
<path style="fill:none;stroke-width:0.005;stroke-linecap:butt;stroke-linejoin:miter;stroke:rgb(100%,100%,100%);stroke-opacity:0.25;stroke-miterlimit:10;" d="M -5 0.75 L 5 0.75 " transform="matrix(100,0,0,-100,500,300)"/>
<path style="fill:none;stroke-width:0.005;stroke-linecap:butt;stroke-linejoin:miter;stroke:rgb(100%,100%,100%);stroke-opacity:0.25;stroke-miterlimit:10;" d="M -5 1.25 L 5 1.25 " transform="matrix(100,0,0,-100,500,300)"/>
<path style="fill:none;stroke-width:0.005;stroke-linecap:butt;stroke-linejoin:miter;stroke:rgb(100%,100%,100%);stroke-opacity:0.25;stroke-miterlimit:10;" d="M -5 1.5 L 5 1.5 " transform="matrix(100,0,0,-100,500,300)"/>
<path style="fill:none;stroke-width:0.005;stroke-linecap:butt;stroke-linejoin:miter;stroke:rgb(100%,100%,100%);stroke-opacity:0.25;stroke-miterlimit:10;" d="M -5 1.75 L 5 1.75 " transform="matrix(100,0,0,-100,500,300)"/>
<path style="fill:none;stroke-width:0.005;stroke-linecap:butt;stroke-linejoin:miter;stroke:rgb(100%,100%,100%);stroke-opacity:0.25;stroke-miterlimit:10;" d="M -5 2.25 L 5 2.25 " transform="matrix(100,0,0,-100,500,300)"/>
<path style="fill:none;stroke-width:0.005;stroke-linecap:butt;stroke-linejoin:miter;stroke:rgb(100%,100%,100%);stroke-opacity:0.25;stroke-miterlimit:10;" d="M -5 2.5 L 5 2.5 " transform="matrix(100,0,0,-100,500,300)"/>
<path style="fill:none;stroke-width:0.005;stroke-linecap:butt;stroke-linejoin:miter;stroke:rgb(100%,100%,100%);stroke-opacity:0.25;stroke-miterlimit:10;" d="M -5 2.75 L 5 2.75 " transform="matrix(100,0,0,-100,500,300)"/>
<path style="fill:none;stroke-width:0.03;stroke-linecap:butt;stroke-linejoin:miter;stroke:rgb(87.058824%,29.803922%,71.764706%);stroke-opacity:1;stroke-miterlimit:10;" d="M -5 -1.126992 L -4.98 -1.127227 L -4.97 -1.127383 L -4.95 -1.127617 L -4.94 -1.127773 L -4.93 -1.127891 L -4.92 -1.128047 L -4.9 -1.128281 L -4.89 -1.128438 L -4.87 -1.128672 L -4.86 -1.128828 L -4.84 -1.129062 L -4.83 -1.129219 L -4.81 -1.129453 L -4.8 -1.129609 L -4.79 -1.129727 L -4.78 -1.129883 L -4.76 -1.130117 L -4.75 -1.130273 L -4.74 -1.130391 L -4.73 -1.130547 L -4.71 -1.130781 L -4.7 -1.130937 L -4.69 -1.131055 L -4.68 -1.131211 L -4.66 -1.131445 L -4.65 -1.131602 L -4.64 -1.131719 L -4.63 -1.131875 L -4.61 -1.132109 L -4.6 -1.132266 L -4.59 -1.132383 L -4.58 -1.132539 L -4.56 -1.132773 L -4.55 -1.13293 L -4.54 -1.133047 L -4.53 -1.133203 L -4.51 -1.133438 L -4.5 -1.133594 L -4.49 -1.133711 L -4.48 -1.133867 L -4.46 -1.134102 L -4.45 -1.134258 L -4.44 -1.134375 L -4.43 -1.134531 L -4.42 -1.134648 L -4.41 -1.134805 L -4.39 -1.135039 L -4.38 -1.135195 L -4.37 -1.135313 L -4.36 -1.135469 L -4.34 -1.135703 L -4.33 -1.135859 L -4.32 -1.135977 L -4.31 -1.136133 L -4.29 -1.136367 L -4.28 -1.136523 L -4.27 -1.136641 L -4.26 -1.136797 L -4.24 -1.137031 L -4.23 -1.137188 L -4.22 -1.137305 L -4.21 -1.137461 L -4.19 -1.137695 L -4.18 -1.137852 L -4.16 -1.138086 L -4.15 -1.138242 L -4.14 -1.138359 L -4.13 -1.138516 L -4.11 -1.13875 L -4.1 -1.138906 L -4.08 -1.139141 L -4.07 -1.139297 L -4.05 -1.139531 L -4.04 -1.139687 L -4.01 -1.140039 L -4 -1.140195 L -3.98 -1.14043 L -3.97 -1.140586 L -3.94 -1.140937 L -3.93 -1.141094 L -3.9 -1.141445 L -3.89 -1.141602 L -3.86 -1.141953 L -3.85 -1.142109 L -3.8 -1.142695 L -3.79 -1.142852 L -3.69 -1.144023 L -3.68 -1.14418 L -3.64 -1.144648 L -3.63 -1.144727 L -3.54 -1.145781 L -3.53 -1.145859 L -3.5 -1.146211 L -3.49 -1.146289 L -3.46 -1.146641 L -3.45 -1.146719 L -3.43 -1.146953 L -3.42 -1.147031 L -3.41 -1.147148 L -3.4 -1.147227 L -3.39 -1.147344 L -3.38 -1.147422 L -3.37 -1.147539 L -3.36 -1.147617 L -3.35 -1.147734 L -3.34 -1.147812 L -3.33 -1.14793 L -3.31 -1.148086 L -3.3 -1.148203 L -3.28 -1.148359 L -3.27 -1.148477 L -3.23 -1.148789 L -3.22 -1.148906 L -3.15 -1.149453 L -3.14 -1.149492 L -3.1 -1.149805 L -3.09 -1.149844 L -3.08 -1.149922 L -3.07 -1.149961 L -3.05 -1.150117 L -3.04 -1.150156 L -3.03 -1.150234 L -3.01 -1.150313 L -3 -1.150391 L -2.96 -1.150547 L -2.95 -1.150625 L -2.92 -1.150742 L -2.91 -1.150742 L -2.87 -1.150898 L -2.86 -1.150898 L -2.85 -1.150938 L -2.84 -1.150938 L -2.83 -1.150977 L -2.81 -1.150977 L -2.8 -1.151016 L -2.72 -1.151016 L -2.71 -1.150977 L -2.69 -1.150977 L -2.67 -1.150898 L -2.66 -1.150898 L -2.59 -1.150625 L -2.58 -1.150547 L -2.57 -1.150508 L -2.56 -1.15043 L -2.55 -1.150391 L -2.49 -1.149922 L -2.48 -1.149805 L -2.47 -1.149727 L -2.46 -1.149609 L -2.45 -1.149531 L -2.4 -1.148945 L -2.39 -1.148789 L -2.38 -1.148672 L -2.37 -1.148516 L -2.36 -1.148398 L -2.33 -1.14793 L -2.32 -1.147734 L -2.31 -1.147578 L -2.3 -1.147383 L -2.29 -1.147227 L -2.27 -1.146836 L -2.26 -1.146602 L -2.24 -1.146211 L -2.19 -1.145039 L -2.18 -1.144766 L -2.17 -1.144531 L -2.14 -1.143711 L -2.12 -1.143086 L -2.11 -1.142812 L -2.1 -1.1425 L -2.09 -1.142148 L -2.08 -1.141836 L -2.07 -1.141484 L -2.06 -1.141172 L -2.05 -1.140781 L -2.03 -1.140078 L -2 -1.138906 L -1.95 -1.136758 L -1.93 -1.13582 L -1.92 -1.135313 L -1.91 -1.134844 L -1.89 -1.133828 L -1.85 -1.131641 L -1.83 -1.130469 L -1.82 -1.129844 L -1.81 -1.129258 L -1.8 -1.128633 L -1.76 -1.125977 L -1.75 -1.125273 L -1.74 -1.124531 L -1.73 -1.123828 L -1.72 -1.123086 L -1.69 -1.120742 L -1.67 -1.119102 L -1.65 -1.117383 L -1.62 -1.114688 L -1.61 -1.11375 L -1.58 -1.11082 L -1.57 -1.109805 L -1.55 -1.107695 L -1.53 -1.105508 L -1.52 -1.104375 L -1.49 -1.100859 L -1.46 -1.097109 L -1.43 -1.093125 L -1.4 -1.088906 L -1.38 -1.085938 L -1.37 -1.084414 L -1.36 -1.082852 L -1.34 -1.079648 L -1.32 -1.076289 L -1.31 -1.07457 L -1.3 -1.072813 L -1.29 -1.071016 L -1.27 -1.067344 L -1.26 -1.06543 L -1.24 -1.061523 L -1.23 -1.059492 L -1.21 -1.055352 L -1.2 -1.053203 L -1.19 -1.051016 L -1.18 -1.048789 L -1.16 -1.04418 L -1.14 -1.039414 L -1.12 -1.034414 L -1.1 -1.029258 L -1.08 -1.023867 L -1.06 -1.018242 L -1.05 -1.015352 L -1.04 -1.012383 L -1.03 -1.009375 L -1.02 -1.006328 L -1.01 -1.003203 L -1 -1 L -0.99 -0.996758 L -0.97 -0.990039 L -0.96 -0.986563 L -0.95 -0.983047 L -0.94 -0.979453 L -0.92 -0.972031 L -0.91 -0.968203 L -0.9 -0.964297 L -0.89 -0.960313 L -0.88 -0.95625 L -0.87 -0.952109 L -0.86 -0.947852 L -0.85 -0.943555 L -0.84 -0.939141 L -0.83 -0.934648 L -0.82 -0.930078 L -0.81 -0.925391 L -0.8 -0.920625 L -0.79 -0.915781 L -0.78 -0.91082 L -0.77 -0.905742 L -0.76 -0.900547 L -0.75 -0.895273 L -0.74 -0.889922 L -0.73 -0.884414 L -0.72 -0.878828 L -0.71 -0.873086 L -0.7 -0.867266 L -0.69 -0.861289 L -0.68 -0.855234 L -0.67 -0.849023 L -0.66 -0.842695 L -0.65 -0.83625 L -0.64 -0.829687 L -0.63 -0.822969 L -0.62 -0.816094 L -0.61 -0.809102 L -0.6 -0.801992 L -0.59 -0.794688 L -0.58 -0.787266 L -0.57 -0.779688 L -0.56 -0.771992 L -0.55 -0.764102 L -0.54 -0.756055 L -0.53 -0.747852 L -0.52 -0.739453 L -0.51 -0.730938 L -0.5 -0.722227 L -0.49 -0.71332 L -0.48 -0.704258 L -0.47 -0.695039 L -0.46 -0.685625 L -0.45 -0.675977 L -0.44 -0.666172 L -0.43 -0.656211 L -0.42 -0.646016 L -0.41 -0.635586 L -0.4 -0.625 L -0.39 -0.61418 L -0.38 -0.603164 L -0.37 -0.591953 L -0.36 -0.580508 L -0.35 -0.568828 L -0.34 -0.556914 L -0.33 -0.544805 L -0.32 -0.532461 L -0.31 -0.519883 L -0.3 -0.507031 L -0.29 -0.493984 L -0.28 -0.480664 L -0.27 -0.467109 L -0.26 -0.45332 L -0.25 -0.439258 L -0.24 -0.424922 L -0.23 -0.410352 L -0.22 -0.395547 L -0.21 -0.38043 L -0.2 -0.365078 L -0.19 -0.349453 L -0.18 -0.333555 L -0.17 -0.317383 L -0.16 -0.300937 L -0.15 -0.284219 L -0.14 -0.267227 L -0.13 -0.249922 L -0.12 -0.232383 L -0.11 -0.214531 L -0.1 -0.196445 L -0.09 -0.178047 L -0.08 -0.159375 L -0.07 -0.140391 L -0.06 -0.121172 L -0.05 -0.101641 L -0.04 -0.081875 L -0.03 -0.0617969 L -0.02 -0.0414844 L -0.01 -0.0208594 L 0.01 0.0208594 L 0.02 0.0414844 L 0.03 0.0617969 L 0.04 0.081875 L 0.05 0.101641 L 0.06 0.121172 L 0.07 0.140391 L 0.08 0.159375 L 0.09 0.178047 L 0.1 0.196445 L 0.11 0.214531 L 0.12 0.232383 L 0.13 0.249922 L 0.14 0.267227 L 0.15 0.284219 L 0.16 0.300937 L 0.17 0.317383 L 0.18 0.333555 L 0.19 0.349453 L 0.2 0.365078 L 0.21 0.38043 L 0.22 0.395547 L 0.23 0.410352 L 0.24 0.424922 L 0.25 0.439258 L 0.26 0.45332 L 0.27 0.467109 L 0.28 0.480664 L 0.29 0.493984 L 0.3 0.507031 L 0.31 0.519883 L 0.32 0.532461 L 0.33 0.544805 L 0.34 0.556914 L 0.35 0.568828 L 0.36 0.580508 L 0.37 0.591953 L 0.38 0.603164 L 0.39 0.61418 L 0.4 0.625 L 0.41 0.635586 L 0.42 0.646016 L 0.43 0.656211 L 0.44 0.666172 L 0.45 0.675977 L 0.46 0.685625 L 0.47 0.695039 L 0.48 0.704258 L 0.49 0.71332 L 0.5 0.722227 L 0.51 0.730938 L 0.52 0.739453 L 0.53 0.747852 L 0.54 0.756055 L 0.55 0.764102 L 0.56 0.771992 L 0.57 0.779688 L 0.58 0.787266 L 0.59 0.794687 L 0.6 0.801992 L 0.61 0.809102 L 0.62 0.816094 L 0.63 0.822969 L 0.64 0.829687 L 0.65 0.83625 L 0.66 0.842695 L 0.67 0.849023 L 0.68 0.855234 L 0.69 0.861289 L 0.7 0.867266 L 0.71 0.873086 L 0.72 0.878828 L 0.73 0.884414 L 0.74 0.889922 L 0.75 0.895273 L 0.76 0.900547 L 0.77 0.905742 L 0.78 0.91082 L 0.79 0.915781 L 0.8 0.920625 L 0.81 0.925391 L 0.82 0.930078 L 0.83 0.934648 L 0.84 0.939141 L 0.85 0.943555 L 0.86 0.947852 L 0.87 0.952109 L 0.88 0.95625 L 0.89 0.960313 L 0.9 0.964297 L 0.91 0.968203 L 0.92 0.972031 L 0.94 0.979453 L 0.95 0.983047 L 0.96 0.986562 L 0.97 0.990039 L 0.99 0.996758 L 1 1 L 1.01 1.003203 L 1.02 1.006328 L 1.03 1.009375 L 1.04 1.012383 L 1.05 1.015352 L 1.06 1.018242 L 1.08 1.023867 L 1.1 1.029258 L 1.12 1.034414 L 1.14 1.039414 L 1.16 1.04418 L 1.18 1.048789 L 1.19 1.051016 L 1.2 1.053203 L 1.21 1.055352 L 1.23 1.059492 L 1.24 1.061523 L 1.26 1.06543 L 1.27 1.067344 L 1.29 1.071016 L 1.3 1.072812 L 1.31 1.07457 L 1.32 1.076289 L 1.34 1.079648 L 1.36 1.082852 L 1.37 1.084414 L 1.38 1.085938 L 1.4 1.088906 L 1.43 1.093125 L 1.46 1.097109 L 1.49 1.100859 L 1.52 1.104375 L 1.53 1.105508 L 1.55 1.107695 L 1.57 1.109805 L 1.58 1.11082 L 1.61 1.11375 L 1.62 1.114688 L 1.65 1.117383 L 1.67 1.119102 L 1.69 1.120742 L 1.72 1.123086 L 1.73 1.123828 L 1.74 1.124531 L 1.75 1.125273 L 1.76 1.125977 L 1.8 1.128633 L 1.81 1.129258 L 1.82 1.129844 L 1.83 1.130469 L 1.85 1.131641 L 1.89 1.133828 L 1.91 1.134844 L 1.92 1.135312 L 1.93 1.13582 L 1.95 1.136758 L 2 1.138906 L 2.03 1.140078 L 2.05 1.140781 L 2.06 1.141172 L 2.07 1.141484 L 2.08 1.141836 L 2.09 1.142148 L 2.1 1.1425 L 2.11 1.142813 L 2.12 1.143086 L 2.14 1.143711 L 2.17 1.144531 L 2.18 1.144766 L 2.19 1.145039 L 2.24 1.146211 L 2.26 1.146602 L 2.27 1.146836 L 2.29 1.147227 L 2.3 1.147383 L 2.31 1.147578 L 2.32 1.147734 L 2.33 1.14793 L 2.36 1.148398 L 2.37 1.148516 L 2.38 1.148672 L 2.39 1.148789 L 2.4 1.148945 L 2.45 1.149531 L 2.46 1.149609 L 2.47 1.149727 L 2.48 1.149805 L 2.49 1.149922 L 2.55 1.150391 L 2.56 1.15043 L 2.57 1.150508 L 2.58 1.150547 L 2.59 1.150625 L 2.66 1.150898 L 2.67 1.150898 L 2.69 1.150977 L 2.71 1.150977 L 2.72 1.151016 L 2.8 1.151016 L 2.81 1.150977 L 2.83 1.150977 L 2.84 1.150937 L 2.85 1.150937 L 2.86 1.150898 L 2.87 1.150898 L 2.91 1.150742 L 2.92 1.150742 L 2.95 1.150625 L 2.96 1.150547 L 3 1.150391 L 3.01 1.150313 L 3.03 1.150234 L 3.04 1.150156 L 3.05 1.150117 L 3.07 1.149961 L 3.08 1.149922 L 3.09 1.149844 L 3.1 1.149805 L 3.14 1.149492 L 3.15 1.149453 L 3.22 1.148906 L 3.23 1.148789 L 3.27 1.148477 L 3.28 1.148359 L 3.3 1.148203 L 3.31 1.148086 L 3.33 1.14793 L 3.34 1.147812 L 3.35 1.147734 L 3.36 1.147617 L 3.37 1.147539 L 3.38 1.147422 L 3.39 1.147344 L 3.4 1.147227 L 3.41 1.147148 L 3.42 1.147031 L 3.43 1.146953 L 3.45 1.146719 L 3.46 1.146641 L 3.49 1.146289 L 3.5 1.146211 L 3.53 1.145859 L 3.54 1.145781 L 3.63 1.144727 L 3.64 1.144648 L 3.68 1.14418 L 3.69 1.144023 L 3.79 1.142852 L 3.8 1.142695 L 3.85 1.142109 L 3.86 1.141953 L 3.89 1.141602 L 3.9 1.141445 L 3.93 1.141094 L 3.94 1.140937 L 3.97 1.140586 L 3.98 1.14043 L 4 1.140195 L 4.01 1.140039 L 4.04 1.139687 L 4.05 1.139531 L 4.07 1.139297 L 4.08 1.139141 L 4.1 1.138906 L 4.11 1.13875 L 4.13 1.138516 L 4.14 1.138359 L 4.15 1.138242 L 4.16 1.138086 L 4.18 1.137852 L 4.19 1.137695 L 4.21 1.137461 L 4.22 1.137305 L 4.23 1.137188 L 4.24 1.137031 L 4.26 1.136797 L 4.27 1.136641 L 4.28 1.136523 L 4.29 1.136367 L 4.31 1.136133 L 4.32 1.135977 L 4.33 1.135859 L 4.34 1.135703 L 4.36 1.135469 L 4.37 1.135312 L 4.38 1.135195 L 4.39 1.135039 L 4.41 1.134805 L 4.42 1.134648 L 4.43 1.134531 L 4.44 1.134375 L 4.45 1.134258 L 4.46 1.134102 L 4.48 1.133867 L 4.49 1.133711 L 4.5 1.133594 L 4.51 1.133437 L 4.53 1.133203 L 4.54 1.133047 L 4.55 1.13293 L 4.56 1.132773 L 4.58 1.132539 L 4.59 1.132383 L 4.6 1.132266 L 4.61 1.132109 L 4.63 1.131875 L 4.64 1.131719 L 4.65 1.131602 L 4.66 1.131445 L 4.68 1.131211 L 4.69 1.131055 L 4.7 1.130937 L 4.71 1.130781 L 4.73 1.130547 L 4.74 1.130391 L 4.75 1.130273 L 4.76 1.130117 L 4.78 1.129883 L 4.79 1.129727 L 4.8 1.129609 L 4.81 1.129453 L 4.83 1.129219 L 4.84 1.129062 L 4.86 1.128828 L 4.87 1.128672 L 4.89 1.128437 L 4.9 1.128281 L 4.92 1.128047 L 4.93 1.127891 L 4.94 1.127773 L 4.95 1.127617 L 4.97 1.127383 L 4.98 1.127227 L 5 1.126992 " transform="matrix(100,0,0,-100,500,300)"/>
<path style="fill:none;stroke-width:0.03;stroke-linecap:butt;stroke-linejoin:miter;stroke:rgb(87.058824%,29.803922%,71.764706%);stroke-opacity:0.8;stroke-miterlimit:10;" d="M -5 -1.150938 L -4.96 -1.151719 L -4.95 -1.151953 L -4.89 -1.153125 L -4.88 -1.153359 L -4.84 -1.154141 L -4.83 -1.154375 L -4.8 -1.154961 L -4.79 -1.155195 L -4.76 -1.155781 L -4.75 -1.156016 L -4.73 -1.156406 L -4.72 -1.156641 L -4.7 -1.157031 L -4.69 -1.157266 L -4.67 -1.157656 L -4.66 -1.157891 L -4.65 -1.158086 L -4.64 -1.15832 L -4.62 -1.158711 L -4.61 -1.158945 L -4.6 -1.159141 L -4.59 -1.159375 L -4.58 -1.15957 L -4.57 -1.159805 L -4.56 -1.16 L -4.55 -1.160234 L -4.54 -1.16043 L -4.53 -1.160664 L -4.52 -1.160859 L -4.51 -1.161094 L -4.5 -1.161289 L -4.49 -1.161523 L -4.48 -1.161719 L -4.47 -1.161953 L -4.46 -1.162148 L -4.45 -1.162383 L -4.44 -1.162578 L -4.43 -1.162813 L -4.42 -1.163008 L -4.4 -1.163477 L -4.39 -1.163672 L -4.38 -1.163906 L -4.37 -1.164102 L -4.35 -1.16457 L -4.34 -1.164766 L -4.32 -1.165234 L -4.31 -1.16543 L -4.29 -1.165898 L -4.28 -1.166094 L -4.26 -1.166563 L -4.25 -1.166758 L -4.22 -1.167461 L -4.21 -1.167656 L -4.19 -1.168125 L -4.18 -1.16832 L -4.14 -1.169258 L -4.13 -1.169453 L -4.1 -1.170156 L -4.09 -1.170352 L -4.05 -1.171289 L -4.04 -1.171484 L -3.99 -1.172656 L -3.98 -1.172852 L -3.92 -1.174258 L -3.91 -1.174453 L -3.85 -1.175859 L -3.84 -1.176055 L -3.77 -1.177695 L -3.76 -1.177891 L -3.7 -1.179297 L -3.69 -1.179492 L -3.63 -1.180898 L -3.62 -1.181094 L -3.58 -1.182031 L -3.57 -1.182227 L -3.53 -1.183164 L -3.52 -1.183359 L -3.49 -1.184063 L -3.48 -1.184258 L -3.46 -1.184727 L -3.45 -1.184922 L -3.42 -1.185625 L -3.41 -1.18582 L -3.4 -1.186055 L -3.39 -1.18625 L -3.37 -1.186719 L -3.36 -1.186914 L -3.35 -1.187148 L -3.34 -1.187344 L -3.33 -1.187578 L -3.32 -1.187773 L -3.31 -1.188008 L -3.3 -1.188203 L -3.29 -1.188438 L -3.28 -1.188633 L -3.27 -1.188867 L -3.25 -1.189258 L -3.24 -1.189492 L -3.22 -1.189883 L -3.21 -1.190117 L -3.18 -1.190703 L -3.17 -1.190938 L -3.06 -1.193086 L -3.05 -1.193242 L -3.02 -1.193828 L -3.01 -1.193984 L -3 -1.19418 L -2.99 -1.194336 L -2.98 -1.194531 L -2.97 -1.194687 L -2.96 -1.194883 L -2.95 -1.195039 L -2.94 -1.195234 L -2.9 -1.195859 L -2.89 -1.196055 L -2.87 -1.196367 L -2.86 -1.196484 L -2.83 -1.196953 L -2.82 -1.19707 L -2.8 -1.197383 L -2.79 -1.1975 L -2.78 -1.197656 L -2.69 -1.198711 L -2.68 -1.198789 L -2.67 -1.198906 L -2.66 -1.198984 L -2.65 -1.199102 L -2.58 -1.199648 L -2.57 -1.199688 L -2.56 -1.199766 L -2.49 -1.200039 L -2.47 -1.200039 L -2.46 -1.200078 L -2.43 -1.200078 L -2.42 -1.200039 L -2.41 -1.200039 L -2.36 -1.199844 L -2.35 -1.199766 L -2.34 -1.199727 L -2.31 -1.199492 L -2.3 -1.199375 L -2.29 -1.199297 L -2.26 -1.198945 L -2.25 -1.198789 L -2.24 -1.198672 L -2.21 -1.198203 L -2.2 -1.198008 L -2.19 -1.197852 L -2.18 -1.197656 L -2.17 -1.197422 L -2.16 -1.197227 L -2.12 -1.196289 L -2.1 -1.195742 L -2.09 -1.19543 L -2.08 -1.195156 L -2.07 -1.194844 L -2.06 -1.194492 L -2.05 -1.19418 L -2.03 -1.193477 L -2 -1.192305 L -1.99 -1.191875 L -1.98 -1.191484 L -1.97 -1.191016 L -1.96 -1.190586 L -1.95 -1.190078 L -1.94 -1.189609 L -1.92 -1.188594 L -1.9 -1.1875 L -1.87 -1.185742 L -1.85 -1.184492 L -1.83 -1.183164 L -1.82 -1.182461 L -1.79 -1.180234 L -1.77 -1.178672 L -1.76 -1.177852 L -1.74 -1.176133 L -1.72 -1.174336 L -1.71 -1.173359 L -1.7 -1.172422 L -1.67 -1.169375 L -1.64 -1.166094 L -1.62 -1.16375 L -1.61 -1.162539 L -1.6 -1.161289 L -1.58 -1.158711 L -1.57 -1.157383 L -1.56 -1.156016 L -1.55 -1.154609 L -1.54 -1.153164 L -1.52 -1.150195 L -1.5 -1.14707 L -1.48 -1.143789 L -1.46 -1.140352 L -1.44 -1.136758 L -1.43 -1.134883 L -1.42 -1.132969 L -1.41 -1.131016 L -1.4 -1.129023 L -1.39 -1.126992 L -1.37 -1.122773 L -1.36 -1.120586 L -1.35 -1.118359 L -1.34 -1.116055 L -1.33 -1.113711 L -1.32 -1.111328 L -1.31 -1.108867 L -1.3 -1.106367 L -1.29 -1.103828 L -1.28 -1.101211 L -1.27 -1.098555 L -1.26 -1.09582 L -1.25 -1.093008 L -1.24 -1.090156 L -1.23 -1.087266 L -1.22 -1.084297 L -1.21 -1.08125 L -1.2 -1.078125 L -1.19 -1.074961 L -1.18 -1.071719 L -1.17 -1.068398 L -1.16 -1.065 L -1.15 -1.061523 L -1.14 -1.058008 L -1.13 -1.054414 L -1.12 -1.050703 L -1.11 -1.046953 L -1.1 -1.043086 L -1.09 -1.03918 L -1.08 -1.035156 L -1.07 -1.031094 L -1.06 -1.026914 L -1.05 -1.022656 L -1.04 -1.01832 L -1.03 -1.013867 L -1.02 -1.009336 L -1.01 -1.004727 L -1 -1 L -0.99 -0.995195 L -0.98 -0.990273 L -0.97 -0.985273 L -0.96 -0.980156 L -0.95 -0.974961 L -0.94 -0.969648 L -0.93 -0.964258 L -0.92 -0.958711 L -0.91 -0.953086 L -0.9 -0.947383 L -0.89 -0.941523 L -0.88 -0.935586 L -0.87 -0.929492 L -0.86 -0.92332 L -0.85 -0.917031 L -0.84 -0.910586 L -0.83 -0.904063 L -0.82 -0.897383 L -0.81 -0.890625 L -0.8 -0.883711 L -0.79 -0.87668 L -0.78 -0.869531 L -0.77 -0.862266 L -0.76 -0.854844 L -0.75 -0.847344 L -0.74 -0.839648 L -0.73 -0.831875 L -0.72 -0.823945 L -0.71 -0.815898 L -0.7 -0.807695 L -0.69 -0.799375 L -0.68 -0.790898 L -0.67 -0.782305 L -0.66 -0.773594 L -0.65 -0.764687 L -0.64 -0.755703 L -0.63 -0.746563 L -0.62 -0.737266 L -0.61 -0.727852 L -0.6 -0.71832 L -0.59 -0.708633 L -0.58 -0.698789 L -0.57 -0.688828 L -0.56 -0.67875 L -0.55 -0.668516 L -0.54 -0.658164 L -0.53 -0.647656 L -0.52 -0.637031 L -0.51 -0.62625 L -0.5 -0.615391 L -0.49 -0.604375 L -0.48 -0.593242 L -0.47 -0.581992 L -0.46 -0.570625 L -0.45 -0.559102 L -0.44 -0.5475 L -0.43 -0.535781 L -0.42 -0.523984 L -0.41 -0.512031 L -0.4 -0.5 L -0.39 -0.487852 L -0.38 -0.475625 L -0.37 -0.46332 L -0.36 -0.450938 L -0.35 -0.438438 L -0.34 -0.425898 L -0.33 -0.413242 L -0.32 -0.400547 L -0.31 -0.387812 L -0.3 -0.375 L -0.29 -0.362148 L -0.28 -0.349258 L -0.25 -0.310352 L -0.23 -0.284336 L -0.22 -0.271289 L -0.2 -0.245273 L -0.18 -0.219336 L -0.17 -0.206406 L -0.16 -0.193555 L -0.15 -0.180742 L -0.14 -0.167969 L -0.13 -0.155273 L -0.12 -0.142617 L -0.11 -0.130078 L -0.1 -0.117656 L -0.09 -0.105313 L -0.08 -0.0930469 L -0.07 -0.0809375 L -0.06 -0.0689453 L -0.05 -0.0570703 L -0.04 -0.0453516 L -0.03 -0.03375 L -0.02 -0.0223438 L -0.01 -0.0110938 L 0.01 0.0110938 L 0.02 0.0223438 L 0.03 0.03375 L 0.04 0.0453516 L 0.05 0.0570703 L 0.06 0.0689453 L 0.07 0.0809375 L 0.08 0.0930469 L 0.09 0.105313 L 0.1 0.117656 L 0.11 0.130078 L 0.12 0.142617 L 0.13 0.155273 L 0.14 0.167969 L 0.15 0.180742 L 0.16 0.193555 L 0.17 0.206406 L 0.18 0.219336 L 0.2 0.245273 L 0.22 0.271289 L 0.23 0.284336 L 0.25 0.310352 L 0.28 0.349258 L 0.29 0.362148 L 0.3 0.375 L 0.31 0.387812 L 0.32 0.400547 L 0.33 0.413242 L 0.34 0.425898 L 0.35 0.438438 L 0.36 0.450937 L 0.37 0.46332 L 0.38 0.475625 L 0.39 0.487852 L 0.4 0.5 L 0.41 0.512031 L 0.42 0.523984 L 0.43 0.535781 L 0.44 0.5475 L 0.45 0.559102 L 0.46 0.570625 L 0.47 0.581992 L 0.48 0.593242 L 0.49 0.604375 L 0.5 0.615391 L 0.51 0.62625 L 0.52 0.637031 L 0.53 0.647656 L 0.54 0.658164 L 0.55 0.668516 L 0.56 0.67875 L 0.57 0.688828 L 0.58 0.698789 L 0.59 0.708633 L 0.6 0.71832 L 0.61 0.727852 L 0.62 0.737266 L 0.63 0.746563 L 0.64 0.755703 L 0.65 0.764687 L 0.66 0.773594 L 0.67 0.782305 L 0.68 0.790898 L 0.69 0.799375 L 0.7 0.807695 L 0.71 0.815898 L 0.72 0.823945 L 0.73 0.831875 L 0.74 0.839648 L 0.75 0.847344 L 0.76 0.854844 L 0.77 0.862266 L 0.78 0.869531 L 0.79 0.87668 L 0.8 0.883711 L 0.81 0.890625 L 0.82 0.897383 L 0.83 0.904062 L 0.84 0.910586 L 0.85 0.917031 L 0.86 0.92332 L 0.87 0.929492 L 0.88 0.935586 L 0.89 0.941523 L 0.9 0.947383 L 0.91 0.953086 L 0.92 0.958711 L 0.93 0.964258 L 0.94 0.969648 L 0.95 0.974961 L 0.96 0.980156 L 0.97 0.985273 L 0.98 0.990273 L 0.99 0.995195 L 1 1 L 1.01 1.004727 L 1.02 1.009336 L 1.03 1.013867 L 1.04 1.01832 L 1.05 1.022656 L 1.06 1.026914 L 1.07 1.031094 L 1.08 1.035156 L 1.09 1.03918 L 1.1 1.043086 L 1.11 1.046953 L 1.12 1.050703 L 1.13 1.054414 L 1.14 1.058008 L 1.15 1.061523 L 1.16 1.065 L 1.17 1.068398 L 1.18 1.071719 L 1.19 1.074961 L 1.2 1.078125 L 1.21 1.08125 L 1.22 1.084297 L 1.23 1.087266 L 1.24 1.090156 L 1.25 1.093008 L 1.26 1.09582 L 1.27 1.098555 L 1.28 1.101211 L 1.29 1.103828 L 1.3 1.106367 L 1.31 1.108867 L 1.32 1.111328 L 1.33 1.113711 L 1.34 1.116055 L 1.35 1.118359 L 1.36 1.120586 L 1.37 1.122773 L 1.39 1.126992 L 1.4 1.129023 L 1.41 1.131016 L 1.42 1.132969 L 1.43 1.134883 L 1.44 1.136758 L 1.46 1.140352 L 1.48 1.143789 L 1.5 1.14707 L 1.52 1.150195 L 1.54 1.153164 L 1.55 1.154609 L 1.56 1.156016 L 1.57 1.157383 L 1.58 1.158711 L 1.6 1.161289 L 1.61 1.162539 L 1.62 1.16375 L 1.64 1.166094 L 1.67 1.169375 L 1.7 1.172422 L 1.71 1.173359 L 1.72 1.174336 L 1.74 1.176133 L 1.76 1.177852 L 1.77 1.178672 L 1.79 1.180234 L 1.82 1.182461 L 1.83 1.183164 L 1.85 1.184492 L 1.87 1.185742 L 1.9 1.1875 L 1.92 1.188594 L 1.94 1.189609 L 1.95 1.190078 L 1.96 1.190586 L 1.97 1.191016 L 1.98 1.191484 L 1.99 1.191875 L 2 1.192305 L 2.03 1.193477 L 2.05 1.19418 L 2.06 1.194492 L 2.07 1.194844 L 2.08 1.195156 L 2.09 1.19543 L 2.1 1.195742 L 2.12 1.196289 L 2.16 1.197227 L 2.17 1.197422 L 2.18 1.197656 L 2.19 1.197852 L 2.2 1.198008 L 2.21 1.198203 L 2.24 1.198672 L 2.25 1.198789 L 2.26 1.198945 L 2.29 1.199297 L 2.3 1.199375 L 2.31 1.199492 L 2.34 1.199727 L 2.35 1.199766 L 2.36 1.199844 L 2.41 1.200039 L 2.42 1.200039 L 2.43 1.200078 L 2.46 1.200078 L 2.47 1.200039 L 2.49 1.200039 L 2.56 1.199766 L 2.57 1.199688 L 2.58 1.199648 L 2.65 1.199102 L 2.66 1.198984 L 2.67 1.198906 L 2.68 1.198789 L 2.69 1.198711 L 2.78 1.197656 L 2.79 1.1975 L 2.8 1.197383 L 2.82 1.19707 L 2.83 1.196953 L 2.86 1.196484 L 2.87 1.196367 L 2.89 1.196055 L 2.9 1.195859 L 2.94 1.195234 L 2.95 1.195039 L 2.96 1.194883 L 2.97 1.194687 L 2.98 1.194531 L 2.99 1.194336 L 3 1.19418 L 3.01 1.193984 L 3.02 1.193828 L 3.05 1.193242 L 3.06 1.193086 L 3.17 1.190937 L 3.18 1.190703 L 3.21 1.190117 L 3.22 1.189883 L 3.24 1.189492 L 3.25 1.189258 L 3.27 1.188867 L 3.28 1.188633 L 3.29 1.188438 L 3.3 1.188203 L 3.31 1.188008 L 3.32 1.187773 L 3.33 1.187578 L 3.34 1.187344 L 3.35 1.187148 L 3.36 1.186914 L 3.37 1.186719 L 3.39 1.18625 L 3.4 1.186055 L 3.41 1.18582 L 3.42 1.185625 L 3.45 1.184922 L 3.46 1.184727 L 3.48 1.184258 L 3.49 1.184063 L 3.52 1.183359 L 3.53 1.183164 L 3.57 1.182227 L 3.58 1.182031 L 3.62 1.181094 L 3.63 1.180898 L 3.69 1.179492 L 3.7 1.179297 L 3.76 1.177891 L 3.77 1.177695 L 3.84 1.176055 L 3.85 1.175859 L 3.91 1.174453 L 3.92 1.174258 L 3.98 1.172852 L 3.99 1.172656 L 4.04 1.171484 L 4.05 1.171289 L 4.09 1.170352 L 4.1 1.170156 L 4.13 1.169453 L 4.14 1.169258 L 4.18 1.16832 L 4.19 1.168125 L 4.21 1.167656 L 4.22 1.167461 L 4.25 1.166758 L 4.26 1.166562 L 4.28 1.166094 L 4.29 1.165898 L 4.31 1.16543 L 4.32 1.165234 L 4.34 1.164766 L 4.35 1.16457 L 4.37 1.164102 L 4.38 1.163906 L 4.39 1.163672 L 4.4 1.163477 L 4.42 1.163008 L 4.43 1.162813 L 4.44 1.162578 L 4.45 1.162383 L 4.46 1.162148 L 4.47 1.161953 L 4.48 1.161719 L 4.49 1.161523 L 4.5 1.161289 L 4.51 1.161094 L 4.52 1.160859 L 4.53 1.160664 L 4.54 1.16043 L 4.55 1.160234 L 4.56 1.16 L 4.57 1.159805 L 4.58 1.15957 L 4.59 1.159375 L 4.6 1.159141 L 4.61 1.158945 L 4.62 1.158711 L 4.64 1.15832 L 4.65 1.158086 L 4.66 1.157891 L 4.67 1.157656 L 4.69 1.157266 L 4.7 1.157031 L 4.72 1.156641 L 4.73 1.156406 L 4.75 1.156016 L 4.76 1.155781 L 4.79 1.155195 L 4.8 1.154961 L 4.83 1.154375 L 4.84 1.154141 L 4.88 1.153359 L 4.89 1.153125 L 4.95 1.151953 L 4.96 1.151719 L 5 1.150937 " transform="matrix(100,0,0,-100,500,300)"/>
<path style="fill:none;stroke-width:0.03;stroke-linecap:butt;stroke-linejoin:miter;stroke:rgb(87.058824%,29.803922%,71.764706%);stroke-opacity:0.6;stroke-miterlimit:10;" d="M -5 -1.186055 L -4.98 -1.18668 L -4.97 -1.187031 L -4.95 -1.187656 L -4.94 -1.188008 L -4.93 -1.18832 L -4.92 -1.188672 L -4.91 -1.188984 L -4.9 -1.189336 L -4.89 -1.189648 L -4.88 -1.19 L -4.87 -1.190313 L -4.86 -1.190664 L -4.85 -1.190977 L -4.82 -1.192031 L -4.81 -1.192344 L -4.77 -1.19375 L -4.76 -1.194063 L -4.68 -1.196875 L -4.67 -1.197266 L -4.63 -1.198672 L -4.62 -1.199063 L -4.6 -1.199766 L -4.59 -1.200156 L -4.58 -1.200508 L -4.57 -1.200898 L -4.55 -1.201602 L -4.54 -1.201992 L -4.53 -1.202344 L -4.51 -1.203125 L -4.5 -1.203477 L -4.48 -1.204258 L -4.47 -1.204609 L -4.43 -1.206172 L -4.42 -1.206523 L -4.35 -1.209258 L -4.34 -1.209688 L -4.3 -1.21125 L -4.29 -1.21168 L -4.27 -1.212461 L -4.26 -1.212891 L -4.25 -1.213281 L -4.24 -1.213711 L -4.23 -1.214102 L -4.22 -1.214531 L -4.21 -1.214922 L -4.2 -1.215352 L -4.19 -1.215742 L -4.17 -1.216602 L -4.16 -1.216992 L -4.12 -1.218711 L -4.11 -1.219102 L -4.05 -1.22168 L -4.04 -1.222148 L -4 -1.223867 L -3.99 -1.224336 L -3.97 -1.225195 L -3.96 -1.225664 L -3.95 -1.226094 L -3.94 -1.226562 L -3.93 -1.226992 L -3.92 -1.227461 L -3.91 -1.227891 L -3.9 -1.228359 L -3.89 -1.228789 L -3.87 -1.229727 L -3.86 -1.230156 L -3.82 -1.232031 L -3.81 -1.232461 L -3.76 -1.234805 L -3.75 -1.235313 L -3.71 -1.237188 L -3.7 -1.237695 L -3.67 -1.239102 L -3.66 -1.239609 L -3.65 -1.240078 L -3.64 -1.240586 L -3.63 -1.241055 L -3.62 -1.241562 L -3.61 -1.242031 L -3.59 -1.243047 L -3.58 -1.243516 L -3.56 -1.244531 L -3.55 -1.245 L -3.4 -1.252617 L -3.39 -1.253164 L -3.36 -1.254688 L -3.35 -1.255234 L -3.34 -1.255742 L -3.33 -1.256289 L -3.31 -1.257305 L -3.3 -1.257852 L -3.29 -1.258359 L -3.28 -1.258906 L -3.27 -1.259414 L -3.25 -1.260508 L -3.24 -1.261016 L -3.23 -1.261563 L -3.22 -1.26207 L -3.19 -1.263711 L -3.18 -1.264219 L -3.15 -1.265859 L -3.14 -1.266367 L -3.09 -1.269102 L -3.08 -1.269609 L -2.98 -1.275078 L -2.97 -1.275586 L -2.87 -1.281055 L -2.86 -1.281562 L -2.82 -1.28375 L -2.81 -1.284258 L -2.78 -1.285898 L -2.77 -1.286406 L -2.76 -1.286953 L -2.75 -1.287461 L -2.74 -1.288008 L -2.73 -1.288516 L -2.72 -1.289062 L -2.71 -1.28957 L -2.7 -1.290117 L -2.67 -1.291641 L -2.66 -1.292187 L -2.62 -1.294219 L -2.61 -1.294688 L -2.59 -1.295703 L -2.58 -1.296172 L -2.57 -1.29668 L -2.56 -1.297148 L -2.55 -1.297656 L -2.49 -1.300469 L -2.48 -1.300898 L -2.47 -1.301367 L -2.41 -1.303945 L -2.4 -1.304336 L -2.39 -1.304766 L -2.36 -1.305937 L -2.35 -1.306289 L -2.34 -1.30668 L -2.31 -1.307734 L -2.3 -1.308047 L -2.29 -1.308398 L -2.27 -1.309023 L -2.26 -1.309297 L -2.25 -1.309609 L -2.23 -1.310156 L -2.22 -1.310391 L -2.21 -1.310664 L -2.2 -1.310898 L -2.19 -1.311094 L -2.18 -1.311328 L -2.17 -1.311523 L -2.16 -1.31168 L -2.15 -1.311875 L -2.14 -1.312031 L -2.13 -1.312148 L -2.12 -1.312305 L -2.11 -1.312422 L -2.08 -1.312656 L -2.06 -1.312734 L -2.04 -1.312734 L -2.02 -1.312656 L -2 -1.3125 L -1.98 -1.312266 L -1.97 -1.312109 L -1.94 -1.311523 L -1.92 -1.310977 L -1.9 -1.310352 L -1.89 -1.31 L -1.88 -1.309609 L -1.86 -1.30875 L -1.84 -1.307734 L -1.83 -1.307188 L -1.82 -1.306602 L -1.8 -1.305352 L -1.78 -1.303945 L -1.77 -1.303164 L -1.75 -1.301523 L -1.74 -1.300625 L -1.73 -1.299688 L -1.72 -1.298711 L -1.71 -1.297695 L -1.69 -1.295508 L -1.68 -1.294336 L -1.66 -1.291836 L -1.65 -1.290508 L -1.64 -1.289141 L -1.63 -1.287695 L -1.61 -1.284648 L -1.6 -1.283008 L -1.59 -1.281328 L -1.58 -1.279609 L -1.57 -1.277773 L -1.56 -1.275898 L -1.55 -1.273984 L -1.54 -1.271953 L -1.53 -1.269883 L -1.52 -1.267695 L -1.51 -1.265469 L -1.5 -1.263164 L -1.49 -1.260781 L -1.48 -1.258281 L -1.47 -1.255742 L -1.46 -1.253086 L -1.45 -1.250352 L -1.44 -1.247539 L -1.43 -1.244609 L -1.42 -1.241602 L -1.41 -1.238516 L -1.4 -1.235313 L -1.39 -1.231992 L -1.38 -1.228594 L -1.37 -1.225078 L -1.36 -1.221445 L -1.35 -1.217734 L -1.34 -1.213906 L -1.33 -1.209922 L -1.32 -1.205859 L -1.31 -1.20168 L -1.3 -1.197383 L -1.29 -1.19293 L -1.28 -1.188359 L -1.27 -1.183672 L -1.26 -1.178867 L -1.25 -1.173906 L -1.24 -1.168828 L -1.23 -1.163594 L -1.22 -1.158242 L -1.21 -1.152734 L -1.2 -1.14707 L -1.19 -1.14125 L -1.18 -1.135313 L -1.17 -1.12918 L -1.16 -1.12293 L -1.15 -1.116523 L -1.14 -1.109922 L -1.13 -1.103164 L -1.12 -1.096289 L -1.11 -1.089219 L -1.1 -1.081953 L -1.09 -1.07457 L -1.08 -1.066992 L -1.07 -1.059219 L -1.06 -1.051289 L -1.05 -1.043203 L -1.04 -1.034922 L -1.03 -1.026445 L -1.02 -1.017812 L -1.01 -1.008984 L -1 -1 L -0.99 -0.99082 L -0.98 -0.981445 L -0.97 -0.971914 L -0.96 -0.962188 L -0.95 -0.952266 L -0.94 -0.942188 L -0.93 -0.931914 L -0.92 -0.921445 L -0.91 -0.91082 L -0.9 -0.9 L -0.89 -0.889023 L -0.88 -0.877852 L -0.87 -0.866523 L -0.86 -0.855 L -0.85 -0.843359 L -0.84 -0.831523 L -0.83 -0.819531 L -0.82 -0.807344 L -0.81 -0.795078 L -0.8 -0.782617 L -0.79 -0.77 L -0.78 -0.757266 L -0.77 -0.744414 L -0.76 -0.731406 L -0.75 -0.71832 L -0.74 -0.705078 L -0.73 -0.691758 L -0.72 -0.67832 L -0.71 -0.664766 L -0.7 -0.651172 L -0.69 -0.637461 L -0.68 -0.623711 L -0.67 -0.609883 L -0.66 -0.596016 L -0.63 -0.55418 L -0.62 -0.540156 L -0.6 -0.512188 L -0.58 -0.484297 L -0.57 -0.470391 L -0.56 -0.456523 L -0.55 -0.442734 L -0.54 -0.428984 L -0.53 -0.415352 L -0.52 -0.401797 L -0.51 -0.388359 L -0.5 -0.375 L -0.49 -0.361797 L -0.48 -0.348711 L -0.47 -0.335742 L -0.46 -0.322969 L -0.45 -0.310352 L -0.44 -0.297891 L -0.43 -0.285625 L -0.42 -0.273555 L -0.41 -0.26168 L -0.4 -0.25 L -0.39 -0.238555 L -0.38 -0.227305 L -0.37 -0.216328 L -0.36 -0.205547 L -0.35 -0.195039 L -0.34 -0.184766 L -0.33 -0.174766 L -0.32 -0.165039 L -0.31 -0.155547 L -0.3 -0.146328 L -0.29 -0.137422 L -0.28 -0.12875 L -0.27 -0.120391 L -0.26 -0.112266 L -0.25 -0.104492 L -0.24 -0.0969531 L -0.23 -0.0897266 L -0.22 -0.0827734 L -0.21 -0.0761328 L -0.2 -0.0697656 L -0.19 -0.0637109 L -0.18 -0.0578906 L -0.17 -0.0524219 L -0.16 -0.0471875 L -0.15 -0.0422656 L -0.14 -0.0376172 L -0.13 -0.0332422 L -0.12 -0.0291406 L -0.11 -0.0253125 L -0.1 -0.0217578 L -0.09 -0.0184375 L -0.08 -0.0154297 L -0.07 -0.0126172 L -0.06 -0.0101172 L -0.05 -0.00785156 L -0.04 -0.00578125 L -0.03 -0.00402344 L -0.02 -0.00246094 L -0.01 -0.00109375 L 0.01 0.00109375 L 0.02 0.00246094 L 0.03 0.00402344 L 0.04 0.00578125 L 0.05 0.00785156 L 0.06 0.0101172 L 0.07 0.0126172 L 0.08 0.0154297 L 0.09 0.0184375 L 0.1 0.0217578 L 0.11 0.0253125 L 0.12 0.0291406 L 0.13 0.0332422 L 0.14 0.0376172 L 0.15 0.0422656 L 0.16 0.0471875 L 0.17 0.0524219 L 0.18 0.0578906 L 0.19 0.0637109 L 0.2 0.0697656 L 0.21 0.0761328 L 0.22 0.0827734 L 0.23 0.0897266 L 0.24 0.0969531 L 0.25 0.104492 L 0.26 0.112266 L 0.27 0.120391 L 0.28 0.12875 L 0.29 0.137422 L 0.3 0.146328 L 0.31 0.155547 L 0.32 0.165039 L 0.33 0.174766 L 0.34 0.184766 L 0.35 0.195039 L 0.36 0.205547 L 0.37 0.216328 L 0.38 0.227305 L 0.39 0.238555 L 0.4 0.25 L 0.41 0.26168 L 0.42 0.273555 L 0.43 0.285625 L 0.44 0.297891 L 0.45 0.310352 L 0.46 0.322969 L 0.47 0.335742 L 0.48 0.348711 L 0.49 0.361797 L 0.5 0.375 L 0.51 0.388359 L 0.52 0.401797 L 0.53 0.415352 L 0.54 0.428984 L 0.55 0.442734 L 0.56 0.456523 L 0.57 0.470391 L 0.58 0.484297 L 0.6 0.512188 L 0.62 0.540156 L 0.63 0.55418 L 0.66 0.596016 L 0.67 0.609883 L 0.68 0.623711 L 0.69 0.637461 L 0.7 0.651172 L 0.71 0.664766 L 0.72 0.67832 L 0.73 0.691758 L 0.74 0.705078 L 0.75 0.71832 L 0.76 0.731406 L 0.77 0.744414 L 0.78 0.757266 L 0.79 0.77 L 0.8 0.782617 L 0.81 0.795078 L 0.82 0.807344 L 0.83 0.819531 L 0.84 0.831523 L 0.85 0.843359 L 0.86 0.855 L 0.87 0.866523 L 0.88 0.877852 L 0.89 0.889023 L 0.9 0.9 L 0.91 0.91082 L 0.92 0.921445 L 0.93 0.931914 L 0.94 0.942188 L 0.95 0.952266 L 0.96 0.962187 L 0.97 0.971914 L 0.98 0.981445 L 0.99 0.99082 L 1 1 L 1.01 1.008984 L 1.02 1.017813 L 1.03 1.026445 L 1.04 1.034922 L 1.05 1.043203 L 1.06 1.051289 L 1.07 1.059219 L 1.08 1.066992 L 1.09 1.07457 L 1.1 1.081953 L 1.11 1.089219 L 1.12 1.096289 L 1.13 1.103164 L 1.14 1.109922 L 1.15 1.116523 L 1.16 1.12293 L 1.17 1.12918 L 1.18 1.135312 L 1.19 1.14125 L 1.2 1.14707 L 1.21 1.152734 L 1.22 1.158242 L 1.23 1.163594 L 1.24 1.168828 L 1.25 1.173906 L 1.26 1.178867 L 1.27 1.183672 L 1.28 1.188359 L 1.29 1.19293 L 1.3 1.197383 L 1.31 1.20168 L 1.32 1.205859 L 1.33 1.209922 L 1.34 1.213906 L 1.35 1.217734 L 1.36 1.221445 L 1.37 1.225078 L 1.38 1.228594 L 1.39 1.231992 L 1.4 1.235313 L 1.41 1.238516 L 1.42 1.241602 L 1.43 1.244609 L 1.44 1.247539 L 1.45 1.250352 L 1.46 1.253086 L 1.47 1.255742 L 1.48 1.258281 L 1.49 1.260781 L 1.5 1.263164 L 1.51 1.265469 L 1.52 1.267695 L 1.53 1.269883 L 1.54 1.271953 L 1.55 1.273984 L 1.56 1.275898 L 1.57 1.277773 L 1.58 1.279609 L 1.59 1.281328 L 1.6 1.283008 L 1.61 1.284648 L 1.63 1.287695 L 1.64 1.289141 L 1.65 1.290508 L 1.66 1.291836 L 1.68 1.294336 L 1.69 1.295508 L 1.71 1.297695 L 1.72 1.298711 L 1.73 1.299687 L 1.74 1.300625 L 1.75 1.301523 L 1.77 1.303164 L 1.78 1.303945 L 1.8 1.305352 L 1.82 1.306602 L 1.83 1.307187 L 1.84 1.307734 L 1.86 1.30875 L 1.88 1.309609 L 1.89 1.31 L 1.9 1.310352 L 1.92 1.310977 L 1.94 1.311523 L 1.97 1.312109 L 1.98 1.312266 L 2 1.3125 L 2.02 1.312656 L 2.04 1.312734 L 2.06 1.312734 L 2.08 1.312656 L 2.11 1.312422 L 2.12 1.312305 L 2.13 1.312148 L 2.14 1.312031 L 2.15 1.311875 L 2.16 1.31168 L 2.17 1.311523 L 2.18 1.311328 L 2.19 1.311094 L 2.2 1.310898 L 2.21 1.310664 L 2.22 1.310391 L 2.23 1.310156 L 2.25 1.309609 L 2.26 1.309297 L 2.27 1.309023 L 2.29 1.308398 L 2.3 1.308047 L 2.31 1.307734 L 2.34 1.30668 L 2.35 1.306289 L 2.36 1.305937 L 2.39 1.304766 L 2.4 1.304336 L 2.41 1.303945 L 2.47 1.301367 L 2.48 1.300898 L 2.49 1.300469 L 2.55 1.297656 L 2.56 1.297148 L 2.57 1.29668 L 2.58 1.296172 L 2.59 1.295703 L 2.61 1.294687 L 2.62 1.294219 L 2.66 1.292188 L 2.67 1.291641 L 2.7 1.290117 L 2.71 1.28957 L 2.72 1.289062 L 2.73 1.288516 L 2.74 1.288008 L 2.75 1.287461 L 2.76 1.286953 L 2.77 1.286406 L 2.78 1.285898 L 2.81 1.284258 L 2.82 1.28375 L 2.86 1.281562 L 2.87 1.281055 L 2.97 1.275586 L 2.98 1.275078 L 3.08 1.269609 L 3.09 1.269102 L 3.14 1.266367 L 3.15 1.265859 L 3.18 1.264219 L 3.19 1.263711 L 3.22 1.26207 L 3.23 1.261562 L 3.24 1.261016 L 3.25 1.260508 L 3.27 1.259414 L 3.28 1.258906 L 3.29 1.258359 L 3.3 1.257852 L 3.31 1.257305 L 3.33 1.256289 L 3.34 1.255742 L 3.35 1.255234 L 3.36 1.254687 L 3.39 1.253164 L 3.4 1.252617 L 3.55 1.245 L 3.56 1.244531 L 3.58 1.243516 L 3.59 1.243047 L 3.61 1.242031 L 3.62 1.241562 L 3.63 1.241055 L 3.64 1.240586 L 3.65 1.240078 L 3.66 1.239609 L 3.67 1.239102 L 3.7 1.237695 L 3.71 1.237187 L 3.75 1.235313 L 3.76 1.234805 L 3.81 1.232461 L 3.82 1.232031 L 3.86 1.230156 L 3.87 1.229727 L 3.89 1.228789 L 3.9 1.228359 L 3.91 1.227891 L 3.92 1.227461 L 3.93 1.226992 L 3.94 1.226562 L 3.95 1.226094 L 3.96 1.225664 L 3.97 1.225195 L 3.99 1.224336 L 4 1.223867 L 4.04 1.222148 L 4.05 1.22168 L 4.11 1.219102 L 4.12 1.218711 L 4.16 1.216992 L 4.17 1.216602 L 4.19 1.215742 L 4.2 1.215352 L 4.21 1.214922 L 4.22 1.214531 L 4.23 1.214102 L 4.24 1.213711 L 4.25 1.213281 L 4.26 1.212891 L 4.27 1.212461 L 4.29 1.21168 L 4.3 1.21125 L 4.34 1.209688 L 4.35 1.209258 L 4.42 1.206523 L 4.43 1.206172 L 4.47 1.204609 L 4.48 1.204258 L 4.5 1.203477 L 4.51 1.203125 L 4.53 1.202344 L 4.54 1.201992 L 4.55 1.201602 L 4.57 1.200898 L 4.58 1.200508 L 4.59 1.200156 L 4.6 1.199766 L 4.62 1.199062 L 4.63 1.198672 L 4.67 1.197266 L 4.68 1.196875 L 4.76 1.194063 L 4.77 1.19375 L 4.81 1.192344 L 4.82 1.192031 L 4.85 1.190977 L 4.86 1.190664 L 4.87 1.190312 L 4.88 1.19 L 4.89 1.189648 L 4.9 1.189336 L 4.91 1.188984 L 4.92 1.188672 L 4.93 1.18832 L 4.94 1.188008 L 4.95 1.187656 L 4.97 1.187031 L 4.98 1.18668 L 5 1.186055 " transform="matrix(100,0,0,-100,500,300)"/>
<path style="fill:none;stroke-width:0.03;stroke-linecap:butt;stroke-linejoin:miter;stroke:rgb(87.058824%,29.803922%,71.764706%);stroke-opacity:0.4;stroke-miterlimit:10;" d="M -5 -1.24168 L -4.95 -1.244609 L -4.94 -1.245234 L -4.92 -1.246406 L -4.91 -1.247031 L -4.9 -1.247617 L -4.87 -1.249492 L -4.86 -1.250078 L -4.83 -1.251953 L -4.82 -1.252617 L -4.8 -1.253867 L -4.79 -1.254531 L -4.78 -1.255156 L -4.77 -1.25582 L -4.76 -1.256445 L -4.69 -1.261094 L -4.68 -1.261797 L -4.67 -1.262461 L -4.66 -1.263164 L -4.65 -1.263828 L -4.58 -1.26875 L -4.57 -1.269492 L -4.56 -1.270195 L -4.55 -1.270938 L -4.54 -1.271641 L -4.49 -1.275352 L -4.48 -1.276133 L -4.47 -1.276875 L -4.46 -1.277656 L -4.45 -1.278398 L -4.38 -1.283867 L -4.36 -1.285508 L -4.35 -1.286289 L -4.31 -1.28957 L -4.3 -1.29043 L -4.29 -1.29125 L -4.28 -1.292109 L -4.27 -1.29293 L -4.23 -1.296367 L -4.22 -1.297266 L -4.21 -1.298125 L -4.2 -1.299023 L -4.19 -1.299883 L -4.16 -1.302578 L -4.15 -1.303516 L -4.13 -1.305313 L -4.08 -1.31 L -4.07 -1.310977 L -4.06 -1.311914 L -4.01 -1.316797 L -4 -1.317813 L -3.99 -1.318789 L -3.95 -1.322852 L -3.94 -1.323906 L -3.93 -1.324922 L -3.89 -1.329141 L -3.87 -1.331328 L -3.86 -1.332383 L -3.85 -1.333477 L -3.84 -1.334609 L -3.82 -1.336797 L -3.78 -1.341328 L -3.72 -1.348359 L -3.69 -1.351992 L -3.68 -1.353242 L -3.67 -1.354453 L -3.64 -1.358203 L -3.63 -1.359492 L -3.62 -1.360742 L -3.6 -1.36332 L -3.59 -1.364648 L -3.58 -1.365938 L -3.55 -1.369922 L -3.51 -1.375391 L -3.47 -1.381016 L -3.43 -1.386797 L -3.4 -1.39125 L -3.36 -1.397344 L -3.34 -1.400469 L -3.33 -1.40207 L -3.32 -1.403633 L -3.31 -1.405234 L -3.3 -1.406875 L -3.29 -1.408477 L -3.28 -1.410117 L -3.27 -1.411797 L -3.26 -1.413437 L -3.25 -1.415117 L -3.24 -1.416836 L -3.23 -1.418516 L -3.22 -1.420234 L -3.21 -1.421992 L -3.2 -1.423711 L -3.19 -1.425508 L -3.18 -1.427266 L -3.16 -1.430859 L -3.13 -1.436367 L -3.11 -1.440117 L -3.1 -1.442031 L -3.09 -1.443906 L -3.06 -1.449766 L -3.03 -1.455742 L -3.02 -1.457773 L -3.01 -1.459844 L -3 -1.461875 L -2.97 -1.468203 L -2.95 -1.4725 L -2.93 -1.476875 L -2.91 -1.481328 L -2.89 -1.485859 L -2.87 -1.490469 L -2.86 -1.492813 L -2.83 -1.499961 L -2.82 -1.502383 L -2.81 -1.504844 L -2.78 -1.512344 L -2.77 -1.514883 L -2.76 -1.517461 L -2.73 -1.525313 L -2.7 -1.533398 L -2.68 -1.538945 L -2.66 -1.54457 L -2.63 -1.553242 L -2.61 -1.55918 L -2.6 -1.562188 L -2.59 -1.565234 L -2.57 -1.571406 L -2.56 -1.574531 L -2.55 -1.577695 L -2.54 -1.580898 L -2.53 -1.584141 L -2.51 -1.590703 L -2.49 -1.597422 L -2.47 -1.604297 L -2.46 -1.607773 L -2.45 -1.611289 L -2.44 -1.614844 L -2.42 -1.622109 L -2.41 -1.625781 L -2.4 -1.629492 L -2.39 -1.633242 L -2.37 -1.640898 L -2.35 -1.648711 L -2.34 -1.652695 L -2.33 -1.656719 L -2.32 -1.660781 L -2.3 -1.669062 L -2.29 -1.673281 L -2.28 -1.677539 L -2.27 -1.681836 L -2.26 -1.686211 L -2.25 -1.690625 L -2.24 -1.695078 L -2.23 -1.69957 L -2.22 -1.704141 L -2.21 -1.70875 L -2.2 -1.713438 L -2.19 -1.718164 L -2.18 -1.722969 L -2.17 -1.727812 L -2.16 -1.732695 L -2.15 -1.737656 L -2.14 -1.742656 L -2.13 -1.747734 L -2.12 -1.752891 L -2.11 -1.758086 L -2.1 -1.763359 L -2.09 -1.768672 L -2.07 -1.779531 L -2.06 -1.785078 L -2.05 -1.790664 L -2.04 -1.796328 L -2.03 -1.80207 L -2.02 -1.807852 L -2.01 -1.813711 L -2 -1.819687 L -1.99 -1.825703 L -1.98 -1.831758 L -1.97 -1.83793 L -1.96 -1.84418 L -1.95 -1.850508 L -1.94 -1.856875 L -1.93 -1.863359 L -1.92 -1.869883 L -1.91 -1.876523 L -1.9 -1.883203 L -1.89 -1.89 L -1.88 -1.896875 L -1.87 -1.903789 L -1.86 -1.91082 L -1.85 -1.91793 L -1.84 -1.925117 L -1.83 -1.932383 L -1.82 -1.939727 L -1.81 -1.947148 L -1.8 -1.954648 L -1.79 -1.962227 L -1.78 -1.969922 L -1.77 -1.977656 L -1.76 -1.985469 L -1.75 -1.993359 L -1.74 -2.001367 L -1.73 -2.009414 L -1.72 -2.017539 L -1.71 -2.025703 L -1.7 -2.033984 L -1.69 -2.042305 L -1.68 -2.050664 L -1.67 -2.059102 L -1.66 -2.067617 L -1.64 -2.084727 L -1.63 -2.093359 L -1.61 -2.110703 L -1.59 -2.128125 L -1.58 -2.136797 L -1.57 -2.145508 L -1.56 -2.15418 L -1.54 -2.171367 L -1.53 -2.179883 L -1.52 -2.188281 L -1.51 -2.196641 L -1.5 -2.204805 L -1.49 -2.212891 L -1.48 -2.220742 L -1.47 -2.228438 L -1.46 -2.235898 L -1.45 -2.243086 L -1.44 -2.25 L -1.43 -2.256563 L -1.42 -2.262773 L -1.41 -2.268555 L -1.4 -2.273867 L -1.39 -2.278672 L -1.38 -2.28293 L -1.37 -2.286523 L -1.36 -2.289414 L -1.35 -2.291523 L -1.34 -2.292773 L -1.33 -2.293086 L -1.32 -2.292422 L -1.31 -2.290586 L -1.3 -2.287539 L -1.29 -2.283203 L -1.28 -2.277383 L -1.27 -2.27 L -1.26 -2.260898 L -1.25 -2.25 L -1.24 -2.237109 L -1.23 -2.222109 L -1.22 -2.204805 L -1.21 -2.185117 L -1.2 -2.162773 L -1.19 -2.137734 L -1.18 -2.109727 L -1.17 -2.078672 L -1.16 -2.044375 L -1.15 -2.006719 L -1.14 -1.965508 L -1.13 -1.920664 L -1.12 -1.872109 L -1.11 -1.819687 L -1.1 -1.763359 L -1.09 -1.703125 L -1.08 -1.638984 L -1.07 -1.570977 L -1.06 -1.49918 L -1.05 -1.423711 L -1.04 -1.344844 L -1.03 -1.262695 L -1.02 -1.177617 L -1.01 -1.089922 L -1 -1 L -0.99 -0.908242 L -0.98 -0.815156 L -0.97 -0.721172 L -0.96 -0.626875 L -0.95 -0.532695 L -0.94 -0.439258 L -0.93 -0.347031 L -0.92 -0.256523 L -0.91 -0.168203 L -0.9 -0.0825781 L -0.89 0 L -0.88 0.0791406 L -0.87 0.154531 L -0.86 0.225938 L -0.85 0.293086 L -0.84 0.355938 L -0.83 0.414297 L -0.82 0.468203 L -0.81 0.517578 L -0.8 0.5625 L -0.79 0.603047 L -0.78 0.639336 L -0.77 0.671523 L -0.76 0.699727 L -0.75 0.724141 L -0.74 0.744961 L -0.73 0.762383 L -0.72 0.776641 L -0.71 0.78793 L -0.7 0.796406 L -0.69 0.802344 L -0.68 0.805859 L -0.67 0.807227 L -0.66 0.806602 L -0.65 0.804141 L -0.64 0.8 L -0.63 0.794375 L -0.62 0.787383 L -0.61 0.77918 L -0.6 0.769922 L -0.59 0.759648 L -0.58 0.748555 L -0.57 0.73668 L -0.56 0.724141 L -0.55 0.711016 L -0.54 0.697422 L -0.53 0.683398 L -0.52 0.668984 L -0.51 0.654297 L -0.5 0.639336 L -0.49 0.624219 L -0.48 0.608906 L -0.47 0.593516 L -0.45 0.5625 L -0.44 0.546953 L -0.42 0.515938 L -0.41 0.500508 L -0.4 0.485156 L -0.39 0.469883 L -0.38 0.454727 L -0.37 0.439687 L -0.36 0.424766 L -0.35 0.409961 L -0.34 0.395352 L -0.33 0.380859 L -0.32 0.366563 L -0.31 0.352422 L -0.3 0.338437 L -0.29 0.324609 L -0.28 0.311016 L -0.27 0.297539 L -0.26 0.284258 L -0.25 0.271172 L -0.24 0.258281 L -0.23 0.245547 L -0.22 0.233008 L -0.21 0.220625 L -0.2 0.208477 L -0.19 0.196445 L -0.18 0.184609 L -0.17 0.172969 L -0.16 0.161523 L -0.15 0.150195 L -0.14 0.139063 L -0.13 0.128125 L -0.12 0.117305 L -0.11 0.10668 L -0.1 0.0962109 L -0.09 0.0859375 L -0.08 0.0757812 L -0.07 0.0657813 L -0.06 0.0559375 L -0.05 0.04625 L -0.04 0.0367187 L -0.03 0.0273438 L -0.02 0.0180859 L -0.01 0.00898437 L 0.01 -0.00898438 L 0.02 -0.0180859 L 0.03 -0.0273438 L 0.04 -0.0367187 L 0.05 -0.04625 L 0.06 -0.0559375 L 0.07 -0.0657813 L 0.08 -0.0757812 L 0.09 -0.0859375 L 0.1 -0.0962109 L 0.11 -0.10668 L 0.12 -0.117305 L 0.13 -0.128125 L 0.14 -0.139063 L 0.15 -0.150195 L 0.16 -0.161523 L 0.17 -0.172969 L 0.18 -0.184609 L 0.19 -0.196445 L 0.2 -0.208477 L 0.21 -0.220625 L 0.22 -0.233008 L 0.23 -0.245547 L 0.24 -0.258281 L 0.25 -0.271172 L 0.26 -0.284258 L 0.27 -0.297539 L 0.28 -0.311016 L 0.29 -0.324609 L 0.3 -0.338437 L 0.31 -0.352422 L 0.32 -0.366563 L 0.33 -0.380859 L 0.34 -0.395352 L 0.35 -0.409961 L 0.36 -0.424766 L 0.37 -0.439688 L 0.38 -0.454727 L 0.39 -0.469883 L 0.4 -0.485156 L 0.41 -0.500508 L 0.42 -0.515938 L 0.44 -0.546953 L 0.45 -0.5625 L 0.47 -0.593516 L 0.48 -0.608906 L 0.49 -0.624219 L 0.5 -0.639336 L 0.51 -0.654297 L 0.52 -0.668984 L 0.53 -0.683398 L 0.54 -0.697422 L 0.55 -0.711016 L 0.56 -0.724141 L 0.57 -0.73668 L 0.58 -0.748555 L 0.59 -0.759648 L 0.6 -0.769922 L 0.61 -0.77918 L 0.62 -0.787383 L 0.63 -0.794375 L 0.64 -0.8 L 0.65 -0.804141 L 0.66 -0.806602 L 0.67 -0.807227 L 0.68 -0.805859 L 0.69 -0.802344 L 0.7 -0.796406 L 0.71 -0.78793 L 0.72 -0.776641 L 0.73 -0.762383 L 0.74 -0.744961 L 0.75 -0.724141 L 0.76 -0.699727 L 0.77 -0.671523 L 0.78 -0.639336 L 0.79 -0.603047 L 0.8 -0.5625 L 0.81 -0.517578 L 0.82 -0.468203 L 0.83 -0.414297 L 0.84 -0.355938 L 0.85 -0.293086 L 0.86 -0.225938 L 0.87 -0.154531 L 0.88 -0.0791406 L 0.89 0 L 0.9 0.0825781 L 0.91 0.168203 L 0.92 0.256523 L 0.93 0.347031 L 0.94 0.439258 L 0.95 0.532695 L 0.96 0.626875 L 0.97 0.721172 L 0.98 0.815156 L 0.99 0.908242 L 1 1 L 1.01 1.089922 L 1.02 1.177617 L 1.03 1.262695 L 1.04 1.344844 L 1.05 1.423711 L 1.06 1.49918 L 1.07 1.570977 L 1.08 1.638984 L 1.09 1.703125 L 1.1 1.763359 L 1.11 1.819687 L 1.12 1.872109 L 1.13 1.920664 L 1.14 1.965508 L 1.15 2.006719 L 1.16 2.044375 L 1.17 2.078672 L 1.18 2.109727 L 1.19 2.137734 L 1.2 2.162773 L 1.21 2.185117 L 1.22 2.204805 L 1.23 2.222109 L 1.24 2.237109 L 1.25 2.25 L 1.26 2.260898 L 1.27 2.27 L 1.28 2.277383 L 1.29 2.283203 L 1.3 2.287539 L 1.31 2.290586 L 1.32 2.292422 L 1.33 2.293086 L 1.34 2.292773 L 1.35 2.291523 L 1.36 2.289414 L 1.37 2.286523 L 1.38 2.28293 L 1.39 2.278672 L 1.4 2.273867 L 1.41 2.268555 L 1.42 2.262773 L 1.43 2.256563 L 1.44 2.25 L 1.45 2.243086 L 1.46 2.235898 L 1.47 2.228438 L 1.48 2.220742 L 1.49 2.212891 L 1.5 2.204805 L 1.51 2.196641 L 1.52 2.188281 L 1.53 2.179883 L 1.54 2.171367 L 1.56 2.15418 L 1.57 2.145508 L 1.58 2.136797 L 1.59 2.128125 L 1.61 2.110703 L 1.63 2.093359 L 1.64 2.084727 L 1.66 2.067617 L 1.67 2.059102 L 1.68 2.050664 L 1.69 2.042305 L 1.7 2.033984 L 1.71 2.025703 L 1.72 2.017539 L 1.73 2.009414 L 1.74 2.001367 L 1.75 1.993359 L 1.76 1.985469 L 1.77 1.977656 L 1.78 1.969922 L 1.79 1.962227 L 1.8 1.954648 L 1.81 1.947148 L 1.82 1.939727 L 1.83 1.932383 L 1.84 1.925117 L 1.85 1.91793 L 1.86 1.91082 L 1.87 1.903789 L 1.88 1.896875 L 1.89 1.89 L 1.9 1.883203 L 1.91 1.876523 L 1.92 1.869883 L 1.93 1.863359 L 1.94 1.856875 L 1.95 1.850508 L 1.96 1.84418 L 1.97 1.83793 L 1.98 1.831758 L 1.99 1.825703 L 2 1.819687 L 2.01 1.813711 L 2.02 1.807852 L 2.03 1.80207 L 2.04 1.796328 L 2.05 1.790664 L 2.06 1.785078 L 2.07 1.779531 L 2.09 1.768672 L 2.1 1.763359 L 2.11 1.758086 L 2.12 1.752891 L 2.13 1.747734 L 2.14 1.742656 L 2.15 1.737656 L 2.16 1.732695 L 2.17 1.727812 L 2.18 1.722969 L 2.19 1.718164 L 2.2 1.713437 L 2.21 1.70875 L 2.22 1.704141 L 2.23 1.69957 L 2.24 1.695078 L 2.25 1.690625 L 2.26 1.686211 L 2.27 1.681836 L 2.28 1.677539 L 2.29 1.673281 L 2.3 1.669062 L 2.32 1.660781 L 2.33 1.656719 L 2.34 1.652695 L 2.35 1.648711 L 2.37 1.640898 L 2.39 1.633242 L 2.4 1.629492 L 2.41 1.625781 L 2.42 1.622109 L 2.44 1.614844 L 2.45 1.611289 L 2.46 1.607773 L 2.47 1.604297 L 2.49 1.597422 L 2.51 1.590703 L 2.53 1.584141 L 2.54 1.580898 L 2.55 1.577695 L 2.56 1.574531 L 2.57 1.571406 L 2.59 1.565234 L 2.6 1.562188 L 2.61 1.55918 L 2.63 1.553242 L 2.66 1.54457 L 2.68 1.538945 L 2.7 1.533398 L 2.73 1.525313 L 2.76 1.517461 L 2.77 1.514883 L 2.78 1.512344 L 2.81 1.504844 L 2.82 1.502383 L 2.83 1.499961 L 2.86 1.492812 L 2.87 1.490469 L 2.89 1.485859 L 2.91 1.481328 L 2.93 1.476875 L 2.95 1.4725 L 2.97 1.468203 L 3 1.461875 L 3.01 1.459844 L 3.02 1.457773 L 3.03 1.455742 L 3.06 1.449766 L 3.09 1.443906 L 3.1 1.442031 L 3.11 1.440117 L 3.13 1.436367 L 3.16 1.430859 L 3.18 1.427266 L 3.19 1.425508 L 3.2 1.423711 L 3.21 1.421992 L 3.22 1.420234 L 3.23 1.418516 L 3.24 1.416836 L 3.25 1.415117 L 3.26 1.413437 L 3.27 1.411797 L 3.28 1.410117 L 3.29 1.408477 L 3.3 1.406875 L 3.31 1.405234 L 3.32 1.403633 L 3.33 1.40207 L 3.34 1.400469 L 3.36 1.397344 L 3.4 1.39125 L 3.43 1.386797 L 3.47 1.381016 L 3.51 1.375391 L 3.55 1.369922 L 3.58 1.365938 L 3.59 1.364648 L 3.6 1.36332 L 3.62 1.360742 L 3.63 1.359492 L 3.64 1.358203 L 3.67 1.354453 L 3.68 1.353242 L 3.69 1.351992 L 3.72 1.348359 L 3.78 1.341328 L 3.82 1.336797 L 3.84 1.334609 L 3.85 1.333477 L 3.86 1.332383 L 3.87 1.331328 L 3.89 1.329141 L 3.93 1.324922 L 3.94 1.323906 L 3.95 1.322852 L 3.99 1.318789 L 4 1.317813 L 4.01 1.316797 L 4.06 1.311914 L 4.07 1.310977 L 4.08 1.31 L 4.13 1.305312 L 4.15 1.303516 L 4.16 1.302578 L 4.19 1.299883 L 4.2 1.299023 L 4.21 1.298125 L 4.22 1.297266 L 4.23 1.296367 L 4.27 1.29293 L 4.28 1.292109 L 4.29 1.29125 L 4.3 1.29043 L 4.31 1.28957 L 4.35 1.286289 L 4.36 1.285508 L 4.38 1.283867 L 4.45 1.278398 L 4.46 1.277656 L 4.47 1.276875 L 4.48 1.276133 L 4.49 1.275352 L 4.54 1.271641 L 4.55 1.270938 L 4.56 1.270195 L 4.57 1.269492 L 4.58 1.26875 L 4.65 1.263828 L 4.66 1.263164 L 4.67 1.262461 L 4.68 1.261797 L 4.69 1.261094 L 4.76 1.256445 L 4.77 1.25582 L 4.78 1.255156 L 4.79 1.254531 L 4.8 1.253867 L 4.82 1.252617 L 4.83 1.251953 L 4.86 1.250078 L 4.87 1.249492 L 4.9 1.247617 L 4.91 1.247031 L 4.92 1.246406 L 4.94 1.245234 L 4.95 1.244609 L 5 1.24168 " transform="matrix(100,0,0,-100,500,300)"/>
</g>
</svg>
