<?xml version="1.0" encoding="UTF-8"?>
<svg xmlns="http://www.w3.org/2000/svg" xmlns:xlink="http://www.w3.org/1999/xlink" width="1000pt" height="400pt" viewBox="0 0 1000 400" version="1.1">
<g id="surface76">
<rect x="0" y="0" width="1000" height="400" style="fill:rgb(0%,0%,0%);fill-opacity:1;stroke:none;"/>
<path style="fill:none;stroke-width:0.01;stroke-linecap:butt;stroke-linejoin:miter;stroke:rgb(100%,100%,100%);stroke-opacity:0.5;stroke-miterlimit:10;" d="M -5 -2 L -5 2 " transform="matrix(100,0,0,-100,500,200)"/>
<path style="fill:none;stroke-width:0.01;stroke-linecap:butt;stroke-linejoin:miter;stroke:rgb(100%,100%,100%);stroke-opacity:0.5;stroke-miterlimit:10;" d="M -4 -2 L -4 2 " transform="matrix(100,0,0,-100,500,200)"/>
<path style="fill:none;stroke-width:0.01;stroke-linecap:butt;stroke-linejoin:miter;stroke:rgb(100%,100%,100%);stroke-opacity:0.5;stroke-miterlimit:10;" d="M -3 -2 L -3 2 " transform="matrix(100,0,0,-100,500,200)"/>
<path style="fill:none;stroke-width:0.01;stroke-linecap:butt;stroke-linejoin:miter;stroke:rgb(100%,100%,100%);stroke-opacity:0.5;stroke-miterlimit:10;" d="M -2 -2 L -2 2 " transform="matrix(100,0,0,-100,500,200)"/>
<path style="fill:none;stroke-width:0.01;stroke-linecap:butt;stroke-linejoin:miter;stroke:rgb(100%,100%,100%);stroke-opacity:0.5;stroke-miterlimit:10;" d="M -1 -2 L -1 2 " transform="matrix(100,0,0,-100,500,200)"/>
<path style="fill:none;stroke-width:0.01;stroke-linecap:butt;stroke-linejoin:miter;stroke:rgb(100%,100%,100%);stroke-opacity:1;stroke-miterlimit:10;" d="M 0 -2 L 0 2 " transform="matrix(100,0,0,-100,500,200)"/>
<path style="fill:none;stroke-width:0.01;stroke-linecap:butt;stroke-linejoin:miter;stroke:rgb(100%,100%,100%);stroke-opacity:0.5;stroke-miterlimit:10;" d="M 1 -2 L 1 2 " transform="matrix(100,0,0,-100,500,200)"/>
<path style="fill:none;stroke-width:0.01;stroke-linecap:butt;stroke-linejoin:miter;stroke:rgb(100%,100%,100%);stroke-opacity:0.5;stroke-miterlimit:10;" d="M 2 -2 L 2 2 " transform="matrix(100,0,0,-100,500,200)"/>
<path style="fill:none;stroke-width:0.01;stroke-linecap:butt;stroke-linejoin:miter;stroke:rgb(100%,100%,100%);stroke-opacity:0.5;stroke-miterlimit:10;" d="M 3 -2 L 3 2 " transform="matrix(100,0,0,-100,500,200)"/>
<path style="fill:none;stroke-width:0.01;stroke-linecap:butt;stroke-linejoin:miter;stroke:rgb(100%,100%,100%);stroke-opacity:0.5;stroke-miterlimit:10;" d="M 4 -2 L 4 2 " transform="matrix(100,0,0,-100,500,200)"/>
<path style="fill:none;stroke-width:0.01;stroke-linecap:butt;stroke-linejoin:miter;stroke:rgb(100%,100%,100%);stroke-opacity:0.5;stroke-miterlimit:10;" d="M 5 -2 L 5 2 " transform="matrix(100,0,0,-100,500,200)"/>
<path style="fill:none;stroke-width:0.005;stroke-linecap:butt;stroke-linejoin:miter;stroke:rgb(100%,100%,100%);stroke-opacity:0.25;stroke-miterlimit:10;" d="M -4.75 -2 L -4.75 2 " transform="matrix(100,0,0,-100,500,200)"/>
<path style="fill:none;stroke-width:0.005;stroke-linecap:butt;stroke-linejoin:miter;stroke:rgb(100%,100%,100%);stroke-opacity:0.25;stroke-miterlimit:10;" d="M -4.5 -2 L -4.5 2 " transform="matrix(100,0,0,-100,500,200)"/>
<path style="fill:none;stroke-width:0.005;stroke-linecap:butt;stroke-linejoin:miter;stroke:rgb(100%,100%,100%);stroke-opacity:0.25;stroke-miterlimit:10;" d="M -4.25 -2 L -4.25 2 " transform="matrix(100,0,0,-100,500,200)"/>
<path style="fill:none;stroke-width:0.005;stroke-linecap:butt;stroke-linejoin:miter;stroke:rgb(100%,100%,100%);stroke-opacity:0.25;stroke-miterlimit:10;" d="M -3.75 -2 L -3.75 2 " transform="matrix(100,0,0,-100,500,200)"/>
<path style="fill:none;stroke-width:0.005;stroke-linecap:butt;stroke-linejoin:miter;stroke:rgb(100%,100%,100%);stroke-opacity:0.25;stroke-miterlimit:10;" d="M -3.5 -2 L -3.5 2 " transform="matrix(100,0,0,-100,500,200)"/>
<path style="fill:none;stroke-width:0.005;stroke-linecap:butt;stroke-linejoin:miter;stroke:rgb(100%,100%,100%);stroke-opacity:0.25;stroke-miterlimit:10;" d="M -3.25 -2 L -3.25 2 " transform="matrix(100,0,0,-100,500,200)"/>
<path style="fill:none;stroke-width:0.005;stroke-linecap:butt;stroke-linejoin:miter;stroke:rgb(100%,100%,100%);stroke-opacity:0.25;stroke-miterlimit:10;" d="M -2.75 -2 L -2.75 2 " transform="matrix(100,0,0,-100,500,200)"/>
<path style="fill:none;stroke-width:0.005;stroke-linecap:butt;stroke-linejoin:miter;stroke:rgb(100%,100%,100%);stroke-opacity:0.25;stroke-miterlimit:10;" d="M -2.5 -2 L -2.5 2 " transform="matrix(100,0,0,-100,500,200)"/>
<path style="fill:none;stroke-width:0.005;stroke-linecap:butt;stroke-linejoin:miter;stroke:rgb(100%,100%,100%);stroke-opacity:0.25;stroke-miterlimit:10;" d="M -2.25 -2 L -2.25 2 " transform="matrix(100,0,0,-100,500,200)"/>
<path style="fill:none;stroke-width:0.005;stroke-linecap:butt;stroke-linejoin:miter;stroke:rgb(100%,100%,100%);stroke-opacity:0.25;stroke-miterlimit:10;" d="M -1.75 -2 L -1.75 2 " transform="matrix(100,0,0,-100,500,200)"/>
<path style="fill:none;stroke-width:0.005;stroke-linecap:butt;stroke-linejoin:miter;stroke:rgb(100%,100%,100%);stroke-opacity:0.25;stroke-miterlimit:10;" d="M -1.5 -2 L -1.5 2 " transform="matrix(100,0,0,-100,500,200)"/>
<path style="fill:none;stroke-width:0.005;stroke-linecap:butt;stroke-linejoin:miter;stroke:rgb(100%,100%,100%);stroke-opacity:0.25;stroke-miterlimit:10;" d="M -1.25 -2 L -1.25 2 " transform="matrix(100,0,0,-100,500,200)"/>
<path style="fill:none;stroke-width:0.005;stroke-linecap:butt;stroke-linejoin:miter;stroke:rgb(100%,100%,100%);stroke-opacity:0.25;stroke-miterlimit:10;" d="M -0.75 -2 L -0.75 2 " transform="matrix(100,0,0,-100,500,200)"/>
<path style="fill:none;stroke-width:0.005;stroke-linecap:butt;stroke-linejoin:miter;stroke:rgb(100%,100%,100%);stroke-opacity:0.25;stroke-miterlimit:10;" d="M -0.5 -2 L -0.5 2 " transform="matrix(100,0,0,-100,500,200)"/>
<path style="fill:none;stroke-width:0.005;stroke-linecap:butt;stroke-linejoin:miter;stroke:rgb(100%,100%,100%);stroke-opacity:0.25;stroke-miterlimit:10;" d="M -0.25 -2 L -0.25 2 " transform="matrix(100,0,0,-100,500,200)"/>
<path style="fill:none;stroke-width:0.005;stroke-linecap:butt;stroke-linejoin:miter;stroke:rgb(100%,100%,100%);stroke-opacity:0.25;stroke-miterlimit:10;" d="M 0.25 -2 L 0.25 2 " transform="matrix(100,0,0,-100,500,200)"/>
<path style="fill:none;stroke-width:0.005;stroke-linecap:butt;stroke-linejoin:miter;stroke:rgb(100%,100%,100%);stroke-opacity:0.25;stroke-miterlimit:10;" d="M 0.5 -2 L 0.5 2 " transform="matrix(100,0,0,-100,500,200)"/>
<path style="fill:none;stroke-width:0.005;stroke-linecap:butt;stroke-linejoin:miter;stroke:rgb(100%,100%,100%);stroke-opacity:0.25;stroke-miterlimit:10;" d="M 0.75 -2 L 0.75 2 " transform="matrix(100,0,0,-100,500,200)"/>
<path style="fill:none;stroke-width:0.005;stroke-linecap:butt;stroke-linejoin:miter;stroke:rgb(100%,100%,100%);stroke-opacity:0.25;stroke-miterlimit:10;" d="M 1.25 -2 L 1.25 2 " transform="matrix(100,0,0,-100,500,200)"/>
<path style="fill:none;stroke-width:0.005;stroke-linecap:butt;stroke-linejoin:miter;stroke:rgb(100%,100%,100%);stroke-opacity:0.25;stroke-miterlimit:10;" d="M 1.5 -2 L 1.5 2 " transform="matrix(100,0,0,-100,500,200)"/>
<path style="fill:none;stroke-width:0.005;stroke-linecap:butt;stroke-linejoin:miter;stroke:rgb(100%,100%,100%);stroke-opacity:0.25;stroke-miterlimit:10;" d="M 1.75 -2 L 1.75 2 " transform="matrix(100,0,0,-100,500,200)"/>
<path style="fill:none;stroke-width:0.005;stroke-linecap:butt;stroke-linejoin:miter;stroke:rgb(100%,100%,100%);stroke-opacity:0.25;stroke-miterlimit:10;" d="M 2.25 -2 L 2.25 2 " transform="matrix(100,0,0,-100,500,200)"/>
<path style="fill:none;stroke-width:0.005;stroke-linecap:butt;stroke-linejoin:miter;stroke:rgb(100%,100%,100%);stroke-opacity:0.25;stroke-miterlimit:10;" d="M 2.5 -2 L 2.5 2 " transform="matrix(100,0,0,-100,500,200)"/>
<path style="fill:none;stroke-width:0.005;stroke-linecap:butt;stroke-linejoin:miter;stroke:rgb(100%,100%,100%);stroke-opacity:0.25;stroke-miterlimit:10;" d="M 2.75 -2 L 2.75 2 " transform="matrix(100,0,0,-100,500,200)"/>
<path style="fill:none;stroke-width:0.005;stroke-linecap:butt;stroke-linejoin:miter;stroke:rgb(100%,100%,100%);stroke-opacity:0.25;stroke-miterlimit:10;" d="M 3.25 -2 L 3.25 2 " transform="matrix(100,0,0,-100,500,200)"/>
<path style="fill:none;stroke-width:0.005;stroke-linecap:butt;stroke-linejoin:miter;stroke:rgb(100%,100%,100%);stroke-opacity:0.25;stroke-miterlimit:10;" d="M 3.5 -2 L 3.5 2 " transform="matrix(100,0,0,-100,500,200)"/>
<path style="fill:none;stroke-width:0.005;stroke-linecap:butt;stroke-linejoin:miter;stroke:rgb(100%,100%,100%);stroke-opacity:0.25;stroke-miterlimit:10;" d="M 3.75 -2 L 3.75 2 " transform="matrix(100,0,0,-100,500,200)"/>
<path style="fill:none;stroke-width:0.005;stroke-linecap:butt;stroke-linejoin:miter;stroke:rgb(100%,100%,100%);stroke-opacity:0.25;stroke-miterlimit:10;" d="M 4.25 -2 L 4.25 2 " transform="matrix(100,0,0,-100,500,200)"/>
<path style="fill:none;stroke-width:0.005;stroke-linecap:butt;stroke-linejoin:miter;stroke:rgb(100%,100%,100%);stroke-opacity:0.25;stroke-miterlimit:10;" d="M 4.5 -2 L 4.5 2 " transform="matrix(100,0,0,-100,500,200)"/>
<path style="fill:none;stroke-width:0.005;stroke-linecap:butt;stroke-linejoin:miter;stroke:rgb(100%,100%,100%);stroke-opacity:0.25;stroke-miterlimit:10;" d="M 4.75 -2 L 4.75 2 " transform="matrix(100,0,0,-100,500,200)"/>
<path style="fill:none;stroke-width:0.01;stroke-linecap:butt;stroke-linejoin:miter;stroke:rgb(100%,100%,100%);stroke-opacity:0.5;stroke-miterlimit:10;" d="M -5 -2 L 5 -2 " transform="matrix(100,0,0,-100,500,200)"/>
<path style="fill:none;stroke-width:0.01;stroke-linecap:butt;stroke-linejoin:miter;stroke:rgb(100%,100%,100%);stroke-opacity:0.5;stroke-miterlimit:10;" d="M -5 -1 L 5 -1 " transform="matrix(100,0,0,-100,500,200)"/>
<path style="fill:none;stroke-width:0.01;stroke-linecap:butt;stroke-linejoin:miter;stroke:rgb(100%,100%,100%);stroke-opacity:1;stroke-miterlimit:10;" d="M -5 0 L 5 0 " transform="matrix(100,0,0,-100,500,200)"/>
<path style="fill:none;stroke-width:0.01;stroke-linecap:butt;stroke-linejoin:miter;stroke:rgb(100%,100%,100%);stroke-opacity:0.5;stroke-miterlimit:10;" d="M -5 1 L 5 1 " transform="matrix(100,0,0,-100,500,200)"/>
<path style="fill:none;stroke-width:0.01;stroke-linecap:butt;stroke-linejoin:miter;stroke:rgb(100%,100%,100%);stroke-opacity:0.5;stroke-miterlimit:10;" d="M -5 2 L 5 2 " transform="matrix(100,0,0,-100,500,200)"/>
<path style="fill:none;stroke-width:0.005;stroke-linecap:butt;stroke-linejoin:miter;stroke:rgb(100%,100%,100%);stroke-opacity:0.25;stroke-miterlimit:10;" d="M -5 -1.75 L 5 -1.75 " transform="matrix(100,0,0,-100,500,200)"/>
<path style="fill:none;stroke-width:0.005;stroke-linecap:butt;stroke-linejoin:miter;stroke:rgb(100%,100%,100%);stroke-opacity:0.25;stroke-miterlimit:10;" d="M -5 -1.5 L 5 -1.5 " transform="matrix(100,0,0,-100,500,200)"/>
<path style="fill:none;stroke-width:0.005;stroke-linecap:butt;stroke-linejoin:miter;stroke:rgb(100%,100%,100%);stroke-opacity:0.25;stroke-miterlimit:10;" d="M -5 -1.25 L 5 -1.25 " transform="matrix(100,0,0,-100,500,200)"/>
<path style="fill:none;stroke-width:0.005;stroke-linecap:butt;stroke-linejoin:miter;stroke:rgb(100%,100%,100%);stroke-opacity:0.25;stroke-miterlimit:10;" d="M -5 -0.75 L 5 -0.75 " transform="matrix(100,0,0,-100,500,200)"/>
<path style="fill:none;stroke-width:0.005;stroke-linecap:butt;stroke-linejoin:miter;stroke:rgb(100%,100%,100%);stroke-opacity:0.25;stroke-miterlimit:10;" d="M -5 -0.5 L 5 -0.5 " transform="matrix(100,0,0,-100,500,200)"/>
<path style="fill:none;stroke-width:0.005;stroke-linecap:butt;stroke-linejoin:miter;stroke:rgb(100%,100%,100%);stroke-opacity:0.25;stroke-miterlimit:10;" d="M -5 -0.25 L 5 -0.25 " transform="matrix(100,0,0,-100,500,200)"/>
<path style="fill:none;stroke-width:0.005;stroke-linecap:butt;stroke-linejoin:miter;stroke:rgb(100%,100%,100%);stroke-opacity:0.25;stroke-miterlimit:10;" d="M -5 0.25 L 5 0.25 " transform="matrix(100,0,0,-100,500,200)"/>
<path style="fill:none;stroke-width:0.005;stroke-linecap:butt;stroke-linejoin:miter;stroke:rgb(100%,100%,100%);stroke-opacity:0.25;stroke-miterlimit:10;" d="M -5 0.5 L 5 0.5 " transform="matrix(100,0,0,-100,500,200)"/>
<path style="fill:none;stroke-width:0.005;stroke-linecap:butt;stroke-linejoin:miter;stroke:rgb(100%,100%,100%);stroke-opacity:0.25;stroke-miterlimit:10;" d="M -5 0.75 L 5 0.75 " transform="matrix(100,0,0,-100,500,200)"/>
<path style="fill:none;stroke-width:0.005;stroke-linecap:butt;stroke-linejoin:miter;stroke:rgb(100%,100%,100%);stroke-opacity:0.25;stroke-miterlimit:10;" d="M -5 1.25 L 5 1.25 " transform="matrix(100,0,0,-100,500,200)"/>
<path style="fill:none;stroke-width:0.005;stroke-linecap:butt;stroke-linejoin:miter;stroke:rgb(100%,100%,100%);stroke-opacity:0.25;stroke-miterlimit:10;" d="M -5 1.5 L 5 1.5 " transform="matrix(100,0,0,-100,500,200)"/>
<path style="fill:none;stroke-width:0.005;stroke-linecap:butt;stroke-linejoin:miter;stroke:rgb(100%,100%,100%);stroke-opacity:0.25;stroke-miterlimit:10;" d="M -5 1.75 L 5 1.75 " transform="matrix(100,0,0,-100,500,200)"/>
<path style="fill:none;stroke-width:0.03;stroke-linecap:butt;stroke-linejoin:miter;stroke:rgb(87.058824%,29.803922%,71.764706%);stroke-opacity:1;stroke-miterlimit:10;" d="M -5 0.983789 L -4.99 0.983711 L -4.98 0.983672 L -4.96 0.983516 L -4.95 0.983477 L -4.92 0.983242 L -4.91 0.983203 L -4.88 0.982969 L -4.87 0.98293 L -4.83 0.982617 L -4.82 0.982578 L -4.58 0.980703 L -4.57 0.980586 L -4.53 0.980273 L -4.52 0.980156 L -4.49 0.979922 L -4.48 0.979805 L -4.46 0.979648 L -4.45 0.979531 L -4.43 0.979375 L -4.42 0.979258 L -4.41 0.97918 L -4.4 0.979062 L -4.39 0.978984 L -4.38 0.978867 L -4.37 0.978789 L -4.36 0.978672 L -4.35 0.978594 L -4.34 0.978477 L -4.33 0.978398 L -4.32 0.978281 L -4.31 0.978203 L -4.29 0.977969 L -4.28 0.977891 L -4.27 0.977773 L -4.26 0.977695 L -4.23 0.977344 L -4.22 0.977266 L -4.18 0.976797 L -4.17 0.976719 L -4.04 0.975195 L -4.03 0.975039 L -3.99 0.97457 L -3.98 0.974414 L -3.96 0.97418 L -3.95 0.974023 L -3.93 0.973789 L -3.92 0.973633 L -3.91 0.973516 L -3.9 0.973359 L -3.89 0.973242 L -3.88 0.973086 L -3.87 0.972969 L -3.85 0.972656 L -3.84 0.972539 L -3.82 0.972227 L -3.81 0.972109 L -3.77 0.971484 L -3.76 0.971367 L -3.69 0.970273 L -3.68 0.970078 L -3.64 0.969453 L -3.63 0.969258 L -3.62 0.969102 L -3.61 0.968906 L -3.59 0.968594 L -3.58 0.968398 L -3.57 0.968242 L -3.55 0.967852 L -3.54 0.967695 L -3.52 0.967305 L -3.51 0.967148 L -3.41 0.965195 L -3.4 0.964961 L -3.38 0.96457 L -3.37 0.964336 L -3.36 0.964141 L -3.35 0.963906 L -3.34 0.963711 L -3.33 0.963477 L -3.32 0.963281 L -3.3 0.962813 L -3.29 0.962617 L -3.22 0.960977 L -3.21 0.960703 L -3.19 0.960234 L -3.18 0.959961 L -3.17 0.959727 L -3.16 0.959453 L -3.15 0.959219 L -3.13 0.958672 L -3.12 0.958438 L -3.06 0.956797 L -3.05 0.956484 L -3.03 0.955937 L -3.02 0.955625 L -3.01 0.955352 L -2.99 0.954727 L -2.98 0.954453 L -2.93 0.952891 L -2.92 0.952539 L -2.9 0.951914 L -2.89 0.951563 L -2.88 0.95125 L -2.8 0.948438 L -2.79 0.948047 L -2.78 0.947695 L -2.71 0.944961 L -2.7 0.944531 L -2.69 0.944141 L -2.67 0.943281 L -2.66 0.942891 L -2.65 0.942461 L -2.64 0.941992 L -2.62 0.941133 L -2.61 0.940664 L -2.6 0.940234 L -2.56 0.938359 L -2.55 0.937852 L -2.54 0.937383 L -2.53 0.936875 L -2.52 0.936406 L -2.5 0.935391 L -2.49 0.934844 L -2.47 0.933828 L -2.43 0.931641 L -2.42 0.931055 L -2.41 0.930508 L -2.37 0.928164 L -2.36 0.927539 L -2.35 0.926953 L -2.33 0.925703 L -2.32 0.925039 L -2.31 0.924414 L -2.27 0.921758 L -2.23 0.918945 L -2.22 0.918203 L -2.21 0.9175 L -2.2 0.916758 L -2.19 0.915977 L -2.18 0.915234 L -2.15 0.912891 L -2.12 0.91043 L -2.08 0.906992 L -2.05 0.904297 L -2.02 0.901484 L -2 0.899531 L -1.96 0.895469 L -1.95 0.894414 L -1.92 0.891133 L -1.89 0.887734 L -1.88 0.886562 L -1.85 0.88293 L -1.84 0.88168 L -1.81 0.877812 L -1.79 0.875156 L -1.78 0.87375 L -1.77 0.872383 L -1.76 0.870977 L -1.75 0.869531 L -1.72 0.865078 L -1.69 0.860391 L -1.66 0.855469 L -1.64 0.852031 L -1.62 0.848516 L -1.6 0.844844 L -1.59 0.842969 L -1.58 0.841055 L -1.57 0.839102 L -1.56 0.837109 L -1.54 0.833047 L -1.52 0.828828 L -1.51 0.82668 L -1.49 0.822227 L -1.47 0.817617 L -1.46 0.815234 L -1.45 0.812812 L -1.44 0.810352 L -1.43 0.807852 L -1.42 0.805312 L -1.4 0.800078 L -1.39 0.797383 L -1.37 0.791836 L -1.36 0.788984 L -1.35 0.786055 L -1.34 0.783086 L -1.33 0.780078 L -1.32 0.776992 L -1.31 0.773867 L -1.3 0.770664 L -1.29 0.767383 L -1.28 0.764062 L -1.27 0.760664 L -1.26 0.757227 L -1.25 0.753672 L -1.24 0.750078 L -1.23 0.746445 L -1.22 0.742695 L -1.21 0.738867 L -1.2 0.735 L -1.19 0.731055 L -1.18 0.726992 L -1.17 0.722891 L -1.16 0.718672 L -1.15 0.714375 L -1.14 0.71 L -1.13 0.705547 L -1.12 0.701016 L -1.11 0.696406 L -1.1 0.69168 L -1.09 0.686836 L -1.08 0.681953 L -1.07 0.676914 L -1.06 0.671836 L -1.05 0.666641 L -1.04 0.661328 L -1.03 0.655938 L -1.02 0.65043 L -1.01 0.644805 L -1 0.639102 L -0.99 0.633281 L -0.98 0.627344 L -0.97 0.621289 L -0.96 0.615156 L -0.95 0.608906 L -0.94 0.602539 L -0.93 0.596055 L -0.92 0.589453 L -0.91 0.582773 L -0.9 0.575937 L -0.89 0.569023 L -0.88 0.561953 L -0.87 0.554805 L -0.86 0.547539 L -0.85 0.540156 L -0.84 0.532695 L -0.83 0.525078 L -0.82 0.517383 L -0.81 0.509609 L -0.8 0.50168 L -0.79 0.493672 L -0.78 0.485586 L -0.77 0.477383 L -0.76 0.469062 L -0.75 0.460703 L -0.74 0.452227 L -0.73 0.443672 L -0.72 0.435078 L -0.71 0.426367 L -0.7 0.417617 L -0.69 0.408789 L -0.68 0.399922 L -0.66 0.382031 L -0.64 0.363984 L -0.63 0.354922 L -0.61 0.336719 L -0.6 0.327656 L -0.59 0.318555 L -0.57 0.30043 L -0.55 0.282383 L -0.54 0.273438 L -0.53 0.264531 L -0.52 0.255703 L -0.51 0.246914 L -0.5 0.238203 L -0.49 0.229609 L -0.48 0.221055 L -0.47 0.212617 L -0.46 0.204297 L -0.45 0.196055 L -0.44 0.18793 L -0.43 0.179961 L -0.42 0.17207 L -0.41 0.164336 L -0.4 0.156758 L -0.39 0.149297 L -0.38 0.141992 L -0.37 0.134844 L -0.36 0.127852 L -0.35 0.121016 L -0.34 0.114336 L -0.33 0.107852 L -0.32 0.101523 L -0.31 0.0953906 L -0.3 0.0894141 L -0.29 0.0836328 L -0.28 0.0780078 L -0.27 0.0725781 L -0.26 0.0673438 L -0.25 0.0623047 L -0.24 0.0574609 L -0.23 0.0527734 L -0.22 0.0483203 L -0.21 0.0440234 L -0.2 0.0399609 L -0.19 0.0360547 L -0.18 0.0323828 L -0.17 0.0288672 L -0.16 0.0255859 L -0.15 0.0225 L -0.14 0.0196094 L -0.13 0.0169141 L -0.12 0.0144141 L -0.11 0.0121094 L -0.1 0.01 L -0.09 0.00808594 L -0.08 0.00640625 L -0.07 0.00488281 L -0.06 0.00359375 L -0.05 0.0025 L -0.04 0.00160156 L -0.03 0.000898437 L -0.02 0.000390625 L -0.01 0.000117187 L 0 0 L 0.01 0.000117187 L 0.02 0.000390625 L 0.03 0.000898437 L 0.04 0.00160156 L 0.05 0.0025 L 0.06 0.00359375 L 0.07 0.00488281 L 0.08 0.00640625 L 0.09 0.00808594 L 0.1 0.01 L 0.11 0.0121094 L 0.12 0.0144141 L 0.13 0.0169141 L 0.14 0.0196094 L 0.15 0.0225 L 0.16 0.0255859 L 0.17 0.0288672 L 0.18 0.0323828 L 0.19 0.0360547 L 0.2 0.0399609 L 0.21 0.0440234 L 0.22 0.0483203 L 0.23 0.0527734 L 0.24 0.0574609 L 0.25 0.0623047 L 0.26 0.0673438 L 0.27 0.0725781 L 0.28 0.0780078 L 0.29 0.0836328 L 0.3 0.0894141 L 0.31 0.0953906 L 0.32 0.101523 L 0.33 0.107852 L 0.34 0.114336 L 0.35 0.121016 L 0.36 0.127852 L 0.37 0.134844 L 0.38 0.141992 L 0.39 0.149297 L 0.4 0.156758 L 0.41 0.164336 L 0.42 0.17207 L 0.43 0.179961 L 0.44 0.18793 L 0.45 0.196055 L 0.46 0.204297 L 0.47 0.212617 L 0.48 0.221055 L 0.49 0.229609 L 0.5 0.238203 L 0.51 0.246914 L 0.52 0.255703 L 0.53 0.264531 L 0.54 0.273438 L 0.55 0.282383 L 0.57 0.30043 L 0.59 0.318555 L 0.6 0.327656 L 0.61 0.336719 L 0.63 0.354922 L 0.64 0.363984 L 0.66 0.382031 L 0.68 0.399922 L 0.69 0.408789 L 0.7 0.417617 L 0.71 0.426367 L 0.72 0.435078 L 0.73 0.443672 L 0.74 0.452227 L 0.75 0.460703 L 0.76 0.469062 L 0.77 0.477383 L 0.78 0.485586 L 0.79 0.493672 L 0.8 0.50168 L 0.81 0.509609 L 0.82 0.517383 L 0.83 0.525078 L 0.84 0.532695 L 0.85 0.540156 L 0.86 0.547539 L 0.87 0.554805 L 0.88 0.561953 L 0.89 0.569023 L 0.9 0.575937 L 0.91 0.582773 L 0.92 0.589453 L 0.93 0.596055 L 0.94 0.602539 L 0.95 0.608906 L 0.96 0.615156 L 0.97 0.621289 L 0.98 0.627344 L 0.99 0.633281 L 1 0.639102 L 1.01 0.644805 L 1.02 0.65043 L 1.03 0.655938 L 1.04 0.661328 L 1.05 0.666641 L 1.06 0.671836 L 1.07 0.676914 L 1.08 0.681953 L 1.09 0.686836 L 1.1 0.69168 L 1.11 0.696406 L 1.12 0.701016 L 1.13 0.705547 L 1.14 0.71 L 1.15 0.714375 L 1.16 0.718672 L 1.17 0.722891 L 1.18 0.726992 L 1.19 0.731055 L 1.2 0.735 L 1.21 0.738867 L 1.22 0.742695 L 1.23 0.746445 L 1.24 0.750078 L 1.25 0.753672 L 1.26 0.757227 L 1.27 0.760664 L 1.28 0.764062 L 1.29 0.767383 L 1.3 0.770664 L 1.31 0.773867 L 1.32 0.776992 L 1.33 0.780078 L 1.34 0.783086 L 1.35 0.786055 L 1.36 0.788984 L 1.37 0.791836 L 1.39 0.797383 L 1.4 0.800078 L 1.42 0.805312 L 1.43 0.807852 L 1.44 0.810352 L 1.45 0.812812 L 1.46 0.815234 L 1.47 0.817617 L 1.49 0.822227 L 1.51 0.82668 L 1.52 0.828828 L 1.54 0.833047 L 1.56 0.837109 L 1.57 0.839102 L 1.58 0.841055 L 1.59 0.842969 L 1.6 0.844844 L 1.62 0.848516 L 1.64 0.852031 L 1.66 0.855469 L 1.69 0.860391 L 1.72 0.865078 L 1.75 0.869531 L 1.76 0.870977 L 1.77 0.872383 L 1.78 0.87375 L 1.79 0.875156 L 1.81 0.877812 L 1.84 0.88168 L 1.85 0.88293 L 1.88 0.886562 L 1.89 0.887734 L 1.92 0.891133 L 1.95 0.894414 L 1.96 0.895469 L 2 0.899531 L 2.02 0.901484 L 2.05 0.904297 L 2.08 0.906992 L 2.12 0.91043 L 2.15 0.912891 L 2.18 0.915234 L 2.19 0.915977 L 2.2 0.916758 L 2.21 0.9175 L 2.22 0.918203 L 2.23 0.918945 L 2.27 0.921758 L 2.31 0.924414 L 2.32 0.925039 L 2.33 0.925703 L 2.35 0.926953 L 2.36 0.927539 L 2.37 0.928164 L 2.41 0.930508 L 2.42 0.931055 L 2.43 0.931641 L 2.47 0.933828 L 2.49 0.934844 L 2.5 0.935391 L 2.52 0.936406 L 2.53 0.936875 L 2.54 0.937383 L 2.55 0.937852 L 2.56 0.938359 L 2.6 0.940234 L 2.61 0.940664 L 2.62 0.941133 L 2.64 0.941992 L 2.65 0.942461 L 2.66 0.942891 L 2.67 0.943281 L 2.69 0.944141 L 2.7 0.944531 L 2.71 0.944961 L 2.78 0.947695 L 2.79 0.948047 L 2.8 0.948438 L 2.88 0.95125 L 2.89 0.951563 L 2.9 0.951914 L 2.92 0.952539 L 2.93 0.952891 L 2.98 0.954453 L 2.99 0.954727 L 3.01 0.955352 L 3.02 0.955625 L 3.03 0.955937 L 3.05 0.956484 L 3.06 0.956797 L 3.12 0.958438 L 3.13 0.958672 L 3.15 0.959219 L 3.16 0.959453 L 3.17 0.959727 L 3.18 0.959961 L 3.19 0.960234 L 3.21 0.960703 L 3.22 0.960977 L 3.29 0.962617 L 3.3 0.962813 L 3.32 0.963281 L 3.33 0.963477 L 3.34 0.963711 L 3.35 0.963906 L 3.36 0.964141 L 3.37 0.964336 L 3.38 0.96457 L 3.4 0.964961 L 3.41 0.965195 L 3.51 0.967148 L 3.52 0.967305 L 3.54 0.967695 L 3.55 0.967852 L 3.57 0.968242 L 3.58 0.968398 L 3.59 0.968594 L 3.61 0.968906 L 3.62 0.969102 L 3.63 0.969258 L 3.64 0.969453 L 3.68 0.970078 L 3.69 0.970273 L 3.76 0.971367 L 3.77 0.971484 L 3.81 0.972109 L 3.82 0.972227 L 3.84 0.972539 L 3.85 0.972656 L 3.87 0.972969 L 3.88 0.973086 L 3.89 0.973242 L 3.9 0.973359 L 3.91 0.973516 L 3.92 0.973633 L 3.93 0.973789 L 3.95 0.974023 L 3.96 0.97418 L 3.98 0.974414 L 3.99 0.97457 L 4.03 0.975039 L 4.04 0.975195 L 4.17 0.976719 L 4.18 0.976797 L 4.22 0.977266 L 4.23 0.977344 L 4.26 0.977695 L 4.27 0.977773 L 4.28 0.977891 L 4.29 0.977969 L 4.31 0.978203 L 4.32 0.978281 L 4.33 0.978398 L 4.34 0.978477 L 4.35 0.978594 L 4.36 0.978672 L 4.37 0.978789 L 4.38 0.978867 L 4.39 0.978984 L 4.4 0.979062 L 4.41 0.97918 L 4.42 0.979258 L 4.43 0.979375 L 4.45 0.979531 L 4.46 0.979648 L 4.48 0.979805 L 4.49 0.979922 L 4.52 0.980156 L 4.53 0.980273 L 4.57 0.980586 L 4.58 0.980703 L 4.82 0.982578 L 4.83 0.982617 L 4.87 0.98293 L 4.88 0.982969 L 4.91 0.983203 L 4.92 0.983242 L 4.95 0.983477 L 4.96 0.983516 L 4.98 0.983672 L 4.99 0.983711 L 5 0.983789 " transform="matrix(100,0,0,-100,500,200)"/>
</g>
</svg>
