<?xml version="1.0" encoding="UTF-8"?>
<svg xmlns="http://www.w3.org/2000/svg" xmlns:xlink="http://www.w3.org/1999/xlink" width="1000pt" height="400pt" viewBox="0 0 1000 400" version="1.1">
<g id="surface36">
<rect x="0" y="0" width="1000" height="400" style="fill:rgb(0%,0%,0%);fill-opacity:1;stroke:none;"/>
<path style="fill:none;stroke-width:0.01;stroke-linecap:butt;stroke-linejoin:miter;stroke:rgb(100%,100%,100%);stroke-opacity:0.5;stroke-miterlimit:10;" d="M -5 -2 L -5 2 " transform="matrix(100,0,0,-100,500,200)"/>
<path style="fill:none;stroke-width:0.01;stroke-linecap:butt;stroke-linejoin:miter;stroke:rgb(100%,100%,100%);stroke-opacity:0.5;stroke-miterlimit:10;" d="M -4 -2 L -4 2 " transform="matrix(100,0,0,-100,500,200)"/>
<path style="fill:none;stroke-width:0.01;stroke-linecap:butt;stroke-linejoin:miter;stroke:rgb(100%,100%,100%);stroke-opacity:0.5;stroke-miterlimit:10;" d="M -3 -2 L -3 2 " transform="matrix(100,0,0,-100,500,200)"/>
<path style="fill:none;stroke-width:0.01;stroke-linecap:butt;stroke-linejoin:miter;stroke:rgb(100%,100%,100%);stroke-opacity:0.5;stroke-miterlimit:10;" d="M -2 -2 L -2 2 " transform="matrix(100,0,0,-100,500,200)"/>
<path style="fill:none;stroke-width:0.01;stroke-linecap:butt;stroke-linejoin:miter;stroke:rgb(100%,100%,100%);stroke-opacity:0.5;stroke-miterlimit:10;" d="M -1 -2 L -1 2 " transform="matrix(100,0,0,-100,500,200)"/>
<path style="fill:none;stroke-width:0.01;stroke-linecap:butt;stroke-linejoin:miter;stroke:rgb(100%,100%,100%);stroke-opacity:1;stroke-miterlimit:10;" d="M 0 -2 L 0 2 " transform="matrix(100,0,0,-100,500,200)"/>
<path style="fill:none;stroke-width:0.01;stroke-linecap:butt;stroke-linejoin:miter;stroke:rgb(100%,100%,100%);stroke-opacity:0.5;stroke-miterlimit:10;" d="M 1 -2 L 1 2 " transform="matrix(100,0,0,-100,500,200)"/>
<path style="fill:none;stroke-width:0.01;stroke-linecap:butt;stroke-linejoin:miter;stroke:rgb(100%,100%,100%);stroke-opacity:0.5;stroke-miterlimit:10;" d="M 2 -2 L 2 2 " transform="matrix(100,0,0,-100,500,200)"/>
<path style="fill:none;stroke-width:0.01;stroke-linecap:butt;stroke-linejoin:miter;stroke:rgb(100%,100%,100%);stroke-opacity:0.5;stroke-miterlimit:10;" d="M 3 -2 L 3 2 " transform="matrix(100,0,0,-100,500,200)"/>
<path style="fill:none;stroke-width:0.01;stroke-linecap:butt;stroke-linejoin:miter;stroke:rgb(100%,100%,100%);stroke-opacity:0.5;stroke-miterlimit:10;" d="M 4 -2 L 4 2 " transform="matrix(100,0,0,-100,500,200)"/>
<path style="fill:none;stroke-width:0.01;stroke-linecap:butt;stroke-linejoin:miter;stroke:rgb(100%,100%,100%);stroke-opacity:0.5;stroke-miterlimit:10;" d="M 5 -2 L 5 2 " transform="matrix(100,0,0,-100,500,200)"/>
<path style="fill:none;stroke-width:0.005;stroke-linecap:butt;stroke-linejoin:miter;stroke:rgb(100%,100%,100%);stroke-opacity:0.25;stroke-miterlimit:10;" d="M -4.75 -2 L -4.75 2 " transform="matrix(100,0,0,-100,500,200)"/>
<path style="fill:none;stroke-width:0.005;stroke-linecap:butt;stroke-linejoin:miter;stroke:rgb(100%,100%,100%);stroke-opacity:0.25;stroke-miterlimit:10;" d="M -4.5 -2 L -4.5 2 " transform="matrix(100,0,0,-100,500,200)"/>
<path style="fill:none;stroke-width:0.005;stroke-linecap:butt;stroke-linejoin:miter;stroke:rgb(100%,100%,100%);stroke-opacity:0.25;stroke-miterlimit:10;" d="M -4.25 -2 L -4.25 2 " transform="matrix(100,0,0,-100,500,200)"/>
<path style="fill:none;stroke-width:0.005;stroke-linecap:butt;stroke-linejoin:miter;stroke:rgb(100%,100%,100%);stroke-opacity:0.25;stroke-miterlimit:10;" d="M -3.75 -2 L -3.75 2 " transform="matrix(100,0,0,-100,500,200)"/>
<path style="fill:none;stroke-width:0.005;stroke-linecap:butt;stroke-linejoin:miter;stroke:rgb(100%,100%,100%);stroke-opacity:0.25;stroke-miterlimit:10;" d="M -3.5 -2 L -3.5 2 " transform="matrix(100,0,0,-100,500,200)"/>
<path style="fill:none;stroke-width:0.005;stroke-linecap:butt;stroke-linejoin:miter;stroke:rgb(100%,100%,100%);stroke-opacity:0.25;stroke-miterlimit:10;" d="M -3.25 -2 L -3.25 2 " transform="matrix(100,0,0,-100,500,200)"/>
<path style="fill:none;stroke-width:0.005;stroke-linecap:butt;stroke-linejoin:miter;stroke:rgb(100%,100%,100%);stroke-opacity:0.25;stroke-miterlimit:10;" d="M -2.75 -2 L -2.75 2 " transform="matrix(100,0,0,-100,500,200)"/>
<path style="fill:none;stroke-width:0.005;stroke-linecap:butt;stroke-linejoin:miter;stroke:rgb(100%,100%,100%);stroke-opacity:0.25;stroke-miterlimit:10;" d="M -2.5 -2 L -2.5 2 " transform="matrix(100,0,0,-100,500,200)"/>
<path style="fill:none;stroke-width:0.005;stroke-linecap:butt;stroke-linejoin:miter;stroke:rgb(100%,100%,100%);stroke-opacity:0.25;stroke-miterlimit:10;" d="M -2.25 -2 L -2.25 2 " transform="matrix(100,0,0,-100,500,200)"/>
<path style="fill:none;stroke-width:0.005;stroke-linecap:butt;stroke-linejoin:miter;stroke:rgb(100%,100%,100%);stroke-opacity:0.25;stroke-miterlimit:10;" d="M -1.75 -2 L -1.75 2 " transform="matrix(100,0,0,-100,500,200)"/>
<path style="fill:none;stroke-width:0.005;stroke-linecap:butt;stroke-linejoin:miter;stroke:rgb(100%,100%,100%);stroke-opacity:0.25;stroke-miterlimit:10;" d="M -1.5 -2 L -1.5 2 " transform="matrix(100,0,0,-100,500,200)"/>
<path style="fill:none;stroke-width:0.005;stroke-linecap:butt;stroke-linejoin:miter;stroke:rgb(100%,100%,100%);stroke-opacity:0.25;stroke-miterlimit:10;" d="M -1.25 -2 L -1.25 2 " transform="matrix(100,0,0,-100,500,200)"/>
<path style="fill:none;stroke-width:0.005;stroke-linecap:butt;stroke-linejoin:miter;stroke:rgb(100%,100%,100%);stroke-opacity:0.25;stroke-miterlimit:10;" d="M -0.75 -2 L -0.75 2 " transform="matrix(100,0,0,-100,500,200)"/>
<path style="fill:none;stroke-width:0.005;stroke-linecap:butt;stroke-linejoin:miter;stroke:rgb(100%,100%,100%);stroke-opacity:0.25;stroke-miterlimit:10;" d="M -0.5 -2 L -0.5 2 " transform="matrix(100,0,0,-100,500,200)"/>
<path style="fill:none;stroke-width:0.005;stroke-linecap:butt;stroke-linejoin:miter;stroke:rgb(100%,100%,100%);stroke-opacity:0.25;stroke-miterlimit:10;" d="M -0.25 -2 L -0.25 2 " transform="matrix(100,0,0,-100,500,200)"/>
<path style="fill:none;stroke-width:0.005;stroke-linecap:butt;stroke-linejoin:miter;stroke:rgb(100%,100%,100%);stroke-opacity:0.25;stroke-miterlimit:10;" d="M 0.25 -2 L 0.25 2 " transform="matrix(100,0,0,-100,500,200)"/>
<path style="fill:none;stroke-width:0.005;stroke-linecap:butt;stroke-linejoin:miter;stroke:rgb(100%,100%,100%);stroke-opacity:0.25;stroke-miterlimit:10;" d="M 0.5 -2 L 0.5 2 " transform="matrix(100,0,0,-100,500,200)"/>
<path style="fill:none;stroke-width:0.005;stroke-linecap:butt;stroke-linejoin:miter;stroke:rgb(100%,100%,100%);stroke-opacity:0.25;stroke-miterlimit:10;" d="M 0.75 -2 L 0.75 2 " transform="matrix(100,0,0,-100,500,200)"/>
<path style="fill:none;stroke-width:0.005;stroke-linecap:butt;stroke-linejoin:miter;stroke:rgb(100%,100%,100%);stroke-opacity:0.25;stroke-miterlimit:10;" d="M 1.25 -2 L 1.25 2 " transform="matrix(100,0,0,-100,500,200)"/>
<path style="fill:none;stroke-width:0.005;stroke-linecap:butt;stroke-linejoin:miter;stroke:rgb(100%,100%,100%);stroke-opacity:0.25;stroke-miterlimit:10;" d="M 1.5 -2 L 1.5 2 " transform="matrix(100,0,0,-100,500,200)"/>
<path style="fill:none;stroke-width:0.005;stroke-linecap:butt;stroke-linejoin:miter;stroke:rgb(100%,100%,100%);stroke-opacity:0.25;stroke-miterlimit:10;" d="M 1.75 -2 L 1.75 2 " transform="matrix(100,0,0,-100,500,200)"/>
<path style="fill:none;stroke-width:0.005;stroke-linecap:butt;stroke-linejoin:miter;stroke:rgb(100%,100%,100%);stroke-opacity:0.25;stroke-miterlimit:10;" d="M 2.25 -2 L 2.25 2 " transform="matrix(100,0,0,-100,500,200)"/>
<path style="fill:none;stroke-width:0.005;stroke-linecap:butt;stroke-linejoin:miter;stroke:rgb(100%,100%,100%);stroke-opacity:0.25;stroke-miterlimit:10;" d="M 2.5 -2 L 2.5 2 " transform="matrix(100,0,0,-100,500,200)"/>
<path style="fill:none;stroke-width:0.005;stroke-linecap:butt;stroke-linejoin:miter;stroke:rgb(100%,100%,100%);stroke-opacity:0.25;stroke-miterlimit:10;" d="M 2.75 -2 L 2.75 2 " transform="matrix(100,0,0,-100,500,200)"/>
<path style="fill:none;stroke-width:0.005;stroke-linecap:butt;stroke-linejoin:miter;stroke:rgb(100%,100%,100%);stroke-opacity:0.25;stroke-miterlimit:10;" d="M 3.25 -2 L 3.25 2 " transform="matrix(100,0,0,-100,500,200)"/>
<path style="fill:none;stroke-width:0.005;stroke-linecap:butt;stroke-linejoin:miter;stroke:rgb(100%,100%,100%);stroke-opacity:0.25;stroke-miterlimit:10;" d="M 3.5 -2 L 3.5 2 " transform="matrix(100,0,0,-100,500,200)"/>
<path style="fill:none;stroke-width:0.005;stroke-linecap:butt;stroke-linejoin:miter;stroke:rgb(100%,100%,100%);stroke-opacity:0.25;stroke-miterlimit:10;" d="M 3.75 -2 L 3.75 2 " transform="matrix(100,0,0,-100,500,200)"/>
<path style="fill:none;stroke-width:0.005;stroke-linecap:butt;stroke-linejoin:miter;stroke:rgb(100%,100%,100%);stroke-opacity:0.25;stroke-miterlimit:10;" d="M 4.25 -2 L 4.25 2 " transform="matrix(100,0,0,-100,500,200)"/>
<path style="fill:none;stroke-width:0.005;stroke-linecap:butt;stroke-linejoin:miter;stroke:rgb(100%,100%,100%);stroke-opacity:0.25;stroke-miterlimit:10;" d="M 4.5 -2 L 4.5 2 " transform="matrix(100,0,0,-100,500,200)"/>
<path style="fill:none;stroke-width:0.005;stroke-linecap:butt;stroke-linejoin:miter;stroke:rgb(100%,100%,100%);stroke-opacity:0.25;stroke-miterlimit:10;" d="M 4.75 -2 L 4.75 2 " transform="matrix(100,0,0,-100,500,200)"/>
<path style="fill:none;stroke-width:0.01;stroke-linecap:butt;stroke-linejoin:miter;stroke:rgb(100%,100%,100%);stroke-opacity:0.5;stroke-miterlimit:10;" d="M -5 -2 L 5 -2 " transform="matrix(100,0,0,-100,500,200)"/>
<path style="fill:none;stroke-width:0.01;stroke-linecap:butt;stroke-linejoin:miter;stroke:rgb(100%,100%,100%);stroke-opacity:0.5;stroke-miterlimit:10;" d="M -5 -1 L 5 -1 " transform="matrix(100,0,0,-100,500,200)"/>
<path style="fill:none;stroke-width:0.01;stroke-linecap:butt;stroke-linejoin:miter;stroke:rgb(100%,100%,100%);stroke-opacity:1;stroke-miterlimit:10;" d="M -5 0 L 5 0 " transform="matrix(100,0,0,-100,500,200)"/>
<path style="fill:none;stroke-width:0.01;stroke-linecap:butt;stroke-linejoin:miter;stroke:rgb(100%,100%,100%);stroke-opacity:0.5;stroke-miterlimit:10;" d="M -5 1 L 5 1 " transform="matrix(100,0,0,-100,500,200)"/>
<path style="fill:none;stroke-width:0.01;stroke-linecap:butt;stroke-linejoin:miter;stroke:rgb(100%,100%,100%);stroke-opacity:0.5;stroke-miterlimit:10;" d="M -5 2 L 5 2 " transform="matrix(100,0,0,-100,500,200)"/>
<path style="fill:none;stroke-width:0.005;stroke-linecap:butt;stroke-linejoin:miter;stroke:rgb(100%,100%,100%);stroke-opacity:0.25;stroke-miterlimit:10;" d="M -5 -1.75 L 5 -1.75 " transform="matrix(100,0,0,-100,500,200)"/>
<path style="fill:none;stroke-width:0.005;stroke-linecap:butt;stroke-linejoin:miter;stroke:rgb(100%,100%,100%);stroke-opacity:0.25;stroke-miterlimit:10;" d="M -5 -1.5 L 5 -1.5 " transform="matrix(100,0,0,-100,500,200)"/>
<path style="fill:none;stroke-width:0.005;stroke-linecap:butt;stroke-linejoin:miter;stroke:rgb(100%,100%,100%);stroke-opacity:0.25;stroke-miterlimit:10;" d="M -5 -1.25 L 5 -1.25 " transform="matrix(100,0,0,-100,500,200)"/>
<path style="fill:none;stroke-width:0.005;stroke-linecap:butt;stroke-linejoin:miter;stroke:rgb(100%,100%,100%);stroke-opacity:0.25;stroke-miterlimit:10;" d="M -5 -0.75 L 5 -0.75 " transform="matrix(100,0,0,-100,500,200)"/>
<path style="fill:none;stroke-width:0.005;stroke-linecap:butt;stroke-linejoin:miter;stroke:rgb(100%,100%,100%);stroke-opacity:0.25;stroke-miterlimit:10;" d="M -5 -0.5 L 5 -0.5 " transform="matrix(100,0,0,-100,500,200)"/>
<path style="fill:none;stroke-width:0.005;stroke-linecap:butt;stroke-linejoin:miter;stroke:rgb(100%,100%,100%);stroke-opacity:0.25;stroke-miterlimit:10;" d="M -5 -0.25 L 5 -0.25 " transform="matrix(100,0,0,-100,500,200)"/>
<path style="fill:none;stroke-width:0.005;stroke-linecap:butt;stroke-linejoin:miter;stroke:rgb(100%,100%,100%);stroke-opacity:0.25;stroke-miterlimit:10;" d="M -5 0.25 L 5 0.25 " transform="matrix(100,0,0,-100,500,200)"/>
<path style="fill:none;stroke-width:0.005;stroke-linecap:butt;stroke-linejoin:miter;stroke:rgb(100%,100%,100%);stroke-opacity:0.25;stroke-miterlimit:10;" d="M -5 0.5 L 5 0.5 " transform="matrix(100,0,0,-100,500,200)"/>
<path style="fill:none;stroke-width:0.005;stroke-linecap:butt;stroke-linejoin:miter;stroke:rgb(100%,100%,100%);stroke-opacity:0.25;stroke-miterlimit:10;" d="M -5 0.75 L 5 0.75 " transform="matrix(100,0,0,-100,500,200)"/>
<path style="fill:none;stroke-width:0.005;stroke-linecap:butt;stroke-linejoin:miter;stroke:rgb(100%,100%,100%);stroke-opacity:0.25;stroke-miterlimit:10;" d="M -5 1.25 L 5 1.25 " transform="matrix(100,0,0,-100,500,200)"/>
<path style="fill:none;stroke-width:0.005;stroke-linecap:butt;stroke-linejoin:miter;stroke:rgb(100%,100%,100%);stroke-opacity:0.25;stroke-miterlimit:10;" d="M -5 1.5 L 5 1.5 " transform="matrix(100,0,0,-100,500,200)"/>
<path style="fill:none;stroke-width:0.005;stroke-linecap:butt;stroke-linejoin:miter;stroke:rgb(100%,100%,100%);stroke-opacity:0.25;stroke-miterlimit:10;" d="M -5 1.75 L 5 1.75 " transform="matrix(100,0,0,-100,500,200)"/>
<path style="fill:none;stroke-width:0.03;stroke-linecap:butt;stroke-linejoin:miter;stroke:rgb(87.058824%,29.803922%,71.764706%);stroke-opacity:1;stroke-miterlimit:10;" d="M -5 -0.993281 L -4.98 -0.983047 L -4.97 -0.977852 L -4.95 -0.967383 L -4.94 -0.962109 L -4.92 -0.951484 L -4.86 -0.919375 L -4.84 -0.90875 L -4.82 -0.898203 L -4.8 -0.887812 L -4.79 -0.882695 L -4.78 -0.877617 L -4.77 -0.872578 L -4.76 -0.867617 L -4.75 -0.862734 L -4.74 -0.857891 L -4.73 -0.853164 L -4.72 -0.848477 L -4.71 -0.843906 L -4.7 -0.839414 L -4.69 -0.835039 L -4.68 -0.830742 L -4.67 -0.826563 L -4.66 -0.8225 L -4.65 -0.818555 L -4.64 -0.814727 L -4.63 -0.811016 L -4.62 -0.807461 L -4.61 -0.804023 L -4.6 -0.800742 L -4.59 -0.797617 L -4.58 -0.794609 L -4.57 -0.791797 L -4.56 -0.789102 L -4.55 -0.786602 L -4.54 -0.784258 L -4.53 -0.782109 L -4.52 -0.780117 L -4.51 -0.77832 L -4.5 -0.77668 L -4.49 -0.775273 L -4.48 -0.774023 L -4.47 -0.772969 L -4.46 -0.772148 L -4.45 -0.771484 L -4.44 -0.771055 L -4.43 -0.770859 L -4.42 -0.770859 L -4.41 -0.771055 L -4.4 -0.771484 L -4.39 -0.772148 L -4.38 -0.773008 L -4.37 -0.774102 L -4.36 -0.77543 L -4.35 -0.776992 L -4.34 -0.778789 L -4.33 -0.78082 L -4.32 -0.783086 L -4.31 -0.785586 L -4.3 -0.788359 L -4.29 -0.791328 L -4.28 -0.794531 L -4.27 -0.798008 L -4.26 -0.801719 L -4.25 -0.805664 L -4.24 -0.809883 L -4.23 -0.814297 L -4.22 -0.818984 L -4.21 -0.823906 L -4.2 -0.829102 L -4.19 -0.834492 L -4.18 -0.840156 L -4.17 -0.846055 L -4.16 -0.852187 L -4.15 -0.858594 L -4.14 -0.865195 L -4.13 -0.872031 L -4.12 -0.879141 L -4.11 -0.886445 L -4.1 -0.894023 L -4.09 -0.901797 L -4.08 -0.909805 L -4.07 -0.918047 L -4.06 -0.926484 L -4.05 -0.935156 L -4.04 -0.944023 L -4.03 -0.953125 L -4.02 -0.962461 L -4.01 -0.971953 L -4 -0.98168 L -3.99 -0.991602 L -3.98 -1.001719 L -3.97 -1.011992 L -3.96 -1.0225 L -3.95 -1.033164 L -3.94 -1.044023 L -3.93 -1.055039 L -3.92 -1.066211 L -3.91 -1.077539 L -3.9 -1.089063 L -3.89 -1.100703 L -3.88 -1.1125 L -3.87 -1.124453 L -3.86 -1.136523 L -3.85 -1.14875 L -3.84 -1.161055 L -3.83 -1.173516 L -3.82 -1.186055 L -3.81 -1.19875 L -3.8 -1.211484 L -3.79 -1.224375 L -3.78 -1.237305 L -3.77 -1.250313 L -3.76 -1.263438 L -3.75 -1.276602 L -3.74 -1.289805 L -3.73 -1.303086 L -3.72 -1.316406 L -3.71 -1.329766 L -3.69 -1.356562 L -3.67 -1.383437 L -3.66 -1.396914 L -3.64 -1.423789 L -3.62 -1.450586 L -3.6 -1.477227 L -3.58 -1.503711 L -3.57 -1.516836 L -3.56 -1.529922 L -3.55 -1.542891 L -3.54 -1.55582 L -3.53 -1.568633 L -3.52 -1.581328 L -3.51 -1.593945 L -3.5 -1.606406 L -3.49 -1.618789 L -3.48 -1.631016 L -3.47 -1.643125 L -3.46 -1.655078 L -3.45 -1.666914 L -3.44 -1.678555 L -3.43 -1.690039 L -3.42 -1.701367 L -3.41 -1.7125 L -3.4 -1.723438 L -3.39 -1.734219 L -3.38 -1.744805 L -3.37 -1.755156 L -3.36 -1.765313 L -3.35 -1.775234 L -3.34 -1.784961 L -3.33 -1.794453 L -3.32 -1.803711 L -3.31 -1.812734 L -3.3 -1.821523 L -3.29 -1.830039 L -3.28 -1.83832 L -3.27 -1.846328 L -3.26 -1.854062 L -3.25 -1.861523 L -3.24 -1.86875 L -3.23 -1.875664 L -3.22 -1.882305 L -3.21 -1.888672 L -3.2 -1.894727 L -3.19 -1.900508 L -3.18 -1.905977 L -3.17 -1.911133 L -3.16 -1.915977 L -3.15 -1.920547 L -3.14 -1.924805 L -3.13 -1.928711 L -3.12 -1.932305 L -3.11 -1.935625 L -3.1 -1.938594 L -3.09 -1.941211 L -3.08 -1.943555 L -3.07 -1.945547 L -3.06 -1.947188 L -3.05 -1.948516 L -3.04 -1.949531 L -3.03 -1.950195 L -3.02 -1.950547 L -3.01 -1.950547 L -3 -1.950195 L -2.99 -1.949531 L -2.98 -1.948555 L -2.97 -1.947227 L -2.96 -1.945547 L -2.95 -1.943555 L -2.94 -1.941211 L -2.93 -1.938555 L -2.92 -1.935586 L -2.91 -1.932266 L -2.9 -1.928594 L -2.89 -1.924648 L -2.88 -1.920352 L -2.87 -1.915742 L -2.86 -1.91082 L -2.85 -1.905547 L -2.84 -1.9 L -2.83 -1.894141 L -2.82 -1.88793 L -2.81 -1.881445 L -2.8 -1.874688 L -2.79 -1.867617 L -2.78 -1.860234 L -2.77 -1.852578 L -2.76 -1.844609 L -2.75 -1.836406 L -2.74 -1.827891 L -2.73 -1.819102 L -2.72 -1.810078 L -2.71 -1.800742 L -2.7 -1.791172 L -2.69 -1.781367 L -2.68 -1.771289 L -2.67 -1.761016 L -2.66 -1.750469 L -2.65 -1.739688 L -2.64 -1.728672 L -2.63 -1.717461 L -2.62 -1.706016 L -2.61 -1.694375 L -2.6 -1.682539 L -2.59 -1.670508 L -2.58 -1.658281 L -2.57 -1.645898 L -2.56 -1.63332 L -2.55 -1.620547 L -2.54 -1.607656 L -2.53 -1.594609 L -2.52 -1.581367 L -2.51 -1.568008 L -2.5 -1.554531 L -2.49 -1.540938 L -2.48 -1.527188 L -2.47 -1.51332 L -2.46 -1.499375 L -2.45 -1.485313 L -2.44 -1.471172 L -2.43 -1.456953 L -2.42 -1.442656 L -2.41 -1.428281 L -2.4 -1.413828 L -2.39 -1.399336 L -2.38 -1.384805 L -2.37 -1.370234 L -2.36 -1.355586 L -2.35 -1.340977 L -2.34 -1.326289 L -2.33 -1.311641 L -2.32 -1.296953 L -2.31 -1.282305 L -2.3 -1.267617 L -2.29 -1.252969 L -2.27 -1.22375 L -2.25 -1.194688 L -2.24 -1.180234 L -2.23 -1.165859 L -2.22 -1.151523 L -2.21 -1.137266 L -2.2 -1.123086 L -2.19 -1.108984 L -2.18 -1.094961 L -2.17 -1.081055 L -2.16 -1.067227 L -2.15 -1.053516 L -2.14 -1.039922 L -2.13 -1.026484 L -2.12 -1.013125 L -2.11 -0.999922 L -2.1 -0.986836 L -2.09 -0.973906 L -2.08 -0.961133 L -2.07 -0.948477 L -2.06 -0.936016 L -2.05 -0.923672 L -2.04 -0.911523 L -2.03 -0.899531 L -2.02 -0.887734 L -2.01 -0.876094 L -2 -0.864648 L -1.99 -0.853398 L -1.98 -0.842344 L -1.97 -0.831445 L -1.96 -0.820781 L -1.95 -0.810313 L -1.94 -0.800039 L -1.93 -0.789961 L -1.92 -0.780078 L -1.91 -0.77043 L -1.9 -0.761016 L -1.89 -0.751797 L -1.88 -0.742773 L -1.87 -0.733984 L -1.86 -0.72543 L -1.85 -0.717109 L -1.84 -0.708984 L -1.83 -0.701094 L -1.82 -0.693437 L -1.81 -0.685977 L -1.8 -0.678789 L -1.79 -0.671797 L -1.78 -0.665039 L -1.77 -0.658516 L -1.76 -0.652227 L -1.75 -0.646172 L -1.74 -0.640312 L -1.73 -0.634727 L -1.72 -0.629336 L -1.71 -0.62418 L -1.7 -0.619219 L -1.69 -0.614531 L -1.68 -0.610039 L -1.67 -0.605742 L -1.66 -0.60168 L -1.65 -0.597852 L -1.64 -0.594258 L -1.63 -0.59082 L -1.62 -0.587656 L -1.61 -0.584648 L -1.6 -0.581875 L -1.59 -0.579297 L -1.58 -0.576914 L -1.57 -0.574727 L -1.56 -0.572734 L -1.55 -0.570937 L -1.54 -0.569336 L -1.53 -0.567891 L -1.52 -0.566641 L -1.51 -0.565547 L -1.5 -0.564648 L -1.49 -0.563945 L -1.48 -0.563359 L -1.47 -0.562969 L -1.46 -0.562695 L -1.45 -0.562578 L -1.44 -0.562656 L -1.43 -0.562813 L -1.42 -0.563164 L -1.41 -0.563594 L -1.4 -0.56418 L -1.39 -0.564922 L -1.38 -0.565742 L -1.37 -0.56668 L -1.36 -0.567734 L -1.35 -0.568867 L -1.34 -0.570117 L -1.33 -0.571445 L -1.32 -0.572891 L -1.31 -0.574414 L -1.3 -0.575977 L -1.29 -0.577656 L -1.28 -0.579375 L -1.27 -0.581133 L -1.25 -0.584883 L -1.24 -0.586797 L -1.22 -0.590781 L -1.2 -0.594844 L -1.19 -0.596914 L -1.18 -0.599023 L -1.13 -0.609375 L -1.12 -0.611406 L -1.11 -0.613398 L -1.09 -0.617305 L -1.08 -0.61918 L -1.07 -0.621016 L -1.06 -0.622813 L -1.05 -0.624531 L -1.04 -0.626172 L -1.03 -0.627773 L -1.02 -0.629297 L -1.01 -0.630742 L -1 -0.632109 L -0.99 -0.633398 L -0.98 -0.63457 L -0.97 -0.635664 L -0.96 -0.63668 L -0.95 -0.637539 L -0.94 -0.63832 L -0.93 -0.638984 L -0.92 -0.639531 L -0.91 -0.639961 L -0.9 -0.640273 L -0.89 -0.64043 L -0.88 -0.640508 L -0.87 -0.640391 L -0.86 -0.640156 L -0.85 -0.639805 L -0.84 -0.639297 L -0.83 -0.638633 L -0.82 -0.637812 L -0.81 -0.636836 L -0.8 -0.635703 L -0.79 -0.634414 L -0.78 -0.633008 L -0.77 -0.631367 L -0.76 -0.629609 L -0.75 -0.627656 L -0.74 -0.625547 L -0.73 -0.623281 L -0.72 -0.62082 L -0.71 -0.618203 L -0.7 -0.615391 L -0.69 -0.612383 L -0.68 -0.609219 L -0.67 -0.605898 L -0.66 -0.602344 L -0.65 -0.598633 L -0.64 -0.594766 L -0.63 -0.590664 L -0.62 -0.586406 L -0.61 -0.581953 L -0.6 -0.577344 L -0.59 -0.5725 L -0.58 -0.5675 L -0.57 -0.562305 L -0.56 -0.556953 L -0.55 -0.551367 L -0.54 -0.545625 L -0.53 -0.539687 L -0.52 -0.533594 L -0.51 -0.527266 L -0.5 -0.520781 L -0.49 -0.514141 L -0.48 -0.507266 L -0.47 -0.500234 L -0.46 -0.493047 L -0.45 -0.485664 L -0.44 -0.478086 L -0.43 -0.470352 L -0.42 -0.462461 L -0.41 -0.454375 L -0.4 -0.446133 L -0.39 -0.437695 L -0.38 -0.429102 L -0.37 -0.420352 L -0.36 -0.411406 L -0.35 -0.402344 L -0.34 -0.393086 L -0.33 -0.383711 L -0.32 -0.374141 L -0.31 -0.364414 L -0.3 -0.35457 L -0.29 -0.344531 L -0.28 -0.334375 L -0.27 -0.324063 L -0.26 -0.313633 L -0.25 -0.303047 L -0.24 -0.292305 L -0.23 -0.281445 L -0.22 -0.270469 L -0.21 -0.259336 L -0.2 -0.248086 L -0.19 -0.236719 L -0.18 -0.225195 L -0.17 -0.213594 L -0.16 -0.201836 L -0.15 -0.19 L -0.14 -0.178047 L -0.13 -0.165938 L -0.12 -0.15375 L -0.11 -0.141484 L -0.1 -0.129062 L -0.09 -0.116602 L -0.08 -0.103984 L -0.07 -0.0912891 L -0.06 -0.0785156 L -0.05 -0.0656641 L -0.04 -0.0526953 L -0.03 -0.0396484 L -0.02 -0.0265234 L -0.01 -0.0132812 L 0.01 0.0132812 L 0.02 0.0265234 L 0.03 0.0396484 L 0.04 0.0526953 L 0.05 0.0656641 L 0.06 0.0785156 L 0.07 0.0912891 L 0.08 0.103984 L 0.09 0.116602 L 0.1 0.129062 L 0.11 0.141484 L 0.12 0.15375 L 0.13 0.165938 L 0.14 0.178047 L 0.15 0.19 L 0.16 0.201836 L 0.17 0.213594 L 0.18 0.225195 L 0.19 0.236719 L 0.2 0.248086 L 0.21 0.259336 L 0.22 0.270469 L 0.23 0.281445 L 0.24 0.292305 L 0.25 0.303047 L 0.26 0.313633 L 0.27 0.324062 L 0.28 0.334375 L 0.29 0.344531 L 0.3 0.35457 L 0.31 0.364414 L 0.32 0.374141 L 0.33 0.383711 L 0.34 0.393086 L 0.35 0.402344 L 0.36 0.411406 L 0.37 0.420352 L 0.38 0.429102 L 0.39 0.437695 L 0.4 0.446133 L 0.41 0.454375 L 0.42 0.462461 L 0.43 0.470352 L 0.44 0.478086 L 0.45 0.485664 L 0.46 0.493047 L 0.47 0.500234 L 0.48 0.507266 L 0.49 0.514141 L 0.5 0.520781 L 0.51 0.527266 L 0.52 0.533594 L 0.53 0.539687 L 0.54 0.545625 L 0.55 0.551367 L 0.56 0.556953 L 0.57 0.562305 L 0.58 0.5675 L 0.59 0.5725 L 0.6 0.577344 L 0.61 0.581953 L 0.62 0.586406 L 0.63 0.590664 L 0.64 0.594766 L 0.65 0.598633 L 0.66 0.602344 L 0.67 0.605898 L 0.68 0.609219 L 0.69 0.612383 L 0.7 0.615391 L 0.71 0.618203 L 0.72 0.62082 L 0.73 0.623281 L 0.74 0.625547 L 0.75 0.627656 L 0.76 0.629609 L 0.77 0.631367 L 0.78 0.633008 L 0.79 0.634414 L 0.8 0.635703 L 0.81 0.636836 L 0.82 0.637812 L 0.83 0.638633 L 0.84 0.639297 L 0.85 0.639805 L 0.86 0.640156 L 0.87 0.640391 L 0.88 0.640508 L 0.89 0.64043 L 0.9 0.640273 L 0.91 0.639961 L 0.92 0.639531 L 0.93 0.638984 L 0.94 0.63832 L 0.95 0.637539 L 0.96 0.63668 L 0.97 0.635664 L 0.98 0.63457 L 0.99 0.633398 L 1 0.632109 L 1.01 0.630742 L 1.02 0.629297 L 1.03 0.627773 L 1.04 0.626172 L 1.05 0.624531 L 1.06 0.622812 L 1.07 0.621016 L 1.08 0.61918 L 1.09 0.617305 L 1.11 0.613398 L 1.12 0.611406 L 1.13 0.609375 L 1.18 0.599023 L 1.19 0.596914 L 1.2 0.594844 L 1.22 0.590781 L 1.24 0.586797 L 1.25 0.584883 L 1.27 0.581133 L 1.28 0.579375 L 1.29 0.577656 L 1.3 0.575977 L 1.31 0.574414 L 1.32 0.572891 L 1.33 0.571445 L 1.34 0.570117 L 1.35 0.568867 L 1.36 0.567734 L 1.37 0.56668 L 1.38 0.565742 L 1.39 0.564922 L 1.4 0.56418 L 1.41 0.563594 L 1.42 0.563164 L 1.43 0.562812 L 1.44 0.562656 L 1.45 0.562578 L 1.46 0.562695 L 1.47 0.562969 L 1.48 0.563359 L 1.49 0.563945 L 1.5 0.564648 L 1.51 0.565547 L 1.52 0.566641 L 1.53 0.567891 L 1.54 0.569336 L 1.55 0.570937 L 1.56 0.572734 L 1.57 0.574727 L 1.58 0.576914 L 1.59 0.579297 L 1.6 0.581875 L 1.61 0.584648 L 1.62 0.587656 L 1.63 0.59082 L 1.64 0.594258 L 1.65 0.597852 L 1.66 0.60168 L 1.67 0.605742 L 1.68 0.610039 L 1.69 0.614531 L 1.7 0.619219 L 1.71 0.62418 L 1.72 0.629336 L 1.73 0.634727 L 1.74 0.640313 L 1.75 0.646172 L 1.76 0.652227 L 1.77 0.658516 L 1.78 0.665039 L 1.79 0.671797 L 1.8 0.678789 L 1.81 0.685977 L 1.82 0.693437 L 1.83 0.701094 L 1.84 0.708984 L 1.85 0.717109 L 1.86 0.72543 L 1.87 0.733984 L 1.88 0.742773 L 1.89 0.751797 L 1.9 0.761016 L 1.91 0.77043 L 1.92 0.780078 L 1.93 0.789961 L 1.94 0.800039 L 1.95 0.810312 L 1.96 0.820781 L 1.97 0.831445 L 1.98 0.842344 L 1.99 0.853398 L 2 0.864648 L 2.01 0.876094 L 2.02 0.887734 L 2.03 0.899531 L 2.04 0.911523 L 2.05 0.923672 L 2.06 0.936016 L 2.07 0.948477 L 2.08 0.961133 L 2.09 0.973906 L 2.1 0.986836 L 2.11 0.999922 L 2.12 1.013125 L 2.13 1.026484 L 2.14 1.039922 L 2.15 1.053516 L 2.16 1.067227 L 2.17 1.081055 L 2.18 1.094961 L 2.19 1.108984 L 2.2 1.123086 L 2.21 1.137266 L 2.22 1.151523 L 2.23 1.165859 L 2.24 1.180234 L 2.25 1.194688 L 2.27 1.22375 L 2.29 1.252969 L 2.3 1.267617 L 2.31 1.282305 L 2.32 1.296953 L 2.33 1.311641 L 2.34 1.326289 L 2.35 1.340977 L 2.36 1.355586 L 2.37 1.370234 L 2.38 1.384805 L 2.39 1.399336 L 2.4 1.413828 L 2.41 1.428281 L 2.42 1.442656 L 2.43 1.456953 L 2.44 1.471172 L 2.45 1.485313 L 2.46 1.499375 L 2.47 1.51332 L 2.48 1.527187 L 2.49 1.540938 L 2.5 1.554531 L 2.51 1.568008 L 2.52 1.581367 L 2.53 1.594609 L 2.54 1.607656 L 2.55 1.620547 L 2.56 1.63332 L 2.57 1.645898 L 2.58 1.658281 L 2.59 1.670508 L 2.6 1.682539 L 2.61 1.694375 L 2.62 1.706016 L 2.63 1.717461 L 2.64 1.728672 L 2.65 1.739688 L 2.66 1.750469 L 2.67 1.761016 L 2.68 1.771289 L 2.69 1.781367 L 2.7 1.791172 L 2.71 1.800742 L 2.72 1.810078 L 2.73 1.819102 L 2.74 1.827891 L 2.75 1.836406 L 2.76 1.844609 L 2.77 1.852578 L 2.78 1.860234 L 2.79 1.867617 L 2.8 1.874688 L 2.81 1.881445 L 2.82 1.88793 L 2.83 1.894141 L 2.84 1.9 L 2.85 1.905547 L 2.86 1.91082 L 2.87 1.915742 L 2.88 1.920352 L 2.89 1.924648 L 2.9 1.928594 L 2.91 1.932266 L 2.92 1.935586 L 2.93 1.938555 L 2.94 1.941211 L 2.95 1.943555 L 2.96 1.945547 L 2.97 1.947227 L 2.98 1.948555 L 2.99 1.949531 L 3 1.950195 L 3.01 1.950547 L 3.02 1.950547 L 3.03 1.950195 L 3.04 1.949531 L 3.05 1.948516 L 3.06 1.947188 L 3.07 1.945547 L 3.08 1.943555 L 3.09 1.941211 L 3.1 1.938594 L 3.11 1.935625 L 3.12 1.932305 L 3.13 1.928711 L 3.14 1.924805 L 3.15 1.920547 L 3.16 1.915977 L 3.17 1.911133 L 3.18 1.905977 L 3.19 1.900508 L 3.2 1.894727 L 3.21 1.888672 L 3.22 1.882305 L 3.23 1.875664 L 3.24 1.86875 L 3.25 1.861523 L 3.26 1.854062 L 3.27 1.846328 L 3.28 1.83832 L 3.29 1.830039 L 3.3 1.821523 L 3.31 1.812734 L 3.32 1.803711 L 3.33 1.794453 L 3.34 1.784961 L 3.35 1.775234 L 3.36 1.765313 L 3.37 1.755156 L 3.38 1.744805 L 3.39 1.734219 L 3.4 1.723437 L 3.41 1.7125 L 3.42 1.701367 L 3.43 1.690039 L 3.44 1.678555 L 3.45 1.666914 L 3.46 1.655078 L 3.47 1.643125 L 3.48 1.631016 L 3.49 1.618789 L 3.5 1.606406 L 3.51 1.593945 L 3.52 1.581328 L 3.53 1.568633 L 3.54 1.55582 L 3.55 1.542891 L 3.56 1.529922 L 3.57 1.516836 L 3.58 1.503711 L 3.6 1.477227 L 3.62 1.450586 L 3.64 1.423789 L 3.66 1.396914 L 3.67 1.383437 L 3.69 1.356562 L 3.71 1.329766 L 3.72 1.316406 L 3.73 1.303086 L 3.74 1.289805 L 3.75 1.276602 L 3.76 1.263437 L 3.77 1.250312 L 3.78 1.237305 L 3.79 1.224375 L 3.8 1.211484 L 3.81 1.19875 L 3.82 1.186055 L 3.83 1.173516 L 3.84 1.161055 L 3.85 1.14875 L 3.86 1.136523 L 3.87 1.124453 L 3.88 1.1125 L 3.89 1.100703 L 3.9 1.089062 L 3.91 1.077539 L 3.92 1.066211 L 3.93 1.055039 L 3.94 1.044023 L 3.95 1.033164 L 3.96 1.0225 L 3.97 1.011992 L 3.98 1.001719 L 3.99 0.991602 L 4 0.98168 L 4.01 0.971953 L 4.02 0.962461 L 4.03 0.953125 L 4.04 0.944023 L 4.05 0.935156 L 4.06 0.926484 L 4.07 0.918047 L 4.08 0.909805 L 4.09 0.901797 L 4.1 0.894023 L 4.11 0.886445 L 4.12 0.879141 L 4.13 0.872031 L 4.14 0.865195 L 4.15 0.858594 L 4.16 0.852187 L 4.17 0.846055 L 4.18 0.840156 L 4.19 0.834492 L 4.2 0.829102 L 4.21 0.823906 L 4.22 0.818984 L 4.23 0.814297 L 4.24 0.809883 L 4.25 0.805664 L 4.26 0.801719 L 4.27 0.798008 L 4.28 0.794531 L 4.29 0.791328 L 4.3 0.788359 L 4.31 0.785586 L 4.32 0.783086 L 4.33 0.78082 L 4.34 0.778789 L 4.35 0.776992 L 4.36 0.77543 L 4.37 0.774102 L 4.38 0.773008 L 4.39 0.772148 L 4.4 0.771484 L 4.41 0.771055 L 4.42 0.770859 L 4.43 0.770859 L 4.44 0.771055 L 4.45 0.771484 L 4.46 0.772148 L 4.47 0.772969 L 4.48 0.774023 L 4.49 0.775273 L 4.5 0.77668 L 4.51 0.77832 L 4.52 0.780117 L 4.53 0.782109 L 4.54 0.784258 L 4.55 0.786602 L 4.56 0.789102 L 4.57 0.791797 L 4.58 0.794609 L 4.59 0.797617 L 4.6 0.800742 L 4.61 0.804023 L 4.62 0.807461 L 4.63 0.811016 L 4.64 0.814727 L 4.65 0.818555 L 4.66 0.8225 L 4.67 0.826562 L 4.68 0.830742 L 4.69 0.835039 L 4.7 0.839414 L 4.71 0.843906 L 4.72 0.848477 L 4.73 0.853164 L 4.74 0.857891 L 4.75 0.862734 L 4.76 0.867617 L 4.77 0.872578 L 4.78 0.877617 L 4.79 0.882695 L 4.8 0.887812 L 4.82 0.898203 L 4.84 0.90875 L 4.86 0.919375 L 4.92 0.951484 L 4.94 0.962109 L 4.95 0.967383 L 4.97 0.977852 L 4.98 0.983047 L 5 0.993281 " transform="matrix(100,0,0,-100,500,200)"/>
<path style="fill:none;stroke-width:0.03;stroke-linecap:butt;stroke-linejoin:miter;stroke:rgb(87.058824%,29.803922%,71.764706%);stroke-opacity:0.75;stroke-miterlimit:10;" d="M -5 -0.499961 L -4.98 -0.502852 L -4.97 -0.504258 L -4.96 -0.505703 L -4.95 -0.507109 L -4.93 -0.509844 L -4.92 -0.511172 L -4.91 -0.512461 L -4.9 -0.513711 L -4.89 -0.514922 L -4.88 -0.516094 L -4.87 -0.517187 L -4.86 -0.518203 L -4.85 -0.51918 L -4.84 -0.520078 L -4.83 -0.520898 L -4.82 -0.521641 L -4.81 -0.522305 L -4.8 -0.522891 L -4.79 -0.523398 L -4.78 -0.523789 L -4.77 -0.524102 L -4.76 -0.524336 L -4.75 -0.524453 L -4.74 -0.524492 L -4.73 -0.524414 L -4.72 -0.524219 L -4.71 -0.523984 L -4.7 -0.523594 L -4.69 -0.523164 L -4.68 -0.522617 L -4.67 -0.521953 L -4.66 -0.521211 L -4.65 -0.520391 L -4.64 -0.519492 L -4.63 -0.518477 L -4.62 -0.517422 L -4.61 -0.51625 L -4.6 -0.515039 L -4.59 -0.51375 L -4.58 -0.512383 L -4.57 -0.510977 L -4.56 -0.509531 L -4.55 -0.508008 L -4.54 -0.506445 L -4.52 -0.503242 L -4.51 -0.501602 L -4.5 -0.499922 L -4.49 -0.498281 L -4.46 -0.493242 L -4.44 -0.489961 L -4.43 -0.488359 L -4.42 -0.486797 L -4.41 -0.485273 L -4.4 -0.483789 L -4.39 -0.482383 L -4.38 -0.481016 L -4.37 -0.479727 L -4.36 -0.478477 L -4.35 -0.477344 L -4.34 -0.47625 L -4.33 -0.475273 L -4.32 -0.474375 L -4.31 -0.473594 L -4.3 -0.472891 L -4.29 -0.472266 L -4.28 -0.471797 L -4.27 -0.471406 L -4.26 -0.471133 L -4.25 -0.470977 L -4.24 -0.470898 L -4.23 -0.470977 L -4.22 -0.471172 L -4.21 -0.471445 L -4.2 -0.471875 L -4.19 -0.472383 L -4.18 -0.473008 L -4.17 -0.47375 L -4.16 -0.474609 L -4.15 -0.475586 L -4.14 -0.476641 L -4.13 -0.477813 L -4.12 -0.479062 L -4.11 -0.48043 L -4.1 -0.481875 L -4.09 -0.483398 L -4.08 -0.485 L -4.07 -0.48668 L -4.06 -0.488398 L -4.05 -0.490195 L -4.03 -0.493945 L -4.01 -0.497852 L -3.98 -0.503828 L -3.97 -0.505859 L -3.94 -0.511836 L -3.92 -0.515664 L -3.91 -0.5175 L -3.9 -0.519297 L -3.89 -0.521016 L -3.88 -0.522656 L -3.87 -0.524258 L -3.86 -0.525742 L -3.85 -0.527188 L -3.84 -0.528477 L -3.83 -0.529688 L -3.82 -0.530781 L -3.81 -0.531797 L -3.8 -0.532656 L -3.79 -0.533398 L -3.78 -0.534023 L -3.77 -0.534531 L -3.76 -0.534883 L -3.75 -0.535078 L -3.74 -0.535156 L -3.73 -0.535117 L -3.72 -0.534922 L -3.71 -0.53457 L -3.7 -0.534102 L -3.69 -0.533477 L -3.68 -0.532695 L -3.67 -0.531797 L -3.66 -0.530781 L -3.65 -0.529609 L -3.64 -0.52832 L -3.63 -0.526875 L -3.62 -0.525352 L -3.61 -0.523672 L -3.6 -0.521914 L -3.59 -0.520039 L -3.58 -0.518047 L -3.57 -0.515977 L -3.56 -0.513828 L -3.55 -0.511602 L -3.54 -0.509297 L -3.53 -0.506914 L -3.52 -0.504492 L -3.51 -0.502031 L -3.49 -0.497031 L -3.45 -0.486875 L -3.44 -0.484375 L -3.43 -0.481914 L -3.42 -0.479492 L -3.41 -0.477148 L -3.4 -0.474844 L -3.39 -0.472578 L -3.38 -0.47043 L -3.37 -0.468398 L -3.36 -0.466445 L -3.35 -0.46457 L -3.34 -0.462852 L -3.33 -0.46125 L -3.32 -0.459766 L -3.31 -0.458438 L -3.3 -0.457266 L -3.29 -0.45625 L -3.28 -0.455391 L -3.27 -0.454687 L -3.26 -0.454141 L -3.25 -0.453789 L -3.24 -0.453594 L -3.23 -0.453594 L -3.22 -0.45375 L -3.21 -0.454102 L -3.2 -0.454648 L -3.19 -0.455391 L -3.18 -0.456289 L -3.17 -0.457344 L -3.16 -0.458633 L -3.15 -0.460078 L -3.14 -0.46168 L -3.13 -0.463437 L -3.12 -0.465391 L -3.11 -0.4675 L -3.1 -0.469766 L -3.09 -0.472148 L -3.08 -0.474687 L -3.07 -0.477344 L -3.06 -0.480117 L -3.05 -0.483008 L -3.04 -0.486016 L -3.03 -0.489102 L -3.02 -0.492266 L -3.01 -0.495469 L -3 -0.49875 L -2.99 -0.50207 L -2.98 -0.50543 L -2.96 -0.512227 L -2.94 -0.518945 L -2.93 -0.522266 L -2.92 -0.525547 L -2.91 -0.52875 L -2.9 -0.531914 L -2.89 -0.534961 L -2.88 -0.537891 L -2.87 -0.540742 L -2.86 -0.543438 L -2.85 -0.546016 L -2.84 -0.548437 L -2.83 -0.550703 L -2.82 -0.552773 L -2.81 -0.554688 L -2.8 -0.556367 L -2.79 -0.557852 L -2.78 -0.559141 L -2.77 -0.560195 L -2.76 -0.561016 L -2.75 -0.561602 L -2.74 -0.561953 L -2.73 -0.56207 L -2.72 -0.561914 L -2.71 -0.561484 L -2.7 -0.56082 L -2.69 -0.559883 L -2.68 -0.558672 L -2.67 -0.557187 L -2.66 -0.555469 L -2.65 -0.553477 L -2.64 -0.55125 L -2.63 -0.54875 L -2.62 -0.545977 L -2.61 -0.543008 L -2.6 -0.539766 L -2.59 -0.536289 L -2.58 -0.532617 L -2.57 -0.52875 L -2.56 -0.524648 L -2.55 -0.520391 L -2.54 -0.515938 L -2.53 -0.511289 L -2.52 -0.506523 L -2.51 -0.501641 L -2.5 -0.496641 L -2.49 -0.491523 L -2.48 -0.486328 L -2.47 -0.481055 L -2.46 -0.475742 L -2.43 -0.459688 L -2.42 -0.454375 L -2.41 -0.449102 L -2.4 -0.443906 L -2.39 -0.438789 L -2.38 -0.433828 L -2.37 -0.428945 L -2.36 -0.424258 L -2.35 -0.419727 L -2.34 -0.415391 L -2.33 -0.41125 L -2.32 -0.407344 L -2.31 -0.403711 L -2.3 -0.400352 L -2.29 -0.397305 L -2.28 -0.39457 L -2.27 -0.392148 L -2.26 -0.390039 L -2.25 -0.388359 L -2.24 -0.386992 L -2.23 -0.386055 L -2.22 -0.385547 L -2.21 -0.38543 L -2.2 -0.385742 L -2.19 -0.386523 L -2.18 -0.387734 L -2.17 -0.389414 L -2.16 -0.391563 L -2.15 -0.39418 L -2.14 -0.397266 L -2.13 -0.400859 L -2.12 -0.404922 L -2.11 -0.409492 L -2.1 -0.414531 L -2.09 -0.420078 L -2.08 -0.426094 L -2.07 -0.432578 L -2.06 -0.43957 L -2.05 -0.446992 L -2.04 -0.454883 L -2.03 -0.463242 L -2.02 -0.472031 L -2.01 -0.481211 L -2 -0.490859 L -1.99 -0.500859 L -1.98 -0.51125 L -1.97 -0.521992 L -1.96 -0.533086 L -1.95 -0.544531 L -1.94 -0.55625 L -1.93 -0.568281 L -1.92 -0.580547 L -1.91 -0.593047 L -1.9 -0.605742 L -1.89 -0.618633 L -1.88 -0.631719 L -1.87 -0.644922 L -1.86 -0.658203 L -1.85 -0.671562 L -1.82 -0.711875 L -1.81 -0.725273 L -1.8 -0.738633 L -1.79 -0.751836 L -1.78 -0.764961 L -1.77 -0.777891 L -1.76 -0.790664 L -1.75 -0.803203 L -1.74 -0.815508 L -1.73 -0.827539 L -1.72 -0.839258 L -1.71 -0.850664 L -1.7 -0.861719 L -1.69 -0.872383 L -1.68 -0.882656 L -1.67 -0.8925 L -1.66 -0.901875 L -1.65 -0.910742 L -1.64 -0.919141 L -1.63 -0.927031 L -1.62 -0.934375 L -1.61 -0.941172 L -1.6 -0.947383 L -1.59 -0.952969 L -1.58 -0.958008 L -1.57 -0.962383 L -1.56 -0.966172 L -1.55 -0.969297 L -1.54 -0.971758 L -1.53 -0.973594 L -1.52 -0.974766 L -1.51 -0.975273 L -1.5 -0.975117 L -1.49 -0.974258 L -1.48 -0.972773 L -1.47 -0.970625 L -1.46 -0.967773 L -1.45 -0.964297 L -1.44 -0.960156 L -1.43 -0.955391 L -1.42 -0.95 L -1.41 -0.943984 L -1.4 -0.937344 L -1.39 -0.930117 L -1.38 -0.922305 L -1.37 -0.913945 L -1.36 -0.905039 L -1.35 -0.895586 L -1.34 -0.885664 L -1.33 -0.875234 L -1.32 -0.864336 L -1.31 -0.853008 L -1.3 -0.841289 L -1.29 -0.829141 L -1.28 -0.816641 L -1.27 -0.803828 L -1.26 -0.790703 L -1.25 -0.777266 L -1.24 -0.763594 L -1.23 -0.749687 L -1.22 -0.735586 L -1.21 -0.721328 L -1.2 -0.706914 L -1.19 -0.692383 L -1.18 -0.677812 L -1.17 -0.663164 L -1.16 -0.648477 L -1.14 -0.61918 L -1.13 -0.604609 L -1.12 -0.590117 L -1.11 -0.575742 L -1.1 -0.561523 L -1.09 -0.547461 L -1.08 -0.533633 L -1.07 -0.519961 L -1.06 -0.506563 L -1.05 -0.493438 L -1.04 -0.480547 L -1.03 -0.468008 L -1.02 -0.455781 L -1.01 -0.443867 L -1 -0.432344 L -0.99 -0.421172 L -0.98 -0.410391 L -0.97 -0.4 L -0.96 -0.390039 L -0.95 -0.380508 L -0.94 -0.371406 L -0.93 -0.362734 L -0.92 -0.354492 L -0.91 -0.346719 L -0.9 -0.339375 L -0.89 -0.332539 L -0.88 -0.326133 L -0.87 -0.320156 L -0.86 -0.314648 L -0.85 -0.309609 L -0.84 -0.305 L -0.83 -0.300859 L -0.82 -0.297109 L -0.81 -0.293828 L -0.8 -0.290938 L -0.79 -0.288438 L -0.78 -0.286367 L -0.77 -0.284648 L -0.76 -0.28332 L -0.75 -0.282344 L -0.74 -0.28168 L -0.73 -0.281367 L -0.72 -0.281328 L -0.71 -0.281563 L -0.7 -0.282109 L -0.69 -0.282852 L -0.68 -0.283867 L -0.67 -0.285078 L -0.66 -0.286445 L -0.65 -0.288008 L -0.64 -0.289687 L -0.63 -0.291484 L -0.62 -0.293398 L -0.61 -0.295391 L -0.6 -0.297422 L -0.59 -0.299492 L -0.58 -0.301602 L -0.57 -0.303672 L -0.56 -0.305703 L -0.55 -0.307695 L -0.54 -0.30957 L -0.53 -0.311406 L -0.52 -0.313086 L -0.51 -0.314648 L -0.5 -0.316055 L -0.49 -0.317305 L -0.48 -0.31832 L -0.47 -0.31918 L -0.46 -0.319766 L -0.45 -0.320117 L -0.44 -0.320234 L -0.43 -0.320078 L -0.42 -0.319648 L -0.41 -0.318906 L -0.4 -0.317852 L -0.39 -0.316484 L -0.38 -0.314805 L -0.37 -0.312773 L -0.36 -0.310391 L -0.35 -0.307695 L -0.34 -0.304609 L -0.33 -0.301172 L -0.32 -0.297383 L -0.31 -0.293203 L -0.3 -0.288672 L -0.29 -0.28375 L -0.28 -0.278477 L -0.27 -0.272813 L -0.26 -0.266797 L -0.25 -0.260391 L -0.24 -0.253633 L -0.23 -0.246523 L -0.22 -0.239063 L -0.21 -0.231211 L -0.2 -0.223047 L -0.19 -0.214531 L -0.18 -0.205703 L -0.17 -0.196563 L -0.16 -0.18707 L -0.15 -0.177266 L -0.14 -0.167188 L -0.13 -0.156836 L -0.12 -0.146172 L -0.11 -0.135234 L -0.1 -0.124062 L -0.09 -0.112617 L -0.08 -0.100938 L -0.07 -0.0890234 L -0.06 -0.076875 L -0.05 -0.0645312 L -0.04 -0.0519922 L -0.03 -0.0392578 L -0.02 -0.0263281 L -0.01 -0.0132422 L 0 0 L 0.01 0.0132812 L 0.02 0.0265234 L 0.03 0.0396484 L 0.04 0.0526953 L 0.05 0.0656641 L 0.06 0.0785156 L 0.07 0.0912891 L 0.08 0.103984 L 0.09 0.116602 L 0.1 0.129062 L 0.11 0.141484 L 0.12 0.15375 L 0.13 0.165938 L 0.14 0.178047 L 0.15 0.19 L 0.16 0.201836 L 0.17 0.213594 L 0.18 0.225195 L 0.19 0.236719 L 0.2 0.248086 L 0.21 0.259336 L 0.22 0.270469 L 0.23 0.281445 L 0.24 0.292305 L 0.25 0.303047 L 0.26 0.313633 L 0.27 0.324062 L 0.28 0.334375 L 0.29 0.344531 L 0.3 0.35457 L 0.31 0.364414 L 0.32 0.374141 L 0.33 0.383711 L 0.34 0.393086 L 0.35 0.402344 L 0.36 0.411406 L 0.37 0.420352 L 0.38 0.429102 L 0.39 0.437695 L 0.4 0.446133 L 0.41 0.454375 L 0.42 0.462461 L 0.43 0.470352 L 0.44 0.478086 L 0.45 0.485664 L 0.46 0.493047 L 0.47 0.500234 L 0.48 0.507266 L 0.49 0.514141 L 0.5 0.520781 L 0.51 0.527266 L 0.52 0.533594 L 0.53 0.539687 L 0.54 0.545625 L 0.55 0.551367 L 0.56 0.556953 L 0.57 0.562305 L 0.58 0.5675 L 0.59 0.5725 L 0.6 0.577344 L 0.61 0.581953 L 0.62 0.586406 L 0.63 0.590664 L 0.64 0.594766 L 0.65 0.598633 L 0.66 0.602344 L 0.67 0.605898 L 0.68 0.609219 L 0.69 0.612383 L 0.7 0.615391 L 0.71 0.618203 L 0.72 0.62082 L 0.73 0.623281 L 0.74 0.625547 L 0.75 0.627656 L 0.76 0.629609 L 0.77 0.631367 L 0.78 0.633008 L 0.79 0.634414 L 0.8 0.635703 L 0.81 0.636836 L 0.82 0.637812 L 0.83 0.638633 L 0.84 0.639297 L 0.85 0.639805 L 0.86 0.640156 L 0.87 0.640391 L 0.88 0.640508 L 0.89 0.64043 L 0.9 0.640273 L 0.91 0.639961 L 0.92 0.639531 L 0.93 0.638984 L 0.94 0.63832 L 0.95 0.637539 L 0.96 0.63668 L 0.97 0.635664 L 0.98 0.63457 L 0.99 0.633398 L 1 0.632109 L 1.01 0.630742 L 1.02 0.629297 L 1.03 0.627773 L 1.04 0.626172 L 1.05 0.624531 L 1.06 0.622812 L 1.07 0.621016 L 1.08 0.61918 L 1.09 0.617305 L 1.11 0.613398 L 1.12 0.611406 L 1.13 0.609375 L 1.18 0.599023 L 1.19 0.596914 L 1.2 0.594844 L 1.22 0.590781 L 1.24 0.586797 L 1.25 0.584883 L 1.27 0.581133 L 1.28 0.579375 L 1.29 0.577656 L 1.3 0.575977 L 1.31 0.574414 L 1.32 0.572891 L 1.33 0.571445 L 1.34 0.570117 L 1.35 0.568867 L 1.36 0.567734 L 1.37 0.56668 L 1.38 0.565742 L 1.39 0.564922 L 1.4 0.56418 L 1.41 0.563594 L 1.42 0.563164 L 1.43 0.562812 L 1.44 0.562656 L 1.45 0.562578 L 1.46 0.562695 L 1.47 0.562969 L 1.48 0.563359 L 1.49 0.563945 L 1.5 0.564648 L 1.51 0.565547 L 1.52 0.566641 L 1.53 0.567891 L 1.54 0.569336 L 1.55 0.570937 L 1.56 0.572734 L 1.57 0.574727 L 1.58 0.576914 L 1.59 0.579297 L 1.6 0.581875 L 1.61 0.584648 L 1.62 0.587656 L 1.63 0.59082 L 1.64 0.594258 L 1.65 0.597852 L 1.66 0.60168 L 1.67 0.605742 L 1.68 0.610039 L 1.69 0.614531 L 1.7 0.619219 L 1.71 0.62418 L 1.72 0.629336 L 1.73 0.634727 L 1.74 0.640313 L 1.75 0.646172 L 1.76 0.652227 L 1.77 0.658516 L 1.78 0.665039 L 1.79 0.671797 L 1.8 0.678789 L 1.81 0.685977 L 1.82 0.693437 L 1.83 0.701094 L 1.84 0.708984 L 1.85 0.717109 L 1.86 0.72543 L 1.87 0.733984 L 1.88 0.742773 L 1.89 0.751797 L 1.9 0.761016 L 1.91 0.77043 L 1.92 0.780078 L 1.93 0.789961 L 1.94 0.800039 L 1.95 0.810312 L 1.96 0.820781 L 1.97 0.831445 L 1.98 0.842344 L 1.99 0.853398 L 2 0.864648 L 2.01 0.876094 L 2.02 0.887734 L 2.03 0.899531 L 2.04 0.911523 L 2.05 0.923672 L 2.06 0.936016 L 2.07 0.948477 L 2.08 0.961133 L 2.09 0.973906 L 2.1 0.986836 L 2.11 0.999922 L 2.12 1.013125 L 2.13 1.026484 L 2.14 1.039922 L 2.15 1.053516 L 2.16 1.067227 L 2.17 1.081055 L 2.18 1.094961 L 2.19 1.108984 L 2.2 1.123086 L 2.21 1.137266 L 2.22 1.151523 L 2.23 1.165859 L 2.24 1.180234 L 2.25 1.194688 L 2.27 1.22375 L 2.29 1.252969 L 2.3 1.267617 L 2.31 1.282305 L 2.32 1.296953 L 2.33 1.311641 L 2.34 1.326289 L 2.35 1.340977 L 2.36 1.355586 L 2.37 1.370234 L 2.38 1.384805 L 2.39 1.399336 L 2.4 1.413828 L 2.41 1.428281 L 2.42 1.442656 L 2.43 1.456953 L 2.44 1.471172 L 2.45 1.485313 L 2.46 1.499375 L 2.47 1.51332 L 2.48 1.527187 L 2.49 1.540938 L 2.5 1.554531 L 2.51 1.568008 L 2.52 1.581367 L 2.53 1.594609 L 2.54 1.607656 L 2.55 1.620547 L 2.56 1.63332 L 2.57 1.645898 L 2.58 1.658281 L 2.59 1.670508 L 2.6 1.682539 L 2.61 1.694375 L 2.62 1.706016 L 2.63 1.717461 L 2.64 1.728672 L 2.65 1.739688 L 2.66 1.750469 L 2.67 1.761016 L 2.68 1.771289 L 2.69 1.781367 L 2.7 1.791172 L 2.71 1.800742 L 2.72 1.810078 L 2.73 1.819102 L 2.74 1.827891 L 2.75 1.836406 L 2.76 1.844609 L 2.77 1.852578 L 2.78 1.860234 L 2.79 1.867617 L 2.8 1.874688 L 2.81 1.881445 L 2.82 1.88793 L 2.83 1.894141 L 2.84 1.9 L 2.85 1.905547 L 2.86 1.91082 L 2.87 1.915742 L 2.88 1.920352 L 2.89 1.924648 L 2.9 1.928594 L 2.91 1.932266 L 2.92 1.935586 L 2.93 1.938555 L 2.94 1.941211 L 2.95 1.943555 L 2.96 1.945547 L 2.97 1.947227 L 2.98 1.948555 L 2.99 1.949531 L 3 1.950195 L 3.01 1.950547 L 3.02 1.950547 L 3.03 1.950195 L 3.04 1.949531 L 3.05 1.948516 L 3.06 1.947188 L 3.07 1.945547 L 3.08 1.943555 L 3.09 1.941211 L 3.1 1.938594 L 3.11 1.935625 L 3.12 1.932305 L 3.13 1.928711 L 3.14 1.924805 L 3.15 1.920547 L 3.16 1.915977 L 3.17 1.911133 L 3.18 1.905977 L 3.19 1.900508 L 3.2 1.894727 L 3.21 1.888672 L 3.22 1.882305 L 3.23 1.875664 L 3.24 1.86875 L 3.25 1.861523 L 3.26 1.854062 L 3.27 1.846328 L 3.28 1.83832 L 3.29 1.830039 L 3.3 1.821523 L 3.31 1.812734 L 3.32 1.803711 L 3.33 1.794453 L 3.34 1.784961 L 3.35 1.775234 L 3.36 1.765313 L 3.37 1.755156 L 3.38 1.744805 L 3.39 1.734219 L 3.4 1.723437 L 3.41 1.7125 L 3.42 1.701367 L 3.43 1.690039 L 3.44 1.678555 L 3.45 1.666914 L 3.46 1.655078 L 3.47 1.643125 L 3.48 1.631016 L 3.49 1.618789 L 3.5 1.606406 L 3.51 1.593945 L 3.52 1.581328 L 3.53 1.568633 L 3.54 1.55582 L 3.55 1.542891 L 3.56 1.529922 L 3.57 1.516836 L 3.58 1.503711 L 3.6 1.477227 L 3.62 1.450586 L 3.64 1.423789 L 3.66 1.396914 L 3.67 1.383437 L 3.69 1.356562 L 3.71 1.329766 L 3.72 1.316406 L 3.73 1.303086 L 3.74 1.289805 L 3.75 1.276602 L 3.76 1.263437 L 3.77 1.250312 L 3.78 1.237305 L 3.79 1.224375 L 3.8 1.211484 L 3.81 1.19875 L 3.82 1.186055 L 3.83 1.173516 L 3.84 1.161055 L 3.85 1.14875 L 3.86 1.136523 L 3.87 1.124453 L 3.88 1.1125 L 3.89 1.100703 L 3.9 1.089062 L 3.91 1.077539 L 3.92 1.066211 L 3.93 1.055039 L 3.94 1.044023 L 3.95 1.033164 L 3.96 1.0225 L 3.97 1.011992 L 3.98 1.001719 L 3.99 0.991602 L 4 0.98168 L 4.01 0.971953 L 4.02 0.962461 L 4.03 0.953125 L 4.04 0.944023 L 4.05 0.935156 L 4.06 0.926484 L 4.07 0.918047 L 4.08 0.909805 L 4.09 0.901797 L 4.1 0.894023 L 4.11 0.886445 L 4.12 0.879141 L 4.13 0.872031 L 4.14 0.865195 L 4.15 0.858594 L 4.16 0.852187 L 4.17 0.846055 L 4.18 0.840156 L 4.19 0.834492 L 4.2 0.829102 L 4.21 0.823906 L 4.22 0.818984 L 4.23 0.814297 L 4.24 0.809883 L 4.25 0.805664 L 4.26 0.801719 L 4.27 0.798008 L 4.28 0.794531 L 4.29 0.791328 L 4.3 0.788359 L 4.31 0.785586 L 4.32 0.783086 L 4.33 0.78082 L 4.34 0.778789 L 4.35 0.776992 L 4.36 0.77543 L 4.37 0.774102 L 4.38 0.773008 L 4.39 0.772148 L 4.4 0.771484 L 4.41 0.771055 L 4.42 0.770859 L 4.43 0.770859 L 4.44 0.771055 L 4.45 0.771484 L 4.46 0.772148 L 4.47 0.772969 L 4.48 0.774023 L 4.49 0.775273 L 4.5 0.77668 L 4.51 0.77832 L 4.52 0.780117 L 4.53 0.782109 L 4.54 0.784258 L 4.55 0.786602 L 4.56 0.789102 L 4.57 0.791797 L 4.58 0.794609 L 4.59 0.797617 L 4.6 0.800742 L 4.61 0.804023 L 4.62 0.807461 L 4.63 0.811016 L 4.64 0.814727 L 4.65 0.818555 L 4.66 0.8225 L 4.67 0.826562 L 4.68 0.830742 L 4.69 0.835039 L 4.7 0.839414 L 4.71 0.843906 L 4.72 0.848477 L 4.73 0.853164 L 4.74 0.857891 L 4.75 0.862734 L 4.76 0.867617 L 4.77 0.872578 L 4.78 0.877617 L 4.79 0.882695 L 4.8 0.887812 L 4.82 0.898203 L 4.84 0.90875 L 4.86 0.919375 L 4.92 0.951484 L 4.94 0.962109 L 4.95 0.967383 L 4.97 0.977852 L 4.98 0.983047 L 5 0.993281 " transform="matrix(100,0,0,-100,500,200)"/>
<path style="fill:none;stroke-width:0.03;stroke-linecap:butt;stroke-linejoin:miter;stroke:rgb(87.058824%,29.803922%,71.764706%);stroke-opacity:0.5;stroke-miterlimit:10;" d="M -5 -0.25 L -4.98 -0.251172 L -4.96 -0.252266 L -4.95 -0.252773 L -4.94 -0.253242 L -4.93 -0.253672 L -4.92 -0.254023 L -4.91 -0.254336 L -4.9 -0.25457 L -4.89 -0.254727 L -4.88 -0.254805 L -4.87 -0.254805 L -4.86 -0.254766 L -4.85 -0.254609 L -4.84 -0.254414 L -4.83 -0.254102 L -4.82 -0.25375 L -4.81 -0.253359 L -4.8 -0.252891 L -4.79 -0.252383 L -4.78 -0.251836 L -4.77 -0.25125 L -4.73 -0.24875 L -4.71 -0.247578 L -4.7 -0.247031 L -4.68 -0.246094 L -4.67 -0.245703 L -4.66 -0.245391 L -4.65 -0.245156 L -4.64 -0.244961 L -4.63 -0.244883 L -4.62 -0.244883 L -4.61 -0.244922 L -4.6 -0.245078 L -4.59 -0.245313 L -4.58 -0.245625 L -4.57 -0.245977 L -4.56 -0.246406 L -4.55 -0.246914 L -4.54 -0.247461 L -4.53 -0.248047 L -4.52 -0.248672 L -4.48 -0.251328 L -4.46 -0.252578 L -4.45 -0.253164 L -4.43 -0.25418 L -4.42 -0.25457 L -4.41 -0.254922 L -4.4 -0.255195 L -4.39 -0.255352 L -4.38 -0.255469 L -4.37 -0.255469 L -4.36 -0.25543 L -4.35 -0.255273 L -4.34 -0.255 L -4.33 -0.254688 L -4.32 -0.254297 L -4.31 -0.253828 L -4.3 -0.253281 L -4.29 -0.252695 L -4.28 -0.25207 L -4.27 -0.251406 L -4.22 -0.247891 L -4.21 -0.247227 L -4.2 -0.246602 L -4.19 -0.246055 L -4.18 -0.245547 L -4.17 -0.245078 L -4.16 -0.244727 L -4.15 -0.244453 L -4.14 -0.244219 L -4.13 -0.244141 L -4.12 -0.244102 L -4.11 -0.24418 L -4.1 -0.244336 L -4.09 -0.244609 L -4.08 -0.244961 L -4.07 -0.245391 L -4.06 -0.245898 L -4.05 -0.246445 L -4.04 -0.24707 L -4.02 -0.248477 L -4.01 -0.249219 L -3.99 -0.250781 L -3.97 -0.252266 L -3.95 -0.253672 L -3.94 -0.254258 L -3.93 -0.254805 L -3.92 -0.255313 L -3.91 -0.255703 L -3.9 -0.256016 L -3.89 -0.256211 L -3.88 -0.256328 L -3.87 -0.256367 L -3.86 -0.256289 L -3.85 -0.256094 L -3.84 -0.25582 L -3.83 -0.255469 L -3.82 -0.255 L -3.81 -0.254453 L -3.8 -0.253828 L -3.79 -0.253164 L -3.78 -0.252422 L -3.77 -0.251641 L -3.74 -0.24918 L -3.73 -0.24832 L -3.71 -0.246758 L -3.69 -0.245352 L -3.68 -0.244766 L -3.67 -0.244258 L -3.66 -0.243828 L -3.65 -0.243477 L -3.64 -0.243242 L -3.63 -0.243125 L -3.62 -0.243086 L -3.61 -0.243164 L -3.6 -0.243359 L -3.59 -0.243672 L -3.58 -0.244063 L -3.57 -0.24457 L -3.56 -0.245156 L -3.55 -0.24582 L -3.54 -0.246563 L -3.52 -0.248203 L -3.47 -0.252695 L -3.46 -0.253555 L -3.45 -0.254336 L -3.44 -0.255078 L -3.43 -0.255703 L -3.42 -0.256289 L -3.41 -0.256758 L -3.4 -0.257148 L -3.39 -0.257383 L -3.38 -0.257539 L -3.37 -0.257578 L -3.36 -0.2575 L -3.35 -0.257266 L -3.34 -0.256953 L -3.33 -0.256523 L -3.32 -0.255977 L -3.31 -0.255313 L -3.3 -0.25457 L -3.29 -0.253789 L -3.28 -0.252891 L -3.27 -0.251953 L -3.25 -0.25 L -3.24 -0.248984 L -3.22 -0.247031 L -3.21 -0.246094 L -3.2 -0.245234 L -3.19 -0.244414 L -3.18 -0.243672 L -3.17 -0.243047 L -3.16 -0.242539 L -3.15 -0.242109 L -3.14 -0.241836 L -3.13 -0.241641 L -3.12 -0.241641 L -3.11 -0.241719 L -3.1 -0.241953 L -3.09 -0.242305 L -3.08 -0.242773 L -3.07 -0.243398 L -3.06 -0.244102 L -3.05 -0.244922 L -3.04 -0.24582 L -3.03 -0.246797 L -3.02 -0.247813 L -2.99 -0.251094 L -2.98 -0.252227 L -2.96 -0.254336 L -2.95 -0.255313 L -2.94 -0.256211 L -2.93 -0.257031 L -2.92 -0.257734 L -2.91 -0.25832 L -2.9 -0.258789 L -2.89 -0.259141 L -2.88 -0.259336 L -2.87 -0.259375 L -2.86 -0.259258 L -2.85 -0.259023 L -2.84 -0.258594 L -2.83 -0.258086 L -2.82 -0.257383 L -2.81 -0.256602 L -2.8 -0.255703 L -2.79 -0.254688 L -2.78 -0.253594 L -2.77 -0.252461 L -2.76 -0.25125 L -2.73 -0.2475 L -2.72 -0.246289 L -2.71 -0.245117 L -2.7 -0.243984 L -2.69 -0.242969 L -2.68 -0.24207 L -2.67 -0.24125 L -2.66 -0.240586 L -2.65 -0.240039 L -2.64 -0.239648 L -2.63 -0.239414 L -2.62 -0.239375 L -2.61 -0.239492 L -2.6 -0.239766 L -2.59 -0.240195 L -2.58 -0.24082 L -2.57 -0.241563 L -2.56 -0.242461 L -2.55 -0.243477 L -2.54 -0.244648 L -2.53 -0.245859 L -2.52 -0.247187 L -2.51 -0.248555 L -2.5 -0.25 L -2.49 -0.251406 L -2.48 -0.252852 L -2.47 -0.254258 L -2.46 -0.255586 L -2.45 -0.256875 L -2.44 -0.258047 L -2.43 -0.259102 L -2.42 -0.260039 L -2.41 -0.26082 L -2.4 -0.261445 L -2.39 -0.261914 L -2.38 -0.262148 L -2.37 -0.262227 L -2.36 -0.262109 L -2.35 -0.261797 L -2.34 -0.261289 L -2.33 -0.260625 L -2.32 -0.259727 L -2.31 -0.258711 L -2.3 -0.2575 L -2.29 -0.256211 L -2.28 -0.254766 L -2.27 -0.253242 L -2.26 -0.251641 L -2.24 -0.248281 L -2.22 -0.245 L -2.21 -0.243398 L -2.2 -0.241914 L -2.19 -0.240508 L -2.18 -0.239258 L -2.17 -0.238125 L -2.16 -0.237188 L -2.15 -0.236445 L -2.14 -0.235898 L -2.13 -0.235547 L -2.12 -0.235469 L -2.11 -0.235586 L -2.1 -0.235937 L -2.09 -0.236523 L -2.08 -0.237305 L -2.07 -0.23832 L -2.06 -0.239531 L -2.05 -0.240938 L -2.04 -0.2425 L -2.03 -0.244219 L -2.02 -0.246016 L -2.01 -0.24793 L -1.99 -0.251914 L -1.98 -0.253945 L -1.97 -0.255898 L -1.96 -0.257812 L -1.95 -0.259648 L -1.94 -0.261328 L -1.93 -0.262891 L -1.92 -0.264258 L -1.91 -0.265391 L -1.9 -0.266328 L -1.89 -0.267031 L -1.88 -0.267422 L -1.87 -0.267578 L -1.86 -0.267461 L -1.85 -0.267031 L -1.84 -0.266367 L -1.83 -0.265391 L -1.82 -0.264141 L -1.81 -0.262656 L -1.8 -0.260938 L -1.79 -0.259023 L -1.78 -0.256914 L -1.77 -0.254648 L -1.76 -0.252266 L -1.75 -0.249766 L -1.73 -0.244687 L -1.72 -0.242188 L -1.71 -0.239766 L -1.7 -0.237422 L -1.69 -0.235234 L -1.68 -0.233203 L -1.67 -0.231445 L -1.66 -0.229883 L -1.65 -0.228633 L -1.64 -0.227695 L -1.63 -0.22707 L -1.62 -0.226797 L -1.61 -0.226875 L -1.6 -0.227344 L -1.59 -0.228125 L -1.58 -0.229297 L -1.57 -0.23082 L -1.56 -0.232695 L -1.55 -0.234883 L -1.54 -0.237344 L -1.53 -0.240078 L -1.52 -0.243008 L -1.51 -0.246133 L -1.5 -0.249375 L -1.48 -0.256094 L -1.47 -0.259492 L -1.46 -0.262773 L -1.45 -0.265938 L -1.44 -0.268945 L -1.43 -0.271719 L -1.42 -0.274219 L -1.41 -0.276367 L -1.4 -0.278203 L -1.39 -0.27957 L -1.38 -0.280508 L -1.37 -0.280977 L -1.36 -0.280937 L -1.35 -0.280391 L -1.34 -0.279336 L -1.33 -0.277734 L -1.32 -0.275625 L -1.31 -0.273008 L -1.3 -0.269883 L -1.29 -0.266328 L -1.28 -0.262305 L -1.27 -0.257969 L -1.26 -0.253281 L -1.25 -0.24832 L -1.24 -0.243164 L -1.23 -0.237852 L -1.22 -0.2325 L -1.21 -0.227187 L -1.2 -0.221953 L -1.19 -0.216914 L -1.18 -0.212109 L -1.17 -0.207695 L -1.16 -0.203672 L -1.15 -0.200195 L -1.14 -0.197266 L -1.13 -0.195039 L -1.12 -0.193516 L -1.11 -0.192773 L -1.1 -0.192891 L -1.09 -0.193867 L -1.08 -0.195781 L -1.07 -0.198633 L -1.06 -0.202461 L -1.05 -0.207266 L -1.04 -0.213047 L -1.03 -0.219766 L -1.02 -0.227461 L -1.01 -0.236016 L -1 -0.24543 L -0.99 -0.255625 L -0.98 -0.266563 L -0.97 -0.278125 L -0.96 -0.290273 L -0.95 -0.302891 L -0.94 -0.315859 L -0.93 -0.329102 L -0.92 -0.3425 L -0.91 -0.355938 L -0.9 -0.369297 L -0.89 -0.382461 L -0.88 -0.395313 L -0.87 -0.407773 L -0.86 -0.419648 L -0.85 -0.430859 L -0.84 -0.441328 L -0.83 -0.450938 L -0.82 -0.45957 L -0.81 -0.467188 L -0.8 -0.473672 L -0.79 -0.478984 L -0.78 -0.483086 L -0.77 -0.485898 L -0.76 -0.487383 L -0.75 -0.487539 L -0.74 -0.486406 L -0.73 -0.483906 L -0.72 -0.480078 L -0.71 -0.475 L -0.7 -0.468672 L -0.69 -0.461172 L -0.68 -0.4525 L -0.67 -0.442813 L -0.66 -0.432187 L -0.65 -0.420625 L -0.64 -0.40832 L -0.63 -0.395352 L -0.62 -0.381797 L -0.61 -0.367812 L -0.6 -0.353477 L -0.59 -0.338906 L -0.58 -0.324258 L -0.57 -0.30957 L -0.56 -0.295078 L -0.55 -0.280781 L -0.54 -0.266797 L -0.53 -0.253281 L -0.52 -0.240273 L -0.51 -0.227891 L -0.5 -0.216172 L -0.49 -0.205195 L -0.48 -0.195039 L -0.47 -0.185703 L -0.46 -0.177266 L -0.45 -0.169688 L -0.44 -0.163047 L -0.43 -0.157344 L -0.42 -0.1525 L -0.41 -0.148555 L -0.4 -0.145469 L -0.39 -0.143164 L -0.38 -0.141641 L -0.37 -0.140859 L -0.36 -0.140664 L -0.35 -0.141055 L -0.34 -0.141914 L -0.33 -0.143203 L -0.32 -0.144844 L -0.31 -0.146719 L -0.3 -0.148711 L -0.28 -0.152852 L -0.27 -0.154805 L -0.26 -0.156563 L -0.25 -0.158047 L -0.24 -0.15918 L -0.23 -0.159883 L -0.22 -0.160117 L -0.21 -0.159805 L -0.2 -0.158945 L -0.19 -0.157422 L -0.18 -0.155195 L -0.17 -0.152305 L -0.16 -0.148672 L -0.15 -0.144336 L -0.14 -0.139219 L -0.13 -0.133398 L -0.12 -0.126836 L -0.11 -0.119531 L -0.1 -0.111523 L -0.09 -0.102852 L -0.08 -0.0935156 L -0.07 -0.0835937 L -0.06 -0.0730859 L -0.05 -0.0620312 L -0.04 -0.0504687 L -0.03 -0.0384375 L -0.02 -0.0260156 L -0.01 -0.0131641 L 0 0 L 0.01 0.0132812 L 0.02 0.0265234 L 0.03 0.0396484 L 0.04 0.0526953 L 0.05 0.0656641 L 0.06 0.0785156 L 0.07 0.0912891 L 0.08 0.103984 L 0.09 0.116602 L 0.1 0.129062 L 0.11 0.141484 L 0.12 0.15375 L 0.13 0.165938 L 0.14 0.178047 L 0.15 0.19 L 0.16 0.201836 L 0.17 0.213594 L 0.18 0.225195 L 0.19 0.236719 L 0.2 0.248086 L 0.21 0.259336 L 0.22 0.270469 L 0.23 0.281445 L 0.24 0.292305 L 0.25 0.303047 L 0.26 0.313633 L 0.27 0.324062 L 0.28 0.334375 L 0.29 0.344531 L 0.3 0.35457 L 0.31 0.364414 L 0.32 0.374141 L 0.33 0.383711 L 0.34 0.393086 L 0.35 0.402344 L 0.36 0.411406 L 0.37 0.420352 L 0.38 0.429102 L 0.39 0.437695 L 0.4 0.446133 L 0.41 0.454375 L 0.42 0.462461 L 0.43 0.470352 L 0.44 0.478086 L 0.45 0.485664 L 0.46 0.493047 L 0.47 0.500234 L 0.48 0.507266 L 0.49 0.514141 L 0.5 0.520781 L 0.51 0.527266 L 0.52 0.533594 L 0.53 0.539687 L 0.54 0.545625 L 0.55 0.551367 L 0.56 0.556953 L 0.57 0.562305 L 0.58 0.5675 L 0.59 0.5725 L 0.6 0.577344 L 0.61 0.581953 L 0.62 0.586406 L 0.63 0.590664 L 0.64 0.594766 L 0.65 0.598633 L 0.66 0.602344 L 0.67 0.605898 L 0.68 0.609219 L 0.69 0.612383 L 0.7 0.615391 L 0.71 0.618203 L 0.72 0.62082 L 0.73 0.623281 L 0.74 0.625547 L 0.75 0.627656 L 0.76 0.629609 L 0.77 0.631367 L 0.78 0.633008 L 0.79 0.634414 L 0.8 0.635703 L 0.81 0.636836 L 0.82 0.637812 L 0.83 0.638633 L 0.84 0.639297 L 0.85 0.639805 L 0.86 0.640156 L 0.87 0.640391 L 0.88 0.640508 L 0.89 0.64043 L 0.9 0.640273 L 0.91 0.639961 L 0.92 0.639531 L 0.93 0.638984 L 0.94 0.63832 L 0.95 0.637539 L 0.96 0.63668 L 0.97 0.635664 L 0.98 0.63457 L 0.99 0.633398 L 1 0.632109 L 1.01 0.630742 L 1.02 0.629297 L 1.03 0.627773 L 1.04 0.626172 L 1.05 0.624531 L 1.06 0.622812 L 1.07 0.621016 L 1.08 0.61918 L 1.09 0.617305 L 1.11 0.613398 L 1.12 0.611406 L 1.13 0.609375 L 1.18 0.599023 L 1.19 0.596914 L 1.2 0.594844 L 1.22 0.590781 L 1.24 0.586797 L 1.25 0.584883 L 1.27 0.581133 L 1.28 0.579375 L 1.29 0.577656 L 1.3 0.575977 L 1.31 0.574414 L 1.32 0.572891 L 1.33 0.571445 L 1.34 0.570117 L 1.35 0.568867 L 1.36 0.567734 L 1.37 0.56668 L 1.38 0.565742 L 1.39 0.564922 L 1.4 0.56418 L 1.41 0.563594 L 1.42 0.563164 L 1.43 0.562812 L 1.44 0.562656 L 1.45 0.562578 L 1.46 0.562695 L 1.47 0.562969 L 1.48 0.563359 L 1.49 0.563945 L 1.5 0.564648 L 1.51 0.565547 L 1.52 0.566641 L 1.53 0.567891 L 1.54 0.569336 L 1.55 0.570937 L 1.56 0.572734 L 1.57 0.574727 L 1.58 0.576914 L 1.59 0.579297 L 1.6 0.581875 L 1.61 0.584648 L 1.62 0.587656 L 1.63 0.59082 L 1.64 0.594258 L 1.65 0.597852 L 1.66 0.60168 L 1.67 0.605742 L 1.68 0.610039 L 1.69 0.614531 L 1.7 0.619219 L 1.71 0.62418 L 1.72 0.629336 L 1.73 0.634727 L 1.74 0.640313 L 1.75 0.646172 L 1.76 0.652227 L 1.77 0.658516 L 1.78 0.665039 L 1.79 0.671797 L 1.8 0.678789 L 1.81 0.685977 L 1.82 0.693437 L 1.83 0.701094 L 1.84 0.708984 L 1.85 0.717109 L 1.86 0.72543 L 1.87 0.733984 L 1.88 0.742773 L 1.89 0.751797 L 1.9 0.761016 L 1.91 0.77043 L 1.92 0.780078 L 1.93 0.789961 L 1.94 0.800039 L 1.95 0.810312 L 1.96 0.820781 L 1.97 0.831445 L 1.98 0.842344 L 1.99 0.853398 L 2 0.864648 L 2.01 0.876094 L 2.02 0.887734 L 2.03 0.899531 L 2.04 0.911523 L 2.05 0.923672 L 2.06 0.936016 L 2.07 0.948477 L 2.08 0.961133 L 2.09 0.973906 L 2.1 0.986836 L 2.11 0.999922 L 2.12 1.013125 L 2.13 1.026484 L 2.14 1.039922 L 2.15 1.053516 L 2.16 1.067227 L 2.17 1.081055 L 2.18 1.094961 L 2.19 1.108984 L 2.2 1.123086 L 2.21 1.137266 L 2.22 1.151523 L 2.23 1.165859 L 2.24 1.180234 L 2.25 1.194688 L 2.27 1.22375 L 2.29 1.252969 L 2.3 1.267617 L 2.31 1.282305 L 2.32 1.296953 L 2.33 1.311641 L 2.34 1.326289 L 2.35 1.340977 L 2.36 1.355586 L 2.37 1.370234 L 2.38 1.384805 L 2.39 1.399336 L 2.4 1.413828 L 2.41 1.428281 L 2.42 1.442656 L 2.43 1.456953 L 2.44 1.471172 L 2.45 1.485313 L 2.46 1.499375 L 2.47 1.51332 L 2.48 1.527187 L 2.49 1.540938 L 2.5 1.554531 L 2.51 1.568008 L 2.52 1.581367 L 2.53 1.594609 L 2.54 1.607656 L 2.55 1.620547 L 2.56 1.63332 L 2.57 1.645898 L 2.58 1.658281 L 2.59 1.670508 L 2.6 1.682539 L 2.61 1.694375 L 2.62 1.706016 L 2.63 1.717461 L 2.64 1.728672 L 2.65 1.739688 L 2.66 1.750469 L 2.67 1.761016 L 2.68 1.771289 L 2.69 1.781367 L 2.7 1.791172 L 2.71 1.800742 L 2.72 1.810078 L 2.73 1.819102 L 2.74 1.827891 L 2.75 1.836406 L 2.76 1.844609 L 2.77 1.852578 L 2.78 1.860234 L 2.79 1.867617 L 2.8 1.874688 L 2.81 1.881445 L 2.82 1.88793 L 2.83 1.894141 L 2.84 1.9 L 2.85 1.905547 L 2.86 1.91082 L 2.87 1.915742 L 2.88 1.920352 L 2.89 1.924648 L 2.9 1.928594 L 2.91 1.932266 L 2.92 1.935586 L 2.93 1.938555 L 2.94 1.941211 L 2.95 1.943555 L 2.96 1.945547 L 2.97 1.947227 L 2.98 1.948555 L 2.99 1.949531 L 3 1.950195 L 3.01 1.950547 L 3.02 1.950547 L 3.03 1.950195 L 3.04 1.949531 L 3.05 1.948516 L 3.06 1.947188 L 3.07 1.945547 L 3.08 1.943555 L 3.09 1.941211 L 3.1 1.938594 L 3.11 1.935625 L 3.12 1.932305 L 3.13 1.928711 L 3.14 1.924805 L 3.15 1.920547 L 3.16 1.915977 L 3.17 1.911133 L 3.18 1.905977 L 3.19 1.900508 L 3.2 1.894727 L 3.21 1.888672 L 3.22 1.882305 L 3.23 1.875664 L 3.24 1.86875 L 3.25 1.861523 L 3.26 1.854062 L 3.27 1.846328 L 3.28 1.83832 L 3.29 1.830039 L 3.3 1.821523 L 3.31 1.812734 L 3.32 1.803711 L 3.33 1.794453 L 3.34 1.784961 L 3.35 1.775234 L 3.36 1.765313 L 3.37 1.755156 L 3.38 1.744805 L 3.39 1.734219 L 3.4 1.723437 L 3.41 1.7125 L 3.42 1.701367 L 3.43 1.690039 L 3.44 1.678555 L 3.45 1.666914 L 3.46 1.655078 L 3.47 1.643125 L 3.48 1.631016 L 3.49 1.618789 L 3.5 1.606406 L 3.51 1.593945 L 3.52 1.581328 L 3.53 1.568633 L 3.54 1.55582 L 3.55 1.542891 L 3.56 1.529922 L 3.57 1.516836 L 3.58 1.503711 L 3.6 1.477227 L 3.62 1.450586 L 3.64 1.423789 L 3.66 1.396914 L 3.67 1.383437 L 3.69 1.356562 L 3.71 1.329766 L 3.72 1.316406 L 3.73 1.303086 L 3.74 1.289805 L 3.75 1.276602 L 3.76 1.263437 L 3.77 1.250312 L 3.78 1.237305 L 3.79 1.224375 L 3.8 1.211484 L 3.81 1.19875 L 3.82 1.186055 L 3.83 1.173516 L 3.84 1.161055 L 3.85 1.14875 L 3.86 1.136523 L 3.87 1.124453 L 3.88 1.1125 L 3.89 1.100703 L 3.9 1.089062 L 3.91 1.077539 L 3.92 1.066211 L 3.93 1.055039 L 3.94 1.044023 L 3.95 1.033164 L 3.96 1.0225 L 3.97 1.011992 L 3.98 1.001719 L 3.99 0.991602 L 4 0.98168 L 4.01 0.971953 L 4.02 0.962461 L 4.03 0.953125 L 4.04 0.944023 L 4.05 0.935156 L 4.06 0.926484 L 4.07 0.918047 L 4.08 0.909805 L 4.09 0.901797 L 4.1 0.894023 L 4.11 0.886445 L 4.12 0.879141 L 4.13 0.872031 L 4.14 0.865195 L 4.15 0.858594 L 4.16 0.852187 L 4.17 0.846055 L 4.18 0.840156 L 4.19 0.834492 L 4.2 0.829102 L 4.21 0.823906 L 4.22 0.818984 L 4.23 0.814297 L 4.24 0.809883 L 4.25 0.805664 L 4.26 0.801719 L 4.27 0.798008 L 4.28 0.794531 L 4.29 0.791328 L 4.3 0.788359 L 4.31 0.785586 L 4.32 0.783086 L 4.33 0.78082 L 4.34 0.778789 L 4.35 0.776992 L 4.36 0.77543 L 4.37 0.774102 L 4.38 0.773008 L 4.39 0.772148 L 4.4 0.771484 L 4.41 0.771055 L 4.42 0.770859 L 4.43 0.770859 L 4.44 0.771055 L 4.45 0.771484 L 4.46 0.772148 L 4.47 0.772969 L 4.48 0.774023 L 4.49 0.775273 L 4.5 0.77668 L 4.51 0.77832 L 4.52 0.780117 L 4.53 0.782109 L 4.54 0.784258 L 4.55 0.786602 L 4.56 0.789102 L 4.57 0.791797 L 4.58 0.794609 L 4.59 0.797617 L 4.6 0.800742 L 4.61 0.804023 L 4.62 0.807461 L 4.63 0.811016 L 4.64 0.814727 L 4.65 0.818555 L 4.66 0.8225 L 4.67 0.826562 L 4.68 0.830742 L 4.69 0.835039 L 4.7 0.839414 L 4.71 0.843906 L 4.72 0.848477 L 4.73 0.853164 L 4.74 0.857891 L 4.75 0.862734 L 4.76 0.867617 L 4.77 0.872578 L 4.78 0.877617 L 4.79 0.882695 L 4.8 0.887812 L 4.82 0.898203 L 4.84 0.90875 L 4.86 0.919375 L 4.92 0.951484 L 4.94 0.962109 L 4.95 0.967383 L 4.97 0.977852 L 4.98 0.983047 L 5 0.993281 " transform="matrix(100,0,0,-100,500,200)"/>
<path style="fill:none;stroke-width:0.03;stroke-linecap:butt;stroke-linejoin:miter;stroke:rgb(87.058824%,29.803922%,71.764706%);stroke-opacity:0.25;stroke-miterlimit:10;" d="M -5 -0.125 L -4.99 -0.125273 L -4.97 -0.125742 L -4.96 -0.125898 L -4.95 -0.126016 L -4.94 -0.126094 L -4.93 -0.126055 L -4.92 -0.125977 L -4.91 -0.125859 L -4.9 -0.125664 L -4.89 -0.125391 L -4.88 -0.125156 L -4.87 -0.124844 L -4.86 -0.124609 L -4.85 -0.124336 L -4.84 -0.124141 L -4.83 -0.123984 L -4.82 -0.123906 L -4.81 -0.123867 L -4.8 -0.123945 L -4.79 -0.124062 L -4.78 -0.124219 L -4.77 -0.124453 L -4.73 -0.125547 L -4.72 -0.125781 L -4.71 -0.125977 L -4.7 -0.126094 L -4.69 -0.126133 L -4.68 -0.126133 L -4.67 -0.126055 L -4.66 -0.125898 L -4.65 -0.125703 L -4.63 -0.125156 L -4.62 -0.124844 L -4.6 -0.124297 L -4.59 -0.124102 L -4.58 -0.123945 L -4.57 -0.123828 L -4.56 -0.123828 L -4.55 -0.123867 L -4.54 -0.123984 L -4.53 -0.12418 L -4.52 -0.124414 L -4.51 -0.124687 L -4.49 -0.125313 L -4.48 -0.125586 L -4.47 -0.12582 L -4.46 -0.126016 L -4.45 -0.126172 L -4.44 -0.126211 L -4.43 -0.126211 L -4.42 -0.126094 L -4.41 -0.125938 L -4.4 -0.125742 L -4.39 -0.125469 L -4.36 -0.124531 L -4.35 -0.124258 L -4.34 -0.124023 L -4.33 -0.123867 L -4.32 -0.12375 L -4.31 -0.12375 L -4.3 -0.123789 L -4.29 -0.123945 L -4.28 -0.124141 L -4.27 -0.124375 L -4.23 -0.125625 L -4.22 -0.125898 L -4.21 -0.126094 L -4.2 -0.12625 L -4.19 -0.126289 L -4.18 -0.126289 L -4.17 -0.126172 L -4.16 -0.126016 L -4.15 -0.125781 L -4.12 -0.124844 L -4.11 -0.124492 L -4.1 -0.124219 L -4.09 -0.123984 L -4.08 -0.123789 L -4.07 -0.123672 L -4.06 -0.123672 L -4.05 -0.123711 L -4.04 -0.123867 L -4.03 -0.124062 L -4.02 -0.124336 L -4.01 -0.124648 L -3.99 -0.125352 L -3.98 -0.125664 L -3.97 -0.125938 L -3.96 -0.126172 L -3.95 -0.126328 L -3.94 -0.126406 L -3.93 -0.126367 L -3.92 -0.12625 L -3.91 -0.126094 L -3.9 -0.12582 L -3.88 -0.125195 L -3.87 -0.124805 L -3.86 -0.124492 L -3.85 -0.124141 L -3.84 -0.123906 L -3.83 -0.123711 L -3.82 -0.123594 L -3.81 -0.123555 L -3.8 -0.123633 L -3.79 -0.123789 L -3.78 -0.123984 L -3.77 -0.124297 L -3.73 -0.125703 L -3.72 -0.126016 L -3.71 -0.12625 L -3.7 -0.126406 L -3.69 -0.126484 L -3.68 -0.126484 L -3.67 -0.126367 L -3.66 -0.126172 L -3.65 -0.125898 L -3.63 -0.125195 L -3.62 -0.124805 L -3.6 -0.124102 L -3.59 -0.123789 L -3.58 -0.123594 L -3.57 -0.123477 L -3.56 -0.123438 L -3.55 -0.123516 L -3.54 -0.123672 L -3.53 -0.123906 L -3.52 -0.124219 L -3.48 -0.125781 L -3.47 -0.126094 L -3.46 -0.126367 L -3.45 -0.126523 L -3.44 -0.126602 L -3.43 -0.126602 L -3.42 -0.126484 L -3.41 -0.12625 L -3.4 -0.125977 L -3.39 -0.125625 L -3.38 -0.125195 L -3.37 -0.124805 L -3.36 -0.124375 L -3.35 -0.124023 L -3.34 -0.123711 L -3.33 -0.123477 L -3.32 -0.123359 L -3.31 -0.12332 L -3.3 -0.123398 L -3.29 -0.123555 L -3.28 -0.123828 L -3.27 -0.12418 L -3.26 -0.12457 L -3.24 -0.12543 L -3.22 -0.126211 L -3.21 -0.126484 L -3.2 -0.12668 L -3.19 -0.126758 L -3.18 -0.126758 L -3.17 -0.126602 L -3.16 -0.126367 L -3.15 -0.126055 L -3.14 -0.125664 L -3.13 -0.125234 L -3.12 -0.124766 L -3.11 -0.124336 L -3.1 -0.123945 L -3.09 -0.123594 L -3.08 -0.12332 L -3.07 -0.123203 L -3.06 -0.123164 L -3.05 -0.123242 L -3.04 -0.123438 L -3.03 -0.123711 L -3.02 -0.124102 L -3.01 -0.124531 L -2.98 -0.125938 L -2.97 -0.126328 L -2.96 -0.126641 L -2.95 -0.126836 L -2.94 -0.126953 L -2.93 -0.126914 L -2.92 -0.126758 L -2.91 -0.126523 L -2.9 -0.126172 L -2.89 -0.125742 L -2.88 -0.125234 L -2.87 -0.124766 L -2.86 -0.124258 L -2.85 -0.123828 L -2.84 -0.123438 L -2.83 -0.123164 L -2.82 -0.123008 L -2.81 -0.122969 L -2.8 -0.123047 L -2.79 -0.123242 L -2.78 -0.123594 L -2.77 -0.123984 L -2.73 -0.126016 L -2.72 -0.126445 L -2.71 -0.126797 L -2.7 -0.127031 L -2.69 -0.127148 L -2.68 -0.127109 L -2.67 -0.126953 L -2.66 -0.12668 L -2.65 -0.126289 L -2.64 -0.12582 L -2.61 -0.12418 L -2.6 -0.123672 L -2.59 -0.123281 L -2.58 -0.122969 L -2.57 -0.122773 L -2.56 -0.122734 L -2.55 -0.122813 L -2.54 -0.123047 L -2.53 -0.123438 L -2.52 -0.123867 L -2.51 -0.124414 L -2.49 -0.125586 L -2.48 -0.126133 L -2.47 -0.126641 L -2.46 -0.127031 L -2.45 -0.127266 L -2.44 -0.127422 L -2.43 -0.127383 L -2.42 -0.127188 L -2.41 -0.126875 L -2.4 -0.126445 L -2.39 -0.125898 L -2.38 -0.125313 L -2.36 -0.124062 L -2.35 -0.123516 L -2.34 -0.123047 L -2.33 -0.122695 L -2.32 -0.1225 L -2.31 -0.122422 L -2.3 -0.122539 L -2.29 -0.122813 L -2.28 -0.123203 L -2.27 -0.12375 L -2.26 -0.124336 L -2.24 -0.125664 L -2.23 -0.126289 L -2.22 -0.126836 L -2.21 -0.127305 L -2.2 -0.127578 L -2.19 -0.127734 L -2.18 -0.127695 L -2.17 -0.1275 L -2.16 -0.127148 L -2.15 -0.126641 L -2.14 -0.126055 L -2.11 -0.123945 L -2.1 -0.12332 L -2.09 -0.122773 L -2.08 -0.122344 L -2.07 -0.122109 L -2.06 -0.12207 L -2.05 -0.122187 L -2.04 -0.122461 L -2.03 -0.12293 L -2.02 -0.123555 L -2.01 -0.124258 L -2 -0.125 L -1.99 -0.125781 L -1.98 -0.126484 L -1.97 -0.127148 L -1.96 -0.127656 L -1.95 -0.128008 L -1.94 -0.128164 L -1.93 -0.128125 L -1.92 -0.12793 L -1.91 -0.1275 L -1.9 -0.126914 L -1.89 -0.126211 L -1.88 -0.12543 L -1.87 -0.12457 L -1.86 -0.12375 L -1.85 -0.123008 L -1.84 -0.122383 L -1.83 -0.121914 L -1.82 -0.121602 L -1.81 -0.121523 L -1.8 -0.12168 L -1.79 -0.122031 L -1.78 -0.122578 L -1.77 -0.123281 L -1.76 -0.124102 L -1.74 -0.125898 L -1.73 -0.126758 L -1.72 -0.127539 L -1.71 -0.128164 L -1.7 -0.128555 L -1.69 -0.128789 L -1.68 -0.12875 L -1.67 -0.128477 L -1.66 -0.127969 L -1.65 -0.127305 L -1.64 -0.126445 L -1.63 -0.125508 L -1.62 -0.124492 L -1.61 -0.123516 L -1.6 -0.122617 L -1.59 -0.121836 L -1.58 -0.12125 L -1.57 -0.120898 L -1.56 -0.12082 L -1.55 -0.120977 L -1.54 -0.121406 L -1.53 -0.12207 L -1.52 -0.122891 L -1.51 -0.123906 L -1.49 -0.126094 L -1.48 -0.127148 L -1.47 -0.128125 L -1.46 -0.128867 L -1.45 -0.129414 L -1.44 -0.129648 L -1.43 -0.129648 L -1.42 -0.129297 L -1.41 -0.128711 L -1.4 -0.127852 L -1.39 -0.126797 L -1.38 -0.125625 L -1.36 -0.123125 L -1.35 -0.121992 L -1.34 -0.121016 L -1.33 -0.120273 L -1.32 -0.119844 L -1.31 -0.119687 L -1.3 -0.119883 L -1.29 -0.120391 L -1.28 -0.12125 L -1.27 -0.122305 L -1.26 -0.123594 L -1.23 -0.127813 L -1.22 -0.129023 L -1.21 -0.130039 L -1.2 -0.130742 L -1.19 -0.131094 L -1.18 -0.131055 L -1.17 -0.130664 L -1.16 -0.129883 L -1.15 -0.12875 L -1.14 -0.127383 L -1.13 -0.12582 L -1.12 -0.124141 L -1.11 -0.1225 L -1.1 -0.120938 L -1.09 -0.119609 L -1.08 -0.118594 L -1.07 -0.11793 L -1.06 -0.117734 L -1.05 -0.117969 L -1.04 -0.118672 L -1.03 -0.119766 L -1.02 -0.12125 L -1.01 -0.123008 L -1 -0.124961 L -0.99 -0.126953 L -0.98 -0.128906 L -0.97 -0.130664 L -0.96 -0.132109 L -0.95 -0.133164 L -0.94 -0.133711 L -0.93 -0.133711 L -0.92 -0.133164 L -0.91 -0.13207 L -0.9 -0.130469 L -0.89 -0.128437 L -0.88 -0.126133 L -0.87 -0.123633 L -0.86 -0.121094 L -0.85 -0.118711 L -0.84 -0.116602 L -0.83 -0.114961 L -0.82 -0.113828 L -0.81 -0.113398 L -0.8 -0.113672 L -0.79 -0.114648 L -0.78 -0.116367 L -0.77 -0.118672 L -0.76 -0.121484 L -0.75 -0.124687 L -0.74 -0.128047 L -0.73 -0.131367 L -0.72 -0.134492 L -0.71 -0.137109 L -0.7 -0.139102 L -0.69 -0.140273 L -0.68 -0.140469 L -0.67 -0.139648 L -0.66 -0.137812 L -0.65 -0.134922 L -0.64 -0.131172 L -0.63 -0.126641 L -0.62 -0.121563 L -0.61 -0.11625 L -0.6 -0.110977 L -0.59 -0.106055 L -0.58 -0.101836 L -0.57 -0.0986328 L -0.56 -0.0967578 L -0.55 -0.0964453 L -0.54 -0.0978906 L -0.53 -0.10125 L -0.52 -0.106523 L -0.51 -0.113711 L -0.5 -0.122695 L -0.49 -0.133281 L -0.48 -0.145117 L -0.47 -0.15793 L -0.46 -0.17125 L -0.45 -0.184648 L -0.44 -0.197656 L -0.43 -0.209805 L -0.42 -0.220664 L -0.41 -0.229805 L -0.4 -0.236836 L -0.39 -0.241523 L -0.38 -0.243711 L -0.37 -0.243203 L -0.36 -0.240039 L -0.35 -0.234336 L -0.34 -0.22625 L -0.33 -0.216094 L -0.32 -0.20418 L -0.31 -0.190898 L -0.3 -0.176719 L -0.29 -0.162109 L -0.28 -0.147539 L -0.27 -0.133398 L -0.26 -0.120156 L -0.25 -0.108086 L -0.24 -0.0975 L -0.23 -0.0886328 L -0.22 -0.0815234 L -0.21 -0.07625 L -0.2 -0.0727344 L -0.19 -0.0708203 L -0.18 -0.0703125 L -0.17 -0.0709766 L -0.16 -0.0724219 L -0.15 -0.074375 L -0.14 -0.0764063 L -0.13 -0.0782812 L -0.12 -0.0795703 L -0.11 -0.0800781 L -0.1 -0.0794531 L -0.09 -0.0776172 L -0.08 -0.0743359 L -0.07 -0.0696094 L -0.06 -0.0633984 L -0.05 -0.0557812 L -0.04 -0.0467578 L -0.03 -0.0365234 L -0.02 -0.0252344 L -0.01 -0.0130078 L 0 0 L 0.01 0.0132812 L 0.02 0.0265234 L 0.03 0.0396484 L 0.04 0.0526953 L 0.05 0.0656641 L 0.06 0.0785156 L 0.07 0.0912891 L 0.08 0.103984 L 0.09 0.116602 L 0.1 0.129062 L 0.11 0.141484 L 0.12 0.15375 L 0.13 0.165938 L 0.14 0.178047 L 0.15 0.19 L 0.16 0.201836 L 0.17 0.213594 L 0.18 0.225195 L 0.19 0.236719 L 0.2 0.248086 L 0.21 0.259336 L 0.22 0.270469 L 0.23 0.281445 L 0.24 0.292305 L 0.25 0.303047 L 0.26 0.313633 L 0.27 0.324062 L 0.28 0.334375 L 0.29 0.344531 L 0.3 0.35457 L 0.31 0.364414 L 0.32 0.374141 L 0.33 0.383711 L 0.34 0.393086 L 0.35 0.402344 L 0.36 0.411406 L 0.37 0.420352 L 0.38 0.429102 L 0.39 0.437695 L 0.4 0.446133 L 0.41 0.454375 L 0.42 0.462461 L 0.43 0.470352 L 0.44 0.478086 L 0.45 0.485664 L 0.46 0.493047 L 0.47 0.500234 L 0.48 0.507266 L 0.49 0.514141 L 0.5 0.520781 L 0.51 0.527266 L 0.52 0.533594 L 0.53 0.539687 L 0.54 0.545625 L 0.55 0.551367 L 0.56 0.556953 L 0.57 0.562305 L 0.58 0.5675 L 0.59 0.5725 L 0.6 0.577344 L 0.61 0.581953 L 0.62 0.586406 L 0.63 0.590664 L 0.64 0.594766 L 0.65 0.598633 L 0.66 0.602344 L 0.67 0.605898 L 0.68 0.609219 L 0.69 0.612383 L 0.7 0.615391 L 0.71 0.618203 L 0.72 0.62082 L 0.73 0.623281 L 0.74 0.625547 L 0.75 0.627656 L 0.76 0.629609 L 0.77 0.631367 L 0.78 0.633008 L 0.79 0.634414 L 0.8 0.635703 L 0.81 0.636836 L 0.82 0.637812 L 0.83 0.638633 L 0.84 0.639297 L 0.85 0.639805 L 0.86 0.640156 L 0.87 0.640391 L 0.88 0.640508 L 0.89 0.64043 L 0.9 0.640273 L 0.91 0.639961 L 0.92 0.639531 L 0.93 0.638984 L 0.94 0.63832 L 0.95 0.637539 L 0.96 0.63668 L 0.97 0.635664 L 0.98 0.63457 L 0.99 0.633398 L 1 0.632109 L 1.01 0.630742 L 1.02 0.629297 L 1.03 0.627773 L 1.04 0.626172 L 1.05 0.624531 L 1.06 0.622812 L 1.07 0.621016 L 1.08 0.61918 L 1.09 0.617305 L 1.11 0.613398 L 1.12 0.611406 L 1.13 0.609375 L 1.18 0.599023 L 1.19 0.596914 L 1.2 0.594844 L 1.22 0.590781 L 1.24 0.586797 L 1.25 0.584883 L 1.27 0.581133 L 1.28 0.579375 L 1.29 0.577656 L 1.3 0.575977 L 1.31 0.574414 L 1.32 0.572891 L 1.33 0.571445 L 1.34 0.570117 L 1.35 0.568867 L 1.36 0.567734 L 1.37 0.56668 L 1.38 0.565742 L 1.39 0.564922 L 1.4 0.56418 L 1.41 0.563594 L 1.42 0.563164 L 1.43 0.562812 L 1.44 0.562656 L 1.45 0.562578 L 1.46 0.562695 L 1.47 0.562969 L 1.48 0.563359 L 1.49 0.563945 L 1.5 0.564648 L 1.51 0.565547 L 1.52 0.566641 L 1.53 0.567891 L 1.54 0.569336 L 1.55 0.570937 L 1.56 0.572734 L 1.57 0.574727 L 1.58 0.576914 L 1.59 0.579297 L 1.6 0.581875 L 1.61 0.584648 L 1.62 0.587656 L 1.63 0.59082 L 1.64 0.594258 L 1.65 0.597852 L 1.66 0.60168 L 1.67 0.605742 L 1.68 0.610039 L 1.69 0.614531 L 1.7 0.619219 L 1.71 0.62418 L 1.72 0.629336 L 1.73 0.634727 L 1.74 0.640313 L 1.75 0.646172 L 1.76 0.652227 L 1.77 0.658516 L 1.78 0.665039 L 1.79 0.671797 L 1.8 0.678789 L 1.81 0.685977 L 1.82 0.693437 L 1.83 0.701094 L 1.84 0.708984 L 1.85 0.717109 L 1.86 0.72543 L 1.87 0.733984 L 1.88 0.742773 L 1.89 0.751797 L 1.9 0.761016 L 1.91 0.77043 L 1.92 0.780078 L 1.93 0.789961 L 1.94 0.800039 L 1.95 0.810312 L 1.96 0.820781 L 1.97 0.831445 L 1.98 0.842344 L 1.99 0.853398 L 2 0.864648 L 2.01 0.876094 L 2.02 0.887734 L 2.03 0.899531 L 2.04 0.911523 L 2.05 0.923672 L 2.06 0.936016 L 2.07 0.948477 L 2.08 0.961133 L 2.09 0.973906 L 2.1 0.986836 L 2.11 0.999922 L 2.12 1.013125 L 2.13 1.026484 L 2.14 1.039922 L 2.15 1.053516 L 2.16 1.067227 L 2.17 1.081055 L 2.18 1.094961 L 2.19 1.108984 L 2.2 1.123086 L 2.21 1.137266 L 2.22 1.151523 L 2.23 1.165859 L 2.24 1.180234 L 2.25 1.194688 L 2.27 1.22375 L 2.29 1.252969 L 2.3 1.267617 L 2.31 1.282305 L 2.32 1.296953 L 2.33 1.311641 L 2.34 1.326289 L 2.35 1.340977 L 2.36 1.355586 L 2.37 1.370234 L 2.38 1.384805 L 2.39 1.399336 L 2.4 1.413828 L 2.41 1.428281 L 2.42 1.442656 L 2.43 1.456953 L 2.44 1.471172 L 2.45 1.485313 L 2.46 1.499375 L 2.47 1.51332 L 2.48 1.527187 L 2.49 1.540938 L 2.5 1.554531 L 2.51 1.568008 L 2.52 1.581367 L 2.53 1.594609 L 2.54 1.607656 L 2.55 1.620547 L 2.56 1.63332 L 2.57 1.645898 L 2.58 1.658281 L 2.59 1.670508 L 2.6 1.682539 L 2.61 1.694375 L 2.62 1.706016 L 2.63 1.717461 L 2.64 1.728672 L 2.65 1.739688 L 2.66 1.750469 L 2.67 1.761016 L 2.68 1.771289 L 2.69 1.781367 L 2.7 1.791172 L 2.71 1.800742 L 2.72 1.810078 L 2.73 1.819102 L 2.74 1.827891 L 2.75 1.836406 L 2.76 1.844609 L 2.77 1.852578 L 2.78 1.860234 L 2.79 1.867617 L 2.8 1.874688 L 2.81 1.881445 L 2.82 1.88793 L 2.83 1.894141 L 2.84 1.9 L 2.85 1.905547 L 2.86 1.91082 L 2.87 1.915742 L 2.88 1.920352 L 2.89 1.924648 L 2.9 1.928594 L 2.91 1.932266 L 2.92 1.935586 L 2.93 1.938555 L 2.94 1.941211 L 2.95 1.943555 L 2.96 1.945547 L 2.97 1.947227 L 2.98 1.948555 L 2.99 1.949531 L 3 1.950195 L 3.01 1.950547 L 3.02 1.950547 L 3.03 1.950195 L 3.04 1.949531 L 3.05 1.948516 L 3.06 1.947188 L 3.07 1.945547 L 3.08 1.943555 L 3.09 1.941211 L 3.1 1.938594 L 3.11 1.935625 L 3.12 1.932305 L 3.13 1.928711 L 3.14 1.924805 L 3.15 1.920547 L 3.16 1.915977 L 3.17 1.911133 L 3.18 1.905977 L 3.19 1.900508 L 3.2 1.894727 L 3.21 1.888672 L 3.22 1.882305 L 3.23 1.875664 L 3.24 1.86875 L 3.25 1.861523 L 3.26 1.854062 L 3.27 1.846328 L 3.28 1.83832 L 3.29 1.830039 L 3.3 1.821523 L 3.31 1.812734 L 3.32 1.803711 L 3.33 1.794453 L 3.34 1.784961 L 3.35 1.775234 L 3.36 1.765313 L 3.37 1.755156 L 3.38 1.744805 L 3.39 1.734219 L 3.4 1.723437 L 3.41 1.7125 L 3.42 1.701367 L 3.43 1.690039 L 3.44 1.678555 L 3.45 1.666914 L 3.46 1.655078 L 3.47 1.643125 L 3.48 1.631016 L 3.49 1.618789 L 3.5 1.606406 L 3.51 1.593945 L 3.52 1.581328 L 3.53 1.568633 L 3.54 1.55582 L 3.55 1.542891 L 3.56 1.529922 L 3.57 1.516836 L 3.58 1.503711 L 3.6 1.477227 L 3.62 1.450586 L 3.64 1.423789 L 3.66 1.396914 L 3.67 1.383437 L 3.69 1.356562 L 3.71 1.329766 L 3.72 1.316406 L 3.73 1.303086 L 3.74 1.289805 L 3.75 1.276602 L 3.76 1.263437 L 3.77 1.250312 L 3.78 1.237305 L 3.79 1.224375 L 3.8 1.211484 L 3.81 1.19875 L 3.82 1.186055 L 3.83 1.173516 L 3.84 1.161055 L 3.85 1.14875 L 3.86 1.136523 L 3.87 1.124453 L 3.88 1.1125 L 3.89 1.100703 L 3.9 1.089062 L 3.91 1.077539 L 3.92 1.066211 L 3.93 1.055039 L 3.94 1.044023 L 3.95 1.033164 L 3.96 1.0225 L 3.97 1.011992 L 3.98 1.001719 L 3.99 0.991602 L 4 0.98168 L 4.01 0.971953 L 4.02 0.962461 L 4.03 0.953125 L 4.04 0.944023 L 4.05 0.935156 L 4.06 0.926484 L 4.07 0.918047 L 4.08 0.909805 L 4.09 0.901797 L 4.1 0.894023 L 4.11 0.886445 L 4.12 0.879141 L 4.13 0.872031 L 4.14 0.865195 L 4.15 0.858594 L 4.16 0.852187 L 4.17 0.846055 L 4.18 0.840156 L 4.19 0.834492 L 4.2 0.829102 L 4.21 0.823906 L 4.22 0.818984 L 4.23 0.814297 L 4.24 0.809883 L 4.25 0.805664 L 4.26 0.801719 L 4.27 0.798008 L 4.28 0.794531 L 4.29 0.791328 L 4.3 0.788359 L 4.31 0.785586 L 4.32 0.783086 L 4.33 0.78082 L 4.34 0.778789 L 4.35 0.776992 L 4.36 0.77543 L 4.37 0.774102 L 4.38 0.773008 L 4.39 0.772148 L 4.4 0.771484 L 4.41 0.771055 L 4.42 0.770859 L 4.43 0.770859 L 4.44 0.771055 L 4.45 0.771484 L 4.46 0.772148 L 4.47 0.772969 L 4.48 0.774023 L 4.49 0.775273 L 4.5 0.77668 L 4.51 0.77832 L 4.52 0.780117 L 4.53 0.782109 L 4.54 0.784258 L 4.55 0.786602 L 4.56 0.789102 L 4.57 0.791797 L 4.58 0.794609 L 4.59 0.797617 L 4.6 0.800742 L 4.61 0.804023 L 4.62 0.807461 L 4.63 0.811016 L 4.64 0.814727 L 4.65 0.818555 L 4.66 0.8225 L 4.67 0.826562 L 4.68 0.830742 L 4.69 0.835039 L 4.7 0.839414 L 4.71 0.843906 L 4.72 0.848477 L 4.73 0.853164 L 4.74 0.857891 L 4.75 0.862734 L 4.76 0.867617 L 4.77 0.872578 L 4.78 0.877617 L 4.79 0.882695 L 4.8 0.887812 L 4.82 0.898203 L 4.84 0.90875 L 4.86 0.919375 L 4.92 0.951484 L 4.94 0.962109 L 4.95 0.967383 L 4.97 0.977852 L 4.98 0.983047 L 5 0.993281 " transform="matrix(100,0,0,-100,500,200)"/>
</g>
</svg>
