<?xml version="1.0" encoding="UTF-8"?>
<svg xmlns="http://www.w3.org/2000/svg" xmlns:xlink="http://www.w3.org/1999/xlink" width="1000pt" height="400pt" viewBox="0 0 1000 400" version="1.1">
<g id="surface11">
<rect x="0" y="0" width="1000" height="400" style="fill:rgb(0%,0%,0%);fill-opacity:1;stroke:none;"/>
<path style="fill:none;stroke-width:0.01;stroke-linecap:butt;stroke-linejoin:miter;stroke:rgb(100%,100%,100%);stroke-opacity:0.5;stroke-miterlimit:10;" d="M -5 -2 L -5 2 " transform="matrix(100,0,0,-100,500,200)"/>
<path style="fill:none;stroke-width:0.01;stroke-linecap:butt;stroke-linejoin:miter;stroke:rgb(100%,100%,100%);stroke-opacity:0.5;stroke-miterlimit:10;" d="M -4 -2 L -4 2 " transform="matrix(100,0,0,-100,500,200)"/>
<path style="fill:none;stroke-width:0.01;stroke-linecap:butt;stroke-linejoin:miter;stroke:rgb(100%,100%,100%);stroke-opacity:0.5;stroke-miterlimit:10;" d="M -3 -2 L -3 2 " transform="matrix(100,0,0,-100,500,200)"/>
<path style="fill:none;stroke-width:0.01;stroke-linecap:butt;stroke-linejoin:miter;stroke:rgb(100%,100%,100%);stroke-opacity:0.5;stroke-miterlimit:10;" d="M -2 -2 L -2 2 " transform="matrix(100,0,0,-100,500,200)"/>
<path style="fill:none;stroke-width:0.01;stroke-linecap:butt;stroke-linejoin:miter;stroke:rgb(100%,100%,100%);stroke-opacity:0.5;stroke-miterlimit:10;" d="M -1 -2 L -1 2 " transform="matrix(100,0,0,-100,500,200)"/>
<path style="fill:none;stroke-width:0.01;stroke-linecap:butt;stroke-linejoin:miter;stroke:rgb(100%,100%,100%);stroke-opacity:1;stroke-miterlimit:10;" d="M 0 -2 L 0 2 " transform="matrix(100,0,0,-100,500,200)"/>
<path style="fill:none;stroke-width:0.01;stroke-linecap:butt;stroke-linejoin:miter;stroke:rgb(100%,100%,100%);stroke-opacity:0.5;stroke-miterlimit:10;" d="M 1 -2 L 1 2 " transform="matrix(100,0,0,-100,500,200)"/>
<path style="fill:none;stroke-width:0.01;stroke-linecap:butt;stroke-linejoin:miter;stroke:rgb(100%,100%,100%);stroke-opacity:0.5;stroke-miterlimit:10;" d="M 2 -2 L 2 2 " transform="matrix(100,0,0,-100,500,200)"/>
<path style="fill:none;stroke-width:0.01;stroke-linecap:butt;stroke-linejoin:miter;stroke:rgb(100%,100%,100%);stroke-opacity:0.5;stroke-miterlimit:10;" d="M 3 -2 L 3 2 " transform="matrix(100,0,0,-100,500,200)"/>
<path style="fill:none;stroke-width:0.01;stroke-linecap:butt;stroke-linejoin:miter;stroke:rgb(100%,100%,100%);stroke-opacity:0.5;stroke-miterlimit:10;" d="M 4 -2 L 4 2 " transform="matrix(100,0,0,-100,500,200)"/>
<path style="fill:none;stroke-width:0.01;stroke-linecap:butt;stroke-linejoin:miter;stroke:rgb(100%,100%,100%);stroke-opacity:0.5;stroke-miterlimit:10;" d="M 5 -2 L 5 2 " transform="matrix(100,0,0,-100,500,200)"/>
<path style="fill:none;stroke-width:0.005;stroke-linecap:butt;stroke-linejoin:miter;stroke:rgb(100%,100%,100%);stroke-opacity:0.25;stroke-miterlimit:10;" d="M -4.75 -2 L -4.75 2 " transform="matrix(100,0,0,-100,500,200)"/>
<path style="fill:none;stroke-width:0.005;stroke-linecap:butt;stroke-linejoin:miter;stroke:rgb(100%,100%,100%);stroke-opacity:0.25;stroke-miterlimit:10;" d="M -4.5 -2 L -4.5 2 " transform="matrix(100,0,0,-100,500,200)"/>
<path style="fill:none;stroke-width:0.005;stroke-linecap:butt;stroke-linejoin:miter;stroke:rgb(100%,100%,100%);stroke-opacity:0.25;stroke-miterlimit:10;" d="M -4.25 -2 L -4.25 2 " transform="matrix(100,0,0,-100,500,200)"/>
<path style="fill:none;stroke-width:0.005;stroke-linecap:butt;stroke-linejoin:miter;stroke:rgb(100%,100%,100%);stroke-opacity:0.25;stroke-miterlimit:10;" d="M -3.75 -2 L -3.75 2 " transform="matrix(100,0,0,-100,500,200)"/>
<path style="fill:none;stroke-width:0.005;stroke-linecap:butt;stroke-linejoin:miter;stroke:rgb(100%,100%,100%);stroke-opacity:0.25;stroke-miterlimit:10;" d="M -3.5 -2 L -3.5 2 " transform="matrix(100,0,0,-100,500,200)"/>
<path style="fill:none;stroke-width:0.005;stroke-linecap:butt;stroke-linejoin:miter;stroke:rgb(100%,100%,100%);stroke-opacity:0.25;stroke-miterlimit:10;" d="M -3.25 -2 L -3.25 2 " transform="matrix(100,0,0,-100,500,200)"/>
<path style="fill:none;stroke-width:0.005;stroke-linecap:butt;stroke-linejoin:miter;stroke:rgb(100%,100%,100%);stroke-opacity:0.25;stroke-miterlimit:10;" d="M -2.75 -2 L -2.75 2 " transform="matrix(100,0,0,-100,500,200)"/>
<path style="fill:none;stroke-width:0.005;stroke-linecap:butt;stroke-linejoin:miter;stroke:rgb(100%,100%,100%);stroke-opacity:0.25;stroke-miterlimit:10;" d="M -2.5 -2 L -2.5 2 " transform="matrix(100,0,0,-100,500,200)"/>
<path style="fill:none;stroke-width:0.005;stroke-linecap:butt;stroke-linejoin:miter;stroke:rgb(100%,100%,100%);stroke-opacity:0.25;stroke-miterlimit:10;" d="M -2.25 -2 L -2.25 2 " transform="matrix(100,0,0,-100,500,200)"/>
<path style="fill:none;stroke-width:0.005;stroke-linecap:butt;stroke-linejoin:miter;stroke:rgb(100%,100%,100%);stroke-opacity:0.25;stroke-miterlimit:10;" d="M -1.75 -2 L -1.75 2 " transform="matrix(100,0,0,-100,500,200)"/>
<path style="fill:none;stroke-width:0.005;stroke-linecap:butt;stroke-linejoin:miter;stroke:rgb(100%,100%,100%);stroke-opacity:0.25;stroke-miterlimit:10;" d="M -1.5 -2 L -1.5 2 " transform="matrix(100,0,0,-100,500,200)"/>
<path style="fill:none;stroke-width:0.005;stroke-linecap:butt;stroke-linejoin:miter;stroke:rgb(100%,100%,100%);stroke-opacity:0.25;stroke-miterlimit:10;" d="M -1.25 -2 L -1.25 2 " transform="matrix(100,0,0,-100,500,200)"/>
<path style="fill:none;stroke-width:0.005;stroke-linecap:butt;stroke-linejoin:miter;stroke:rgb(100%,100%,100%);stroke-opacity:0.25;stroke-miterlimit:10;" d="M -0.75 -2 L -0.75 2 " transform="matrix(100,0,0,-100,500,200)"/>
<path style="fill:none;stroke-width:0.005;stroke-linecap:butt;stroke-linejoin:miter;stroke:rgb(100%,100%,100%);stroke-opacity:0.25;stroke-miterlimit:10;" d="M -0.5 -2 L -0.5 2 " transform="matrix(100,0,0,-100,500,200)"/>
<path style="fill:none;stroke-width:0.005;stroke-linecap:butt;stroke-linejoin:miter;stroke:rgb(100%,100%,100%);stroke-opacity:0.25;stroke-miterlimit:10;" d="M -0.25 -2 L -0.25 2 " transform="matrix(100,0,0,-100,500,200)"/>
<path style="fill:none;stroke-width:0.005;stroke-linecap:butt;stroke-linejoin:miter;stroke:rgb(100%,100%,100%);stroke-opacity:0.25;stroke-miterlimit:10;" d="M 0.25 -2 L 0.25 2 " transform="matrix(100,0,0,-100,500,200)"/>
<path style="fill:none;stroke-width:0.005;stroke-linecap:butt;stroke-linejoin:miter;stroke:rgb(100%,100%,100%);stroke-opacity:0.25;stroke-miterlimit:10;" d="M 0.5 -2 L 0.5 2 " transform="matrix(100,0,0,-100,500,200)"/>
<path style="fill:none;stroke-width:0.005;stroke-linecap:butt;stroke-linejoin:miter;stroke:rgb(100%,100%,100%);stroke-opacity:0.25;stroke-miterlimit:10;" d="M 0.75 -2 L 0.75 2 " transform="matrix(100,0,0,-100,500,200)"/>
<path style="fill:none;stroke-width:0.005;stroke-linecap:butt;stroke-linejoin:miter;stroke:rgb(100%,100%,100%);stroke-opacity:0.25;stroke-miterlimit:10;" d="M 1.25 -2 L 1.25 2 " transform="matrix(100,0,0,-100,500,200)"/>
<path style="fill:none;stroke-width:0.005;stroke-linecap:butt;stroke-linejoin:miter;stroke:rgb(100%,100%,100%);stroke-opacity:0.25;stroke-miterlimit:10;" d="M 1.5 -2 L 1.5 2 " transform="matrix(100,0,0,-100,500,200)"/>
<path style="fill:none;stroke-width:0.005;stroke-linecap:butt;stroke-linejoin:miter;stroke:rgb(100%,100%,100%);stroke-opacity:0.25;stroke-miterlimit:10;" d="M 1.75 -2 L 1.75 2 " transform="matrix(100,0,0,-100,500,200)"/>
<path style="fill:none;stroke-width:0.005;stroke-linecap:butt;stroke-linejoin:miter;stroke:rgb(100%,100%,100%);stroke-opacity:0.25;stroke-miterlimit:10;" d="M 2.25 -2 L 2.25 2 " transform="matrix(100,0,0,-100,500,200)"/>
<path style="fill:none;stroke-width:0.005;stroke-linecap:butt;stroke-linejoin:miter;stroke:rgb(100%,100%,100%);stroke-opacity:0.25;stroke-miterlimit:10;" d="M 2.5 -2 L 2.5 2 " transform="matrix(100,0,0,-100,500,200)"/>
<path style="fill:none;stroke-width:0.005;stroke-linecap:butt;stroke-linejoin:miter;stroke:rgb(100%,100%,100%);stroke-opacity:0.25;stroke-miterlimit:10;" d="M 2.75 -2 L 2.75 2 " transform="matrix(100,0,0,-100,500,200)"/>
<path style="fill:none;stroke-width:0.005;stroke-linecap:butt;stroke-linejoin:miter;stroke:rgb(100%,100%,100%);stroke-opacity:0.25;stroke-miterlimit:10;" d="M 3.25 -2 L 3.25 2 " transform="matrix(100,0,0,-100,500,200)"/>
<path style="fill:none;stroke-width:0.005;stroke-linecap:butt;stroke-linejoin:miter;stroke:rgb(100%,100%,100%);stroke-opacity:0.25;stroke-miterlimit:10;" d="M 3.5 -2 L 3.5 2 " transform="matrix(100,0,0,-100,500,200)"/>
<path style="fill:none;stroke-width:0.005;stroke-linecap:butt;stroke-linejoin:miter;stroke:rgb(100%,100%,100%);stroke-opacity:0.25;stroke-miterlimit:10;" d="M 3.75 -2 L 3.75 2 " transform="matrix(100,0,0,-100,500,200)"/>
<path style="fill:none;stroke-width:0.005;stroke-linecap:butt;stroke-linejoin:miter;stroke:rgb(100%,100%,100%);stroke-opacity:0.25;stroke-miterlimit:10;" d="M 4.25 -2 L 4.25 2 " transform="matrix(100,0,0,-100,500,200)"/>
<path style="fill:none;stroke-width:0.005;stroke-linecap:butt;stroke-linejoin:miter;stroke:rgb(100%,100%,100%);stroke-opacity:0.25;stroke-miterlimit:10;" d="M 4.5 -2 L 4.5 2 " transform="matrix(100,0,0,-100,500,200)"/>
<path style="fill:none;stroke-width:0.005;stroke-linecap:butt;stroke-linejoin:miter;stroke:rgb(100%,100%,100%);stroke-opacity:0.25;stroke-miterlimit:10;" d="M 4.75 -2 L 4.75 2 " transform="matrix(100,0,0,-100,500,200)"/>
<path style="fill:none;stroke-width:0.01;stroke-linecap:butt;stroke-linejoin:miter;stroke:rgb(100%,100%,100%);stroke-opacity:0.5;stroke-miterlimit:10;" d="M -5 -2 L 5 -2 " transform="matrix(100,0,0,-100,500,200)"/>
<path style="fill:none;stroke-width:0.01;stroke-linecap:butt;stroke-linejoin:miter;stroke:rgb(100%,100%,100%);stroke-opacity:0.5;stroke-miterlimit:10;" d="M -5 -1 L 5 -1 " transform="matrix(100,0,0,-100,500,200)"/>
<path style="fill:none;stroke-width:0.01;stroke-linecap:butt;stroke-linejoin:miter;stroke:rgb(100%,100%,100%);stroke-opacity:1;stroke-miterlimit:10;" d="M -5 0 L 5 0 " transform="matrix(100,0,0,-100,500,200)"/>
<path style="fill:none;stroke-width:0.01;stroke-linecap:butt;stroke-linejoin:miter;stroke:rgb(100%,100%,100%);stroke-opacity:0.5;stroke-miterlimit:10;" d="M -5 1 L 5 1 " transform="matrix(100,0,0,-100,500,200)"/>
<path style="fill:none;stroke-width:0.01;stroke-linecap:butt;stroke-linejoin:miter;stroke:rgb(100%,100%,100%);stroke-opacity:0.5;stroke-miterlimit:10;" d="M -5 2 L 5 2 " transform="matrix(100,0,0,-100,500,200)"/>
<path style="fill:none;stroke-width:0.005;stroke-linecap:butt;stroke-linejoin:miter;stroke:rgb(100%,100%,100%);stroke-opacity:0.25;stroke-miterlimit:10;" d="M -5 -1.75 L 5 -1.75 " transform="matrix(100,0,0,-100,500,200)"/>
<path style="fill:none;stroke-width:0.005;stroke-linecap:butt;stroke-linejoin:miter;stroke:rgb(100%,100%,100%);stroke-opacity:0.25;stroke-miterlimit:10;" d="M -5 -1.5 L 5 -1.5 " transform="matrix(100,0,0,-100,500,200)"/>
<path style="fill:none;stroke-width:0.005;stroke-linecap:butt;stroke-linejoin:miter;stroke:rgb(100%,100%,100%);stroke-opacity:0.25;stroke-miterlimit:10;" d="M -5 -1.25 L 5 -1.25 " transform="matrix(100,0,0,-100,500,200)"/>
<path style="fill:none;stroke-width:0.005;stroke-linecap:butt;stroke-linejoin:miter;stroke:rgb(100%,100%,100%);stroke-opacity:0.25;stroke-miterlimit:10;" d="M -5 -0.75 L 5 -0.75 " transform="matrix(100,0,0,-100,500,200)"/>
<path style="fill:none;stroke-width:0.005;stroke-linecap:butt;stroke-linejoin:miter;stroke:rgb(100%,100%,100%);stroke-opacity:0.25;stroke-miterlimit:10;" d="M -5 -0.5 L 5 -0.5 " transform="matrix(100,0,0,-100,500,200)"/>
<path style="fill:none;stroke-width:0.005;stroke-linecap:butt;stroke-linejoin:miter;stroke:rgb(100%,100%,100%);stroke-opacity:0.25;stroke-miterlimit:10;" d="M -5 -0.25 L 5 -0.25 " transform="matrix(100,0,0,-100,500,200)"/>
<path style="fill:none;stroke-width:0.005;stroke-linecap:butt;stroke-linejoin:miter;stroke:rgb(100%,100%,100%);stroke-opacity:0.25;stroke-miterlimit:10;" d="M -5 0.25 L 5 0.25 " transform="matrix(100,0,0,-100,500,200)"/>
<path style="fill:none;stroke-width:0.005;stroke-linecap:butt;stroke-linejoin:miter;stroke:rgb(100%,100%,100%);stroke-opacity:0.25;stroke-miterlimit:10;" d="M -5 0.5 L 5 0.5 " transform="matrix(100,0,0,-100,500,200)"/>
<path style="fill:none;stroke-width:0.005;stroke-linecap:butt;stroke-linejoin:miter;stroke:rgb(100%,100%,100%);stroke-opacity:0.25;stroke-miterlimit:10;" d="M -5 0.75 L 5 0.75 " transform="matrix(100,0,0,-100,500,200)"/>
<path style="fill:none;stroke-width:0.005;stroke-linecap:butt;stroke-linejoin:miter;stroke:rgb(100%,100%,100%);stroke-opacity:0.25;stroke-miterlimit:10;" d="M -5 1.25 L 5 1.25 " transform="matrix(100,0,0,-100,500,200)"/>
<path style="fill:none;stroke-width:0.005;stroke-linecap:butt;stroke-linejoin:miter;stroke:rgb(100%,100%,100%);stroke-opacity:0.25;stroke-miterlimit:10;" d="M -5 1.5 L 5 1.5 " transform="matrix(100,0,0,-100,500,200)"/>
<path style="fill:none;stroke-width:0.005;stroke-linecap:butt;stroke-linejoin:miter;stroke:rgb(100%,100%,100%);stroke-opacity:0.25;stroke-miterlimit:10;" d="M -5 1.75 L 5 1.75 " transform="matrix(100,0,0,-100,500,200)"/>
<path style="fill:none;stroke-width:0.03;stroke-linecap:butt;stroke-linejoin:miter;stroke:rgb(87.058824%,29.803922%,71.764706%);stroke-opacity:1;stroke-miterlimit:10;" d="M -5 -0.919375 L -4.96 -0.91875 L -4.95 -0.918555 L -4.91 -0.91793 L -4.9 -0.917734 L -4.87 -0.917266 L -4.86 -0.91707 L -4.84 -0.916758 L -4.83 -0.916562 L -4.82 -0.916406 L -4.81 -0.916211 L -4.79 -0.915898 L -4.78 -0.915703 L -4.77 -0.915547 L -4.76 -0.915352 L -4.75 -0.915195 L -4.74 -0.915 L -4.73 -0.914844 L -4.71 -0.914453 L -4.7 -0.914297 L -4.69 -0.914102 L -4.68 -0.913945 L -4.66 -0.913555 L -4.65 -0.913398 L -4.62 -0.912813 L -4.61 -0.912656 L -4.54 -0.911289 L -4.53 -0.911133 L -4.49 -0.910352 L -4.48 -0.910117 L -4.42 -0.908945 L -4.41 -0.908711 L -4.38 -0.908125 L -4.37 -0.907891 L -4.35 -0.9075 L -4.34 -0.907266 L -4.33 -0.90707 L -4.32 -0.906836 L -4.3 -0.906445 L -4.29 -0.906211 L -4.28 -0.906016 L -4.26 -0.905547 L -4.25 -0.905352 L -4.23 -0.904883 L -4.22 -0.904688 L -4.2 -0.904219 L -4.19 -0.904023 L -4.12 -0.902383 L -4.11 -0.902188 L -4.1 -0.901914 L -4.03 -0.900273 L -4.02 -0.9 L -4 -0.899531 L -3.99 -0.899258 L -3.97 -0.898789 L -3.96 -0.898516 L -3.95 -0.898281 L -3.94 -0.898008 L -3.93 -0.897773 L -3.92 -0.8975 L -3.91 -0.897266 L -3.89 -0.896719 L -3.88 -0.896484 L -3.84 -0.895391 L -3.83 -0.895156 L -3.76 -0.893242 L -3.75 -0.89293 L -3.72 -0.892109 L -3.71 -0.891797 L -3.69 -0.89125 L -3.68 -0.890938 L -3.67 -0.890664 L -3.66 -0.890352 L -3.65 -0.890078 L -3.64 -0.889766 L -3.63 -0.889492 L -3.6 -0.888555 L -3.59 -0.888281 L -3.5 -0.885469 L -3.49 -0.885117 L -3.46 -0.88418 L -3.45 -0.883828 L -3.44 -0.883516 L -3.43 -0.883164 L -3.42 -0.882852 L -3.4 -0.882148 L -3.39 -0.881836 L -3.28 -0.877969 L -3.27 -0.877578 L -3.25 -0.876875 L -3.23 -0.876094 L -3.22 -0.875742 L -3.21 -0.875352 L -3.2 -0.875 L -3.12 -0.871875 L -3.11 -0.871445 L -3.09 -0.870664 L -3.08 -0.870234 L -3.07 -0.869844 L -3.05 -0.868984 L -3.04 -0.868594 L -2.97 -0.865586 L -2.96 -0.865117 L -2.94 -0.864258 L -2.93 -0.863789 L -2.92 -0.863359 L -2.88 -0.861484 L -2.87 -0.861055 L -2.86 -0.860547 L -2.83 -0.859141 L -2.82 -0.858633 L -2.81 -0.858164 L -2.8 -0.857656 L -2.79 -0.857188 L -2.71 -0.853125 L -2.7 -0.852578 L -2.69 -0.85207 L -2.67 -0.850977 L -2.66 -0.850469 L -2.64 -0.849375 L -2.63 -0.848789 L -2.6 -0.847148 L -2.58 -0.845977 L -2.57 -0.84543 L -2.53 -0.843086 L -2.52 -0.842461 L -2.51 -0.841875 L -2.5 -0.84125 L -2.49 -0.840664 L -2.44 -0.837539 L -2.43 -0.836875 L -2.42 -0.83625 L -2.36 -0.832266 L -2.35 -0.831562 L -2.34 -0.830898 L -2.29 -0.827383 L -2.28 -0.826641 L -2.27 -0.825938 L -2.22 -0.822227 L -2.16 -0.817539 L -2.15 -0.816719 L -2.14 -0.815937 L -2.12 -0.814297 L -2.11 -0.813438 L -2.1 -0.812617 L -2.05 -0.80832 L -2 -0.803828 L -1.96 -0.800078 L -1.91 -0.795195 L -1.88 -0.792148 L -1.87 -0.791094 L -1.86 -0.790078 L -1.85 -0.789023 L -1.84 -0.78793 L -1.83 -0.786875 L -1.8 -0.783594 L -1.76 -0.779063 L -1.74 -0.776719 L -1.73 -0.775508 L -1.72 -0.774336 L -1.71 -0.773125 L -1.7 -0.771875 L -1.69 -0.770664 L -1.68 -0.769414 L -1.67 -0.768125 L -1.66 -0.766875 L -1.65 -0.765586 L -1.64 -0.764258 L -1.63 -0.762969 L -1.62 -0.761641 L -1.58 -0.756172 L -1.57 -0.754766 L -1.56 -0.75332 L -1.55 -0.751914 L -1.54 -0.75043 L -1.53 -0.748984 L -1.52 -0.7475 L -1.51 -0.745977 L -1.5 -0.744492 L -1.49 -0.74293 L -1.48 -0.741406 L -1.47 -0.739805 L -1.46 -0.738242 L -1.45 -0.736641 L -1.43 -0.733359 L -1.4 -0.72832 L -1.39 -0.726562 L -1.38 -0.724844 L -1.37 -0.723086 L -1.35 -0.719492 L -1.34 -0.717656 L -1.31 -0.712031 L -1.3 -0.710078 L -1.29 -0.708164 L -1.27 -0.70418 L -1.25 -0.700117 L -1.24 -0.698047 L -1.22 -0.693828 L -1.21 -0.69168 L -1.2 -0.689492 L -1.18 -0.685039 L -1.17 -0.682773 L -1.16 -0.680469 L -1.14 -0.675781 L -1.12 -0.670937 L -1.1 -0.666016 L -1.09 -0.663477 L -1.07 -0.65832 L -1.06 -0.655703 L -1.04 -0.650313 L -1.03 -0.647578 L -1.01 -0.641953 L -1 -0.639102 L -0.98 -0.633242 L -0.96 -0.627227 L -0.95 -0.624141 L -0.94 -0.621016 L -0.93 -0.617852 L -0.92 -0.614648 L -0.9 -0.608086 L -0.89 -0.604727 L -0.87 -0.597852 L -0.86 -0.594336 L -0.84 -0.587148 L -0.83 -0.583477 L -0.82 -0.579727 L -0.81 -0.575938 L -0.8 -0.572109 L -0.78 -0.564219 L -0.77 -0.560195 L -0.76 -0.556094 L -0.75 -0.551953 L -0.74 -0.547734 L -0.73 -0.543438 L -0.72 -0.539062 L -0.71 -0.534648 L -0.7 -0.530156 L -0.69 -0.525586 L -0.68 -0.520977 L -0.67 -0.51625 L -0.66 -0.511484 L -0.65 -0.506602 L -0.64 -0.50168 L -0.63 -0.49668 L -0.62 -0.491563 L -0.61 -0.486406 L -0.6 -0.481172 L -0.59 -0.47582 L -0.58 -0.470391 L -0.57 -0.464883 L -0.56 -0.459297 L -0.55 -0.453594 L -0.54 -0.447852 L -0.53 -0.441992 L -0.52 -0.436016 L -0.51 -0.43 L -0.5 -0.423828 L -0.49 -0.417617 L -0.48 -0.411289 L -0.47 -0.404844 L -0.46 -0.398359 L -0.45 -0.391719 L -0.44 -0.385 L -0.43 -0.378203 L -0.42 -0.37125 L -0.41 -0.364258 L -0.4 -0.357148 L -0.39 -0.349922 L -0.38 -0.342578 L -0.37 -0.335156 L -0.36 -0.327656 L -0.35 -0.32 L -0.34 -0.312266 L -0.33 -0.304453 L -0.32 -0.296523 L -0.31 -0.288477 L -0.3 -0.280352 L -0.29 -0.272109 L -0.28 -0.263789 L -0.27 -0.255352 L -0.26 -0.246836 L -0.25 -0.238203 L -0.24 -0.229492 L -0.23 -0.220703 L -0.22 -0.211836 L -0.21 -0.202852 L -0.2 -0.193789 L -0.19 -0.184648 L -0.18 -0.17543 L -0.17 -0.166133 L -0.16 -0.156758 L -0.15 -0.147305 L -0.14 -0.137812 L -0.13 -0.128242 L -0.12 -0.118594 L -0.11 -0.108906 L -0.1 -0.0991797 L -0.09 -0.0894141 L -0.07 -0.0697266 L -0.04 -0.0399609 L -0.03 -0.0299609 L -0.02 -0.02 L 0.02 0.02 L 0.03 0.0299609 L 0.04 0.0399609 L 0.07 0.0697266 L 0.09 0.0894141 L 0.1 0.0991797 L 0.11 0.108906 L 0.12 0.118594 L 0.13 0.128242 L 0.14 0.137812 L 0.15 0.147305 L 0.16 0.156758 L 0.17 0.166133 L 0.18 0.17543 L 0.19 0.184648 L 0.2 0.193789 L 0.21 0.202852 L 0.22 0.211836 L 0.23 0.220703 L 0.24 0.229492 L 0.25 0.238203 L 0.26 0.246836 L 0.27 0.255352 L 0.28 0.263789 L 0.29 0.272109 L 0.3 0.280352 L 0.31 0.288477 L 0.32 0.296523 L 0.33 0.304453 L 0.34 0.312266 L 0.35 0.32 L 0.36 0.327656 L 0.37 0.335156 L 0.38 0.342578 L 0.39 0.349922 L 0.4 0.357148 L 0.41 0.364258 L 0.42 0.37125 L 0.43 0.378203 L 0.44 0.385 L 0.45 0.391719 L 0.46 0.398359 L 0.47 0.404844 L 0.48 0.411289 L 0.49 0.417617 L 0.5 0.423828 L 0.51 0.43 L 0.52 0.436016 L 0.53 0.441992 L 0.54 0.447852 L 0.55 0.453594 L 0.56 0.459297 L 0.57 0.464883 L 0.58 0.470391 L 0.59 0.47582 L 0.6 0.481172 L 0.61 0.486406 L 0.62 0.491562 L 0.63 0.49668 L 0.64 0.50168 L 0.65 0.506602 L 0.66 0.511484 L 0.67 0.51625 L 0.68 0.520977 L 0.69 0.525586 L 0.7 0.530156 L 0.71 0.534648 L 0.72 0.539062 L 0.73 0.543438 L 0.74 0.547734 L 0.75 0.551953 L 0.76 0.556094 L 0.77 0.560195 L 0.78 0.564219 L 0.8 0.572109 L 0.81 0.575937 L 0.82 0.579727 L 0.83 0.583477 L 0.84 0.587148 L 0.86 0.594336 L 0.87 0.597852 L 0.89 0.604727 L 0.9 0.608086 L 0.92 0.614648 L 0.93 0.617852 L 0.94 0.621016 L 0.95 0.624141 L 0.96 0.627227 L 0.98 0.633242 L 1 0.639102 L 1.01 0.641953 L 1.03 0.647578 L 1.04 0.650313 L 1.06 0.655703 L 1.07 0.65832 L 1.09 0.663477 L 1.1 0.666016 L 1.12 0.670937 L 1.14 0.675781 L 1.16 0.680469 L 1.17 0.682773 L 1.18 0.685039 L 1.2 0.689492 L 1.21 0.69168 L 1.22 0.693828 L 1.24 0.698047 L 1.25 0.700117 L 1.27 0.70418 L 1.29 0.708164 L 1.3 0.710078 L 1.31 0.712031 L 1.34 0.717656 L 1.35 0.719492 L 1.37 0.723086 L 1.38 0.724844 L 1.39 0.726562 L 1.4 0.72832 L 1.43 0.733359 L 1.45 0.736641 L 1.46 0.738242 L 1.47 0.739805 L 1.48 0.741406 L 1.49 0.74293 L 1.5 0.744492 L 1.51 0.745977 L 1.52 0.7475 L 1.53 0.748984 L 1.54 0.75043 L 1.55 0.751914 L 1.56 0.75332 L 1.57 0.754766 L 1.58 0.756172 L 1.62 0.761641 L 1.63 0.762969 L 1.64 0.764258 L 1.65 0.765586 L 1.66 0.766875 L 1.67 0.768125 L 1.68 0.769414 L 1.69 0.770664 L 1.7 0.771875 L 1.71 0.773125 L 1.72 0.774336 L 1.73 0.775508 L 1.74 0.776719 L 1.76 0.779062 L 1.8 0.783594 L 1.83 0.786875 L 1.84 0.78793 L 1.85 0.789023 L 1.86 0.790078 L 1.87 0.791094 L 1.88 0.792148 L 1.91 0.795195 L 1.96 0.800078 L 2 0.803828 L 2.05 0.80832 L 2.1 0.812617 L 2.11 0.813438 L 2.12 0.814297 L 2.14 0.815937 L 2.15 0.816719 L 2.16 0.817539 L 2.22 0.822227 L 2.27 0.825937 L 2.28 0.826641 L 2.29 0.827383 L 2.34 0.830898 L 2.35 0.831562 L 2.36 0.832266 L 2.42 0.83625 L 2.43 0.836875 L 2.44 0.837539 L 2.49 0.840664 L 2.5 0.84125 L 2.51 0.841875 L 2.52 0.842461 L 2.53 0.843086 L 2.57 0.84543 L 2.58 0.845977 L 2.6 0.847148 L 2.63 0.848789 L 2.64 0.849375 L 2.66 0.850469 L 2.67 0.850977 L 2.69 0.85207 L 2.7 0.852578 L 2.71 0.853125 L 2.79 0.857187 L 2.8 0.857656 L 2.81 0.858164 L 2.82 0.858633 L 2.83 0.859141 L 2.86 0.860547 L 2.87 0.861055 L 2.88 0.861484 L 2.92 0.863359 L 2.93 0.863789 L 2.94 0.864258 L 2.96 0.865117 L 2.97 0.865586 L 3.04 0.868594 L 3.05 0.868984 L 3.07 0.869844 L 3.08 0.870234 L 3.09 0.870664 L 3.11 0.871445 L 3.12 0.871875 L 3.2 0.875 L 3.21 0.875352 L 3.22 0.875742 L 3.23 0.876094 L 3.25 0.876875 L 3.27 0.877578 L 3.28 0.877969 L 3.39 0.881836 L 3.4 0.882148 L 3.42 0.882852 L 3.43 0.883164 L 3.44 0.883516 L 3.45 0.883828 L 3.46 0.88418 L 3.49 0.885117 L 3.5 0.885469 L 3.59 0.888281 L 3.6 0.888555 L 3.63 0.889492 L 3.64 0.889766 L 3.65 0.890078 L 3.66 0.890352 L 3.67 0.890664 L 3.68 0.890937 L 3.69 0.89125 L 3.71 0.891797 L 3.72 0.892109 L 3.75 0.89293 L 3.76 0.893242 L 3.83 0.895156 L 3.84 0.895391 L 3.88 0.896484 L 3.89 0.896719 L 3.91 0.897266 L 3.92 0.8975 L 3.93 0.897773 L 3.94 0.898008 L 3.95 0.898281 L 3.96 0.898516 L 3.97 0.898789 L 3.99 0.899258 L 4 0.899531 L 4.02 0.9 L 4.03 0.900273 L 4.1 0.901914 L 4.11 0.902187 L 4.12 0.902383 L 4.19 0.904023 L 4.2 0.904219 L 4.22 0.904687 L 4.23 0.904883 L 4.25 0.905352 L 4.26 0.905547 L 4.28 0.906016 L 4.29 0.906211 L 4.3 0.906445 L 4.32 0.906836 L 4.33 0.90707 L 4.34 0.907266 L 4.35 0.9075 L 4.37 0.907891 L 4.38 0.908125 L 4.41 0.908711 L 4.42 0.908945 L 4.48 0.910117 L 4.49 0.910352 L 4.53 0.911133 L 4.54 0.911289 L 4.61 0.912656 L 4.62 0.912813 L 4.65 0.913398 L 4.66 0.913555 L 4.68 0.913945 L 4.69 0.914102 L 4.7 0.914297 L 4.71 0.914453 L 4.73 0.914844 L 4.74 0.915 L 4.75 0.915195 L 4.76 0.915352 L 4.77 0.915547 L 4.78 0.915703 L 4.79 0.915898 L 4.81 0.916211 L 4.82 0.916406 L 4.83 0.916562 L 4.84 0.916758 L 4.86 0.91707 L 4.87 0.917266 L 4.9 0.917734 L 4.91 0.91793 L 4.95 0.918555 L 4.96 0.91875 L 5 0.919375 " transform="matrix(100,0,0,-100,500,200)"/>
<path style="fill:none;stroke-width:0.03;stroke-linecap:butt;stroke-linejoin:miter;stroke:rgb(87.058824%,29.803922%,71.764706%);stroke-opacity:0.75;stroke-miterlimit:10;" d="M -5 -0.479766 L -4.92 -0.479453 L -4.91 -0.479375 L -4.81 -0.478984 L -4.8 -0.478906 L -4.74 -0.478672 L -4.73 -0.478594 L -4.68 -0.478398 L -4.67 -0.47832 L -4.63 -0.478164 L -4.62 -0.478086 L -4.58 -0.47793 L -4.57 -0.477852 L -4.54 -0.477734 L -4.53 -0.477656 L -4.5 -0.477539 L -4.49 -0.477461 L -4.47 -0.477383 L -4.46 -0.477305 L -4.44 -0.477227 L -4.43 -0.477148 L -4.4 -0.477031 L -4.39 -0.476953 L -4.38 -0.476914 L -4.37 -0.476836 L -4.35 -0.476758 L -4.34 -0.47668 L -4.32 -0.476602 L -4.31 -0.476523 L -4.3 -0.476484 L -4.29 -0.476406 L -4.27 -0.476328 L -4.26 -0.47625 L -4.25 -0.476211 L -4.24 -0.476133 L -4.22 -0.476055 L -4.21 -0.475977 L -4.2 -0.475938 L -4.19 -0.475859 L -4.18 -0.47582 L -4.17 -0.475742 L -4.16 -0.475703 L -4.15 -0.475625 L -4.14 -0.475586 L -4.13 -0.475508 L -4.12 -0.475469 L -4.11 -0.475391 L -4.1 -0.475352 L -4.09 -0.475273 L -4.08 -0.475234 L -4.06 -0.475078 L -4.05 -0.475039 L -4.04 -0.474961 L -4.03 -0.474922 L -4.02 -0.474844 L -4.01 -0.474805 L -3.99 -0.474648 L -3.98 -0.474609 L -3.96 -0.474453 L -3.95 -0.474414 L -3.93 -0.474258 L -3.92 -0.474219 L -3.9 -0.474063 L -3.89 -0.474023 L -3.87 -0.473867 L -3.86 -0.473828 L -3.83 -0.473594 L -3.82 -0.473555 L -3.78 -0.473242 L -3.77 -0.473203 L -3.72 -0.472812 L -3.71 -0.472773 L -3.47 -0.470898 L -3.46 -0.470781 L -3.41 -0.470391 L -3.4 -0.470273 L -3.37 -0.470039 L -3.36 -0.469922 L -3.34 -0.469766 L -3.33 -0.469648 L -3.31 -0.469492 L -3.3 -0.469375 L -3.28 -0.469219 L -3.27 -0.469102 L -3.26 -0.469023 L -3.25 -0.468906 L -3.23 -0.46875 L -3.22 -0.468633 L -3.21 -0.468555 L -3.2 -0.468437 L -3.19 -0.468359 L -3.17 -0.468125 L -3.16 -0.468047 L -3.15 -0.46793 L -3.14 -0.467852 L -3.13 -0.467734 L -3.12 -0.467656 L -3.1 -0.467422 L -3.09 -0.467344 L -3.06 -0.466992 L -3.05 -0.466914 L -3.01 -0.466445 L -3 -0.466367 L -2.85 -0.464609 L -2.84 -0.464453 L -2.8 -0.463984 L -2.79 -0.463828 L -2.77 -0.463594 L -2.76 -0.463437 L -2.74 -0.463203 L -2.73 -0.463047 L -2.72 -0.46293 L -2.71 -0.462773 L -2.7 -0.462656 L -2.69 -0.4625 L -2.68 -0.462383 L -2.66 -0.46207 L -2.65 -0.461953 L -2.64 -0.461797 L -2.63 -0.46168 L -2.6 -0.461211 L -2.59 -0.461094 L -2.47 -0.459219 L -2.46 -0.459023 L -2.43 -0.458555 L -2.42 -0.458359 L -2.4 -0.458047 L -2.39 -0.457852 L -2.38 -0.457695 L -2.37 -0.4575 L -2.36 -0.457344 L -2.34 -0.456953 L -2.33 -0.456797 L -2.3 -0.456211 L -2.29 -0.456055 L -2.22 -0.454687 L -2.21 -0.454453 L -2.18 -0.453867 L -2.17 -0.453633 L -2.16 -0.453438 L -2.15 -0.453203 L -2.14 -0.453008 L -2.13 -0.452773 L -2.12 -0.452578 L -2.09 -0.451875 L -2.08 -0.45168 L -2.03 -0.450508 L -2.02 -0.450234 L -1.99 -0.449531 L -1.98 -0.449258 L -1.97 -0.449023 L -1.95 -0.448477 L -1.94 -0.448242 L -1.85 -0.445781 L -1.84 -0.445469 L -1.83 -0.445195 L -1.81 -0.44457 L -1.8 -0.444297 L -1.74 -0.442422 L -1.73 -0.44207 L -1.72 -0.441758 L -1.71 -0.441406 L -1.7 -0.441094 L -1.64 -0.438984 L -1.63 -0.438594 L -1.62 -0.438242 L -1.61 -0.437852 L -1.6 -0.4375 L -1.55 -0.435547 L -1.54 -0.435117 L -1.53 -0.434727 L -1.48 -0.432578 L -1.47 -0.432109 L -1.46 -0.43168 L -1.41 -0.429336 L -1.4 -0.428828 L -1.39 -0.428359 L -1.36 -0.426836 L -1.35 -0.426289 L -1.34 -0.425781 L -1.31 -0.424141 L -1.3 -0.423555 L -1.29 -0.423008 L -1.26 -0.42125 L -1.21 -0.418125 L -1.18 -0.416133 L -1.17 -0.41543 L -1.16 -0.414766 L -1.15 -0.414062 L -1.14 -0.41332 L -1.13 -0.412617 L -1.12 -0.411875 L -1.11 -0.411094 L -1.1 -0.410352 L -1.09 -0.40957 L -1.08 -0.40875 L -1.07 -0.407969 L -1.06 -0.407148 L -1.05 -0.406289 L -1.04 -0.405469 L -1.03 -0.404609 L -1 -0.401914 L -0.98 -0.400039 L -0.96 -0.398086 L -0.93 -0.395039 L -0.92 -0.393984 L -0.9 -0.391797 L -0.88 -0.389531 L -0.87 -0.388359 L -0.85 -0.385938 L -0.83 -0.383437 L -0.82 -0.382148 L -0.81 -0.38082 L -0.79 -0.378086 L -0.78 -0.37668 L -0.77 -0.375234 L -0.76 -0.37375 L -0.74 -0.370703 L -0.72 -0.3675 L -0.71 -0.365859 L -0.69 -0.362422 L -0.67 -0.358828 L -0.66 -0.356953 L -0.65 -0.355039 L -0.64 -0.353086 L -0.63 -0.351094 L -0.62 -0.349023 L -0.61 -0.346914 L -0.6 -0.344727 L -0.59 -0.3425 L -0.58 -0.340234 L -0.57 -0.337891 L -0.56 -0.335469 L -0.55 -0.333008 L -0.54 -0.330469 L -0.53 -0.327852 L -0.52 -0.325156 L -0.51 -0.322383 L -0.5 -0.319531 L -0.49 -0.316602 L -0.48 -0.313594 L -0.47 -0.310508 L -0.46 -0.307305 L -0.45 -0.304023 L -0.44 -0.300664 L -0.43 -0.297148 L -0.42 -0.293555 L -0.41 -0.289883 L -0.4 -0.286055 L -0.39 -0.282109 L -0.38 -0.278047 L -0.37 -0.273867 L -0.36 -0.269531 L -0.35 -0.265078 L -0.34 -0.260469 L -0.33 -0.255742 L -0.32 -0.250859 L -0.31 -0.245781 L -0.3 -0.240586 L -0.29 -0.235195 L -0.28 -0.229648 L -0.27 -0.223906 L -0.26 -0.218008 L -0.25 -0.211914 L -0.24 -0.205625 L -0.23 -0.19918 L -0.22 -0.1925 L -0.21 -0.185625 L -0.2 -0.178555 L -0.19 -0.171289 L -0.18 -0.163828 L -0.17 -0.156133 L -0.16 -0.148242 L -0.15 -0.140156 L -0.14 -0.131875 L -0.13 -0.123438 L -0.12 -0.114766 L -0.11 -0.105898 L -0.1 -0.096875 L -0.09 -0.0876953 L -0.08 -0.0783594 L -0.07 -0.0689062 L -0.06 -0.0592969 L -0.05 -0.0496094 L -0.04 -0.0398047 L -0.03 -0.0299219 L -0.01 -0.01 L 0.02 0.02 L 0.03 0.0299609 L 0.04 0.0399609 L 0.07 0.0697266 L 0.09 0.0894141 L 0.1 0.0991797 L 0.11 0.108906 L 0.12 0.118594 L 0.13 0.128242 L 0.14 0.137812 L 0.15 0.147305 L 0.16 0.156758 L 0.17 0.166133 L 0.18 0.17543 L 0.19 0.184648 L 0.2 0.193789 L 0.21 0.202852 L 0.22 0.211836 L 0.23 0.220703 L 0.24 0.229492 L 0.25 0.238203 L 0.26 0.246836 L 0.27 0.255352 L 0.28 0.263789 L 0.29 0.272109 L 0.3 0.280352 L 0.31 0.288477 L 0.32 0.296523 L 0.33 0.304453 L 0.34 0.312266 L 0.35 0.32 L 0.36 0.327656 L 0.37 0.335156 L 0.38 0.342578 L 0.39 0.349922 L 0.4 0.357148 L 0.41 0.364258 L 0.42 0.37125 L 0.43 0.378203 L 0.44 0.385 L 0.45 0.391719 L 0.46 0.398359 L 0.47 0.404844 L 0.48 0.411289 L 0.49 0.417617 L 0.5 0.423828 L 0.51 0.43 L 0.52 0.436016 L 0.53 0.441992 L 0.54 0.447852 L 0.55 0.453594 L 0.56 0.459297 L 0.57 0.464883 L 0.58 0.470391 L 0.59 0.47582 L 0.6 0.481172 L 0.61 0.486406 L 0.62 0.491562 L 0.63 0.49668 L 0.64 0.50168 L 0.65 0.506602 L 0.66 0.511484 L 0.67 0.51625 L 0.68 0.520977 L 0.69 0.525586 L 0.7 0.530156 L 0.71 0.534648 L 0.72 0.539062 L 0.73 0.543438 L 0.74 0.547734 L 0.75 0.551953 L 0.76 0.556094 L 0.77 0.560195 L 0.78 0.564219 L 0.8 0.572109 L 0.81 0.575937 L 0.82 0.579727 L 0.83 0.583477 L 0.84 0.587148 L 0.86 0.594336 L 0.87 0.597852 L 0.89 0.604727 L 0.9 0.608086 L 0.92 0.614648 L 0.93 0.617852 L 0.94 0.621016 L 0.95 0.624141 L 0.96 0.627227 L 0.98 0.633242 L 1 0.639102 L 1.01 0.641953 L 1.03 0.647578 L 1.04 0.650313 L 1.06 0.655703 L 1.07 0.65832 L 1.09 0.663477 L 1.1 0.666016 L 1.12 0.670937 L 1.14 0.675781 L 1.16 0.680469 L 1.17 0.682773 L 1.18 0.685039 L 1.2 0.689492 L 1.21 0.69168 L 1.22 0.693828 L 1.24 0.698047 L 1.25 0.700117 L 1.27 0.70418 L 1.29 0.708164 L 1.3 0.710078 L 1.31 0.712031 L 1.34 0.717656 L 1.35 0.719492 L 1.37 0.723086 L 1.38 0.724844 L 1.39 0.726562 L 1.4 0.72832 L 1.43 0.733359 L 1.45 0.736641 L 1.46 0.738242 L 1.47 0.739805 L 1.48 0.741406 L 1.49 0.74293 L 1.5 0.744492 L 1.51 0.745977 L 1.52 0.7475 L 1.53 0.748984 L 1.54 0.75043 L 1.55 0.751914 L 1.56 0.75332 L 1.57 0.754766 L 1.58 0.756172 L 1.62 0.761641 L 1.63 0.762969 L 1.64 0.764258 L 1.65 0.765586 L 1.66 0.766875 L 1.67 0.768125 L 1.68 0.769414 L 1.69 0.770664 L 1.7 0.771875 L 1.71 0.773125 L 1.72 0.774336 L 1.73 0.775508 L 1.74 0.776719 L 1.76 0.779062 L 1.8 0.783594 L 1.83 0.786875 L 1.84 0.78793 L 1.85 0.789023 L 1.86 0.790078 L 1.87 0.791094 L 1.88 0.792148 L 1.91 0.795195 L 1.96 0.800078 L 2 0.803828 L 2.05 0.80832 L 2.1 0.812617 L 2.11 0.813438 L 2.12 0.814297 L 2.14 0.815937 L 2.15 0.816719 L 2.16 0.817539 L 2.22 0.822227 L 2.27 0.825937 L 2.28 0.826641 L 2.29 0.827383 L 2.34 0.830898 L 2.35 0.831562 L 2.36 0.832266 L 2.42 0.83625 L 2.43 0.836875 L 2.44 0.837539 L 2.49 0.840664 L 2.5 0.84125 L 2.51 0.841875 L 2.52 0.842461 L 2.53 0.843086 L 2.57 0.84543 L 2.58 0.845977 L 2.6 0.847148 L 2.63 0.848789 L 2.64 0.849375 L 2.66 0.850469 L 2.67 0.850977 L 2.69 0.85207 L 2.7 0.852578 L 2.71 0.853125 L 2.79 0.857187 L 2.8 0.857656 L 2.81 0.858164 L 2.82 0.858633 L 2.83 0.859141 L 2.86 0.860547 L 2.87 0.861055 L 2.88 0.861484 L 2.92 0.863359 L 2.93 0.863789 L 2.94 0.864258 L 2.96 0.865117 L 2.97 0.865586 L 3.04 0.868594 L 3.05 0.868984 L 3.07 0.869844 L 3.08 0.870234 L 3.09 0.870664 L 3.11 0.871445 L 3.12 0.871875 L 3.2 0.875 L 3.21 0.875352 L 3.22 0.875742 L 3.23 0.876094 L 3.25 0.876875 L 3.27 0.877578 L 3.28 0.877969 L 3.39 0.881836 L 3.4 0.882148 L 3.42 0.882852 L 3.43 0.883164 L 3.44 0.883516 L 3.45 0.883828 L 3.46 0.88418 L 3.49 0.885117 L 3.5 0.885469 L 3.59 0.888281 L 3.6 0.888555 L 3.63 0.889492 L 3.64 0.889766 L 3.65 0.890078 L 3.66 0.890352 L 3.67 0.890664 L 3.68 0.890937 L 3.69 0.89125 L 3.71 0.891797 L 3.72 0.892109 L 3.75 0.89293 L 3.76 0.893242 L 3.83 0.895156 L 3.84 0.895391 L 3.88 0.896484 L 3.89 0.896719 L 3.91 0.897266 L 3.92 0.8975 L 3.93 0.897773 L 3.94 0.898008 L 3.95 0.898281 L 3.96 0.898516 L 3.97 0.898789 L 3.99 0.899258 L 4 0.899531 L 4.02 0.9 L 4.03 0.900273 L 4.1 0.901914 L 4.11 0.902187 L 4.12 0.902383 L 4.19 0.904023 L 4.2 0.904219 L 4.22 0.904687 L 4.23 0.904883 L 4.25 0.905352 L 4.26 0.905547 L 4.28 0.906016 L 4.29 0.906211 L 4.3 0.906445 L 4.32 0.906836 L 4.33 0.90707 L 4.34 0.907266 L 4.35 0.9075 L 4.37 0.907891 L 4.38 0.908125 L 4.41 0.908711 L 4.42 0.908945 L 4.48 0.910117 L 4.49 0.910352 L 4.53 0.911133 L 4.54 0.911289 L 4.61 0.912656 L 4.62 0.912813 L 4.65 0.913398 L 4.66 0.913555 L 4.68 0.913945 L 4.69 0.914102 L 4.7 0.914297 L 4.71 0.914453 L 4.73 0.914844 L 4.74 0.915 L 4.75 0.915195 L 4.76 0.915352 L 4.77 0.915547 L 4.78 0.915703 L 4.79 0.915898 L 4.81 0.916211 L 4.82 0.916406 L 4.83 0.916562 L 4.84 0.916758 L 4.86 0.91707 L 4.87 0.917266 L 4.9 0.917734 L 4.91 0.91793 L 4.95 0.918555 L 4.96 0.91875 L 5 0.919375 " transform="matrix(100,0,0,-100,500,200)"/>
<path style="fill:none;stroke-width:0.03;stroke-linecap:butt;stroke-linejoin:miter;stroke:rgb(87.058824%,29.803922%,71.764706%);stroke-opacity:0.5;stroke-miterlimit:10;" d="M -5 -0.244922 L -4.97 -0.244922 L -4.96 -0.244883 L -4.93 -0.244883 L -4.92 -0.244844 L -4.9 -0.244844 L -4.89 -0.244805 L -4.86 -0.244805 L -4.85 -0.244766 L -4.82 -0.244766 L -4.81 -0.244727 L -4.79 -0.244727 L -4.78 -0.244687 L -4.75 -0.244687 L -4.74 -0.244648 L -4.72 -0.244648 L -4.71 -0.244609 L -4.69 -0.244609 L -4.68 -0.24457 L -4.65 -0.24457 L -4.64 -0.244531 L -4.62 -0.244531 L -4.61 -0.244492 L -4.59 -0.244492 L -4.58 -0.244453 L -4.55 -0.244453 L -4.54 -0.244414 L -4.52 -0.244414 L -4.51 -0.244375 L -4.49 -0.244375 L -4.48 -0.244336 L -4.46 -0.244336 L -4.45 -0.244297 L -4.43 -0.244297 L -4.42 -0.244258 L -4.4 -0.244258 L -4.39 -0.244219 L -4.37 -0.244219 L -4.36 -0.24418 L -4.34 -0.24418 L -4.33 -0.244141 L -4.31 -0.244141 L -4.3 -0.244102 L -4.28 -0.244102 L -4.27 -0.244063 L -4.26 -0.244063 L -4.25 -0.244023 L -4.23 -0.244023 L -4.22 -0.243984 L -4.2 -0.243984 L -4.19 -0.243945 L -4.17 -0.243945 L -4.16 -0.243906 L -4.15 -0.243906 L -4.14 -0.243867 L -4.12 -0.243867 L -4.11 -0.243828 L -4.09 -0.243828 L -4.08 -0.243789 L -4.07 -0.243789 L -4.06 -0.24375 L -4.04 -0.24375 L -4.03 -0.243711 L -4.02 -0.243711 L -4.01 -0.243672 L -3.99 -0.243672 L -3.98 -0.243633 L -3.97 -0.243633 L -3.96 -0.243594 L -3.94 -0.243594 L -3.93 -0.243555 L -3.92 -0.243555 L -3.91 -0.243516 L -3.9 -0.243516 L -3.89 -0.243477 L -3.87 -0.243477 L -3.86 -0.243438 L -3.85 -0.243438 L -3.84 -0.243398 L -3.83 -0.243398 L -3.82 -0.243359 L -3.81 -0.243359 L -3.8 -0.24332 L -3.78 -0.24332 L -3.77 -0.243281 L -3.76 -0.243281 L -3.75 -0.243242 L -3.74 -0.243242 L -3.73 -0.243203 L -3.72 -0.243203 L -3.71 -0.243164 L -3.7 -0.243164 L -3.69 -0.243125 L -3.68 -0.243125 L -3.67 -0.243086 L -3.66 -0.243086 L -3.65 -0.243047 L -3.64 -0.243047 L -3.63 -0.243008 L -3.62 -0.243008 L -3.61 -0.242969 L -3.6 -0.242969 L -3.59 -0.24293 L -3.58 -0.24293 L -3.57 -0.242891 L -3.56 -0.242891 L -3.55 -0.242852 L -3.54 -0.242852 L -3.53 -0.242812 L -3.52 -0.242812 L -3.51 -0.242773 L -3.5 -0.242773 L -3.49 -0.242734 L -3.48 -0.242734 L -3.47 -0.242695 L -3.46 -0.242695 L -3.45 -0.242656 L -3.44 -0.242656 L -3.43 -0.242617 L -3.42 -0.242617 L -3.4 -0.242539 L -3.39 -0.242539 L -3.38 -0.2425 L -3.37 -0.2425 L -3.36 -0.242461 L -3.35 -0.242461 L -3.33 -0.242383 L -3.32 -0.242383 L -3.31 -0.242344 L -3.3 -0.242344 L -3.28 -0.242266 L -3.27 -0.242266 L -3.26 -0.242227 L -3.25 -0.242227 L -3.23 -0.242148 L -3.22 -0.242148 L -3.21 -0.242109 L -3.2 -0.242109 L -3.18 -0.242031 L -3.17 -0.242031 L -3.15 -0.241953 L -3.14 -0.241953 L -3.12 -0.241875 L -3.11 -0.241875 L -3.09 -0.241797 L -3.08 -0.241797 L -3.06 -0.241719 L -3.05 -0.241719 L -3.02 -0.241602 L -3.01 -0.241602 L -2.99 -0.241523 L -2.98 -0.241523 L -2.95 -0.241406 L -2.94 -0.241406 L -2.91 -0.241289 L -2.9 -0.241289 L -2.87 -0.241172 L -2.86 -0.241172 L -2.81 -0.240977 L -2.8 -0.240977 L -2.75 -0.240781 L -2.74 -0.240781 L -2.67 -0.240508 L -2.66 -0.240508 L -2.43 -0.239609 L -2.42 -0.239531 L -2.36 -0.239297 L -2.35 -0.239219 L -2.3 -0.239023 L -2.29 -0.238945 L -2.26 -0.238828 L -2.25 -0.23875 L -2.23 -0.238672 L -2.22 -0.238594 L -2.2 -0.238516 L -2.19 -0.238437 L -2.17 -0.238359 L -2.16 -0.238281 L -2.14 -0.238203 L -2.13 -0.238125 L -2.12 -0.238086 L -2.11 -0.238008 L -2.1 -0.237969 L -2.09 -0.237891 L -2.08 -0.237852 L -2.07 -0.237773 L -2.06 -0.237734 L -2.05 -0.237656 L -2.04 -0.237617 L -2.03 -0.237539 L -2.02 -0.2375 L -2 -0.237344 L -1.99 -0.237305 L -1.98 -0.237227 L -1.97 -0.237188 L -1.94 -0.236953 L -1.93 -0.236914 L -1.91 -0.236758 L -1.9 -0.236719 L -1.84 -0.23625 L -1.83 -0.236211 L -1.76 -0.235664 L -1.75 -0.235547 L -1.7 -0.235156 L -1.69 -0.235039 L -1.66 -0.234805 L -1.65 -0.234688 L -1.64 -0.234609 L -1.63 -0.234492 L -1.61 -0.234336 L -1.6 -0.234219 L -1.59 -0.234141 L -1.57 -0.233906 L -1.56 -0.233828 L -1.54 -0.233594 L -1.53 -0.233516 L -1.49 -0.233047 L -1.48 -0.232969 L -1.44 -0.2325 L -1.43 -0.232344 L -1.39 -0.231875 L -1.38 -0.231719 L -1.37 -0.231602 L -1.36 -0.231445 L -1.35 -0.231328 L -1.34 -0.231172 L -1.33 -0.231055 L -1.31 -0.230742 L -1.3 -0.230625 L -1.23 -0.229531 L -1.22 -0.229336 L -1.2 -0.229023 L -1.19 -0.228828 L -1.18 -0.228672 L -1.16 -0.228281 L -1.15 -0.228125 L -1.1 -0.227148 L -1.09 -0.226914 L -1.08 -0.226719 L -1.07 -0.226484 L -1.06 -0.226289 L -0.99 -0.224648 L -0.97 -0.224102 L -0.96 -0.223867 L -0.94 -0.22332 L -0.93 -0.223008 L -0.91 -0.222461 L -0.87 -0.221211 L -0.86 -0.220859 L -0.85 -0.220547 L -0.81 -0.219141 L -0.77 -0.217578 L -0.74 -0.216289 L -0.73 -0.21582 L -0.72 -0.215391 L -0.71 -0.214922 L -0.67 -0.212891 L -0.65 -0.211797 L -0.63 -0.210625 L -0.6 -0.20875 L -0.59 -0.208047 L -0.58 -0.207383 L -0.57 -0.20668 L -0.56 -0.205938 L -0.54 -0.204375 L -0.52 -0.202734 L -0.51 -0.201875 L -0.48 -0.199063 L -0.47 -0.198047 L -0.46 -0.196992 L -0.45 -0.195898 L -0.44 -0.194766 L -0.43 -0.193594 L -0.42 -0.192344 L -0.41 -0.191055 L -0.4 -0.189727 L -0.39 -0.18832 L -0.38 -0.186875 L -0.37 -0.185352 L -0.36 -0.18375 L -0.35 -0.18207 L -0.34 -0.180312 L -0.33 -0.178477 L -0.32 -0.176563 L -0.31 -0.174492 L -0.3 -0.172383 L -0.29 -0.170117 L -0.28 -0.167734 L -0.27 -0.165234 L -0.26 -0.162578 L -0.25 -0.159766 L -0.24 -0.156797 L -0.23 -0.153672 L -0.22 -0.150313 L -0.21 -0.146797 L -0.2 -0.143008 L -0.19 -0.139023 L -0.18 -0.134766 L -0.17 -0.130234 L -0.16 -0.12543 L -0.15 -0.120273 L -0.14 -0.114805 L -0.13 -0.109023 L -0.12 -0.102813 L -0.11 -0.09625 L -0.1 -0.0892969 L -0.09 -0.0819141 L -0.08 -0.0741406 L -0.07 -0.0659375 L -0.06 -0.0573828 L -0.05 -0.0484375 L -0.04 -0.0391797 L -0.03 -0.0296484 L -0.02 -0.0198828 L -0.01 -0.01 L 0.02 0.02 L 0.03 0.0299609 L 0.04 0.0399609 L 0.07 0.0697266 L 0.09 0.0894141 L 0.1 0.0991797 L 0.11 0.108906 L 0.12 0.118594 L 0.13 0.128242 L 0.14 0.137812 L 0.15 0.147305 L 0.16 0.156758 L 0.17 0.166133 L 0.18 0.17543 L 0.19 0.184648 L 0.2 0.193789 L 0.21 0.202852 L 0.22 0.211836 L 0.23 0.220703 L 0.24 0.229492 L 0.25 0.238203 L 0.26 0.246836 L 0.27 0.255352 L 0.28 0.263789 L 0.29 0.272109 L 0.3 0.280352 L 0.31 0.288477 L 0.32 0.296523 L 0.33 0.304453 L 0.34 0.312266 L 0.35 0.32 L 0.36 0.327656 L 0.37 0.335156 L 0.38 0.342578 L 0.39 0.349922 L 0.4 0.357148 L 0.41 0.364258 L 0.42 0.37125 L 0.43 0.378203 L 0.44 0.385 L 0.45 0.391719 L 0.46 0.398359 L 0.47 0.404844 L 0.48 0.411289 L 0.49 0.417617 L 0.5 0.423828 L 0.51 0.43 L 0.52 0.436016 L 0.53 0.441992 L 0.54 0.447852 L 0.55 0.453594 L 0.56 0.459297 L 0.57 0.464883 L 0.58 0.470391 L 0.59 0.47582 L 0.6 0.481172 L 0.61 0.486406 L 0.62 0.491562 L 0.63 0.49668 L 0.64 0.50168 L 0.65 0.506602 L 0.66 0.511484 L 0.67 0.51625 L 0.68 0.520977 L 0.69 0.525586 L 0.7 0.530156 L 0.71 0.534648 L 0.72 0.539062 L 0.73 0.543438 L 0.74 0.547734 L 0.75 0.551953 L 0.76 0.556094 L 0.77 0.560195 L 0.78 0.564219 L 0.8 0.572109 L 0.81 0.575937 L 0.82 0.579727 L 0.83 0.583477 L 0.84 0.587148 L 0.86 0.594336 L 0.87 0.597852 L 0.89 0.604727 L 0.9 0.608086 L 0.92 0.614648 L 0.93 0.617852 L 0.94 0.621016 L 0.95 0.624141 L 0.96 0.627227 L 0.98 0.633242 L 1 0.639102 L 1.01 0.641953 L 1.03 0.647578 L 1.04 0.650313 L 1.06 0.655703 L 1.07 0.65832 L 1.09 0.663477 L 1.1 0.666016 L 1.12 0.670937 L 1.14 0.675781 L 1.16 0.680469 L 1.17 0.682773 L 1.18 0.685039 L 1.2 0.689492 L 1.21 0.69168 L 1.22 0.693828 L 1.24 0.698047 L 1.25 0.700117 L 1.27 0.70418 L 1.29 0.708164 L 1.3 0.710078 L 1.31 0.712031 L 1.34 0.717656 L 1.35 0.719492 L 1.37 0.723086 L 1.38 0.724844 L 1.39 0.726562 L 1.4 0.72832 L 1.43 0.733359 L 1.45 0.736641 L 1.46 0.738242 L 1.47 0.739805 L 1.48 0.741406 L 1.49 0.74293 L 1.5 0.744492 L 1.51 0.745977 L 1.52 0.7475 L 1.53 0.748984 L 1.54 0.75043 L 1.55 0.751914 L 1.56 0.75332 L 1.57 0.754766 L 1.58 0.756172 L 1.62 0.761641 L 1.63 0.762969 L 1.64 0.764258 L 1.65 0.765586 L 1.66 0.766875 L 1.67 0.768125 L 1.68 0.769414 L 1.69 0.770664 L 1.7 0.771875 L 1.71 0.773125 L 1.72 0.774336 L 1.73 0.775508 L 1.74 0.776719 L 1.76 0.779062 L 1.8 0.783594 L 1.83 0.786875 L 1.84 0.78793 L 1.85 0.789023 L 1.86 0.790078 L 1.87 0.791094 L 1.88 0.792148 L 1.91 0.795195 L 1.96 0.800078 L 2 0.803828 L 2.05 0.80832 L 2.1 0.812617 L 2.11 0.813438 L 2.12 0.814297 L 2.14 0.815937 L 2.15 0.816719 L 2.16 0.817539 L 2.22 0.822227 L 2.27 0.825937 L 2.28 0.826641 L 2.29 0.827383 L 2.34 0.830898 L 2.35 0.831562 L 2.36 0.832266 L 2.42 0.83625 L 2.43 0.836875 L 2.44 0.837539 L 2.49 0.840664 L 2.5 0.84125 L 2.51 0.841875 L 2.52 0.842461 L 2.53 0.843086 L 2.57 0.84543 L 2.58 0.845977 L 2.6 0.847148 L 2.63 0.848789 L 2.64 0.849375 L 2.66 0.850469 L 2.67 0.850977 L 2.69 0.85207 L 2.7 0.852578 L 2.71 0.853125 L 2.79 0.857187 L 2.8 0.857656 L 2.81 0.858164 L 2.82 0.858633 L 2.83 0.859141 L 2.86 0.860547 L 2.87 0.861055 L 2.88 0.861484 L 2.92 0.863359 L 2.93 0.863789 L 2.94 0.864258 L 2.96 0.865117 L 2.97 0.865586 L 3.04 0.868594 L 3.05 0.868984 L 3.07 0.869844 L 3.08 0.870234 L 3.09 0.870664 L 3.11 0.871445 L 3.12 0.871875 L 3.2 0.875 L 3.21 0.875352 L 3.22 0.875742 L 3.23 0.876094 L 3.25 0.876875 L 3.27 0.877578 L 3.28 0.877969 L 3.39 0.881836 L 3.4 0.882148 L 3.42 0.882852 L 3.43 0.883164 L 3.44 0.883516 L 3.45 0.883828 L 3.46 0.88418 L 3.49 0.885117 L 3.5 0.885469 L 3.59 0.888281 L 3.6 0.888555 L 3.63 0.889492 L 3.64 0.889766 L 3.65 0.890078 L 3.66 0.890352 L 3.67 0.890664 L 3.68 0.890937 L 3.69 0.89125 L 3.71 0.891797 L 3.72 0.892109 L 3.75 0.89293 L 3.76 0.893242 L 3.83 0.895156 L 3.84 0.895391 L 3.88 0.896484 L 3.89 0.896719 L 3.91 0.897266 L 3.92 0.8975 L 3.93 0.897773 L 3.94 0.898008 L 3.95 0.898281 L 3.96 0.898516 L 3.97 0.898789 L 3.99 0.899258 L 4 0.899531 L 4.02 0.9 L 4.03 0.900273 L 4.1 0.901914 L 4.11 0.902187 L 4.12 0.902383 L 4.19 0.904023 L 4.2 0.904219 L 4.22 0.904687 L 4.23 0.904883 L 4.25 0.905352 L 4.26 0.905547 L 4.28 0.906016 L 4.29 0.906211 L 4.3 0.906445 L 4.32 0.906836 L 4.33 0.90707 L 4.34 0.907266 L 4.35 0.9075 L 4.37 0.907891 L 4.38 0.908125 L 4.41 0.908711 L 4.42 0.908945 L 4.48 0.910117 L 4.49 0.910352 L 4.53 0.911133 L 4.54 0.911289 L 4.61 0.912656 L 4.62 0.912813 L 4.65 0.913398 L 4.66 0.913555 L 4.68 0.913945 L 4.69 0.914102 L 4.7 0.914297 L 4.71 0.914453 L 4.73 0.914844 L 4.74 0.915 L 4.75 0.915195 L 4.76 0.915352 L 4.77 0.915547 L 4.78 0.915703 L 4.79 0.915898 L 4.81 0.916211 L 4.82 0.916406 L 4.83 0.916562 L 4.84 0.916758 L 4.86 0.91707 L 4.87 0.917266 L 4.9 0.917734 L 4.91 0.91793 L 4.95 0.918555 L 4.96 0.91875 L 5 0.919375 " transform="matrix(100,0,0,-100,500,200)"/>
<path style="fill:none;stroke-width:0.03;stroke-linecap:butt;stroke-linejoin:miter;stroke:rgb(87.058824%,29.803922%,71.764706%);stroke-opacity:0.25;stroke-miterlimit:10;" d="M -5 -0.12375 L -4.99 -0.12375 L -4.98 -0.123711 L -4.84 -0.123711 L -4.83 -0.123672 L -4.7 -0.123672 L -4.69 -0.123633 L -4.57 -0.123633 L -4.56 -0.123594 L -4.45 -0.123594 L -4.44 -0.123555 L -4.33 -0.123555 L -4.32 -0.123516 L -4.22 -0.123516 L -4.21 -0.123477 L -4.11 -0.123477 L -4.1 -0.123438 L -4.01 -0.123438 L -4 -0.123398 L -3.91 -0.123398 L -3.9 -0.123359 L -3.82 -0.123359 L -3.81 -0.12332 L -3.73 -0.12332 L -3.72 -0.123281 L -3.65 -0.123281 L -3.64 -0.123242 L -3.57 -0.123242 L -3.56 -0.123203 L -3.49 -0.123203 L -3.48 -0.123164 L -3.42 -0.123164 L -3.41 -0.123125 L -3.35 -0.123125 L -3.34 -0.123086 L -3.28 -0.123086 L -3.27 -0.123047 L -3.21 -0.123047 L -3.2 -0.123008 L -3.15 -0.123008 L -3.14 -0.122969 L -3.09 -0.122969 L -3.08 -0.12293 L -3.03 -0.12293 L -3.02 -0.122891 L -2.98 -0.122891 L -2.97 -0.122852 L -2.93 -0.122852 L -2.92 -0.122813 L -2.87 -0.122813 L -2.86 -0.122773 L -2.82 -0.122773 L -2.81 -0.122734 L -2.78 -0.122734 L -2.77 -0.122695 L -2.73 -0.122695 L -2.72 -0.122656 L -2.68 -0.122656 L -2.67 -0.122617 L -2.64 -0.122617 L -2.63 -0.122578 L -2.6 -0.122578 L -2.59 -0.122539 L -2.56 -0.122539 L -2.55 -0.1225 L -2.52 -0.1225 L -2.51 -0.122461 L -2.48 -0.122461 L -2.47 -0.122422 L -2.44 -0.122422 L -2.43 -0.122383 L -2.41 -0.122383 L -2.4 -0.122344 L -2.37 -0.122344 L -2.36 -0.122305 L -2.34 -0.122305 L -2.33 -0.122266 L -2.3 -0.122266 L -2.29 -0.122227 L -2.27 -0.122227 L -2.26 -0.122187 L -2.24 -0.122187 L -2.23 -0.122148 L -2.21 -0.122148 L -2.2 -0.122109 L -2.18 -0.122109 L -2.17 -0.12207 L -2.15 -0.12207 L -2.14 -0.122031 L -2.12 -0.122031 L -2.11 -0.121992 L -2.1 -0.121992 L -2.09 -0.121953 L -2.07 -0.121953 L -2.06 -0.121914 L -2.04 -0.121914 L -2.03 -0.121875 L -2.02 -0.121875 L -2.01 -0.121836 L -1.99 -0.121836 L -1.98 -0.121797 L -1.97 -0.121797 L -1.96 -0.121758 L -1.95 -0.121758 L -1.94 -0.121719 L -1.92 -0.121719 L -1.91 -0.12168 L -1.9 -0.12168 L -1.89 -0.121641 L -1.88 -0.121641 L -1.87 -0.121602 L -1.86 -0.121602 L -1.85 -0.121563 L -1.84 -0.121563 L -1.83 -0.121523 L -1.82 -0.121523 L -1.81 -0.121484 L -1.8 -0.121484 L -1.79 -0.121445 L -1.78 -0.121445 L -1.77 -0.121406 L -1.76 -0.121406 L -1.75 -0.121367 L -1.74 -0.121367 L -1.73 -0.121328 L -1.72 -0.121328 L -1.71 -0.121289 L -1.7 -0.121289 L -1.69 -0.12125 L -1.68 -0.12125 L -1.66 -0.121172 L -1.65 -0.121172 L -1.64 -0.121133 L -1.63 -0.121133 L -1.61 -0.121055 L -1.6 -0.121055 L -1.58 -0.120977 L -1.57 -0.120977 L -1.56 -0.120938 L -1.55 -0.120938 L -1.52 -0.12082 L -1.51 -0.12082 L -1.49 -0.120742 L -1.48 -0.120742 L -1.45 -0.120625 L -1.44 -0.120625 L -1.39 -0.12043 L -1.38 -0.12043 L -1.29 -0.120078 L -1.28 -0.120078 L -1.26 -0.12 L -1.25 -0.119922 L -1.17 -0.119609 L -1.16 -0.119531 L -1.13 -0.119414 L -1.12 -0.119336 L -1.09 -0.119219 L -1.08 -0.119141 L -1.07 -0.119102 L -1.06 -0.119023 L -1.05 -0.118984 L -1.04 -0.118906 L -1.03 -0.118867 L -1.02 -0.118789 L -1.01 -0.11875 L -1 -0.118672 L -0.99 -0.118633 L -0.97 -0.118477 L -0.96 -0.118438 L -0.84 -0.1175 L -0.83 -0.117383 L -0.82 -0.117305 L -0.81 -0.117188 L -0.8 -0.117109 L -0.79 -0.116992 L -0.78 -0.116914 L -0.76 -0.11668 L -0.75 -0.116602 L -0.71 -0.116133 L -0.7 -0.115977 L -0.68 -0.115742 L -0.67 -0.115586 L -0.66 -0.115469 L -0.61 -0.114688 L -0.6 -0.114492 L -0.59 -0.114336 L -0.54 -0.113359 L -0.53 -0.113125 L -0.52 -0.11293 L -0.51 -0.112695 L -0.5 -0.112422 L -0.49 -0.112188 L -0.46 -0.111367 L -0.42 -0.110117 L -0.41 -0.109727 L -0.4 -0.109375 L -0.39 -0.108984 L -0.36 -0.107695 L -0.35 -0.107227 L -0.34 -0.106719 L -0.33 -0.106172 L -0.31 -0.105 L -0.3 -0.104375 L -0.28 -0.102969 L -0.27 -0.102187 L -0.26 -0.101367 L -0.25 -0.100469 L -0.24 -0.0995313 L -0.23 -0.0984766 L -0.22 -0.0973828 L -0.21 -0.0961719 L -0.2 -0.0948828 L -0.19 -0.0934375 L -0.18 -0.091875 L -0.17 -0.0901563 L -0.16 -0.0882813 L -0.15 -0.0861719 L -0.14 -0.0838672 L -0.13 -0.0812891 L -0.12 -0.0783984 L -0.11 -0.0751563 L -0.1 -0.0715234 L -0.09 -0.0673828 L -0.08 -0.0626953 L -0.07 -0.0574219 L -0.06 -0.0514062 L -0.05 -0.0446484 L -0.04 -0.0370703 L -0.03 -0.0286719 L -0.02 -0.0196094 L -0.01 -0.00996094 L 0 0 L 0.02 0.02 L 0.03 0.0299609 L 0.04 0.0399609 L 0.07 0.0697266 L 0.09 0.0894141 L 0.1 0.0991797 L 0.11 0.108906 L 0.12 0.118594 L 0.13 0.128242 L 0.14 0.137812 L 0.15 0.147305 L 0.16 0.156758 L 0.17 0.166133 L 0.18 0.17543 L 0.19 0.184648 L 0.2 0.193789 L 0.21 0.202852 L 0.22 0.211836 L 0.23 0.220703 L 0.24 0.229492 L 0.25 0.238203 L 0.26 0.246836 L 0.27 0.255352 L 0.28 0.263789 L 0.29 0.272109 L 0.3 0.280352 L 0.31 0.288477 L 0.32 0.296523 L 0.33 0.304453 L 0.34 0.312266 L 0.35 0.32 L 0.36 0.327656 L 0.37 0.335156 L 0.38 0.342578 L 0.39 0.349922 L 0.4 0.357148 L 0.41 0.364258 L 0.42 0.37125 L 0.43 0.378203 L 0.44 0.385 L 0.45 0.391719 L 0.46 0.398359 L 0.47 0.404844 L 0.48 0.411289 L 0.49 0.417617 L 0.5 0.423828 L 0.51 0.43 L 0.52 0.436016 L 0.53 0.441992 L 0.54 0.447852 L 0.55 0.453594 L 0.56 0.459297 L 0.57 0.464883 L 0.58 0.470391 L 0.59 0.47582 L 0.6 0.481172 L 0.61 0.486406 L 0.62 0.491562 L 0.63 0.49668 L 0.64 0.50168 L 0.65 0.506602 L 0.66 0.511484 L 0.67 0.51625 L 0.68 0.520977 L 0.69 0.525586 L 0.7 0.530156 L 0.71 0.534648 L 0.72 0.539062 L 0.73 0.543438 L 0.74 0.547734 L 0.75 0.551953 L 0.76 0.556094 L 0.77 0.560195 L 0.78 0.564219 L 0.8 0.572109 L 0.81 0.575937 L 0.82 0.579727 L 0.83 0.583477 L 0.84 0.587148 L 0.86 0.594336 L 0.87 0.597852 L 0.89 0.604727 L 0.9 0.608086 L 0.92 0.614648 L 0.93 0.617852 L 0.94 0.621016 L 0.95 0.624141 L 0.96 0.627227 L 0.98 0.633242 L 1 0.639102 L 1.01 0.641953 L 1.03 0.647578 L 1.04 0.650313 L 1.06 0.655703 L 1.07 0.65832 L 1.09 0.663477 L 1.1 0.666016 L 1.12 0.670937 L 1.14 0.675781 L 1.16 0.680469 L 1.17 0.682773 L 1.18 0.685039 L 1.2 0.689492 L 1.21 0.69168 L 1.22 0.693828 L 1.24 0.698047 L 1.25 0.700117 L 1.27 0.70418 L 1.29 0.708164 L 1.3 0.710078 L 1.31 0.712031 L 1.34 0.717656 L 1.35 0.719492 L 1.37 0.723086 L 1.38 0.724844 L 1.39 0.726562 L 1.4 0.72832 L 1.43 0.733359 L 1.45 0.736641 L 1.46 0.738242 L 1.47 0.739805 L 1.48 0.741406 L 1.49 0.74293 L 1.5 0.744492 L 1.51 0.745977 L 1.52 0.7475 L 1.53 0.748984 L 1.54 0.75043 L 1.55 0.751914 L 1.56 0.75332 L 1.57 0.754766 L 1.58 0.756172 L 1.62 0.761641 L 1.63 0.762969 L 1.64 0.764258 L 1.65 0.765586 L 1.66 0.766875 L 1.67 0.768125 L 1.68 0.769414 L 1.69 0.770664 L 1.7 0.771875 L 1.71 0.773125 L 1.72 0.774336 L 1.73 0.775508 L 1.74 0.776719 L 1.76 0.779062 L 1.8 0.783594 L 1.83 0.786875 L 1.84 0.78793 L 1.85 0.789023 L 1.86 0.790078 L 1.87 0.791094 L 1.88 0.792148 L 1.91 0.795195 L 1.96 0.800078 L 2 0.803828 L 2.05 0.80832 L 2.1 0.812617 L 2.11 0.813438 L 2.12 0.814297 L 2.14 0.815937 L 2.15 0.816719 L 2.16 0.817539 L 2.22 0.822227 L 2.27 0.825937 L 2.28 0.826641 L 2.29 0.827383 L 2.34 0.830898 L 2.35 0.831562 L 2.36 0.832266 L 2.42 0.83625 L 2.43 0.836875 L 2.44 0.837539 L 2.49 0.840664 L 2.5 0.84125 L 2.51 0.841875 L 2.52 0.842461 L 2.53 0.843086 L 2.57 0.84543 L 2.58 0.845977 L 2.6 0.847148 L 2.63 0.848789 L 2.64 0.849375 L 2.66 0.850469 L 2.67 0.850977 L 2.69 0.85207 L 2.7 0.852578 L 2.71 0.853125 L 2.79 0.857187 L 2.8 0.857656 L 2.81 0.858164 L 2.82 0.858633 L 2.83 0.859141 L 2.86 0.860547 L 2.87 0.861055 L 2.88 0.861484 L 2.92 0.863359 L 2.93 0.863789 L 2.94 0.864258 L 2.96 0.865117 L 2.97 0.865586 L 3.04 0.868594 L 3.05 0.868984 L 3.07 0.869844 L 3.08 0.870234 L 3.09 0.870664 L 3.11 0.871445 L 3.12 0.871875 L 3.2 0.875 L 3.21 0.875352 L 3.22 0.875742 L 3.23 0.876094 L 3.25 0.876875 L 3.27 0.877578 L 3.28 0.877969 L 3.39 0.881836 L 3.4 0.882148 L 3.42 0.882852 L 3.43 0.883164 L 3.44 0.883516 L 3.45 0.883828 L 3.46 0.88418 L 3.49 0.885117 L 3.5 0.885469 L 3.59 0.888281 L 3.6 0.888555 L 3.63 0.889492 L 3.64 0.889766 L 3.65 0.890078 L 3.66 0.890352 L 3.67 0.890664 L 3.68 0.890937 L 3.69 0.89125 L 3.71 0.891797 L 3.72 0.892109 L 3.75 0.89293 L 3.76 0.893242 L 3.83 0.895156 L 3.84 0.895391 L 3.88 0.896484 L 3.89 0.896719 L 3.91 0.897266 L 3.92 0.8975 L 3.93 0.897773 L 3.94 0.898008 L 3.95 0.898281 L 3.96 0.898516 L 3.97 0.898789 L 3.99 0.899258 L 4 0.899531 L 4.02 0.9 L 4.03 0.900273 L 4.1 0.901914 L 4.11 0.902187 L 4.12 0.902383 L 4.19 0.904023 L 4.2 0.904219 L 4.22 0.904687 L 4.23 0.904883 L 4.25 0.905352 L 4.26 0.905547 L 4.28 0.906016 L 4.29 0.906211 L 4.3 0.906445 L 4.32 0.906836 L 4.33 0.90707 L 4.34 0.907266 L 4.35 0.9075 L 4.37 0.907891 L 4.38 0.908125 L 4.41 0.908711 L 4.42 0.908945 L 4.48 0.910117 L 4.49 0.910352 L 4.53 0.911133 L 4.54 0.911289 L 4.61 0.912656 L 4.62 0.912813 L 4.65 0.913398 L 4.66 0.913555 L 4.68 0.913945 L 4.69 0.914102 L 4.7 0.914297 L 4.71 0.914453 L 4.73 0.914844 L 4.74 0.915 L 4.75 0.915195 L 4.76 0.915352 L 4.77 0.915547 L 4.78 0.915703 L 4.79 0.915898 L 4.81 0.916211 L 4.82 0.916406 L 4.83 0.916562 L 4.84 0.916758 L 4.86 0.91707 L 4.87 0.917266 L 4.9 0.917734 L 4.91 0.91793 L 4.95 0.918555 L 4.96 0.91875 L 5 0.919375 " transform="matrix(100,0,0,-100,500,200)"/>
</g>
</svg>
