<?xml version="1.0" encoding="UTF-8"?>
<svg xmlns="http://www.w3.org/2000/svg" xmlns:xlink="http://www.w3.org/1999/xlink" width="1000pt" height="400pt" viewBox="0 0 1000 400" version="1.1">
<g id="surface81">
<rect x="0" y="0" width="1000" height="400" style="fill:rgb(0%,0%,0%);fill-opacity:1;stroke:none;"/>
<path style="fill:none;stroke-width:0.01;stroke-linecap:butt;stroke-linejoin:miter;stroke:rgb(100%,100%,100%);stroke-opacity:0.5;stroke-miterlimit:10;" d="M -5 -2 L -5 2 " transform="matrix(100,0,0,-100,500,200)"/>
<path style="fill:none;stroke-width:0.01;stroke-linecap:butt;stroke-linejoin:miter;stroke:rgb(100%,100%,100%);stroke-opacity:0.5;stroke-miterlimit:10;" d="M -4 -2 L -4 2 " transform="matrix(100,0,0,-100,500,200)"/>
<path style="fill:none;stroke-width:0.01;stroke-linecap:butt;stroke-linejoin:miter;stroke:rgb(100%,100%,100%);stroke-opacity:0.5;stroke-miterlimit:10;" d="M -3 -2 L -3 2 " transform="matrix(100,0,0,-100,500,200)"/>
<path style="fill:none;stroke-width:0.01;stroke-linecap:butt;stroke-linejoin:miter;stroke:rgb(100%,100%,100%);stroke-opacity:0.5;stroke-miterlimit:10;" d="M -2 -2 L -2 2 " transform="matrix(100,0,0,-100,500,200)"/>
<path style="fill:none;stroke-width:0.01;stroke-linecap:butt;stroke-linejoin:miter;stroke:rgb(100%,100%,100%);stroke-opacity:0.5;stroke-miterlimit:10;" d="M -1 -2 L -1 2 " transform="matrix(100,0,0,-100,500,200)"/>
<path style="fill:none;stroke-width:0.01;stroke-linecap:butt;stroke-linejoin:miter;stroke:rgb(100%,100%,100%);stroke-opacity:1;stroke-miterlimit:10;" d="M 0 -2 L 0 2 " transform="matrix(100,0,0,-100,500,200)"/>
<path style="fill:none;stroke-width:0.01;stroke-linecap:butt;stroke-linejoin:miter;stroke:rgb(100%,100%,100%);stroke-opacity:0.5;stroke-miterlimit:10;" d="M 1 -2 L 1 2 " transform="matrix(100,0,0,-100,500,200)"/>
<path style="fill:none;stroke-width:0.01;stroke-linecap:butt;stroke-linejoin:miter;stroke:rgb(100%,100%,100%);stroke-opacity:0.5;stroke-miterlimit:10;" d="M 2 -2 L 2 2 " transform="matrix(100,0,0,-100,500,200)"/>
<path style="fill:none;stroke-width:0.01;stroke-linecap:butt;stroke-linejoin:miter;stroke:rgb(100%,100%,100%);stroke-opacity:0.5;stroke-miterlimit:10;" d="M 3 -2 L 3 2 " transform="matrix(100,0,0,-100,500,200)"/>
<path style="fill:none;stroke-width:0.01;stroke-linecap:butt;stroke-linejoin:miter;stroke:rgb(100%,100%,100%);stroke-opacity:0.5;stroke-miterlimit:10;" d="M 4 -2 L 4 2 " transform="matrix(100,0,0,-100,500,200)"/>
<path style="fill:none;stroke-width:0.01;stroke-linecap:butt;stroke-linejoin:miter;stroke:rgb(100%,100%,100%);stroke-opacity:0.5;stroke-miterlimit:10;" d="M 5 -2 L 5 2 " transform="matrix(100,0,0,-100,500,200)"/>
<path style="fill:none;stroke-width:0.005;stroke-linecap:butt;stroke-linejoin:miter;stroke:rgb(100%,100%,100%);stroke-opacity:0.25;stroke-miterlimit:10;" d="M -4.75 -2 L -4.75 2 " transform="matrix(100,0,0,-100,500,200)"/>
<path style="fill:none;stroke-width:0.005;stroke-linecap:butt;stroke-linejoin:miter;stroke:rgb(100%,100%,100%);stroke-opacity:0.25;stroke-miterlimit:10;" d="M -4.5 -2 L -4.5 2 " transform="matrix(100,0,0,-100,500,200)"/>
<path style="fill:none;stroke-width:0.005;stroke-linecap:butt;stroke-linejoin:miter;stroke:rgb(100%,100%,100%);stroke-opacity:0.25;stroke-miterlimit:10;" d="M -4.25 -2 L -4.25 2 " transform="matrix(100,0,0,-100,500,200)"/>
<path style="fill:none;stroke-width:0.005;stroke-linecap:butt;stroke-linejoin:miter;stroke:rgb(100%,100%,100%);stroke-opacity:0.25;stroke-miterlimit:10;" d="M -3.75 -2 L -3.75 2 " transform="matrix(100,0,0,-100,500,200)"/>
<path style="fill:none;stroke-width:0.005;stroke-linecap:butt;stroke-linejoin:miter;stroke:rgb(100%,100%,100%);stroke-opacity:0.25;stroke-miterlimit:10;" d="M -3.5 -2 L -3.5 2 " transform="matrix(100,0,0,-100,500,200)"/>
<path style="fill:none;stroke-width:0.005;stroke-linecap:butt;stroke-linejoin:miter;stroke:rgb(100%,100%,100%);stroke-opacity:0.25;stroke-miterlimit:10;" d="M -3.25 -2 L -3.25 2 " transform="matrix(100,0,0,-100,500,200)"/>
<path style="fill:none;stroke-width:0.005;stroke-linecap:butt;stroke-linejoin:miter;stroke:rgb(100%,100%,100%);stroke-opacity:0.25;stroke-miterlimit:10;" d="M -2.75 -2 L -2.75 2 " transform="matrix(100,0,0,-100,500,200)"/>
<path style="fill:none;stroke-width:0.005;stroke-linecap:butt;stroke-linejoin:miter;stroke:rgb(100%,100%,100%);stroke-opacity:0.25;stroke-miterlimit:10;" d="M -2.5 -2 L -2.5 2 " transform="matrix(100,0,0,-100,500,200)"/>
<path style="fill:none;stroke-width:0.005;stroke-linecap:butt;stroke-linejoin:miter;stroke:rgb(100%,100%,100%);stroke-opacity:0.25;stroke-miterlimit:10;" d="M -2.25 -2 L -2.25 2 " transform="matrix(100,0,0,-100,500,200)"/>
<path style="fill:none;stroke-width:0.005;stroke-linecap:butt;stroke-linejoin:miter;stroke:rgb(100%,100%,100%);stroke-opacity:0.25;stroke-miterlimit:10;" d="M -1.75 -2 L -1.75 2 " transform="matrix(100,0,0,-100,500,200)"/>
<path style="fill:none;stroke-width:0.005;stroke-linecap:butt;stroke-linejoin:miter;stroke:rgb(100%,100%,100%);stroke-opacity:0.25;stroke-miterlimit:10;" d="M -1.5 -2 L -1.5 2 " transform="matrix(100,0,0,-100,500,200)"/>
<path style="fill:none;stroke-width:0.005;stroke-linecap:butt;stroke-linejoin:miter;stroke:rgb(100%,100%,100%);stroke-opacity:0.25;stroke-miterlimit:10;" d="M -1.25 -2 L -1.25 2 " transform="matrix(100,0,0,-100,500,200)"/>
<path style="fill:none;stroke-width:0.005;stroke-linecap:butt;stroke-linejoin:miter;stroke:rgb(100%,100%,100%);stroke-opacity:0.25;stroke-miterlimit:10;" d="M -0.75 -2 L -0.75 2 " transform="matrix(100,0,0,-100,500,200)"/>
<path style="fill:none;stroke-width:0.005;stroke-linecap:butt;stroke-linejoin:miter;stroke:rgb(100%,100%,100%);stroke-opacity:0.25;stroke-miterlimit:10;" d="M -0.5 -2 L -0.5 2 " transform="matrix(100,0,0,-100,500,200)"/>
<path style="fill:none;stroke-width:0.005;stroke-linecap:butt;stroke-linejoin:miter;stroke:rgb(100%,100%,100%);stroke-opacity:0.25;stroke-miterlimit:10;" d="M -0.25 -2 L -0.25 2 " transform="matrix(100,0,0,-100,500,200)"/>
<path style="fill:none;stroke-width:0.005;stroke-linecap:butt;stroke-linejoin:miter;stroke:rgb(100%,100%,100%);stroke-opacity:0.25;stroke-miterlimit:10;" d="M 0.25 -2 L 0.25 2 " transform="matrix(100,0,0,-100,500,200)"/>
<path style="fill:none;stroke-width:0.005;stroke-linecap:butt;stroke-linejoin:miter;stroke:rgb(100%,100%,100%);stroke-opacity:0.25;stroke-miterlimit:10;" d="M 0.5 -2 L 0.5 2 " transform="matrix(100,0,0,-100,500,200)"/>
<path style="fill:none;stroke-width:0.005;stroke-linecap:butt;stroke-linejoin:miter;stroke:rgb(100%,100%,100%);stroke-opacity:0.25;stroke-miterlimit:10;" d="M 0.75 -2 L 0.75 2 " transform="matrix(100,0,0,-100,500,200)"/>
<path style="fill:none;stroke-width:0.005;stroke-linecap:butt;stroke-linejoin:miter;stroke:rgb(100%,100%,100%);stroke-opacity:0.25;stroke-miterlimit:10;" d="M 1.25 -2 L 1.25 2 " transform="matrix(100,0,0,-100,500,200)"/>
<path style="fill:none;stroke-width:0.005;stroke-linecap:butt;stroke-linejoin:miter;stroke:rgb(100%,100%,100%);stroke-opacity:0.25;stroke-miterlimit:10;" d="M 1.5 -2 L 1.5 2 " transform="matrix(100,0,0,-100,500,200)"/>
<path style="fill:none;stroke-width:0.005;stroke-linecap:butt;stroke-linejoin:miter;stroke:rgb(100%,100%,100%);stroke-opacity:0.25;stroke-miterlimit:10;" d="M 1.75 -2 L 1.75 2 " transform="matrix(100,0,0,-100,500,200)"/>
<path style="fill:none;stroke-width:0.005;stroke-linecap:butt;stroke-linejoin:miter;stroke:rgb(100%,100%,100%);stroke-opacity:0.25;stroke-miterlimit:10;" d="M 2.25 -2 L 2.25 2 " transform="matrix(100,0,0,-100,500,200)"/>
<path style="fill:none;stroke-width:0.005;stroke-linecap:butt;stroke-linejoin:miter;stroke:rgb(100%,100%,100%);stroke-opacity:0.25;stroke-miterlimit:10;" d="M 2.5 -2 L 2.5 2 " transform="matrix(100,0,0,-100,500,200)"/>
<path style="fill:none;stroke-width:0.005;stroke-linecap:butt;stroke-linejoin:miter;stroke:rgb(100%,100%,100%);stroke-opacity:0.25;stroke-miterlimit:10;" d="M 2.75 -2 L 2.75 2 " transform="matrix(100,0,0,-100,500,200)"/>
<path style="fill:none;stroke-width:0.005;stroke-linecap:butt;stroke-linejoin:miter;stroke:rgb(100%,100%,100%);stroke-opacity:0.25;stroke-miterlimit:10;" d="M 3.25 -2 L 3.25 2 " transform="matrix(100,0,0,-100,500,200)"/>
<path style="fill:none;stroke-width:0.005;stroke-linecap:butt;stroke-linejoin:miter;stroke:rgb(100%,100%,100%);stroke-opacity:0.25;stroke-miterlimit:10;" d="M 3.5 -2 L 3.5 2 " transform="matrix(100,0,0,-100,500,200)"/>
<path style="fill:none;stroke-width:0.005;stroke-linecap:butt;stroke-linejoin:miter;stroke:rgb(100%,100%,100%);stroke-opacity:0.25;stroke-miterlimit:10;" d="M 3.75 -2 L 3.75 2 " transform="matrix(100,0,0,-100,500,200)"/>
<path style="fill:none;stroke-width:0.005;stroke-linecap:butt;stroke-linejoin:miter;stroke:rgb(100%,100%,100%);stroke-opacity:0.25;stroke-miterlimit:10;" d="M 4.25 -2 L 4.25 2 " transform="matrix(100,0,0,-100,500,200)"/>
<path style="fill:none;stroke-width:0.005;stroke-linecap:butt;stroke-linejoin:miter;stroke:rgb(100%,100%,100%);stroke-opacity:0.25;stroke-miterlimit:10;" d="M 4.5 -2 L 4.5 2 " transform="matrix(100,0,0,-100,500,200)"/>
<path style="fill:none;stroke-width:0.005;stroke-linecap:butt;stroke-linejoin:miter;stroke:rgb(100%,100%,100%);stroke-opacity:0.25;stroke-miterlimit:10;" d="M 4.75 -2 L 4.75 2 " transform="matrix(100,0,0,-100,500,200)"/>
<path style="fill:none;stroke-width:0.01;stroke-linecap:butt;stroke-linejoin:miter;stroke:rgb(100%,100%,100%);stroke-opacity:0.5;stroke-miterlimit:10;" d="M -5 -2 L 5 -2 " transform="matrix(100,0,0,-100,500,200)"/>
<path style="fill:none;stroke-width:0.01;stroke-linecap:butt;stroke-linejoin:miter;stroke:rgb(100%,100%,100%);stroke-opacity:0.5;stroke-miterlimit:10;" d="M -5 -1 L 5 -1 " transform="matrix(100,0,0,-100,500,200)"/>
<path style="fill:none;stroke-width:0.01;stroke-linecap:butt;stroke-linejoin:miter;stroke:rgb(100%,100%,100%);stroke-opacity:1;stroke-miterlimit:10;" d="M -5 0 L 5 0 " transform="matrix(100,0,0,-100,500,200)"/>
<path style="fill:none;stroke-width:0.01;stroke-linecap:butt;stroke-linejoin:miter;stroke:rgb(100%,100%,100%);stroke-opacity:0.5;stroke-miterlimit:10;" d="M -5 1 L 5 1 " transform="matrix(100,0,0,-100,500,200)"/>
<path style="fill:none;stroke-width:0.01;stroke-linecap:butt;stroke-linejoin:miter;stroke:rgb(100%,100%,100%);stroke-opacity:0.5;stroke-miterlimit:10;" d="M -5 2 L 5 2 " transform="matrix(100,0,0,-100,500,200)"/>
<path style="fill:none;stroke-width:0.005;stroke-linecap:butt;stroke-linejoin:miter;stroke:rgb(100%,100%,100%);stroke-opacity:0.25;stroke-miterlimit:10;" d="M -5 -1.75 L 5 -1.75 " transform="matrix(100,0,0,-100,500,200)"/>
<path style="fill:none;stroke-width:0.005;stroke-linecap:butt;stroke-linejoin:miter;stroke:rgb(100%,100%,100%);stroke-opacity:0.25;stroke-miterlimit:10;" d="M -5 -1.5 L 5 -1.5 " transform="matrix(100,0,0,-100,500,200)"/>
<path style="fill:none;stroke-width:0.005;stroke-linecap:butt;stroke-linejoin:miter;stroke:rgb(100%,100%,100%);stroke-opacity:0.25;stroke-miterlimit:10;" d="M -5 -1.25 L 5 -1.25 " transform="matrix(100,0,0,-100,500,200)"/>
<path style="fill:none;stroke-width:0.005;stroke-linecap:butt;stroke-linejoin:miter;stroke:rgb(100%,100%,100%);stroke-opacity:0.25;stroke-miterlimit:10;" d="M -5 -0.75 L 5 -0.75 " transform="matrix(100,0,0,-100,500,200)"/>
<path style="fill:none;stroke-width:0.005;stroke-linecap:butt;stroke-linejoin:miter;stroke:rgb(100%,100%,100%);stroke-opacity:0.25;stroke-miterlimit:10;" d="M -5 -0.5 L 5 -0.5 " transform="matrix(100,0,0,-100,500,200)"/>
<path style="fill:none;stroke-width:0.005;stroke-linecap:butt;stroke-linejoin:miter;stroke:rgb(100%,100%,100%);stroke-opacity:0.25;stroke-miterlimit:10;" d="M -5 -0.25 L 5 -0.25 " transform="matrix(100,0,0,-100,500,200)"/>
<path style="fill:none;stroke-width:0.005;stroke-linecap:butt;stroke-linejoin:miter;stroke:rgb(100%,100%,100%);stroke-opacity:0.25;stroke-miterlimit:10;" d="M -5 0.25 L 5 0.25 " transform="matrix(100,0,0,-100,500,200)"/>
<path style="fill:none;stroke-width:0.005;stroke-linecap:butt;stroke-linejoin:miter;stroke:rgb(100%,100%,100%);stroke-opacity:0.25;stroke-miterlimit:10;" d="M -5 0.5 L 5 0.5 " transform="matrix(100,0,0,-100,500,200)"/>
<path style="fill:none;stroke-width:0.005;stroke-linecap:butt;stroke-linejoin:miter;stroke:rgb(100%,100%,100%);stroke-opacity:0.25;stroke-miterlimit:10;" d="M -5 0.75 L 5 0.75 " transform="matrix(100,0,0,-100,500,200)"/>
<path style="fill:none;stroke-width:0.005;stroke-linecap:butt;stroke-linejoin:miter;stroke:rgb(100%,100%,100%);stroke-opacity:0.25;stroke-miterlimit:10;" d="M -5 1.25 L 5 1.25 " transform="matrix(100,0,0,-100,500,200)"/>
<path style="fill:none;stroke-width:0.005;stroke-linecap:butt;stroke-linejoin:miter;stroke:rgb(100%,100%,100%);stroke-opacity:0.25;stroke-miterlimit:10;" d="M -5 1.5 L 5 1.5 " transform="matrix(100,0,0,-100,500,200)"/>
<path style="fill:none;stroke-width:0.005;stroke-linecap:butt;stroke-linejoin:miter;stroke:rgb(100%,100%,100%);stroke-opacity:0.25;stroke-miterlimit:10;" d="M -5 1.75 L 5 1.75 " transform="matrix(100,0,0,-100,500,200)"/>
<path style="fill:none;stroke-width:0.03;stroke-linecap:butt;stroke-linejoin:miter;stroke:rgb(87.058824%,29.803922%,71.764706%);stroke-opacity:1;stroke-miterlimit:10;" d="M -5 -0.999922 L -4.96 -0.999922 L -4.95 -0.999883 L -4.79 -0.999883 L -4.78 -0.999844 L -4.66 -0.999844 L -4.65 -0.999805 L -4.56 -0.999805 L -4.55 -0.999766 L -4.48 -0.999766 L -4.47 -0.999727 L -4.41 -0.999727 L -4.4 -0.999688 L -4.35 -0.999688 L -4.34 -0.999648 L -4.29 -0.999648 L -4.28 -0.999609 L -4.24 -0.999609 L -4.23 -0.99957 L -4.2 -0.99957 L -4.19 -0.999531 L -4.15 -0.999531 L -4.14 -0.999492 L -4.12 -0.999492 L -4.11 -0.999453 L -4.08 -0.999453 L -4.07 -0.999414 L -4.05 -0.999414 L -4.04 -0.999375 L -4.01 -0.999375 L -4 -0.999336 L -3.99 -0.999336 L -3.98 -0.999297 L -3.96 -0.999297 L -3.95 -0.999258 L -3.93 -0.999258 L -3.92 -0.999219 L -3.91 -0.999219 L -3.9 -0.99918 L -3.88 -0.99918 L -3.87 -0.999141 L -3.86 -0.999141 L -3.85 -0.999102 L -3.84 -0.999102 L -3.83 -0.999062 L -3.82 -0.999062 L -3.81 -0.999023 L -3.8 -0.999023 L -3.79 -0.998984 L -3.78 -0.998984 L -3.77 -0.998945 L -3.76 -0.998945 L -3.75 -0.998906 L -3.74 -0.998906 L -3.73 -0.998867 L -3.72 -0.998867 L -3.7 -0.998789 L -3.69 -0.998789 L -3.67 -0.998711 L -3.66 -0.998711 L -3.64 -0.998633 L -3.63 -0.998633 L -3.61 -0.998555 L -3.6 -0.998555 L -3.56 -0.998398 L -3.55 -0.998398 L -3.36 -0.997656 L -3.35 -0.997578 L -3.33 -0.9975 L -3.32 -0.997422 L -3.3 -0.997344 L -3.29 -0.997266 L -3.27 -0.997187 L -3.26 -0.997109 L -3.25 -0.99707 L -3.24 -0.996992 L -3.23 -0.996953 L -3.21 -0.996797 L -3.2 -0.996758 L -3.18 -0.996602 L -3.17 -0.996563 L -3.05 -0.995625 L -3.04 -0.995508 L -3.02 -0.995352 L -3.01 -0.995234 L -3 -0.995156 L -2.99 -0.995039 L -2.98 -0.994961 L -2.97 -0.994844 L -2.96 -0.994766 L -2.91 -0.99418 L -2.9 -0.994102 L -2.89 -0.993945 L -2.85 -0.993477 L -2.84 -0.99332 L -2.83 -0.993203 L -2.82 -0.993047 L -2.81 -0.99293 L -2.79 -0.992617 L -2.78 -0.9925 L -2.74 -0.991875 L -2.73 -0.99168 L -2.71 -0.991367 L -2.7 -0.991172 L -2.69 -0.991016 L -2.67 -0.990625 L -2.66 -0.990469 L -2.63 -0.989883 L -2.62 -0.989648 L -2.6 -0.989258 L -2.58 -0.988789 L -2.57 -0.988594 L -2.53 -0.987656 L -2.52 -0.987383 L -2.51 -0.987148 L -2.44 -0.985234 L -2.38 -0.983359 L -2.36 -0.982656 L -2.35 -0.982344 L -2.34 -0.981992 L -2.33 -0.981602 L -2.32 -0.98125 L -2.27 -0.979297 L -2.22 -0.977148 L -2.18 -0.975273 L -2.14 -0.973242 L -2.11 -0.971602 L -2.1 -0.971016 L -2.09 -0.970469 L -2.08 -0.969883 L -2.07 -0.969258 L -2.06 -0.968672 L -2.05 -0.968047 L -2.04 -0.967383 L -2.03 -0.966758 L -2.01 -0.96543 L -1.98 -0.96332 L -1.95 -0.961094 L -1.92 -0.95875 L -1.91 -0.95793 L -1.9 -0.95707 L -1.89 -0.95625 L -1.88 -0.955391 L -1.85 -0.952695 L -1.84 -0.951758 L -1.83 -0.950781 L -1.82 -0.949844 L -1.79 -0.946797 L -1.77 -0.944688 L -1.75 -0.9425 L -1.73 -0.940234 L -1.72 -0.939062 L -1.7 -0.936641 L -1.68 -0.934141 L -1.66 -0.931563 L -1.65 -0.930234 L -1.64 -0.928867 L -1.62 -0.926055 L -1.6 -0.923164 L -1.59 -0.92168 L -1.58 -0.920156 L -1.56 -0.917031 L -1.55 -0.91543 L -1.54 -0.913789 L -1.52 -0.91043 L -1.51 -0.908711 L -1.5 -0.906953 L -1.49 -0.905156 L -1.47 -0.901484 L -1.45 -0.897656 L -1.44 -0.895703 L -1.43 -0.893711 L -1.42 -0.89168 L -1.41 -0.889609 L -1.4 -0.8875 L -1.39 -0.885352 L -1.38 -0.883164 L -1.36 -0.878711 L -1.35 -0.876406 L -1.34 -0.874062 L -1.33 -0.87168 L -1.32 -0.869258 L -1.31 -0.866797 L -1.29 -0.861719 L -1.28 -0.859141 L -1.27 -0.856484 L -1.26 -0.853789 L -1.25 -0.851055 L -1.24 -0.848281 L -1.23 -0.845469 L -1.22 -0.842578 L -1.21 -0.839648 L -1.2 -0.83668 L -1.19 -0.833672 L -1.18 -0.830586 L -1.17 -0.827461 L -1.15 -0.821055 L -1.14 -0.817773 L -1.13 -0.814414 L -1.12 -0.811016 L -1.11 -0.807578 L -1.1 -0.804063 L -1.09 -0.800508 L -1.08 -0.796875 L -1.07 -0.793203 L -1.06 -0.789453 L -1.05 -0.785664 L -1.04 -0.781797 L -1.03 -0.777891 L -1.02 -0.773906 L -1.01 -0.769883 L -1 -0.765781 L -0.99 -0.761602 L -0.98 -0.757344 L -0.97 -0.753047 L -0.96 -0.748711 L -0.95 -0.744258 L -0.94 -0.739766 L -0.93 -0.735234 L -0.92 -0.730586 L -0.91 -0.725898 L -0.9 -0.721133 L -0.89 -0.716289 L -0.88 -0.711406 L -0.87 -0.706406 L -0.86 -0.701367 L -0.85 -0.69625 L -0.84 -0.691055 L -0.83 -0.68582 L -0.82 -0.680469 L -0.81 -0.675078 L -0.8 -0.669609 L -0.79 -0.664023 L -0.78 -0.658398 L -0.77 -0.652695 L -0.76 -0.646914 L -0.75 -0.641094 L -0.74 -0.635156 L -0.73 -0.629141 L -0.72 -0.623047 L -0.71 -0.616914 L -0.7 -0.610664 L -0.69 -0.604375 L -0.68 -0.597969 L -0.67 -0.591523 L -0.66 -0.584961 L -0.65 -0.578359 L -0.64 -0.57168 L -0.63 -0.564883 L -0.62 -0.558047 L -0.61 -0.551133 L -0.6 -0.544141 L -0.59 -0.537031 L -0.58 -0.529883 L -0.57 -0.522656 L -0.56 -0.515352 L -0.55 -0.507969 L -0.54 -0.500508 L -0.53 -0.492969 L -0.52 -0.485391 L -0.51 -0.477695 L -0.5 -0.469961 L -0.49 -0.462109 L -0.48 -0.454219 L -0.47 -0.44625 L -0.46 -0.438203 L -0.45 -0.430078 L -0.44 -0.421914 L -0.43 -0.413633 L -0.42 -0.405312 L -0.41 -0.396914 L -0.4 -0.388477 L -0.39 -0.379961 L -0.38 -0.371367 L -0.37 -0.362695 L -0.36 -0.353984 L -0.35 -0.345195 L -0.34 -0.336367 L -0.33 -0.327461 L -0.32 -0.318516 L -0.31 -0.309492 L -0.3 -0.30043 L -0.29 -0.291328 L -0.28 -0.282148 L -0.26 -0.263633 L -0.25 -0.254297 L -0.24 -0.244922 L -0.23 -0.235508 L -0.21 -0.216523 L -0.19 -0.197383 L -0.17 -0.178086 L -0.16 -0.168398 L -0.13 -0.139102 L -0.1 -0.10957 L -0.09 -0.0996875 L -0.07 -0.0798438 L -0.04 -0.0499609 L -0.03 -0.0399609 L -0.02 -0.03 L 0.01 0 L 0.52 0 L 0.55 0.03 L 0.56 0.0399609 L 0.57 0.0499609 L 0.6 0.0798437 L 0.62 0.0996875 L 0.63 0.10957 L 0.66 0.139102 L 0.69 0.168398 L 0.7 0.178086 L 0.72 0.197383 L 0.74 0.216523 L 0.76 0.235508 L 0.77 0.244922 L 0.78 0.254297 L 0.79 0.263633 L 0.81 0.282148 L 0.82 0.291328 L 0.83 0.30043 L 0.84 0.309492 L 0.85 0.318516 L 0.86 0.327461 L 0.87 0.336367 L 0.88 0.345195 L 0.89 0.353984 L 0.9 0.362695 L 0.91 0.371367 L 0.92 0.379961 L 0.93 0.388477 L 0.94 0.396914 L 0.95 0.405312 L 0.96 0.413633 L 0.97 0.421914 L 0.98 0.430078 L 0.99 0.438203 L 1 0.44625 L 1.01 0.454219 L 1.02 0.462109 L 1.03 0.469961 L 1.04 0.477695 L 1.05 0.485391 L 1.06 0.492969 L 1.07 0.500508 L 1.08 0.507969 L 1.09 0.515352 L 1.1 0.522656 L 1.11 0.529883 L 1.12 0.537031 L 1.13 0.544141 L 1.14 0.551133 L 1.15 0.558047 L 1.16 0.564883 L 1.17 0.57168 L 1.18 0.578359 L 1.19 0.584961 L 1.2 0.591523 L 1.21 0.597969 L 1.22 0.604375 L 1.23 0.610664 L 1.24 0.616914 L 1.25 0.623047 L 1.26 0.629141 L 1.27 0.635156 L 1.28 0.641094 L 1.29 0.646914 L 1.3 0.652695 L 1.31 0.658398 L 1.32 0.664023 L 1.33 0.669609 L 1.34 0.675078 L 1.35 0.680469 L 1.36 0.68582 L 1.37 0.691055 L 1.38 0.69625 L 1.39 0.701367 L 1.4 0.706406 L 1.41 0.711406 L 1.42 0.716289 L 1.43 0.721133 L 1.44 0.725898 L 1.45 0.730586 L 1.46 0.735234 L 1.47 0.739766 L 1.48 0.744258 L 1.49 0.748711 L 1.5 0.753047 L 1.51 0.757344 L 1.52 0.761602 L 1.53 0.765781 L 1.54 0.769883 L 1.55 0.773906 L 1.56 0.777891 L 1.57 0.781797 L 1.58 0.785664 L 1.59 0.789453 L 1.6 0.793203 L 1.61 0.796875 L 1.62 0.800508 L 1.63 0.804062 L 1.64 0.807578 L 1.65 0.811016 L 1.66 0.814414 L 1.67 0.817773 L 1.68 0.821055 L 1.7 0.827461 L 1.71 0.830586 L 1.72 0.833672 L 1.73 0.83668 L 1.74 0.839648 L 1.75 0.842578 L 1.76 0.845469 L 1.77 0.848281 L 1.78 0.851055 L 1.79 0.853789 L 1.8 0.856484 L 1.81 0.859141 L 1.82 0.861719 L 1.84 0.866797 L 1.85 0.869258 L 1.86 0.87168 L 1.87 0.874062 L 1.88 0.876406 L 1.89 0.878711 L 1.91 0.883164 L 1.92 0.885352 L 1.93 0.8875 L 1.94 0.889609 L 1.95 0.89168 L 1.96 0.893711 L 1.97 0.895703 L 1.98 0.897656 L 2 0.901484 L 2.02 0.905156 L 2.03 0.906953 L 2.04 0.908711 L 2.05 0.91043 L 2.07 0.913789 L 2.08 0.91543 L 2.09 0.917031 L 2.11 0.920156 L 2.12 0.92168 L 2.13 0.923164 L 2.15 0.926055 L 2.17 0.928867 L 2.18 0.930234 L 2.19 0.931563 L 2.21 0.934141 L 2.23 0.936641 L 2.25 0.939062 L 2.26 0.940234 L 2.28 0.9425 L 2.3 0.944687 L 2.32 0.946797 L 2.35 0.949844 L 2.36 0.950781 L 2.37 0.951758 L 2.38 0.952695 L 2.41 0.955391 L 2.42 0.95625 L 2.43 0.95707 L 2.44 0.95793 L 2.45 0.95875 L 2.48 0.961094 L 2.51 0.96332 L 2.54 0.96543 L 2.56 0.966758 L 2.57 0.967383 L 2.58 0.968047 L 2.59 0.968672 L 2.6 0.969258 L 2.61 0.969883 L 2.62 0.970469 L 2.63 0.971016 L 2.64 0.971602 L 2.67 0.973242 L 2.71 0.975273 L 2.75 0.977148 L 2.8 0.979297 L 2.85 0.98125 L 2.86 0.981602 L 2.87 0.981992 L 2.88 0.982344 L 2.89 0.982656 L 2.91 0.983359 L 2.97 0.985234 L 3.04 0.987148 L 3.05 0.987383 L 3.06 0.987656 L 3.1 0.988594 L 3.11 0.988789 L 3.13 0.989258 L 3.15 0.989648 L 3.16 0.989883 L 3.19 0.990469 L 3.2 0.990625 L 3.22 0.991016 L 3.23 0.991172 L 3.24 0.991367 L 3.26 0.99168 L 3.27 0.991875 L 3.31 0.9925 L 3.32 0.992617 L 3.34 0.99293 L 3.35 0.993047 L 3.36 0.993203 L 3.37 0.99332 L 3.38 0.993477 L 3.42 0.993945 L 3.43 0.994102 L 3.44 0.99418 L 3.49 0.994766 L 3.5 0.994844 L 3.51 0.994961 L 3.52 0.995039 L 3.53 0.995156 L 3.54 0.995234 L 3.55 0.995352 L 3.57 0.995508 L 3.58 0.995625 L 3.7 0.996563 L 3.71 0.996602 L 3.73 0.996758 L 3.74 0.996797 L 3.76 0.996953 L 3.77 0.996992 L 3.78 0.99707 L 3.79 0.997109 L 3.8 0.997187 L 3.82 0.997266 L 3.83 0.997344 L 3.85 0.997422 L 3.86 0.9975 L 3.88 0.997578 L 3.89 0.997656 L 4.08 0.998398 L 4.09 0.998398 L 4.13 0.998555 L 4.14 0.998555 L 4.16 0.998633 L 4.17 0.998633 L 4.19 0.998711 L 4.2 0.998711 L 4.22 0.998789 L 4.23 0.998789 L 4.25 0.998867 L 4.26 0.998867 L 4.27 0.998906 L 4.28 0.998906 L 4.29 0.998945 L 4.3 0.998945 L 4.31 0.998984 L 4.32 0.998984 L 4.33 0.999023 L 4.34 0.999023 L 4.35 0.999062 L 4.36 0.999062 L 4.37 0.999102 L 4.38 0.999102 L 4.39 0.999141 L 4.4 0.999141 L 4.41 0.99918 L 4.43 0.99918 L 4.44 0.999219 L 4.45 0.999219 L 4.46 0.999258 L 4.48 0.999258 L 4.49 0.999297 L 4.51 0.999297 L 4.52 0.999336 L 4.53 0.999336 L 4.54 0.999375 L 4.57 0.999375 L 4.58 0.999414 L 4.6 0.999414 L 4.61 0.999453 L 4.64 0.999453 L 4.65 0.999492 L 4.67 0.999492 L 4.68 0.999531 L 4.72 0.999531 L 4.73 0.99957 L 4.76 0.99957 L 4.77 0.999609 L 4.81 0.999609 L 4.82 0.999648 L 4.87 0.999648 L 4.88 0.999688 L 4.93 0.999688 L 4.94 0.999727 L 5 0.999727 " transform="matrix(100,0,0,-100,500,200)"/>
<path style="fill:none;stroke-width:0.03;stroke-linecap:butt;stroke-linejoin:miter;stroke:rgb(87.058824%,29.803922%,71.764706%);stroke-opacity:0.75;stroke-miterlimit:10;" d="M -5 -0.999922 L -4.96 -0.999922 L -4.95 -0.999883 L -4.79 -0.999883 L -4.78 -0.999844 L -4.66 -0.999844 L -4.65 -0.999805 L -4.56 -0.999805 L -4.55 -0.999766 L -4.48 -0.999766 L -4.47 -0.999727 L -4.41 -0.999727 L -4.4 -0.999688 L -4.35 -0.999688 L -4.34 -0.999648 L -4.29 -0.999648 L -4.28 -0.999609 L -4.24 -0.999609 L -4.23 -0.99957 L -4.2 -0.99957 L -4.19 -0.999531 L -4.15 -0.999531 L -4.14 -0.999492 L -4.12 -0.999492 L -4.11 -0.999453 L -4.08 -0.999453 L -4.07 -0.999414 L -4.05 -0.999414 L -4.04 -0.999375 L -4.01 -0.999375 L -4 -0.999336 L -3.99 -0.999336 L -3.98 -0.999297 L -3.96 -0.999297 L -3.95 -0.999258 L -3.93 -0.999258 L -3.92 -0.999219 L -3.91 -0.999219 L -3.9 -0.99918 L -3.88 -0.99918 L -3.87 -0.999141 L -3.86 -0.999141 L -3.85 -0.999102 L -3.84 -0.999102 L -3.83 -0.999062 L -3.82 -0.999062 L -3.81 -0.999023 L -3.8 -0.999023 L -3.79 -0.998984 L -3.78 -0.998984 L -3.77 -0.998945 L -3.76 -0.998945 L -3.75 -0.998906 L -3.74 -0.998906 L -3.73 -0.998867 L -3.72 -0.998867 L -3.7 -0.998789 L -3.69 -0.998789 L -3.67 -0.998711 L -3.66 -0.998711 L -3.64 -0.998633 L -3.63 -0.998633 L -3.61 -0.998555 L -3.6 -0.998555 L -3.56 -0.998398 L -3.55 -0.998398 L -3.36 -0.997656 L -3.35 -0.997578 L -3.33 -0.9975 L -3.32 -0.997422 L -3.3 -0.997344 L -3.29 -0.997266 L -3.27 -0.997187 L -3.26 -0.997109 L -3.25 -0.99707 L -3.24 -0.996992 L -3.23 -0.996953 L -3.21 -0.996797 L -3.2 -0.996758 L -3.18 -0.996602 L -3.17 -0.996563 L -3.05 -0.995625 L -3.04 -0.995508 L -3.02 -0.995352 L -3.01 -0.995234 L -3 -0.995156 L -2.99 -0.995039 L -2.98 -0.994961 L -2.97 -0.994844 L -2.96 -0.994766 L -2.91 -0.99418 L -2.9 -0.994102 L -2.89 -0.993945 L -2.85 -0.993477 L -2.84 -0.99332 L -2.83 -0.993203 L -2.82 -0.993047 L -2.81 -0.99293 L -2.79 -0.992617 L -2.78 -0.9925 L -2.74 -0.991875 L -2.73 -0.99168 L -2.71 -0.991367 L -2.7 -0.991172 L -2.69 -0.991016 L -2.67 -0.990625 L -2.66 -0.990469 L -2.63 -0.989883 L -2.62 -0.989648 L -2.6 -0.989258 L -2.58 -0.988789 L -2.57 -0.988594 L -2.53 -0.987656 L -2.52 -0.987383 L -2.51 -0.987148 L -2.44 -0.985234 L -2.38 -0.983359 L -2.36 -0.982656 L -2.35 -0.982344 L -2.34 -0.981992 L -2.33 -0.981602 L -2.32 -0.98125 L -2.27 -0.979297 L -2.22 -0.977148 L -2.18 -0.975273 L -2.14 -0.973242 L -2.11 -0.971602 L -2.1 -0.971016 L -2.09 -0.970469 L -2.08 -0.969883 L -2.07 -0.969258 L -2.06 -0.968672 L -2.05 -0.968047 L -2.04 -0.967383 L -2.03 -0.966758 L -2.01 -0.96543 L -1.98 -0.96332 L -1.95 -0.961094 L -1.92 -0.95875 L -1.91 -0.95793 L -1.9 -0.95707 L -1.89 -0.95625 L -1.88 -0.955391 L -1.85 -0.952695 L -1.84 -0.951758 L -1.83 -0.950781 L -1.82 -0.949844 L -1.79 -0.946797 L -1.77 -0.944688 L -1.75 -0.9425 L -1.73 -0.940234 L -1.72 -0.939062 L -1.7 -0.936641 L -1.68 -0.934141 L -1.66 -0.931563 L -1.65 -0.930234 L -1.64 -0.928867 L -1.62 -0.926055 L -1.6 -0.923164 L -1.59 -0.92168 L -1.58 -0.920156 L -1.56 -0.917031 L -1.55 -0.91543 L -1.54 -0.913789 L -1.52 -0.91043 L -1.51 -0.908711 L -1.5 -0.906953 L -1.49 -0.905156 L -1.47 -0.901484 L -1.45 -0.897656 L -1.44 -0.895703 L -1.43 -0.893711 L -1.42 -0.89168 L -1.41 -0.889609 L -1.4 -0.8875 L -1.39 -0.885352 L -1.38 -0.883164 L -1.36 -0.878711 L -1.35 -0.876406 L -1.34 -0.874062 L -1.33 -0.87168 L -1.32 -0.869258 L -1.31 -0.866797 L -1.29 -0.861719 L -1.28 -0.859141 L -1.27 -0.856484 L -1.26 -0.853789 L -1.25 -0.851055 L -1.24 -0.848281 L -1.23 -0.845469 L -1.22 -0.842578 L -1.21 -0.839648 L -1.2 -0.83668 L -1.19 -0.833672 L -1.18 -0.830586 L -1.17 -0.827461 L -1.15 -0.821055 L -1.14 -0.817773 L -1.13 -0.814414 L -1.12 -0.811016 L -1.11 -0.807578 L -1.1 -0.804063 L -1.09 -0.800508 L -1.08 -0.796875 L -1.07 -0.793203 L -1.06 -0.789453 L -1.05 -0.785664 L -1.04 -0.781797 L -1.03 -0.777891 L -1.02 -0.773906 L -1.01 -0.769883 L -1 -0.765781 L -0.99 -0.761602 L -0.98 -0.757344 L -0.97 -0.753047 L -0.96 -0.748711 L -0.95 -0.744258 L -0.94 -0.739766 L -0.93 -0.735234 L -0.92 -0.730586 L -0.91 -0.725898 L -0.9 -0.721133 L -0.89 -0.716289 L -0.88 -0.711406 L -0.87 -0.706406 L -0.86 -0.701367 L -0.85 -0.69625 L -0.84 -0.691055 L -0.83 -0.68582 L -0.82 -0.680469 L -0.81 -0.675078 L -0.8 -0.669609 L -0.79 -0.664023 L -0.78 -0.658398 L -0.77 -0.652695 L -0.76 -0.646914 L -0.75 -0.641094 L -0.74 -0.635156 L -0.73 -0.629141 L -0.72 -0.623047 L -0.71 -0.616914 L -0.7 -0.610664 L -0.69 -0.604375 L -0.68 -0.597969 L -0.67 -0.591523 L -0.66 -0.584961 L -0.65 -0.578359 L -0.64 -0.57168 L -0.63 -0.564883 L -0.62 -0.558047 L -0.61 -0.551133 L -0.6 -0.544141 L -0.59 -0.537031 L -0.58 -0.529883 L -0.57 -0.522656 L -0.56 -0.515352 L -0.55 -0.507969 L -0.54 -0.500508 L -0.53 -0.492969 L -0.52 -0.485391 L -0.51 -0.477695 L -0.5 -0.469961 L -0.49 -0.462109 L -0.48 -0.454219 L -0.47 -0.44625 L -0.46 -0.438203 L -0.45 -0.430078 L -0.44 -0.421914 L -0.43 -0.413633 L -0.42 -0.405312 L -0.41 -0.396914 L -0.4 -0.388477 L -0.39 -0.379961 L -0.38 -0.371367 L -0.37 -0.362695 L -0.36 -0.353984 L -0.35 -0.345195 L -0.34 -0.336367 L -0.33 -0.327461 L -0.32 -0.318516 L -0.31 -0.309492 L -0.3 -0.30043 L -0.29 -0.291328 L -0.28 -0.282148 L -0.26 -0.263633 L -0.25 -0.254297 L -0.24 -0.244922 L -0.23 -0.235508 L -0.21 -0.216523 L -0.19 -0.197383 L -0.17 -0.178086 L -0.16 -0.168398 L -0.13 -0.139102 L -0.1 -0.10957 L -0.09 -0.0996875 L -0.07 -0.0798438 L -0.04 -0.0499609 L -0.03 -0.0399609 L -0.02 -0.03 L 0.01 0 L 0.51 0 L 0.52 0.318516 L 0.53 0.327461 L 0.54 0.336367 L 0.55 0.345195 L 0.56 0.353984 L 0.57 0.362695 L 0.58 0.371367 L 0.59 0.379961 L 0.6 0.388477 L 0.61 0.396914 L 0.62 0.405312 L 0.63 0.413633 L 0.64 0.421914 L 0.65 0.430078 L 0.66 0.438203 L 0.67 0.44625 L 0.68 0.454219 L 0.69 0.462109 L 0.7 0.469961 L 0.71 0.477695 L 0.72 0.485391 L 0.73 0.492969 L 0.74 0.500508 L 0.75 0.507969 L 0.76 0.515352 L 0.77 0.522656 L 0.78 0.529883 L 0.79 0.537031 L 0.8 0.544141 L 0.81 0.551133 L 0.82 0.558047 L 0.83 0.564883 L 0.84 0.57168 L 0.85 0.578359 L 0.86 0.584961 L 0.87 0.591523 L 0.88 0.597969 L 0.89 0.604375 L 0.9 0.610664 L 0.91 0.616914 L 0.92 0.623047 L 0.93 0.629141 L 0.94 0.635156 L 0.95 0.641094 L 0.96 0.646914 L 0.97 0.652695 L 0.98 0.658398 L 0.99 0.664023 L 1 0.669609 L 1.01 0.675078 L 1.02 0.680469 L 1.03 0.68582 L 1.04 0.691055 L 1.05 0.69625 L 1.06 0.701367 L 1.07 0.706406 L 1.08 0.711406 L 1.09 0.716289 L 1.1 0.721133 L 1.11 0.725898 L 1.12 0.730586 L 1.13 0.735234 L 1.14 0.739766 L 1.15 0.744258 L 1.16 0.748711 L 1.17 0.753047 L 1.18 0.757344 L 1.19 0.761602 L 1.2 0.765781 L 1.21 0.769883 L 1.22 0.773906 L 1.23 0.777891 L 1.24 0.781797 L 1.25 0.785664 L 1.26 0.789453 L 1.27 0.793203 L 1.28 0.796875 L 1.29 0.800508 L 1.3 0.804062 L 1.31 0.807578 L 1.32 0.811016 L 1.33 0.814414 L 1.34 0.817773 L 1.35 0.821055 L 1.37 0.827461 L 1.38 0.830586 L 1.39 0.833672 L 1.4 0.83668 L 1.41 0.839648 L 1.42 0.842578 L 1.43 0.845469 L 1.44 0.848281 L 1.45 0.851055 L 1.46 0.853789 L 1.47 0.856484 L 1.48 0.859141 L 1.49 0.861719 L 1.51 0.866797 L 1.52 0.869258 L 1.53 0.87168 L 1.54 0.874062 L 1.55 0.876406 L 1.56 0.878711 L 1.58 0.883164 L 1.59 0.885352 L 1.6 0.8875 L 1.61 0.889609 L 1.62 0.89168 L 1.63 0.893711 L 1.64 0.895703 L 1.65 0.897656 L 1.67 0.901484 L 1.69 0.905156 L 1.7 0.906953 L 1.71 0.908711 L 1.72 0.91043 L 1.74 0.913789 L 1.75 0.91543 L 1.76 0.917031 L 1.78 0.920156 L 1.79 0.92168 L 1.8 0.923164 L 1.82 0.926055 L 1.84 0.928867 L 1.85 0.930234 L 1.86 0.931563 L 1.88 0.934141 L 1.9 0.936641 L 1.92 0.939062 L 1.93 0.940234 L 1.95 0.9425 L 1.97 0.944687 L 1.99 0.946797 L 2.02 0.949844 L 2.03 0.950781 L 2.04 0.951758 L 2.05 0.952695 L 2.08 0.955391 L 2.09 0.95625 L 2.1 0.95707 L 2.11 0.95793 L 2.12 0.95875 L 2.15 0.961094 L 2.18 0.96332 L 2.21 0.96543 L 2.23 0.966758 L 2.24 0.967383 L 2.25 0.968047 L 2.26 0.968672 L 2.27 0.969258 L 2.28 0.969883 L 2.29 0.970469 L 2.3 0.971016 L 2.31 0.971602 L 2.34 0.973242 L 2.38 0.975273 L 2.42 0.977148 L 2.47 0.979297 L 2.52 0.98125 L 2.53 0.981602 L 2.54 0.981992 L 2.55 0.982344 L 2.56 0.982656 L 2.58 0.983359 L 2.64 0.985234 L 2.71 0.987148 L 2.72 0.987383 L 2.73 0.987656 L 2.77 0.988594 L 2.78 0.988789 L 2.8 0.989258 L 2.82 0.989648 L 2.83 0.989883 L 2.86 0.990469 L 2.87 0.990625 L 2.89 0.991016 L 2.9 0.991172 L 2.91 0.991367 L 2.93 0.99168 L 2.94 0.991875 L 2.98 0.9925 L 2.99 0.992617 L 3.01 0.99293 L 3.02 0.993047 L 3.03 0.993203 L 3.04 0.99332 L 3.05 0.993477 L 3.09 0.993945 L 3.1 0.994102 L 3.11 0.99418 L 3.16 0.994766 L 3.17 0.994844 L 3.18 0.994961 L 3.19 0.995039 L 3.2 0.995156 L 3.21 0.995234 L 3.22 0.995352 L 3.24 0.995508 L 3.25 0.995625 L 3.37 0.996563 L 3.38 0.996602 L 3.4 0.996758 L 3.41 0.996797 L 3.43 0.996953 L 3.44 0.996992 L 3.45 0.99707 L 3.46 0.997109 L 3.47 0.997187 L 3.49 0.997266 L 3.5 0.997344 L 3.52 0.997422 L 3.53 0.9975 L 3.55 0.997578 L 3.56 0.997656 L 3.75 0.998398 L 3.76 0.998398 L 3.8 0.998555 L 3.81 0.998555 L 3.83 0.998633 L 3.84 0.998633 L 3.86 0.998711 L 3.87 0.998711 L 3.89 0.998789 L 3.9 0.998789 L 3.92 0.998867 L 3.93 0.998867 L 3.94 0.998906 L 3.95 0.998906 L 3.96 0.998945 L 3.97 0.998945 L 3.98 0.998984 L 3.99 0.998984 L 4 0.999023 L 4.01 0.999023 L 4.02 0.999062 L 4.03 0.999062 L 4.04 0.999102 L 4.05 0.999102 L 4.06 0.999141 L 4.07 0.999141 L 4.08 0.99918 L 4.1 0.99918 L 4.11 0.999219 L 4.12 0.999219 L 4.13 0.999258 L 4.15 0.999258 L 4.16 0.999297 L 4.18 0.999297 L 4.19 0.999336 L 4.2 0.999336 L 4.21 0.999375 L 4.24 0.999375 L 4.25 0.999414 L 4.27 0.999414 L 4.28 0.999453 L 4.31 0.999453 L 4.32 0.999492 L 4.34 0.999492 L 4.35 0.999531 L 4.39 0.999531 L 4.4 0.99957 L 4.43 0.99957 L 4.44 0.999609 L 4.48 0.999609 L 4.49 0.999648 L 4.54 0.999648 L 4.55 0.999688 L 4.6 0.999688 L 4.61 0.999727 L 4.67 0.999727 L 4.68 0.999766 L 4.75 0.999766 L 4.76 0.999805 L 4.85 0.999805 L 4.86 0.999844 L 4.98 0.999844 L 4.99 0.999883 L 5 0.999883 " transform="matrix(100,0,0,-100,500,200)"/>
<path style="fill:none;stroke-width:0.03;stroke-linecap:butt;stroke-linejoin:miter;stroke:rgb(87.058824%,29.803922%,71.764706%);stroke-opacity:0.5;stroke-miterlimit:10;" d="M -5 -0.999922 L -4.96 -0.999922 L -4.95 -0.999883 L -4.79 -0.999883 L -4.78 -0.999844 L -4.66 -0.999844 L -4.65 -0.999805 L -4.56 -0.999805 L -4.55 -0.999766 L -4.48 -0.999766 L -4.47 -0.999727 L -4.41 -0.999727 L -4.4 -0.999688 L -4.35 -0.999688 L -4.34 -0.999648 L -4.29 -0.999648 L -4.28 -0.999609 L -4.24 -0.999609 L -4.23 -0.99957 L -4.2 -0.99957 L -4.19 -0.999531 L -4.15 -0.999531 L -4.14 -0.999492 L -4.12 -0.999492 L -4.11 -0.999453 L -4.08 -0.999453 L -4.07 -0.999414 L -4.05 -0.999414 L -4.04 -0.999375 L -4.01 -0.999375 L -4 -0.999336 L -3.99 -0.999336 L -3.98 -0.999297 L -3.96 -0.999297 L -3.95 -0.999258 L -3.93 -0.999258 L -3.92 -0.999219 L -3.91 -0.999219 L -3.9 -0.99918 L -3.88 -0.99918 L -3.87 -0.999141 L -3.86 -0.999141 L -3.85 -0.999102 L -3.84 -0.999102 L -3.83 -0.999062 L -3.82 -0.999062 L -3.81 -0.999023 L -3.8 -0.999023 L -3.79 -0.998984 L -3.78 -0.998984 L -3.77 -0.998945 L -3.76 -0.998945 L -3.75 -0.998906 L -3.74 -0.998906 L -3.73 -0.998867 L -3.72 -0.998867 L -3.7 -0.998789 L -3.69 -0.998789 L -3.67 -0.998711 L -3.66 -0.998711 L -3.64 -0.998633 L -3.63 -0.998633 L -3.61 -0.998555 L -3.6 -0.998555 L -3.56 -0.998398 L -3.55 -0.998398 L -3.36 -0.997656 L -3.35 -0.997578 L -3.33 -0.9975 L -3.32 -0.997422 L -3.3 -0.997344 L -3.29 -0.997266 L -3.27 -0.997187 L -3.26 -0.997109 L -3.25 -0.99707 L -3.24 -0.996992 L -3.23 -0.996953 L -3.21 -0.996797 L -3.2 -0.996758 L -3.18 -0.996602 L -3.17 -0.996563 L -3.05 -0.995625 L -3.04 -0.995508 L -3.02 -0.995352 L -3.01 -0.995234 L -3 -0.995156 L -2.99 -0.995039 L -2.98 -0.994961 L -2.97 -0.994844 L -2.96 -0.994766 L -2.91 -0.99418 L -2.9 -0.994102 L -2.89 -0.993945 L -2.85 -0.993477 L -2.84 -0.99332 L -2.83 -0.993203 L -2.82 -0.993047 L -2.81 -0.99293 L -2.79 -0.992617 L -2.78 -0.9925 L -2.74 -0.991875 L -2.73 -0.99168 L -2.71 -0.991367 L -2.7 -0.991172 L -2.69 -0.991016 L -2.67 -0.990625 L -2.66 -0.990469 L -2.63 -0.989883 L -2.62 -0.989648 L -2.6 -0.989258 L -2.58 -0.988789 L -2.57 -0.988594 L -2.53 -0.987656 L -2.52 -0.987383 L -2.51 -0.987148 L -2.44 -0.985234 L -2.38 -0.983359 L -2.36 -0.982656 L -2.35 -0.982344 L -2.34 -0.981992 L -2.33 -0.981602 L -2.32 -0.98125 L -2.27 -0.979297 L -2.22 -0.977148 L -2.18 -0.975273 L -2.14 -0.973242 L -2.11 -0.971602 L -2.1 -0.971016 L -2.09 -0.970469 L -2.08 -0.969883 L -2.07 -0.969258 L -2.06 -0.968672 L -2.05 -0.968047 L -2.04 -0.967383 L -2.03 -0.966758 L -2.01 -0.96543 L -1.98 -0.96332 L -1.95 -0.961094 L -1.92 -0.95875 L -1.91 -0.95793 L -1.9 -0.95707 L -1.89 -0.95625 L -1.88 -0.955391 L -1.85 -0.952695 L -1.84 -0.951758 L -1.83 -0.950781 L -1.82 -0.949844 L -1.79 -0.946797 L -1.77 -0.944688 L -1.75 -0.9425 L -1.73 -0.940234 L -1.72 -0.939062 L -1.7 -0.936641 L -1.68 -0.934141 L -1.66 -0.931563 L -1.65 -0.930234 L -1.64 -0.928867 L -1.62 -0.926055 L -1.6 -0.923164 L -1.59 -0.92168 L -1.58 -0.920156 L -1.56 -0.917031 L -1.55 -0.91543 L -1.54 -0.913789 L -1.52 -0.91043 L -1.51 -0.908711 L -1.5 -0.906953 L -1.49 -0.905156 L -1.47 -0.901484 L -1.45 -0.897656 L -1.44 -0.895703 L -1.43 -0.893711 L -1.42 -0.89168 L -1.41 -0.889609 L -1.4 -0.8875 L -1.39 -0.885352 L -1.38 -0.883164 L -1.36 -0.878711 L -1.35 -0.876406 L -1.34 -0.874062 L -1.33 -0.87168 L -1.32 -0.869258 L -1.31 -0.866797 L -1.29 -0.861719 L -1.28 -0.859141 L -1.27 -0.856484 L -1.26 -0.853789 L -1.25 -0.851055 L -1.24 -0.848281 L -1.23 -0.845469 L -1.22 -0.842578 L -1.21 -0.839648 L -1.2 -0.83668 L -1.19 -0.833672 L -1.18 -0.830586 L -1.17 -0.827461 L -1.15 -0.821055 L -1.14 -0.817773 L -1.13 -0.814414 L -1.12 -0.811016 L -1.11 -0.807578 L -1.1 -0.804063 L -1.09 -0.800508 L -1.08 -0.796875 L -1.07 -0.793203 L -1.06 -0.789453 L -1.05 -0.785664 L -1.04 -0.781797 L -1.03 -0.777891 L -1.02 -0.773906 L -1.01 -0.769883 L -1 -0.765781 L -0.99 -0.761602 L -0.98 -0.757344 L -0.97 -0.753047 L -0.96 -0.748711 L -0.95 -0.744258 L -0.94 -0.739766 L -0.93 -0.735234 L -0.92 -0.730586 L -0.91 -0.725898 L -0.9 -0.721133 L -0.89 -0.716289 L -0.88 -0.711406 L -0.87 -0.706406 L -0.86 -0.701367 L -0.85 -0.69625 L -0.84 -0.691055 L -0.83 -0.68582 L -0.82 -0.680469 L -0.81 -0.675078 L -0.8 -0.669609 L -0.79 -0.664023 L -0.78 -0.658398 L -0.77 -0.652695 L -0.76 -0.646914 L -0.75 -0.641094 L -0.74 -0.635156 L -0.73 -0.629141 L -0.72 -0.623047 L -0.71 -0.616914 L -0.7 -0.610664 L -0.69 -0.604375 L -0.68 -0.597969 L -0.67 -0.591523 L -0.66 -0.584961 L -0.65 -0.578359 L -0.64 -0.57168 L -0.63 -0.564883 L -0.62 -0.558047 L -0.61 -0.551133 L -0.6 -0.544141 L -0.59 -0.537031 L -0.58 -0.529883 L -0.57 -0.522656 L -0.56 -0.515352 L -0.55 -0.507969 L -0.54 -0.500508 L -0.53 -0.492969 L -0.52 -0.485391 L -0.51 -0.477695 L -0.5 -0.469961 L -0.49 -0.462109 L -0.48 -0.454219 L -0.47 -0.44625 L -0.46 -0.438203 L -0.45 -0.430078 L -0.44 -0.421914 L -0.43 -0.413633 L -0.42 -0.405312 L -0.41 -0.396914 L -0.4 -0.388477 L -0.39 -0.379961 L -0.38 -0.371367 L -0.37 -0.362695 L -0.36 -0.353984 L -0.35 -0.345195 L -0.34 -0.336367 L -0.33 -0.327461 L -0.32 -0.318516 L -0.31 -0.309492 L -0.3 -0.30043 L -0.29 -0.291328 L -0.28 -0.282148 L -0.26 -0.263633 L -0.25 -0.254297 L -0.24 -0.244922 L -0.23 -0.235508 L -0.21 -0.216523 L -0.19 -0.197383 L -0.17 -0.178086 L -0.16 -0.168398 L -0.13 -0.139102 L -0.1 -0.10957 L -0.09 -0.0996875 L -0.07 -0.0798438 L -0.04 -0.0499609 L -0.03 -0.0399609 L -0.02 -0.03 L 0.01 0 L 0.35 0 L 0.36 0.462109 L 0.37 0.469961 L 0.38 0.477695 L 0.39 0.485391 L 0.4 0.492969 L 0.41 0.500508 L 0.42 0.507969 L 0.43 0.515352 L 0.44 0.522656 L 0.45 0.529883 L 0.46 0.537031 L 0.47 0.544141 L 0.48 0.551133 L 0.49 0.558047 L 0.5 0.564883 L 0.51 0.57168 L 0.52 0.578359 L 0.53 0.584961 L 0.54 0.591523 L 0.55 0.597969 L 0.56 0.604375 L 0.57 0.610664 L 0.58 0.616914 L 0.59 0.623047 L 0.6 0.629141 L 0.61 0.635156 L 0.62 0.641094 L 0.63 0.646914 L 0.64 0.652695 L 0.65 0.658398 L 0.66 0.664023 L 0.67 0.669609 L 0.68 0.675078 L 0.69 0.680469 L 0.7 0.68582 L 0.71 0.691055 L 0.72 0.69625 L 0.73 0.701367 L 0.74 0.706406 L 0.75 0.711406 L 0.76 0.716289 L 0.77 0.721133 L 0.78 0.725898 L 0.79 0.730586 L 0.8 0.735234 L 0.81 0.739766 L 0.82 0.744258 L 0.83 0.748711 L 0.84 0.753047 L 0.85 0.757344 L 0.86 0.761602 L 0.87 0.765781 L 0.88 0.769883 L 0.89 0.773906 L 0.9 0.777891 L 0.91 0.781797 L 0.92 0.785664 L 0.93 0.789453 L 0.94 0.793203 L 0.95 0.796875 L 0.96 0.800508 L 0.97 0.804062 L 0.98 0.807578 L 0.99 0.811016 L 1 0.814414 L 1.01 0.817773 L 1.02 0.821055 L 1.04 0.827461 L 1.05 0.830586 L 1.06 0.833672 L 1.07 0.83668 L 1.08 0.839648 L 1.09 0.842578 L 1.1 0.845469 L 1.11 0.848281 L 1.12 0.851055 L 1.13 0.853789 L 1.14 0.856484 L 1.15 0.859141 L 1.16 0.861719 L 1.18 0.866797 L 1.19 0.869258 L 1.2 0.87168 L 1.21 0.874062 L 1.22 0.876406 L 1.23 0.878711 L 1.25 0.883164 L 1.26 0.885352 L 1.27 0.8875 L 1.28 0.889609 L 1.29 0.89168 L 1.3 0.893711 L 1.31 0.895703 L 1.32 0.897656 L 1.34 0.901484 L 1.36 0.905156 L 1.37 0.906953 L 1.38 0.908711 L 1.39 0.91043 L 1.41 0.913789 L 1.42 0.91543 L 1.43 0.917031 L 1.45 0.920156 L 1.46 0.92168 L 1.47 0.923164 L 1.49 0.926055 L 1.51 0.928867 L 1.52 0.930234 L 1.53 0.931563 L 1.55 0.934141 L 1.57 0.936641 L 1.59 0.939062 L 1.6 0.940234 L 1.62 0.9425 L 1.64 0.944687 L 1.66 0.946797 L 1.69 0.949844 L 1.7 0.950781 L 1.71 0.951758 L 1.72 0.952695 L 1.75 0.955391 L 1.76 0.95625 L 1.77 0.95707 L 1.78 0.95793 L 1.79 0.95875 L 1.82 0.961094 L 1.85 0.96332 L 1.88 0.96543 L 1.9 0.966758 L 1.91 0.967383 L 1.92 0.968047 L 1.93 0.968672 L 1.94 0.969258 L 1.95 0.969883 L 1.96 0.970469 L 1.97 0.971016 L 1.98 0.971602 L 2.01 0.973242 L 2.05 0.975273 L 2.09 0.977148 L 2.14 0.979297 L 2.19 0.98125 L 2.2 0.981602 L 2.21 0.981992 L 2.22 0.982344 L 2.23 0.982656 L 2.25 0.983359 L 2.31 0.985234 L 2.38 0.987148 L 2.39 0.987383 L 2.4 0.987656 L 2.44 0.988594 L 2.45 0.988789 L 2.47 0.989258 L 2.49 0.989648 L 2.5 0.989883 L 2.53 0.990469 L 2.54 0.990625 L 2.56 0.991016 L 2.57 0.991172 L 2.58 0.991367 L 2.6 0.99168 L 2.61 0.991875 L 2.65 0.9925 L 2.66 0.992617 L 2.68 0.99293 L 2.69 0.993047 L 2.7 0.993203 L 2.71 0.99332 L 2.72 0.993477 L 2.76 0.993945 L 2.77 0.994102 L 2.78 0.99418 L 2.83 0.994766 L 2.84 0.994844 L 2.85 0.994961 L 2.86 0.995039 L 2.87 0.995156 L 2.88 0.995234 L 2.89 0.995352 L 2.91 0.995508 L 2.92 0.995625 L 3.04 0.996563 L 3.05 0.996602 L 3.07 0.996758 L 3.08 0.996797 L 3.1 0.996953 L 3.11 0.996992 L 3.12 0.99707 L 3.13 0.997109 L 3.14 0.997187 L 3.16 0.997266 L 3.17 0.997344 L 3.19 0.997422 L 3.2 0.9975 L 3.22 0.997578 L 3.23 0.997656 L 3.42 0.998398 L 3.43 0.998398 L 3.47 0.998555 L 3.48 0.998555 L 3.5 0.998633 L 3.51 0.998633 L 3.53 0.998711 L 3.54 0.998711 L 3.56 0.998789 L 3.57 0.998789 L 3.59 0.998867 L 3.6 0.998867 L 3.61 0.998906 L 3.62 0.998906 L 3.63 0.998945 L 3.64 0.998945 L 3.65 0.998984 L 3.66 0.998984 L 3.67 0.999023 L 3.68 0.999023 L 3.69 0.999062 L 3.7 0.999062 L 3.71 0.999102 L 3.72 0.999102 L 3.73 0.999141 L 3.74 0.999141 L 3.75 0.99918 L 3.77 0.99918 L 3.78 0.999219 L 3.79 0.999219 L 3.8 0.999258 L 3.82 0.999258 L 3.83 0.999297 L 3.85 0.999297 L 3.86 0.999336 L 3.87 0.999336 L 3.88 0.999375 L 3.91 0.999375 L 3.92 0.999414 L 3.94 0.999414 L 3.95 0.999453 L 3.98 0.999453 L 3.99 0.999492 L 4.01 0.999492 L 4.02 0.999531 L 4.06 0.999531 L 4.07 0.99957 L 4.1 0.99957 L 4.11 0.999609 L 4.15 0.999609 L 4.16 0.999648 L 4.21 0.999648 L 4.22 0.999688 L 4.27 0.999688 L 4.28 0.999727 L 4.34 0.999727 L 4.35 0.999766 L 4.42 0.999766 L 4.43 0.999805 L 4.52 0.999805 L 4.53 0.999844 L 4.65 0.999844 L 4.66 0.999883 L 4.82 0.999883 L 4.83 0.999922 L 5 0.999922 " transform="matrix(100,0,0,-100,500,200)"/>
<path style="fill:none;stroke-width:0.03;stroke-linecap:butt;stroke-linejoin:miter;stroke:rgb(87.058824%,29.803922%,71.764706%);stroke-opacity:0.25;stroke-miterlimit:10;" d="M -5 -0.999922 L -4.96 -0.999922 L -4.95 -0.999883 L -4.79 -0.999883 L -4.78 -0.999844 L -4.66 -0.999844 L -4.65 -0.999805 L -4.56 -0.999805 L -4.55 -0.999766 L -4.48 -0.999766 L -4.47 -0.999727 L -4.41 -0.999727 L -4.4 -0.999688 L -4.35 -0.999688 L -4.34 -0.999648 L -4.29 -0.999648 L -4.28 -0.999609 L -4.24 -0.999609 L -4.23 -0.99957 L -4.2 -0.99957 L -4.19 -0.999531 L -4.15 -0.999531 L -4.14 -0.999492 L -4.12 -0.999492 L -4.11 -0.999453 L -4.08 -0.999453 L -4.07 -0.999414 L -4.05 -0.999414 L -4.04 -0.999375 L -4.01 -0.999375 L -4 -0.999336 L -3.99 -0.999336 L -3.98 -0.999297 L -3.96 -0.999297 L -3.95 -0.999258 L -3.93 -0.999258 L -3.92 -0.999219 L -3.91 -0.999219 L -3.9 -0.99918 L -3.88 -0.99918 L -3.87 -0.999141 L -3.86 -0.999141 L -3.85 -0.999102 L -3.84 -0.999102 L -3.83 -0.999062 L -3.82 -0.999062 L -3.81 -0.999023 L -3.8 -0.999023 L -3.79 -0.998984 L -3.78 -0.998984 L -3.77 -0.998945 L -3.76 -0.998945 L -3.75 -0.998906 L -3.74 -0.998906 L -3.73 -0.998867 L -3.72 -0.998867 L -3.7 -0.998789 L -3.69 -0.998789 L -3.67 -0.998711 L -3.66 -0.998711 L -3.64 -0.998633 L -3.63 -0.998633 L -3.61 -0.998555 L -3.6 -0.998555 L -3.56 -0.998398 L -3.55 -0.998398 L -3.36 -0.997656 L -3.35 -0.997578 L -3.33 -0.9975 L -3.32 -0.997422 L -3.3 -0.997344 L -3.29 -0.997266 L -3.27 -0.997187 L -3.26 -0.997109 L -3.25 -0.99707 L -3.24 -0.996992 L -3.23 -0.996953 L -3.21 -0.996797 L -3.2 -0.996758 L -3.18 -0.996602 L -3.17 -0.996563 L -3.05 -0.995625 L -3.04 -0.995508 L -3.02 -0.995352 L -3.01 -0.995234 L -3 -0.995156 L -2.99 -0.995039 L -2.98 -0.994961 L -2.97 -0.994844 L -2.96 -0.994766 L -2.91 -0.99418 L -2.9 -0.994102 L -2.89 -0.993945 L -2.85 -0.993477 L -2.84 -0.99332 L -2.83 -0.993203 L -2.82 -0.993047 L -2.81 -0.99293 L -2.79 -0.992617 L -2.78 -0.9925 L -2.74 -0.991875 L -2.73 -0.99168 L -2.71 -0.991367 L -2.7 -0.991172 L -2.69 -0.991016 L -2.67 -0.990625 L -2.66 -0.990469 L -2.63 -0.989883 L -2.62 -0.989648 L -2.6 -0.989258 L -2.58 -0.988789 L -2.57 -0.988594 L -2.53 -0.987656 L -2.52 -0.987383 L -2.51 -0.987148 L -2.44 -0.985234 L -2.38 -0.983359 L -2.36 -0.982656 L -2.35 -0.982344 L -2.34 -0.981992 L -2.33 -0.981602 L -2.32 -0.98125 L -2.27 -0.979297 L -2.22 -0.977148 L -2.18 -0.975273 L -2.14 -0.973242 L -2.11 -0.971602 L -2.1 -0.971016 L -2.09 -0.970469 L -2.08 -0.969883 L -2.07 -0.969258 L -2.06 -0.968672 L -2.05 -0.968047 L -2.04 -0.967383 L -2.03 -0.966758 L -2.01 -0.96543 L -1.98 -0.96332 L -1.95 -0.961094 L -1.92 -0.95875 L -1.91 -0.95793 L -1.9 -0.95707 L -1.89 -0.95625 L -1.88 -0.955391 L -1.85 -0.952695 L -1.84 -0.951758 L -1.83 -0.950781 L -1.82 -0.949844 L -1.79 -0.946797 L -1.77 -0.944688 L -1.75 -0.9425 L -1.73 -0.940234 L -1.72 -0.939062 L -1.7 -0.936641 L -1.68 -0.934141 L -1.66 -0.931563 L -1.65 -0.930234 L -1.64 -0.928867 L -1.62 -0.926055 L -1.6 -0.923164 L -1.59 -0.92168 L -1.58 -0.920156 L -1.56 -0.917031 L -1.55 -0.91543 L -1.54 -0.913789 L -1.52 -0.91043 L -1.51 -0.908711 L -1.5 -0.906953 L -1.49 -0.905156 L -1.47 -0.901484 L -1.45 -0.897656 L -1.44 -0.895703 L -1.43 -0.893711 L -1.42 -0.89168 L -1.41 -0.889609 L -1.4 -0.8875 L -1.39 -0.885352 L -1.38 -0.883164 L -1.36 -0.878711 L -1.35 -0.876406 L -1.34 -0.874062 L -1.33 -0.87168 L -1.32 -0.869258 L -1.31 -0.866797 L -1.29 -0.861719 L -1.28 -0.859141 L -1.27 -0.856484 L -1.26 -0.853789 L -1.25 -0.851055 L -1.24 -0.848281 L -1.23 -0.845469 L -1.22 -0.842578 L -1.21 -0.839648 L -1.2 -0.83668 L -1.19 -0.833672 L -1.18 -0.830586 L -1.17 -0.827461 L -1.15 -0.821055 L -1.14 -0.817773 L -1.13 -0.814414 L -1.12 -0.811016 L -1.11 -0.807578 L -1.1 -0.804063 L -1.09 -0.800508 L -1.08 -0.796875 L -1.07 -0.793203 L -1.06 -0.789453 L -1.05 -0.785664 L -1.04 -0.781797 L -1.03 -0.777891 L -1.02 -0.773906 L -1.01 -0.769883 L -1 -0.765781 L -0.99 -0.761602 L -0.98 -0.757344 L -0.97 -0.753047 L -0.96 -0.748711 L -0.95 -0.744258 L -0.94 -0.739766 L -0.93 -0.735234 L -0.92 -0.730586 L -0.91 -0.725898 L -0.9 -0.721133 L -0.89 -0.716289 L -0.88 -0.711406 L -0.87 -0.706406 L -0.86 -0.701367 L -0.85 -0.69625 L -0.84 -0.691055 L -0.83 -0.68582 L -0.82 -0.680469 L -0.81 -0.675078 L -0.8 -0.669609 L -0.79 -0.664023 L -0.78 -0.658398 L -0.77 -0.652695 L -0.76 -0.646914 L -0.75 -0.641094 L -0.74 -0.635156 L -0.73 -0.629141 L -0.72 -0.623047 L -0.71 -0.616914 L -0.7 -0.610664 L -0.69 -0.604375 L -0.68 -0.597969 L -0.67 -0.591523 L -0.66 -0.584961 L -0.65 -0.578359 L -0.64 -0.57168 L -0.63 -0.564883 L -0.62 -0.558047 L -0.61 -0.551133 L -0.6 -0.544141 L -0.59 -0.537031 L -0.58 -0.529883 L -0.57 -0.522656 L -0.56 -0.515352 L -0.55 -0.507969 L -0.54 -0.500508 L -0.53 -0.492969 L -0.52 -0.485391 L -0.51 -0.477695 L -0.5 -0.469961 L -0.49 -0.462109 L -0.48 -0.454219 L -0.47 -0.44625 L -0.46 -0.438203 L -0.45 -0.430078 L -0.44 -0.421914 L -0.43 -0.413633 L -0.42 -0.405312 L -0.41 -0.396914 L -0.4 -0.388477 L -0.39 -0.379961 L -0.38 -0.371367 L -0.37 -0.362695 L -0.36 -0.353984 L -0.35 -0.345195 L -0.34 -0.336367 L -0.33 -0.327461 L -0.32 -0.318516 L -0.31 -0.309492 L -0.3 -0.30043 L -0.29 -0.291328 L -0.28 -0.282148 L -0.26 -0.263633 L -0.25 -0.254297 L -0.24 -0.244922 L -0.23 -0.235508 L -0.21 -0.216523 L -0.19 -0.197383 L -0.17 -0.178086 L -0.16 -0.168398 L -0.13 -0.139102 L -0.1 -0.10957 L -0.09 -0.0996875 L -0.07 -0.0798438 L -0.04 -0.0499609 L -0.03 -0.0399609 L -0.02 -0.03 L 0.01 0 L 0.02 0.462109 L 0.03 0.469961 L 0.04 0.477695 L 0.05 0.485391 L 0.06 0.492969 L 0.07 0.500508 L 0.08 0.507969 L 0.09 0.515352 L 0.1 0.522656 L 0.11 0.529883 L 0.12 0.537031 L 0.13 0.544141 L 0.14 0.551133 L 0.15 0.558047 L 0.16 0.564883 L 0.17 0.57168 L 0.18 0.578359 L 0.19 0.584961 L 0.2 0.591523 L 0.21 0.597969 L 0.22 0.604375 L 0.23 0.610664 L 0.24 0.616914 L 0.25 0.623047 L 0.26 0.629141 L 0.27 0.635156 L 0.28 0.641094 L 0.29 0.646914 L 0.3 0.652695 L 0.31 0.658398 L 0.32 0.664023 L 0.33 0.669609 L 0.34 0.675078 L 0.35 0.680469 L 0.36 0.68582 L 0.37 0.691055 L 0.38 0.69625 L 0.39 0.701367 L 0.4 0.706406 L 0.41 0.711406 L 0.42 0.716289 L 0.43 0.721133 L 0.44 0.725898 L 0.45 0.730586 L 0.46 0.735234 L 0.47 0.739766 L 0.48 0.744258 L 0.49 0.748711 L 0.5 0.753047 L 0.51 0.757344 L 0.52 0.761602 L 0.53 0.765781 L 0.54 0.769883 L 0.55 0.773906 L 0.56 0.777891 L 0.57 0.781797 L 0.58 0.785664 L 0.59 0.789453 L 0.6 0.793203 L 0.61 0.796875 L 0.62 0.800508 L 0.63 0.804062 L 0.64 0.807578 L 0.65 0.811016 L 0.66 0.814414 L 0.67 0.817773 L 0.68 0.821055 L 0.7 0.827461 L 0.71 0.830586 L 0.72 0.833672 L 0.73 0.83668 L 0.74 0.839648 L 0.75 0.842578 L 0.76 0.845469 L 0.77 0.848281 L 0.78 0.851055 L 0.79 0.853789 L 0.8 0.856484 L 0.81 0.859141 L 0.82 0.861719 L 0.84 0.866797 L 0.85 0.869258 L 0.86 0.87168 L 0.87 0.874062 L 0.88 0.876406 L 0.89 0.878711 L 0.91 0.883164 L 0.92 0.885352 L 0.93 0.8875 L 0.94 0.889609 L 0.95 0.89168 L 0.96 0.893711 L 0.97 0.895703 L 0.98 0.897656 L 1 0.901484 L 1.02 0.905156 L 1.03 0.906953 L 1.04 0.908711 L 1.05 0.91043 L 1.07 0.913789 L 1.08 0.91543 L 1.09 0.917031 L 1.11 0.920156 L 1.12 0.92168 L 1.13 0.923164 L 1.15 0.926055 L 1.17 0.928867 L 1.18 0.930234 L 1.19 0.931563 L 1.21 0.934141 L 1.23 0.936641 L 1.25 0.939062 L 1.26 0.940234 L 1.28 0.9425 L 1.3 0.944687 L 1.32 0.946797 L 1.35 0.949844 L 1.36 0.950781 L 1.37 0.951758 L 1.38 0.952695 L 1.41 0.955391 L 1.42 0.95625 L 1.43 0.95707 L 1.44 0.95793 L 1.45 0.95875 L 1.48 0.961094 L 1.51 0.96332 L 1.54 0.96543 L 1.56 0.966758 L 1.57 0.967383 L 1.58 0.968047 L 1.59 0.968672 L 1.6 0.969258 L 1.61 0.969883 L 1.62 0.970469 L 1.63 0.971016 L 1.64 0.971602 L 1.67 0.973242 L 1.71 0.975273 L 1.75 0.977148 L 1.8 0.979297 L 1.85 0.98125 L 1.86 0.981602 L 1.87 0.981992 L 1.88 0.982344 L 1.89 0.982656 L 1.91 0.983359 L 1.97 0.985234 L 2.04 0.987148 L 2.05 0.987383 L 2.06 0.987656 L 2.1 0.988594 L 2.11 0.988789 L 2.13 0.989258 L 2.15 0.989648 L 2.16 0.989883 L 2.19 0.990469 L 2.2 0.990625 L 2.22 0.991016 L 2.23 0.991172 L 2.24 0.991367 L 2.26 0.99168 L 2.27 0.991875 L 2.31 0.9925 L 2.32 0.992617 L 2.34 0.99293 L 2.35 0.993047 L 2.36 0.993203 L 2.37 0.99332 L 2.38 0.993477 L 2.42 0.993945 L 2.43 0.994102 L 2.44 0.99418 L 2.49 0.994766 L 2.5 0.994844 L 2.51 0.994961 L 2.52 0.995039 L 2.53 0.995156 L 2.54 0.995234 L 2.55 0.995352 L 2.57 0.995508 L 2.58 0.995625 L 2.7 0.996563 L 2.71 0.996602 L 2.73 0.996758 L 2.74 0.996797 L 2.76 0.996953 L 2.77 0.996992 L 2.78 0.99707 L 2.79 0.997109 L 2.8 0.997187 L 2.82 0.997266 L 2.83 0.997344 L 2.85 0.997422 L 2.86 0.9975 L 2.88 0.997578 L 2.89 0.997656 L 3.08 0.998398 L 3.09 0.998398 L 3.13 0.998555 L 3.14 0.998555 L 3.16 0.998633 L 3.17 0.998633 L 3.19 0.998711 L 3.2 0.998711 L 3.22 0.998789 L 3.23 0.998789 L 3.25 0.998867 L 3.26 0.998867 L 3.27 0.998906 L 3.28 0.998906 L 3.29 0.998945 L 3.3 0.998945 L 3.31 0.998984 L 3.32 0.998984 L 3.33 0.999023 L 3.34 0.999023 L 3.35 0.999062 L 3.36 0.999062 L 3.37 0.999102 L 3.38 0.999102 L 3.39 0.999141 L 3.4 0.999141 L 3.41 0.99918 L 3.43 0.99918 L 3.44 0.999219 L 3.45 0.999219 L 3.46 0.999258 L 3.48 0.999258 L 3.49 0.999297 L 3.51 0.999297 L 3.52 0.999336 L 3.53 0.999336 L 3.54 0.999375 L 3.57 0.999375 L 3.58 0.999414 L 3.6 0.999414 L 3.61 0.999453 L 3.64 0.999453 L 3.65 0.999492 L 3.67 0.999492 L 3.68 0.999531 L 3.72 0.999531 L 3.73 0.99957 L 3.76 0.99957 L 3.77 0.999609 L 3.81 0.999609 L 3.82 0.999648 L 3.87 0.999648 L 3.88 0.999688 L 3.93 0.999688 L 3.94 0.999727 L 4 0.999727 L 4.01 0.999766 L 4.08 0.999766 L 4.09 0.999805 L 4.18 0.999805 L 4.19 0.999844 L 4.31 0.999844 L 4.32 0.999883 L 4.48 0.999883 L 4.49 0.999922 L 4.73 0.999922 L 4.74 0.999961 L 5 0.999961 " transform="matrix(100,0,0,-100,500,200)"/>
</g>
</svg>
