<?xml version="1.0" encoding="UTF-8"?>
<svg xmlns="http://www.w3.org/2000/svg" xmlns:xlink="http://www.w3.org/1999/xlink" width="1000pt" height="400pt" viewBox="0 0 1000 400" version="1.1">
<g id="surface41">
<rect x="0" y="0" width="1000" height="400" style="fill:rgb(0%,0%,0%);fill-opacity:1;stroke:none;"/>
<path style="fill:none;stroke-width:0.01;stroke-linecap:butt;stroke-linejoin:miter;stroke:rgb(100%,100%,100%);stroke-opacity:0.5;stroke-miterlimit:10;" d="M -5 -2 L -5 2 " transform="matrix(100,0,0,-100,500,200)"/>
<path style="fill:none;stroke-width:0.01;stroke-linecap:butt;stroke-linejoin:miter;stroke:rgb(100%,100%,100%);stroke-opacity:0.5;stroke-miterlimit:10;" d="M -4 -2 L -4 2 " transform="matrix(100,0,0,-100,500,200)"/>
<path style="fill:none;stroke-width:0.01;stroke-linecap:butt;stroke-linejoin:miter;stroke:rgb(100%,100%,100%);stroke-opacity:0.5;stroke-miterlimit:10;" d="M -3 -2 L -3 2 " transform="matrix(100,0,0,-100,500,200)"/>
<path style="fill:none;stroke-width:0.01;stroke-linecap:butt;stroke-linejoin:miter;stroke:rgb(100%,100%,100%);stroke-opacity:0.5;stroke-miterlimit:10;" d="M -2 -2 L -2 2 " transform="matrix(100,0,0,-100,500,200)"/>
<path style="fill:none;stroke-width:0.01;stroke-linecap:butt;stroke-linejoin:miter;stroke:rgb(100%,100%,100%);stroke-opacity:0.5;stroke-miterlimit:10;" d="M -1 -2 L -1 2 " transform="matrix(100,0,0,-100,500,200)"/>
<path style="fill:none;stroke-width:0.01;stroke-linecap:butt;stroke-linejoin:miter;stroke:rgb(100%,100%,100%);stroke-opacity:1;stroke-miterlimit:10;" d="M 0 -2 L 0 2 " transform="matrix(100,0,0,-100,500,200)"/>
<path style="fill:none;stroke-width:0.01;stroke-linecap:butt;stroke-linejoin:miter;stroke:rgb(100%,100%,100%);stroke-opacity:0.5;stroke-miterlimit:10;" d="M 1 -2 L 1 2 " transform="matrix(100,0,0,-100,500,200)"/>
<path style="fill:none;stroke-width:0.01;stroke-linecap:butt;stroke-linejoin:miter;stroke:rgb(100%,100%,100%);stroke-opacity:0.5;stroke-miterlimit:10;" d="M 2 -2 L 2 2 " transform="matrix(100,0,0,-100,500,200)"/>
<path style="fill:none;stroke-width:0.01;stroke-linecap:butt;stroke-linejoin:miter;stroke:rgb(100%,100%,100%);stroke-opacity:0.5;stroke-miterlimit:10;" d="M 3 -2 L 3 2 " transform="matrix(100,0,0,-100,500,200)"/>
<path style="fill:none;stroke-width:0.01;stroke-linecap:butt;stroke-linejoin:miter;stroke:rgb(100%,100%,100%);stroke-opacity:0.5;stroke-miterlimit:10;" d="M 4 -2 L 4 2 " transform="matrix(100,0,0,-100,500,200)"/>
<path style="fill:none;stroke-width:0.01;stroke-linecap:butt;stroke-linejoin:miter;stroke:rgb(100%,100%,100%);stroke-opacity:0.5;stroke-miterlimit:10;" d="M 5 -2 L 5 2 " transform="matrix(100,0,0,-100,500,200)"/>
<path style="fill:none;stroke-width:0.005;stroke-linecap:butt;stroke-linejoin:miter;stroke:rgb(100%,100%,100%);stroke-opacity:0.25;stroke-miterlimit:10;" d="M -4.75 -2 L -4.75 2 " transform="matrix(100,0,0,-100,500,200)"/>
<path style="fill:none;stroke-width:0.005;stroke-linecap:butt;stroke-linejoin:miter;stroke:rgb(100%,100%,100%);stroke-opacity:0.25;stroke-miterlimit:10;" d="M -4.5 -2 L -4.5 2 " transform="matrix(100,0,0,-100,500,200)"/>
<path style="fill:none;stroke-width:0.005;stroke-linecap:butt;stroke-linejoin:miter;stroke:rgb(100%,100%,100%);stroke-opacity:0.25;stroke-miterlimit:10;" d="M -4.25 -2 L -4.25 2 " transform="matrix(100,0,0,-100,500,200)"/>
<path style="fill:none;stroke-width:0.005;stroke-linecap:butt;stroke-linejoin:miter;stroke:rgb(100%,100%,100%);stroke-opacity:0.25;stroke-miterlimit:10;" d="M -3.75 -2 L -3.75 2 " transform="matrix(100,0,0,-100,500,200)"/>
<path style="fill:none;stroke-width:0.005;stroke-linecap:butt;stroke-linejoin:miter;stroke:rgb(100%,100%,100%);stroke-opacity:0.25;stroke-miterlimit:10;" d="M -3.5 -2 L -3.5 2 " transform="matrix(100,0,0,-100,500,200)"/>
<path style="fill:none;stroke-width:0.005;stroke-linecap:butt;stroke-linejoin:miter;stroke:rgb(100%,100%,100%);stroke-opacity:0.25;stroke-miterlimit:10;" d="M -3.25 -2 L -3.25 2 " transform="matrix(100,0,0,-100,500,200)"/>
<path style="fill:none;stroke-width:0.005;stroke-linecap:butt;stroke-linejoin:miter;stroke:rgb(100%,100%,100%);stroke-opacity:0.25;stroke-miterlimit:10;" d="M -2.75 -2 L -2.75 2 " transform="matrix(100,0,0,-100,500,200)"/>
<path style="fill:none;stroke-width:0.005;stroke-linecap:butt;stroke-linejoin:miter;stroke:rgb(100%,100%,100%);stroke-opacity:0.25;stroke-miterlimit:10;" d="M -2.5 -2 L -2.5 2 " transform="matrix(100,0,0,-100,500,200)"/>
<path style="fill:none;stroke-width:0.005;stroke-linecap:butt;stroke-linejoin:miter;stroke:rgb(100%,100%,100%);stroke-opacity:0.25;stroke-miterlimit:10;" d="M -2.25 -2 L -2.25 2 " transform="matrix(100,0,0,-100,500,200)"/>
<path style="fill:none;stroke-width:0.005;stroke-linecap:butt;stroke-linejoin:miter;stroke:rgb(100%,100%,100%);stroke-opacity:0.25;stroke-miterlimit:10;" d="M -1.75 -2 L -1.75 2 " transform="matrix(100,0,0,-100,500,200)"/>
<path style="fill:none;stroke-width:0.005;stroke-linecap:butt;stroke-linejoin:miter;stroke:rgb(100%,100%,100%);stroke-opacity:0.25;stroke-miterlimit:10;" d="M -1.5 -2 L -1.5 2 " transform="matrix(100,0,0,-100,500,200)"/>
<path style="fill:none;stroke-width:0.005;stroke-linecap:butt;stroke-linejoin:miter;stroke:rgb(100%,100%,100%);stroke-opacity:0.25;stroke-miterlimit:10;" d="M -1.25 -2 L -1.25 2 " transform="matrix(100,0,0,-100,500,200)"/>
<path style="fill:none;stroke-width:0.005;stroke-linecap:butt;stroke-linejoin:miter;stroke:rgb(100%,100%,100%);stroke-opacity:0.25;stroke-miterlimit:10;" d="M -0.75 -2 L -0.75 2 " transform="matrix(100,0,0,-100,500,200)"/>
<path style="fill:none;stroke-width:0.005;stroke-linecap:butt;stroke-linejoin:miter;stroke:rgb(100%,100%,100%);stroke-opacity:0.25;stroke-miterlimit:10;" d="M -0.5 -2 L -0.5 2 " transform="matrix(100,0,0,-100,500,200)"/>
<path style="fill:none;stroke-width:0.005;stroke-linecap:butt;stroke-linejoin:miter;stroke:rgb(100%,100%,100%);stroke-opacity:0.25;stroke-miterlimit:10;" d="M -0.25 -2 L -0.25 2 " transform="matrix(100,0,0,-100,500,200)"/>
<path style="fill:none;stroke-width:0.005;stroke-linecap:butt;stroke-linejoin:miter;stroke:rgb(100%,100%,100%);stroke-opacity:0.25;stroke-miterlimit:10;" d="M 0.25 -2 L 0.25 2 " transform="matrix(100,0,0,-100,500,200)"/>
<path style="fill:none;stroke-width:0.005;stroke-linecap:butt;stroke-linejoin:miter;stroke:rgb(100%,100%,100%);stroke-opacity:0.25;stroke-miterlimit:10;" d="M 0.5 -2 L 0.5 2 " transform="matrix(100,0,0,-100,500,200)"/>
<path style="fill:none;stroke-width:0.005;stroke-linecap:butt;stroke-linejoin:miter;stroke:rgb(100%,100%,100%);stroke-opacity:0.25;stroke-miterlimit:10;" d="M 0.75 -2 L 0.75 2 " transform="matrix(100,0,0,-100,500,200)"/>
<path style="fill:none;stroke-width:0.005;stroke-linecap:butt;stroke-linejoin:miter;stroke:rgb(100%,100%,100%);stroke-opacity:0.25;stroke-miterlimit:10;" d="M 1.25 -2 L 1.25 2 " transform="matrix(100,0,0,-100,500,200)"/>
<path style="fill:none;stroke-width:0.005;stroke-linecap:butt;stroke-linejoin:miter;stroke:rgb(100%,100%,100%);stroke-opacity:0.25;stroke-miterlimit:10;" d="M 1.5 -2 L 1.5 2 " transform="matrix(100,0,0,-100,500,200)"/>
<path style="fill:none;stroke-width:0.005;stroke-linecap:butt;stroke-linejoin:miter;stroke:rgb(100%,100%,100%);stroke-opacity:0.25;stroke-miterlimit:10;" d="M 1.75 -2 L 1.75 2 " transform="matrix(100,0,0,-100,500,200)"/>
<path style="fill:none;stroke-width:0.005;stroke-linecap:butt;stroke-linejoin:miter;stroke:rgb(100%,100%,100%);stroke-opacity:0.25;stroke-miterlimit:10;" d="M 2.25 -2 L 2.25 2 " transform="matrix(100,0,0,-100,500,200)"/>
<path style="fill:none;stroke-width:0.005;stroke-linecap:butt;stroke-linejoin:miter;stroke:rgb(100%,100%,100%);stroke-opacity:0.25;stroke-miterlimit:10;" d="M 2.5 -2 L 2.5 2 " transform="matrix(100,0,0,-100,500,200)"/>
<path style="fill:none;stroke-width:0.005;stroke-linecap:butt;stroke-linejoin:miter;stroke:rgb(100%,100%,100%);stroke-opacity:0.25;stroke-miterlimit:10;" d="M 2.75 -2 L 2.75 2 " transform="matrix(100,0,0,-100,500,200)"/>
<path style="fill:none;stroke-width:0.005;stroke-linecap:butt;stroke-linejoin:miter;stroke:rgb(100%,100%,100%);stroke-opacity:0.25;stroke-miterlimit:10;" d="M 3.25 -2 L 3.25 2 " transform="matrix(100,0,0,-100,500,200)"/>
<path style="fill:none;stroke-width:0.005;stroke-linecap:butt;stroke-linejoin:miter;stroke:rgb(100%,100%,100%);stroke-opacity:0.25;stroke-miterlimit:10;" d="M 3.5 -2 L 3.5 2 " transform="matrix(100,0,0,-100,500,200)"/>
<path style="fill:none;stroke-width:0.005;stroke-linecap:butt;stroke-linejoin:miter;stroke:rgb(100%,100%,100%);stroke-opacity:0.25;stroke-miterlimit:10;" d="M 3.75 -2 L 3.75 2 " transform="matrix(100,0,0,-100,500,200)"/>
<path style="fill:none;stroke-width:0.005;stroke-linecap:butt;stroke-linejoin:miter;stroke:rgb(100%,100%,100%);stroke-opacity:0.25;stroke-miterlimit:10;" d="M 4.25 -2 L 4.25 2 " transform="matrix(100,0,0,-100,500,200)"/>
<path style="fill:none;stroke-width:0.005;stroke-linecap:butt;stroke-linejoin:miter;stroke:rgb(100%,100%,100%);stroke-opacity:0.25;stroke-miterlimit:10;" d="M 4.5 -2 L 4.5 2 " transform="matrix(100,0,0,-100,500,200)"/>
<path style="fill:none;stroke-width:0.005;stroke-linecap:butt;stroke-linejoin:miter;stroke:rgb(100%,100%,100%);stroke-opacity:0.25;stroke-miterlimit:10;" d="M 4.75 -2 L 4.75 2 " transform="matrix(100,0,0,-100,500,200)"/>
<path style="fill:none;stroke-width:0.01;stroke-linecap:butt;stroke-linejoin:miter;stroke:rgb(100%,100%,100%);stroke-opacity:0.5;stroke-miterlimit:10;" d="M -5 -2 L 5 -2 " transform="matrix(100,0,0,-100,500,200)"/>
<path style="fill:none;stroke-width:0.01;stroke-linecap:butt;stroke-linejoin:miter;stroke:rgb(100%,100%,100%);stroke-opacity:0.5;stroke-miterlimit:10;" d="M -5 -1 L 5 -1 " transform="matrix(100,0,0,-100,500,200)"/>
<path style="fill:none;stroke-width:0.01;stroke-linecap:butt;stroke-linejoin:miter;stroke:rgb(100%,100%,100%);stroke-opacity:1;stroke-miterlimit:10;" d="M -5 0 L 5 0 " transform="matrix(100,0,0,-100,500,200)"/>
<path style="fill:none;stroke-width:0.01;stroke-linecap:butt;stroke-linejoin:miter;stroke:rgb(100%,100%,100%);stroke-opacity:0.5;stroke-miterlimit:10;" d="M -5 1 L 5 1 " transform="matrix(100,0,0,-100,500,200)"/>
<path style="fill:none;stroke-width:0.01;stroke-linecap:butt;stroke-linejoin:miter;stroke:rgb(100%,100%,100%);stroke-opacity:0.5;stroke-miterlimit:10;" d="M -5 2 L 5 2 " transform="matrix(100,0,0,-100,500,200)"/>
<path style="fill:none;stroke-width:0.005;stroke-linecap:butt;stroke-linejoin:miter;stroke:rgb(100%,100%,100%);stroke-opacity:0.25;stroke-miterlimit:10;" d="M -5 -1.75 L 5 -1.75 " transform="matrix(100,0,0,-100,500,200)"/>
<path style="fill:none;stroke-width:0.005;stroke-linecap:butt;stroke-linejoin:miter;stroke:rgb(100%,100%,100%);stroke-opacity:0.25;stroke-miterlimit:10;" d="M -5 -1.5 L 5 -1.5 " transform="matrix(100,0,0,-100,500,200)"/>
<path style="fill:none;stroke-width:0.005;stroke-linecap:butt;stroke-linejoin:miter;stroke:rgb(100%,100%,100%);stroke-opacity:0.25;stroke-miterlimit:10;" d="M -5 -1.25 L 5 -1.25 " transform="matrix(100,0,0,-100,500,200)"/>
<path style="fill:none;stroke-width:0.005;stroke-linecap:butt;stroke-linejoin:miter;stroke:rgb(100%,100%,100%);stroke-opacity:0.25;stroke-miterlimit:10;" d="M -5 -0.75 L 5 -0.75 " transform="matrix(100,0,0,-100,500,200)"/>
<path style="fill:none;stroke-width:0.005;stroke-linecap:butt;stroke-linejoin:miter;stroke:rgb(100%,100%,100%);stroke-opacity:0.25;stroke-miterlimit:10;" d="M -5 -0.5 L 5 -0.5 " transform="matrix(100,0,0,-100,500,200)"/>
<path style="fill:none;stroke-width:0.005;stroke-linecap:butt;stroke-linejoin:miter;stroke:rgb(100%,100%,100%);stroke-opacity:0.25;stroke-miterlimit:10;" d="M -5 -0.25 L 5 -0.25 " transform="matrix(100,0,0,-100,500,200)"/>
<path style="fill:none;stroke-width:0.005;stroke-linecap:butt;stroke-linejoin:miter;stroke:rgb(100%,100%,100%);stroke-opacity:0.25;stroke-miterlimit:10;" d="M -5 0.25 L 5 0.25 " transform="matrix(100,0,0,-100,500,200)"/>
<path style="fill:none;stroke-width:0.005;stroke-linecap:butt;stroke-linejoin:miter;stroke:rgb(100%,100%,100%);stroke-opacity:0.25;stroke-miterlimit:10;" d="M -5 0.5 L 5 0.5 " transform="matrix(100,0,0,-100,500,200)"/>
<path style="fill:none;stroke-width:0.005;stroke-linecap:butt;stroke-linejoin:miter;stroke:rgb(100%,100%,100%);stroke-opacity:0.25;stroke-miterlimit:10;" d="M -5 0.75 L 5 0.75 " transform="matrix(100,0,0,-100,500,200)"/>
<path style="fill:none;stroke-width:0.005;stroke-linecap:butt;stroke-linejoin:miter;stroke:rgb(100%,100%,100%);stroke-opacity:0.25;stroke-miterlimit:10;" d="M -5 1.25 L 5 1.25 " transform="matrix(100,0,0,-100,500,200)"/>
<path style="fill:none;stroke-width:0.005;stroke-linecap:butt;stroke-linejoin:miter;stroke:rgb(100%,100%,100%);stroke-opacity:0.25;stroke-miterlimit:10;" d="M -5 1.5 L 5 1.5 " transform="matrix(100,0,0,-100,500,200)"/>
<path style="fill:none;stroke-width:0.005;stroke-linecap:butt;stroke-linejoin:miter;stroke:rgb(100%,100%,100%);stroke-opacity:0.25;stroke-miterlimit:10;" d="M -5 1.75 L 5 1.75 " transform="matrix(100,0,0,-100,500,200)"/>
<path style="fill:none;stroke-width:0.03;stroke-linecap:butt;stroke-linejoin:miter;stroke:rgb(87.058824%,29.803922%,71.764706%);stroke-opacity:1;stroke-miterlimit:10;" d="M -5 0.958906 L -4.99 0.961719 L -4.98 0.964414 L -4.97 0.966992 L -4.96 0.969492 L -4.95 0.971914 L -4.94 0.974219 L -4.93 0.976406 L -4.92 0.978516 L -4.91 0.980547 L -4.9 0.982461 L -4.89 0.984258 L -4.88 0.985977 L -4.87 0.987617 L -4.86 0.989141 L -4.85 0.990547 L -4.84 0.991875 L -4.83 0.993086 L -4.82 0.994219 L -4.81 0.995234 L -4.8 0.996172 L -4.79 0.996992 L -4.78 0.997734 L -4.77 0.998359 L -4.76 0.998867 L -4.75 0.999297 L -4.74 0.999609 L -4.73 0.999844 L -4.72 0.999961 L -4.71 1 L -4.7 0.999922 L -4.69 0.999766 L -4.68 0.999492 L -4.67 0.999102 L -4.66 0.998633 L -4.65 0.998047 L -4.64 0.997383 L -4.63 0.996602 L -4.62 0.995742 L -4.61 0.994766 L -4.6 0.993672 L -4.59 0.992539 L -4.58 0.99125 L -4.57 0.989883 L -4.56 0.988398 L -4.55 0.986836 L -4.54 0.985195 L -4.53 0.983398 L -4.52 0.981562 L -4.51 0.97957 L -4.5 0.977539 L -4.49 0.975391 L -4.48 0.973125 L -4.47 0.970781 L -4.46 0.96832 L -4.45 0.965781 L -4.44 0.963125 L -4.43 0.960391 L -4.42 0.957539 L -4.41 0.954609 L -4.4 0.951602 L -4.39 0.948477 L -4.38 0.945273 L -4.37 0.941953 L -4.36 0.938555 L -4.35 0.935039 L -4.34 0.931445 L -4.33 0.927773 L -4.32 0.923984 L -4.31 0.920117 L -4.3 0.916172 L -4.29 0.912109 L -4.28 0.907969 L -4.27 0.90375 L -4.26 0.899414 L -4.25 0.895 L -4.24 0.890469 L -4.23 0.885898 L -4.22 0.881211 L -4.21 0.876445 L -4.2 0.871563 L -4.19 0.866641 L -4.18 0.861602 L -4.17 0.856484 L -4.16 0.851289 L -4.15 0.845977 L -4.14 0.840625 L -4.13 0.835156 L -4.12 0.829609 L -4.11 0.823984 L -4.1 0.818281 L -4.09 0.8125 L -4.08 0.806602 L -4.07 0.800664 L -4.06 0.794648 L -4.05 0.788516 L -4.04 0.782344 L -4.03 0.776055 L -4.02 0.769727 L -4.01 0.76332 L -4 0.756797 L -3.99 0.750234 L -3.98 0.743594 L -3.97 0.736875 L -3.95 0.723203 L -3.94 0.71625 L -3.93 0.709219 L -3.92 0.702148 L -3.91 0.695 L -3.9 0.687773 L -3.89 0.680469 L -3.88 0.673125 L -3.86 0.658203 L -3.85 0.650625 L -3.84 0.643008 L -3.83 0.635312 L -3.82 0.627539 L -3.81 0.619727 L -3.8 0.611875 L -3.79 0.603906 L -3.78 0.595898 L -3.77 0.587852 L -3.76 0.579727 L -3.75 0.571562 L -3.74 0.56332 L -3.73 0.555039 L -3.72 0.54668 L -3.71 0.538281 L -3.7 0.529844 L -3.69 0.521328 L -3.68 0.512773 L -3.66 0.495508 L -3.65 0.486797 L -3.63 0.469219 L -3.61 0.451484 L -3.6 0.442539 L -3.58 0.424492 L -3.57 0.41543 L -3.55 0.397148 L -3.54 0.387969 L -3.52 0.369453 L -3.5 0.350781 L -3.49 0.341406 L -3.48 0.331992 L -3.47 0.322539 L -3.45 0.303555 L -3.42 0.274844 L -3.4 0.255547 L -3.38 0.236172 L -3.37 0.226445 L -3.35 0.206914 L -3.33 0.187305 L -3.31 0.167617 L -3.28 0.137969 L -3.25 0.108203 L -3.21 0.0683594 L -3.2 0.0583594 L -3.19 0.0483984 L -3.11 -0.0316016 L -3.1 -0.0415625 L -3.08 -0.0615625 L -3.03 -0.111367 L -3 -0.141133 L -2.98 -0.160898 L -2.95 -0.19043 L -2.94 -0.200234 L -2.91 -0.229531 L -2.9 -0.239258 L -2.88 -0.258633 L -2.87 -0.268281 L -2.86 -0.277891 L -2.84 -0.297031 L -2.82 -0.316094 L -2.8 -0.335 L -2.78 -0.35375 L -2.77 -0.363086 L -2.75 -0.38168 L -2.74 -0.390898 L -2.73 -0.400078 L -2.72 -0.409219 L -2.71 -0.41832 L -2.7 -0.427383 L -2.69 -0.436406 L -2.68 -0.445391 L -2.66 -0.463203 L -2.65 -0.472031 L -2.64 -0.48082 L -2.63 -0.48957 L -2.61 -0.506914 L -2.6 -0.515508 L -2.59 -0.524062 L -2.58 -0.532539 L -2.57 -0.540977 L -2.55 -0.557695 L -2.53 -0.57418 L -2.52 -0.582344 L -2.51 -0.59043 L -2.5 -0.598477 L -2.49 -0.606445 L -2.48 -0.614375 L -2.47 -0.622227 L -2.46 -0.630039 L -2.45 -0.637773 L -2.44 -0.64543 L -2.43 -0.653047 L -2.42 -0.660586 L -2.41 -0.668047 L -2.4 -0.675469 L -2.39 -0.682813 L -2.38 -0.690078 L -2.37 -0.697266 L -2.36 -0.704414 L -2.35 -0.711484 L -2.34 -0.718477 L -2.33 -0.725391 L -2.32 -0.732227 L -2.31 -0.739023 L -2.3 -0.745703 L -2.29 -0.752344 L -2.28 -0.758867 L -2.27 -0.765352 L -2.26 -0.771758 L -2.25 -0.778086 L -2.24 -0.784297 L -2.23 -0.790469 L -2.22 -0.796562 L -2.21 -0.802578 L -2.2 -0.808516 L -2.19 -0.814336 L -2.18 -0.820117 L -2.17 -0.825781 L -2.16 -0.831367 L -2.15 -0.836914 L -2.14 -0.842344 L -2.13 -0.847695 L -2.12 -0.85293 L -2.11 -0.858125 L -2.1 -0.863203 L -2.09 -0.868203 L -2.08 -0.873125 L -2.07 -0.877969 L -2.06 -0.882695 L -2.05 -0.887344 L -2.04 -0.891914 L -2.03 -0.896406 L -2.02 -0.900781 L -2.01 -0.905078 L -2 -0.909297 L -1.99 -0.913398 L -1.98 -0.917422 L -1.97 -0.921367 L -1.96 -0.925195 L -1.95 -0.928945 L -1.94 -0.932617 L -1.93 -0.936172 L -1.92 -0.939648 L -1.91 -0.943008 L -1.9 -0.946289 L -1.89 -0.949492 L -1.88 -0.952578 L -1.87 -0.955586 L -1.86 -0.958477 L -1.85 -0.961289 L -1.84 -0.963984 L -1.83 -0.966602 L -1.82 -0.969102 L -1.81 -0.971523 L -1.8 -0.973828 L -1.79 -0.976055 L -1.78 -0.978203 L -1.77 -0.980234 L -1.76 -0.982148 L -1.75 -0.983984 L -1.74 -0.985703 L -1.73 -0.987344 L -1.72 -0.988906 L -1.71 -0.990312 L -1.7 -0.99168 L -1.69 -0.992891 L -1.68 -0.994063 L -1.67 -0.995078 L -1.66 -0.996016 L -1.65 -0.996875 L -1.64 -0.997617 L -1.63 -0.998242 L -1.62 -0.998789 L -1.61 -0.999219 L -1.6 -0.99957 L -1.59 -0.999805 L -1.58 -0.999961 L -1.57 -1 L -1.56 -0.999961 L -1.55 -0.999766 L -1.54 -0.999531 L -1.53 -0.99918 L -1.52 -0.998711 L -1.51 -0.998164 L -1.5 -0.9975 L -1.49 -0.996719 L -1.48 -0.995898 L -1.47 -0.994922 L -1.46 -0.993867 L -1.45 -0.992695 L -1.44 -0.991445 L -1.43 -0.990117 L -1.42 -0.988633 L -1.41 -0.987109 L -1.4 -0.985469 L -1.39 -0.983711 L -1.38 -0.981836 L -1.37 -0.979922 L -1.36 -0.977852 L -1.35 -0.975742 L -1.34 -0.973477 L -1.33 -0.971133 L -1.32 -0.968711 L -1.31 -0.966172 L -1.3 -0.963555 L -1.29 -0.96082 L -1.28 -0.958008 L -1.27 -0.955117 L -1.26 -0.952109 L -1.25 -0.948984 L -1.24 -0.945781 L -1.23 -0.9425 L -1.22 -0.939102 L -1.21 -0.935625 L -1.2 -0.932031 L -1.19 -0.928359 L -1.18 -0.924609 L -1.17 -0.920742 L -1.16 -0.916797 L -1.15 -0.912773 L -1.14 -0.908633 L -1.13 -0.904414 L -1.12 -0.900117 L -1.11 -0.895703 L -1.1 -0.891211 L -1.09 -0.886641 L -1.08 -0.881953 L -1.07 -0.877188 L -1.06 -0.872344 L -1.05 -0.867422 L -1.04 -0.862422 L -1.03 -0.857305 L -1.02 -0.852109 L -1.01 -0.846836 L -1 -0.841484 L -0.99 -0.836016 L -0.98 -0.830508 L -0.97 -0.824883 L -0.96 -0.81918 L -0.95 -0.813398 L -0.94 -0.807539 L -0.93 -0.801602 L -0.92 -0.795586 L -0.91 -0.789492 L -0.9 -0.78332 L -0.89 -0.77707 L -0.88 -0.770742 L -0.87 -0.764336 L -0.86 -0.757852 L -0.85 -0.751289 L -0.84 -0.744648 L -0.83 -0.73793 L -0.82 -0.731133 L -0.81 -0.724297 L -0.8 -0.717344 L -0.79 -0.710352 L -0.78 -0.703281 L -0.77 -0.696133 L -0.76 -0.688906 L -0.75 -0.681641 L -0.74 -0.674297 L -0.73 -0.666875 L -0.72 -0.659375 L -0.71 -0.651836 L -0.7 -0.644219 L -0.69 -0.636523 L -0.68 -0.628789 L -0.67 -0.620977 L -0.66 -0.613125 L -0.65 -0.605195 L -0.64 -0.597187 L -0.63 -0.589141 L -0.62 -0.581055 L -0.6 -0.564648 L -0.59 -0.556367 L -0.57 -0.539648 L -0.55 -0.522695 L -0.54 -0.514141 L -0.53 -0.505547 L -0.52 -0.496875 L -0.51 -0.488164 L -0.5 -0.479414 L -0.49 -0.470625 L -0.48 -0.461797 L -0.47 -0.452891 L -0.46 -0.443945 L -0.45 -0.434961 L -0.44 -0.425937 L -0.43 -0.416875 L -0.42 -0.407773 L -0.4 -0.389414 L -0.39 -0.380195 L -0.38 -0.370938 L -0.36 -0.352266 L -0.35 -0.342891 L -0.33 -0.324063 L -0.31 -0.305078 L -0.28 -0.276367 L -0.25 -0.247422 L -0.22 -0.218242 L -0.21 -0.208477 L -0.19 -0.188867 L -0.16 -0.159336 L -0.15 -0.149453 L -0.14 -0.139531 L -0.13 -0.129648 L -0.12 -0.119727 L -0.11 -0.109766 L -0.1 -0.0998438 L -0.07 -0.0699609 L -0.05 -0.0499609 L -0.04 -0.04 L 0.04 0.04 L 0.05 0.0499609 L 0.07 0.0699609 L 0.1 0.0998438 L 0.11 0.109766 L 0.12 0.119727 L 0.13 0.129648 L 0.14 0.139531 L 0.15 0.149453 L 0.16 0.159336 L 0.19 0.188867 L 0.21 0.208477 L 0.22 0.218242 L 0.25 0.247422 L 0.28 0.276367 L 0.31 0.305078 L 0.33 0.324062 L 0.35 0.342891 L 0.36 0.352266 L 0.38 0.370937 L 0.39 0.380195 L 0.4 0.389414 L 0.42 0.407773 L 0.43 0.416875 L 0.44 0.425937 L 0.45 0.434961 L 0.46 0.443945 L 0.47 0.452891 L 0.48 0.461797 L 0.49 0.470625 L 0.5 0.479414 L 0.51 0.488164 L 0.52 0.496875 L 0.53 0.505547 L 0.54 0.514141 L 0.55 0.522695 L 0.57 0.539648 L 0.59 0.556367 L 0.6 0.564648 L 0.62 0.581055 L 0.63 0.589141 L 0.64 0.597187 L 0.65 0.605195 L 0.66 0.613125 L 0.67 0.620977 L 0.68 0.628789 L 0.69 0.636523 L 0.7 0.644219 L 0.71 0.651836 L 0.72 0.659375 L 0.73 0.666875 L 0.74 0.674297 L 0.75 0.681641 L 0.76 0.688906 L 0.77 0.696133 L 0.78 0.703281 L 0.79 0.710352 L 0.8 0.717344 L 0.81 0.724297 L 0.82 0.731133 L 0.83 0.73793 L 0.84 0.744648 L 0.85 0.751289 L 0.86 0.757852 L 0.87 0.764336 L 0.88 0.770742 L 0.89 0.77707 L 0.9 0.78332 L 0.91 0.789492 L 0.92 0.795586 L 0.93 0.801602 L 0.94 0.807539 L 0.95 0.813398 L 0.96 0.81918 L 0.97 0.824883 L 0.98 0.830508 L 0.99 0.836016 L 1 0.841484 L 1.01 0.846836 L 1.02 0.852109 L 1.03 0.857305 L 1.04 0.862422 L 1.05 0.867422 L 1.06 0.872344 L 1.07 0.877188 L 1.08 0.881953 L 1.09 0.886641 L 1.1 0.891211 L 1.11 0.895703 L 1.12 0.900117 L 1.13 0.904414 L 1.14 0.908633 L 1.15 0.912773 L 1.16 0.916797 L 1.17 0.920742 L 1.18 0.924609 L 1.19 0.928359 L 1.2 0.932031 L 1.21 0.935625 L 1.22 0.939102 L 1.23 0.9425 L 1.24 0.945781 L 1.25 0.948984 L 1.26 0.952109 L 1.27 0.955117 L 1.28 0.958008 L 1.29 0.96082 L 1.3 0.963555 L 1.31 0.966172 L 1.32 0.968711 L 1.33 0.971133 L 1.34 0.973477 L 1.35 0.975742 L 1.36 0.977852 L 1.37 0.979922 L 1.38 0.981836 L 1.39 0.983711 L 1.4 0.985469 L 1.41 0.987109 L 1.42 0.988633 L 1.43 0.990117 L 1.44 0.991445 L 1.45 0.992695 L 1.46 0.993867 L 1.47 0.994922 L 1.48 0.995898 L 1.49 0.996719 L 1.5 0.9975 L 1.51 0.998164 L 1.52 0.998711 L 1.53 0.99918 L 1.54 0.999531 L 1.55 0.999766 L 1.56 0.999961 L 1.57 1 L 1.58 0.999961 L 1.59 0.999805 L 1.6 0.99957 L 1.61 0.999219 L 1.62 0.998789 L 1.63 0.998242 L 1.64 0.997617 L 1.65 0.996875 L 1.66 0.996016 L 1.67 0.995078 L 1.68 0.994063 L 1.69 0.992891 L 1.7 0.99168 L 1.71 0.990312 L 1.72 0.988906 L 1.73 0.987344 L 1.74 0.985703 L 1.75 0.983984 L 1.76 0.982148 L 1.77 0.980234 L 1.78 0.978203 L 1.79 0.976055 L 1.8 0.973828 L 1.81 0.971523 L 1.82 0.969102 L 1.83 0.966602 L 1.84 0.963984 L 1.85 0.961289 L 1.86 0.958477 L 1.87 0.955586 L 1.88 0.952578 L 1.89 0.949492 L 1.9 0.946289 L 1.91 0.943008 L 1.92 0.939648 L 1.93 0.936172 L 1.94 0.932617 L 1.95 0.928945 L 1.96 0.925195 L 1.97 0.921367 L 1.98 0.917422 L 1.99 0.913398 L 2 0.909297 L 2.01 0.905078 L 2.02 0.900781 L 2.03 0.896406 L 2.04 0.891914 L 2.05 0.887344 L 2.06 0.882695 L 2.07 0.877969 L 2.08 0.873125 L 2.09 0.868203 L 2.1 0.863203 L 2.11 0.858125 L 2.12 0.85293 L 2.13 0.847695 L 2.14 0.842344 L 2.15 0.836914 L 2.16 0.831367 L 2.17 0.825781 L 2.18 0.820117 L 2.19 0.814336 L 2.2 0.808516 L 2.21 0.802578 L 2.22 0.796563 L 2.23 0.790469 L 2.24 0.784297 L 2.25 0.778086 L 2.26 0.771758 L 2.27 0.765352 L 2.28 0.758867 L 2.29 0.752344 L 2.3 0.745703 L 2.31 0.739023 L 2.32 0.732227 L 2.33 0.725391 L 2.34 0.718477 L 2.35 0.711484 L 2.36 0.704414 L 2.37 0.697266 L 2.38 0.690078 L 2.39 0.682813 L 2.4 0.675469 L 2.41 0.668047 L 2.42 0.660586 L 2.43 0.653047 L 2.44 0.64543 L 2.45 0.637773 L 2.46 0.630039 L 2.47 0.622227 L 2.48 0.614375 L 2.49 0.606445 L 2.5 0.598477 L 2.51 0.59043 L 2.52 0.582344 L 2.53 0.57418 L 2.55 0.557695 L 2.57 0.540977 L 2.58 0.532539 L 2.59 0.524062 L 2.6 0.515508 L 2.61 0.506914 L 2.63 0.48957 L 2.64 0.48082 L 2.65 0.472031 L 2.66 0.463203 L 2.68 0.445391 L 2.69 0.436406 L 2.7 0.427383 L 2.71 0.41832 L 2.72 0.409219 L 2.73 0.400078 L 2.74 0.390898 L 2.75 0.38168 L 2.77 0.363086 L 2.78 0.35375 L 2.8 0.335 L 2.82 0.316094 L 2.84 0.297031 L 2.86 0.277891 L 2.87 0.268281 L 2.88 0.258633 L 2.9 0.239258 L 2.91 0.229531 L 2.94 0.200234 L 2.95 0.19043 L 2.98 0.160898 L 3 0.141133 L 3.03 0.111367 L 3.08 0.0615625 L 3.1 0.0415625 L 3.11 0.0316016 L 3.19 -0.0483984 L 3.2 -0.0583594 L 3.21 -0.0683594 L 3.25 -0.108203 L 3.28 -0.137969 L 3.31 -0.167617 L 3.33 -0.187305 L 3.35 -0.206914 L 3.37 -0.226445 L 3.38 -0.236172 L 3.4 -0.255547 L 3.42 -0.274844 L 3.45 -0.303555 L 3.47 -0.322539 L 3.48 -0.331992 L 3.49 -0.341406 L 3.5 -0.350781 L 3.52 -0.369453 L 3.54 -0.387969 L 3.55 -0.397148 L 3.57 -0.41543 L 3.58 -0.424492 L 3.6 -0.442539 L 3.61 -0.451484 L 3.63 -0.469219 L 3.65 -0.486797 L 3.66 -0.495508 L 3.68 -0.512773 L 3.69 -0.521328 L 3.7 -0.529844 L 3.71 -0.538281 L 3.72 -0.54668 L 3.73 -0.555039 L 3.74 -0.56332 L 3.75 -0.571563 L 3.76 -0.579727 L 3.77 -0.587852 L 3.78 -0.595898 L 3.79 -0.603906 L 3.8 -0.611875 L 3.81 -0.619727 L 3.82 -0.627539 L 3.83 -0.635312 L 3.84 -0.643008 L 3.85 -0.650625 L 3.86 -0.658203 L 3.88 -0.673125 L 3.89 -0.680469 L 3.9 -0.687773 L 3.91 -0.695 L 3.92 -0.702148 L 3.93 -0.709219 L 3.94 -0.71625 L 3.95 -0.723203 L 3.97 -0.736875 L 3.98 -0.743594 L 3.99 -0.750234 L 4 -0.756797 L 4.01 -0.76332 L 4.02 -0.769727 L 4.03 -0.776055 L 4.04 -0.782344 L 4.05 -0.788516 L 4.06 -0.794648 L 4.07 -0.800664 L 4.08 -0.806602 L 4.09 -0.8125 L 4.1 -0.818281 L 4.11 -0.823984 L 4.12 -0.829609 L 4.13 -0.835156 L 4.14 -0.840625 L 4.15 -0.845977 L 4.16 -0.851289 L 4.17 -0.856484 L 4.18 -0.861602 L 4.19 -0.866641 L 4.2 -0.871563 L 4.21 -0.876445 L 4.22 -0.881211 L 4.23 -0.885898 L 4.24 -0.890469 L 4.25 -0.895 L 4.26 -0.899414 L 4.27 -0.90375 L 4.28 -0.907969 L 4.29 -0.912109 L 4.3 -0.916172 L 4.31 -0.920117 L 4.32 -0.923984 L 4.33 -0.927773 L 4.34 -0.931445 L 4.35 -0.935039 L 4.36 -0.938555 L 4.37 -0.941953 L 4.38 -0.945273 L 4.39 -0.948477 L 4.4 -0.951602 L 4.41 -0.954609 L 4.42 -0.957539 L 4.43 -0.960391 L 4.44 -0.963125 L 4.45 -0.965781 L 4.46 -0.96832 L 4.47 -0.970781 L 4.48 -0.973125 L 4.49 -0.975391 L 4.5 -0.977539 L 4.51 -0.97957 L 4.52 -0.981562 L 4.53 -0.983398 L 4.54 -0.985195 L 4.55 -0.986836 L 4.56 -0.988398 L 4.57 -0.989883 L 4.58 -0.99125 L 4.59 -0.992539 L 4.6 -0.993672 L 4.61 -0.994766 L 4.62 -0.995742 L 4.63 -0.996602 L 4.64 -0.997383 L 4.65 -0.998047 L 4.66 -0.998633 L 4.67 -0.999102 L 4.68 -0.999492 L 4.69 -0.999766 L 4.7 -0.999922 L 4.71 -1 L 4.72 -0.999961 L 4.73 -0.999844 L 4.74 -0.999609 L 4.75 -0.999297 L 4.76 -0.998867 L 4.77 -0.998359 L 4.78 -0.997734 L 4.79 -0.996992 L 4.8 -0.996172 L 4.81 -0.995234 L 4.82 -0.994219 L 4.83 -0.993086 L 4.84 -0.991875 L 4.85 -0.990547 L 4.86 -0.989141 L 4.87 -0.987617 L 4.88 -0.985977 L 4.89 -0.984258 L 4.9 -0.982461 L 4.91 -0.980547 L 4.92 -0.978516 L 4.93 -0.976406 L 4.94 -0.974219 L 4.95 -0.971914 L 4.96 -0.969492 L 4.97 -0.966992 L 4.98 -0.964414 L 4.99 -0.961719 L 5 -0.958906 " transform="matrix(100,0,0,-100,500,200)"/>
<path style="fill:none;stroke-width:0.03;stroke-linecap:butt;stroke-linejoin:miter;stroke:rgb(87.058824%,29.803922%,71.764706%);stroke-opacity:0.75;stroke-miterlimit:10;" d="M -5 0.271992 L -4.99 0.263555 L -4.98 0.255 L -4.97 0.246367 L -4.96 0.237617 L -4.95 0.22875 L -4.94 0.219844 L -4.93 0.21082 L -4.92 0.20168 L -4.91 0.1925 L -4.9 0.183242 L -4.89 0.173906 L -4.88 0.164492 L -4.87 0.155 L -4.86 0.145469 L -4.85 0.135898 L -4.83 0.116523 L -4.82 0.106797 L -4.81 0.0969922 L -4.79 0.0773047 L -4.78 0.0674219 L -4.77 0.0575 L -4.75 0.0375781 L -4.74 0.0275781 L -4.73 0.0176172 L -4.68 -0.0323828 L -4.66 -0.0523047 L -4.64 -0.0721484 L -4.63 -0.0820312 L -4.62 -0.091875 L -4.61 -0.10168 L -4.6 -0.111445 L -4.59 -0.121172 L -4.58 -0.130859 L -4.57 -0.140469 L -4.56 -0.150039 L -4.55 -0.159531 L -4.54 -0.168984 L -4.53 -0.178359 L -4.52 -0.187695 L -4.51 -0.196914 L -4.5 -0.206055 L -4.49 -0.215117 L -4.48 -0.224102 L -4.47 -0.233008 L -4.46 -0.241797 L -4.45 -0.250508 L -4.44 -0.259102 L -4.43 -0.267617 L -4.42 -0.276016 L -4.41 -0.284297 L -4.4 -0.292461 L -4.39 -0.300508 L -4.38 -0.308438 L -4.37 -0.31625 L -4.36 -0.323945 L -4.35 -0.331484 L -4.34 -0.338906 L -4.33 -0.346172 L -4.32 -0.35332 L -4.31 -0.360352 L -4.3 -0.367188 L -4.29 -0.373906 L -4.28 -0.380469 L -4.27 -0.386875 L -4.26 -0.393125 L -4.25 -0.399258 L -4.24 -0.405195 L -4.23 -0.410977 L -4.22 -0.416562 L -4.21 -0.422031 L -4.2 -0.427305 L -4.19 -0.432422 L -4.18 -0.437344 L -4.17 -0.442109 L -4.16 -0.44668 L -4.15 -0.451094 L -4.14 -0.455313 L -4.13 -0.459336 L -4.12 -0.463203 L -4.11 -0.466875 L -4.1 -0.470352 L -4.09 -0.473672 L -4.08 -0.476758 L -4.07 -0.479688 L -4.06 -0.482422 L -4.05 -0.484961 L -4.04 -0.487266 L -4.03 -0.489414 L -4.02 -0.491367 L -4.01 -0.493125 L -4 -0.494687 L -3.99 -0.496016 L -3.98 -0.497187 L -3.97 -0.498164 L -3.96 -0.498906 L -3.95 -0.499453 L -3.94 -0.499844 L -3.93 -0.5 L -3.92 -0.499961 L -3.91 -0.499727 L -3.9 -0.499258 L -3.89 -0.498633 L -3.88 -0.497813 L -3.87 -0.496758 L -3.86 -0.495508 L -3.85 -0.494102 L -3.84 -0.492461 L -3.83 -0.490625 L -3.82 -0.488594 L -3.81 -0.486367 L -3.8 -0.483945 L -3.79 -0.481367 L -3.78 -0.478555 L -3.77 -0.475547 L -3.76 -0.472383 L -3.75 -0.468984 L -3.74 -0.46543 L -3.73 -0.46168 L -3.72 -0.457773 L -3.71 -0.453633 L -3.7 -0.449336 L -3.69 -0.444883 L -3.68 -0.440234 L -3.67 -0.435391 L -3.66 -0.430391 L -3.65 -0.425234 L -3.64 -0.419883 L -3.63 -0.414375 L -3.62 -0.408672 L -3.61 -0.402852 L -3.6 -0.396836 L -3.59 -0.390664 L -3.58 -0.384336 L -3.57 -0.377891 L -3.56 -0.37125 L -3.55 -0.364492 L -3.54 -0.357578 L -3.53 -0.350508 L -3.52 -0.34332 L -3.51 -0.335977 L -3.5 -0.328477 L -3.49 -0.320898 L -3.48 -0.313164 L -3.47 -0.305312 L -3.46 -0.297305 L -3.45 -0.289219 L -3.44 -0.281016 L -3.43 -0.272695 L -3.42 -0.264258 L -3.41 -0.255703 L -3.4 -0.24707 L -3.39 -0.23832 L -3.38 -0.229492 L -3.37 -0.220547 L -3.36 -0.211523 L -3.35 -0.202422 L -3.34 -0.193242 L -3.33 -0.183984 L -3.32 -0.174648 L -3.31 -0.165234 L -3.3 -0.155781 L -3.29 -0.14625 L -3.28 -0.136641 L -3.27 -0.126992 L -3.26 -0.117305 L -3.25 -0.107578 L -3.24 -0.0977734 L -3.22 -0.0780859 L -3.21 -0.0682031 L -3.2 -0.0582812 L -3.17 -0.0283984 L -3.12 0.0216016 L -3.11 0.0315625 L -3.1 0.0415625 L -3.09 0.0514844 L -3.08 0.0614453 L -3.07 0.0713672 L -3.06 0.08125 L -3.05 0.0910937 L -3.04 0.100898 L -3.03 0.110664 L -3.02 0.120391 L -3.01 0.130078 L -3 0.139727 L -2.99 0.149297 L -2.98 0.158789 L -2.97 0.168242 L -2.96 0.177617 L -2.95 0.186953 L -2.94 0.196172 L -2.93 0.205352 L -2.92 0.214414 L -2.91 0.223398 L -2.9 0.232305 L -2.89 0.241094 L -2.88 0.249805 L -2.87 0.258437 L -2.86 0.266953 L -2.85 0.275352 L -2.84 0.283633 L -2.83 0.291797 L -2.82 0.299883 L -2.81 0.307813 L -2.8 0.315625 L -2.79 0.32332 L -2.78 0.330898 L -2.77 0.33832 L -2.76 0.345625 L -2.75 0.352773 L -2.74 0.359805 L -2.73 0.366641 L -2.72 0.373398 L -2.71 0.379961 L -2.7 0.386367 L -2.69 0.392656 L -2.68 0.39875 L -2.67 0.404727 L -2.66 0.410508 L -2.65 0.416133 L -2.64 0.421602 L -2.63 0.426875 L -2.62 0.431992 L -2.61 0.436953 L -2.6 0.441719 L -2.59 0.446328 L -2.58 0.450742 L -2.57 0.454961 L -2.56 0.459023 L -2.55 0.462891 L -2.54 0.466602 L -2.53 0.470078 L -2.52 0.473398 L -2.51 0.476523 L -2.5 0.479453 L -2.49 0.482187 L -2.48 0.484766 L -2.47 0.487109 L -2.46 0.489258 L -2.45 0.491211 L -2.44 0.493008 L -2.43 0.49457 L -2.42 0.495937 L -2.41 0.497109 L -2.4 0.498086 L -2.39 0.498867 L -2.38 0.499414 L -2.37 0.499805 L -2.36 0.5 L -2.35 0.499961 L -2.34 0.499727 L -2.33 0.499297 L -2.32 0.498672 L -2.31 0.497852 L -2.3 0.496836 L -2.29 0.495625 L -2.28 0.494219 L -2.27 0.492578 L -2.26 0.490781 L -2.25 0.48875 L -2.24 0.486563 L -2.23 0.484141 L -2.22 0.481562 L -2.21 0.478789 L -2.2 0.47582 L -2.19 0.472617 L -2.18 0.469258 L -2.17 0.465742 L -2.16 0.461992 L -2.15 0.458086 L -2.14 0.453984 L -2.13 0.449688 L -2.12 0.445234 L -2.11 0.440586 L -2.1 0.435781 L -2.09 0.430781 L -2.08 0.425625 L -2.07 0.420312 L -2.06 0.414805 L -2.05 0.409141 L -2.04 0.40332 L -2.03 0.397305 L -2.02 0.391172 L -2.01 0.384844 L -2 0.378398 L -1.99 0.371797 L -1.98 0.365039 L -1.97 0.358125 L -1.96 0.351055 L -1.95 0.343867 L -1.94 0.336562 L -1.93 0.329102 L -1.92 0.321484 L -1.91 0.313789 L -1.9 0.305937 L -1.89 0.297969 L -1.88 0.289883 L -1.87 0.28168 L -1.86 0.273359 L -1.85 0.264922 L -1.84 0.256367 L -1.83 0.247734 L -1.82 0.239023 L -1.81 0.230195 L -1.8 0.22125 L -1.79 0.212266 L -1.78 0.203164 L -1.77 0.193984 L -1.76 0.184727 L -1.75 0.175391 L -1.74 0.165977 L -1.73 0.156523 L -1.72 0.146992 L -1.71 0.137422 L -1.7 0.127773 L -1.69 0.118086 L -1.67 0.0985547 L -1.66 0.08875 L -1.64 0.0689844 L -1.62 0.0491406 L -1.61 0.0391797 L -1.59 0.0191797 L -1.58 0.00921875 L -1.54 -0.0307812 L -1.51 -0.0606641 L -1.48 -0.0903125 L -1.47 -0.100117 L -1.46 -0.109883 L -1.45 -0.119609 L -1.44 -0.129297 L -1.43 -0.138945 L -1.42 -0.148516 L -1.41 -0.158047 L -1.4 -0.1675 L -1.39 -0.176875 L -1.38 -0.186211 L -1.37 -0.19543 L -1.36 -0.204609 L -1.35 -0.213672 L -1.34 -0.222695 L -1.33 -0.231602 L -1.32 -0.24043 L -1.31 -0.249141 L -1.3 -0.257734 L -1.29 -0.26625 L -1.28 -0.274688 L -1.27 -0.282969 L -1.26 -0.291172 L -1.25 -0.299219 L -1.24 -0.307187 L -1.23 -0.315 L -1.22 -0.322734 L -1.21 -0.330273 L -1.2 -0.337734 L -1.19 -0.345039 L -1.18 -0.352187 L -1.17 -0.359219 L -1.16 -0.366133 L -1.15 -0.372852 L -1.14 -0.379453 L -1.13 -0.385859 L -1.12 -0.392148 L -1.11 -0.398281 L -1.1 -0.404258 L -1.09 -0.410039 L -1.08 -0.415703 L -1.07 -0.421172 L -1.06 -0.426484 L -1.05 -0.431602 L -1.04 -0.436562 L -1.03 -0.441367 L -1.02 -0.445977 L -1.01 -0.450391 L -1 -0.454648 L -0.99 -0.458711 L -0.98 -0.462617 L -0.97 -0.466289 L -0.96 -0.469805 L -0.95 -0.473164 L -0.94 -0.476289 L -0.93 -0.479219 L -0.92 -0.481992 L -0.91 -0.48457 L -0.9 -0.486914 L -0.89 -0.489102 L -0.88 -0.491094 L -0.87 -0.492852 L -0.86 -0.494453 L -0.85 -0.49582 L -0.84 -0.497031 L -0.83 -0.498008 L -0.82 -0.498789 L -0.81 -0.499414 L -0.8 -0.499805 L -0.79 -0.499961 L -0.78 -0.499961 L -0.77 -0.499766 L -0.76 -0.499336 L -0.75 -0.49875 L -0.74 -0.49793 L -0.73 -0.496953 L -0.72 -0.495742 L -0.71 -0.494336 L -0.7 -0.492734 L -0.69 -0.490938 L -0.68 -0.488945 L -0.67 -0.486758 L -0.66 -0.484375 L -0.65 -0.481797 L -0.64 -0.479023 L -0.63 -0.476055 L -0.62 -0.472891 L -0.61 -0.469531 L -0.6 -0.466016 L -0.59 -0.462305 L -0.58 -0.458398 L -0.57 -0.454336 L -0.56 -0.450039 L -0.55 -0.445586 L -0.54 -0.440977 L -0.53 -0.436172 L -0.52 -0.431211 L -0.51 -0.426055 L -0.5 -0.420742 L -0.49 -0.415234 L -0.48 -0.409609 L -0.47 -0.403789 L -0.46 -0.397813 L -0.45 -0.39168 L -0.44 -0.385352 L -0.43 -0.378906 L -0.42 -0.372305 L -0.41 -0.365586 L -0.4 -0.358672 L -0.39 -0.351641 L -0.38 -0.344453 L -0.37 -0.337148 L -0.36 -0.329687 L -0.35 -0.322109 L -0.34 -0.314414 L -0.33 -0.306563 L -0.32 -0.298594 L -0.31 -0.290508 L -0.3 -0.282305 L -0.29 -0.274023 L -0.28 -0.265586 L -0.27 -0.25707 L -0.26 -0.248438 L -0.25 -0.239727 L -0.24 -0.230898 L -0.23 -0.221992 L -0.22 -0.212969 L -0.21 -0.203867 L -0.2 -0.194727 L -0.19 -0.185469 L -0.18 -0.176133 L -0.17 -0.166758 L -0.15 -0.147773 L -0.13 -0.128555 L -0.12 -0.118867 L -0.1 -0.0993359 L -0.09 -0.0895312 L -0.07 -0.0697656 L -0.05 -0.0499219 L -0.03 -0.03 L 0.04 0.04 L 0.05 0.0499609 L 0.07 0.0699609 L 0.1 0.0998438 L 0.11 0.109766 L 0.12 0.119727 L 0.13 0.129648 L 0.14 0.139531 L 0.15 0.149453 L 0.16 0.159336 L 0.19 0.188867 L 0.21 0.208477 L 0.22 0.218242 L 0.25 0.247422 L 0.28 0.276367 L 0.31 0.305078 L 0.33 0.324062 L 0.35 0.342891 L 0.36 0.352266 L 0.38 0.370937 L 0.39 0.380195 L 0.4 0.389414 L 0.42 0.407773 L 0.43 0.416875 L 0.44 0.425937 L 0.45 0.434961 L 0.46 0.443945 L 0.47 0.452891 L 0.48 0.461797 L 0.49 0.470625 L 0.5 0.479414 L 0.51 0.488164 L 0.52 0.496875 L 0.53 0.505547 L 0.54 0.514141 L 0.55 0.522695 L 0.57 0.539648 L 0.59 0.556367 L 0.6 0.564648 L 0.62 0.581055 L 0.63 0.589141 L 0.64 0.597187 L 0.65 0.605195 L 0.66 0.613125 L 0.67 0.620977 L 0.68 0.628789 L 0.69 0.636523 L 0.7 0.644219 L 0.71 0.651836 L 0.72 0.659375 L 0.73 0.666875 L 0.74 0.674297 L 0.75 0.681641 L 0.76 0.688906 L 0.77 0.696133 L 0.78 0.703281 L 0.79 0.710352 L 0.8 0.717344 L 0.81 0.724297 L 0.82 0.731133 L 0.83 0.73793 L 0.84 0.744648 L 0.85 0.751289 L 0.86 0.757852 L 0.87 0.764336 L 0.88 0.770742 L 0.89 0.77707 L 0.9 0.78332 L 0.91 0.789492 L 0.92 0.795586 L 0.93 0.801602 L 0.94 0.807539 L 0.95 0.813398 L 0.96 0.81918 L 0.97 0.824883 L 0.98 0.830508 L 0.99 0.836016 L 1 0.841484 L 1.01 0.846836 L 1.02 0.852109 L 1.03 0.857305 L 1.04 0.862422 L 1.05 0.867422 L 1.06 0.872344 L 1.07 0.877188 L 1.08 0.881953 L 1.09 0.886641 L 1.1 0.891211 L 1.11 0.895703 L 1.12 0.900117 L 1.13 0.904414 L 1.14 0.908633 L 1.15 0.912773 L 1.16 0.916797 L 1.17 0.920742 L 1.18 0.924609 L 1.19 0.928359 L 1.2 0.932031 L 1.21 0.935625 L 1.22 0.939102 L 1.23 0.9425 L 1.24 0.945781 L 1.25 0.948984 L 1.26 0.952109 L 1.27 0.955117 L 1.28 0.958008 L 1.29 0.96082 L 1.3 0.963555 L 1.31 0.966172 L 1.32 0.968711 L 1.33 0.971133 L 1.34 0.973477 L 1.35 0.975742 L 1.36 0.977852 L 1.37 0.979922 L 1.38 0.981836 L 1.39 0.983711 L 1.4 0.985469 L 1.41 0.987109 L 1.42 0.988633 L 1.43 0.990117 L 1.44 0.991445 L 1.45 0.992695 L 1.46 0.993867 L 1.47 0.994922 L 1.48 0.995898 L 1.49 0.996719 L 1.5 0.9975 L 1.51 0.998164 L 1.52 0.998711 L 1.53 0.99918 L 1.54 0.999531 L 1.55 0.999766 L 1.56 0.999961 L 1.57 1 L 1.58 0.999961 L 1.59 0.999805 L 1.6 0.99957 L 1.61 0.999219 L 1.62 0.998789 L 1.63 0.998242 L 1.64 0.997617 L 1.65 0.996875 L 1.66 0.996016 L 1.67 0.995078 L 1.68 0.994063 L 1.69 0.992891 L 1.7 0.99168 L 1.71 0.990312 L 1.72 0.988906 L 1.73 0.987344 L 1.74 0.985703 L 1.75 0.983984 L 1.76 0.982148 L 1.77 0.980234 L 1.78 0.978203 L 1.79 0.976055 L 1.8 0.973828 L 1.81 0.971523 L 1.82 0.969102 L 1.83 0.966602 L 1.84 0.963984 L 1.85 0.961289 L 1.86 0.958477 L 1.87 0.955586 L 1.88 0.952578 L 1.89 0.949492 L 1.9 0.946289 L 1.91 0.943008 L 1.92 0.939648 L 1.93 0.936172 L 1.94 0.932617 L 1.95 0.928945 L 1.96 0.925195 L 1.97 0.921367 L 1.98 0.917422 L 1.99 0.913398 L 2 0.909297 L 2.01 0.905078 L 2.02 0.900781 L 2.03 0.896406 L 2.04 0.891914 L 2.05 0.887344 L 2.06 0.882695 L 2.07 0.877969 L 2.08 0.873125 L 2.09 0.868203 L 2.1 0.863203 L 2.11 0.858125 L 2.12 0.85293 L 2.13 0.847695 L 2.14 0.842344 L 2.15 0.836914 L 2.16 0.831367 L 2.17 0.825781 L 2.18 0.820117 L 2.19 0.814336 L 2.2 0.808516 L 2.21 0.802578 L 2.22 0.796563 L 2.23 0.790469 L 2.24 0.784297 L 2.25 0.778086 L 2.26 0.771758 L 2.27 0.765352 L 2.28 0.758867 L 2.29 0.752344 L 2.3 0.745703 L 2.31 0.739023 L 2.32 0.732227 L 2.33 0.725391 L 2.34 0.718477 L 2.35 0.711484 L 2.36 0.704414 L 2.37 0.697266 L 2.38 0.690078 L 2.39 0.682813 L 2.4 0.675469 L 2.41 0.668047 L 2.42 0.660586 L 2.43 0.653047 L 2.44 0.64543 L 2.45 0.637773 L 2.46 0.630039 L 2.47 0.622227 L 2.48 0.614375 L 2.49 0.606445 L 2.5 0.598477 L 2.51 0.59043 L 2.52 0.582344 L 2.53 0.57418 L 2.55 0.557695 L 2.57 0.540977 L 2.58 0.532539 L 2.59 0.524062 L 2.6 0.515508 L 2.61 0.506914 L 2.63 0.48957 L 2.64 0.48082 L 2.65 0.472031 L 2.66 0.463203 L 2.68 0.445391 L 2.69 0.436406 L 2.7 0.427383 L 2.71 0.41832 L 2.72 0.409219 L 2.73 0.400078 L 2.74 0.390898 L 2.75 0.38168 L 2.77 0.363086 L 2.78 0.35375 L 2.8 0.335 L 2.82 0.316094 L 2.84 0.297031 L 2.86 0.277891 L 2.87 0.268281 L 2.88 0.258633 L 2.9 0.239258 L 2.91 0.229531 L 2.94 0.200234 L 2.95 0.19043 L 2.98 0.160898 L 3 0.141133 L 3.03 0.111367 L 3.08 0.0615625 L 3.1 0.0415625 L 3.11 0.0316016 L 3.19 -0.0483984 L 3.2 -0.0583594 L 3.21 -0.0683594 L 3.25 -0.108203 L 3.28 -0.137969 L 3.31 -0.167617 L 3.33 -0.187305 L 3.35 -0.206914 L 3.37 -0.226445 L 3.38 -0.236172 L 3.4 -0.255547 L 3.42 -0.274844 L 3.45 -0.303555 L 3.47 -0.322539 L 3.48 -0.331992 L 3.49 -0.341406 L 3.5 -0.350781 L 3.52 -0.369453 L 3.54 -0.387969 L 3.55 -0.397148 L 3.57 -0.41543 L 3.58 -0.424492 L 3.6 -0.442539 L 3.61 -0.451484 L 3.63 -0.469219 L 3.65 -0.486797 L 3.66 -0.495508 L 3.68 -0.512773 L 3.69 -0.521328 L 3.7 -0.529844 L 3.71 -0.538281 L 3.72 -0.54668 L 3.73 -0.555039 L 3.74 -0.56332 L 3.75 -0.571563 L 3.76 -0.579727 L 3.77 -0.587852 L 3.78 -0.595898 L 3.79 -0.603906 L 3.8 -0.611875 L 3.81 -0.619727 L 3.82 -0.627539 L 3.83 -0.635312 L 3.84 -0.643008 L 3.85 -0.650625 L 3.86 -0.658203 L 3.88 -0.673125 L 3.89 -0.680469 L 3.9 -0.687773 L 3.91 -0.695 L 3.92 -0.702148 L 3.93 -0.709219 L 3.94 -0.71625 L 3.95 -0.723203 L 3.97 -0.736875 L 3.98 -0.743594 L 3.99 -0.750234 L 4 -0.756797 L 4.01 -0.76332 L 4.02 -0.769727 L 4.03 -0.776055 L 4.04 -0.782344 L 4.05 -0.788516 L 4.06 -0.794648 L 4.07 -0.800664 L 4.08 -0.806602 L 4.09 -0.8125 L 4.1 -0.818281 L 4.11 -0.823984 L 4.12 -0.829609 L 4.13 -0.835156 L 4.14 -0.840625 L 4.15 -0.845977 L 4.16 -0.851289 L 4.17 -0.856484 L 4.18 -0.861602 L 4.19 -0.866641 L 4.2 -0.871563 L 4.21 -0.876445 L 4.22 -0.881211 L 4.23 -0.885898 L 4.24 -0.890469 L 4.25 -0.895 L 4.26 -0.899414 L 4.27 -0.90375 L 4.28 -0.907969 L 4.29 -0.912109 L 4.3 -0.916172 L 4.31 -0.920117 L 4.32 -0.923984 L 4.33 -0.927773 L 4.34 -0.931445 L 4.35 -0.935039 L 4.36 -0.938555 L 4.37 -0.941953 L 4.38 -0.945273 L 4.39 -0.948477 L 4.4 -0.951602 L 4.41 -0.954609 L 4.42 -0.957539 L 4.43 -0.960391 L 4.44 -0.963125 L 4.45 -0.965781 L 4.46 -0.96832 L 4.47 -0.970781 L 4.48 -0.973125 L 4.49 -0.975391 L 4.5 -0.977539 L 4.51 -0.97957 L 4.52 -0.981562 L 4.53 -0.983398 L 4.54 -0.985195 L 4.55 -0.986836 L 4.56 -0.988398 L 4.57 -0.989883 L 4.58 -0.99125 L 4.59 -0.992539 L 4.6 -0.993672 L 4.61 -0.994766 L 4.62 -0.995742 L 4.63 -0.996602 L 4.64 -0.997383 L 4.65 -0.998047 L 4.66 -0.998633 L 4.67 -0.999102 L 4.68 -0.999492 L 4.69 -0.999766 L 4.7 -0.999922 L 4.71 -1 L 4.72 -0.999961 L 4.73 -0.999844 L 4.74 -0.999609 L 4.75 -0.999297 L 4.76 -0.998867 L 4.77 -0.998359 L 4.78 -0.997734 L 4.79 -0.996992 L 4.8 -0.996172 L 4.81 -0.995234 L 4.82 -0.994219 L 4.83 -0.993086 L 4.84 -0.991875 L 4.85 -0.990547 L 4.86 -0.989141 L 4.87 -0.987617 L 4.88 -0.985977 L 4.89 -0.984258 L 4.9 -0.982461 L 4.91 -0.980547 L 4.92 -0.978516 L 4.93 -0.976406 L 4.94 -0.974219 L 4.95 -0.971914 L 4.96 -0.969492 L 4.97 -0.966992 L 4.98 -0.964414 L 4.99 -0.961719 L 5 -0.958906 " transform="matrix(100,0,0,-100,500,200)"/>
<path style="fill:none;stroke-width:0.03;stroke-linecap:butt;stroke-linejoin:miter;stroke:rgb(87.058824%,29.803922%,71.764706%);stroke-opacity:0.5;stroke-miterlimit:10;" d="M -5 -0.228242 L -4.99 -0.223984 L -4.98 -0.219336 L -4.97 -0.214375 L -4.96 -0.209062 L -4.95 -0.203438 L -4.94 -0.197461 L -4.93 -0.191172 L -4.92 -0.18457 L -4.91 -0.177656 L -4.9 -0.170508 L -4.89 -0.163047 L -4.88 -0.155352 L -4.87 -0.147383 L -4.86 -0.13918 L -4.85 -0.130781 L -4.84 -0.122148 L -4.83 -0.11332 L -4.82 -0.104336 L -4.81 -0.0951563 L -4.8 -0.0858203 L -4.79 -0.0763672 L -4.78 -0.0667969 L -4.77 -0.0571094 L -4.76 -0.0473047 L -4.75 -0.0374609 L -4.74 -0.0275391 L -4.72 -0.00761719 L -4.7 0.0123828 L -4.68 0.0323047 L -4.67 0.0421875 L -4.66 0.0519922 L -4.65 0.0617578 L -4.64 0.0713672 L -4.63 0.0808984 L -4.62 0.0903125 L -4.61 0.0995313 L -4.6 0.108633 L -4.59 0.117539 L -4.58 0.126289 L -4.57 0.134805 L -4.56 0.143125 L -4.55 0.151211 L -4.54 0.159062 L -4.53 0.166641 L -4.52 0.173945 L -4.51 0.180977 L -4.5 0.187734 L -4.49 0.19418 L -4.48 0.200352 L -4.47 0.206172 L -4.46 0.211641 L -4.45 0.216797 L -4.44 0.221602 L -4.43 0.226055 L -4.42 0.230156 L -4.41 0.233867 L -4.4 0.237227 L -4.39 0.240195 L -4.38 0.242773 L -4.37 0.244961 L -4.36 0.246758 L -4.35 0.248164 L -4.34 0.24918 L -4.33 0.249805 L -4.32 0.25 L -4.31 0.249805 L -4.3 0.249219 L -4.29 0.248242 L -4.28 0.246875 L -4.27 0.245078 L -4.26 0.242891 L -4.25 0.240352 L -4.24 0.237422 L -4.23 0.234102 L -4.22 0.230391 L -4.21 0.226328 L -4.2 0.221875 L -4.19 0.217109 L -4.18 0.211992 L -4.17 0.206523 L -4.16 0.200703 L -4.15 0.19457 L -4.14 0.188164 L -4.13 0.181406 L -4.12 0.174414 L -4.11 0.167109 L -4.1 0.159531 L -4.09 0.151719 L -4.08 0.143633 L -4.07 0.135352 L -4.06 0.126836 L -4.05 0.118125 L -4.04 0.109219 L -4.03 0.100117 L -4.02 0.0908594 L -4.01 0.0814844 L -4 0.0719922 L -3.99 0.0623437 L -3.98 0.0526172 L -3.97 0.0428125 L -3.96 0.0329297 L -3.94 0.0130078 L -3.91 -0.0169922 L -3.9 -0.0269531 L -3.89 -0.036875 L -3.88 -0.0467188 L -3.87 -0.0564844 L -3.86 -0.0662109 L -3.85 -0.0757812 L -3.84 -0.0852344 L -3.83 -0.0945703 L -3.82 -0.10375 L -3.81 -0.112773 L -3.8 -0.121602 L -3.79 -0.130234 L -3.78 -0.138672 L -3.77 -0.146875 L -3.76 -0.154844 L -3.75 -0.162578 L -3.74 -0.170039 L -3.73 -0.177227 L -3.72 -0.184141 L -3.71 -0.190742 L -3.7 -0.19707 L -3.69 -0.203047 L -3.68 -0.208711 L -3.67 -0.214063 L -3.66 -0.219063 L -3.65 -0.223711 L -3.64 -0.227969 L -3.63 -0.231914 L -3.62 -0.235469 L -3.61 -0.238633 L -3.6 -0.241406 L -3.59 -0.243828 L -3.58 -0.24582 L -3.57 -0.247461 L -3.56 -0.248672 L -3.55 -0.249492 L -3.54 -0.249922 L -3.53 -0.249961 L -3.52 -0.249609 L -3.51 -0.248828 L -3.5 -0.247656 L -3.49 -0.246094 L -3.48 -0.244141 L -3.47 -0.241797 L -3.46 -0.239023 L -3.45 -0.235937 L -3.44 -0.232422 L -3.43 -0.228555 L -3.42 -0.224336 L -3.41 -0.219727 L -3.4 -0.214805 L -3.39 -0.209492 L -3.38 -0.203867 L -3.37 -0.19793 L -3.36 -0.19168 L -3.35 -0.185078 L -3.34 -0.178242 L -3.33 -0.171055 L -3.32 -0.163633 L -3.31 -0.155937 L -3.3 -0.148008 L -3.29 -0.139844 L -3.28 -0.131445 L -3.27 -0.122852 L -3.26 -0.114023 L -3.25 -0.105039 L -3.24 -0.0958984 L -3.23 -0.0865625 L -3.22 -0.0771094 L -3.21 -0.0675391 L -3.2 -0.0578906 L -3.19 -0.0480859 L -3.18 -0.0382422 L -3.17 -0.0283594 L -3.16 -0.0183984 L -3.13 0.0116016 L -3.11 0.0315234 L -3.1 0.0414062 L -3.09 0.0512109 L -3.08 0.0609766 L -3.07 0.070625 L -3.06 0.0801562 L -3.05 0.0895703 L -3.04 0.0988281 L -3.03 0.10793 L -3.02 0.116836 L -3.01 0.125586 L -3 0.134141 L -2.99 0.142461 L -2.98 0.150586 L -2.97 0.158438 L -2.96 0.166055 L -2.95 0.173398 L -2.94 0.18043 L -2.93 0.187227 L -2.92 0.193711 L -2.91 0.199844 L -2.9 0.205703 L -2.89 0.211211 L -2.88 0.216406 L -2.87 0.22125 L -2.86 0.225703 L -2.85 0.229844 L -2.84 0.233594 L -2.83 0.236953 L -2.82 0.239961 L -2.81 0.242578 L -2.8 0.244805 L -2.79 0.246641 L -2.78 0.248086 L -2.77 0.249102 L -2.76 0.249766 L -2.75 0.25 L -2.74 0.249844 L -2.73 0.249297 L -2.72 0.24832 L -2.71 0.246992 L -2.7 0.245234 L -2.69 0.243086 L -2.68 0.240586 L -2.67 0.237656 L -2.66 0.234375 L -2.65 0.230703 L -2.64 0.226641 L -2.63 0.222266 L -2.62 0.2175 L -2.61 0.212383 L -2.6 0.206953 L -2.59 0.201172 L -2.58 0.195078 L -2.57 0.188672 L -2.56 0.181953 L -2.55 0.174961 L -2.54 0.167695 L -2.53 0.160156 L -2.52 0.152344 L -2.51 0.144297 L -2.5 0.136016 L -2.49 0.1275 L -2.48 0.118789 L -2.47 0.109922 L -2.46 0.100859 L -2.45 0.0916016 L -2.44 0.0822266 L -2.43 0.0727344 L -2.42 0.063125 L -2.41 0.0533984 L -2.4 0.0435937 L -2.39 0.0337109 L -2.38 0.0237891 L -2.35 -0.00621094 L -2.33 -0.0261328 L -2.32 -0.0360547 L -2.31 -0.0459375 L -2.3 -0.0557031 L -2.29 -0.0654297 L -2.28 -0.0750391 L -2.27 -0.0844922 L -2.26 -0.0938281 L -2.25 -0.103047 L -2.24 -0.11207 L -2.23 -0.120898 L -2.22 -0.12957 L -2.21 -0.138008 L -2.2 -0.146211 L -2.19 -0.154219 L -2.18 -0.161953 L -2.17 -0.169453 L -2.16 -0.17668 L -2.15 -0.183594 L -2.14 -0.190234 L -2.13 -0.196563 L -2.12 -0.202578 L -2.11 -0.208281 L -2.1 -0.213633 L -2.09 -0.218672 L -2.08 -0.223359 L -2.07 -0.227656 L -2.06 -0.231602 L -2.05 -0.235195 L -2.04 -0.238398 L -2.03 -0.241211 L -2.02 -0.243633 L -2.01 -0.245703 L -2 -0.247344 L -1.99 -0.248594 L -1.98 -0.249453 L -1.97 -0.249922 L -1.96 -0.249961 L -1.95 -0.249648 L -1.94 -0.248906 L -1.93 -0.247773 L -1.92 -0.246211 L -1.91 -0.244297 L -1.9 -0.241992 L -1.89 -0.239258 L -1.88 -0.236172 L -1.87 -0.232734 L -1.86 -0.228867 L -1.85 -0.224687 L -1.84 -0.220117 L -1.83 -0.215195 L -1.82 -0.209922 L -1.81 -0.204336 L -1.8 -0.198398 L -1.79 -0.192188 L -1.78 -0.185625 L -1.77 -0.178789 L -1.76 -0.171641 L -1.75 -0.164258 L -1.74 -0.156563 L -1.73 -0.148672 L -1.72 -0.140508 L -1.71 -0.132109 L -1.7 -0.123516 L -1.69 -0.114727 L -1.68 -0.105781 L -1.67 -0.0966016 L -1.66 -0.0873047 L -1.65 -0.0778906 L -1.64 -0.0683203 L -1.63 -0.0586328 L -1.62 -0.0488672 L -1.61 -0.0390625 L -1.6 -0.0291406 L -1.58 -0.00921875 L -1.55 0.0207812 L -1.53 0.040625 L -1.52 0.0504297 L -1.51 0.0601953 L -1.5 0.0698437 L -1.49 0.0794141 L -1.48 0.0888281 L -1.47 0.0980859 L -1.46 0.107187 L -1.45 0.116133 L -1.44 0.124922 L -1.43 0.133477 L -1.42 0.141836 L -1.41 0.149922 L -1.4 0.157812 L -1.39 0.16543 L -1.38 0.172813 L -1.37 0.179883 L -1.36 0.18668 L -1.35 0.193203 L -1.34 0.199375 L -1.33 0.205234 L -1.32 0.210781 L -1.31 0.216016 L -1.3 0.220859 L -1.29 0.225352 L -1.28 0.229531 L -1.27 0.233281 L -1.26 0.236719 L -1.25 0.239727 L -1.24 0.242383 L -1.23 0.244648 L -1.22 0.246484 L -1.21 0.247969 L -1.2 0.249023 L -1.19 0.249727 L -1.18 0.25 L -1.17 0.249883 L -1.16 0.249336 L -1.15 0.248437 L -1.14 0.247109 L -1.13 0.245391 L -1.12 0.243281 L -1.11 0.240781 L -1.1 0.237891 L -1.09 0.234648 L -1.08 0.231016 L -1.07 0.226992 L -1.06 0.222617 L -1.05 0.217891 L -1.04 0.212813 L -1.03 0.207383 L -1.02 0.201641 L -1.01 0.195586 L -1 0.189219 L -0.99 0.1825 L -0.98 0.175547 L -0.97 0.168281 L -0.96 0.160742 L -0.95 0.152969 L -0.94 0.144922 L -0.93 0.13668 L -0.92 0.128203 L -0.91 0.119492 L -0.9 0.110625 L -0.89 0.101562 L -0.88 0.0923437 L -0.87 0.0830078 L -0.86 0.0735156 L -0.85 0.0638672 L -0.84 0.0541797 L -0.83 0.044375 L -0.82 0.0344922 L -0.81 0.0245703 L -0.8 0.0146094 L -0.77 -0.0153906 L -0.76 -0.0253516 L -0.75 -0.0352734 L -0.74 -0.0451563 L -0.73 -0.0549609 L -0.72 -0.0646484 L -0.71 -0.0742578 L -0.7 -0.08375 L -0.69 -0.0930859 L -0.68 -0.102305 L -0.67 -0.111328 L -0.66 -0.120195 L -0.65 -0.128867 L -0.64 -0.137344 L -0.63 -0.145586 L -0.62 -0.153594 L -0.61 -0.161367 L -0.6 -0.168867 L -0.59 -0.176094 L -0.58 -0.183047 L -0.57 -0.189727 L -0.56 -0.196094 L -0.55 -0.202109 L -0.54 -0.207852 L -0.53 -0.213242 L -0.52 -0.218281 L -0.51 -0.222969 L -0.5 -0.227344 L -0.49 -0.231289 L -0.48 -0.234922 L -0.47 -0.238125 L -0.46 -0.240977 L -0.45 -0.243477 L -0.44 -0.245547 L -0.43 -0.247227 L -0.42 -0.248516 L -0.41 -0.249414 L -0.4 -0.249883 L -0.39 -0.25 L -0.38 -0.249687 L -0.37 -0.248984 L -0.36 -0.247852 L -0.35 -0.246367 L -0.34 -0.244453 L -0.33 -0.242188 L -0.32 -0.239492 L -0.31 -0.236445 L -0.3 -0.233008 L -0.29 -0.229219 L -0.28 -0.225039 L -0.27 -0.220508 L -0.26 -0.215586 L -0.25 -0.210352 L -0.24 -0.204805 L -0.23 -0.198906 L -0.22 -0.192695 L -0.21 -0.186172 L -0.2 -0.179336 L -0.19 -0.172227 L -0.18 -0.164844 L -0.17 -0.157188 L -0.16 -0.149297 L -0.15 -0.141172 L -0.14 -0.132812 L -0.13 -0.124219 L -0.12 -0.11543 L -0.11 -0.106484 L -0.1 -0.0973437 L -0.09 -0.0880859 L -0.08 -0.0786328 L -0.07 -0.0691016 L -0.06 -0.0594141 L -0.05 -0.0496484 L -0.04 -0.0398438 L -0.03 -0.0299219 L -0.01 -0.01 L 0.04 0.04 L 0.05 0.0499609 L 0.07 0.0699609 L 0.1 0.0998438 L 0.11 0.109766 L 0.12 0.119727 L 0.13 0.129648 L 0.14 0.139531 L 0.15 0.149453 L 0.16 0.159336 L 0.19 0.188867 L 0.21 0.208477 L 0.22 0.218242 L 0.25 0.247422 L 0.28 0.276367 L 0.31 0.305078 L 0.33 0.324062 L 0.35 0.342891 L 0.36 0.352266 L 0.38 0.370937 L 0.39 0.380195 L 0.4 0.389414 L 0.42 0.407773 L 0.43 0.416875 L 0.44 0.425937 L 0.45 0.434961 L 0.46 0.443945 L 0.47 0.452891 L 0.48 0.461797 L 0.49 0.470625 L 0.5 0.479414 L 0.51 0.488164 L 0.52 0.496875 L 0.53 0.505547 L 0.54 0.514141 L 0.55 0.522695 L 0.57 0.539648 L 0.59 0.556367 L 0.6 0.564648 L 0.62 0.581055 L 0.63 0.589141 L 0.64 0.597187 L 0.65 0.605195 L 0.66 0.613125 L 0.67 0.620977 L 0.68 0.628789 L 0.69 0.636523 L 0.7 0.644219 L 0.71 0.651836 L 0.72 0.659375 L 0.73 0.666875 L 0.74 0.674297 L 0.75 0.681641 L 0.76 0.688906 L 0.77 0.696133 L 0.78 0.703281 L 0.79 0.710352 L 0.8 0.717344 L 0.81 0.724297 L 0.82 0.731133 L 0.83 0.73793 L 0.84 0.744648 L 0.85 0.751289 L 0.86 0.757852 L 0.87 0.764336 L 0.88 0.770742 L 0.89 0.77707 L 0.9 0.78332 L 0.91 0.789492 L 0.92 0.795586 L 0.93 0.801602 L 0.94 0.807539 L 0.95 0.813398 L 0.96 0.81918 L 0.97 0.824883 L 0.98 0.830508 L 0.99 0.836016 L 1 0.841484 L 1.01 0.846836 L 1.02 0.852109 L 1.03 0.857305 L 1.04 0.862422 L 1.05 0.867422 L 1.06 0.872344 L 1.07 0.877188 L 1.08 0.881953 L 1.09 0.886641 L 1.1 0.891211 L 1.11 0.895703 L 1.12 0.900117 L 1.13 0.904414 L 1.14 0.908633 L 1.15 0.912773 L 1.16 0.916797 L 1.17 0.920742 L 1.18 0.924609 L 1.19 0.928359 L 1.2 0.932031 L 1.21 0.935625 L 1.22 0.939102 L 1.23 0.9425 L 1.24 0.945781 L 1.25 0.948984 L 1.26 0.952109 L 1.27 0.955117 L 1.28 0.958008 L 1.29 0.96082 L 1.3 0.963555 L 1.31 0.966172 L 1.32 0.968711 L 1.33 0.971133 L 1.34 0.973477 L 1.35 0.975742 L 1.36 0.977852 L 1.37 0.979922 L 1.38 0.981836 L 1.39 0.983711 L 1.4 0.985469 L 1.41 0.987109 L 1.42 0.988633 L 1.43 0.990117 L 1.44 0.991445 L 1.45 0.992695 L 1.46 0.993867 L 1.47 0.994922 L 1.48 0.995898 L 1.49 0.996719 L 1.5 0.9975 L 1.51 0.998164 L 1.52 0.998711 L 1.53 0.99918 L 1.54 0.999531 L 1.55 0.999766 L 1.56 0.999961 L 1.57 1 L 1.58 0.999961 L 1.59 0.999805 L 1.6 0.99957 L 1.61 0.999219 L 1.62 0.998789 L 1.63 0.998242 L 1.64 0.997617 L 1.65 0.996875 L 1.66 0.996016 L 1.67 0.995078 L 1.68 0.994063 L 1.69 0.992891 L 1.7 0.99168 L 1.71 0.990312 L 1.72 0.988906 L 1.73 0.987344 L 1.74 0.985703 L 1.75 0.983984 L 1.76 0.982148 L 1.77 0.980234 L 1.78 0.978203 L 1.79 0.976055 L 1.8 0.973828 L 1.81 0.971523 L 1.82 0.969102 L 1.83 0.966602 L 1.84 0.963984 L 1.85 0.961289 L 1.86 0.958477 L 1.87 0.955586 L 1.88 0.952578 L 1.89 0.949492 L 1.9 0.946289 L 1.91 0.943008 L 1.92 0.939648 L 1.93 0.936172 L 1.94 0.932617 L 1.95 0.928945 L 1.96 0.925195 L 1.97 0.921367 L 1.98 0.917422 L 1.99 0.913398 L 2 0.909297 L 2.01 0.905078 L 2.02 0.900781 L 2.03 0.896406 L 2.04 0.891914 L 2.05 0.887344 L 2.06 0.882695 L 2.07 0.877969 L 2.08 0.873125 L 2.09 0.868203 L 2.1 0.863203 L 2.11 0.858125 L 2.12 0.85293 L 2.13 0.847695 L 2.14 0.842344 L 2.15 0.836914 L 2.16 0.831367 L 2.17 0.825781 L 2.18 0.820117 L 2.19 0.814336 L 2.2 0.808516 L 2.21 0.802578 L 2.22 0.796563 L 2.23 0.790469 L 2.24 0.784297 L 2.25 0.778086 L 2.26 0.771758 L 2.27 0.765352 L 2.28 0.758867 L 2.29 0.752344 L 2.3 0.745703 L 2.31 0.739023 L 2.32 0.732227 L 2.33 0.725391 L 2.34 0.718477 L 2.35 0.711484 L 2.36 0.704414 L 2.37 0.697266 L 2.38 0.690078 L 2.39 0.682813 L 2.4 0.675469 L 2.41 0.668047 L 2.42 0.660586 L 2.43 0.653047 L 2.44 0.64543 L 2.45 0.637773 L 2.46 0.630039 L 2.47 0.622227 L 2.48 0.614375 L 2.49 0.606445 L 2.5 0.598477 L 2.51 0.59043 L 2.52 0.582344 L 2.53 0.57418 L 2.55 0.557695 L 2.57 0.540977 L 2.58 0.532539 L 2.59 0.524062 L 2.6 0.515508 L 2.61 0.506914 L 2.63 0.48957 L 2.64 0.48082 L 2.65 0.472031 L 2.66 0.463203 L 2.68 0.445391 L 2.69 0.436406 L 2.7 0.427383 L 2.71 0.41832 L 2.72 0.409219 L 2.73 0.400078 L 2.74 0.390898 L 2.75 0.38168 L 2.77 0.363086 L 2.78 0.35375 L 2.8 0.335 L 2.82 0.316094 L 2.84 0.297031 L 2.86 0.277891 L 2.87 0.268281 L 2.88 0.258633 L 2.9 0.239258 L 2.91 0.229531 L 2.94 0.200234 L 2.95 0.19043 L 2.98 0.160898 L 3 0.141133 L 3.03 0.111367 L 3.08 0.0615625 L 3.1 0.0415625 L 3.11 0.0316016 L 3.19 -0.0483984 L 3.2 -0.0583594 L 3.21 -0.0683594 L 3.25 -0.108203 L 3.28 -0.137969 L 3.31 -0.167617 L 3.33 -0.187305 L 3.35 -0.206914 L 3.37 -0.226445 L 3.38 -0.236172 L 3.4 -0.255547 L 3.42 -0.274844 L 3.45 -0.303555 L 3.47 -0.322539 L 3.48 -0.331992 L 3.49 -0.341406 L 3.5 -0.350781 L 3.52 -0.369453 L 3.54 -0.387969 L 3.55 -0.397148 L 3.57 -0.41543 L 3.58 -0.424492 L 3.6 -0.442539 L 3.61 -0.451484 L 3.63 -0.469219 L 3.65 -0.486797 L 3.66 -0.495508 L 3.68 -0.512773 L 3.69 -0.521328 L 3.7 -0.529844 L 3.71 -0.538281 L 3.72 -0.54668 L 3.73 -0.555039 L 3.74 -0.56332 L 3.75 -0.571563 L 3.76 -0.579727 L 3.77 -0.587852 L 3.78 -0.595898 L 3.79 -0.603906 L 3.8 -0.611875 L 3.81 -0.619727 L 3.82 -0.627539 L 3.83 -0.635312 L 3.84 -0.643008 L 3.85 -0.650625 L 3.86 -0.658203 L 3.88 -0.673125 L 3.89 -0.680469 L 3.9 -0.687773 L 3.91 -0.695 L 3.92 -0.702148 L 3.93 -0.709219 L 3.94 -0.71625 L 3.95 -0.723203 L 3.97 -0.736875 L 3.98 -0.743594 L 3.99 -0.750234 L 4 -0.756797 L 4.01 -0.76332 L 4.02 -0.769727 L 4.03 -0.776055 L 4.04 -0.782344 L 4.05 -0.788516 L 4.06 -0.794648 L 4.07 -0.800664 L 4.08 -0.806602 L 4.09 -0.8125 L 4.1 -0.818281 L 4.11 -0.823984 L 4.12 -0.829609 L 4.13 -0.835156 L 4.14 -0.840625 L 4.15 -0.845977 L 4.16 -0.851289 L 4.17 -0.856484 L 4.18 -0.861602 L 4.19 -0.866641 L 4.2 -0.871563 L 4.21 -0.876445 L 4.22 -0.881211 L 4.23 -0.885898 L 4.24 -0.890469 L 4.25 -0.895 L 4.26 -0.899414 L 4.27 -0.90375 L 4.28 -0.907969 L 4.29 -0.912109 L 4.3 -0.916172 L 4.31 -0.920117 L 4.32 -0.923984 L 4.33 -0.927773 L 4.34 -0.931445 L 4.35 -0.935039 L 4.36 -0.938555 L 4.37 -0.941953 L 4.38 -0.945273 L 4.39 -0.948477 L 4.4 -0.951602 L 4.41 -0.954609 L 4.42 -0.957539 L 4.43 -0.960391 L 4.44 -0.963125 L 4.45 -0.965781 L 4.46 -0.96832 L 4.47 -0.970781 L 4.48 -0.973125 L 4.49 -0.975391 L 4.5 -0.977539 L 4.51 -0.97957 L 4.52 -0.981562 L 4.53 -0.983398 L 4.54 -0.985195 L 4.55 -0.986836 L 4.56 -0.988398 L 4.57 -0.989883 L 4.58 -0.99125 L 4.59 -0.992539 L 4.6 -0.993672 L 4.61 -0.994766 L 4.62 -0.995742 L 4.63 -0.996602 L 4.64 -0.997383 L 4.65 -0.998047 L 4.66 -0.998633 L 4.67 -0.999102 L 4.68 -0.999492 L 4.69 -0.999766 L 4.7 -0.999922 L 4.71 -1 L 4.72 -0.999961 L 4.73 -0.999844 L 4.74 -0.999609 L 4.75 -0.999297 L 4.76 -0.998867 L 4.77 -0.998359 L 4.78 -0.997734 L 4.79 -0.996992 L 4.8 -0.996172 L 4.81 -0.995234 L 4.82 -0.994219 L 4.83 -0.993086 L 4.84 -0.991875 L 4.85 -0.990547 L 4.86 -0.989141 L 4.87 -0.987617 L 4.88 -0.985977 L 4.89 -0.984258 L 4.9 -0.982461 L 4.91 -0.980547 L 4.92 -0.978516 L 4.93 -0.976406 L 4.94 -0.974219 L 4.95 -0.971914 L 4.96 -0.969492 L 4.97 -0.966992 L 4.98 -0.964414 L 4.99 -0.961719 L 5 -0.958906 " transform="matrix(100,0,0,-100,500,200)"/>
<path style="fill:none;stroke-width:0.03;stroke-linecap:butt;stroke-linejoin:miter;stroke:rgb(87.058824%,29.803922%,71.764706%);stroke-opacity:0.25;stroke-miterlimit:10;" d="M -5 -0.093125 L -4.99 -0.0994922 L -4.98 -0.105234 L -4.97 -0.110273 L -4.96 -0.114648 L -4.95 -0.118242 L -4.94 -0.121094 L -4.93 -0.123203 L -4.92 -0.124492 L -4.91 -0.125 L -4.9 -0.124687 L -4.89 -0.123594 L -4.88 -0.121719 L -4.87 -0.119063 L -4.86 -0.115625 L -4.85 -0.111445 L -4.84 -0.106562 L -4.83 -0.101016 L -4.82 -0.0948047 L -4.81 -0.0880078 L -4.8 -0.080625 L -4.79 -0.0727344 L -4.78 -0.064375 L -4.77 -0.0555859 L -4.76 -0.0464844 L -4.75 -0.0370313 L -4.74 -0.0273828 L -4.73 -0.0175391 L -4.72 -0.00761719 L -4.7 0.0123828 L -4.69 0.0222656 L -4.68 0.0320312 L -4.67 0.0415625 L -4.66 0.0508594 L -4.65 0.0598437 L -4.64 0.0683984 L -4.63 0.0765625 L -4.62 0.0842188 L -4.61 0.0913281 L -4.6 0.0978516 L -4.59 0.10375 L -4.58 0.108984 L -4.57 0.113516 L -4.56 0.117344 L -4.55 0.12043 L -4.54 0.122695 L -4.53 0.124219 L -4.52 0.124922 L -4.51 0.124844 L -4.5 0.123984 L -4.49 0.122305 L -4.48 0.119844 L -4.47 0.116602 L -4.46 0.112656 L -4.45 0.107969 L -4.44 0.102578 L -4.43 0.0965234 L -4.42 0.0898828 L -4.41 0.0826562 L -4.4 0.0748828 L -4.39 0.0666797 L -4.38 0.0580078 L -4.37 0.0489453 L -4.36 0.0396094 L -4.35 0.03 L -4.34 0.0202344 L -4.33 0.0103125 L -4.31 -0.0096875 L -4.3 -0.0196094 L -4.29 -0.0294141 L -4.28 -0.0390234 L -4.27 -0.0483984 L -4.26 -0.0574609 L -4.25 -0.0661328 L -4.24 -0.0744141 L -4.23 -0.0821875 L -4.22 -0.0894531 L -4.21 -0.0961328 L -4.2 -0.102227 L -4.19 -0.107656 L -4.18 -0.112383 L -4.17 -0.116406 L -4.16 -0.119648 L -4.15 -0.122148 L -4.14 -0.123906 L -4.13 -0.124805 L -4.12 -0.124961 L -4.11 -0.124297 L -4.1 -0.122813 L -4.09 -0.120586 L -4.08 -0.117578 L -4.07 -0.113789 L -4.06 -0.109297 L -4.05 -0.104102 L -4.04 -0.0982422 L -4.03 -0.0917578 L -4.02 -0.0846484 L -4.01 -0.0770313 L -4 -0.0689453 L -3.99 -0.0603906 L -3.98 -0.0514453 L -3.97 -0.0421484 L -3.96 -0.0326172 L -3.95 -0.0228906 L -3.94 -0.0129688 L -3.93 -0.00300781 L -3.92 0.00699219 L -3.91 0.0169531 L -3.9 0.0267969 L -3.89 0.0364453 L -3.88 0.0458984 L -3.87 0.0550391 L -3.86 0.0638281 L -3.85 0.0722266 L -3.84 0.0801562 L -3.83 0.0875391 L -3.82 0.0944141 L -3.81 0.100625 L -3.8 0.10625 L -3.79 0.111172 L -3.78 0.115391 L -3.77 0.118867 L -3.76 0.121563 L -3.75 0.123516 L -3.74 0.124648 L -3.73 0.125 L -3.72 0.124531 L -3.71 0.123281 L -3.7 0.12125 L -3.69 0.118437 L -3.68 0.114883 L -3.67 0.110586 L -3.66 0.105547 L -3.65 0.0998828 L -3.64 0.0935547 L -3.63 0.0866406 L -3.62 0.0791406 L -3.61 0.0711719 L -3.6 0.0627344 L -3.59 0.0538672 L -3.58 0.0446875 L -3.57 0.0352344 L -3.56 0.0255469 L -3.55 0.0156641 L -3.54 0.00570312 L -3.53 -0.00429688 L -3.52 -0.0142578 L -3.51 -0.0241406 L -3.5 -0.0338672 L -3.49 -0.0433594 L -3.48 -0.0526172 L -3.47 -0.0614844 L -3.46 -0.07 L -3.45 -0.0780469 L -3.44 -0.0855859 L -3.43 -0.0926172 L -3.42 -0.0990234 L -3.41 -0.104805 L -3.4 -0.109922 L -3.39 -0.114297 L -3.38 -0.118008 L -3.37 -0.120898 L -3.36 -0.123047 L -3.35 -0.124414 L -3.34 -0.125 L -3.33 -0.124766 L -3.32 -0.123711 L -3.31 -0.121875 L -3.3 -0.119297 L -3.29 -0.115938 L -3.28 -0.111797 L -3.27 -0.106992 L -3.26 -0.101484 L -3.25 -0.0953125 L -3.24 -0.0885547 L -3.23 -0.0812109 L -3.22 -0.0733594 L -3.21 -0.0650391 L -3.2 -0.0562891 L -3.19 -0.0471875 L -3.18 -0.0378125 L -3.17 -0.0281641 L -3.16 -0.0183594 L -3.15 -0.00839844 L -3.14 0.00160156 L -3.13 0.0115625 L -3.12 0.0214844 L -3.11 0.03125 L -3.1 0.0408203 L -3.09 0.0501562 L -3.08 0.0591406 L -3.07 0.0677344 L -3.06 0.0759375 L -3.05 0.0836328 L -3.04 0.0907813 L -3.03 0.0973438 L -3.02 0.10332 L -3.01 0.108594 L -3 0.113203 L -2.99 0.11707 L -2.98 0.120195 L -2.97 0.122539 L -2.96 0.124141 L -2.95 0.124922 L -2.94 0.124883 L -2.93 0.124062 L -2.92 0.122461 L -2.91 0.120078 L -2.9 0.116914 L -2.89 0.113008 L -2.88 0.108359 L -2.87 0.103047 L -2.86 0.0970312 L -2.85 0.0904297 L -2.84 0.0832422 L -2.83 0.0755469 L -2.82 0.0673438 L -2.81 0.0587109 L -2.8 0.0496875 L -2.79 0.0403516 L -2.78 0.0307812 L -2.77 0.0210156 L -2.76 0.0110937 L -2.75 0.00109375 L -2.73 -0.0188281 L -2.72 -0.0286328 L -2.71 -0.0382812 L -2.7 -0.0476563 L -2.69 -0.0567578 L -2.68 -0.0654687 L -2.67 -0.07375 L -2.66 -0.0816016 L -2.65 -0.0889062 L -2.64 -0.095625 L -2.63 -0.101758 L -2.62 -0.107227 L -2.61 -0.112031 L -2.6 -0.116094 L -2.59 -0.119414 L -2.58 -0.121992 L -2.57 -0.123789 L -2.56 -0.124766 L -2.55 -0.124961 L -2.54 -0.124375 L -2.53 -0.122969 L -2.52 -0.120781 L -2.51 -0.117812 L -2.5 -0.114102 L -2.49 -0.109688 L -2.48 -0.104531 L -2.47 -0.0987109 L -2.46 -0.0922656 L -2.45 -0.0852344 L -2.44 -0.0776562 L -2.43 -0.0696094 L -2.42 -0.0610547 L -2.41 -0.0521484 L -2.4 -0.0429297 L -2.39 -0.0333984 L -2.38 -0.0236719 L -2.37 -0.0137891 L -2.35 0.00621094 L -2.34 0.0161328 L -2.33 0.0260156 L -2.32 0.0357031 L -2.31 0.0451563 L -2.3 0.0543359 L -2.29 0.063125 L -2.28 0.0715625 L -2.27 0.0795313 L -2.26 0.0869922 L -2.25 0.0938672 L -2.24 0.100156 L -2.23 0.10582 L -2.22 0.11082 L -2.21 0.115078 L -2.2 0.118594 L -2.19 0.121367 L -2.18 0.123359 L -2.17 0.12457 L -2.16 0.125 L -2.15 0.124609 L -2.14 0.123437 L -2.13 0.121445 L -2.12 0.118711 L -2.11 0.115195 L -2.1 0.110937 L -2.09 0.105977 L -2.08 0.100352 L -2.07 0.0940625 L -2.06 0.0871875 L -2.05 0.0797656 L -2.04 0.0718359 L -2.03 0.0633984 L -2.02 0.0546094 L -2.01 0.0454297 L -2 0.0359766 L -1.99 0.0262891 L -1.98 0.0164453 L -1.96 -0.00347656 L -1.95 -0.0134766 L -1.94 -0.0233594 L -1.93 -0.0330859 L -1.92 -0.0426172 L -1.91 -0.051875 L -1.9 -0.0607813 L -1.89 -0.0693359 L -1.88 -0.0774219 L -1.87 -0.085 L -1.86 -0.0920703 L -1.85 -0.0985156 L -1.84 -0.104375 L -1.83 -0.109531 L -1.82 -0.113984 L -1.81 -0.117734 L -1.8 -0.120703 L -1.79 -0.12293 L -1.78 -0.124336 L -1.77 -0.124961 L -1.76 -0.124805 L -1.75 -0.123828 L -1.74 -0.12207 L -1.73 -0.119531 L -1.72 -0.116211 L -1.71 -0.112148 L -1.7 -0.107383 L -1.69 -0.101953 L -1.68 -0.0958203 L -1.67 -0.0891016 L -1.66 -0.0818359 L -1.65 -0.0740234 L -1.64 -0.0657031 L -1.63 -0.0570313 L -1.62 -0.0479297 L -1.61 -0.0385547 L -1.6 -0.0289453 L -1.59 -0.0191406 L -1.57 0.00078125 L -1.56 0.0107812 L -1.55 0.0207031 L -1.54 0.0304688 L -1.53 0.0400781 L -1.52 0.0494141 L -1.51 0.0584375 L -1.5 0.0670703 L -1.49 0.0752734 L -1.48 0.0830078 L -1.47 0.0902344 L -1.46 0.0968359 L -1.45 0.102852 L -1.44 0.108203 L -1.43 0.112852 L -1.42 0.116797 L -1.41 0.119961 L -1.4 0.122383 L -1.39 0.124023 L -1.38 0.124883 L -1.37 0.124922 L -1.36 0.12418 L -1.35 0.122617 L -1.34 0.120273 L -1.33 0.117188 L -1.32 0.11332 L -1.31 0.10875 L -1.3 0.103477 L -1.29 0.0975391 L -1.28 0.0909766 L -1.27 0.0838281 L -1.26 0.0761719 L -1.25 0.0680078 L -1.24 0.0594141 L -1.23 0.0504297 L -1.22 0.0411328 L -1.21 0.0315625 L -1.2 0.0217969 L -1.19 0.011875 L -1.18 0.00191406 L -1.17 -0.00808594 L -1.16 -0.0180469 L -1.15 -0.0278516 L -1.14 -0.0375 L -1.13 -0.0469141 L -1.12 -0.0560156 L -1.11 -0.0647656 L -1.1 -0.073125 L -1.09 -0.0809766 L -1.08 -0.0883203 L -1.07 -0.0951172 L -1.06 -0.101289 L -1.05 -0.106836 L -1.04 -0.11168 L -1.03 -0.11582 L -1.02 -0.11918 L -1.01 -0.121836 L -1 -0.123672 L -0.99 -0.124727 L -0.98 -0.125 L -0.97 -0.124453 L -0.96 -0.123125 L -0.95 -0.120977 L -0.94 -0.118086 L -0.93 -0.114453 L -0.92 -0.110039 L -0.91 -0.104961 L -0.9 -0.0992187 L -0.89 -0.0928125 L -0.88 -0.0858203 L -0.87 -0.0782812 L -0.86 -0.0702344 L -0.85 -0.0617578 L -0.84 -0.0528906 L -0.83 -0.0436719 L -0.82 -0.0341797 L -0.81 -0.0244531 L -0.8 -0.0145703 L -0.79 -0.00460938 L -0.78 0.00539062 L -0.77 0.0153516 L -0.76 0.0252344 L -0.75 0.0349219 L -0.74 0.0444141 L -0.73 0.0535937 L -0.72 0.0624609 L -0.71 0.0708984 L -0.7 0.0789062 L -0.69 0.0864063 L -0.68 0.0933594 L -0.67 0.0996875 L -0.66 0.105391 L -0.65 0.11043 L -0.64 0.114766 L -0.63 0.118359 L -0.62 0.121172 L -0.61 0.123242 L -0.6 0.124531 L -0.59 0.125 L -0.58 0.124688 L -0.57 0.123555 L -0.56 0.121641 L -0.55 0.118945 L -0.54 0.115508 L -0.53 0.111328 L -0.52 0.106406 L -0.51 0.10082 L -0.5 0.0946094 L -0.49 0.0877734 L -0.48 0.0803906 L -0.47 0.0724609 L -0.46 0.0641016 L -0.45 0.0553125 L -0.44 0.0461719 L -0.43 0.0367578 L -0.42 0.0270703 L -0.41 0.0172266 L -0.4 0.00730469 L -0.38 -0.0126953 L -0.37 -0.0225781 L -0.36 -0.0323437 L -0.35 -0.041875 L -0.34 -0.0511328 L -0.33 -0.0601172 L -0.32 -0.0686719 L -0.31 -0.0767969 L -0.3 -0.0844141 L -0.29 -0.0915234 L -0.28 -0.0980469 L -0.27 -0.103906 L -0.26 -0.109141 L -0.25 -0.113672 L -0.24 -0.117461 L -0.23 -0.120508 L -0.22 -0.122773 L -0.21 -0.124258 L -0.2 -0.124961 L -0.19 -0.124844 L -0.18 -0.123945 L -0.17 -0.122227 L -0.16 -0.119766 L -0.15 -0.116523 L -0.14 -0.1125 L -0.13 -0.107813 L -0.12 -0.102383 L -0.11 -0.0963281 L -0.1 -0.0896875 L -0.09 -0.0824219 L -0.08 -0.0746484 L -0.07 -0.0664062 L -0.06 -0.0577344 L -0.05 -0.0486719 L -0.04 -0.0393359 L -0.03 -0.0297266 L -0.02 -0.0199219 L -0.01 -0.01 L 0.04 0.04 L 0.05 0.0499609 L 0.07 0.0699609 L 0.1 0.0998438 L 0.11 0.109766 L 0.12 0.119727 L 0.13 0.129648 L 0.14 0.139531 L 0.15 0.149453 L 0.16 0.159336 L 0.19 0.188867 L 0.21 0.208477 L 0.22 0.218242 L 0.25 0.247422 L 0.28 0.276367 L 0.31 0.305078 L 0.33 0.324062 L 0.35 0.342891 L 0.36 0.352266 L 0.38 0.370937 L 0.39 0.380195 L 0.4 0.389414 L 0.42 0.407773 L 0.43 0.416875 L 0.44 0.425937 L 0.45 0.434961 L 0.46 0.443945 L 0.47 0.452891 L 0.48 0.461797 L 0.49 0.470625 L 0.5 0.479414 L 0.51 0.488164 L 0.52 0.496875 L 0.53 0.505547 L 0.54 0.514141 L 0.55 0.522695 L 0.57 0.539648 L 0.59 0.556367 L 0.6 0.564648 L 0.62 0.581055 L 0.63 0.589141 L 0.64 0.597187 L 0.65 0.605195 L 0.66 0.613125 L 0.67 0.620977 L 0.68 0.628789 L 0.69 0.636523 L 0.7 0.644219 L 0.71 0.651836 L 0.72 0.659375 L 0.73 0.666875 L 0.74 0.674297 L 0.75 0.681641 L 0.76 0.688906 L 0.77 0.696133 L 0.78 0.703281 L 0.79 0.710352 L 0.8 0.717344 L 0.81 0.724297 L 0.82 0.731133 L 0.83 0.73793 L 0.84 0.744648 L 0.85 0.751289 L 0.86 0.757852 L 0.87 0.764336 L 0.88 0.770742 L 0.89 0.77707 L 0.9 0.78332 L 0.91 0.789492 L 0.92 0.795586 L 0.93 0.801602 L 0.94 0.807539 L 0.95 0.813398 L 0.96 0.81918 L 0.97 0.824883 L 0.98 0.830508 L 0.99 0.836016 L 1 0.841484 L 1.01 0.846836 L 1.02 0.852109 L 1.03 0.857305 L 1.04 0.862422 L 1.05 0.867422 L 1.06 0.872344 L 1.07 0.877188 L 1.08 0.881953 L 1.09 0.886641 L 1.1 0.891211 L 1.11 0.895703 L 1.12 0.900117 L 1.13 0.904414 L 1.14 0.908633 L 1.15 0.912773 L 1.16 0.916797 L 1.17 0.920742 L 1.18 0.924609 L 1.19 0.928359 L 1.2 0.932031 L 1.21 0.935625 L 1.22 0.939102 L 1.23 0.9425 L 1.24 0.945781 L 1.25 0.948984 L 1.26 0.952109 L 1.27 0.955117 L 1.28 0.958008 L 1.29 0.96082 L 1.3 0.963555 L 1.31 0.966172 L 1.32 0.968711 L 1.33 0.971133 L 1.34 0.973477 L 1.35 0.975742 L 1.36 0.977852 L 1.37 0.979922 L 1.38 0.981836 L 1.39 0.983711 L 1.4 0.985469 L 1.41 0.987109 L 1.42 0.988633 L 1.43 0.990117 L 1.44 0.991445 L 1.45 0.992695 L 1.46 0.993867 L 1.47 0.994922 L 1.48 0.995898 L 1.49 0.996719 L 1.5 0.9975 L 1.51 0.998164 L 1.52 0.998711 L 1.53 0.99918 L 1.54 0.999531 L 1.55 0.999766 L 1.56 0.999961 L 1.57 1 L 1.58 0.999961 L 1.59 0.999805 L 1.6 0.99957 L 1.61 0.999219 L 1.62 0.998789 L 1.63 0.998242 L 1.64 0.997617 L 1.65 0.996875 L 1.66 0.996016 L 1.67 0.995078 L 1.68 0.994063 L 1.69 0.992891 L 1.7 0.99168 L 1.71 0.990312 L 1.72 0.988906 L 1.73 0.987344 L 1.74 0.985703 L 1.75 0.983984 L 1.76 0.982148 L 1.77 0.980234 L 1.78 0.978203 L 1.79 0.976055 L 1.8 0.973828 L 1.81 0.971523 L 1.82 0.969102 L 1.83 0.966602 L 1.84 0.963984 L 1.85 0.961289 L 1.86 0.958477 L 1.87 0.955586 L 1.88 0.952578 L 1.89 0.949492 L 1.9 0.946289 L 1.91 0.943008 L 1.92 0.939648 L 1.93 0.936172 L 1.94 0.932617 L 1.95 0.928945 L 1.96 0.925195 L 1.97 0.921367 L 1.98 0.917422 L 1.99 0.913398 L 2 0.909297 L 2.01 0.905078 L 2.02 0.900781 L 2.03 0.896406 L 2.04 0.891914 L 2.05 0.887344 L 2.06 0.882695 L 2.07 0.877969 L 2.08 0.873125 L 2.09 0.868203 L 2.1 0.863203 L 2.11 0.858125 L 2.12 0.85293 L 2.13 0.847695 L 2.14 0.842344 L 2.15 0.836914 L 2.16 0.831367 L 2.17 0.825781 L 2.18 0.820117 L 2.19 0.814336 L 2.2 0.808516 L 2.21 0.802578 L 2.22 0.796563 L 2.23 0.790469 L 2.24 0.784297 L 2.25 0.778086 L 2.26 0.771758 L 2.27 0.765352 L 2.28 0.758867 L 2.29 0.752344 L 2.3 0.745703 L 2.31 0.739023 L 2.32 0.732227 L 2.33 0.725391 L 2.34 0.718477 L 2.35 0.711484 L 2.36 0.704414 L 2.37 0.697266 L 2.38 0.690078 L 2.39 0.682813 L 2.4 0.675469 L 2.41 0.668047 L 2.42 0.660586 L 2.43 0.653047 L 2.44 0.64543 L 2.45 0.637773 L 2.46 0.630039 L 2.47 0.622227 L 2.48 0.614375 L 2.49 0.606445 L 2.5 0.598477 L 2.51 0.59043 L 2.52 0.582344 L 2.53 0.57418 L 2.55 0.557695 L 2.57 0.540977 L 2.58 0.532539 L 2.59 0.524062 L 2.6 0.515508 L 2.61 0.506914 L 2.63 0.48957 L 2.64 0.48082 L 2.65 0.472031 L 2.66 0.463203 L 2.68 0.445391 L 2.69 0.436406 L 2.7 0.427383 L 2.71 0.41832 L 2.72 0.409219 L 2.73 0.400078 L 2.74 0.390898 L 2.75 0.38168 L 2.77 0.363086 L 2.78 0.35375 L 2.8 0.335 L 2.82 0.316094 L 2.84 0.297031 L 2.86 0.277891 L 2.87 0.268281 L 2.88 0.258633 L 2.9 0.239258 L 2.91 0.229531 L 2.94 0.200234 L 2.95 0.19043 L 2.98 0.160898 L 3 0.141133 L 3.03 0.111367 L 3.08 0.0615625 L 3.1 0.0415625 L 3.11 0.0316016 L 3.19 -0.0483984 L 3.2 -0.0583594 L 3.21 -0.0683594 L 3.25 -0.108203 L 3.28 -0.137969 L 3.31 -0.167617 L 3.33 -0.187305 L 3.35 -0.206914 L 3.37 -0.226445 L 3.38 -0.236172 L 3.4 -0.255547 L 3.42 -0.274844 L 3.45 -0.303555 L 3.47 -0.322539 L 3.48 -0.331992 L 3.49 -0.341406 L 3.5 -0.350781 L 3.52 -0.369453 L 3.54 -0.387969 L 3.55 -0.397148 L 3.57 -0.41543 L 3.58 -0.424492 L 3.6 -0.442539 L 3.61 -0.451484 L 3.63 -0.469219 L 3.65 -0.486797 L 3.66 -0.495508 L 3.68 -0.512773 L 3.69 -0.521328 L 3.7 -0.529844 L 3.71 -0.538281 L 3.72 -0.54668 L 3.73 -0.555039 L 3.74 -0.56332 L 3.75 -0.571563 L 3.76 -0.579727 L 3.77 -0.587852 L 3.78 -0.595898 L 3.79 -0.603906 L 3.8 -0.611875 L 3.81 -0.619727 L 3.82 -0.627539 L 3.83 -0.635312 L 3.84 -0.643008 L 3.85 -0.650625 L 3.86 -0.658203 L 3.88 -0.673125 L 3.89 -0.680469 L 3.9 -0.687773 L 3.91 -0.695 L 3.92 -0.702148 L 3.93 -0.709219 L 3.94 -0.71625 L 3.95 -0.723203 L 3.97 -0.736875 L 3.98 -0.743594 L 3.99 -0.750234 L 4 -0.756797 L 4.01 -0.76332 L 4.02 -0.769727 L 4.03 -0.776055 L 4.04 -0.782344 L 4.05 -0.788516 L 4.06 -0.794648 L 4.07 -0.800664 L 4.08 -0.806602 L 4.09 -0.8125 L 4.1 -0.818281 L 4.11 -0.823984 L 4.12 -0.829609 L 4.13 -0.835156 L 4.14 -0.840625 L 4.15 -0.845977 L 4.16 -0.851289 L 4.17 -0.856484 L 4.18 -0.861602 L 4.19 -0.866641 L 4.2 -0.871563 L 4.21 -0.876445 L 4.22 -0.881211 L 4.23 -0.885898 L 4.24 -0.890469 L 4.25 -0.895 L 4.26 -0.899414 L 4.27 -0.90375 L 4.28 -0.907969 L 4.29 -0.912109 L 4.3 -0.916172 L 4.31 -0.920117 L 4.32 -0.923984 L 4.33 -0.927773 L 4.34 -0.931445 L 4.35 -0.935039 L 4.36 -0.938555 L 4.37 -0.941953 L 4.38 -0.945273 L 4.39 -0.948477 L 4.4 -0.951602 L 4.41 -0.954609 L 4.42 -0.957539 L 4.43 -0.960391 L 4.44 -0.963125 L 4.45 -0.965781 L 4.46 -0.96832 L 4.47 -0.970781 L 4.48 -0.973125 L 4.49 -0.975391 L 4.5 -0.977539 L 4.51 -0.97957 L 4.52 -0.981562 L 4.53 -0.983398 L 4.54 -0.985195 L 4.55 -0.986836 L 4.56 -0.988398 L 4.57 -0.989883 L 4.58 -0.99125 L 4.59 -0.992539 L 4.6 -0.993672 L 4.61 -0.994766 L 4.62 -0.995742 L 4.63 -0.996602 L 4.64 -0.997383 L 4.65 -0.998047 L 4.66 -0.998633 L 4.67 -0.999102 L 4.68 -0.999492 L 4.69 -0.999766 L 4.7 -0.999922 L 4.71 -1 L 4.72 -0.999961 L 4.73 -0.999844 L 4.74 -0.999609 L 4.75 -0.999297 L 4.76 -0.998867 L 4.77 -0.998359 L 4.78 -0.997734 L 4.79 -0.996992 L 4.8 -0.996172 L 4.81 -0.995234 L 4.82 -0.994219 L 4.83 -0.993086 L 4.84 -0.991875 L 4.85 -0.990547 L 4.86 -0.989141 L 4.87 -0.987617 L 4.88 -0.985977 L 4.89 -0.984258 L 4.9 -0.982461 L 4.91 -0.980547 L 4.92 -0.978516 L 4.93 -0.976406 L 4.94 -0.974219 L 4.95 -0.971914 L 4.96 -0.969492 L 4.97 -0.966992 L 4.98 -0.964414 L 4.99 -0.961719 L 5 -0.958906 " transform="matrix(100,0,0,-100,500,200)"/>
</g>
</svg>
